M48
; DRILL file {tscircuit} date 2026-09-01T07:31:12.976Z
; FORMAT={-:-/ absolute / metric / decimal}
; #@! TF.CreationDate,2026-09-01T07:31:12.976Z
; #@! TF.GenerationSoftware,tscircuit
; #@! TF.FileFunction,Plated,1,2,PTH
FMAT,2
METRIC
; #@! TA.AperFunction,Plated,PTH,ComponentDrill
T10C1.000000
; #@! TA.AperFunction,Plated,PTH,ComponentDrill
T11C3.200000
%
G90
G05
T10
X-11.4300Y29.2100
X-11.4300Y26.6700
X-11.4300Y24.1300
X-11.4300Y21.5900
X-11.4300Y19.0500
X11.4300Y29.2100
X11.4300Y26.6700
X11.4300Y24.1300
X11.4300Y21.5900
X11.4300Y19.0500
X-6.3500Y24.1300
X-3.8100Y24.1300
X-1.2700Y24.1300
X1.2700Y24.1300
X3.8100Y24.1300
X-6.3500Y-21.5900
X-3.8100Y-21.5900
X-1.2700Y-21.5900
X1.2700Y-21.5900
X3.8100Y-21.5900
T11
X0.1480Y31.1150
X0.5550Y-31.1150
M30