%TF.GenerationSoftware,tscircuit,circuit-json-to-gerber,0.0.96*%
%TF.CreationDate,2026-09-01T07:31:12.969Z*%
%TF.SameCoordinates,Original*%
%TF.FileFunction,Legend,Top*%
%TF.FilePolarity,Positive*%
%FSLAX46Y46*%
%MOMM*%
G04 Gerber Fmt 4.6, Leading zero omitted, Abs format (unit mm)*
G04 Created by tscircuit (builder) date 2026-09-01T07:31:12.969Z*
G01*
%LPD*%
G75*
G04 APERTURE MACROS START*
%AMHORZPILL*
0 Horizontal pill (stadium) shape macro*
0 Parameters:*
0 $1 = Total width*
0 $2 = Total height*
0 $3 = Circle diameter (equal to height)*
0 $4 = Circle center offset
0 21 = Center Line(Exposure, Width, Height, Center X, Center Y, Rotation)*
0 1 = Circle(Exposure, Diameter, Center X, Center Y, Rotation)*
21,1,$1-$3,$2,0.0,0.0,0.0*
1,1,$3,0.0-$4,0.0*
1,1,$3,$4,0.0*%
%AMVERTPILL*
0 Vertical pill (stadium) shape macro*
0 Parameters:*
0 $1 = Total width*
0 $2 = Total height*
0 $3 = Circle diameter (equal to width)*
0 $4 = Circle center offset
0 21 = Center Line(Exposure, Width, Height, Center X, Center Y, Rotation)*
21,1,$1,$2-$3,0.0,0.0,0.0*
1,1,$3,0.0,0.0-$4*
1,1,$3,0.0,$4*%
%AMROUNDRECT*
0 Rectangle with rounded corners*
0 $1 Corner radius*
0 $2 $3 $4 $5 $6 $7 $8 $9 X,Y Position of each corner*
0 Polygon box body*
4,1,4,$2,$3,$4,$5,$6,$7,$8,$9,$2,$3,0*
0 Circles for rounded corners*
1,1,$1+$1,$2,$3*
1,1,$1+$1,$4,$5*
1,1,$1+$1,$6,$7*
1,1,$1+$1,$8,$9*
0 Rectangles between the rounded corners*
20,1,$1+$1,$2,$3,$4,$5,0*
20,1,$1+$1,$4,$5,$6,$7,0*
20,1,$1+$1,$6,$7,$8,$9,0*
20,1,$1+$1,$8,$9,$2,$3,0*%
G04 APERTURE MACROS END*
G04 aperture START LIST*
%ADD10C,0.500000*%
%ADD11R,1.500000X1.500000*%
%ADD12C,1.500000*%
%ADD13C,4.000000*%
%ADD14C,0.090000*%
%ADD15C,0.180000*%
%TD*%
G04 aperture END LIST*
D14*
X-12743282Y031052303D02*
X-12743282Y030577721D01*
X-12214438Y030577721D02*
X-12214438Y031052303D01*
X-12214438Y031052303D02*
X-11888021Y030577721D01*
X-11888021Y030577721D02*
X-11894426Y031052303D01*
X-11520506Y030577721D02*
X-11520506Y031043347D01*
X-11520506Y031043347D02*
X-11424968Y031052303D01*
X-11424968Y031052303D02*
X-11339502Y031046705D01*
X-11339502Y031046705D02*
X-11283929Y031031640D01*
X-11283929Y031031640D02*
X-11259081Y031019464D01*
X-11259081Y031019464D02*
X-11219450Y030983750D01*
X-11219450Y030983750D02*
X-11201839Y030945390D01*
X-11201839Y030945390D02*
X-11197849Y030889312D01*
X-11197849Y030889312D02*
X-11213642Y030854057D01*
X-11213642Y030854057D02*
X-11238289Y030834570D01*
X-11238289Y030834570D02*
X-11277592Y030818945D01*
X-11277592Y030818945D02*
X-11334434Y030807740D01*
X-11334434Y030807740D02*
X-11411686Y030801512D01*
X-11411686Y030801512D02*
X-11512238Y030800819D01*
X-10827429Y031052303D02*
X-10826688Y030787788D01*
X-10826688Y030787788D02*
X-10821584Y030715831D01*
X-10821584Y030715831D02*
X-10808527Y030662531D01*
X-10808527Y030662531D02*
X-10783494Y030621990D01*
X-10783494Y030621990D02*
X-10750744Y030595184D01*
X-10750744Y030595184D02*
X-10701819Y030575824D01*
X-10701819Y030575824D02*
X-10640086Y030568503D01*
X-10640086Y030568503D02*
X-10596757Y030575832D01*
X-10596757Y030575832D02*
X-10561220Y030595140D01*
X-10561220Y030595140D02*
X-10539953Y030617760D01*
X-10539953Y030617760D02*
X-10530823Y030632630D01*
X-10530823Y030632630D02*
X-10516855Y030670541D01*
X-10516855Y030670541D02*
X-10510334Y030720762D01*
X-10510334Y030720762D02*
X-10506822Y031051588D01*
X-10169728Y031052303D02*
X-09780420Y031052303D01*
X-09969293Y031052303D02*
X-09969293Y030577721D01*
D14*
X008748793Y030442150D02*
X008686589Y030461503D01*
X008686589Y030461503D02*
X008629728Y030520384D01*
X008629728Y030520384D02*
X008587678Y030720239D01*
X008587678Y030720239D02*
X008627732Y030869822D01*
X008627732Y030869822D02*
X008676873Y030912426D01*
X008676873Y030912426D02*
X008761959Y030934531D01*
X008761959Y030934531D02*
X008842066Y030907996D01*
X008842066Y030907996D02*
X008888968Y030859498D01*
X008888968Y030859498D02*
X008929134Y030677294D01*
X008929134Y030677294D02*
X008909144Y030562263D01*
X008909144Y030562263D02*
X008873521Y030495783D01*
X008873521Y030495783D02*
X008810247Y030450499D01*
X008810247Y030450499D02*
X008748793Y030442150D01*
X009290155Y030925303D02*
X009290896Y030660787D01*
X009290896Y030660787D02*
X009296000Y030588831D01*
X009296000Y030588831D02*
X009309057Y030535531D01*
X009309057Y030535531D02*
X009334090Y030494990D01*
X009334090Y030494990D02*
X009366840Y030468184D01*
X009366840Y030468184D02*
X009415765Y030448824D01*
X009415765Y030448824D02*
X009477499Y030441503D01*
X009477499Y030441503D02*
X009520827Y030448832D01*
X009520827Y030448832D02*
X009556364Y030468140D01*
X009556364Y030468140D02*
X009577631Y030490760D01*
X009577631Y030490760D02*
X009586762Y030505630D01*
X009586762Y030505630D02*
X009600729Y030543541D01*
X009600729Y030543541D02*
X009607250Y030593762D01*
X009607250Y030593762D02*
X009610762Y030924588D01*
X009947856Y030925303D02*
X010337164Y030925303D01*
X010148291Y030925303D02*
X010148291Y030450721D01*
X010673234Y030450721D02*
X010673234Y030916347D01*
X010673234Y030916347D02*
X010768772Y030925303D01*
X010768772Y030925303D02*
X010854238Y030919705D01*
X010854238Y030919705D02*
X010909812Y030904640D01*
X010909812Y030904640D02*
X010934659Y030892464D01*
X010934659Y030892464D02*
X010974290Y030856750D01*
X010974290Y030856750D02*
X010991901Y030818390D01*
X010991901Y030818390D02*
X010995891Y030762312D01*
X010995891Y030762312D02*
X010980098Y030727057D01*
X010980098Y030727057D02*
X010955451Y030707570D01*
X010955451Y030707570D02*
X010916148Y030691945D01*
X010916148Y030691945D02*
X010859307Y030680740D01*
X010859307Y030680740D02*
X010782054Y030674512D01*
X010782054Y030674512D02*
X010681502Y030673819D01*
X011366311Y030925303D02*
X011367052Y030660787D01*
X011367052Y030660787D02*
X011372156Y030588831D01*
X011372156Y030588831D02*
X011385213Y030535531D01*
X011385213Y030535531D02*
X011410246Y030494990D01*
X011410246Y030494990D02*
X011442996Y030468184D01*
X011442996Y030468184D02*
X011491921Y030448824D01*
X011491921Y030448824D02*
X011553655Y030441503D01*
X011553655Y030441503D02*
X011596983Y030448832D01*
X011596983Y030448832D02*
X011632520Y030468140D01*
X011632520Y030468140D02*
X011653787Y030490760D01*
X011653787Y030490760D02*
X011662918Y030505630D01*
X011662918Y030505630D02*
X011676885Y030543541D01*
X011676885Y030543541D02*
X011683406Y030593762D01*
X011683406Y030593762D02*
X011686918Y030924588D01*
X012024012Y030925303D02*
X012413320Y030925303D01*
X012224447Y030925303D02*
X012224447Y030450721D01*
D15*
X-03714981Y024833442D02*
X-03714981Y025782606D01*
X-03714981Y025782606D02*
X-03062147Y024833442D01*
X-03062147Y024833442D02*
X-03074957Y025782606D01*
X-02400602Y024833442D02*
X-02019645Y025782606D01*
X-02019645Y025782606D02*
X-01608316Y024833442D01*
X-02208472Y025203671D02*
X-01818929Y025203671D01*
X-00982319Y024833442D02*
X-00982319Y025782606D01*
X-00982319Y025782606D02*
X-00620354Y025164511D01*
X-00620354Y025164511D02*
X-00258393Y025782606D01*
X-00258393Y025782606D02*
X-00258393Y024833442D01*
X000454421Y025782606D02*
X000454421Y024833442D01*
X000454421Y025782606D02*
X001073076Y025782606D01*
X000454421Y025308027D02*
X000887479Y025308027D01*
X000454421Y024833442D02*
X001073076Y024833442D01*
D14*
X-13925225Y-32074279D02*
X-13925225Y-31605267D01*
X-13925225Y-31605267D02*
X-13823451Y-31599697D01*
X-13823451Y-31599697D02*
X-13730260Y-31616076D01*
X-13730260Y-31616076D02*
X-13667475Y-31671044D01*
X-13667475Y-31671044D02*
X-13677243Y-31751411D01*
X-13677243Y-31751411D02*
X-13751120Y-31794416D01*
X-13751120Y-31794416D02*
X-13910690Y-31812872D01*
X-13910690Y-31812872D02*
X-13755536Y-31822604D01*
X-13755536Y-31822604D02*
X-13641786Y-31863219D01*
X-13641786Y-31863219D02*
X-13593339Y-31925661D01*
X-13593339Y-31925661D02*
X-13597320Y-32006414D01*
X-13597320Y-32006414D02*
X-13619127Y-32042088D01*
X-13619127Y-32042088D02*
X-13673515Y-32071079D01*
X-13673515Y-32071079D02*
X-13925225Y-32074279D01*
X-13253510Y-32070878D02*
X-13253510Y-31611989D01*
X-13253510Y-31611989D02*
X-13118959Y-31599697D01*
X-13118959Y-31599697D02*
X-13024521Y-31603807D01*
X-13024521Y-31603807D02*
X-12967552Y-31616435D01*
X-12967552Y-31616435D02*
X-12943597Y-31626730D01*
X-12943597Y-31626730D02*
X-12923882Y-31640130D01*
X-12923882Y-31640130D02*
X-12909317Y-31656972D01*
X-12909317Y-31656972D02*
X-12896474Y-31702643D01*
X-12896474Y-31702643D02*
X-12897679Y-31743145D01*
X-12897679Y-31743145D02*
X-12910824Y-31772472D01*
X-12910824Y-31772472D02*
X-12934416Y-31792563D01*
X-12934416Y-31792563D02*
X-12966963Y-31805359D01*
X-12966963Y-31805359D02*
X-13029312Y-31815117D01*
X-13029312Y-31815117D02*
X-13244591Y-31822739D01*
X-13065810Y-31842114D02*
X-12880950Y-32074279D01*
X-12529841Y-31599697D02*
X-12529841Y-32074279D01*
X-12529841Y-31599697D02*
X-12220514Y-31599697D01*
X-12529841Y-31836987D02*
X-12313313Y-31836987D01*
X-12529841Y-32074279D02*
X-12220514Y-32074279D01*
X-11881197Y-32074279D02*
X-11690719Y-31599697D01*
X-11690719Y-31599697D02*
X-11485054Y-32074279D01*
X-11785132Y-31889165D02*
X-11590360Y-31889165D01*
X-11156674Y-32074279D02*
X-11151505Y-31609555D01*
X-11151505Y-31609555D02*
X-11081940Y-31599697D01*
X-11081940Y-31599697D02*
X-11028648Y-31600843D01*
X-11028648Y-31600843D02*
X-10942085Y-31624255D01*
X-10942085Y-31624255D02*
X-10878069Y-31674813D01*
X-10878069Y-31674813D02*
X-10841468Y-31742889D01*
X-10841468Y-31742889D02*
X-10826878Y-31813474D01*
X-10826878Y-31813474D02*
X-10825473Y-31866619D01*
X-10825473Y-31866619D02*
X-10832146Y-31912167D01*
X-10832146Y-31912167D02*
X-10845799Y-31950693D01*
X-10845799Y-31950693D02*
X-10889628Y-32008987D01*
X-10889628Y-32008987D02*
X-10948143Y-32046097D01*
X-10948143Y-32046097D02*
X-11044150Y-32072103D01*
X-11044150Y-32072103D02*
X-11156674Y-32074279D01*
D14*
X-13940263Y-33684279D02*
X-13940263Y-33209697D01*
X-13940263Y-33209697D02*
X-13759281Y-33518744D01*
X-13759281Y-33518744D02*
X-13578300Y-33209697D01*
X-13578300Y-33209697D02*
X-13578300Y-33684279D01*
X-13076843Y-33692850D02*
X-13139047Y-33673497D01*
X-13139047Y-33673497D02*
X-13195908Y-33614616D01*
X-13195908Y-33614616D02*
X-13237958Y-33414762D01*
X-13237958Y-33414762D02*
X-13197904Y-33265179D01*
X-13197904Y-33265179D02*
X-13148763Y-33222574D01*
X-13148763Y-33222574D02*
X-13063677Y-33200469D01*
X-13063677Y-33200469D02*
X-12983570Y-33227004D01*
X-12983570Y-33227004D02*
X-12936668Y-33275502D01*
X-12936668Y-33275502D02*
X-12896502Y-33457706D01*
X-12896502Y-33457706D02*
X-12916492Y-33572737D01*
X-12916492Y-33572737D02*
X-12952115Y-33639217D01*
X-12952115Y-33639217D02*
X-13015389Y-33684501D01*
X-13015389Y-33684501D02*
X-13076843Y-33692850D01*
X-12540778Y-33684279D02*
X-12535609Y-33219555D01*
X-12535609Y-33219555D02*
X-12466044Y-33209697D01*
X-12466044Y-33209697D02*
X-12412752Y-33210843D01*
X-12412752Y-33210843D02*
X-12326189Y-33234255D01*
X-12326189Y-33234255D02*
X-12262173Y-33284813D01*
X-12262173Y-33284813D02*
X-12225572Y-33352889D01*
X-12225572Y-33352889D02*
X-12210982Y-33423474D01*
X-12210982Y-33423474D02*
X-12209577Y-33476619D01*
X-12209577Y-33476619D02*
X-12216251Y-33522167D01*
X-12216251Y-33522167D02*
X-12229903Y-33560693D01*
X-12229903Y-33560693D02*
X-12273732Y-33618987D01*
X-12273732Y-33618987D02*
X-12332247Y-33656097D01*
X-12332247Y-33656097D02*
X-12428254Y-33682103D01*
X-12428254Y-33682103D02*
X-12540778Y-33684279D01*
X-11843429Y-33209697D02*
X-11842688Y-33474213D01*
X-11842688Y-33474213D02*
X-11837584Y-33546169D01*
X-11837584Y-33546169D02*
X-11824527Y-33599469D01*
X-11824527Y-33599469D02*
X-11799494Y-33640010D01*
X-11799494Y-33640010D02*
X-11766744Y-33666816D01*
X-11766744Y-33666816D02*
X-11717819Y-33686176D01*
X-11717819Y-33686176D02*
X-11656086Y-33693497D01*
X-11656086Y-33693497D02*
X-11612757Y-33686168D01*
X-11612757Y-33686168D02*
X-11577220Y-33666860D01*
X-11577220Y-33666860D02*
X-11555953Y-33644240D01*
X-11555953Y-33644240D02*
X-11546823Y-33629370D01*
X-11546823Y-33629370D02*
X-11532855Y-33591459D01*
X-11532855Y-33591459D02*
X-11526334Y-33541238D01*
X-11526334Y-33541238D02*
X-11522822Y-33210412D01*
X-11148984Y-33209697D02*
X-11148984Y-33684279D01*
X-11148984Y-33684279D02*
X-10833163Y-33684279D01*
X-10497093Y-33684279D02*
X-10306615Y-33209697D01*
X-10306615Y-33209697D02*
X-10100950Y-33684279D01*
X-10401028Y-33499165D02*
X-10206256Y-33499165D01*
X-09793250Y-33680878D02*
X-09793250Y-33221989D01*
X-09793250Y-33221989D02*
X-09658699Y-33209697D01*
X-09658699Y-33209697D02*
X-09564261Y-33213807D01*
X-09564261Y-33213807D02*
X-09507292Y-33226435D01*
X-09507292Y-33226435D02*
X-09483337Y-33236730D01*
X-09483337Y-33236730D02*
X-09463622Y-33250130D01*
X-09463622Y-33250130D02*
X-09449057Y-33266972D01*
X-09449057Y-33266972D02*
X-09436214Y-33312643D01*
X-09436214Y-33312643D02*
X-09437419Y-33353145D01*
X-09437419Y-33353145D02*
X-09450564Y-33382472D01*
X-09450564Y-33382472D02*
X-09474156Y-33402563D01*
X-09474156Y-33402563D02*
X-09506703Y-33415359D01*
X-09506703Y-33415359D02*
X-09569051Y-33425117D01*
X-09569051Y-33425117D02*
X-09784331Y-33432739D01*
X-09605550Y-33452114D02*
X-09420690Y-33684279D01*
D14*
X011376302Y-32074279D02*
X011376302Y-31599697D01*
X011376302Y-31599697D02*
X011702719Y-32074279D01*
X011702719Y-32074279D02*
X011696314Y-31599697D01*
X012033491Y-32074279D02*
X012223969Y-31599697D01*
X012223969Y-31599697D02*
X012429634Y-32074279D01*
X012129556Y-31889165D02*
X012324328Y-31889165D01*
X012742633Y-32074279D02*
X012742633Y-31599697D01*
X012742633Y-31599697D02*
X012923615Y-31908744D01*
X012923615Y-31908744D02*
X013104596Y-31599697D01*
X013104596Y-31599697D02*
X013104596Y-32074279D01*
X013461003Y-31599697D02*
X013461003Y-32074279D01*
X013461003Y-31599697D02*
X013770330Y-31599697D01*
X013461003Y-31836987D02*
X013677532Y-31836987D01*
X013461003Y-32074279D02*
X013770330Y-32074279D01*
D14*
X010847458Y-33200469D02*
X010781355Y-33218370D01*
X010781355Y-33218370D02*
X010722169Y-33272915D01*
X010722169Y-33272915D02*
X010689886Y-33352109D01*
X010689886Y-33352109D02*
X010682199Y-33469555D01*
X010682199Y-33469555D02*
X010700647Y-33568023D01*
X010700647Y-33568023D02*
X010748303Y-33649624D01*
X010748303Y-33649624D02*
X010816713Y-33692850D01*
X010816713Y-33692850D02*
X010878204Y-33692850D01*
X010878204Y-33692850D02*
X010946615Y-33649624D01*
X010946615Y-33649624D02*
X010994270Y-33568023D01*
X010994270Y-33568023D02*
X011012718Y-33469555D01*
X011012718Y-33469555D02*
X011005032Y-33352109D01*
X011005032Y-33352109D02*
X010972748Y-33272915D01*
X010972748Y-33272915D02*
X010913562Y-33218370D01*
X010913562Y-33218370D02*
X010847458Y-33200469D01*
X011582576Y-33615752D02*
X011496444Y-33615752D01*
X012231562Y-33200469D02*
X012165459Y-33218370D01*
X012165459Y-33218370D02*
X012106273Y-33272915D01*
X012106273Y-33272915D02*
X012073990Y-33352109D01*
X012073990Y-33352109D02*
X012066303Y-33469555D01*
X012066303Y-33469555D02*
X012084751Y-33568023D01*
X012084751Y-33568023D02*
X012132407Y-33649624D01*
X012132407Y-33649624D02*
X012200817Y-33692850D01*
X012200817Y-33692850D02*
X012262308Y-33692850D01*
X012262308Y-33692850D02*
X012330719Y-33649624D01*
X012330719Y-33649624D02*
X012378374Y-33568023D01*
X012378374Y-33568023D02*
X012396822Y-33469555D01*
X012396822Y-33469555D02*
X012389136Y-33352109D01*
X012389136Y-33352109D02*
X012356852Y-33272915D01*
X012356852Y-33272915D02*
X012297666Y-33218370D01*
X012297666Y-33218370D02*
X012231562Y-33200469D01*
X012966680Y-33615752D02*
X012880548Y-33615752D01*
X013615666Y-33200469D02*
X013549563Y-33218370D01*
X013549563Y-33218370D02*
X013490377Y-33272915D01*
X013490377Y-33272915D02*
X013458094Y-33352109D01*
X013458094Y-33352109D02*
X013450407Y-33469555D01*
X013450407Y-33469555D02*
X013468855Y-33568023D01*
X013468855Y-33568023D02*
X013516511Y-33649624D01*
X013516511Y-33649624D02*
X013584921Y-33692850D01*
X013584921Y-33692850D02*
X013646412Y-33692850D01*
X013646412Y-33692850D02*
X013714823Y-33649624D01*
X013714823Y-33649624D02*
X013762478Y-33568023D01*
X013762478Y-33568023D02*
X013780926Y-33469555D01*
X013780926Y-33469555D02*
X013773240Y-33352109D01*
X013773240Y-33352109D02*
X013740956Y-33272915D01*
X013740956Y-33272915D02*
X013681770Y-33218370D01*
X013681770Y-33218370D02*
X013615666Y-33200469D01*
M02*