G04 #@! TF.GenerationSoftware,KiCad,Pcbnew,10.0.6-10.0.6~ubuntu26.04.1*
G04 #@! TF.CreationDate,2026-10-02T13:38:28+05:30*
G04 #@! TF.ProjectId,32bit-5v,33326269-742d-4357-962e-6b696361645f,rev?*
G04 #@! TF.SameCoordinates,Original*
G04 #@! TF.FileFunction,Copper,L4,Bot*
G04 #@! TF.FilePolarity,Positive*
%FSLAX46Y46*%
G04 Gerber Fmt 4.6, Leading zero omitted, Abs format (unit mm)*
G04 Created by KiCad (PCBNEW 10.0.6-10.0.6~ubuntu26.04.1) date 2026-10-02 13:38:28*
%MOMM*%
%LPD*%
G01*
G04 APERTURE LIST*
G04 #@! TA.AperFunction,HeatsinkPad*
%ADD10C,0.500000*%
G04 #@! TD*
G04 #@! TA.AperFunction,ComponentPad*
%ADD11O,1.000000X2.100000*%
G04 #@! TD*
G04 #@! TA.AperFunction,ComponentPad*
%ADD12O,1.000000X1.600000*%
G04 #@! TD*
G04 #@! TA.AperFunction,ComponentPad*
%ADD13O,2.720000X3.240000*%
G04 #@! TD*
G04 #@! TA.AperFunction,ComponentPad*
%ADD14R,1.800000X1.800000*%
G04 #@! TD*
G04 #@! TA.AperFunction,ComponentPad*
%ADD15C,1.800000*%
G04 #@! TD*
G04 #@! TA.AperFunction,HeatsinkPad*
%ADD16C,0.600000*%
G04 #@! TD*
G04 #@! TA.AperFunction,ComponentPad*
%ADD17R,1.700000X1.700000*%
G04 #@! TD*
G04 #@! TA.AperFunction,ComponentPad*
%ADD18C,1.700000*%
G04 #@! TD*
G04 #@! TA.AperFunction,ComponentPad*
%ADD19R,2.000000X2.000000*%
G04 #@! TD*
G04 #@! TA.AperFunction,ComponentPad*
%ADD20O,2.000000X2.000000*%
G04 #@! TD*
G04 #@! TA.AperFunction,ViaPad*
%ADD21C,4.000000*%
G04 #@! TD*
G04 #@! TA.AperFunction,ViaPad*
%ADD22C,0.500000*%
G04 #@! TD*
G04 #@! TA.AperFunction,ViaPad*
%ADD23C,0.700000*%
G04 #@! TD*
G04 #@! TA.AperFunction,ViaPad*
%ADD24C,0.600000*%
G04 #@! TD*
G04 #@! TA.AperFunction,Conductor*
%ADD25C,0.150000*%
G04 #@! TD*
G04 #@! TA.AperFunction,Conductor*
%ADD26C,0.350000*%
G04 #@! TD*
G04 APERTURE END LIST*
D10*
X68616751Y-81804746D03*
X67273248Y-83148249D03*
X67945000Y-82476498D03*
X69288502Y-82476498D03*
X68616751Y-83148249D03*
G04 #@! TA.AperFunction,HeatsinkPad*
G36*
X66919695Y-83148249D02*
G01*
X68616751Y-81451193D01*
X70313807Y-83148249D01*
X68616751Y-84845305D01*
X66919695Y-83148249D01*
G37*
G04 #@! TD.AperFunction*
X67945000Y-83820000D03*
X69288502Y-83820000D03*
X69960254Y-83148249D03*
X68616751Y-84491752D03*
D11*
X76202000Y-47399000D03*
D12*
X76202000Y-43219000D03*
D11*
X67562000Y-47399000D03*
D12*
X67562000Y-43219000D03*
D13*
X49175000Y-92456000D03*
X58775000Y-92456000D03*
D14*
X51475000Y-99956000D03*
D15*
X53975000Y-99956000D03*
X56475000Y-99956000D03*
D16*
X59470000Y-62900000D03*
X59470000Y-64300000D03*
X60170000Y-62200000D03*
X60170000Y-63600000D03*
X60170000Y-65000000D03*
X60870000Y-62900000D03*
X60870000Y-64300000D03*
X61570000Y-62200000D03*
X61570000Y-63600000D03*
X61570000Y-65000000D03*
X62270000Y-62900000D03*
X62270000Y-64300000D03*
D13*
X65278000Y-92456000D03*
X74878000Y-92456000D03*
D14*
X67578000Y-99956000D03*
D15*
X70078000Y-99956000D03*
X72578000Y-99956000D03*
D17*
X75184000Y-56388000D03*
D18*
X75184000Y-58928000D03*
X75184000Y-61468000D03*
X75184000Y-64008000D03*
X75184000Y-66548000D03*
D19*
X55880000Y-50800000D03*
D20*
X58420000Y-50800000D03*
X60960000Y-50800000D03*
X63500000Y-50800000D03*
X66040000Y-50800000D03*
D19*
X55880000Y-96520000D03*
D20*
X58420000Y-96520000D03*
X60960000Y-96520000D03*
X63500000Y-96520000D03*
X66040000Y-96520000D03*
D17*
X49276000Y-56388000D03*
D18*
X49276000Y-58928000D03*
X49276000Y-61468000D03*
X49276000Y-64008000D03*
X49276000Y-66548000D03*
D21*
X62784908Y-106045000D03*
D22*
X69250000Y-77250000D03*
X74590000Y-84930000D03*
X74572169Y-85492301D03*
X65250000Y-79000000D03*
X70850000Y-77825000D03*
X65500000Y-78250000D03*
X71750000Y-77250000D03*
X74340000Y-81600000D03*
X70958000Y-85506000D03*
X49022000Y-102616000D03*
X74700000Y-79800000D03*
X74350000Y-82760000D03*
D23*
X48260000Y-46228000D03*
D22*
X64516000Y-82550000D03*
D24*
X66349999Y-53250000D03*
D22*
X69050000Y-51550000D03*
X70537336Y-80697336D03*
X49530000Y-77216000D03*
D23*
X69650000Y-56800000D03*
D22*
X65450000Y-53250000D03*
D23*
X50292000Y-41826000D03*
D22*
X54864000Y-81026000D03*
D23*
X52080000Y-53900000D03*
D24*
X59362500Y-47500000D03*
D23*
X56134000Y-41826000D03*
D22*
X49100000Y-52950000D03*
D23*
X53848000Y-54864000D03*
D22*
X67056000Y-86106000D03*
X73830000Y-73370000D03*
D23*
X75107000Y-49784000D03*
D22*
X73860000Y-87670000D03*
D24*
X56250000Y-46500000D03*
D22*
X57400000Y-53000000D03*
X65600000Y-47300000D03*
X66548000Y-81026000D03*
D21*
X62377580Y-43815000D03*
D22*
X67310000Y-77216000D03*
X56896000Y-103124000D03*
X76216000Y-83730000D03*
X74689064Y-80499917D03*
X76125000Y-81041404D03*
X75326000Y-78740000D03*
X57500000Y-52250000D03*
X72800000Y-74892000D03*
D24*
X61950000Y-46500000D03*
X64099999Y-52350000D03*
D22*
X54356000Y-84074000D03*
X49276000Y-74676000D03*
X51308000Y-85598000D03*
D23*
X54920000Y-69836116D03*
X52324000Y-72390000D03*
D22*
X55372000Y-72390000D03*
X54102000Y-45466000D03*
X50930000Y-53450000D03*
X55880000Y-56896000D03*
X55880000Y-53340000D03*
X56371000Y-84582000D03*
X55118000Y-106934000D03*
X57531000Y-82677000D03*
X54593000Y-85598000D03*
X55643000Y-86614000D03*
X52324000Y-85852000D03*
X56896000Y-85344000D03*
X48768000Y-104902000D03*
X69596000Y-60960000D03*
X69342000Y-59690000D03*
X64008000Y-86360000D03*
X64008000Y-85344000D03*
D25*
X75600000Y-80975847D02*
X75600000Y-83114000D01*
X74689064Y-80499917D02*
X75124070Y-80499917D01*
X75124070Y-80499917D02*
X75600000Y-80975847D01*
X75600000Y-83114000D02*
X76216000Y-83730000D01*
X75826000Y-80200000D02*
X75826000Y-80592929D01*
X75826000Y-80592929D02*
X76125000Y-80891929D01*
X75326000Y-79700000D02*
X75826000Y-80200000D01*
X75326000Y-78740000D02*
X75326000Y-79700000D01*
X76125000Y-80891929D02*
X76125000Y-81041404D01*
D26*
X64099999Y-52350000D02*
X64000000Y-52250000D01*
X66650000Y-48550000D02*
X68100000Y-50000000D01*
X68100000Y-50000000D02*
X68100000Y-51500000D01*
X67250000Y-52350000D02*
X64099999Y-52350000D01*
X64000000Y-48550000D02*
X66650000Y-48550000D01*
X68100000Y-51500000D02*
X67250000Y-52350000D01*
X61950000Y-46500000D02*
X64000000Y-48550000D01*
X64000000Y-52250000D02*
X57500000Y-52250000D01*
D25*
X53099884Y-69836116D02*
X54920000Y-69836116D01*
X52324000Y-70612000D02*
X53099884Y-69836116D01*
X52324000Y-72390000D02*
X52324000Y-70612000D01*
X54356000Y-73406000D02*
X51562000Y-73406000D01*
X51455000Y-73299000D02*
X51455000Y-72390000D01*
X53086000Y-50800000D02*
X54102000Y-49784000D01*
X54102000Y-49784000D02*
X54102000Y-45466000D01*
X55372000Y-72390000D02*
X54356000Y-73406000D01*
X51455000Y-72390000D02*
X51455000Y-52431000D01*
X51455000Y-52431000D02*
X53086000Y-50800000D01*
X51562000Y-73406000D02*
X51455000Y-73299000D01*
X56371000Y-88674612D02*
X55880000Y-89165612D01*
X47909000Y-104786877D02*
X50056123Y-106934000D01*
X50056123Y-106934000D02*
X55118000Y-106934000D01*
X47909000Y-104140000D02*
X47909000Y-104786877D01*
X47909000Y-98044000D02*
X47909000Y-104140000D01*
X55880000Y-89165612D02*
X47909000Y-97136612D01*
X47909000Y-97136612D02*
X47909000Y-98044000D01*
X56371000Y-84582000D02*
X56371000Y-88674612D01*
X55863000Y-84328000D02*
X54593000Y-85598000D01*
X55880000Y-84328000D02*
X55863000Y-84328000D01*
X57531000Y-82677000D02*
X55880000Y-84328000D01*
X55643000Y-86614000D02*
X53086000Y-86614000D01*
X53086000Y-86614000D02*
X52324000Y-85852000D01*
X48260000Y-97282000D02*
X56896000Y-88646000D01*
X56896000Y-88646000D02*
X56896000Y-85344000D01*
X48260000Y-104394000D02*
X48260000Y-97282000D01*
X48768000Y-104902000D02*
X48260000Y-104394000D01*
X55880000Y-74676000D02*
X51816000Y-74676000D01*
X51054000Y-60209611D02*
X51054000Y-58166000D01*
X51104000Y-60259612D02*
X51054000Y-60209611D01*
X69596000Y-60960000D02*
X55880000Y-74676000D01*
X51104000Y-73964000D02*
X51104000Y-60259612D01*
X51054000Y-58166000D02*
X49276000Y-56388000D01*
X51816000Y-74676000D02*
X51104000Y-73964000D01*
X69342000Y-59690000D02*
X72644000Y-56388000D01*
X72644000Y-56388000D02*
X75184000Y-56388000D01*
X64008000Y-86360000D02*
X57150000Y-79502000D01*
X57150000Y-74676000D02*
X72898000Y-58928000D01*
X72898000Y-58928000D02*
X75184000Y-58928000D01*
X57150000Y-79502000D02*
X57150000Y-74676000D01*
X63488388Y-85344000D02*
X57501000Y-79356612D01*
X71120000Y-61468000D02*
X75184000Y-61468000D01*
X64008000Y-85344000D02*
X63488388Y-85344000D01*
X57501000Y-75087000D02*
X71120000Y-61468000D01*
X57501000Y-79356612D02*
X57501000Y-75087000D01*
M02*
