G04 #@! TF.GenerationSoftware,KiCad,Pcbnew,10.0.6-10.0.6~ubuntu26.04.1*
G04 #@! TF.CreationDate,2026-10-05T12:41:07+05:30*
G04 #@! TF.ProjectId,16bit-5v,31366269-742d-4357-962e-6b696361645f,rev?*
G04 #@! TF.SameCoordinates,Original*
G04 #@! TF.FileFunction,Legend,Bot*
G04 #@! TF.FilePolarity,Positive*
%FSLAX46Y46*%
G04 Gerber Fmt 4.6, Leading zero omitted, Abs format (unit mm)*
G04 Created by KiCad (PCBNEW 10.0.6-10.0.6~ubuntu26.04.1) date 2026-10-05 12:41:07*
%MOMM*%
%LPD*%
G01*
G04 APERTURE LIST*
%ADD10C,0.150000*%
%ADD11C,0.120000*%
%ADD12C,0.650000*%
%ADD13O,1.000000X2.100000*%
%ADD14O,1.000000X1.600000*%
%ADD15O,2.720000X3.240000*%
%ADD16R,1.800000X1.800000*%
%ADD17C,1.800000*%
%ADD18R,1.700000X1.700000*%
%ADD19O,1.700000X1.700000*%
G04 APERTURE END LIST*
D10*
X53052438Y-95281904D02*
X53004819Y-95186666D01*
X53004819Y-95186666D02*
X53004819Y-95043809D01*
X53004819Y-95043809D02*
X53052438Y-94900952D01*
X53052438Y-94900952D02*
X53147676Y-94805714D01*
X53147676Y-94805714D02*
X53242914Y-94758095D01*
X53242914Y-94758095D02*
X53433390Y-94710476D01*
X53433390Y-94710476D02*
X53576247Y-94710476D01*
X53576247Y-94710476D02*
X53766723Y-94758095D01*
X53766723Y-94758095D02*
X53861961Y-94805714D01*
X53861961Y-94805714D02*
X53957200Y-94900952D01*
X53957200Y-94900952D02*
X54004819Y-95043809D01*
X54004819Y-95043809D02*
X54004819Y-95139047D01*
X54004819Y-95139047D02*
X53957200Y-95281904D01*
X53957200Y-95281904D02*
X53909580Y-95329523D01*
X53909580Y-95329523D02*
X53576247Y-95329523D01*
X53576247Y-95329523D02*
X53576247Y-95139047D01*
X54004819Y-95758095D02*
X53004819Y-95758095D01*
X53004819Y-95758095D02*
X54004819Y-96329523D01*
X54004819Y-96329523D02*
X53004819Y-96329523D01*
X54004819Y-96805714D02*
X53004819Y-96805714D01*
X53004819Y-96805714D02*
X53004819Y-97043809D01*
X53004819Y-97043809D02*
X53052438Y-97186666D01*
X53052438Y-97186666D02*
X53147676Y-97281904D01*
X53147676Y-97281904D02*
X53242914Y-97329523D01*
X53242914Y-97329523D02*
X53433390Y-97377142D01*
X53433390Y-97377142D02*
X53576247Y-97377142D01*
X53576247Y-97377142D02*
X53766723Y-97329523D01*
X53766723Y-97329523D02*
X53861961Y-97281904D01*
X53861961Y-97281904D02*
X53957200Y-97186666D01*
X53957200Y-97186666D02*
X54004819Y-97043809D01*
X54004819Y-97043809D02*
X54004819Y-96805714D01*
X54004819Y-98329523D02*
X54004819Y-97758095D01*
X54004819Y-98043809D02*
X53004819Y-98043809D01*
X53004819Y-98043809D02*
X53147676Y-97948571D01*
X53147676Y-97948571D02*
X53242914Y-97853333D01*
X53242914Y-97853333D02*
X53290533Y-97758095D01*
X53004819Y-46776190D02*
X54004819Y-47109523D01*
X54004819Y-47109523D02*
X53004819Y-47442856D01*
X54100057Y-47538095D02*
X54100057Y-48299999D01*
X53957200Y-48490476D02*
X54004819Y-48633333D01*
X54004819Y-48633333D02*
X54004819Y-48871428D01*
X54004819Y-48871428D02*
X53957200Y-48966666D01*
X53957200Y-48966666D02*
X53909580Y-49014285D01*
X53909580Y-49014285D02*
X53814342Y-49061904D01*
X53814342Y-49061904D02*
X53719104Y-49061904D01*
X53719104Y-49061904D02*
X53623866Y-49014285D01*
X53623866Y-49014285D02*
X53576247Y-48966666D01*
X53576247Y-48966666D02*
X53528628Y-48871428D01*
X53528628Y-48871428D02*
X53481009Y-48680952D01*
X53481009Y-48680952D02*
X53433390Y-48585714D01*
X53433390Y-48585714D02*
X53385771Y-48538095D01*
X53385771Y-48538095D02*
X53290533Y-48490476D01*
X53290533Y-48490476D02*
X53195295Y-48490476D01*
X53195295Y-48490476D02*
X53100057Y-48538095D01*
X53100057Y-48538095D02*
X53052438Y-48585714D01*
X53052438Y-48585714D02*
X53004819Y-48680952D01*
X53004819Y-48680952D02*
X53004819Y-48919047D01*
X53004819Y-48919047D02*
X53052438Y-49061904D01*
X53004819Y-49490476D02*
X53814342Y-49490476D01*
X53814342Y-49490476D02*
X53909580Y-49538095D01*
X53909580Y-49538095D02*
X53957200Y-49585714D01*
X53957200Y-49585714D02*
X54004819Y-49680952D01*
X54004819Y-49680952D02*
X54004819Y-49871428D01*
X54004819Y-49871428D02*
X53957200Y-49966666D01*
X53957200Y-49966666D02*
X53909580Y-50014285D01*
X53909580Y-50014285D02*
X53814342Y-50061904D01*
X53814342Y-50061904D02*
X53004819Y-50061904D01*
X54004819Y-50538095D02*
X53004819Y-50538095D01*
X53004819Y-50538095D02*
X53004819Y-50919047D01*
X53004819Y-50919047D02*
X53052438Y-51014285D01*
X53052438Y-51014285D02*
X53100057Y-51061904D01*
X53100057Y-51061904D02*
X53195295Y-51109523D01*
X53195295Y-51109523D02*
X53338152Y-51109523D01*
X53338152Y-51109523D02*
X53433390Y-51061904D01*
X53433390Y-51061904D02*
X53481009Y-51014285D01*
X53481009Y-51014285D02*
X53528628Y-50919047D01*
X53528628Y-50919047D02*
X53528628Y-50538095D01*
X54004819Y-51538095D02*
X53004819Y-51538095D01*
X53004819Y-51538095D02*
X53004819Y-51919047D01*
X53004819Y-51919047D02*
X53052438Y-52014285D01*
X53052438Y-52014285D02*
X53100057Y-52061904D01*
X53100057Y-52061904D02*
X53195295Y-52109523D01*
X53195295Y-52109523D02*
X53338152Y-52109523D01*
X53338152Y-52109523D02*
X53433390Y-52061904D01*
X53433390Y-52061904D02*
X53481009Y-52014285D01*
X53481009Y-52014285D02*
X53528628Y-51919047D01*
X53528628Y-51919047D02*
X53528628Y-51538095D01*
X54004819Y-53014285D02*
X54004819Y-52538095D01*
X54004819Y-52538095D02*
X53004819Y-52538095D01*
X53528628Y-53538095D02*
X54004819Y-53538095D01*
X53004819Y-53204762D02*
X53528628Y-53538095D01*
X53528628Y-53538095D02*
X53004819Y-53871428D01*
X54004819Y-54728571D02*
X54004819Y-54157143D01*
X54004819Y-54442857D02*
X53004819Y-54442857D01*
X53004819Y-54442857D02*
X53147676Y-54347619D01*
X53147676Y-54347619D02*
X53242914Y-54252381D01*
X53242914Y-54252381D02*
X53290533Y-54157143D01*
D11*
X73600000Y-59630000D02*
X74930000Y-59630000D01*
X73600000Y-60960000D02*
X73600000Y-59630000D01*
X73600000Y-62230000D02*
X76260000Y-62230000D01*
X73600000Y-72450000D02*
X73600000Y-62230000D01*
X73600000Y-72450000D02*
X76260000Y-72450000D01*
X76260000Y-72450000D02*
X76260000Y-62230000D01*
X54550000Y-95190000D02*
X55880000Y-95190000D01*
X54550000Y-96520000D02*
X54550000Y-95190000D01*
X57150000Y-97850000D02*
X57150000Y-95190000D01*
X67370000Y-95190000D02*
X57150000Y-95190000D01*
X67370000Y-97850000D02*
X57150000Y-97850000D01*
X67370000Y-97850000D02*
X67370000Y-95190000D01*
X54550000Y-49470000D02*
X55880000Y-49470000D01*
X54550000Y-50800000D02*
X54550000Y-49470000D01*
X57150000Y-52130000D02*
X57150000Y-49470000D01*
X67370000Y-49470000D02*
X57150000Y-49470000D01*
X67370000Y-52130000D02*
X57150000Y-52130000D01*
X67370000Y-52130000D02*
X67370000Y-49470000D01*
X48073000Y-59630000D02*
X49403000Y-59630000D01*
X48073000Y-60960000D02*
X48073000Y-59630000D01*
X48073000Y-62230000D02*
X50733000Y-62230000D01*
X48073000Y-72450000D02*
X48073000Y-62230000D01*
X48073000Y-72450000D02*
X50733000Y-72450000D01*
X50733000Y-72450000D02*
X50733000Y-62230000D01*
%LPC*%
D12*
X75026000Y-46869000D03*
X69246000Y-46869000D03*
D13*
X76456000Y-47399000D03*
D14*
X76456000Y-43219000D03*
D13*
X67816000Y-47399000D03*
D14*
X67816000Y-43219000D03*
D15*
X50445000Y-85804200D03*
X60045000Y-85804200D03*
D16*
X52745000Y-93304200D03*
D17*
X55245000Y-93304200D03*
X57745000Y-93304200D03*
D15*
X64415000Y-85804200D03*
X74015000Y-85804200D03*
D16*
X66715000Y-93304200D03*
D17*
X69215000Y-93304200D03*
X71715000Y-93304200D03*
D18*
X74930000Y-60960000D03*
D19*
X74930000Y-63500000D03*
X74930000Y-66040000D03*
X74930000Y-68580000D03*
X74930000Y-71120000D03*
D18*
X55880000Y-96520000D03*
D19*
X58420000Y-96520000D03*
X60960000Y-96520000D03*
X63500000Y-96520000D03*
X66040000Y-96520000D03*
D18*
X55880000Y-50800000D03*
D19*
X58420000Y-50800000D03*
X60960000Y-50800000D03*
X63500000Y-50800000D03*
X66040000Y-50800000D03*
D18*
X49403000Y-60960000D03*
D19*
X49403000Y-63500000D03*
X49403000Y-66040000D03*
X49403000Y-68580000D03*
X49403000Y-71120000D03*
%LPD*%
M02*
