M48
; DRILL file KiCad 10.0.6-10.0.6~ubuntu26.04.1 date 2026-10-05T20:05:26
; FORMAT={-:-/ absolute / metric / decimal}
; #@! TF.CreationDate,2026-10-05T20:05:26+05:30
; #@! TF.GenerationSoftware,Kicad,Pcbnew,10.0.6-10.0.6~ubuntu26.04.1
; #@! TF.FileFunction,Plated,1,2,PTH
FMAT,2
METRIC
; #@! TA.AperFunction,Plated,PTH,ViaDrill
T1C0.250
; #@! TA.AperFunction,Plated,PTH,ComponentDrill
T2C0.250
; #@! TA.AperFunction,Plated,PTH,ViaDrill
T3C0.300
; #@! TA.AperFunction,Plated,PTH,ComponentDrill
T4C0.600
; #@! TA.AperFunction,Plated,PTH,ComponentDrill
T5C1.000
; #@! TA.AperFunction,Plated,PTH,ComponentDrill
T6C1.100
; #@! TA.AperFunction,Plated,PTH,ViaDrill
T7C3.200
%
G90
G05
T1
X67.22Y-66.82
X68.1Y-68.5
X68.2Y-61.6
X68.9Y-63.04
X69.1Y-62.3
X71.0Y-61.8
X72.4Y-65.3
T2
X64.293Y-69.745
X64.293Y-71.12
X64.293Y-72.495
X65.668Y-69.745
X65.668Y-71.12
X65.668Y-72.495
X67.043Y-69.745
X67.043Y-71.12
X67.043Y-72.495
T3
X48.891Y-78.588
X49.304Y-43.645
X49.403Y-56.896
X49.936Y-76.098
X50.165Y-99.568
X50.292Y-56.134
X50.927Y-47.625
X51.257Y-80.112
X51.562Y-61.595
X51.717Y-43.645
X51.74Y-74.981
X51.816Y-62.357
X51.829Y-73.457
X51.845Y-75.794
X52.451Y-48.006
X52.451Y-97.409
X52.705Y-52.705
X53.48Y-69.355
X53.512Y-64.358
X53.594Y-56.261
X53.721Y-57.531
X53.721Y-59.944
X53.721Y-61.468
X54.8Y-54.6
X55.05Y-52.15
X55.372Y-41.656
X55.372Y-60.452
X55.372Y-61.102
X56.134Y-53.594
X57.15Y-64.77
X57.29Y-67.782
X57.658Y-48.26
X57.709Y-67.285
X58.128Y-71.336
X58.318Y-43.332
X58.42Y-64.77
X58.674Y-54.483
X58.681Y-66.733
X58.979Y-69.649
X59.295Y-68.424
X59.334Y-74.092
X59.373Y-69.069
X59.69Y-64.77
X59.786Y-66.39
X60.122Y-68.504
X60.173Y-78.689
X60.569Y-69.48
X60.731Y-71.958
X60.945Y-70.01
X60.96Y-71.12
X60.96Y-75.946
X61.053Y-69.045
X61.671Y-67.869
X61.976Y-63.373
X63.246Y-78.486
X63.781Y-66.532
X63.881Y-56.388
X63.881Y-75.565
X64.62Y-66.396
X64.652Y-65.547
X64.77Y-77.343
X64.897Y-56.896
X65.329Y-47.447
X65.405Y-68.707
X66.04Y-53.975
X66.868Y-75.229
X67.183Y-41.91
X67.45Y-53.5
X67.66Y-79.338
X68.224Y-77.978
X68.326Y-56.896
X68.453Y-57.658
X68.85Y-49.75
X69.2Y-65.6
X69.215Y-67.437
X69.686Y-49.6
X69.834Y-74.442
X69.85Y-77.978
X70.089Y-73.533
X70.128Y-69.62
X70.4Y-59.3
X70.724Y-70.038
X70.75Y-53.5
X70.866Y-76.327
X70.993Y-74.041
X71.12Y-70.747
X71.501Y-63.754
X71.615Y-74.727
X71.628Y-64.897
X71.882Y-67.437
X72.898Y-67.564
X73.05Y-66.3
X73.45Y-55.15
X73.55Y-51.55
X73.57Y-50.35
X74.041Y-73.279
X74.586Y-49.3
X75.184Y-79.756
X75.438Y-49.657
X75.45Y-57.6
X76.3Y-52.6
T5
X49.403Y-60.96
X49.403Y-63.5
X49.403Y-66.04
X49.403Y-68.58
X49.403Y-71.12
X52.745Y-93.304
X55.245Y-93.304
X55.88Y-50.8
X55.88Y-96.52
X57.745Y-93.304
X58.42Y-50.8
X58.42Y-96.52
X60.96Y-50.8
X60.96Y-96.52
X63.5Y-50.8
X63.5Y-96.52
X66.04Y-50.8
X66.04Y-96.52
X66.715Y-93.304
X69.215Y-93.304
X71.715Y-93.304
X74.93Y-60.96
X74.93Y-63.5
X74.93Y-66.04
X74.93Y-68.58
X74.93Y-71.12
T7
X62.378Y-43.815
X62.785Y-106.045
T4
G00X67.816Y-43.519
M15
G01X67.816Y-42.919
M16
G05
G00X67.816Y-47.949
M15
G01X67.816Y-46.849
M16
G05
G00X76.456Y-43.519
M15
G01X76.456Y-42.919
M16
G05
G00X76.456Y-47.949
M15
G01X76.456Y-46.849
M16
G05
T6
G00X50.445Y-86.404
M15
G01X50.445Y-85.204
M16
G05
G00X60.045Y-86.404
M15
G01X60.045Y-85.204
M16
G05
G00X64.415Y-86.404
M15
G01X64.415Y-85.204
M16
G05
G00X74.015Y-86.404
M15
G01X74.015Y-85.204
M16
G05
M30
