G04 #@! TF.GenerationSoftware,KiCad,Pcbnew,10.0.6-10.0.6~ubuntu26.04.1*
G04 #@! TF.CreationDate,2026-10-05T14:14:25+05:30*
G04 #@! TF.ProjectId,16bit-5v,31366269-742d-4357-962e-6b696361645f,rev?*
G04 #@! TF.SameCoordinates,Original*
G04 #@! TF.FileFunction,Copper,L2,Bot*
G04 #@! TF.FilePolarity,Positive*
%FSLAX46Y46*%
G04 Gerber Fmt 4.6, Leading zero omitted, Abs format (unit mm)*
G04 Created by KiCad (PCBNEW 10.0.6-10.0.6~ubuntu26.04.1) date 2026-10-05 14:14:25*
%MOMM*%
%LPD*%
G01*
G04 APERTURE LIST*
G04 #@! TA.AperFunction,HeatsinkPad*
%ADD10C,0.600000*%
G04 #@! TD*
G04 #@! TA.AperFunction,ComponentPad*
%ADD11O,1.000000X2.100000*%
G04 #@! TD*
G04 #@! TA.AperFunction,ComponentPad*
%ADD12O,1.000000X1.600000*%
G04 #@! TD*
G04 #@! TA.AperFunction,ComponentPad*
%ADD13O,2.720000X3.240000*%
G04 #@! TD*
G04 #@! TA.AperFunction,ComponentPad*
%ADD14R,1.800000X1.800000*%
G04 #@! TD*
G04 #@! TA.AperFunction,ComponentPad*
%ADD15C,1.800000*%
G04 #@! TD*
G04 #@! TA.AperFunction,ComponentPad*
%ADD16R,1.700000X1.700000*%
G04 #@! TD*
G04 #@! TA.AperFunction,ComponentPad*
%ADD17O,1.700000X1.700000*%
G04 #@! TD*
G04 #@! TA.AperFunction,ViaPad*
%ADD18C,4.000000*%
G04 #@! TD*
G04 #@! TA.AperFunction,ViaPad*
%ADD19C,0.700000*%
G04 #@! TD*
G04 #@! TA.AperFunction,ViaPad*
%ADD20C,0.500000*%
G04 #@! TD*
G04 #@! TA.AperFunction,ViaPad*
%ADD21C,0.600000*%
G04 #@! TD*
G04 #@! TA.AperFunction,Conductor*
%ADD22C,0.400000*%
G04 #@! TD*
G04 #@! TA.AperFunction,Conductor*
%ADD23C,0.500000*%
G04 #@! TD*
G04 #@! TA.AperFunction,Conductor*
%ADD24C,0.150000*%
G04 #@! TD*
G04 #@! TA.AperFunction,Conductor*
%ADD25C,0.300000*%
G04 #@! TD*
G04 #@! TA.AperFunction,Conductor*
%ADD26C,0.350000*%
G04 #@! TD*
G04 #@! TA.AperFunction,Conductor*
%ADD27C,0.800000*%
G04 #@! TD*
G04 APERTURE END LIST*
D10*
X64292500Y-69745000D03*
X64292500Y-71120000D03*
X64292500Y-72495000D03*
X65667500Y-69745000D03*
X65667500Y-71120000D03*
X65667500Y-72495000D03*
X67042500Y-69745000D03*
X67042500Y-71120000D03*
X67042500Y-72495000D03*
D11*
X76456000Y-47399000D03*
D12*
X76456000Y-43219000D03*
D11*
X67816000Y-47399000D03*
D12*
X67816000Y-43219000D03*
D13*
X50445000Y-85804200D03*
X60045000Y-85804200D03*
D14*
X52745000Y-93304200D03*
D15*
X55245000Y-93304200D03*
X57745000Y-93304200D03*
D13*
X64415000Y-85804200D03*
X74015000Y-85804200D03*
D14*
X66715000Y-93304200D03*
D15*
X69215000Y-93304200D03*
X71715000Y-93304200D03*
D16*
X74930000Y-60960000D03*
D17*
X74930000Y-63500000D03*
X74930000Y-66040000D03*
X74930000Y-68580000D03*
X74930000Y-71120000D03*
D16*
X55880000Y-96520000D03*
D17*
X58420000Y-96520000D03*
X60960000Y-96520000D03*
X63500000Y-96520000D03*
X66040000Y-96520000D03*
D16*
X55880000Y-50800000D03*
D17*
X58420000Y-50800000D03*
X60960000Y-50800000D03*
X63500000Y-50800000D03*
X66040000Y-50800000D03*
D16*
X49403000Y-60960000D03*
D17*
X49403000Y-63500000D03*
X49403000Y-66040000D03*
X49403000Y-68580000D03*
X49403000Y-71120000D03*
D18*
X62784908Y-106045000D03*
X62377580Y-43815000D03*
D19*
X71120000Y-70747426D03*
D20*
X68100000Y-68500000D03*
D19*
X64770000Y-77343000D03*
D21*
X70400000Y-59300000D03*
D20*
X58674000Y-54483000D03*
D19*
X69850000Y-77978000D03*
X49304000Y-43645000D03*
X68850000Y-49750000D03*
D20*
X50165000Y-99568000D03*
D19*
X75438000Y-49657000D03*
X68224400Y-77978000D03*
D21*
X73050000Y-66300000D03*
D19*
X65328800Y-47447200D03*
X71501000Y-63754000D03*
D20*
X51257200Y-80111600D03*
X56134000Y-53594000D03*
X69100000Y-62300000D03*
D19*
X51717000Y-43645000D03*
D20*
X52451000Y-97409000D03*
D19*
X63246000Y-78486000D03*
X67660467Y-79337798D03*
D20*
X52705000Y-52705000D03*
D19*
X53511881Y-64358054D03*
D20*
X60172600Y-78689200D03*
D19*
X70866000Y-76327000D03*
X58128087Y-71336087D03*
X57658000Y-48260000D03*
X66040000Y-53975000D03*
D20*
X55372000Y-41656000D03*
D19*
X71628000Y-64897000D03*
X67183000Y-41910000D03*
D20*
X48891000Y-78587600D03*
D21*
X76300000Y-52600000D03*
X75450000Y-57600000D03*
D19*
X75184000Y-79756000D03*
D20*
X61976000Y-63373000D03*
D19*
X59334400Y-74091800D03*
D20*
X53721000Y-61468000D03*
X53721000Y-59944000D03*
X68453000Y-57658000D03*
X63881000Y-56388000D03*
X68900000Y-63040000D03*
D19*
X69215000Y-67437000D03*
D20*
X67220000Y-66819999D03*
X67450000Y-53500000D03*
X54800000Y-54600000D03*
X68200000Y-61600000D03*
X53721000Y-57531000D03*
X60121800Y-68503800D03*
D19*
X71615486Y-74726800D03*
X63881000Y-75565000D03*
D20*
X55050000Y-52150000D03*
D19*
X70993000Y-74041000D03*
D20*
X71000000Y-61800000D03*
D21*
X69200000Y-65599999D03*
D20*
X53594000Y-56261000D03*
D19*
X65405000Y-68707000D03*
X71882000Y-67437000D03*
D20*
X72400000Y-65300000D03*
D19*
X60960000Y-75946000D03*
D20*
X61671200Y-67868800D03*
X70750000Y-53500000D03*
X51844800Y-75793600D03*
X49936400Y-76098400D03*
X61052565Y-69045000D03*
X57150000Y-64770000D03*
X58420000Y-64770000D03*
X60569290Y-69479678D03*
X59690000Y-64770000D03*
X60945137Y-70010000D03*
X60960000Y-71120000D03*
X53479700Y-69354700D03*
X60731400Y-71958200D03*
X58318400Y-43332400D03*
X66867501Y-75228907D03*
X69833740Y-74442492D03*
X74041000Y-73279000D03*
X70089000Y-73533000D03*
X72898000Y-67564000D03*
X70724000Y-70038113D03*
X51562000Y-61595000D03*
X55372000Y-60452000D03*
X51816000Y-62357000D03*
X70128405Y-69620405D03*
X55372000Y-61102003D03*
D19*
X64652075Y-65547033D03*
D20*
X58978800Y-69648587D03*
X59372844Y-69068987D03*
D19*
X64619818Y-66396423D03*
D20*
X59295000Y-68423663D03*
D19*
X63780669Y-66531823D03*
D20*
X59785919Y-66389919D03*
X57290000Y-67781698D03*
X51829000Y-73456800D03*
X51739800Y-74980800D03*
X57708800Y-67284600D03*
X58681024Y-66732824D03*
D21*
X74586000Y-49300000D03*
X69686000Y-49600000D03*
D20*
X68326000Y-56896000D03*
X64897000Y-56896000D03*
D21*
X73450000Y-55150000D03*
X73570000Y-50350000D03*
X73550000Y-51550000D03*
D20*
X50292000Y-56134000D03*
X49403000Y-56896000D03*
X52451000Y-48006000D03*
X50927000Y-47625000D03*
D22*
X68100000Y-68500000D02*
X68100000Y-68687500D01*
D23*
X65667500Y-72495000D02*
X65667500Y-69745000D01*
X67042500Y-72495000D02*
X64292500Y-72495000D01*
D22*
X68100000Y-68687500D02*
X67042500Y-69745000D01*
D23*
X64292500Y-72495000D02*
X64292500Y-69745000D01*
X67042500Y-69745000D02*
X64292500Y-69745000D01*
X67042500Y-72495000D02*
X67042500Y-69745000D01*
D24*
X53721000Y-61468000D02*
X53721000Y-59944000D01*
X68453000Y-57658000D02*
X64987248Y-57658000D01*
X64987248Y-57658000D02*
X63881000Y-56551752D01*
X63881000Y-56551752D02*
X63881000Y-56388000D01*
X69215000Y-67437000D02*
X69850000Y-66802000D01*
X69850000Y-66802000D02*
X69850000Y-63990000D01*
X69850000Y-63990000D02*
X68900000Y-63040000D01*
D22*
X69200000Y-65599999D02*
X68400000Y-66400000D01*
X68400000Y-66400000D02*
X67640000Y-66400000D01*
D25*
X71000000Y-61800000D02*
X72400000Y-63200000D01*
D23*
X63881000Y-75565000D02*
X61341000Y-75565000D01*
D25*
X71882000Y-67437000D02*
X72400000Y-66919000D01*
D23*
X61341000Y-75565000D02*
X60960000Y-75946000D01*
D22*
X67640000Y-66400000D02*
X67220000Y-66819999D01*
D25*
X68650000Y-64500000D02*
X68200000Y-64050000D01*
D23*
X71769421Y-74726800D02*
X72898000Y-73598221D01*
X72898000Y-69723000D02*
X71882000Y-68707000D01*
X65405000Y-68707000D02*
X65405000Y-68224400D01*
X60121800Y-68503800D02*
X60756800Y-67868800D01*
D25*
X72400000Y-63200000D02*
X72400000Y-65300000D01*
D23*
X60756800Y-67868800D02*
X61671200Y-67868800D01*
X72898000Y-73598221D02*
X72898000Y-69723000D01*
X67450000Y-53500000D02*
X70750000Y-53500000D01*
D26*
X67220000Y-66819999D02*
X65405000Y-68635000D01*
D25*
X68650000Y-65050000D02*
X68650000Y-64500000D01*
X68200000Y-64050000D02*
X68200000Y-61600000D01*
X72400000Y-66919000D02*
X72400000Y-65300000D01*
D23*
X71615486Y-74726800D02*
X71769421Y-74726800D01*
D26*
X65405000Y-68635000D02*
X65405000Y-68707000D01*
D23*
X71882000Y-68707000D02*
X71882000Y-67437000D01*
D25*
X69200000Y-65599999D02*
X68650000Y-65050000D01*
D22*
X69200000Y-65599999D02*
X68400000Y-66400000D01*
D23*
X55050000Y-52150000D02*
X54800000Y-54600000D01*
D24*
X51844800Y-75793600D02*
X51540000Y-76098400D01*
X51540000Y-76098400D02*
X49936400Y-76098400D01*
X60159600Y-69741740D02*
X60159600Y-69936472D01*
X60329957Y-68992508D02*
X60094290Y-69228175D01*
X59611072Y-70485000D02*
X59130827Y-70485000D01*
X59130827Y-70485000D02*
X56815000Y-68169173D01*
X61052565Y-69045000D02*
X61000073Y-68992508D01*
X60159600Y-69936472D02*
X59611072Y-70485000D01*
X60094290Y-69228175D02*
X60094290Y-69676430D01*
X56815000Y-65105000D02*
X57150000Y-64770000D01*
X60094290Y-69676430D02*
X60159600Y-69741740D01*
X56815000Y-68169173D02*
X56815000Y-65105000D01*
X61000073Y-68992508D02*
X60329957Y-68992508D01*
X56515000Y-68293437D02*
X56515000Y-64733248D01*
X59735336Y-70785000D02*
X59006563Y-70785000D01*
X56515000Y-64733248D02*
X57113248Y-64135000D01*
X57785000Y-64135000D02*
X58420000Y-64770000D01*
X60459600Y-70060736D02*
X59735336Y-70785000D01*
X57113248Y-64135000D02*
X57785000Y-64135000D01*
X60459600Y-69589368D02*
X60459600Y-70060736D01*
X59006563Y-70785000D02*
X56515000Y-68293437D01*
X60569290Y-69479678D02*
X60459600Y-69589368D01*
X58882299Y-71085000D02*
X56215000Y-68417701D01*
X59870137Y-71085000D02*
X58882299Y-71085000D01*
X56988984Y-63835000D02*
X58755000Y-63835000D01*
X60945137Y-70010000D02*
X59870137Y-71085000D01*
X56215000Y-64608984D02*
X56988984Y-63835000D01*
X56215000Y-68417701D02*
X56215000Y-64608984D01*
X58755000Y-63835000D02*
X59690000Y-64770000D01*
X66742000Y-76902000D02*
X76514000Y-76902000D01*
X76581000Y-76835000D02*
X76581000Y-62611000D01*
X76514000Y-76902000D02*
X76581000Y-76835000D01*
X60960000Y-71120000D02*
X66742000Y-76902000D01*
X76581000Y-62611000D02*
X74930000Y-60960000D01*
X56036087Y-71911087D02*
X60684287Y-71911087D01*
X60684287Y-71911087D02*
X60731400Y-71958200D01*
X53479700Y-69354700D02*
X56036087Y-71911087D01*
X65786000Y-66675000D02*
X65786000Y-64389000D01*
X54229000Y-47421800D02*
X58318400Y-43332400D01*
X58964752Y-63373000D02*
X54229000Y-63373000D01*
X62738000Y-72136000D02*
X62738000Y-69723000D01*
X54229000Y-63373000D02*
X54229000Y-47421800D01*
X65786000Y-64389000D02*
X59980752Y-64389000D01*
X62738000Y-69723000D02*
X65786000Y-66675000D01*
X66867501Y-75228907D02*
X65830907Y-75228907D01*
X65830907Y-75228907D02*
X62738000Y-72136000D01*
X59980752Y-64389000D02*
X58964752Y-63373000D01*
X74041000Y-73279000D02*
X74041000Y-73551237D01*
X71990437Y-75601800D02*
X70993048Y-75601800D01*
X74041000Y-73551237D02*
X71990437Y-75601800D01*
X70993048Y-75601800D02*
X69833740Y-74442492D01*
X71866173Y-75301800D02*
X71364800Y-75301800D01*
X73533000Y-73634973D02*
X71866173Y-75301800D01*
X71364800Y-75301800D02*
X70089000Y-74026000D01*
X70089000Y-74026000D02*
X70089000Y-73533000D01*
X72898000Y-67564000D02*
X73533000Y-68199000D01*
X73533000Y-68199000D02*
X73533000Y-73634973D01*
X51562000Y-61595000D02*
X51308000Y-61595000D01*
X51308000Y-61595000D02*
X49403000Y-63500000D01*
X68707000Y-60452000D02*
X55372000Y-60452000D01*
X70724000Y-70038113D02*
X70724000Y-62469000D01*
X70612000Y-62357000D02*
X68707000Y-60452000D01*
X70724000Y-62469000D02*
X70612000Y-62357000D01*
X70424000Y-62593264D02*
X70424000Y-69324810D01*
X51816000Y-62357000D02*
X51689000Y-62484000D01*
X55372000Y-61102003D02*
X55547003Y-60927000D01*
X51689000Y-62484000D02*
X51689000Y-63754000D01*
X55547003Y-60927000D02*
X55568752Y-60927000D01*
X55568752Y-60927000D02*
X55743752Y-60752000D01*
X51689000Y-63754000D02*
X49403000Y-66040000D01*
X68582736Y-60752000D02*
X70424000Y-62593264D01*
X55743752Y-60752000D02*
X68582736Y-60752000D01*
X70424000Y-69324810D02*
X70128405Y-69620405D01*
X60655200Y-65278000D02*
X64383042Y-65278000D01*
X58420000Y-68202647D02*
X58973984Y-67648663D01*
X60528200Y-66319391D02*
X60528200Y-65405000D01*
X58420000Y-69089787D02*
X58420000Y-68202647D01*
X64383042Y-65278000D02*
X64652075Y-65547033D01*
X60528200Y-65405000D02*
X60655200Y-65278000D01*
X58973984Y-67648663D02*
X59198928Y-67648663D01*
X59198928Y-67648663D02*
X60528200Y-66319391D01*
X58978800Y-69648587D02*
X58420000Y-69089787D01*
X63801395Y-65578000D02*
X64619818Y-66396423D01*
X59098248Y-67948663D02*
X59323192Y-67948663D01*
X60828200Y-65578000D02*
X63801395Y-65578000D01*
X59268572Y-69068987D02*
X58820000Y-68620415D01*
X58820000Y-68620415D02*
X58820000Y-68226911D01*
X60828200Y-66443655D02*
X60828200Y-65578000D01*
X59372844Y-69068987D02*
X59268572Y-69068987D01*
X59323192Y-67948663D02*
X60828200Y-66443655D01*
X58820000Y-68226911D02*
X59098248Y-67948663D01*
X59295000Y-68423663D02*
X61128200Y-66590463D01*
X61350600Y-65878000D02*
X63126846Y-65878000D01*
X61128200Y-66100400D02*
X61350600Y-65878000D01*
X63126846Y-65878000D02*
X63780669Y-66531823D01*
X61128200Y-66590463D02*
X61128200Y-66100400D01*
X58303902Y-67781698D02*
X59695681Y-66389919D01*
X57290000Y-67781698D02*
X58303902Y-67781698D01*
X59695681Y-66389919D02*
X59785919Y-66389919D01*
X58681024Y-66732824D02*
X58260576Y-66732824D01*
X58260576Y-66732824D02*
X57708800Y-67284600D01*
X51739800Y-73546000D02*
X51829000Y-73456800D01*
X51739800Y-74980800D02*
X51739800Y-73546000D01*
D26*
X74286000Y-49600000D02*
X74586000Y-49300000D01*
X69686000Y-49600000D02*
X74286000Y-49600000D01*
D24*
X76456000Y-47399000D02*
X76336000Y-47519000D01*
X67816000Y-43219000D02*
X67816000Y-47399000D01*
X76456000Y-43219000D02*
X76456000Y-47399000D01*
X76336000Y-47519000D02*
X67936000Y-47519000D01*
X67936000Y-47519000D02*
X67816000Y-47399000D01*
X67816000Y-43219000D02*
X76456000Y-43219000D01*
X68326000Y-56896000D02*
X64897000Y-56896000D01*
D27*
X55880000Y-50800000D02*
X73400000Y-50800000D01*
X73400000Y-50800000D02*
X73400000Y-55150000D01*
D24*
X52578000Y-88137200D02*
X52578000Y-86614000D01*
X52451000Y-86487000D02*
X52451000Y-58293000D01*
X52578000Y-86614000D02*
X52451000Y-86487000D01*
X52451000Y-58293000D02*
X50292000Y-56134000D01*
X57745000Y-93304200D02*
X52578000Y-88137200D01*
X50038000Y-46863000D02*
X52324000Y-46863000D01*
X49403000Y-56896000D02*
X49403000Y-47498000D01*
X49403000Y-47498000D02*
X50038000Y-46863000D01*
X52324000Y-46863000D02*
X52324000Y-47879000D01*
X52324000Y-47879000D02*
X52451000Y-48006000D01*
X52751000Y-64308000D02*
X52751000Y-57958000D01*
X71715000Y-93304200D02*
X69215800Y-90805000D01*
X69215800Y-90805000D02*
X55805631Y-90805000D01*
X55805631Y-90805000D02*
X52959000Y-87958369D01*
X52751000Y-57958000D02*
X50927000Y-56134000D01*
X50927000Y-56134000D02*
X50927000Y-47625000D01*
X52959000Y-87958369D02*
X52959000Y-64516000D01*
X52959000Y-64516000D02*
X52751000Y-64308000D01*
G04 #@! TA.AperFunction,Conductor*
G36*
X57954075Y-96327007D02*
G01*
X57920000Y-96454174D01*
X57920000Y-96585826D01*
X57954075Y-96712993D01*
X57986988Y-96770000D01*
X56313012Y-96770000D01*
X56345925Y-96712993D01*
X56380000Y-96585826D01*
X56380000Y-96454174D01*
X56345925Y-96327007D01*
X56313012Y-96270000D01*
X57986988Y-96270000D01*
X57954075Y-96327007D01*
G37*
G04 #@! TD.AperFunction*
G04 #@! TA.AperFunction,Conductor*
G36*
X60494075Y-96327007D02*
G01*
X60460000Y-96454174D01*
X60460000Y-96585826D01*
X60494075Y-96712993D01*
X60526988Y-96770000D01*
X58853012Y-96770000D01*
X58885925Y-96712993D01*
X58920000Y-96585826D01*
X58920000Y-96454174D01*
X58885925Y-96327007D01*
X58853012Y-96270000D01*
X60526988Y-96270000D01*
X60494075Y-96327007D01*
G37*
G04 #@! TD.AperFunction*
G04 #@! TA.AperFunction,Conductor*
G36*
X63034075Y-96327007D02*
G01*
X63000000Y-96454174D01*
X63000000Y-96585826D01*
X63034075Y-96712993D01*
X63066988Y-96770000D01*
X61393012Y-96770000D01*
X61425925Y-96712993D01*
X61460000Y-96585826D01*
X61460000Y-96454174D01*
X61425925Y-96327007D01*
X61393012Y-96270000D01*
X63066988Y-96270000D01*
X63034075Y-96327007D01*
G37*
G04 #@! TD.AperFunction*
G04 #@! TA.AperFunction,Conductor*
G36*
X65574075Y-96327007D02*
G01*
X65540000Y-96454174D01*
X65540000Y-96585826D01*
X65574075Y-96712993D01*
X65606988Y-96770000D01*
X63933012Y-96770000D01*
X63965925Y-96712993D01*
X64000000Y-96585826D01*
X64000000Y-96454174D01*
X63965925Y-96327007D01*
X63933012Y-96270000D01*
X65606988Y-96270000D01*
X65574075Y-96327007D01*
G37*
G04 #@! TD.AperFunction*
G04 #@! TA.AperFunction,Conductor*
G36*
X71154704Y-62380121D02*
G01*
X71161182Y-62386153D01*
X72063181Y-63288152D01*
X72096666Y-63349475D01*
X72099500Y-63375833D01*
X72099500Y-64986256D01*
X72082887Y-65048256D01*
X72079520Y-65054086D01*
X72079520Y-65054087D01*
X72073950Y-65063735D01*
X72026794Y-65145410D01*
X72026793Y-65145413D01*
X71999500Y-65247273D01*
X71999500Y-65352727D01*
X72026793Y-65454587D01*
X72079520Y-65545913D01*
X72079523Y-65545916D01*
X72082887Y-65551742D01*
X72099500Y-65613743D01*
X72099500Y-66743165D01*
X72079815Y-66810204D01*
X72063181Y-66830846D01*
X71993846Y-66900181D01*
X71932523Y-66933666D01*
X71906165Y-66936500D01*
X71816108Y-66936500D01*
X71688812Y-66970608D01*
X71574686Y-67036500D01*
X71574683Y-67036502D01*
X71481502Y-67129683D01*
X71481500Y-67129686D01*
X71415608Y-67243812D01*
X71387422Y-67349008D01*
X71381500Y-67371108D01*
X71381500Y-67502892D01*
X71415608Y-67630186D01*
X71464887Y-67715540D01*
X71481500Y-67777539D01*
X71481500Y-68654273D01*
X71481500Y-68759727D01*
X71492046Y-68799085D01*
X71508793Y-68861589D01*
X71525435Y-68890413D01*
X71561520Y-68952913D01*
X71561522Y-68952915D01*
X72461181Y-69852574D01*
X72494666Y-69913897D01*
X72497500Y-69940255D01*
X72497500Y-73380965D01*
X72477815Y-73448004D01*
X72461181Y-73468646D01*
X71739846Y-74189981D01*
X71678523Y-74223466D01*
X71652165Y-74226300D01*
X71617500Y-74226300D01*
X71550461Y-74206615D01*
X71504706Y-74153811D01*
X71493500Y-74102300D01*
X71493500Y-73975110D01*
X71493500Y-73975108D01*
X71459392Y-73847814D01*
X71393500Y-73733686D01*
X71300314Y-73640500D01*
X71230672Y-73600292D01*
X71186187Y-73574608D01*
X71096459Y-73550566D01*
X71058892Y-73540500D01*
X70927108Y-73540500D01*
X70799812Y-73574608D01*
X70736111Y-73611387D01*
X70685686Y-73640500D01*
X70685684Y-73640501D01*
X70678648Y-73644564D01*
X70677422Y-73642441D01*
X70623798Y-73663163D01*
X70555355Y-73649114D01*
X70505373Y-73600292D01*
X70489500Y-73539591D01*
X70489500Y-73480275D01*
X70489500Y-73480273D01*
X70462207Y-73378413D01*
X70409480Y-73287087D01*
X70334913Y-73212520D01*
X70243587Y-73159793D01*
X70141727Y-73132500D01*
X70036273Y-73132500D01*
X69934413Y-73159793D01*
X69934410Y-73159794D01*
X69843085Y-73212521D01*
X69768521Y-73287085D01*
X69715794Y-73378410D01*
X69715793Y-73378413D01*
X69688500Y-73480273D01*
X69688500Y-73585727D01*
X69715793Y-73687587D01*
X69768520Y-73778913D01*
X69819614Y-73830007D01*
X69826776Y-73837169D01*
X69860260Y-73898493D01*
X69855275Y-73968184D01*
X69813404Y-74024118D01*
X69771187Y-74044624D01*
X69679153Y-74069285D01*
X69679150Y-74069286D01*
X69587825Y-74122013D01*
X69513261Y-74196577D01*
X69460534Y-74287902D01*
X69460533Y-74287905D01*
X69433240Y-74389765D01*
X69433240Y-74495219D01*
X69460533Y-74597079D01*
X69513260Y-74688405D01*
X69587827Y-74762972D01*
X69679153Y-74815699D01*
X69781013Y-74842992D01*
X69781015Y-74842992D01*
X69863973Y-74842992D01*
X69931012Y-74862677D01*
X69951654Y-74879311D01*
X70794807Y-75722464D01*
X70794810Y-75722468D01*
X70801878Y-75729536D01*
X70865312Y-75792970D01*
X70889585Y-75803024D01*
X70889586Y-75803025D01*
X70889587Y-75803025D01*
X70948193Y-75827301D01*
X70948194Y-75827301D01*
X71052337Y-75827301D01*
X71052345Y-75827300D01*
X71931140Y-75827300D01*
X71931148Y-75827301D01*
X71945582Y-75827301D01*
X72035290Y-75827301D01*
X72035292Y-75827301D01*
X72093897Y-75803025D01*
X72118173Y-75792970D01*
X72181607Y-75729536D01*
X72181607Y-75729535D01*
X72199045Y-75712097D01*
X72199047Y-75712094D01*
X74151294Y-73759847D01*
X74151297Y-73759845D01*
X74168735Y-73742407D01*
X74168736Y-73742407D01*
X74232170Y-73678973D01*
X74242216Y-73654718D01*
X74281299Y-73603787D01*
X74286908Y-73599482D01*
X74286913Y-73599480D01*
X74361480Y-73524913D01*
X74414207Y-73433587D01*
X74441500Y-73331727D01*
X74441500Y-73226273D01*
X74414207Y-73124413D01*
X74361480Y-73033087D01*
X74311074Y-72982681D01*
X74277589Y-72921358D01*
X74282573Y-72851666D01*
X74324445Y-72795733D01*
X74389909Y-72771316D01*
X74398755Y-72771000D01*
X76231500Y-72771000D01*
X76298539Y-72790685D01*
X76344294Y-72843489D01*
X76355500Y-72895000D01*
X76355500Y-76552500D01*
X76335815Y-76619539D01*
X76283011Y-76665294D01*
X76231500Y-76676500D01*
X66886767Y-76676500D01*
X66819728Y-76656815D01*
X66799086Y-76640181D01*
X65824993Y-75666088D01*
X65791508Y-75604765D01*
X65796492Y-75535073D01*
X65838364Y-75479140D01*
X65903828Y-75454723D01*
X65912674Y-75454407D01*
X66475245Y-75454407D01*
X66542284Y-75474092D01*
X66562926Y-75490725D01*
X66621588Y-75549387D01*
X66712914Y-75602114D01*
X66814774Y-75629407D01*
X66814776Y-75629407D01*
X66920226Y-75629407D01*
X66920228Y-75629407D01*
X67022088Y-75602114D01*
X67113414Y-75549387D01*
X67187981Y-75474820D01*
X67240708Y-75383494D01*
X67268001Y-75281634D01*
X67268001Y-75176180D01*
X67240708Y-75074320D01*
X67187981Y-74982994D01*
X67113414Y-74908427D01*
X67022088Y-74855700D01*
X66920228Y-74828407D01*
X66814774Y-74828407D01*
X66712914Y-74855700D01*
X66712911Y-74855701D01*
X66621588Y-74908427D01*
X66562926Y-74967089D01*
X66501602Y-75000573D01*
X66475245Y-75003407D01*
X65975674Y-75003407D01*
X65908635Y-74983722D01*
X65887993Y-74967088D01*
X62999819Y-72078914D01*
X62966334Y-72017591D01*
X62963500Y-71991233D01*
X62963500Y-69867766D01*
X62983185Y-69800727D01*
X62999814Y-69780090D01*
X64822316Y-67957588D01*
X64883636Y-67924105D01*
X64953328Y-67929089D01*
X65009261Y-67970961D01*
X65033678Y-68036425D01*
X65029769Y-68077363D01*
X65004500Y-68171671D01*
X65004500Y-68366460D01*
X64987887Y-68428460D01*
X64938609Y-68513810D01*
X64938609Y-68513811D01*
X64938608Y-68513813D01*
X64938608Y-68513814D01*
X64931295Y-68541107D01*
X64904500Y-68641108D01*
X64904500Y-68772891D01*
X64938608Y-68900187D01*
X64959585Y-68936519D01*
X65004500Y-69014314D01*
X65097686Y-69107500D01*
X65211814Y-69173392D01*
X65339108Y-69207500D01*
X65339110Y-69207500D01*
X65470890Y-69207500D01*
X65470892Y-69207500D01*
X65598186Y-69173392D01*
X65712314Y-69107500D01*
X65805500Y-69014314D01*
X65871392Y-68900186D01*
X65905500Y-68772892D01*
X65905500Y-68646187D01*
X65925185Y-68579148D01*
X65941814Y-68558510D01*
X67258931Y-67241393D01*
X67314518Y-67209301D01*
X67374585Y-67193207D01*
X67374585Y-67193206D01*
X67374587Y-67193206D01*
X67465913Y-67140479D01*
X67540480Y-67065912D01*
X67593207Y-66974586D01*
X67596359Y-66962819D01*
X67628455Y-66907225D01*
X67748865Y-66786818D01*
X67810188Y-66753333D01*
X67836545Y-66750500D01*
X68446142Y-66750500D01*
X68446144Y-66750500D01*
X68535288Y-66726614D01*
X68563373Y-66710399D01*
X68615212Y-66680470D01*
X69216519Y-66079161D01*
X69272100Y-66047071D01*
X69373886Y-66019798D01*
X69438500Y-65982492D01*
X69506398Y-65966019D01*
X69572425Y-65988870D01*
X69615617Y-66043791D01*
X69624500Y-66089879D01*
X69624500Y-66657232D01*
X69604815Y-66724271D01*
X69588181Y-66744913D01*
X69422766Y-66910328D01*
X69361443Y-66943813D01*
X69302994Y-66942422D01*
X69288491Y-66938536D01*
X69280893Y-66936500D01*
X69280892Y-66936500D01*
X69149108Y-66936500D01*
X69021812Y-66970608D01*
X68907686Y-67036500D01*
X68907683Y-67036502D01*
X68814502Y-67129683D01*
X68814500Y-67129686D01*
X68748608Y-67243812D01*
X68714500Y-67371108D01*
X68714500Y-67502891D01*
X68748608Y-67630187D01*
X68772461Y-67671500D01*
X68814500Y-67744314D01*
X68907686Y-67837500D01*
X69021814Y-67903392D01*
X69149108Y-67937500D01*
X69149110Y-67937500D01*
X69280890Y-67937500D01*
X69280892Y-67937500D01*
X69408186Y-67903392D01*
X69522314Y-67837500D01*
X69615500Y-67744314D01*
X69681392Y-67630186D01*
X69715500Y-67502892D01*
X69715500Y-67371108D01*
X69709578Y-67349006D01*
X69711239Y-67279158D01*
X69741669Y-67229234D01*
X69960294Y-67010610D01*
X69960297Y-67010608D01*
X69986819Y-66984087D01*
X70048142Y-66950602D01*
X70117834Y-66955586D01*
X70173767Y-66997458D01*
X70198184Y-67062922D01*
X70198500Y-67071768D01*
X70198500Y-69095905D01*
X70178815Y-69162944D01*
X70126011Y-69208699D01*
X70083616Y-69217921D01*
X70083738Y-69218844D01*
X70075678Y-69219905D01*
X69973818Y-69247198D01*
X69973815Y-69247199D01*
X69882490Y-69299926D01*
X69807926Y-69374490D01*
X69755199Y-69465815D01*
X69755198Y-69465818D01*
X69727905Y-69567678D01*
X69727905Y-69673132D01*
X69748260Y-69749099D01*
X69755197Y-69774988D01*
X69755199Y-69774994D01*
X69760855Y-69784790D01*
X69807925Y-69866318D01*
X69882492Y-69940885D01*
X69973818Y-69993612D01*
X70075678Y-70020905D01*
X70075680Y-70020905D01*
X70181130Y-70020905D01*
X70181132Y-70020905D01*
X70181133Y-70020904D01*
X70189188Y-70019844D01*
X70189524Y-70022400D01*
X70246528Y-70023745D01*
X70304399Y-70062894D01*
X70328572Y-70109771D01*
X70350793Y-70192700D01*
X70403520Y-70284026D01*
X70478087Y-70358593D01*
X70569413Y-70411320D01*
X70671273Y-70438613D01*
X70671275Y-70438613D01*
X70776725Y-70438613D01*
X70776727Y-70438613D01*
X70878587Y-70411320D01*
X70969913Y-70358593D01*
X71044480Y-70284026D01*
X71097207Y-70192700D01*
X71124500Y-70090840D01*
X71124500Y-69985386D01*
X71097207Y-69883526D01*
X71044480Y-69792200D01*
X70985818Y-69733538D01*
X70952334Y-69672214D01*
X70949500Y-69645857D01*
X70949500Y-62528297D01*
X70949501Y-62528288D01*
X70949501Y-62473834D01*
X70969186Y-62406795D01*
X71021990Y-62361040D01*
X71091148Y-62351096D01*
X71154704Y-62380121D01*
G37*
G04 #@! TD.AperFunction*
G04 #@! TA.AperFunction,Conductor*
G36*
X72949812Y-65342765D02*
G01*
X73003690Y-65387250D01*
X73024965Y-65453802D01*
X73025000Y-65456754D01*
X73025000Y-67039500D01*
X73005315Y-67106539D01*
X72952511Y-67152294D01*
X72901000Y-67163500D01*
X72845273Y-67163500D01*
X72837592Y-67165557D01*
X72767744Y-67163893D01*
X72709882Y-67124729D01*
X72682380Y-67060500D01*
X72685727Y-67013694D01*
X72700500Y-66958562D01*
X72700500Y-66879438D01*
X72700500Y-65613743D01*
X72717113Y-65551742D01*
X72720476Y-65545916D01*
X72720480Y-65545913D01*
X72773207Y-65454587D01*
X72781225Y-65424659D01*
X72817589Y-65365001D01*
X72880436Y-65334471D01*
X72949812Y-65342765D01*
G37*
G04 #@! TD.AperFunction*
G04 #@! TA.AperFunction,Conductor*
G36*
X68712493Y-61200712D02*
G01*
X68714605Y-61202774D01*
X70162181Y-62650350D01*
X70195666Y-62711673D01*
X70198500Y-62738031D01*
X70198500Y-63720232D01*
X70178815Y-63787271D01*
X70126011Y-63833026D01*
X70056853Y-63842970D01*
X69993297Y-63813945D01*
X69986819Y-63807913D01*
X69970671Y-63791765D01*
X69970664Y-63791759D01*
X69336819Y-63157914D01*
X69303334Y-63096591D01*
X69300500Y-63070233D01*
X69300500Y-62987275D01*
X69300500Y-62987273D01*
X69273207Y-62885413D01*
X69220480Y-62794087D01*
X69145913Y-62719520D01*
X69079059Y-62680922D01*
X69054589Y-62666794D01*
X69054588Y-62666793D01*
X69054587Y-62666793D01*
X68952727Y-62639500D01*
X68847273Y-62639500D01*
X68745413Y-62666793D01*
X68745410Y-62666794D01*
X68686500Y-62700806D01*
X68618599Y-62717279D01*
X68552572Y-62694426D01*
X68509382Y-62639505D01*
X68500500Y-62593419D01*
X68500500Y-61913743D01*
X68517113Y-61851742D01*
X68520476Y-61845916D01*
X68520480Y-61845913D01*
X68573207Y-61754587D01*
X68600500Y-61652727D01*
X68600500Y-61547273D01*
X68573207Y-61445413D01*
X68520480Y-61354087D01*
X68520476Y-61354083D01*
X68519537Y-61352456D01*
X68503064Y-61284555D01*
X68525916Y-61218528D01*
X68580837Y-61175338D01*
X68650391Y-61168696D01*
X68712493Y-61200712D01*
G37*
G04 #@! TD.AperFunction*
G04 #@! TA.AperFunction,Conductor*
G36*
X61682994Y-41522669D02*
G01*
X61749861Y-41542928D01*
X61795161Y-41596123D01*
X61804511Y-41665364D01*
X61774942Y-41728668D01*
X61715841Y-41765937D01*
X61714061Y-41766428D01*
X61699891Y-41770225D01*
X61684836Y-41774259D01*
X61424400Y-41882135D01*
X61424389Y-41882140D01*
X61180270Y-42023083D01*
X61180262Y-42023089D01*
X60956609Y-42194704D01*
X60757284Y-42394029D01*
X60585669Y-42617682D01*
X60585663Y-42617690D01*
X60444720Y-42861809D01*
X60444715Y-42861820D01*
X60336839Y-43122256D01*
X60263875Y-43394560D01*
X60227080Y-43674041D01*
X60227080Y-43955958D01*
X60263875Y-44235439D01*
X60336839Y-44507743D01*
X60444715Y-44768179D01*
X60444720Y-44768190D01*
X60585663Y-45012309D01*
X60585668Y-45012317D01*
X60757280Y-45235965D01*
X60757284Y-45235970D01*
X60956609Y-45435295D01*
X60956613Y-45435298D01*
X60956615Y-45435300D01*
X61180263Y-45606912D01*
X61180270Y-45606916D01*
X61424389Y-45747859D01*
X61424394Y-45747861D01*
X61424397Y-45747863D01*
X61684841Y-45855742D01*
X61957138Y-45928704D01*
X62236629Y-45965500D01*
X62236636Y-45965500D01*
X62518524Y-45965500D01*
X62518531Y-45965500D01*
X62798022Y-45928704D01*
X63070319Y-45855742D01*
X63330763Y-45747863D01*
X63574897Y-45606912D01*
X63798545Y-45435300D01*
X63997880Y-45235965D01*
X64169492Y-45012317D01*
X64310443Y-44768183D01*
X64418322Y-44507739D01*
X64491284Y-44235442D01*
X64528080Y-43955951D01*
X64528080Y-43674049D01*
X64491284Y-43394558D01*
X64418322Y-43122261D01*
X64310443Y-42861817D01*
X64310441Y-42861814D01*
X64310439Y-42861809D01*
X64169496Y-42617690D01*
X64169492Y-42617683D01*
X63997880Y-42394035D01*
X63997878Y-42394033D01*
X63997875Y-42394029D01*
X63798550Y-42194704D01*
X63798545Y-42194700D01*
X63574897Y-42023088D01*
X63574891Y-42023084D01*
X63574889Y-42023083D01*
X63330770Y-41882140D01*
X63330759Y-41882135D01*
X63068573Y-41773534D01*
X63014170Y-41729693D01*
X62992105Y-41663399D01*
X63009384Y-41595700D01*
X63060521Y-41548089D01*
X63117084Y-41534979D01*
X77046569Y-41654545D01*
X77113432Y-41674803D01*
X77158732Y-41727998D01*
X77169500Y-41778539D01*
X77169500Y-42413192D01*
X77149815Y-42480231D01*
X77097011Y-42525986D01*
X77027853Y-42535930D01*
X76964297Y-42506905D01*
X76957819Y-42500873D01*
X76870672Y-42413726D01*
X76870668Y-42413723D01*
X76764133Y-42342538D01*
X76764124Y-42342533D01*
X76645744Y-42293499D01*
X76645738Y-42293497D01*
X76520071Y-42268500D01*
X76520069Y-42268500D01*
X76391931Y-42268500D01*
X76391929Y-42268500D01*
X76266261Y-42293497D01*
X76266255Y-42293499D01*
X76147875Y-42342533D01*
X76147866Y-42342538D01*
X76041331Y-42413723D01*
X76041327Y-42413726D01*
X75950726Y-42504327D01*
X75950723Y-42504331D01*
X75879538Y-42610866D01*
X75879533Y-42610875D01*
X75830499Y-42729255D01*
X75830497Y-42729261D01*
X75805500Y-42854928D01*
X75805500Y-42869500D01*
X75785815Y-42936539D01*
X75733011Y-42982294D01*
X75681500Y-42993500D01*
X68590500Y-42993500D01*
X68523461Y-42973815D01*
X68477706Y-42921011D01*
X68466500Y-42869500D01*
X68466500Y-42854928D01*
X68441502Y-42729261D01*
X68441501Y-42729260D01*
X68441501Y-42729256D01*
X68395286Y-42617683D01*
X68392466Y-42610875D01*
X68392461Y-42610866D01*
X68321276Y-42504331D01*
X68321273Y-42504327D01*
X68230672Y-42413726D01*
X68230668Y-42413723D01*
X68124133Y-42342538D01*
X68124124Y-42342533D01*
X68005744Y-42293499D01*
X68005738Y-42293497D01*
X67880071Y-42268500D01*
X67880069Y-42268500D01*
X67751931Y-42268500D01*
X67751929Y-42268500D01*
X67626261Y-42293497D01*
X67626255Y-42293499D01*
X67507875Y-42342533D01*
X67507866Y-42342538D01*
X67401331Y-42413723D01*
X67401327Y-42413726D01*
X67310726Y-42504327D01*
X67310723Y-42504331D01*
X67239538Y-42610866D01*
X67239533Y-42610875D01*
X67190499Y-42729255D01*
X67190497Y-42729261D01*
X67165500Y-42854928D01*
X67165500Y-42854931D01*
X67165500Y-43583069D01*
X67165500Y-43583071D01*
X67165499Y-43583071D01*
X67190497Y-43708738D01*
X67190499Y-43708744D01*
X67239533Y-43827124D01*
X67239538Y-43827133D01*
X67310723Y-43933668D01*
X67310726Y-43933672D01*
X67401327Y-44024273D01*
X67401331Y-44024276D01*
X67507866Y-44095461D01*
X67507870Y-44095463D01*
X67507873Y-44095465D01*
X67513948Y-44097981D01*
X67568353Y-44141819D01*
X67590421Y-44208113D01*
X67590500Y-44212544D01*
X67590500Y-46155455D01*
X67570815Y-46222494D01*
X67518011Y-46268249D01*
X67513956Y-46270015D01*
X67507875Y-46272533D01*
X67507866Y-46272538D01*
X67401331Y-46343723D01*
X67401327Y-46343726D01*
X67310726Y-46434327D01*
X67310723Y-46434331D01*
X67239538Y-46540866D01*
X67239533Y-46540875D01*
X67190499Y-46659255D01*
X67190497Y-46659261D01*
X67165500Y-46784928D01*
X67165500Y-46784931D01*
X67165500Y-48013069D01*
X67165500Y-48013071D01*
X67165499Y-48013071D01*
X67190497Y-48138738D01*
X67190499Y-48138744D01*
X67239533Y-48257124D01*
X67239538Y-48257133D01*
X67310723Y-48363668D01*
X67310726Y-48363672D01*
X67401327Y-48454273D01*
X67401331Y-48454276D01*
X67507866Y-48525461D01*
X67507872Y-48525464D01*
X67507873Y-48525465D01*
X67626256Y-48574501D01*
X67626260Y-48574501D01*
X67626261Y-48574502D01*
X67751928Y-48599500D01*
X67751931Y-48599500D01*
X67880071Y-48599500D01*
X67964615Y-48582682D01*
X68005744Y-48574501D01*
X68124127Y-48525465D01*
X68230669Y-48454276D01*
X68321276Y-48363669D01*
X68392465Y-48257127D01*
X68441501Y-48138744D01*
X68457418Y-48058725D01*
X68466500Y-48013071D01*
X68466500Y-47868500D01*
X68486185Y-47801461D01*
X68538989Y-47755706D01*
X68590500Y-47744500D01*
X75681500Y-47744500D01*
X75748539Y-47764185D01*
X75794294Y-47816989D01*
X75805500Y-47868500D01*
X75805500Y-48013069D01*
X75805500Y-48013071D01*
X75805499Y-48013071D01*
X75830497Y-48138738D01*
X75830499Y-48138744D01*
X75879533Y-48257124D01*
X75879538Y-48257133D01*
X75950723Y-48363668D01*
X75950726Y-48363672D01*
X76041327Y-48454273D01*
X76041331Y-48454276D01*
X76147866Y-48525461D01*
X76147872Y-48525464D01*
X76147873Y-48525465D01*
X76266256Y-48574501D01*
X76266260Y-48574501D01*
X76266261Y-48574502D01*
X76391928Y-48599500D01*
X76391931Y-48599500D01*
X76520071Y-48599500D01*
X76604615Y-48582682D01*
X76645744Y-48574501D01*
X76764127Y-48525465D01*
X76870669Y-48454276D01*
X76878983Y-48445962D01*
X76957819Y-48367127D01*
X77019142Y-48333642D01*
X77088834Y-48338626D01*
X77144767Y-48380498D01*
X77169184Y-48445962D01*
X77169500Y-48454808D01*
X77169500Y-103381000D01*
X77149815Y-103448039D01*
X77097011Y-103493794D01*
X77045500Y-103505000D01*
X47749000Y-103505000D01*
X47681961Y-103485315D01*
X47636206Y-103432511D01*
X47625000Y-103381000D01*
X47625000Y-95622155D01*
X54530000Y-95622155D01*
X54530000Y-96270000D01*
X55446988Y-96270000D01*
X55414075Y-96327007D01*
X55380000Y-96454174D01*
X55380000Y-96585826D01*
X55414075Y-96712993D01*
X55446988Y-96770000D01*
X54530000Y-96770000D01*
X54530000Y-97417844D01*
X54536401Y-97477372D01*
X54536403Y-97477379D01*
X54586645Y-97612086D01*
X54586649Y-97612093D01*
X54672809Y-97727187D01*
X54672812Y-97727190D01*
X54787906Y-97813350D01*
X54787913Y-97813354D01*
X54922620Y-97863596D01*
X54922627Y-97863598D01*
X54982155Y-97869999D01*
X54982172Y-97870000D01*
X55630000Y-97870000D01*
X55630000Y-96953012D01*
X55687007Y-96985925D01*
X55814174Y-97020000D01*
X55945826Y-97020000D01*
X56072993Y-96985925D01*
X56130000Y-96953012D01*
X56130000Y-97870000D01*
X56777828Y-97870000D01*
X56777844Y-97869999D01*
X56837372Y-97863598D01*
X56837379Y-97863596D01*
X56972086Y-97813354D01*
X56972093Y-97813350D01*
X57087187Y-97727190D01*
X57087190Y-97727187D01*
X57173350Y-97612093D01*
X57173354Y-97612086D01*
X57222614Y-97480013D01*
X57264485Y-97424079D01*
X57329949Y-97399662D01*
X57398222Y-97414513D01*
X57426477Y-97435665D01*
X57540535Y-97549723D01*
X57540540Y-97549727D01*
X57712442Y-97674620D01*
X57901782Y-97771095D01*
X58103871Y-97836757D01*
X58170000Y-97847231D01*
X58170000Y-96953012D01*
X58227007Y-96985925D01*
X58354174Y-97020000D01*
X58485826Y-97020000D01*
X58612993Y-96985925D01*
X58670000Y-96953012D01*
X58670000Y-97847230D01*
X58736126Y-97836757D01*
X58736129Y-97836757D01*
X58938217Y-97771095D01*
X59127557Y-97674620D01*
X59299459Y-97549727D01*
X59299464Y-97549723D01*
X59449723Y-97399464D01*
X59449727Y-97399459D01*
X59574620Y-97227558D01*
X59579514Y-97217954D01*
X59627488Y-97167157D01*
X59695308Y-97150361D01*
X59761444Y-97172897D01*
X59800486Y-97217954D01*
X59805379Y-97227558D01*
X59930272Y-97399459D01*
X59930276Y-97399464D01*
X60080535Y-97549723D01*
X60080540Y-97549727D01*
X60252442Y-97674620D01*
X60441782Y-97771095D01*
X60643871Y-97836757D01*
X60710000Y-97847231D01*
X60710000Y-96953012D01*
X60767007Y-96985925D01*
X60894174Y-97020000D01*
X61025826Y-97020000D01*
X61152993Y-96985925D01*
X61210000Y-96953012D01*
X61210000Y-97847230D01*
X61276126Y-97836757D01*
X61276129Y-97836757D01*
X61478217Y-97771095D01*
X61667557Y-97674620D01*
X61839459Y-97549727D01*
X61839464Y-97549723D01*
X61989723Y-97399464D01*
X61989727Y-97399459D01*
X62114620Y-97227558D01*
X62119514Y-97217954D01*
X62167488Y-97167157D01*
X62235308Y-97150361D01*
X62301444Y-97172897D01*
X62340486Y-97217954D01*
X62345379Y-97227558D01*
X62470272Y-97399459D01*
X62470276Y-97399464D01*
X62620535Y-97549723D01*
X62620540Y-97549727D01*
X62792442Y-97674620D01*
X62981782Y-97771095D01*
X63183871Y-97836757D01*
X63250000Y-97847231D01*
X63250000Y-96953012D01*
X63307007Y-96985925D01*
X63434174Y-97020000D01*
X63565826Y-97020000D01*
X63692993Y-96985925D01*
X63750000Y-96953012D01*
X63750000Y-97847230D01*
X63816126Y-97836757D01*
X63816129Y-97836757D01*
X64018217Y-97771095D01*
X64207557Y-97674620D01*
X64379459Y-97549727D01*
X64379464Y-97549723D01*
X64529723Y-97399464D01*
X64529727Y-97399459D01*
X64654620Y-97227558D01*
X64659514Y-97217954D01*
X64707488Y-97167157D01*
X64775308Y-97150361D01*
X64841444Y-97172897D01*
X64880486Y-97217954D01*
X64885379Y-97227558D01*
X65010272Y-97399459D01*
X65010276Y-97399464D01*
X65160535Y-97549723D01*
X65160540Y-97549727D01*
X65332442Y-97674620D01*
X65521782Y-97771095D01*
X65723871Y-97836757D01*
X65790000Y-97847231D01*
X65790000Y-96953012D01*
X65847007Y-96985925D01*
X65974174Y-97020000D01*
X66105826Y-97020000D01*
X66232993Y-96985925D01*
X66290000Y-96953012D01*
X66290000Y-97847231D01*
X66356126Y-97836757D01*
X66356129Y-97836757D01*
X66558217Y-97771095D01*
X66747557Y-97674620D01*
X66919459Y-97549727D01*
X66919464Y-97549723D01*
X67069723Y-97399464D01*
X67069727Y-97399459D01*
X67194620Y-97227557D01*
X67291095Y-97038217D01*
X67356757Y-96836129D01*
X67356757Y-96836126D01*
X67367231Y-96770000D01*
X66473012Y-96770000D01*
X66505925Y-96712993D01*
X66540000Y-96585826D01*
X66540000Y-96454174D01*
X66505925Y-96327007D01*
X66473012Y-96270000D01*
X67367231Y-96270000D01*
X67356757Y-96203873D01*
X67356757Y-96203870D01*
X67291095Y-96001782D01*
X67194620Y-95812442D01*
X67069727Y-95640540D01*
X67069723Y-95640535D01*
X66919464Y-95490276D01*
X66919459Y-95490272D01*
X66747557Y-95365379D01*
X66558215Y-95268903D01*
X66356124Y-95203241D01*
X66290000Y-95192768D01*
X66290000Y-96086988D01*
X66232993Y-96054075D01*
X66105826Y-96020000D01*
X65974174Y-96020000D01*
X65847007Y-96054075D01*
X65790000Y-96086988D01*
X65790000Y-95192768D01*
X65789999Y-95192768D01*
X65723875Y-95203241D01*
X65521784Y-95268903D01*
X65332442Y-95365379D01*
X65160540Y-95490272D01*
X65160535Y-95490276D01*
X65010276Y-95640535D01*
X65010272Y-95640540D01*
X64885377Y-95812444D01*
X64880484Y-95822048D01*
X64832509Y-95872844D01*
X64764688Y-95889638D01*
X64698553Y-95867100D01*
X64659516Y-95822048D01*
X64654622Y-95812444D01*
X64529727Y-95640540D01*
X64529723Y-95640535D01*
X64379464Y-95490276D01*
X64379459Y-95490272D01*
X64207557Y-95365379D01*
X64018215Y-95268903D01*
X63816124Y-95203241D01*
X63750000Y-95192768D01*
X63750000Y-96086988D01*
X63692993Y-96054075D01*
X63565826Y-96020000D01*
X63434174Y-96020000D01*
X63307007Y-96054075D01*
X63250000Y-96086988D01*
X63250000Y-95192768D01*
X63249999Y-95192768D01*
X63183875Y-95203241D01*
X62981784Y-95268903D01*
X62792442Y-95365379D01*
X62620540Y-95490272D01*
X62620535Y-95490276D01*
X62470276Y-95640535D01*
X62470272Y-95640540D01*
X62345377Y-95812444D01*
X62340484Y-95822048D01*
X62292509Y-95872844D01*
X62224688Y-95889638D01*
X62158553Y-95867100D01*
X62119516Y-95822048D01*
X62114622Y-95812444D01*
X61989727Y-95640540D01*
X61989723Y-95640535D01*
X61839464Y-95490276D01*
X61839459Y-95490272D01*
X61667557Y-95365379D01*
X61478215Y-95268903D01*
X61276124Y-95203241D01*
X61210000Y-95192768D01*
X61210000Y-96086988D01*
X61152993Y-96054075D01*
X61025826Y-96020000D01*
X60894174Y-96020000D01*
X60767007Y-96054075D01*
X60710000Y-96086988D01*
X60710000Y-95192768D01*
X60709999Y-95192768D01*
X60643875Y-95203241D01*
X60441784Y-95268903D01*
X60252442Y-95365379D01*
X60080540Y-95490272D01*
X60080535Y-95490276D01*
X59930276Y-95640535D01*
X59930272Y-95640540D01*
X59805377Y-95812444D01*
X59800484Y-95822048D01*
X59752509Y-95872844D01*
X59684688Y-95889638D01*
X59618553Y-95867100D01*
X59579516Y-95822048D01*
X59574622Y-95812444D01*
X59449727Y-95640540D01*
X59449723Y-95640535D01*
X59299464Y-95490276D01*
X59299459Y-95490272D01*
X59127557Y-95365379D01*
X58938215Y-95268903D01*
X58736124Y-95203241D01*
X58670000Y-95192768D01*
X58670000Y-96086988D01*
X58612993Y-96054075D01*
X58485826Y-96020000D01*
X58354174Y-96020000D01*
X58227007Y-96054075D01*
X58170000Y-96086988D01*
X58170000Y-95192768D01*
X58169999Y-95192768D01*
X58103875Y-95203241D01*
X57901784Y-95268903D01*
X57712442Y-95365379D01*
X57540541Y-95490271D01*
X57426477Y-95604335D01*
X57365154Y-95637819D01*
X57295462Y-95632835D01*
X57239529Y-95590963D01*
X57222614Y-95559986D01*
X57173354Y-95427913D01*
X57173350Y-95427906D01*
X57087190Y-95312812D01*
X57087187Y-95312809D01*
X56972093Y-95226649D01*
X56972086Y-95226645D01*
X56837379Y-95176403D01*
X56837372Y-95176401D01*
X56777844Y-95170000D01*
X56130000Y-95170000D01*
X56130000Y-96086988D01*
X56072993Y-96054075D01*
X55945826Y-96020000D01*
X55814174Y-96020000D01*
X55687007Y-96054075D01*
X55630000Y-96086988D01*
X55630000Y-95170000D01*
X54982155Y-95170000D01*
X54922627Y-95176401D01*
X54922620Y-95176403D01*
X54787913Y-95226645D01*
X54787906Y-95226649D01*
X54672812Y-95312809D01*
X54672809Y-95312812D01*
X54586649Y-95427906D01*
X54586645Y-95427913D01*
X54536403Y-95562620D01*
X54536401Y-95562627D01*
X54530000Y-95622155D01*
X47625000Y-95622155D01*
X47625000Y-92356355D01*
X51345000Y-92356355D01*
X51345000Y-93054200D01*
X52311988Y-93054200D01*
X52279075Y-93111207D01*
X52245000Y-93238374D01*
X52245000Y-93370026D01*
X52279075Y-93497193D01*
X52311988Y-93554200D01*
X51345000Y-93554200D01*
X51345000Y-94252044D01*
X51351401Y-94311572D01*
X51351403Y-94311579D01*
X51401645Y-94446286D01*
X51401649Y-94446293D01*
X51487809Y-94561387D01*
X51487812Y-94561390D01*
X51602906Y-94647550D01*
X51602913Y-94647554D01*
X51737620Y-94697796D01*
X51737627Y-94697798D01*
X51797155Y-94704199D01*
X51797172Y-94704200D01*
X52495000Y-94704200D01*
X52495000Y-93737212D01*
X52552007Y-93770125D01*
X52679174Y-93804200D01*
X52810826Y-93804200D01*
X52937993Y-93770125D01*
X52995000Y-93737212D01*
X52995000Y-94704200D01*
X53692828Y-94704200D01*
X53692844Y-94704199D01*
X53752372Y-94697798D01*
X53752379Y-94697796D01*
X53887086Y-94647554D01*
X53887093Y-94647550D01*
X54002187Y-94561390D01*
X54002190Y-94561387D01*
X54088350Y-94446293D01*
X54088354Y-94446286D01*
X54138596Y-94311579D01*
X54138598Y-94311572D01*
X54144999Y-94252044D01*
X54145000Y-94252027D01*
X54145000Y-93957557D01*
X54164685Y-93890518D01*
X54217489Y-93844763D01*
X54286647Y-93834819D01*
X54350203Y-93863844D01*
X54372101Y-93888665D01*
X54403017Y-93934934D01*
X54429024Y-93973857D01*
X54575342Y-94120175D01*
X54575345Y-94120177D01*
X54747402Y-94235141D01*
X54938580Y-94314330D01*
X55141530Y-94354699D01*
X55141534Y-94354700D01*
X55141535Y-94354700D01*
X55348466Y-94354700D01*
X55348467Y-94354699D01*
X55551420Y-94314330D01*
X55742598Y-94235141D01*
X55914655Y-94120177D01*
X56060977Y-93973855D01*
X56175941Y-93801798D01*
X56255130Y-93610620D01*
X56295500Y-93407665D01*
X56295500Y-93200735D01*
X56255130Y-92997780D01*
X56175941Y-92806602D01*
X56060977Y-92634545D01*
X56060976Y-92634544D01*
X56060975Y-92634542D01*
X55914657Y-92488224D01*
X55811197Y-92419095D01*
X55742598Y-92373259D01*
X55701829Y-92356372D01*
X55551420Y-92294070D01*
X55551412Y-92294068D01*
X55348469Y-92253700D01*
X55348465Y-92253700D01*
X55141535Y-92253700D01*
X55141530Y-92253700D01*
X54938587Y-92294068D01*
X54938579Y-92294070D01*
X54747403Y-92373258D01*
X54575342Y-92488224D01*
X54429022Y-92634544D01*
X54372102Y-92719733D01*
X54318490Y-92764538D01*
X54249165Y-92773245D01*
X54186138Y-92743091D01*
X54149418Y-92683648D01*
X54145000Y-92650842D01*
X54145000Y-92356372D01*
X54144999Y-92356355D01*
X54138598Y-92296827D01*
X54138596Y-92296820D01*
X54088354Y-92162113D01*
X54088350Y-92162106D01*
X54002190Y-92047012D01*
X54002187Y-92047009D01*
X53887093Y-91960849D01*
X53887086Y-91960845D01*
X53752379Y-91910603D01*
X53752372Y-91910601D01*
X53692844Y-91904200D01*
X52995000Y-91904200D01*
X52995000Y-92871188D01*
X52937993Y-92838275D01*
X52810826Y-92804200D01*
X52679174Y-92804200D01*
X52552007Y-92838275D01*
X52495000Y-92871188D01*
X52495000Y-91904200D01*
X51797155Y-91904200D01*
X51737627Y-91910601D01*
X51737620Y-91910603D01*
X51602913Y-91960845D01*
X51602906Y-91960849D01*
X51487812Y-92047009D01*
X51487809Y-92047012D01*
X51401649Y-92162106D01*
X51401645Y-92162113D01*
X51351403Y-92296820D01*
X51351401Y-92296827D01*
X51345000Y-92356355D01*
X47625000Y-92356355D01*
X47625000Y-85425315D01*
X48934500Y-85425315D01*
X48934500Y-86183084D01*
X48967842Y-86393595D01*
X48971693Y-86417910D01*
X49045165Y-86644031D01*
X49153104Y-86855875D01*
X49292855Y-87048225D01*
X49460975Y-87216345D01*
X49653325Y-87356096D01*
X49865169Y-87464035D01*
X50091290Y-87537507D01*
X50179351Y-87551454D01*
X50326116Y-87574700D01*
X50326121Y-87574700D01*
X50563884Y-87574700D01*
X50694340Y-87554037D01*
X50798710Y-87537507D01*
X51024831Y-87464035D01*
X51236675Y-87356096D01*
X51429025Y-87216345D01*
X51597145Y-87048225D01*
X51736896Y-86855875D01*
X51844835Y-86644031D01*
X51918307Y-86417910D01*
X51934837Y-86313540D01*
X51955500Y-86183084D01*
X51955500Y-85425315D01*
X51918307Y-85190493D01*
X51918307Y-85190490D01*
X51844835Y-84964369D01*
X51736896Y-84752525D01*
X51597145Y-84560175D01*
X51429025Y-84392055D01*
X51236675Y-84252304D01*
X51024831Y-84144365D01*
X50798710Y-84070893D01*
X50798708Y-84070892D01*
X50798706Y-84070892D01*
X50563884Y-84033700D01*
X50563879Y-84033700D01*
X50326121Y-84033700D01*
X50326116Y-84033700D01*
X50091293Y-84070892D01*
X49865166Y-84144366D01*
X49653324Y-84252304D01*
X49543581Y-84332037D01*
X49460975Y-84392055D01*
X49460973Y-84392057D01*
X49460972Y-84392057D01*
X49292857Y-84560172D01*
X49292857Y-84560173D01*
X49292855Y-84560175D01*
X49232837Y-84642781D01*
X49153104Y-84752524D01*
X49045166Y-84964366D01*
X48971692Y-85190493D01*
X48934500Y-85425315D01*
X47625000Y-85425315D01*
X47625000Y-59055000D01*
X48133000Y-59055000D01*
X48133000Y-72771000D01*
X50673000Y-72771000D01*
X50673000Y-65140266D01*
X50692685Y-65073227D01*
X50709319Y-65052585D01*
X51237819Y-64524085D01*
X51799294Y-63962610D01*
X51799297Y-63962608D01*
X51816735Y-63945170D01*
X51816736Y-63945170D01*
X51880170Y-63881736D01*
X51880170Y-63881734D01*
X51880172Y-63881733D01*
X51900346Y-63833026D01*
X51914500Y-63798855D01*
X51914500Y-62834180D01*
X51934185Y-62767141D01*
X51976499Y-62726794D01*
X52002689Y-62711673D01*
X52039501Y-62690419D01*
X52107399Y-62673946D01*
X52173426Y-62696798D01*
X52216617Y-62751719D01*
X52225500Y-62797806D01*
X52225500Y-73008487D01*
X52205815Y-73075526D01*
X52153011Y-73121281D01*
X52083853Y-73131225D01*
X52039500Y-73115874D01*
X51983589Y-73083594D01*
X51983588Y-73083593D01*
X51983587Y-73083593D01*
X51881727Y-73056300D01*
X51776273Y-73056300D01*
X51674413Y-73083593D01*
X51674410Y-73083594D01*
X51583085Y-73136321D01*
X51508521Y-73210885D01*
X51455794Y-73302210D01*
X51455793Y-73302213D01*
X51428500Y-73404073D01*
X51428500Y-73509527D01*
X51455793Y-73611387D01*
X51497688Y-73683951D01*
X51514300Y-73745948D01*
X51514300Y-74588544D01*
X51494615Y-74655583D01*
X51477982Y-74676225D01*
X51419320Y-74734887D01*
X51366594Y-74826210D01*
X51366593Y-74826213D01*
X51339300Y-74928073D01*
X51339300Y-75033527D01*
X51366593Y-75135387D01*
X51419320Y-75226713D01*
X51493887Y-75301280D01*
X51529448Y-75321811D01*
X51577663Y-75372377D01*
X51590886Y-75440984D01*
X51564918Y-75505849D01*
X51555129Y-75516877D01*
X51524321Y-75547685D01*
X51471594Y-75639010D01*
X51471593Y-75639013D01*
X51444300Y-75740873D01*
X51444300Y-75748900D01*
X51424615Y-75815939D01*
X51371811Y-75861694D01*
X51320300Y-75872900D01*
X50328656Y-75872900D01*
X50261617Y-75853215D01*
X50240975Y-75836582D01*
X50220332Y-75815939D01*
X50182313Y-75777920D01*
X50090987Y-75725193D01*
X49989127Y-75697900D01*
X49883673Y-75697900D01*
X49781813Y-75725193D01*
X49781810Y-75725194D01*
X49690485Y-75777921D01*
X49615921Y-75852485D01*
X49563194Y-75943810D01*
X49563193Y-75943813D01*
X49535900Y-76045673D01*
X49535900Y-76151127D01*
X49563193Y-76252987D01*
X49615920Y-76344313D01*
X49690487Y-76418880D01*
X49781813Y-76471607D01*
X49883673Y-76498900D01*
X49883675Y-76498900D01*
X49989125Y-76498900D01*
X49989127Y-76498900D01*
X50090987Y-76471607D01*
X50182313Y-76418880D01*
X50240975Y-76360218D01*
X50302299Y-76326734D01*
X50328656Y-76323900D01*
X51480703Y-76323900D01*
X51480711Y-76323901D01*
X51495145Y-76323901D01*
X51584853Y-76323901D01*
X51584855Y-76323901D01*
X51643460Y-76299625D01*
X51667736Y-76289570D01*
X51726887Y-76230419D01*
X51788210Y-76196934D01*
X51814568Y-76194100D01*
X51897525Y-76194100D01*
X51897527Y-76194100D01*
X51999387Y-76166807D01*
X52039500Y-76143647D01*
X52107399Y-76127174D01*
X52173426Y-76150026D01*
X52216617Y-76204946D01*
X52225500Y-76251034D01*
X52225500Y-86432142D01*
X52225499Y-86432156D01*
X52225499Y-86531853D01*
X52225500Y-86531858D01*
X52249772Y-86590457D01*
X52259829Y-86614735D01*
X52259830Y-86614736D01*
X52316182Y-86671088D01*
X52349666Y-86732409D01*
X52352500Y-86758768D01*
X52352500Y-88082342D01*
X52352499Y-88082356D01*
X52352499Y-88182053D01*
X52352500Y-88182058D01*
X52376772Y-88240657D01*
X52386829Y-88264935D01*
X52386830Y-88264936D01*
X52450264Y-88328370D01*
X52450265Y-88328370D01*
X52467705Y-88345810D01*
X52467706Y-88345811D01*
X56788990Y-92667096D01*
X56822475Y-92728419D01*
X56817491Y-92798111D01*
X56815870Y-92802230D01*
X56734870Y-92997779D01*
X56734868Y-92997787D01*
X56694500Y-93200730D01*
X56694500Y-93407669D01*
X56734868Y-93610612D01*
X56734870Y-93610620D01*
X56814058Y-93801796D01*
X56929024Y-93973857D01*
X57075342Y-94120175D01*
X57075345Y-94120177D01*
X57247402Y-94235141D01*
X57438580Y-94314330D01*
X57641530Y-94354699D01*
X57641534Y-94354700D01*
X57641535Y-94354700D01*
X57848466Y-94354700D01*
X57848467Y-94354699D01*
X58051420Y-94314330D01*
X58242598Y-94235141D01*
X58414655Y-94120177D01*
X58560977Y-93973855D01*
X58675941Y-93801798D01*
X58755130Y-93610620D01*
X58795500Y-93407665D01*
X58795500Y-93200735D01*
X58755130Y-92997780D01*
X58675941Y-92806602D01*
X58560977Y-92634545D01*
X58560976Y-92634544D01*
X58560975Y-92634542D01*
X58414658Y-92488225D01*
X58414650Y-92488219D01*
X58366734Y-92456202D01*
X58366660Y-92456154D01*
X58311197Y-92419095D01*
X58242598Y-92373259D01*
X58201829Y-92356372D01*
X58201788Y-92356355D01*
X65315000Y-92356355D01*
X65315000Y-93054200D01*
X66281988Y-93054200D01*
X66249075Y-93111207D01*
X66215000Y-93238374D01*
X66215000Y-93370026D01*
X66249075Y-93497193D01*
X66281988Y-93554200D01*
X65315000Y-93554200D01*
X65315000Y-94252044D01*
X65321401Y-94311572D01*
X65321403Y-94311579D01*
X65371645Y-94446286D01*
X65371649Y-94446293D01*
X65457809Y-94561387D01*
X65457812Y-94561390D01*
X65572906Y-94647550D01*
X65572913Y-94647554D01*
X65707620Y-94697796D01*
X65707627Y-94697798D01*
X65767155Y-94704199D01*
X65767172Y-94704200D01*
X66465000Y-94704200D01*
X66465000Y-93737212D01*
X66522007Y-93770125D01*
X66649174Y-93804200D01*
X66780826Y-93804200D01*
X66907993Y-93770125D01*
X66965000Y-93737212D01*
X66965000Y-94704200D01*
X67662828Y-94704200D01*
X67662844Y-94704199D01*
X67722372Y-94697798D01*
X67722379Y-94697796D01*
X67857086Y-94647554D01*
X67857093Y-94647550D01*
X67972187Y-94561390D01*
X67972190Y-94561387D01*
X68058350Y-94446293D01*
X68058354Y-94446286D01*
X68108596Y-94311579D01*
X68108598Y-94311572D01*
X68114999Y-94252044D01*
X68115000Y-94252027D01*
X68115000Y-93957557D01*
X68134685Y-93890518D01*
X68187489Y-93844763D01*
X68256647Y-93834819D01*
X68320203Y-93863844D01*
X68342101Y-93888665D01*
X68373017Y-93934934D01*
X68399024Y-93973857D01*
X68545342Y-94120175D01*
X68545345Y-94120177D01*
X68717402Y-94235141D01*
X68908580Y-94314330D01*
X69111530Y-94354699D01*
X69111534Y-94354700D01*
X69111535Y-94354700D01*
X69318466Y-94354700D01*
X69318467Y-94354699D01*
X69521420Y-94314330D01*
X69712598Y-94235141D01*
X69884655Y-94120177D01*
X70030977Y-93973855D01*
X70145941Y-93801798D01*
X70225130Y-93610620D01*
X70265500Y-93407665D01*
X70265500Y-93200735D01*
X70225130Y-92997780D01*
X70145941Y-92806602D01*
X70030977Y-92634545D01*
X70030976Y-92634544D01*
X70030975Y-92634542D01*
X69884657Y-92488224D01*
X69781197Y-92419095D01*
X69712598Y-92373259D01*
X69671829Y-92356372D01*
X69521420Y-92294070D01*
X69521412Y-92294068D01*
X69318469Y-92253700D01*
X69318465Y-92253700D01*
X69111535Y-92253700D01*
X69111530Y-92253700D01*
X68908587Y-92294068D01*
X68908579Y-92294070D01*
X68717403Y-92373258D01*
X68545342Y-92488224D01*
X68399022Y-92634544D01*
X68342102Y-92719733D01*
X68288490Y-92764538D01*
X68219165Y-92773245D01*
X68156138Y-92743091D01*
X68119418Y-92683648D01*
X68115000Y-92650842D01*
X68115000Y-92356372D01*
X68114999Y-92356355D01*
X68108598Y-92296827D01*
X68108596Y-92296820D01*
X68058354Y-92162113D01*
X68058350Y-92162106D01*
X67972190Y-92047012D01*
X67972187Y-92047009D01*
X67857093Y-91960849D01*
X67857086Y-91960845D01*
X67722379Y-91910603D01*
X67722372Y-91910601D01*
X67662844Y-91904200D01*
X66965000Y-91904200D01*
X66965000Y-92871188D01*
X66907993Y-92838275D01*
X66780826Y-92804200D01*
X66649174Y-92804200D01*
X66522007Y-92838275D01*
X66465000Y-92871188D01*
X66465000Y-91904200D01*
X65767155Y-91904200D01*
X65707627Y-91910601D01*
X65707620Y-91910603D01*
X65572913Y-91960845D01*
X65572906Y-91960849D01*
X65457812Y-92047009D01*
X65457809Y-92047012D01*
X65371649Y-92162106D01*
X65371645Y-92162113D01*
X65321403Y-92296820D01*
X65321401Y-92296827D01*
X65315000Y-92356355D01*
X58201788Y-92356355D01*
X58051420Y-92294070D01*
X58051412Y-92294068D01*
X57848469Y-92253700D01*
X57848465Y-92253700D01*
X57641535Y-92253700D01*
X57641530Y-92253700D01*
X57438587Y-92294068D01*
X57438579Y-92294070D01*
X57263085Y-92366762D01*
X57247405Y-92373258D01*
X57243030Y-92375070D01*
X57173561Y-92382539D01*
X57111081Y-92351264D01*
X57107896Y-92348190D01*
X56001887Y-91242181D01*
X55968402Y-91180858D01*
X55973386Y-91111166D01*
X56015258Y-91055233D01*
X56080722Y-91030816D01*
X56089568Y-91030500D01*
X69071033Y-91030500D01*
X69138072Y-91050185D01*
X69158714Y-91066819D01*
X70758990Y-92667095D01*
X70792475Y-92728418D01*
X70787491Y-92798110D01*
X70785870Y-92802229D01*
X70704870Y-92997779D01*
X70704868Y-92997787D01*
X70664500Y-93200730D01*
X70664500Y-93407669D01*
X70704868Y-93610612D01*
X70704870Y-93610620D01*
X70784058Y-93801796D01*
X70899024Y-93973857D01*
X71045342Y-94120175D01*
X71045345Y-94120177D01*
X71217402Y-94235141D01*
X71408580Y-94314330D01*
X71611530Y-94354699D01*
X71611534Y-94354700D01*
X71611535Y-94354700D01*
X71818466Y-94354700D01*
X71818467Y-94354699D01*
X72021420Y-94314330D01*
X72212598Y-94235141D01*
X72384655Y-94120177D01*
X72530977Y-93973855D01*
X72645941Y-93801798D01*
X72725130Y-93610620D01*
X72765500Y-93407665D01*
X72765500Y-93200735D01*
X72725130Y-92997780D01*
X72645941Y-92806602D01*
X72530977Y-92634545D01*
X72530976Y-92634544D01*
X72530975Y-92634542D01*
X72384657Y-92488224D01*
X72281197Y-92419095D01*
X72212598Y-92373259D01*
X72171829Y-92356372D01*
X72021420Y-92294070D01*
X72021412Y-92294068D01*
X71818469Y-92253700D01*
X71818465Y-92253700D01*
X71611535Y-92253700D01*
X71611530Y-92253700D01*
X71408587Y-92294068D01*
X71408579Y-92294070D01*
X71213029Y-92375070D01*
X71143559Y-92382539D01*
X71081080Y-92351264D01*
X71077895Y-92348190D01*
X69424410Y-90694705D01*
X69406970Y-90677264D01*
X69343536Y-90613830D01*
X69343535Y-90613829D01*
X69319257Y-90603772D01*
X69319257Y-90603771D01*
X69260658Y-90579500D01*
X69260656Y-90579499D01*
X69260655Y-90579499D01*
X69170945Y-90579499D01*
X69156511Y-90579499D01*
X69156503Y-90579500D01*
X55950398Y-90579500D01*
X55883359Y-90559815D01*
X55862717Y-90543181D01*
X53220819Y-87901283D01*
X53187334Y-87839960D01*
X53184500Y-87813602D01*
X53184500Y-85425315D01*
X58534500Y-85425315D01*
X58534500Y-86183084D01*
X58567842Y-86393595D01*
X58571693Y-86417910D01*
X58645165Y-86644031D01*
X58753104Y-86855875D01*
X58892855Y-87048225D01*
X59060975Y-87216345D01*
X59253325Y-87356096D01*
X59465169Y-87464035D01*
X59691290Y-87537507D01*
X59779351Y-87551454D01*
X59926116Y-87574700D01*
X59926121Y-87574700D01*
X60163884Y-87574700D01*
X60294340Y-87554037D01*
X60398710Y-87537507D01*
X60624831Y-87464035D01*
X60836675Y-87356096D01*
X61029025Y-87216345D01*
X61197145Y-87048225D01*
X61336896Y-86855875D01*
X61444835Y-86644031D01*
X61518307Y-86417910D01*
X61534837Y-86313540D01*
X61555500Y-86183084D01*
X61555500Y-85425315D01*
X62904500Y-85425315D01*
X62904500Y-86183084D01*
X62937842Y-86393595D01*
X62941693Y-86417910D01*
X63015165Y-86644031D01*
X63123104Y-86855875D01*
X63262855Y-87048225D01*
X63430975Y-87216345D01*
X63623325Y-87356096D01*
X63835169Y-87464035D01*
X64061290Y-87537507D01*
X64149351Y-87551454D01*
X64296116Y-87574700D01*
X64296121Y-87574700D01*
X64533884Y-87574700D01*
X64664340Y-87554037D01*
X64768710Y-87537507D01*
X64994831Y-87464035D01*
X65206675Y-87356096D01*
X65399025Y-87216345D01*
X65567145Y-87048225D01*
X65706896Y-86855875D01*
X65814835Y-86644031D01*
X65888307Y-86417910D01*
X65904837Y-86313540D01*
X65925500Y-86183084D01*
X65925500Y-85425315D01*
X72504500Y-85425315D01*
X72504500Y-86183084D01*
X72537842Y-86393595D01*
X72541693Y-86417910D01*
X72615165Y-86644031D01*
X72723104Y-86855875D01*
X72862855Y-87048225D01*
X73030975Y-87216345D01*
X73223325Y-87356096D01*
X73435169Y-87464035D01*
X73661290Y-87537507D01*
X73749351Y-87551454D01*
X73896116Y-87574700D01*
X73896121Y-87574700D01*
X74133884Y-87574700D01*
X74264340Y-87554037D01*
X74368710Y-87537507D01*
X74594831Y-87464035D01*
X74806675Y-87356096D01*
X74999025Y-87216345D01*
X75167145Y-87048225D01*
X75306896Y-86855875D01*
X75414835Y-86644031D01*
X75488307Y-86417910D01*
X75504837Y-86313540D01*
X75525500Y-86183084D01*
X75525500Y-85425315D01*
X75488307Y-85190493D01*
X75488307Y-85190490D01*
X75414835Y-84964369D01*
X75306896Y-84752525D01*
X75167145Y-84560175D01*
X74999025Y-84392055D01*
X74806675Y-84252304D01*
X74594831Y-84144365D01*
X74368710Y-84070893D01*
X74368708Y-84070892D01*
X74368706Y-84070892D01*
X74133884Y-84033700D01*
X74133879Y-84033700D01*
X73896121Y-84033700D01*
X73896116Y-84033700D01*
X73661293Y-84070892D01*
X73435166Y-84144366D01*
X73223324Y-84252304D01*
X73113581Y-84332037D01*
X73030975Y-84392055D01*
X73030973Y-84392057D01*
X73030972Y-84392057D01*
X72862857Y-84560172D01*
X72862857Y-84560173D01*
X72862855Y-84560175D01*
X72802837Y-84642781D01*
X72723104Y-84752524D01*
X72615166Y-84964366D01*
X72541692Y-85190493D01*
X72504500Y-85425315D01*
X65925500Y-85425315D01*
X65888307Y-85190493D01*
X65888307Y-85190490D01*
X65814835Y-84964369D01*
X65706896Y-84752525D01*
X65567145Y-84560175D01*
X65399025Y-84392055D01*
X65206675Y-84252304D01*
X64994831Y-84144365D01*
X64768710Y-84070893D01*
X64768708Y-84070892D01*
X64768706Y-84070892D01*
X64533884Y-84033700D01*
X64533879Y-84033700D01*
X64296121Y-84033700D01*
X64296116Y-84033700D01*
X64061293Y-84070892D01*
X63835166Y-84144366D01*
X63623324Y-84252304D01*
X63513581Y-84332037D01*
X63430975Y-84392055D01*
X63430973Y-84392057D01*
X63430972Y-84392057D01*
X63262857Y-84560172D01*
X63262857Y-84560173D01*
X63262855Y-84560175D01*
X63202837Y-84642781D01*
X63123104Y-84752524D01*
X63015166Y-84964366D01*
X62941692Y-85190493D01*
X62904500Y-85425315D01*
X61555500Y-85425315D01*
X61518307Y-85190493D01*
X61518307Y-85190490D01*
X61444835Y-84964369D01*
X61336896Y-84752525D01*
X61197145Y-84560175D01*
X61029025Y-84392055D01*
X60836675Y-84252304D01*
X60624831Y-84144365D01*
X60398710Y-84070893D01*
X60398708Y-84070892D01*
X60398706Y-84070892D01*
X60163884Y-84033700D01*
X60163879Y-84033700D01*
X59926121Y-84033700D01*
X59926116Y-84033700D01*
X59691293Y-84070892D01*
X59465166Y-84144366D01*
X59253324Y-84252304D01*
X59143581Y-84332037D01*
X59060975Y-84392055D01*
X59060973Y-84392057D01*
X59060972Y-84392057D01*
X58892857Y-84560172D01*
X58892857Y-84560173D01*
X58892855Y-84560175D01*
X58832837Y-84642781D01*
X58753104Y-84752524D01*
X58645166Y-84964366D01*
X58571692Y-85190493D01*
X58534500Y-85425315D01*
X53184500Y-85425315D01*
X53184500Y-75880108D01*
X60459500Y-75880108D01*
X60459500Y-76011892D01*
X60464725Y-76031391D01*
X60493608Y-76139187D01*
X60500502Y-76151127D01*
X60559500Y-76253314D01*
X60652686Y-76346500D01*
X60766814Y-76412392D01*
X60894108Y-76446500D01*
X60894110Y-76446500D01*
X61025890Y-76446500D01*
X61025892Y-76446500D01*
X61153186Y-76412392D01*
X61267314Y-76346500D01*
X61360500Y-76253314D01*
X61426392Y-76139186D01*
X61433119Y-76114080D01*
X61448304Y-76057408D01*
X61484668Y-75997747D01*
X61547515Y-75967217D01*
X61568079Y-75965500D01*
X63540460Y-75965500D01*
X63602460Y-75982113D01*
X63687814Y-76031392D01*
X63815108Y-76065500D01*
X63815110Y-76065500D01*
X63946890Y-76065500D01*
X63946892Y-76065500D01*
X64074186Y-76031392D01*
X64188314Y-75965500D01*
X64281500Y-75872314D01*
X64347392Y-75758186D01*
X64381500Y-75630892D01*
X64381500Y-75499108D01*
X64347392Y-75371814D01*
X64281500Y-75257686D01*
X64188314Y-75164500D01*
X64131250Y-75131554D01*
X64074187Y-75098608D01*
X63983541Y-75074320D01*
X63946892Y-75064500D01*
X63815108Y-75064500D01*
X63687814Y-75098608D01*
X63687813Y-75098608D01*
X63687811Y-75098609D01*
X63687810Y-75098609D01*
X63602460Y-75147887D01*
X63540460Y-75164500D01*
X61288273Y-75164500D01*
X61186411Y-75191793D01*
X61146091Y-75215073D01*
X61125930Y-75226713D01*
X61110508Y-75235616D01*
X61095088Y-75244519D01*
X60917600Y-75422006D01*
X60862014Y-75454098D01*
X60766815Y-75479607D01*
X60766814Y-75479607D01*
X60652686Y-75545500D01*
X60652683Y-75545502D01*
X60559502Y-75638683D01*
X60559500Y-75638686D01*
X60493608Y-75752812D01*
X60466901Y-75852485D01*
X60459500Y-75880108D01*
X53184500Y-75880108D01*
X53184500Y-69851829D01*
X53204185Y-69784790D01*
X53256989Y-69739035D01*
X53326147Y-69729091D01*
X53340576Y-69732050D01*
X53426973Y-69755200D01*
X53426976Y-69755200D01*
X53509933Y-69755200D01*
X53576972Y-69774885D01*
X53597614Y-69791519D01*
X55837846Y-72031751D01*
X55837849Y-72031755D01*
X55908353Y-72102259D01*
X55972452Y-72128808D01*
X55991232Y-72136587D01*
X56080941Y-72136587D01*
X60300342Y-72136587D01*
X60367381Y-72156272D01*
X60407728Y-72198585D01*
X60410920Y-72204113D01*
X60485487Y-72278680D01*
X60576813Y-72331407D01*
X60678673Y-72358700D01*
X60678675Y-72358700D01*
X60784125Y-72358700D01*
X60784127Y-72358700D01*
X60885987Y-72331407D01*
X60977313Y-72278680D01*
X61051880Y-72204113D01*
X61104607Y-72112787D01*
X61131900Y-72010927D01*
X61131900Y-71910167D01*
X61151585Y-71843128D01*
X61204389Y-71797373D01*
X61273547Y-71787429D01*
X61337103Y-71816454D01*
X61343581Y-71822486D01*
X66543759Y-77022664D01*
X66543762Y-77022668D01*
X66550830Y-77029736D01*
X66614264Y-77093170D01*
X66648592Y-77107388D01*
X66648594Y-77107390D01*
X66648595Y-77107390D01*
X66697146Y-77127501D01*
X66697147Y-77127501D01*
X66801289Y-77127501D01*
X66801297Y-77127500D01*
X76454703Y-77127500D01*
X76454711Y-77127501D01*
X76469145Y-77127501D01*
X76558853Y-77127501D01*
X76558855Y-77127501D01*
X76617460Y-77103225D01*
X76641736Y-77093170D01*
X76705170Y-77029736D01*
X76705170Y-77029735D01*
X76772170Y-76962736D01*
X76806500Y-76879855D01*
X76806500Y-76790146D01*
X76806500Y-62670297D01*
X76806501Y-62670288D01*
X76806501Y-62566147D01*
X76806501Y-62566146D01*
X76772170Y-62483265D01*
X76772170Y-62483264D01*
X76708736Y-62419830D01*
X76701671Y-62412765D01*
X76701664Y-62412759D01*
X76490319Y-62201414D01*
X76456834Y-62140091D01*
X76454000Y-62113733D01*
X76454000Y-58420000D01*
X73025000Y-58420000D01*
X73025000Y-65143245D01*
X73005315Y-65210284D01*
X72952511Y-65256039D01*
X72883353Y-65265983D01*
X72819797Y-65236958D01*
X72782023Y-65178180D01*
X72781225Y-65175338D01*
X72779929Y-65170500D01*
X72773207Y-65145413D01*
X72720480Y-65054087D01*
X72720478Y-65054085D01*
X72717113Y-65048256D01*
X72700500Y-64986256D01*
X72700500Y-63160439D01*
X72700500Y-63160438D01*
X72680021Y-63084011D01*
X72672066Y-63070233D01*
X72640464Y-63015495D01*
X72640458Y-63015487D01*
X71434336Y-61809365D01*
X71402242Y-61753777D01*
X71400500Y-61747275D01*
X71400500Y-61747273D01*
X71373207Y-61645413D01*
X71320480Y-61554087D01*
X71245913Y-61479520D01*
X71154587Y-61426793D01*
X71052727Y-61399500D01*
X70947273Y-61399500D01*
X70845413Y-61426793D01*
X70845410Y-61426794D01*
X70754085Y-61479521D01*
X70679521Y-61554085D01*
X70626794Y-61645410D01*
X70626793Y-61645413D01*
X70608439Y-61713914D01*
X70597397Y-61755123D01*
X70595243Y-61754545D01*
X70571665Y-61807828D01*
X70513336Y-61846292D01*
X70443471Y-61847115D01*
X70389321Y-61815416D01*
X68915610Y-60341705D01*
X68898170Y-60324264D01*
X68834736Y-60260830D01*
X68834735Y-60260829D01*
X68810457Y-60250772D01*
X68810457Y-60250771D01*
X68751858Y-60226500D01*
X68751856Y-60226499D01*
X68751855Y-60226499D01*
X68662145Y-60226499D01*
X68647711Y-60226499D01*
X68647703Y-60226500D01*
X55764256Y-60226500D01*
X55697217Y-60206815D01*
X55676575Y-60190182D01*
X55676306Y-60189913D01*
X55617913Y-60131520D01*
X55526587Y-60078793D01*
X55424727Y-60051500D01*
X55319273Y-60051500D01*
X55217413Y-60078793D01*
X55217410Y-60078794D01*
X55126085Y-60131521D01*
X55051521Y-60206085D01*
X54998794Y-60297410D01*
X54998793Y-60297413D01*
X54971500Y-60399273D01*
X54971500Y-60504726D01*
X54998793Y-60606586D01*
X54998794Y-60606589D01*
X55051521Y-60697914D01*
X55054287Y-60701519D01*
X55079478Y-60766689D01*
X55065437Y-60835133D01*
X55054290Y-60852479D01*
X55051523Y-60856085D01*
X54998794Y-60947413D01*
X54998793Y-60947416D01*
X54971500Y-61049276D01*
X54971500Y-61154730D01*
X54998793Y-61256590D01*
X55051520Y-61347916D01*
X55126087Y-61422483D01*
X55217413Y-61475210D01*
X55319273Y-61502503D01*
X55319275Y-61502503D01*
X55424725Y-61502503D01*
X55424727Y-61502503D01*
X55526587Y-61475210D01*
X55617913Y-61422483D01*
X55692480Y-61347916D01*
X55745207Y-61256590D01*
X55772500Y-61154730D01*
X55772500Y-61101500D01*
X55792185Y-61034461D01*
X55844989Y-60988706D01*
X55896500Y-60977500D01*
X68033915Y-60977500D01*
X68100954Y-60997185D01*
X68146709Y-61049989D01*
X68156653Y-61119147D01*
X68127628Y-61182703D01*
X68068850Y-61220477D01*
X68066035Y-61221267D01*
X68045413Y-61226793D01*
X68045410Y-61226794D01*
X67954085Y-61279521D01*
X67879521Y-61354085D01*
X67826794Y-61445410D01*
X67826793Y-61445413D01*
X67799500Y-61547273D01*
X67799500Y-61652727D01*
X67826793Y-61754587D01*
X67879520Y-61845913D01*
X67879523Y-61845916D01*
X67882887Y-61851742D01*
X67899500Y-61913743D01*
X67899500Y-64089562D01*
X67901445Y-64096819D01*
X67919979Y-64165991D01*
X67919981Y-64165994D01*
X67948564Y-64215500D01*
X67948566Y-64215502D01*
X67959542Y-64234514D01*
X67959543Y-64234515D01*
X68313181Y-64588152D01*
X68346666Y-64649475D01*
X68349500Y-64675833D01*
X68349500Y-65089562D01*
X68355008Y-65110118D01*
X68369979Y-65165991D01*
X68369981Y-65165994D01*
X68408504Y-65232716D01*
X68408510Y-65232741D01*
X68408517Y-65232738D01*
X68408585Y-65232856D01*
X68409540Y-65234512D01*
X68409543Y-65234515D01*
X68651991Y-65476962D01*
X68685476Y-65538285D01*
X68680492Y-65607976D01*
X68651992Y-65652324D01*
X68291135Y-66013182D01*
X68229815Y-66046666D01*
X68203456Y-66049500D01*
X67593856Y-66049500D01*
X67504712Y-66073386D01*
X67504709Y-66073387D01*
X67424791Y-66119527D01*
X67424790Y-66119528D01*
X67132773Y-66411544D01*
X67077191Y-66443635D01*
X67065418Y-66446789D01*
X67065410Y-66446793D01*
X66974085Y-66499520D01*
X66899522Y-66574083D01*
X66899520Y-66574085D01*
X66899520Y-66574086D01*
X66895185Y-66581595D01*
X66846792Y-66665412D01*
X66830696Y-66725482D01*
X66798603Y-66781067D01*
X65733939Y-67845731D01*
X65672616Y-67879216D01*
X65602924Y-67874232D01*
X65584264Y-67865440D01*
X65559587Y-67851193D01*
X65457727Y-67823900D01*
X65352273Y-67823900D01*
X65257963Y-67849169D01*
X65188114Y-67847507D01*
X65130252Y-67808344D01*
X65102748Y-67744116D01*
X65114335Y-67675213D01*
X65138190Y-67641714D01*
X65516807Y-67263097D01*
X65896294Y-66883609D01*
X65896297Y-66883608D01*
X65913735Y-66866170D01*
X65913736Y-66866170D01*
X65977170Y-66802736D01*
X65990883Y-66769630D01*
X66011501Y-66719855D01*
X66011501Y-66630145D01*
X66011501Y-66620156D01*
X66011500Y-66620142D01*
X66011500Y-64344146D01*
X66011498Y-64344141D01*
X66006958Y-64333181D01*
X65999633Y-64315495D01*
X65977172Y-64261266D01*
X65913733Y-64197827D01*
X65830858Y-64163501D01*
X65830856Y-64163500D01*
X65830855Y-64163500D01*
X65830853Y-64163500D01*
X60125519Y-64163500D01*
X60058480Y-64143815D01*
X60037838Y-64127181D01*
X59173362Y-63262705D01*
X59155922Y-63245264D01*
X59092488Y-63181830D01*
X59092487Y-63181829D01*
X59068209Y-63171772D01*
X59068209Y-63171771D01*
X59009610Y-63147500D01*
X59009608Y-63147499D01*
X59009607Y-63147499D01*
X58919897Y-63147499D01*
X58905463Y-63147499D01*
X58905455Y-63147500D01*
X54578500Y-63147500D01*
X54511461Y-63127815D01*
X54465706Y-63075011D01*
X54454500Y-63023500D01*
X54454500Y-56335273D01*
X63480500Y-56335273D01*
X63480500Y-56440727D01*
X63507793Y-56542587D01*
X63560520Y-56633913D01*
X63635087Y-56708480D01*
X63726413Y-56761207D01*
X63755978Y-56769129D01*
X63811565Y-56801222D01*
X64789007Y-57778664D01*
X64789010Y-57778668D01*
X64796078Y-57785736D01*
X64859512Y-57849170D01*
X64883785Y-57859224D01*
X64883786Y-57859225D01*
X64883787Y-57859225D01*
X64942393Y-57883501D01*
X64942394Y-57883501D01*
X65046537Y-57883501D01*
X65046545Y-57883500D01*
X68060744Y-57883500D01*
X68127783Y-57903185D01*
X68148425Y-57919818D01*
X68207087Y-57978480D01*
X68298413Y-58031207D01*
X68400273Y-58058500D01*
X68400275Y-58058500D01*
X68505725Y-58058500D01*
X68505727Y-58058500D01*
X68607587Y-58031207D01*
X68698913Y-57978480D01*
X68773480Y-57903913D01*
X68826207Y-57812587D01*
X68853500Y-57710727D01*
X68853500Y-57605273D01*
X68826207Y-57503413D01*
X68773480Y-57412087D01*
X68698913Y-57337520D01*
X68681011Y-57327184D01*
X68632797Y-57276619D01*
X68619574Y-57208012D01*
X68642740Y-57149138D01*
X68642416Y-57148951D01*
X68643665Y-57146786D01*
X68644641Y-57144308D01*
X68646470Y-57141922D01*
X68646480Y-57141913D01*
X68699207Y-57050587D01*
X68726500Y-56948727D01*
X68726500Y-56843273D01*
X68699207Y-56741413D01*
X68646480Y-56650087D01*
X68571913Y-56575520D01*
X68480587Y-56522793D01*
X68378727Y-56495500D01*
X68273273Y-56495500D01*
X68171413Y-56522793D01*
X68171410Y-56522794D01*
X68080087Y-56575520D01*
X68021425Y-56634182D01*
X67960101Y-56667666D01*
X67933744Y-56670500D01*
X65289256Y-56670500D01*
X65222217Y-56650815D01*
X65201575Y-56634182D01*
X65201306Y-56633913D01*
X65142913Y-56575520D01*
X65051587Y-56522793D01*
X64949727Y-56495500D01*
X64844273Y-56495500D01*
X64742413Y-56522793D01*
X64742410Y-56522794D01*
X64651085Y-56575521D01*
X64576521Y-56650085D01*
X64555461Y-56686562D01*
X64504893Y-56734776D01*
X64436286Y-56747998D01*
X64371422Y-56722029D01*
X64360394Y-56712241D01*
X64291417Y-56643264D01*
X64257932Y-56581941D01*
X64259322Y-56523494D01*
X64281500Y-56440727D01*
X64281500Y-56335273D01*
X64254207Y-56233413D01*
X64201480Y-56142087D01*
X64126913Y-56067520D01*
X64035587Y-56014793D01*
X63933727Y-55987500D01*
X63828273Y-55987500D01*
X63726413Y-56014793D01*
X63726410Y-56014794D01*
X63635085Y-56067521D01*
X63560521Y-56142085D01*
X63507794Y-56233410D01*
X63507793Y-56233413D01*
X63480500Y-56335273D01*
X54454500Y-56335273D01*
X54454500Y-55077757D01*
X54474185Y-55010718D01*
X54526989Y-54964963D01*
X54596147Y-54955019D01*
X54640505Y-54970373D01*
X54645413Y-54973207D01*
X54670564Y-54979946D01*
X54682548Y-54983819D01*
X54706889Y-54993079D01*
X54717491Y-54994160D01*
X54736981Y-54997742D01*
X54747273Y-55000500D01*
X54773309Y-55000500D01*
X54785896Y-55001140D01*
X54811798Y-55003784D01*
X54822313Y-55002085D01*
X54842082Y-55000500D01*
X54852726Y-55000500D01*
X54852727Y-55000500D01*
X54877877Y-54993760D01*
X54890188Y-54991124D01*
X54915903Y-54986972D01*
X54925621Y-54982609D01*
X54944303Y-54975962D01*
X54954587Y-54973207D01*
X54977146Y-54960182D01*
X54988338Y-54954457D01*
X55012110Y-54943788D01*
X55020365Y-54937061D01*
X55036701Y-54925798D01*
X55045913Y-54920480D01*
X55064336Y-54902055D01*
X55073671Y-54893625D01*
X55093861Y-54877176D01*
X55100095Y-54868538D01*
X55112954Y-54853437D01*
X55120480Y-54845913D01*
X55133503Y-54823352D01*
X55140346Y-54812782D01*
X55155586Y-54791674D01*
X55159371Y-54781720D01*
X55167881Y-54763809D01*
X55173207Y-54754587D01*
X55179949Y-54729420D01*
X55183819Y-54717451D01*
X55193079Y-54693111D01*
X55194161Y-54682509D01*
X55197744Y-54663010D01*
X55200500Y-54652727D01*
X55200500Y-54626691D01*
X55201141Y-54614103D01*
X55259660Y-54040614D01*
X55345701Y-53197410D01*
X55372089Y-53132717D01*
X55429265Y-53092559D01*
X55469060Y-53086000D01*
X67011791Y-53086000D01*
X67078830Y-53105685D01*
X67124585Y-53158489D01*
X67134529Y-53227647D01*
X67119178Y-53272000D01*
X67076794Y-53345410D01*
X67076793Y-53345413D01*
X67049500Y-53447273D01*
X67049500Y-53552727D01*
X67076793Y-53654587D01*
X67129520Y-53745913D01*
X67204087Y-53820480D01*
X67295413Y-53873207D01*
X67397273Y-53900500D01*
X67397275Y-53900500D01*
X70802725Y-53900500D01*
X70802727Y-53900500D01*
X70904587Y-53873207D01*
X70995913Y-53820480D01*
X71070480Y-53745913D01*
X71123207Y-53654587D01*
X71150500Y-53552727D01*
X71150500Y-53447273D01*
X71123207Y-53345413D01*
X71070480Y-53254087D01*
X70995913Y-53179520D01*
X70904587Y-53126793D01*
X70802727Y-53099500D01*
X67815000Y-53099500D01*
X67747961Y-53079815D01*
X67702206Y-53027011D01*
X67691000Y-52975500D01*
X67691000Y-51474500D01*
X67710685Y-51407461D01*
X67763489Y-51361706D01*
X67815000Y-51350500D01*
X72725500Y-51350500D01*
X72792539Y-51370185D01*
X72838294Y-51422989D01*
X72849500Y-51474500D01*
X72849500Y-55222475D01*
X72887016Y-55362485D01*
X72887017Y-55362488D01*
X72959488Y-55488011D01*
X72959490Y-55488013D01*
X72959491Y-55488015D01*
X73061985Y-55590509D01*
X73061986Y-55590510D01*
X73061988Y-55590511D01*
X73187511Y-55662982D01*
X73187512Y-55662982D01*
X73187515Y-55662984D01*
X73327525Y-55700500D01*
X73327528Y-55700500D01*
X73472472Y-55700500D01*
X73472475Y-55700500D01*
X73612485Y-55662984D01*
X73738015Y-55590509D01*
X73840509Y-55488015D01*
X73912984Y-55362485D01*
X73950500Y-55222475D01*
X73950500Y-51790537D01*
X73967113Y-51728537D01*
X73969799Y-51723886D01*
X74000500Y-51609309D01*
X74000500Y-51490691D01*
X73969799Y-51376114D01*
X73967111Y-51371458D01*
X73950500Y-51309461D01*
X73950500Y-50727526D01*
X73950500Y-50727525D01*
X73938982Y-50684541D01*
X73940643Y-50614693D01*
X73951367Y-50590450D01*
X73989799Y-50523886D01*
X74020500Y-50409309D01*
X74020500Y-50290691D01*
X73989799Y-50176114D01*
X73952493Y-50111500D01*
X73936021Y-50043601D01*
X73958873Y-49977574D01*
X74013794Y-49934383D01*
X74059881Y-49925500D01*
X74328851Y-49925500D01*
X74328853Y-49925500D01*
X74411639Y-49903318D01*
X74485862Y-49860465D01*
X74559508Y-49786819D01*
X74620831Y-49753334D01*
X74637250Y-49751568D01*
X74637249Y-49751561D01*
X74645305Y-49750500D01*
X74645309Y-49750500D01*
X74759886Y-49719799D01*
X74862613Y-49660489D01*
X74946489Y-49576613D01*
X75005799Y-49473886D01*
X75036500Y-49359309D01*
X75036500Y-49240691D01*
X75005799Y-49126114D01*
X74946489Y-49023387D01*
X74862613Y-48939511D01*
X74759886Y-48880201D01*
X74645309Y-48849500D01*
X74526691Y-48849500D01*
X74412114Y-48880201D01*
X74412112Y-48880201D01*
X74412112Y-48880202D01*
X74309387Y-48939511D01*
X74309384Y-48939513D01*
X74225513Y-49023384D01*
X74225511Y-49023387D01*
X74166201Y-49126112D01*
X74159935Y-49149500D01*
X74151066Y-49182594D01*
X74114703Y-49242254D01*
X74051856Y-49272783D01*
X74031293Y-49274500D01*
X70048964Y-49274500D01*
X69981925Y-49254815D01*
X69969064Y-49244451D01*
X69969059Y-49244458D01*
X69962615Y-49239513D01*
X69962613Y-49239511D01*
X69859886Y-49180201D01*
X69745309Y-49149500D01*
X69626691Y-49149500D01*
X69512114Y-49180201D01*
X69512112Y-49180201D01*
X69512112Y-49180202D01*
X69409387Y-49239511D01*
X69409384Y-49239513D01*
X69325513Y-49323384D01*
X69325511Y-49323387D01*
X69266201Y-49426114D01*
X69235500Y-49540691D01*
X69235500Y-49659309D01*
X69266201Y-49773886D01*
X69325511Y-49876613D01*
X69409387Y-49960489D01*
X69509194Y-50018113D01*
X69557409Y-50068681D01*
X69570631Y-50137288D01*
X69544663Y-50202152D01*
X69487749Y-50242680D01*
X69447193Y-50249500D01*
X67815000Y-50249500D01*
X67747961Y-50229815D01*
X67702206Y-50177011D01*
X67691000Y-50125500D01*
X67691000Y-49403000D01*
X54578500Y-49403000D01*
X54511461Y-49383315D01*
X54465706Y-49330511D01*
X54454500Y-49279000D01*
X54454500Y-47566566D01*
X54474185Y-47499527D01*
X54490814Y-47478890D01*
X58200485Y-43769218D01*
X58261808Y-43735734D01*
X58288166Y-43732900D01*
X58371125Y-43732900D01*
X58371127Y-43732900D01*
X58472987Y-43705607D01*
X58564313Y-43652880D01*
X58638880Y-43578313D01*
X58691607Y-43486987D01*
X58718900Y-43385127D01*
X58718900Y-43279673D01*
X58691607Y-43177813D01*
X58638880Y-43086487D01*
X58564313Y-43011920D01*
X58472987Y-42959193D01*
X58371127Y-42931900D01*
X58265673Y-42931900D01*
X58163813Y-42959193D01*
X58163810Y-42959194D01*
X58072485Y-43011921D01*
X57997921Y-43086485D01*
X57945194Y-43177810D01*
X57945193Y-43177813D01*
X57917900Y-43279673D01*
X57917900Y-43362632D01*
X57898215Y-43429671D01*
X57881581Y-43450313D01*
X54037830Y-47294063D01*
X54037830Y-47294065D01*
X54003499Y-47376944D01*
X54003499Y-47481088D01*
X54003500Y-47481097D01*
X54003500Y-55820193D01*
X53983815Y-55887232D01*
X53931011Y-55932987D01*
X53861853Y-55942931D01*
X53817500Y-55927580D01*
X53748589Y-55887794D01*
X53748588Y-55887793D01*
X53748587Y-55887793D01*
X53646727Y-55860500D01*
X53541273Y-55860500D01*
X53439413Y-55887793D01*
X53439410Y-55887794D01*
X53348085Y-55940521D01*
X53273521Y-56015085D01*
X53220794Y-56106410D01*
X53220793Y-56106413D01*
X53193500Y-56208273D01*
X53193500Y-56313727D01*
X53220793Y-56415587D01*
X53273520Y-56506913D01*
X53348087Y-56581480D01*
X53439413Y-56634207D01*
X53541273Y-56661500D01*
X53541275Y-56661500D01*
X53646725Y-56661500D01*
X53646727Y-56661500D01*
X53748587Y-56634207D01*
X53817501Y-56594419D01*
X53885399Y-56577946D01*
X53951426Y-56600798D01*
X53994617Y-56655719D01*
X54003500Y-56701806D01*
X54003500Y-57030467D01*
X53983815Y-57097506D01*
X53931011Y-57143261D01*
X53861853Y-57153205D01*
X53847408Y-57150242D01*
X53773728Y-57130500D01*
X53773727Y-57130500D01*
X53668273Y-57130500D01*
X53566413Y-57157793D01*
X53566410Y-57157794D01*
X53475085Y-57210521D01*
X53400521Y-57285085D01*
X53347794Y-57376410D01*
X53347793Y-57376413D01*
X53320500Y-57478273D01*
X53320500Y-57583727D01*
X53347793Y-57685587D01*
X53400520Y-57776913D01*
X53475087Y-57851480D01*
X53566413Y-57904207D01*
X53668273Y-57931500D01*
X53668275Y-57931500D01*
X53773724Y-57931500D01*
X53773727Y-57931500D01*
X53847409Y-57911757D01*
X53917256Y-57913420D01*
X53975119Y-57952582D01*
X54002623Y-58016811D01*
X54003500Y-58031532D01*
X54003500Y-59443467D01*
X53983815Y-59510506D01*
X53931011Y-59556261D01*
X53861853Y-59566205D01*
X53847408Y-59563242D01*
X53773728Y-59543500D01*
X53773727Y-59543500D01*
X53668273Y-59543500D01*
X53566413Y-59570793D01*
X53566410Y-59570794D01*
X53475085Y-59623521D01*
X53400521Y-59698085D01*
X53347794Y-59789410D01*
X53347793Y-59789413D01*
X53320500Y-59891273D01*
X53320500Y-59996727D01*
X53342490Y-60078793D01*
X53347793Y-60098586D01*
X53347794Y-60098589D01*
X53400521Y-60189914D01*
X53459181Y-60248574D01*
X53492666Y-60309897D01*
X53495500Y-60336255D01*
X53495500Y-61075744D01*
X53475815Y-61142783D01*
X53459182Y-61163425D01*
X53400520Y-61222087D01*
X53347794Y-61313410D01*
X53347793Y-61313413D01*
X53320500Y-61415273D01*
X53320500Y-61520727D01*
X53347793Y-61622587D01*
X53400520Y-61713913D01*
X53475087Y-61788480D01*
X53566413Y-61841207D01*
X53668273Y-61868500D01*
X53668275Y-61868500D01*
X53773724Y-61868500D01*
X53773727Y-61868500D01*
X53847409Y-61848757D01*
X53917256Y-61850420D01*
X53975119Y-61889582D01*
X54002623Y-61953811D01*
X54003500Y-61968532D01*
X54003500Y-63417853D01*
X54003501Y-63417858D01*
X54037827Y-63500733D01*
X54101266Y-63564172D01*
X54165365Y-63590721D01*
X54184145Y-63598500D01*
X54273855Y-63598500D01*
X56607216Y-63598500D01*
X56674255Y-63618185D01*
X56720010Y-63670989D01*
X56729954Y-63740147D01*
X56700929Y-63803703D01*
X56694897Y-63810181D01*
X56023830Y-64481247D01*
X56023830Y-64481249D01*
X55989499Y-64564128D01*
X55989499Y-64668272D01*
X55989500Y-64668281D01*
X55989500Y-68362843D01*
X55989499Y-68362857D01*
X55989499Y-68462558D01*
X56007529Y-68506082D01*
X56023830Y-68545437D01*
X56023832Y-68545439D01*
X56104700Y-68626307D01*
X56104705Y-68626311D01*
X57418648Y-69940255D01*
X58691128Y-71212735D01*
X58754565Y-71276172D01*
X58818664Y-71302721D01*
X58837444Y-71310500D01*
X59810840Y-71310500D01*
X59810848Y-71310501D01*
X59825282Y-71310501D01*
X59914990Y-71310501D01*
X59914992Y-71310501D01*
X59973597Y-71286225D01*
X59997873Y-71276170D01*
X60061307Y-71212736D01*
X60061307Y-71212735D01*
X60078745Y-71195297D01*
X60078747Y-71195294D01*
X60361380Y-70912660D01*
X60422701Y-70879177D01*
X60492393Y-70884161D01*
X60548326Y-70926033D01*
X60572743Y-70991497D01*
X60568834Y-71032434D01*
X60559500Y-71067268D01*
X60559500Y-71067273D01*
X60559500Y-71172727D01*
X60570221Y-71212736D01*
X60586793Y-71274586D01*
X60586794Y-71274589D01*
X60639521Y-71365914D01*
X60647183Y-71373576D01*
X60680668Y-71434899D01*
X60675684Y-71504591D01*
X60633812Y-71560524D01*
X60591598Y-71581031D01*
X60576815Y-71584992D01*
X60576810Y-71584994D01*
X60485485Y-71637721D01*
X60473939Y-71649268D01*
X60412616Y-71682753D01*
X60386258Y-71685587D01*
X56180854Y-71685587D01*
X56113815Y-71665902D01*
X56093173Y-71649268D01*
X53916519Y-69472614D01*
X53883034Y-69411291D01*
X53880200Y-69384933D01*
X53880200Y-69301975D01*
X53880200Y-69301973D01*
X53852907Y-69200113D01*
X53800180Y-69108787D01*
X53725613Y-69034220D01*
X53634287Y-68981493D01*
X53532427Y-68954200D01*
X53426973Y-68954200D01*
X53340593Y-68977345D01*
X53270743Y-68975682D01*
X53212880Y-68936519D01*
X53185377Y-68872290D01*
X53184500Y-68857570D01*
X53184500Y-64471146D01*
X53184498Y-64471141D01*
X53150172Y-64388266D01*
X53012819Y-64250913D01*
X52979334Y-64189590D01*
X52976500Y-64163232D01*
X52976500Y-58017297D01*
X52976501Y-58017288D01*
X52976501Y-57913147D01*
X52976501Y-57913146D01*
X52942170Y-57830265D01*
X52942170Y-57830264D01*
X52878736Y-57766830D01*
X52871671Y-57759765D01*
X52871664Y-57759759D01*
X51188819Y-56076914D01*
X51155334Y-56015591D01*
X51152500Y-55989233D01*
X51152500Y-48017255D01*
X51172185Y-47950216D01*
X51188819Y-47929574D01*
X51247480Y-47870913D01*
X51300207Y-47779587D01*
X51327500Y-47677727D01*
X51327500Y-47572273D01*
X51300207Y-47470413D01*
X51247480Y-47379087D01*
X51172913Y-47304520D01*
X51168574Y-47300181D01*
X51135089Y-47238858D01*
X51140073Y-47169166D01*
X51181945Y-47113233D01*
X51247409Y-47088816D01*
X51256255Y-47088500D01*
X51974500Y-47088500D01*
X52041539Y-47108185D01*
X52087294Y-47160989D01*
X52098500Y-47212500D01*
X52098500Y-47782322D01*
X52081887Y-47844322D01*
X52077794Y-47851410D01*
X52077793Y-47851413D01*
X52050500Y-47953273D01*
X52050500Y-48058727D01*
X52077793Y-48160587D01*
X52130520Y-48251913D01*
X52205087Y-48326480D01*
X52296413Y-48379207D01*
X52398273Y-48406500D01*
X52398275Y-48406500D01*
X52503725Y-48406500D01*
X52503727Y-48406500D01*
X52605587Y-48379207D01*
X52696913Y-48326480D01*
X52771480Y-48251913D01*
X52824207Y-48160587D01*
X52851500Y-48058727D01*
X52851500Y-47953273D01*
X52824207Y-47851413D01*
X52771480Y-47760087D01*
X52696913Y-47685520D01*
X52683415Y-47677727D01*
X52611499Y-47636205D01*
X52563284Y-47585638D01*
X52549500Y-47528819D01*
X52549500Y-46818146D01*
X52549498Y-46818141D01*
X52515172Y-46735266D01*
X52451733Y-46671827D01*
X52368858Y-46637501D01*
X52368856Y-46637500D01*
X52368855Y-46637500D01*
X52368853Y-46637500D01*
X50097297Y-46637500D01*
X50097289Y-46637499D01*
X50082855Y-46637499D01*
X49993146Y-46637499D01*
X49993144Y-46637499D01*
X49993142Y-46637500D01*
X49944594Y-46657609D01*
X49910265Y-46671828D01*
X49878548Y-46703546D01*
X49846830Y-46735264D01*
X49846829Y-46735265D01*
X49275265Y-47306829D01*
X49275264Y-47306830D01*
X49243547Y-47338547D01*
X49211830Y-47370263D01*
X49203134Y-47391260D01*
X49203132Y-47391265D01*
X49177499Y-47453145D01*
X49177499Y-47557288D01*
X49177500Y-47557297D01*
X49177500Y-56503744D01*
X49157815Y-56570783D01*
X49141182Y-56591425D01*
X49082520Y-56650087D01*
X49029794Y-56741410D01*
X49029793Y-56741413D01*
X49002500Y-56843273D01*
X49002500Y-56948727D01*
X49029793Y-57050587D01*
X49082520Y-57141913D01*
X49157087Y-57216480D01*
X49248413Y-57269207D01*
X49350273Y-57296500D01*
X49350275Y-57296500D01*
X49455725Y-57296500D01*
X49455727Y-57296500D01*
X49557587Y-57269207D01*
X49648913Y-57216480D01*
X49723480Y-57141913D01*
X49776207Y-57050587D01*
X49803500Y-56948727D01*
X49803500Y-56843273D01*
X49776207Y-56741413D01*
X49723480Y-56650087D01*
X49664818Y-56591425D01*
X49631334Y-56530101D01*
X49628500Y-56503744D01*
X49628500Y-47642767D01*
X49648185Y-47575728D01*
X49664819Y-47555086D01*
X50095086Y-47124819D01*
X50156409Y-47091334D01*
X50182767Y-47088500D01*
X50597745Y-47088500D01*
X50664784Y-47108185D01*
X50710539Y-47160989D01*
X50720483Y-47230147D01*
X50691458Y-47293703D01*
X50685426Y-47300181D01*
X50606521Y-47379085D01*
X50553794Y-47470410D01*
X50553793Y-47470413D01*
X50526500Y-47572273D01*
X50526500Y-47677727D01*
X50553793Y-47779587D01*
X50574554Y-47815547D01*
X50606521Y-47870914D01*
X50665181Y-47929574D01*
X50698666Y-47990897D01*
X50701500Y-48017255D01*
X50701500Y-55693193D01*
X50681815Y-55760232D01*
X50629011Y-55805987D01*
X50559853Y-55815931D01*
X50515500Y-55800580D01*
X50446589Y-55760794D01*
X50446588Y-55760793D01*
X50446587Y-55760793D01*
X50344727Y-55733500D01*
X50239273Y-55733500D01*
X50137413Y-55760793D01*
X50137410Y-55760794D01*
X50046085Y-55813521D01*
X49971521Y-55888085D01*
X49918794Y-55979410D01*
X49918793Y-55979413D01*
X49891500Y-56081273D01*
X49891500Y-56186727D01*
X49918793Y-56288587D01*
X49971520Y-56379913D01*
X50046087Y-56454480D01*
X50137413Y-56507207D01*
X50239273Y-56534500D01*
X50239275Y-56534500D01*
X50322233Y-56534500D01*
X50389272Y-56554185D01*
X50409914Y-56570819D01*
X52189181Y-58350086D01*
X52222666Y-58411409D01*
X52225500Y-58437767D01*
X52225500Y-61916193D01*
X52205815Y-61983232D01*
X52153011Y-62028987D01*
X52083853Y-62038931D01*
X52039500Y-62023580D01*
X51970585Y-61983792D01*
X51963541Y-61980874D01*
X51909138Y-61937032D01*
X51887075Y-61870737D01*
X51903608Y-61804316D01*
X51935207Y-61749587D01*
X51962500Y-61647727D01*
X51962500Y-61542273D01*
X51935207Y-61440413D01*
X51882480Y-61349087D01*
X51807913Y-61274520D01*
X51716587Y-61221793D01*
X51614727Y-61194500D01*
X51509273Y-61194500D01*
X51407413Y-61221793D01*
X51407410Y-61221794D01*
X51316087Y-61274520D01*
X51241519Y-61349087D01*
X51240278Y-61351238D01*
X51238755Y-61352689D01*
X51236572Y-61355535D01*
X51236128Y-61355194D01*
X51189709Y-61399452D01*
X51180349Y-61403794D01*
X51180265Y-61403828D01*
X51161613Y-61422481D01*
X51116830Y-61467264D01*
X50884681Y-61699413D01*
X50823358Y-61732898D01*
X50753666Y-61727914D01*
X50697733Y-61686042D01*
X50673316Y-61620578D01*
X50673000Y-61611732D01*
X50673000Y-59055000D01*
X48133000Y-59055000D01*
X47625000Y-59055000D01*
X47625000Y-41527068D01*
X47644685Y-41460029D01*
X47697489Y-41414274D01*
X47750061Y-41403073D01*
X61682994Y-41522669D01*
G37*
G04 #@! TD.AperFunction*
M02*
