G04 #@! TF.GenerationSoftware,KiCad,Pcbnew,10.0.6-10.0.6~ubuntu26.04.1*
G04 #@! TF.CreationDate,2026-10-05T14:14:25+05:30*
G04 #@! TF.ProjectId,16bit-5v,31366269-742d-4357-962e-6b696361645f,rev?*
G04 #@! TF.SameCoordinates,Original*
G04 #@! TF.FileFunction,Legend,Top*
G04 #@! TF.FilePolarity,Positive*
%FSLAX46Y46*%
G04 Gerber Fmt 4.6, Leading zero omitted, Abs format (unit mm)*
G04 Created by KiCad (PCBNEW 10.0.6-10.0.6~ubuntu26.04.1) date 2026-10-05 14:14:25*
%MOMM*%
%LPD*%
G01*
G04 APERTURE LIST*
%ADD10C,0.150000*%
%ADD11C,0.200000*%
%ADD12C,0.400000*%
%ADD13C,0.130000*%
%ADD14C,0.120000*%
%ADD15C,0.100000*%
%ADD16C,0.191421*%
%ADD17R,0.470000X0.530000*%
%ADD18R,1.050000X0.650000*%
%ADD19C,0.650000*%
%ADD20R,0.600000X1.450000*%
%ADD21R,0.300000X1.450000*%
%ADD22O,1.000000X2.100000*%
%ADD23O,1.000000X1.600000*%
%ADD24R,1.700000X1.000000*%
%ADD25R,1.400000X1.200000*%
%ADD26O,2.720000X3.240000*%
%ADD27R,1.800000X1.800000*%
%ADD28C,1.800000*%
%ADD29R,1.700000X1.700000*%
%ADD30O,1.700000X1.700000*%
G04 APERTURE END LIST*
D10*
X51292303Y-69033104D02*
X51254207Y-69071200D01*
X51254207Y-69071200D02*
X51139922Y-69109295D01*
X51139922Y-69109295D02*
X51063731Y-69109295D01*
X51063731Y-69109295D02*
X50949445Y-69071200D01*
X50949445Y-69071200D02*
X50873255Y-68995009D01*
X50873255Y-68995009D02*
X50835160Y-68918819D01*
X50835160Y-68918819D02*
X50797064Y-68766438D01*
X50797064Y-68766438D02*
X50797064Y-68652152D01*
X50797064Y-68652152D02*
X50835160Y-68499771D01*
X50835160Y-68499771D02*
X50873255Y-68423580D01*
X50873255Y-68423580D02*
X50949445Y-68347390D01*
X50949445Y-68347390D02*
X51063731Y-68309295D01*
X51063731Y-68309295D02*
X51139922Y-68309295D01*
X51139922Y-68309295D02*
X51254207Y-68347390D01*
X51254207Y-68347390D02*
X51292303Y-68385485D01*
X51520874Y-68309295D02*
X51787541Y-69109295D01*
X51787541Y-69109295D02*
X52054207Y-68309295D01*
X52739921Y-69109295D02*
X52282778Y-69109295D01*
X52511350Y-69109295D02*
X52511350Y-68309295D01*
X52511350Y-68309295D02*
X52435159Y-68423580D01*
X52435159Y-68423580D02*
X52358969Y-68499771D01*
X52358969Y-68499771D02*
X52282778Y-68537866D01*
X51292303Y-71573104D02*
X51254207Y-71611200D01*
X51254207Y-71611200D02*
X51139922Y-71649295D01*
X51139922Y-71649295D02*
X51063731Y-71649295D01*
X51063731Y-71649295D02*
X50949445Y-71611200D01*
X50949445Y-71611200D02*
X50873255Y-71535009D01*
X50873255Y-71535009D02*
X50835160Y-71458819D01*
X50835160Y-71458819D02*
X50797064Y-71306438D01*
X50797064Y-71306438D02*
X50797064Y-71192152D01*
X50797064Y-71192152D02*
X50835160Y-71039771D01*
X50835160Y-71039771D02*
X50873255Y-70963580D01*
X50873255Y-70963580D02*
X50949445Y-70887390D01*
X50949445Y-70887390D02*
X51063731Y-70849295D01*
X51063731Y-70849295D02*
X51139922Y-70849295D01*
X51139922Y-70849295D02*
X51254207Y-70887390D01*
X51254207Y-70887390D02*
X51292303Y-70925485D01*
X51520874Y-70849295D02*
X51787541Y-71649295D01*
X51787541Y-71649295D02*
X52054207Y-70849295D01*
X52282778Y-70925485D02*
X52320874Y-70887390D01*
X52320874Y-70887390D02*
X52397064Y-70849295D01*
X52397064Y-70849295D02*
X52587540Y-70849295D01*
X52587540Y-70849295D02*
X52663731Y-70887390D01*
X52663731Y-70887390D02*
X52701826Y-70925485D01*
X52701826Y-70925485D02*
X52739921Y-71001676D01*
X52739921Y-71001676D02*
X52739921Y-71077866D01*
X52739921Y-71077866D02*
X52701826Y-71192152D01*
X52701826Y-71192152D02*
X52244683Y-71649295D01*
X52244683Y-71649295D02*
X52739921Y-71649295D01*
D11*
X48566101Y-93751980D02*
X48518482Y-93799600D01*
X48518482Y-93799600D02*
X48375625Y-93847219D01*
X48375625Y-93847219D02*
X48280387Y-93847219D01*
X48280387Y-93847219D02*
X48137530Y-93799600D01*
X48137530Y-93799600D02*
X48042292Y-93704361D01*
X48042292Y-93704361D02*
X47994673Y-93609123D01*
X47994673Y-93609123D02*
X47947054Y-93418647D01*
X47947054Y-93418647D02*
X47947054Y-93275790D01*
X47947054Y-93275790D02*
X47994673Y-93085314D01*
X47994673Y-93085314D02*
X48042292Y-92990076D01*
X48042292Y-92990076D02*
X48137530Y-92894838D01*
X48137530Y-92894838D02*
X48280387Y-92847219D01*
X48280387Y-92847219D02*
X48375625Y-92847219D01*
X48375625Y-92847219D02*
X48518482Y-92894838D01*
X48518482Y-92894838D02*
X48566101Y-92942457D01*
X48851816Y-92847219D02*
X49185149Y-93847219D01*
X49185149Y-93847219D02*
X49518482Y-92847219D01*
X50375625Y-93847219D02*
X49804197Y-93847219D01*
X50089911Y-93847219D02*
X50089911Y-92847219D01*
X50089911Y-92847219D02*
X49994673Y-92990076D01*
X49994673Y-92990076D02*
X49899435Y-93085314D01*
X49899435Y-93085314D02*
X49804197Y-93132933D01*
X48963006Y-105683465D02*
X49105863Y-105731084D01*
X49105863Y-105731084D02*
X49153482Y-105778703D01*
X49153482Y-105778703D02*
X49201101Y-105873941D01*
X49201101Y-105873941D02*
X49201101Y-106016798D01*
X49201101Y-106016798D02*
X49153482Y-106112036D01*
X49153482Y-106112036D02*
X49105863Y-106159656D01*
X49105863Y-106159656D02*
X49010625Y-106207275D01*
X49010625Y-106207275D02*
X48629673Y-106207275D01*
X48629673Y-106207275D02*
X48629673Y-105207275D01*
X48629673Y-105207275D02*
X48963006Y-105207275D01*
X48963006Y-105207275D02*
X49058244Y-105254894D01*
X49058244Y-105254894D02*
X49105863Y-105302513D01*
X49105863Y-105302513D02*
X49153482Y-105397751D01*
X49153482Y-105397751D02*
X49153482Y-105492989D01*
X49153482Y-105492989D02*
X49105863Y-105588227D01*
X49105863Y-105588227D02*
X49058244Y-105635846D01*
X49058244Y-105635846D02*
X48963006Y-105683465D01*
X48963006Y-105683465D02*
X48629673Y-105683465D01*
X50201101Y-106207275D02*
X49867768Y-105731084D01*
X49629673Y-106207275D02*
X49629673Y-105207275D01*
X49629673Y-105207275D02*
X50010625Y-105207275D01*
X50010625Y-105207275D02*
X50105863Y-105254894D01*
X50105863Y-105254894D02*
X50153482Y-105302513D01*
X50153482Y-105302513D02*
X50201101Y-105397751D01*
X50201101Y-105397751D02*
X50201101Y-105540608D01*
X50201101Y-105540608D02*
X50153482Y-105635846D01*
X50153482Y-105635846D02*
X50105863Y-105683465D01*
X50105863Y-105683465D02*
X50010625Y-105731084D01*
X50010625Y-105731084D02*
X49629673Y-105731084D01*
X50629673Y-105683465D02*
X50963006Y-105683465D01*
X51105863Y-106207275D02*
X50629673Y-106207275D01*
X50629673Y-106207275D02*
X50629673Y-105207275D01*
X50629673Y-105207275D02*
X51105863Y-105207275D01*
X51486816Y-105921560D02*
X51963006Y-105921560D01*
X51391578Y-106207275D02*
X51724911Y-105207275D01*
X51724911Y-105207275D02*
X52058244Y-106207275D01*
X52391578Y-106207275D02*
X52391578Y-105207275D01*
X52391578Y-105207275D02*
X52629673Y-105207275D01*
X52629673Y-105207275D02*
X52772530Y-105254894D01*
X52772530Y-105254894D02*
X52867768Y-105350132D01*
X52867768Y-105350132D02*
X52915387Y-105445370D01*
X52915387Y-105445370D02*
X52963006Y-105635846D01*
X52963006Y-105635846D02*
X52963006Y-105778703D01*
X52963006Y-105778703D02*
X52915387Y-105969179D01*
X52915387Y-105969179D02*
X52867768Y-106064417D01*
X52867768Y-106064417D02*
X52772530Y-106159656D01*
X52772530Y-106159656D02*
X52629673Y-106207275D01*
X52629673Y-106207275D02*
X52391578Y-106207275D01*
X48629673Y-107817219D02*
X48629673Y-106817219D01*
X48629673Y-106817219D02*
X48963006Y-107531504D01*
X48963006Y-107531504D02*
X49296339Y-106817219D01*
X49296339Y-106817219D02*
X49296339Y-107817219D01*
X49963006Y-106817219D02*
X50153482Y-106817219D01*
X50153482Y-106817219D02*
X50248720Y-106864838D01*
X50248720Y-106864838D02*
X50343958Y-106960076D01*
X50343958Y-106960076D02*
X50391577Y-107150552D01*
X50391577Y-107150552D02*
X50391577Y-107483885D01*
X50391577Y-107483885D02*
X50343958Y-107674361D01*
X50343958Y-107674361D02*
X50248720Y-107769600D01*
X50248720Y-107769600D02*
X50153482Y-107817219D01*
X50153482Y-107817219D02*
X49963006Y-107817219D01*
X49963006Y-107817219D02*
X49867768Y-107769600D01*
X49867768Y-107769600D02*
X49772530Y-107674361D01*
X49772530Y-107674361D02*
X49724911Y-107483885D01*
X49724911Y-107483885D02*
X49724911Y-107150552D01*
X49724911Y-107150552D02*
X49772530Y-106960076D01*
X49772530Y-106960076D02*
X49867768Y-106864838D01*
X49867768Y-106864838D02*
X49963006Y-106817219D01*
X50820149Y-107817219D02*
X50820149Y-106817219D01*
X50820149Y-106817219D02*
X51058244Y-106817219D01*
X51058244Y-106817219D02*
X51201101Y-106864838D01*
X51201101Y-106864838D02*
X51296339Y-106960076D01*
X51296339Y-106960076D02*
X51343958Y-107055314D01*
X51343958Y-107055314D02*
X51391577Y-107245790D01*
X51391577Y-107245790D02*
X51391577Y-107388647D01*
X51391577Y-107388647D02*
X51343958Y-107579123D01*
X51343958Y-107579123D02*
X51296339Y-107674361D01*
X51296339Y-107674361D02*
X51201101Y-107769600D01*
X51201101Y-107769600D02*
X51058244Y-107817219D01*
X51058244Y-107817219D02*
X50820149Y-107817219D01*
X51820149Y-106817219D02*
X51820149Y-107626742D01*
X51820149Y-107626742D02*
X51867768Y-107721980D01*
X51867768Y-107721980D02*
X51915387Y-107769600D01*
X51915387Y-107769600D02*
X52010625Y-107817219D01*
X52010625Y-107817219D02*
X52201101Y-107817219D01*
X52201101Y-107817219D02*
X52296339Y-107769600D01*
X52296339Y-107769600D02*
X52343958Y-107721980D01*
X52343958Y-107721980D02*
X52391577Y-107626742D01*
X52391577Y-107626742D02*
X52391577Y-106817219D01*
X53343958Y-107817219D02*
X52867768Y-107817219D01*
X52867768Y-107817219D02*
X52867768Y-106817219D01*
X53629673Y-107531504D02*
X54105863Y-107531504D01*
X53534435Y-107817219D02*
X53867768Y-106817219D01*
X53867768Y-106817219D02*
X54201101Y-107817219D01*
X55105863Y-107817219D02*
X54772530Y-107341028D01*
X54534435Y-107817219D02*
X54534435Y-106817219D01*
X54534435Y-106817219D02*
X54915387Y-106817219D01*
X54915387Y-106817219D02*
X55010625Y-106864838D01*
X55010625Y-106864838D02*
X55058244Y-106912457D01*
X55058244Y-106912457D02*
X55105863Y-107007695D01*
X55105863Y-107007695D02*
X55105863Y-107150552D01*
X55105863Y-107150552D02*
X55058244Y-107245790D01*
X55058244Y-107245790D02*
X55010625Y-107293409D01*
X55010625Y-107293409D02*
X54915387Y-107341028D01*
X54915387Y-107341028D02*
X54534435Y-107341028D01*
X49344006Y-46206409D02*
X49486863Y-46254028D01*
X49486863Y-46254028D02*
X49534482Y-46301647D01*
X49534482Y-46301647D02*
X49582101Y-46396885D01*
X49582101Y-46396885D02*
X49582101Y-46539742D01*
X49582101Y-46539742D02*
X49534482Y-46634980D01*
X49534482Y-46634980D02*
X49486863Y-46682600D01*
X49486863Y-46682600D02*
X49391625Y-46730219D01*
X49391625Y-46730219D02*
X49010673Y-46730219D01*
X49010673Y-46730219D02*
X49010673Y-45730219D01*
X49010673Y-45730219D02*
X49344006Y-45730219D01*
X49344006Y-45730219D02*
X49439244Y-45777838D01*
X49439244Y-45777838D02*
X49486863Y-45825457D01*
X49486863Y-45825457D02*
X49534482Y-45920695D01*
X49534482Y-45920695D02*
X49534482Y-46015933D01*
X49534482Y-46015933D02*
X49486863Y-46111171D01*
X49486863Y-46111171D02*
X49439244Y-46158790D01*
X49439244Y-46158790D02*
X49344006Y-46206409D01*
X49344006Y-46206409D02*
X49010673Y-46206409D01*
X50201149Y-45730219D02*
X50391625Y-45730219D01*
X50391625Y-45730219D02*
X50486863Y-45777838D01*
X50486863Y-45777838D02*
X50582101Y-45873076D01*
X50582101Y-45873076D02*
X50629720Y-46063552D01*
X50629720Y-46063552D02*
X50629720Y-46396885D01*
X50629720Y-46396885D02*
X50582101Y-46587361D01*
X50582101Y-46587361D02*
X50486863Y-46682600D01*
X50486863Y-46682600D02*
X50391625Y-46730219D01*
X50391625Y-46730219D02*
X50201149Y-46730219D01*
X50201149Y-46730219D02*
X50105911Y-46682600D01*
X50105911Y-46682600D02*
X50010673Y-46587361D01*
X50010673Y-46587361D02*
X49963054Y-46396885D01*
X49963054Y-46396885D02*
X49963054Y-46063552D01*
X49963054Y-46063552D02*
X50010673Y-45873076D01*
X50010673Y-45873076D02*
X50105911Y-45777838D01*
X50105911Y-45777838D02*
X50201149Y-45730219D01*
X51248768Y-45730219D02*
X51439244Y-45730219D01*
X51439244Y-45730219D02*
X51534482Y-45777838D01*
X51534482Y-45777838D02*
X51629720Y-45873076D01*
X51629720Y-45873076D02*
X51677339Y-46063552D01*
X51677339Y-46063552D02*
X51677339Y-46396885D01*
X51677339Y-46396885D02*
X51629720Y-46587361D01*
X51629720Y-46587361D02*
X51534482Y-46682600D01*
X51534482Y-46682600D02*
X51439244Y-46730219D01*
X51439244Y-46730219D02*
X51248768Y-46730219D01*
X51248768Y-46730219D02*
X51153530Y-46682600D01*
X51153530Y-46682600D02*
X51058292Y-46587361D01*
X51058292Y-46587361D02*
X51010673Y-46396885D01*
X51010673Y-46396885D02*
X51010673Y-46063552D01*
X51010673Y-46063552D02*
X51058292Y-45873076D01*
X51058292Y-45873076D02*
X51153530Y-45777838D01*
X51153530Y-45777838D02*
X51248768Y-45730219D01*
X51963054Y-45730219D02*
X52534482Y-45730219D01*
X52248768Y-46730219D02*
X52248768Y-45730219D01*
X51169673Y-61462219D02*
X51169673Y-60462219D01*
X51169673Y-60462219D02*
X51503006Y-61176504D01*
X51503006Y-61176504D02*
X51836339Y-60462219D01*
X51836339Y-60462219D02*
X51836339Y-61462219D01*
X52312530Y-61462219D02*
X52312530Y-60462219D01*
X52788720Y-61462219D02*
X52788720Y-60462219D01*
X52788720Y-60462219D02*
X53026815Y-60462219D01*
X53026815Y-60462219D02*
X53169672Y-60509838D01*
X53169672Y-60509838D02*
X53264910Y-60605076D01*
X53264910Y-60605076D02*
X53312529Y-60700314D01*
X53312529Y-60700314D02*
X53360148Y-60890790D01*
X53360148Y-60890790D02*
X53360148Y-61033647D01*
X53360148Y-61033647D02*
X53312529Y-61224123D01*
X53312529Y-61224123D02*
X53264910Y-61319361D01*
X53264910Y-61319361D02*
X53169672Y-61414600D01*
X53169672Y-61414600D02*
X53026815Y-61462219D01*
X53026815Y-61462219D02*
X52788720Y-61462219D01*
X53788720Y-61462219D02*
X53788720Y-60462219D01*
X51122054Y-63716504D02*
X51598244Y-63716504D01*
X51026816Y-64002219D02*
X51360149Y-63002219D01*
X51360149Y-63002219D02*
X51693482Y-64002219D01*
X52550625Y-64002219D02*
X51979197Y-64002219D01*
X52264911Y-64002219D02*
X52264911Y-63002219D01*
X52264911Y-63002219D02*
X52169673Y-63145076D01*
X52169673Y-63145076D02*
X52074435Y-63240314D01*
X52074435Y-63240314D02*
X51979197Y-63287933D01*
X51122054Y-66256504D02*
X51598244Y-66256504D01*
X51026816Y-66542219D02*
X51360149Y-65542219D01*
X51360149Y-65542219D02*
X51693482Y-66542219D01*
X51979197Y-65637457D02*
X52026816Y-65589838D01*
X52026816Y-65589838D02*
X52122054Y-65542219D01*
X52122054Y-65542219D02*
X52360149Y-65542219D01*
X52360149Y-65542219D02*
X52455387Y-65589838D01*
X52455387Y-65589838D02*
X52503006Y-65637457D01*
X52503006Y-65637457D02*
X52550625Y-65732695D01*
X52550625Y-65732695D02*
X52550625Y-65827933D01*
X52550625Y-65827933D02*
X52503006Y-65970790D01*
X52503006Y-65970790D02*
X51931578Y-66542219D01*
X51931578Y-66542219D02*
X52550625Y-66542219D01*
X55805101Y-46704819D02*
X55471768Y-46228628D01*
X55233673Y-46704819D02*
X55233673Y-45704819D01*
X55233673Y-45704819D02*
X55614625Y-45704819D01*
X55614625Y-45704819D02*
X55709863Y-45752438D01*
X55709863Y-45752438D02*
X55757482Y-45800057D01*
X55757482Y-45800057D02*
X55805101Y-45895295D01*
X55805101Y-45895295D02*
X55805101Y-46038152D01*
X55805101Y-46038152D02*
X55757482Y-46133390D01*
X55757482Y-46133390D02*
X55709863Y-46181009D01*
X55709863Y-46181009D02*
X55614625Y-46228628D01*
X55614625Y-46228628D02*
X55233673Y-46228628D01*
X56233673Y-46181009D02*
X56567006Y-46181009D01*
X56709863Y-46704819D02*
X56233673Y-46704819D01*
X56233673Y-46704819D02*
X56233673Y-45704819D01*
X56233673Y-45704819D02*
X56709863Y-45704819D01*
X57090816Y-46657200D02*
X57233673Y-46704819D01*
X57233673Y-46704819D02*
X57471768Y-46704819D01*
X57471768Y-46704819D02*
X57567006Y-46657200D01*
X57567006Y-46657200D02*
X57614625Y-46609580D01*
X57614625Y-46609580D02*
X57662244Y-46514342D01*
X57662244Y-46514342D02*
X57662244Y-46419104D01*
X57662244Y-46419104D02*
X57614625Y-46323866D01*
X57614625Y-46323866D02*
X57567006Y-46276247D01*
X57567006Y-46276247D02*
X57471768Y-46228628D01*
X57471768Y-46228628D02*
X57281292Y-46181009D01*
X57281292Y-46181009D02*
X57186054Y-46133390D01*
X57186054Y-46133390D02*
X57138435Y-46085771D01*
X57138435Y-46085771D02*
X57090816Y-45990533D01*
X57090816Y-45990533D02*
X57090816Y-45895295D01*
X57090816Y-45895295D02*
X57138435Y-45800057D01*
X57138435Y-45800057D02*
X57186054Y-45752438D01*
X57186054Y-45752438D02*
X57281292Y-45704819D01*
X57281292Y-45704819D02*
X57519387Y-45704819D01*
X57519387Y-45704819D02*
X57662244Y-45752438D01*
X58090816Y-46181009D02*
X58424149Y-46181009D01*
X58567006Y-46704819D02*
X58090816Y-46704819D01*
X58090816Y-46704819D02*
X58090816Y-45704819D01*
X58090816Y-45704819D02*
X58567006Y-45704819D01*
X58852721Y-45704819D02*
X59424149Y-45704819D01*
X59138435Y-46704819D02*
X59138435Y-45704819D01*
X70473673Y-61462219D02*
X70473673Y-60462219D01*
X70473673Y-60462219D02*
X70807006Y-61176504D01*
X70807006Y-61176504D02*
X71140339Y-60462219D01*
X71140339Y-60462219D02*
X71140339Y-61462219D01*
X71616530Y-61462219D02*
X71616530Y-60462219D01*
X72092720Y-61462219D02*
X72092720Y-60462219D01*
X72092720Y-60462219D02*
X72330815Y-60462219D01*
X72330815Y-60462219D02*
X72473672Y-60509838D01*
X72473672Y-60509838D02*
X72568910Y-60605076D01*
X72568910Y-60605076D02*
X72616529Y-60700314D01*
X72616529Y-60700314D02*
X72664148Y-60890790D01*
X72664148Y-60890790D02*
X72664148Y-61033647D01*
X72664148Y-61033647D02*
X72616529Y-61224123D01*
X72616529Y-61224123D02*
X72568910Y-61319361D01*
X72568910Y-61319361D02*
X72473672Y-61414600D01*
X72473672Y-61414600D02*
X72330815Y-61462219D01*
X72330815Y-61462219D02*
X72092720Y-61462219D01*
X73092720Y-61462219D02*
X73092720Y-60462219D01*
X74601101Y-93751980D02*
X74553482Y-93799600D01*
X74553482Y-93799600D02*
X74410625Y-93847219D01*
X74410625Y-93847219D02*
X74315387Y-93847219D01*
X74315387Y-93847219D02*
X74172530Y-93799600D01*
X74172530Y-93799600D02*
X74077292Y-93704361D01*
X74077292Y-93704361D02*
X74029673Y-93609123D01*
X74029673Y-93609123D02*
X73982054Y-93418647D01*
X73982054Y-93418647D02*
X73982054Y-93275790D01*
X73982054Y-93275790D02*
X74029673Y-93085314D01*
X74029673Y-93085314D02*
X74077292Y-92990076D01*
X74077292Y-92990076D02*
X74172530Y-92894838D01*
X74172530Y-92894838D02*
X74315387Y-92847219D01*
X74315387Y-92847219D02*
X74410625Y-92847219D01*
X74410625Y-92847219D02*
X74553482Y-92894838D01*
X74553482Y-92894838D02*
X74601101Y-92942457D01*
X74886816Y-92847219D02*
X75220149Y-93847219D01*
X75220149Y-93847219D02*
X75553482Y-92847219D01*
X75839197Y-92942457D02*
X75886816Y-92894838D01*
X75886816Y-92894838D02*
X75982054Y-92847219D01*
X75982054Y-92847219D02*
X76220149Y-92847219D01*
X76220149Y-92847219D02*
X76315387Y-92894838D01*
X76315387Y-92894838D02*
X76363006Y-92942457D01*
X76363006Y-92942457D02*
X76410625Y-93037695D01*
X76410625Y-93037695D02*
X76410625Y-93132933D01*
X76410625Y-93132933D02*
X76363006Y-93275790D01*
X76363006Y-93275790D02*
X75791578Y-93847219D01*
X75791578Y-93847219D02*
X76410625Y-93847219D01*
X47982429Y-58922219D02*
X47982429Y-57922219D01*
X48458619Y-58922219D02*
X48458619Y-57922219D01*
X48458619Y-57922219D02*
X49030047Y-58922219D01*
X49030047Y-58922219D02*
X49030047Y-57922219D01*
X49506238Y-58922219D02*
X49506238Y-57922219D01*
X49506238Y-57922219D02*
X49887190Y-57922219D01*
X49887190Y-57922219D02*
X49982428Y-57969838D01*
X49982428Y-57969838D02*
X50030047Y-58017457D01*
X50030047Y-58017457D02*
X50077666Y-58112695D01*
X50077666Y-58112695D02*
X50077666Y-58255552D01*
X50077666Y-58255552D02*
X50030047Y-58350790D01*
X50030047Y-58350790D02*
X49982428Y-58398409D01*
X49982428Y-58398409D02*
X49887190Y-58446028D01*
X49887190Y-58446028D02*
X49506238Y-58446028D01*
X50506238Y-57922219D02*
X50506238Y-58731742D01*
X50506238Y-58731742D02*
X50553857Y-58826980D01*
X50553857Y-58826980D02*
X50601476Y-58874600D01*
X50601476Y-58874600D02*
X50696714Y-58922219D01*
X50696714Y-58922219D02*
X50887190Y-58922219D01*
X50887190Y-58922219D02*
X50982428Y-58874600D01*
X50982428Y-58874600D02*
X51030047Y-58826980D01*
X51030047Y-58826980D02*
X51077666Y-58731742D01*
X51077666Y-58731742D02*
X51077666Y-57922219D01*
X51411000Y-57922219D02*
X51982428Y-57922219D01*
X51696714Y-58922219D02*
X51696714Y-57922219D01*
X49625476Y-102737219D02*
X49625476Y-101737219D01*
X49625476Y-101737219D02*
X49958809Y-102451504D01*
X49958809Y-102451504D02*
X50292142Y-101737219D01*
X50292142Y-101737219D02*
X50292142Y-102737219D01*
X50958809Y-101737219D02*
X51149285Y-101737219D01*
X51149285Y-101737219D02*
X51244523Y-101784838D01*
X51244523Y-101784838D02*
X51339761Y-101880076D01*
X51339761Y-101880076D02*
X51387380Y-102070552D01*
X51387380Y-102070552D02*
X51387380Y-102403885D01*
X51387380Y-102403885D02*
X51339761Y-102594361D01*
X51339761Y-102594361D02*
X51244523Y-102689600D01*
X51244523Y-102689600D02*
X51149285Y-102737219D01*
X51149285Y-102737219D02*
X50958809Y-102737219D01*
X50958809Y-102737219D02*
X50863571Y-102689600D01*
X50863571Y-102689600D02*
X50768333Y-102594361D01*
X50768333Y-102594361D02*
X50720714Y-102403885D01*
X50720714Y-102403885D02*
X50720714Y-102070552D01*
X50720714Y-102070552D02*
X50768333Y-101880076D01*
X50768333Y-101880076D02*
X50863571Y-101784838D01*
X50863571Y-101784838D02*
X50958809Y-101737219D01*
X51815952Y-102737219D02*
X51815952Y-101737219D01*
X51815952Y-101737219D02*
X52054047Y-101737219D01*
X52054047Y-101737219D02*
X52196904Y-101784838D01*
X52196904Y-101784838D02*
X52292142Y-101880076D01*
X52292142Y-101880076D02*
X52339761Y-101975314D01*
X52339761Y-101975314D02*
X52387380Y-102165790D01*
X52387380Y-102165790D02*
X52387380Y-102308647D01*
X52387380Y-102308647D02*
X52339761Y-102499123D01*
X52339761Y-102499123D02*
X52292142Y-102594361D01*
X52292142Y-102594361D02*
X52196904Y-102689600D01*
X52196904Y-102689600D02*
X52054047Y-102737219D01*
X52054047Y-102737219D02*
X51815952Y-102737219D01*
X52815952Y-102213409D02*
X53149285Y-102213409D01*
X53292142Y-102737219D02*
X52815952Y-102737219D01*
X52815952Y-102737219D02*
X52815952Y-101737219D01*
X52815952Y-101737219D02*
X53292142Y-101737219D01*
X71548714Y-66256504D02*
X72024904Y-66256504D01*
X71453476Y-66542219D02*
X71786809Y-65542219D01*
X71786809Y-65542219D02*
X72120142Y-66542219D01*
X72405857Y-65637457D02*
X72453476Y-65589838D01*
X72453476Y-65589838D02*
X72548714Y-65542219D01*
X72548714Y-65542219D02*
X72786809Y-65542219D01*
X72786809Y-65542219D02*
X72882047Y-65589838D01*
X72882047Y-65589838D02*
X72929666Y-65637457D01*
X72929666Y-65637457D02*
X72977285Y-65732695D01*
X72977285Y-65732695D02*
X72977285Y-65827933D01*
X72977285Y-65827933D02*
X72929666Y-65970790D01*
X72929666Y-65970790D02*
X72358238Y-66542219D01*
X72358238Y-66542219D02*
X72977285Y-66542219D01*
X71675714Y-63716504D02*
X72151904Y-63716504D01*
X71580476Y-64002219D02*
X71913809Y-63002219D01*
X71913809Y-63002219D02*
X72247142Y-64002219D01*
X73104285Y-64002219D02*
X72532857Y-64002219D01*
X72818571Y-64002219D02*
X72818571Y-63002219D01*
X72818571Y-63002219D02*
X72723333Y-63145076D01*
X72723333Y-63145076D02*
X72628095Y-63240314D01*
X72628095Y-63240314D02*
X72532857Y-63287933D01*
X72175714Y-68129838D02*
X72080476Y-68082219D01*
X72080476Y-68082219D02*
X71937619Y-68082219D01*
X71937619Y-68082219D02*
X71794762Y-68129838D01*
X71794762Y-68129838D02*
X71699524Y-68225076D01*
X71699524Y-68225076D02*
X71651905Y-68320314D01*
X71651905Y-68320314D02*
X71604286Y-68510790D01*
X71604286Y-68510790D02*
X71604286Y-68653647D01*
X71604286Y-68653647D02*
X71651905Y-68844123D01*
X71651905Y-68844123D02*
X71699524Y-68939361D01*
X71699524Y-68939361D02*
X71794762Y-69034600D01*
X71794762Y-69034600D02*
X71937619Y-69082219D01*
X71937619Y-69082219D02*
X72032857Y-69082219D01*
X72032857Y-69082219D02*
X72175714Y-69034600D01*
X72175714Y-69034600D02*
X72223333Y-68986980D01*
X72223333Y-68986980D02*
X72223333Y-68653647D01*
X72223333Y-68653647D02*
X72032857Y-68653647D01*
X73175714Y-69082219D02*
X72604286Y-69082219D01*
X72890000Y-69082219D02*
X72890000Y-68082219D01*
X72890000Y-68082219D02*
X72794762Y-68225076D01*
X72794762Y-68225076D02*
X72699524Y-68320314D01*
X72699524Y-68320314D02*
X72604286Y-68367933D01*
X72175714Y-70796838D02*
X72080476Y-70749219D01*
X72080476Y-70749219D02*
X71937619Y-70749219D01*
X71937619Y-70749219D02*
X71794762Y-70796838D01*
X71794762Y-70796838D02*
X71699524Y-70892076D01*
X71699524Y-70892076D02*
X71651905Y-70987314D01*
X71651905Y-70987314D02*
X71604286Y-71177790D01*
X71604286Y-71177790D02*
X71604286Y-71320647D01*
X71604286Y-71320647D02*
X71651905Y-71511123D01*
X71651905Y-71511123D02*
X71699524Y-71606361D01*
X71699524Y-71606361D02*
X71794762Y-71701600D01*
X71794762Y-71701600D02*
X71937619Y-71749219D01*
X71937619Y-71749219D02*
X72032857Y-71749219D01*
X72032857Y-71749219D02*
X72175714Y-71701600D01*
X72175714Y-71701600D02*
X72223333Y-71653980D01*
X72223333Y-71653980D02*
X72223333Y-71320647D01*
X72223333Y-71320647D02*
X72032857Y-71320647D01*
X72604286Y-70844457D02*
X72651905Y-70796838D01*
X72651905Y-70796838D02*
X72747143Y-70749219D01*
X72747143Y-70749219D02*
X72985238Y-70749219D01*
X72985238Y-70749219D02*
X73080476Y-70796838D01*
X73080476Y-70796838D02*
X73128095Y-70844457D01*
X73128095Y-70844457D02*
X73175714Y-70939695D01*
X73175714Y-70939695D02*
X73175714Y-71034933D01*
X73175714Y-71034933D02*
X73128095Y-71177790D01*
X73128095Y-71177790D02*
X72556667Y-71749219D01*
X72556667Y-71749219D02*
X73175714Y-71749219D01*
X72814469Y-106207275D02*
X72243041Y-106207275D01*
X72528755Y-106207275D02*
X72528755Y-105207275D01*
X72528755Y-105207275D02*
X72433517Y-105350132D01*
X72433517Y-105350132D02*
X72338279Y-105445370D01*
X72338279Y-105445370D02*
X72243041Y-105492989D01*
X73671612Y-105207275D02*
X73481136Y-105207275D01*
X73481136Y-105207275D02*
X73385898Y-105254894D01*
X73385898Y-105254894D02*
X73338279Y-105302513D01*
X73338279Y-105302513D02*
X73243041Y-105445370D01*
X73243041Y-105445370D02*
X73195422Y-105635846D01*
X73195422Y-105635846D02*
X73195422Y-106016798D01*
X73195422Y-106016798D02*
X73243041Y-106112036D01*
X73243041Y-106112036D02*
X73290660Y-106159656D01*
X73290660Y-106159656D02*
X73385898Y-106207275D01*
X73385898Y-106207275D02*
X73576374Y-106207275D01*
X73576374Y-106207275D02*
X73671612Y-106159656D01*
X73671612Y-106159656D02*
X73719231Y-106112036D01*
X73719231Y-106112036D02*
X73766850Y-106016798D01*
X73766850Y-106016798D02*
X73766850Y-105778703D01*
X73766850Y-105778703D02*
X73719231Y-105683465D01*
X73719231Y-105683465D02*
X73671612Y-105635846D01*
X73671612Y-105635846D02*
X73576374Y-105588227D01*
X73576374Y-105588227D02*
X73385898Y-105588227D01*
X73385898Y-105588227D02*
X73290660Y-105635846D01*
X73290660Y-105635846D02*
X73243041Y-105683465D01*
X73243041Y-105683465D02*
X73195422Y-105778703D01*
X74528755Y-105683465D02*
X74671612Y-105731084D01*
X74671612Y-105731084D02*
X74719231Y-105778703D01*
X74719231Y-105778703D02*
X74766850Y-105873941D01*
X74766850Y-105873941D02*
X74766850Y-106016798D01*
X74766850Y-106016798D02*
X74719231Y-106112036D01*
X74719231Y-106112036D02*
X74671612Y-106159656D01*
X74671612Y-106159656D02*
X74576374Y-106207275D01*
X74576374Y-106207275D02*
X74195422Y-106207275D01*
X74195422Y-106207275D02*
X74195422Y-105207275D01*
X74195422Y-105207275D02*
X74528755Y-105207275D01*
X74528755Y-105207275D02*
X74623993Y-105254894D01*
X74623993Y-105254894D02*
X74671612Y-105302513D01*
X74671612Y-105302513D02*
X74719231Y-105397751D01*
X74719231Y-105397751D02*
X74719231Y-105492989D01*
X74719231Y-105492989D02*
X74671612Y-105588227D01*
X74671612Y-105588227D02*
X74623993Y-105635846D01*
X74623993Y-105635846D02*
X74528755Y-105683465D01*
X74528755Y-105683465D02*
X74195422Y-105683465D01*
X75195422Y-106207275D02*
X75195422Y-105207275D01*
X75528755Y-105207275D02*
X76100183Y-105207275D01*
X75814469Y-106207275D02*
X75814469Y-105207275D01*
X73147803Y-107817219D02*
X72576375Y-107817219D01*
X72862089Y-107817219D02*
X72862089Y-106817219D01*
X72862089Y-106817219D02*
X72766851Y-106960076D01*
X72766851Y-106960076D02*
X72671613Y-107055314D01*
X72671613Y-107055314D02*
X72576375Y-107102933D01*
X73576375Y-107721980D02*
X73623994Y-107769600D01*
X73623994Y-107769600D02*
X73576375Y-107817219D01*
X73576375Y-107817219D02*
X73528756Y-107769600D01*
X73528756Y-107769600D02*
X73576375Y-107721980D01*
X73576375Y-107721980D02*
X73576375Y-107817219D01*
X74243041Y-106817219D02*
X74338279Y-106817219D01*
X74338279Y-106817219D02*
X74433517Y-106864838D01*
X74433517Y-106864838D02*
X74481136Y-106912457D01*
X74481136Y-106912457D02*
X74528755Y-107007695D01*
X74528755Y-107007695D02*
X74576374Y-107198171D01*
X74576374Y-107198171D02*
X74576374Y-107436266D01*
X74576374Y-107436266D02*
X74528755Y-107626742D01*
X74528755Y-107626742D02*
X74481136Y-107721980D01*
X74481136Y-107721980D02*
X74433517Y-107769600D01*
X74433517Y-107769600D02*
X74338279Y-107817219D01*
X74338279Y-107817219D02*
X74243041Y-107817219D01*
X74243041Y-107817219D02*
X74147803Y-107769600D01*
X74147803Y-107769600D02*
X74100184Y-107721980D01*
X74100184Y-107721980D02*
X74052565Y-107626742D01*
X74052565Y-107626742D02*
X74004946Y-107436266D01*
X74004946Y-107436266D02*
X74004946Y-107198171D01*
X74004946Y-107198171D02*
X74052565Y-107007695D01*
X74052565Y-107007695D02*
X74100184Y-106912457D01*
X74100184Y-106912457D02*
X74147803Y-106864838D01*
X74147803Y-106864838D02*
X74243041Y-106817219D01*
X75004946Y-107721980D02*
X75052565Y-107769600D01*
X75052565Y-107769600D02*
X75004946Y-107817219D01*
X75004946Y-107817219D02*
X74957327Y-107769600D01*
X74957327Y-107769600D02*
X75004946Y-107721980D01*
X75004946Y-107721980D02*
X75004946Y-107817219D01*
X75671612Y-106817219D02*
X75766850Y-106817219D01*
X75766850Y-106817219D02*
X75862088Y-106864838D01*
X75862088Y-106864838D02*
X75909707Y-106912457D01*
X75909707Y-106912457D02*
X75957326Y-107007695D01*
X75957326Y-107007695D02*
X76004945Y-107198171D01*
X76004945Y-107198171D02*
X76004945Y-107436266D01*
X76004945Y-107436266D02*
X75957326Y-107626742D01*
X75957326Y-107626742D02*
X75909707Y-107721980D01*
X75909707Y-107721980D02*
X75862088Y-107769600D01*
X75862088Y-107769600D02*
X75766850Y-107817219D01*
X75766850Y-107817219D02*
X75671612Y-107817219D01*
X75671612Y-107817219D02*
X75576374Y-107769600D01*
X75576374Y-107769600D02*
X75528755Y-107721980D01*
X75528755Y-107721980D02*
X75481136Y-107626742D01*
X75481136Y-107626742D02*
X75433517Y-107436266D01*
X75433517Y-107436266D02*
X75433517Y-107198171D01*
X75433517Y-107198171D02*
X75481136Y-107007695D01*
X75481136Y-107007695D02*
X75528755Y-106912457D01*
X75528755Y-106912457D02*
X75576374Y-106864838D01*
X75576374Y-106864838D02*
X75671612Y-106817219D01*
X71465326Y-57922219D02*
X71655802Y-57922219D01*
X71655802Y-57922219D02*
X71751040Y-57969838D01*
X71751040Y-57969838D02*
X71846278Y-58065076D01*
X71846278Y-58065076D02*
X71893897Y-58255552D01*
X71893897Y-58255552D02*
X71893897Y-58588885D01*
X71893897Y-58588885D02*
X71846278Y-58779361D01*
X71846278Y-58779361D02*
X71751040Y-58874600D01*
X71751040Y-58874600D02*
X71655802Y-58922219D01*
X71655802Y-58922219D02*
X71465326Y-58922219D01*
X71465326Y-58922219D02*
X71370088Y-58874600D01*
X71370088Y-58874600D02*
X71274850Y-58779361D01*
X71274850Y-58779361D02*
X71227231Y-58588885D01*
X71227231Y-58588885D02*
X71227231Y-58255552D01*
X71227231Y-58255552D02*
X71274850Y-58065076D01*
X71274850Y-58065076D02*
X71370088Y-57969838D01*
X71370088Y-57969838D02*
X71465326Y-57922219D01*
X72322469Y-57922219D02*
X72322469Y-58731742D01*
X72322469Y-58731742D02*
X72370088Y-58826980D01*
X72370088Y-58826980D02*
X72417707Y-58874600D01*
X72417707Y-58874600D02*
X72512945Y-58922219D01*
X72512945Y-58922219D02*
X72703421Y-58922219D01*
X72703421Y-58922219D02*
X72798659Y-58874600D01*
X72798659Y-58874600D02*
X72846278Y-58826980D01*
X72846278Y-58826980D02*
X72893897Y-58731742D01*
X72893897Y-58731742D02*
X72893897Y-57922219D01*
X73227231Y-57922219D02*
X73798659Y-57922219D01*
X73512945Y-58922219D02*
X73512945Y-57922219D01*
X74131993Y-58922219D02*
X74131993Y-57922219D01*
X74131993Y-57922219D02*
X74512945Y-57922219D01*
X74512945Y-57922219D02*
X74608183Y-57969838D01*
X74608183Y-57969838D02*
X74655802Y-58017457D01*
X74655802Y-58017457D02*
X74703421Y-58112695D01*
X74703421Y-58112695D02*
X74703421Y-58255552D01*
X74703421Y-58255552D02*
X74655802Y-58350790D01*
X74655802Y-58350790D02*
X74608183Y-58398409D01*
X74608183Y-58398409D02*
X74512945Y-58446028D01*
X74512945Y-58446028D02*
X74131993Y-58446028D01*
X75131993Y-57922219D02*
X75131993Y-58731742D01*
X75131993Y-58731742D02*
X75179612Y-58826980D01*
X75179612Y-58826980D02*
X75227231Y-58874600D01*
X75227231Y-58874600D02*
X75322469Y-58922219D01*
X75322469Y-58922219D02*
X75512945Y-58922219D01*
X75512945Y-58922219D02*
X75608183Y-58874600D01*
X75608183Y-58874600D02*
X75655802Y-58826980D01*
X75655802Y-58826980D02*
X75703421Y-58731742D01*
X75703421Y-58731742D02*
X75703421Y-57922219D01*
X76036755Y-57922219D02*
X76608183Y-57922219D01*
X76322469Y-58922219D02*
X76322469Y-57922219D01*
X56179019Y-79843526D02*
X55179019Y-79843526D01*
X55179019Y-79843526D02*
X55179019Y-79462574D01*
X55179019Y-79462574D02*
X55226638Y-79367336D01*
X55226638Y-79367336D02*
X55274257Y-79319717D01*
X55274257Y-79319717D02*
X55369495Y-79272098D01*
X55369495Y-79272098D02*
X55512352Y-79272098D01*
X55512352Y-79272098D02*
X55607590Y-79319717D01*
X55607590Y-79319717D02*
X55655209Y-79367336D01*
X55655209Y-79367336D02*
X55702828Y-79462574D01*
X55702828Y-79462574D02*
X55702828Y-79843526D01*
X56131400Y-78891145D02*
X56179019Y-78748288D01*
X56179019Y-78748288D02*
X56179019Y-78510193D01*
X56179019Y-78510193D02*
X56131400Y-78414955D01*
X56131400Y-78414955D02*
X56083780Y-78367336D01*
X56083780Y-78367336D02*
X55988542Y-78319717D01*
X55988542Y-78319717D02*
X55893304Y-78319717D01*
X55893304Y-78319717D02*
X55798066Y-78367336D01*
X55798066Y-78367336D02*
X55750447Y-78414955D01*
X55750447Y-78414955D02*
X55702828Y-78510193D01*
X55702828Y-78510193D02*
X55655209Y-78700669D01*
X55655209Y-78700669D02*
X55607590Y-78795907D01*
X55607590Y-78795907D02*
X55559971Y-78843526D01*
X55559971Y-78843526D02*
X55464733Y-78891145D01*
X55464733Y-78891145D02*
X55369495Y-78891145D01*
X55369495Y-78891145D02*
X55274257Y-78843526D01*
X55274257Y-78843526D02*
X55226638Y-78795907D01*
X55226638Y-78795907D02*
X55179019Y-78700669D01*
X55179019Y-78700669D02*
X55179019Y-78462574D01*
X55179019Y-78462574D02*
X55226638Y-78319717D01*
X56179019Y-77319717D02*
X55702828Y-77653050D01*
X56179019Y-77891145D02*
X55179019Y-77891145D01*
X55179019Y-77891145D02*
X55179019Y-77510193D01*
X55179019Y-77510193D02*
X55226638Y-77414955D01*
X55226638Y-77414955D02*
X55274257Y-77367336D01*
X55274257Y-77367336D02*
X55369495Y-77319717D01*
X55369495Y-77319717D02*
X55512352Y-77319717D01*
X55512352Y-77319717D02*
X55607590Y-77367336D01*
X55607590Y-77367336D02*
X55655209Y-77414955D01*
X55655209Y-77414955D02*
X55702828Y-77510193D01*
X55702828Y-77510193D02*
X55702828Y-77891145D01*
X55893304Y-76938764D02*
X55893304Y-76462574D01*
X56179019Y-77034002D02*
X55179019Y-76700669D01*
X55179019Y-76700669D02*
X56179019Y-76367336D01*
X56179019Y-76034002D02*
X55179019Y-76034002D01*
X55179019Y-76034002D02*
X55893304Y-75700669D01*
X55893304Y-75700669D02*
X55179019Y-75367336D01*
X55179019Y-75367336D02*
X56179019Y-75367336D01*
D12*
X58340952Y-101334438D02*
X57198095Y-101334438D01*
X57769523Y-101334438D02*
X57769523Y-99334438D01*
X57769523Y-99334438D02*
X57579047Y-99620152D01*
X57579047Y-99620152D02*
X57388571Y-99810628D01*
X57388571Y-99810628D02*
X57198095Y-99905866D01*
X60055238Y-99334438D02*
X59674285Y-99334438D01*
X59674285Y-99334438D02*
X59483809Y-99429676D01*
X59483809Y-99429676D02*
X59388571Y-99524914D01*
X59388571Y-99524914D02*
X59198095Y-99810628D01*
X59198095Y-99810628D02*
X59102857Y-100191580D01*
X59102857Y-100191580D02*
X59102857Y-100953485D01*
X59102857Y-100953485D02*
X59198095Y-101143961D01*
X59198095Y-101143961D02*
X59293333Y-101239200D01*
X59293333Y-101239200D02*
X59483809Y-101334438D01*
X59483809Y-101334438D02*
X59864762Y-101334438D01*
X59864762Y-101334438D02*
X60055238Y-101239200D01*
X60055238Y-101239200D02*
X60150476Y-101143961D01*
X60150476Y-101143961D02*
X60245714Y-100953485D01*
X60245714Y-100953485D02*
X60245714Y-100477295D01*
X60245714Y-100477295D02*
X60150476Y-100286819D01*
X60150476Y-100286819D02*
X60055238Y-100191580D01*
X60055238Y-100191580D02*
X59864762Y-100096342D01*
X59864762Y-100096342D02*
X59483809Y-100096342D01*
X59483809Y-100096342D02*
X59293333Y-100191580D01*
X59293333Y-100191580D02*
X59198095Y-100286819D01*
X59198095Y-100286819D02*
X59102857Y-100477295D01*
X61769524Y-100286819D02*
X62055238Y-100382057D01*
X62055238Y-100382057D02*
X62150476Y-100477295D01*
X62150476Y-100477295D02*
X62245714Y-100667771D01*
X62245714Y-100667771D02*
X62245714Y-100953485D01*
X62245714Y-100953485D02*
X62150476Y-101143961D01*
X62150476Y-101143961D02*
X62055238Y-101239200D01*
X62055238Y-101239200D02*
X61864762Y-101334438D01*
X61864762Y-101334438D02*
X61102857Y-101334438D01*
X61102857Y-101334438D02*
X61102857Y-99334438D01*
X61102857Y-99334438D02*
X61769524Y-99334438D01*
X61769524Y-99334438D02*
X61960000Y-99429676D01*
X61960000Y-99429676D02*
X62055238Y-99524914D01*
X62055238Y-99524914D02*
X62150476Y-99715390D01*
X62150476Y-99715390D02*
X62150476Y-99905866D01*
X62150476Y-99905866D02*
X62055238Y-100096342D01*
X62055238Y-100096342D02*
X61960000Y-100191580D01*
X61960000Y-100191580D02*
X61769524Y-100286819D01*
X61769524Y-100286819D02*
X61102857Y-100286819D01*
X63102857Y-101334438D02*
X63102857Y-99334438D01*
X63769524Y-99334438D02*
X64912381Y-99334438D01*
X64340952Y-101334438D02*
X64340952Y-99334438D01*
D13*
X48918667Y-97645335D02*
X48652000Y-97264382D01*
X48461524Y-97645335D02*
X48461524Y-96845335D01*
X48461524Y-96845335D02*
X48766286Y-96845335D01*
X48766286Y-96845335D02*
X48842476Y-96883430D01*
X48842476Y-96883430D02*
X48880571Y-96921525D01*
X48880571Y-96921525D02*
X48918667Y-96997716D01*
X48918667Y-96997716D02*
X48918667Y-97112001D01*
X48918667Y-97112001D02*
X48880571Y-97188192D01*
X48880571Y-97188192D02*
X48842476Y-97226287D01*
X48842476Y-97226287D02*
X48766286Y-97264382D01*
X48766286Y-97264382D02*
X48461524Y-97264382D01*
X49299619Y-97645335D02*
X49452000Y-97645335D01*
X49452000Y-97645335D02*
X49528190Y-97607240D01*
X49528190Y-97607240D02*
X49566286Y-97569144D01*
X49566286Y-97569144D02*
X49642476Y-97454859D01*
X49642476Y-97454859D02*
X49680571Y-97302478D01*
X49680571Y-97302478D02*
X49680571Y-96997716D01*
X49680571Y-96997716D02*
X49642476Y-96921525D01*
X49642476Y-96921525D02*
X49604381Y-96883430D01*
X49604381Y-96883430D02*
X49528190Y-96845335D01*
X49528190Y-96845335D02*
X49375809Y-96845335D01*
X49375809Y-96845335D02*
X49299619Y-96883430D01*
X49299619Y-96883430D02*
X49261524Y-96921525D01*
X49261524Y-96921525D02*
X49223428Y-96997716D01*
X49223428Y-96997716D02*
X49223428Y-97188192D01*
X49223428Y-97188192D02*
X49261524Y-97264382D01*
X49261524Y-97264382D02*
X49299619Y-97302478D01*
X49299619Y-97302478D02*
X49375809Y-97340573D01*
X49375809Y-97340573D02*
X49528190Y-97340573D01*
X49528190Y-97340573D02*
X49604381Y-97302478D01*
X49604381Y-97302478D02*
X49642476Y-97264382D01*
X49642476Y-97264382D02*
X49680571Y-97188192D01*
X48254024Y-95975335D02*
X48254024Y-95175335D01*
X48254024Y-95175335D02*
X48444500Y-95175335D01*
X48444500Y-95175335D02*
X48558786Y-95213430D01*
X48558786Y-95213430D02*
X48634976Y-95289620D01*
X48634976Y-95289620D02*
X48673071Y-95365811D01*
X48673071Y-95365811D02*
X48711167Y-95518192D01*
X48711167Y-95518192D02*
X48711167Y-95632478D01*
X48711167Y-95632478D02*
X48673071Y-95784859D01*
X48673071Y-95784859D02*
X48634976Y-95861049D01*
X48634976Y-95861049D02*
X48558786Y-95937240D01*
X48558786Y-95937240D02*
X48444500Y-95975335D01*
X48444500Y-95975335D02*
X48254024Y-95975335D01*
X49473071Y-95975335D02*
X49015928Y-95975335D01*
X49244500Y-95975335D02*
X49244500Y-95175335D01*
X49244500Y-95175335D02*
X49168309Y-95289620D01*
X49168309Y-95289620D02*
X49092119Y-95365811D01*
X49092119Y-95365811D02*
X49015928Y-95403906D01*
X57687714Y-60516335D02*
X57421047Y-60135382D01*
X57230571Y-60516335D02*
X57230571Y-59716335D01*
X57230571Y-59716335D02*
X57535333Y-59716335D01*
X57535333Y-59716335D02*
X57611523Y-59754430D01*
X57611523Y-59754430D02*
X57649618Y-59792525D01*
X57649618Y-59792525D02*
X57687714Y-59868716D01*
X57687714Y-59868716D02*
X57687714Y-59983001D01*
X57687714Y-59983001D02*
X57649618Y-60059192D01*
X57649618Y-60059192D02*
X57611523Y-60097287D01*
X57611523Y-60097287D02*
X57535333Y-60135382D01*
X57535333Y-60135382D02*
X57230571Y-60135382D01*
X58449618Y-60516335D02*
X57992475Y-60516335D01*
X58221047Y-60516335D02*
X58221047Y-59716335D01*
X58221047Y-59716335D02*
X58144856Y-59830620D01*
X58144856Y-59830620D02*
X58068666Y-59906811D01*
X58068666Y-59906811D02*
X57992475Y-59944906D01*
X58906761Y-60059192D02*
X58830571Y-60021097D01*
X58830571Y-60021097D02*
X58792476Y-59983001D01*
X58792476Y-59983001D02*
X58754380Y-59906811D01*
X58754380Y-59906811D02*
X58754380Y-59868716D01*
X58754380Y-59868716D02*
X58792476Y-59792525D01*
X58792476Y-59792525D02*
X58830571Y-59754430D01*
X58830571Y-59754430D02*
X58906761Y-59716335D01*
X58906761Y-59716335D02*
X59059142Y-59716335D01*
X59059142Y-59716335D02*
X59135333Y-59754430D01*
X59135333Y-59754430D02*
X59173428Y-59792525D01*
X59173428Y-59792525D02*
X59211523Y-59868716D01*
X59211523Y-59868716D02*
X59211523Y-59906811D01*
X59211523Y-59906811D02*
X59173428Y-59983001D01*
X59173428Y-59983001D02*
X59135333Y-60021097D01*
X59135333Y-60021097D02*
X59059142Y-60059192D01*
X59059142Y-60059192D02*
X58906761Y-60059192D01*
X58906761Y-60059192D02*
X58830571Y-60097287D01*
X58830571Y-60097287D02*
X58792476Y-60135382D01*
X58792476Y-60135382D02*
X58754380Y-60211573D01*
X58754380Y-60211573D02*
X58754380Y-60363954D01*
X58754380Y-60363954D02*
X58792476Y-60440144D01*
X58792476Y-60440144D02*
X58830571Y-60478240D01*
X58830571Y-60478240D02*
X58906761Y-60516335D01*
X58906761Y-60516335D02*
X59059142Y-60516335D01*
X59059142Y-60516335D02*
X59135333Y-60478240D01*
X59135333Y-60478240D02*
X59173428Y-60440144D01*
X59173428Y-60440144D02*
X59211523Y-60363954D01*
X59211523Y-60363954D02*
X59211523Y-60211573D01*
X59211523Y-60211573D02*
X59173428Y-60135382D01*
X59173428Y-60135382D02*
X59135333Y-60097287D01*
X59135333Y-60097287D02*
X59059142Y-60059192D01*
X66966666Y-59787144D02*
X66928570Y-59825240D01*
X66928570Y-59825240D02*
X66814285Y-59863335D01*
X66814285Y-59863335D02*
X66738094Y-59863335D01*
X66738094Y-59863335D02*
X66623808Y-59825240D01*
X66623808Y-59825240D02*
X66547618Y-59749049D01*
X66547618Y-59749049D02*
X66509523Y-59672859D01*
X66509523Y-59672859D02*
X66471427Y-59520478D01*
X66471427Y-59520478D02*
X66471427Y-59406192D01*
X66471427Y-59406192D02*
X66509523Y-59253811D01*
X66509523Y-59253811D02*
X66547618Y-59177620D01*
X66547618Y-59177620D02*
X66623808Y-59101430D01*
X66623808Y-59101430D02*
X66738094Y-59063335D01*
X66738094Y-59063335D02*
X66814285Y-59063335D01*
X66814285Y-59063335D02*
X66928570Y-59101430D01*
X66928570Y-59101430D02*
X66966666Y-59139525D01*
X67233332Y-59063335D02*
X67766666Y-59063335D01*
X67766666Y-59063335D02*
X67423808Y-59863335D01*
X54368332Y-103620240D02*
X54482618Y-103658335D01*
X54482618Y-103658335D02*
X54673094Y-103658335D01*
X54673094Y-103658335D02*
X54749285Y-103620240D01*
X54749285Y-103620240D02*
X54787380Y-103582144D01*
X54787380Y-103582144D02*
X54825475Y-103505954D01*
X54825475Y-103505954D02*
X54825475Y-103429763D01*
X54825475Y-103429763D02*
X54787380Y-103353573D01*
X54787380Y-103353573D02*
X54749285Y-103315478D01*
X54749285Y-103315478D02*
X54673094Y-103277382D01*
X54673094Y-103277382D02*
X54520713Y-103239287D01*
X54520713Y-103239287D02*
X54444523Y-103201192D01*
X54444523Y-103201192D02*
X54406428Y-103163097D01*
X54406428Y-103163097D02*
X54368332Y-103086906D01*
X54368332Y-103086906D02*
X54368332Y-103010716D01*
X54368332Y-103010716D02*
X54406428Y-102934525D01*
X54406428Y-102934525D02*
X54444523Y-102896430D01*
X54444523Y-102896430D02*
X54520713Y-102858335D01*
X54520713Y-102858335D02*
X54711190Y-102858335D01*
X54711190Y-102858335D02*
X54825475Y-102896430D01*
X55092142Y-102858335D02*
X55282618Y-103658335D01*
X55282618Y-103658335D02*
X55434999Y-103086906D01*
X55434999Y-103086906D02*
X55587380Y-103658335D01*
X55587380Y-103658335D02*
X55777857Y-102858335D01*
X56044523Y-102934525D02*
X56082619Y-102896430D01*
X56082619Y-102896430D02*
X56158809Y-102858335D01*
X56158809Y-102858335D02*
X56349285Y-102858335D01*
X56349285Y-102858335D02*
X56425476Y-102896430D01*
X56425476Y-102896430D02*
X56463571Y-102934525D01*
X56463571Y-102934525D02*
X56501666Y-103010716D01*
X56501666Y-103010716D02*
X56501666Y-103086906D01*
X56501666Y-103086906D02*
X56463571Y-103201192D01*
X56463571Y-103201192D02*
X56006428Y-103658335D01*
X56006428Y-103658335D02*
X56501666Y-103658335D01*
X53479332Y-48667240D02*
X53593618Y-48705335D01*
X53593618Y-48705335D02*
X53784094Y-48705335D01*
X53784094Y-48705335D02*
X53860285Y-48667240D01*
X53860285Y-48667240D02*
X53898380Y-48629144D01*
X53898380Y-48629144D02*
X53936475Y-48552954D01*
X53936475Y-48552954D02*
X53936475Y-48476763D01*
X53936475Y-48476763D02*
X53898380Y-48400573D01*
X53898380Y-48400573D02*
X53860285Y-48362478D01*
X53860285Y-48362478D02*
X53784094Y-48324382D01*
X53784094Y-48324382D02*
X53631713Y-48286287D01*
X53631713Y-48286287D02*
X53555523Y-48248192D01*
X53555523Y-48248192D02*
X53517428Y-48210097D01*
X53517428Y-48210097D02*
X53479332Y-48133906D01*
X53479332Y-48133906D02*
X53479332Y-48057716D01*
X53479332Y-48057716D02*
X53517428Y-47981525D01*
X53517428Y-47981525D02*
X53555523Y-47943430D01*
X53555523Y-47943430D02*
X53631713Y-47905335D01*
X53631713Y-47905335D02*
X53822190Y-47905335D01*
X53822190Y-47905335D02*
X53936475Y-47943430D01*
X54203142Y-47905335D02*
X54393618Y-48705335D01*
X54393618Y-48705335D02*
X54545999Y-48133906D01*
X54545999Y-48133906D02*
X54698380Y-48705335D01*
X54698380Y-48705335D02*
X54888857Y-47905335D01*
X55117428Y-47905335D02*
X55612666Y-47905335D01*
X55612666Y-47905335D02*
X55346000Y-48210097D01*
X55346000Y-48210097D02*
X55460285Y-48210097D01*
X55460285Y-48210097D02*
X55536476Y-48248192D01*
X55536476Y-48248192D02*
X55574571Y-48286287D01*
X55574571Y-48286287D02*
X55612666Y-48362478D01*
X55612666Y-48362478D02*
X55612666Y-48552954D01*
X55612666Y-48552954D02*
X55574571Y-48629144D01*
X55574571Y-48629144D02*
X55536476Y-48667240D01*
X55536476Y-48667240D02*
X55460285Y-48705335D01*
X55460285Y-48705335D02*
X55231714Y-48705335D01*
X55231714Y-48705335D02*
X55155523Y-48667240D01*
X55155523Y-48667240D02*
X55117428Y-48629144D01*
X55240076Y-81399135D02*
X55240076Y-82046754D01*
X55240076Y-82046754D02*
X55278171Y-82122944D01*
X55278171Y-82122944D02*
X55316266Y-82161040D01*
X55316266Y-82161040D02*
X55392457Y-82199135D01*
X55392457Y-82199135D02*
X55544838Y-82199135D01*
X55544838Y-82199135D02*
X55621028Y-82161040D01*
X55621028Y-82161040D02*
X55659123Y-82122944D01*
X55659123Y-82122944D02*
X55697219Y-82046754D01*
X55697219Y-82046754D02*
X55697219Y-81399135D01*
X56459123Y-81399135D02*
X56078171Y-81399135D01*
X56078171Y-81399135D02*
X56040075Y-81780087D01*
X56040075Y-81780087D02*
X56078171Y-81741992D01*
X56078171Y-81741992D02*
X56154361Y-81703897D01*
X56154361Y-81703897D02*
X56344837Y-81703897D01*
X56344837Y-81703897D02*
X56421028Y-81741992D01*
X56421028Y-81741992D02*
X56459123Y-81780087D01*
X56459123Y-81780087D02*
X56497218Y-81856278D01*
X56497218Y-81856278D02*
X56497218Y-82046754D01*
X56497218Y-82046754D02*
X56459123Y-82122944D01*
X56459123Y-82122944D02*
X56421028Y-82161040D01*
X56421028Y-82161040D02*
X56344837Y-82199135D01*
X56344837Y-82199135D02*
X56154361Y-82199135D01*
X56154361Y-82199135D02*
X56078171Y-82161040D01*
X56078171Y-82161040D02*
X56040075Y-82122944D01*
X56457867Y-44146335D02*
X56191200Y-43765382D01*
X56000724Y-44146335D02*
X56000724Y-43346335D01*
X56000724Y-43346335D02*
X56305486Y-43346335D01*
X56305486Y-43346335D02*
X56381676Y-43384430D01*
X56381676Y-43384430D02*
X56419771Y-43422525D01*
X56419771Y-43422525D02*
X56457867Y-43498716D01*
X56457867Y-43498716D02*
X56457867Y-43613001D01*
X56457867Y-43613001D02*
X56419771Y-43689192D01*
X56419771Y-43689192D02*
X56381676Y-43727287D01*
X56381676Y-43727287D02*
X56305486Y-43765382D01*
X56305486Y-43765382D02*
X56000724Y-43765382D01*
X57143581Y-43613001D02*
X57143581Y-44146335D01*
X56953105Y-43308240D02*
X56762628Y-43879668D01*
X56762628Y-43879668D02*
X57257867Y-43879668D01*
X71869333Y-41382335D02*
X71869333Y-41953763D01*
X71869333Y-41953763D02*
X71831238Y-42068049D01*
X71831238Y-42068049D02*
X71755047Y-42144240D01*
X71755047Y-42144240D02*
X71640762Y-42182335D01*
X71640762Y-42182335D02*
X71564571Y-42182335D01*
X72631238Y-41382335D02*
X72250286Y-41382335D01*
X72250286Y-41382335D02*
X72212190Y-41763287D01*
X72212190Y-41763287D02*
X72250286Y-41725192D01*
X72250286Y-41725192D02*
X72326476Y-41687097D01*
X72326476Y-41687097D02*
X72516952Y-41687097D01*
X72516952Y-41687097D02*
X72593143Y-41725192D01*
X72593143Y-41725192D02*
X72631238Y-41763287D01*
X72631238Y-41763287D02*
X72669333Y-41839478D01*
X72669333Y-41839478D02*
X72669333Y-42029954D01*
X72669333Y-42029954D02*
X72631238Y-42106144D01*
X72631238Y-42106144D02*
X72593143Y-42144240D01*
X72593143Y-42144240D02*
X72516952Y-42182335D01*
X72516952Y-42182335D02*
X72326476Y-42182335D01*
X72326476Y-42182335D02*
X72250286Y-42144240D01*
X72250286Y-42144240D02*
X72212190Y-42106144D01*
X66066666Y-61763335D02*
X65685714Y-61763335D01*
X65685714Y-61763335D02*
X65685714Y-60963335D01*
X66752380Y-61763335D02*
X66295237Y-61763335D01*
X66523809Y-61763335D02*
X66523809Y-60963335D01*
X66523809Y-60963335D02*
X66447618Y-61077620D01*
X66447618Y-61077620D02*
X66371428Y-61153811D01*
X66371428Y-61153811D02*
X66295237Y-61191906D01*
X66643314Y-82280344D02*
X66605218Y-82318440D01*
X66605218Y-82318440D02*
X66490933Y-82356535D01*
X66490933Y-82356535D02*
X66414742Y-82356535D01*
X66414742Y-82356535D02*
X66300456Y-82318440D01*
X66300456Y-82318440D02*
X66224266Y-82242249D01*
X66224266Y-82242249D02*
X66186171Y-82166059D01*
X66186171Y-82166059D02*
X66148075Y-82013678D01*
X66148075Y-82013678D02*
X66148075Y-81899392D01*
X66148075Y-81899392D02*
X66186171Y-81747011D01*
X66186171Y-81747011D02*
X66224266Y-81670820D01*
X66224266Y-81670820D02*
X66300456Y-81594630D01*
X66300456Y-81594630D02*
X66414742Y-81556535D01*
X66414742Y-81556535D02*
X66490933Y-81556535D01*
X66490933Y-81556535D02*
X66605218Y-81594630D01*
X66605218Y-81594630D02*
X66643314Y-81632725D01*
X67405218Y-82356535D02*
X66948075Y-82356535D01*
X67176647Y-82356535D02*
X67176647Y-81556535D01*
X67176647Y-81556535D02*
X67100456Y-81670820D01*
X67100456Y-81670820D02*
X67024266Y-81747011D01*
X67024266Y-81747011D02*
X66948075Y-81785106D01*
X67900457Y-81556535D02*
X67976647Y-81556535D01*
X67976647Y-81556535D02*
X68052838Y-81594630D01*
X68052838Y-81594630D02*
X68090933Y-81632725D01*
X68090933Y-81632725D02*
X68129028Y-81708916D01*
X68129028Y-81708916D02*
X68167123Y-81861297D01*
X68167123Y-81861297D02*
X68167123Y-82051773D01*
X68167123Y-82051773D02*
X68129028Y-82204154D01*
X68129028Y-82204154D02*
X68090933Y-82280344D01*
X68090933Y-82280344D02*
X68052838Y-82318440D01*
X68052838Y-82318440D02*
X67976647Y-82356535D01*
X67976647Y-82356535D02*
X67900457Y-82356535D01*
X67900457Y-82356535D02*
X67824266Y-82318440D01*
X67824266Y-82318440D02*
X67786171Y-82280344D01*
X67786171Y-82280344D02*
X67748076Y-82204154D01*
X67748076Y-82204154D02*
X67709980Y-82051773D01*
X67709980Y-82051773D02*
X67709980Y-81861297D01*
X67709980Y-81861297D02*
X67748076Y-81708916D01*
X67748076Y-81708916D02*
X67786171Y-81632725D01*
X67786171Y-81632725D02*
X67824266Y-81594630D01*
X67824266Y-81594630D02*
X67900457Y-81556535D01*
X73250714Y-74969144D02*
X73212618Y-75007240D01*
X73212618Y-75007240D02*
X73098333Y-75045335D01*
X73098333Y-75045335D02*
X73022142Y-75045335D01*
X73022142Y-75045335D02*
X72907856Y-75007240D01*
X72907856Y-75007240D02*
X72831666Y-74931049D01*
X72831666Y-74931049D02*
X72793571Y-74854859D01*
X72793571Y-74854859D02*
X72755475Y-74702478D01*
X72755475Y-74702478D02*
X72755475Y-74588192D01*
X72755475Y-74588192D02*
X72793571Y-74435811D01*
X72793571Y-74435811D02*
X72831666Y-74359620D01*
X72831666Y-74359620D02*
X72907856Y-74283430D01*
X72907856Y-74283430D02*
X73022142Y-74245335D01*
X73022142Y-74245335D02*
X73098333Y-74245335D01*
X73098333Y-74245335D02*
X73212618Y-74283430D01*
X73212618Y-74283430D02*
X73250714Y-74321525D01*
X74012618Y-75045335D02*
X73555475Y-75045335D01*
X73784047Y-75045335D02*
X73784047Y-74245335D01*
X73784047Y-74245335D02*
X73707856Y-74359620D01*
X73707856Y-74359620D02*
X73631666Y-74435811D01*
X73631666Y-74435811D02*
X73555475Y-74473906D01*
X74774523Y-75045335D02*
X74317380Y-75045335D01*
X74545952Y-75045335D02*
X74545952Y-74245335D01*
X74545952Y-74245335D02*
X74469761Y-74359620D01*
X74469761Y-74359620D02*
X74393571Y-74435811D01*
X74393571Y-74435811D02*
X74317380Y-74473906D01*
X61573714Y-56116335D02*
X61307047Y-55735382D01*
X61116571Y-56116335D02*
X61116571Y-55316335D01*
X61116571Y-55316335D02*
X61421333Y-55316335D01*
X61421333Y-55316335D02*
X61497523Y-55354430D01*
X61497523Y-55354430D02*
X61535618Y-55392525D01*
X61535618Y-55392525D02*
X61573714Y-55468716D01*
X61573714Y-55468716D02*
X61573714Y-55583001D01*
X61573714Y-55583001D02*
X61535618Y-55659192D01*
X61535618Y-55659192D02*
X61497523Y-55697287D01*
X61497523Y-55697287D02*
X61421333Y-55735382D01*
X61421333Y-55735382D02*
X61116571Y-55735382D01*
X62335618Y-56116335D02*
X61878475Y-56116335D01*
X62107047Y-56116335D02*
X62107047Y-55316335D01*
X62107047Y-55316335D02*
X62030856Y-55430620D01*
X62030856Y-55430620D02*
X61954666Y-55506811D01*
X61954666Y-55506811D02*
X61878475Y-55544906D01*
X62602285Y-55316335D02*
X63135619Y-55316335D01*
X63135619Y-55316335D02*
X62792761Y-56116335D01*
X72335714Y-46787144D02*
X72297618Y-46825240D01*
X72297618Y-46825240D02*
X72183333Y-46863335D01*
X72183333Y-46863335D02*
X72107142Y-46863335D01*
X72107142Y-46863335D02*
X71992856Y-46825240D01*
X71992856Y-46825240D02*
X71916666Y-46749049D01*
X71916666Y-46749049D02*
X71878571Y-46672859D01*
X71878571Y-46672859D02*
X71840475Y-46520478D01*
X71840475Y-46520478D02*
X71840475Y-46406192D01*
X71840475Y-46406192D02*
X71878571Y-46253811D01*
X71878571Y-46253811D02*
X71916666Y-46177620D01*
X71916666Y-46177620D02*
X71992856Y-46101430D01*
X71992856Y-46101430D02*
X72107142Y-46063335D01*
X72107142Y-46063335D02*
X72183333Y-46063335D01*
X72183333Y-46063335D02*
X72297618Y-46101430D01*
X72297618Y-46101430D02*
X72335714Y-46139525D01*
X72640475Y-46139525D02*
X72678571Y-46101430D01*
X72678571Y-46101430D02*
X72754761Y-46063335D01*
X72754761Y-46063335D02*
X72945237Y-46063335D01*
X72945237Y-46063335D02*
X73021428Y-46101430D01*
X73021428Y-46101430D02*
X73059523Y-46139525D01*
X73059523Y-46139525D02*
X73097618Y-46215716D01*
X73097618Y-46215716D02*
X73097618Y-46291906D01*
X73097618Y-46291906D02*
X73059523Y-46406192D01*
X73059523Y-46406192D02*
X72602380Y-46863335D01*
X72602380Y-46863335D02*
X73097618Y-46863335D01*
X73783333Y-46063335D02*
X73630952Y-46063335D01*
X73630952Y-46063335D02*
X73554761Y-46101430D01*
X73554761Y-46101430D02*
X73516666Y-46139525D01*
X73516666Y-46139525D02*
X73440476Y-46253811D01*
X73440476Y-46253811D02*
X73402380Y-46406192D01*
X73402380Y-46406192D02*
X73402380Y-46710954D01*
X73402380Y-46710954D02*
X73440476Y-46787144D01*
X73440476Y-46787144D02*
X73478571Y-46825240D01*
X73478571Y-46825240D02*
X73554761Y-46863335D01*
X73554761Y-46863335D02*
X73707142Y-46863335D01*
X73707142Y-46863335D02*
X73783333Y-46825240D01*
X73783333Y-46825240D02*
X73821428Y-46787144D01*
X73821428Y-46787144D02*
X73859523Y-46710954D01*
X73859523Y-46710954D02*
X73859523Y-46520478D01*
X73859523Y-46520478D02*
X73821428Y-46444287D01*
X73821428Y-46444287D02*
X73783333Y-46406192D01*
X73783333Y-46406192D02*
X73707142Y-46368097D01*
X73707142Y-46368097D02*
X73554761Y-46368097D01*
X73554761Y-46368097D02*
X73478571Y-46406192D01*
X73478571Y-46406192D02*
X73440476Y-46444287D01*
X73440476Y-46444287D02*
X73402380Y-46520478D01*
X55674714Y-71439144D02*
X55636618Y-71477240D01*
X55636618Y-71477240D02*
X55522333Y-71515335D01*
X55522333Y-71515335D02*
X55446142Y-71515335D01*
X55446142Y-71515335D02*
X55331856Y-71477240D01*
X55331856Y-71477240D02*
X55255666Y-71401049D01*
X55255666Y-71401049D02*
X55217571Y-71324859D01*
X55217571Y-71324859D02*
X55179475Y-71172478D01*
X55179475Y-71172478D02*
X55179475Y-71058192D01*
X55179475Y-71058192D02*
X55217571Y-70905811D01*
X55217571Y-70905811D02*
X55255666Y-70829620D01*
X55255666Y-70829620D02*
X55331856Y-70753430D01*
X55331856Y-70753430D02*
X55446142Y-70715335D01*
X55446142Y-70715335D02*
X55522333Y-70715335D01*
X55522333Y-70715335D02*
X55636618Y-70753430D01*
X55636618Y-70753430D02*
X55674714Y-70791525D01*
X56436618Y-71515335D02*
X55979475Y-71515335D01*
X56208047Y-71515335D02*
X56208047Y-70715335D01*
X56208047Y-70715335D02*
X56131856Y-70829620D01*
X56131856Y-70829620D02*
X56055666Y-70905811D01*
X56055666Y-70905811D02*
X55979475Y-70943906D01*
X56703285Y-70715335D02*
X57198523Y-70715335D01*
X57198523Y-70715335D02*
X56931857Y-71020097D01*
X56931857Y-71020097D02*
X57046142Y-71020097D01*
X57046142Y-71020097D02*
X57122333Y-71058192D01*
X57122333Y-71058192D02*
X57160428Y-71096287D01*
X57160428Y-71096287D02*
X57198523Y-71172478D01*
X57198523Y-71172478D02*
X57198523Y-71362954D01*
X57198523Y-71362954D02*
X57160428Y-71439144D01*
X57160428Y-71439144D02*
X57122333Y-71477240D01*
X57122333Y-71477240D02*
X57046142Y-71515335D01*
X57046142Y-71515335D02*
X56817571Y-71515335D01*
X56817571Y-71515335D02*
X56741380Y-71477240D01*
X56741380Y-71477240D02*
X56703285Y-71439144D01*
X60794914Y-80179944D02*
X60756818Y-80218040D01*
X60756818Y-80218040D02*
X60642533Y-80256135D01*
X60642533Y-80256135D02*
X60566342Y-80256135D01*
X60566342Y-80256135D02*
X60452056Y-80218040D01*
X60452056Y-80218040D02*
X60375866Y-80141849D01*
X60375866Y-80141849D02*
X60337771Y-80065659D01*
X60337771Y-80065659D02*
X60299675Y-79913278D01*
X60299675Y-79913278D02*
X60299675Y-79798992D01*
X60299675Y-79798992D02*
X60337771Y-79646611D01*
X60337771Y-79646611D02*
X60375866Y-79570420D01*
X60375866Y-79570420D02*
X60452056Y-79494230D01*
X60452056Y-79494230D02*
X60566342Y-79456135D01*
X60566342Y-79456135D02*
X60642533Y-79456135D01*
X60642533Y-79456135D02*
X60756818Y-79494230D01*
X60756818Y-79494230D02*
X60794914Y-79532325D01*
X61099675Y-79532325D02*
X61137771Y-79494230D01*
X61137771Y-79494230D02*
X61213961Y-79456135D01*
X61213961Y-79456135D02*
X61404437Y-79456135D01*
X61404437Y-79456135D02*
X61480628Y-79494230D01*
X61480628Y-79494230D02*
X61518723Y-79532325D01*
X61518723Y-79532325D02*
X61556818Y-79608516D01*
X61556818Y-79608516D02*
X61556818Y-79684706D01*
X61556818Y-79684706D02*
X61518723Y-79798992D01*
X61518723Y-79798992D02*
X61061580Y-80256135D01*
X61061580Y-80256135D02*
X61556818Y-80256135D01*
X62242533Y-79722801D02*
X62242533Y-80256135D01*
X62052057Y-79418040D02*
X61861580Y-79989468D01*
X61861580Y-79989468D02*
X62356819Y-79989468D01*
X62067714Y-82021144D02*
X62029618Y-82059240D01*
X62029618Y-82059240D02*
X61915333Y-82097335D01*
X61915333Y-82097335D02*
X61839142Y-82097335D01*
X61839142Y-82097335D02*
X61724856Y-82059240D01*
X61724856Y-82059240D02*
X61648666Y-81983049D01*
X61648666Y-81983049D02*
X61610571Y-81906859D01*
X61610571Y-81906859D02*
X61572475Y-81754478D01*
X61572475Y-81754478D02*
X61572475Y-81640192D01*
X61572475Y-81640192D02*
X61610571Y-81487811D01*
X61610571Y-81487811D02*
X61648666Y-81411620D01*
X61648666Y-81411620D02*
X61724856Y-81335430D01*
X61724856Y-81335430D02*
X61839142Y-81297335D01*
X61839142Y-81297335D02*
X61915333Y-81297335D01*
X61915333Y-81297335D02*
X62029618Y-81335430D01*
X62029618Y-81335430D02*
X62067714Y-81373525D01*
X62829618Y-82097335D02*
X62372475Y-82097335D01*
X62601047Y-82097335D02*
X62601047Y-81297335D01*
X62601047Y-81297335D02*
X62524856Y-81411620D01*
X62524856Y-81411620D02*
X62448666Y-81487811D01*
X62448666Y-81487811D02*
X62372475Y-81525906D01*
X63286761Y-81640192D02*
X63210571Y-81602097D01*
X63210571Y-81602097D02*
X63172476Y-81564001D01*
X63172476Y-81564001D02*
X63134380Y-81487811D01*
X63134380Y-81487811D02*
X63134380Y-81449716D01*
X63134380Y-81449716D02*
X63172476Y-81373525D01*
X63172476Y-81373525D02*
X63210571Y-81335430D01*
X63210571Y-81335430D02*
X63286761Y-81297335D01*
X63286761Y-81297335D02*
X63439142Y-81297335D01*
X63439142Y-81297335D02*
X63515333Y-81335430D01*
X63515333Y-81335430D02*
X63553428Y-81373525D01*
X63553428Y-81373525D02*
X63591523Y-81449716D01*
X63591523Y-81449716D02*
X63591523Y-81487811D01*
X63591523Y-81487811D02*
X63553428Y-81564001D01*
X63553428Y-81564001D02*
X63515333Y-81602097D01*
X63515333Y-81602097D02*
X63439142Y-81640192D01*
X63439142Y-81640192D02*
X63286761Y-81640192D01*
X63286761Y-81640192D02*
X63210571Y-81678287D01*
X63210571Y-81678287D02*
X63172476Y-81716382D01*
X63172476Y-81716382D02*
X63134380Y-81792573D01*
X63134380Y-81792573D02*
X63134380Y-81944954D01*
X63134380Y-81944954D02*
X63172476Y-82021144D01*
X63172476Y-82021144D02*
X63210571Y-82059240D01*
X63210571Y-82059240D02*
X63286761Y-82097335D01*
X63286761Y-82097335D02*
X63439142Y-82097335D01*
X63439142Y-82097335D02*
X63515333Y-82059240D01*
X63515333Y-82059240D02*
X63553428Y-82021144D01*
X63553428Y-82021144D02*
X63591523Y-81944954D01*
X63591523Y-81944954D02*
X63591523Y-81792573D01*
X63591523Y-81792573D02*
X63553428Y-81716382D01*
X63553428Y-81716382D02*
X63515333Y-81678287D01*
X63515333Y-81678287D02*
X63439142Y-81640192D01*
X66382667Y-58132144D02*
X66344571Y-58170240D01*
X66344571Y-58170240D02*
X66230286Y-58208335D01*
X66230286Y-58208335D02*
X66154095Y-58208335D01*
X66154095Y-58208335D02*
X66039809Y-58170240D01*
X66039809Y-58170240D02*
X65963619Y-58094049D01*
X65963619Y-58094049D02*
X65925524Y-58017859D01*
X65925524Y-58017859D02*
X65887428Y-57865478D01*
X65887428Y-57865478D02*
X65887428Y-57751192D01*
X65887428Y-57751192D02*
X65925524Y-57598811D01*
X65925524Y-57598811D02*
X65963619Y-57522620D01*
X65963619Y-57522620D02*
X66039809Y-57446430D01*
X66039809Y-57446430D02*
X66154095Y-57408335D01*
X66154095Y-57408335D02*
X66230286Y-57408335D01*
X66230286Y-57408335D02*
X66344571Y-57446430D01*
X66344571Y-57446430D02*
X66382667Y-57484525D01*
X67106476Y-57408335D02*
X66725524Y-57408335D01*
X66725524Y-57408335D02*
X66687428Y-57789287D01*
X66687428Y-57789287D02*
X66725524Y-57751192D01*
X66725524Y-57751192D02*
X66801714Y-57713097D01*
X66801714Y-57713097D02*
X66992190Y-57713097D01*
X66992190Y-57713097D02*
X67068381Y-57751192D01*
X67068381Y-57751192D02*
X67106476Y-57789287D01*
X67106476Y-57789287D02*
X67144571Y-57865478D01*
X67144571Y-57865478D02*
X67144571Y-58055954D01*
X67144571Y-58055954D02*
X67106476Y-58132144D01*
X67106476Y-58132144D02*
X67068381Y-58170240D01*
X67068381Y-58170240D02*
X66992190Y-58208335D01*
X66992190Y-58208335D02*
X66801714Y-58208335D01*
X66801714Y-58208335D02*
X66725524Y-58170240D01*
X66725524Y-58170240D02*
X66687428Y-58132144D01*
X55041667Y-59325144D02*
X55003571Y-59363240D01*
X55003571Y-59363240D02*
X54889286Y-59401335D01*
X54889286Y-59401335D02*
X54813095Y-59401335D01*
X54813095Y-59401335D02*
X54698809Y-59363240D01*
X54698809Y-59363240D02*
X54622619Y-59287049D01*
X54622619Y-59287049D02*
X54584524Y-59210859D01*
X54584524Y-59210859D02*
X54546428Y-59058478D01*
X54546428Y-59058478D02*
X54546428Y-58944192D01*
X54546428Y-58944192D02*
X54584524Y-58791811D01*
X54584524Y-58791811D02*
X54622619Y-58715620D01*
X54622619Y-58715620D02*
X54698809Y-58639430D01*
X54698809Y-58639430D02*
X54813095Y-58601335D01*
X54813095Y-58601335D02*
X54889286Y-58601335D01*
X54889286Y-58601335D02*
X55003571Y-58639430D01*
X55003571Y-58639430D02*
X55041667Y-58677525D01*
X55803571Y-59401335D02*
X55346428Y-59401335D01*
X55575000Y-59401335D02*
X55575000Y-58601335D01*
X55575000Y-58601335D02*
X55498809Y-58715620D01*
X55498809Y-58715620D02*
X55422619Y-58791811D01*
X55422619Y-58791811D02*
X55346428Y-58829906D01*
X48912114Y-73794935D02*
X48645447Y-73413982D01*
X48454971Y-73794935D02*
X48454971Y-72994935D01*
X48454971Y-72994935D02*
X48759733Y-72994935D01*
X48759733Y-72994935D02*
X48835923Y-73033030D01*
X48835923Y-73033030D02*
X48874018Y-73071125D01*
X48874018Y-73071125D02*
X48912114Y-73147316D01*
X48912114Y-73147316D02*
X48912114Y-73261601D01*
X48912114Y-73261601D02*
X48874018Y-73337792D01*
X48874018Y-73337792D02*
X48835923Y-73375887D01*
X48835923Y-73375887D02*
X48759733Y-73413982D01*
X48759733Y-73413982D02*
X48454971Y-73413982D01*
X49674018Y-73794935D02*
X49216875Y-73794935D01*
X49445447Y-73794935D02*
X49445447Y-72994935D01*
X49445447Y-72994935D02*
X49369256Y-73109220D01*
X49369256Y-73109220D02*
X49293066Y-73185411D01*
X49293066Y-73185411D02*
X49216875Y-73223506D01*
X50359733Y-73261601D02*
X50359733Y-73794935D01*
X50169257Y-72956840D02*
X49978780Y-73528268D01*
X49978780Y-73528268D02*
X50474019Y-73528268D01*
X68198714Y-45236144D02*
X68160618Y-45274240D01*
X68160618Y-45274240D02*
X68046333Y-45312335D01*
X68046333Y-45312335D02*
X67970142Y-45312335D01*
X67970142Y-45312335D02*
X67855856Y-45274240D01*
X67855856Y-45274240D02*
X67779666Y-45198049D01*
X67779666Y-45198049D02*
X67741571Y-45121859D01*
X67741571Y-45121859D02*
X67703475Y-44969478D01*
X67703475Y-44969478D02*
X67703475Y-44855192D01*
X67703475Y-44855192D02*
X67741571Y-44702811D01*
X67741571Y-44702811D02*
X67779666Y-44626620D01*
X67779666Y-44626620D02*
X67855856Y-44550430D01*
X67855856Y-44550430D02*
X67970142Y-44512335D01*
X67970142Y-44512335D02*
X68046333Y-44512335D01*
X68046333Y-44512335D02*
X68160618Y-44550430D01*
X68160618Y-44550430D02*
X68198714Y-44588525D01*
X68503475Y-44588525D02*
X68541571Y-44550430D01*
X68541571Y-44550430D02*
X68617761Y-44512335D01*
X68617761Y-44512335D02*
X68808237Y-44512335D01*
X68808237Y-44512335D02*
X68884428Y-44550430D01*
X68884428Y-44550430D02*
X68922523Y-44588525D01*
X68922523Y-44588525D02*
X68960618Y-44664716D01*
X68960618Y-44664716D02*
X68960618Y-44740906D01*
X68960618Y-44740906D02*
X68922523Y-44855192D01*
X68922523Y-44855192D02*
X68465380Y-45312335D01*
X68465380Y-45312335D02*
X68960618Y-45312335D01*
X69455857Y-44512335D02*
X69532047Y-44512335D01*
X69532047Y-44512335D02*
X69608238Y-44550430D01*
X69608238Y-44550430D02*
X69646333Y-44588525D01*
X69646333Y-44588525D02*
X69684428Y-44664716D01*
X69684428Y-44664716D02*
X69722523Y-44817097D01*
X69722523Y-44817097D02*
X69722523Y-45007573D01*
X69722523Y-45007573D02*
X69684428Y-45159954D01*
X69684428Y-45159954D02*
X69646333Y-45236144D01*
X69646333Y-45236144D02*
X69608238Y-45274240D01*
X69608238Y-45274240D02*
X69532047Y-45312335D01*
X69532047Y-45312335D02*
X69455857Y-45312335D01*
X69455857Y-45312335D02*
X69379666Y-45274240D01*
X69379666Y-45274240D02*
X69341571Y-45236144D01*
X69341571Y-45236144D02*
X69303476Y-45159954D01*
X69303476Y-45159954D02*
X69265380Y-45007573D01*
X69265380Y-45007573D02*
X69265380Y-44817097D01*
X69265380Y-44817097D02*
X69303476Y-44664716D01*
X69303476Y-44664716D02*
X69341571Y-44588525D01*
X69341571Y-44588525D02*
X69379666Y-44550430D01*
X69379666Y-44550430D02*
X69455857Y-44512335D01*
X65150714Y-55988144D02*
X65112618Y-56026240D01*
X65112618Y-56026240D02*
X64998333Y-56064335D01*
X64998333Y-56064335D02*
X64922142Y-56064335D01*
X64922142Y-56064335D02*
X64807856Y-56026240D01*
X64807856Y-56026240D02*
X64731666Y-55950049D01*
X64731666Y-55950049D02*
X64693571Y-55873859D01*
X64693571Y-55873859D02*
X64655475Y-55721478D01*
X64655475Y-55721478D02*
X64655475Y-55607192D01*
X64655475Y-55607192D02*
X64693571Y-55454811D01*
X64693571Y-55454811D02*
X64731666Y-55378620D01*
X64731666Y-55378620D02*
X64807856Y-55302430D01*
X64807856Y-55302430D02*
X64922142Y-55264335D01*
X64922142Y-55264335D02*
X64998333Y-55264335D01*
X64998333Y-55264335D02*
X65112618Y-55302430D01*
X65112618Y-55302430D02*
X65150714Y-55340525D01*
X65455475Y-55340525D02*
X65493571Y-55302430D01*
X65493571Y-55302430D02*
X65569761Y-55264335D01*
X65569761Y-55264335D02*
X65760237Y-55264335D01*
X65760237Y-55264335D02*
X65836428Y-55302430D01*
X65836428Y-55302430D02*
X65874523Y-55340525D01*
X65874523Y-55340525D02*
X65912618Y-55416716D01*
X65912618Y-55416716D02*
X65912618Y-55492906D01*
X65912618Y-55492906D02*
X65874523Y-55607192D01*
X65874523Y-55607192D02*
X65417380Y-56064335D01*
X65417380Y-56064335D02*
X65912618Y-56064335D01*
X66674523Y-56064335D02*
X66217380Y-56064335D01*
X66445952Y-56064335D02*
X66445952Y-55264335D01*
X66445952Y-55264335D02*
X66369761Y-55378620D01*
X66369761Y-55378620D02*
X66293571Y-55454811D01*
X66293571Y-55454811D02*
X66217380Y-55492906D01*
X54965676Y-69127135D02*
X54965676Y-69774754D01*
X54965676Y-69774754D02*
X55003771Y-69850944D01*
X55003771Y-69850944D02*
X55041866Y-69889040D01*
X55041866Y-69889040D02*
X55118057Y-69927135D01*
X55118057Y-69927135D02*
X55270438Y-69927135D01*
X55270438Y-69927135D02*
X55346628Y-69889040D01*
X55346628Y-69889040D02*
X55384723Y-69850944D01*
X55384723Y-69850944D02*
X55422819Y-69774754D01*
X55422819Y-69774754D02*
X55422819Y-69127135D01*
X55765675Y-69203325D02*
X55803771Y-69165230D01*
X55803771Y-69165230D02*
X55879961Y-69127135D01*
X55879961Y-69127135D02*
X56070437Y-69127135D01*
X56070437Y-69127135D02*
X56146628Y-69165230D01*
X56146628Y-69165230D02*
X56184723Y-69203325D01*
X56184723Y-69203325D02*
X56222818Y-69279516D01*
X56222818Y-69279516D02*
X56222818Y-69355706D01*
X56222818Y-69355706D02*
X56184723Y-69469992D01*
X56184723Y-69469992D02*
X55727580Y-69927135D01*
X55727580Y-69927135D02*
X56222818Y-69927135D01*
X51337514Y-82182535D02*
X51070847Y-81801582D01*
X50880371Y-82182535D02*
X50880371Y-81382535D01*
X50880371Y-81382535D02*
X51185133Y-81382535D01*
X51185133Y-81382535D02*
X51261323Y-81420630D01*
X51261323Y-81420630D02*
X51299418Y-81458725D01*
X51299418Y-81458725D02*
X51337514Y-81534916D01*
X51337514Y-81534916D02*
X51337514Y-81649201D01*
X51337514Y-81649201D02*
X51299418Y-81725392D01*
X51299418Y-81725392D02*
X51261323Y-81763487D01*
X51261323Y-81763487D02*
X51185133Y-81801582D01*
X51185133Y-81801582D02*
X50880371Y-81801582D01*
X52099418Y-82182535D02*
X51642275Y-82182535D01*
X51870847Y-82182535D02*
X51870847Y-81382535D01*
X51870847Y-81382535D02*
X51794656Y-81496820D01*
X51794656Y-81496820D02*
X51718466Y-81573011D01*
X51718466Y-81573011D02*
X51642275Y-81611106D01*
X52823228Y-81382535D02*
X52442276Y-81382535D01*
X52442276Y-81382535D02*
X52404180Y-81763487D01*
X52404180Y-81763487D02*
X52442276Y-81725392D01*
X52442276Y-81725392D02*
X52518466Y-81687297D01*
X52518466Y-81687297D02*
X52708942Y-81687297D01*
X52708942Y-81687297D02*
X52785133Y-81725392D01*
X52785133Y-81725392D02*
X52823228Y-81763487D01*
X52823228Y-81763487D02*
X52861323Y-81839678D01*
X52861323Y-81839678D02*
X52861323Y-82030154D01*
X52861323Y-82030154D02*
X52823228Y-82106344D01*
X52823228Y-82106344D02*
X52785133Y-82144440D01*
X52785133Y-82144440D02*
X52708942Y-82182535D01*
X52708942Y-82182535D02*
X52518466Y-82182535D01*
X52518466Y-82182535D02*
X52442276Y-82144440D01*
X52442276Y-82144440D02*
X52404180Y-82106344D01*
X55730667Y-68080144D02*
X55692571Y-68118240D01*
X55692571Y-68118240D02*
X55578286Y-68156335D01*
X55578286Y-68156335D02*
X55502095Y-68156335D01*
X55502095Y-68156335D02*
X55387809Y-68118240D01*
X55387809Y-68118240D02*
X55311619Y-68042049D01*
X55311619Y-68042049D02*
X55273524Y-67965859D01*
X55273524Y-67965859D02*
X55235428Y-67813478D01*
X55235428Y-67813478D02*
X55235428Y-67699192D01*
X55235428Y-67699192D02*
X55273524Y-67546811D01*
X55273524Y-67546811D02*
X55311619Y-67470620D01*
X55311619Y-67470620D02*
X55387809Y-67394430D01*
X55387809Y-67394430D02*
X55502095Y-67356335D01*
X55502095Y-67356335D02*
X55578286Y-67356335D01*
X55578286Y-67356335D02*
X55692571Y-67394430D01*
X55692571Y-67394430D02*
X55730667Y-67432525D01*
X56187809Y-67699192D02*
X56111619Y-67661097D01*
X56111619Y-67661097D02*
X56073524Y-67623001D01*
X56073524Y-67623001D02*
X56035428Y-67546811D01*
X56035428Y-67546811D02*
X56035428Y-67508716D01*
X56035428Y-67508716D02*
X56073524Y-67432525D01*
X56073524Y-67432525D02*
X56111619Y-67394430D01*
X56111619Y-67394430D02*
X56187809Y-67356335D01*
X56187809Y-67356335D02*
X56340190Y-67356335D01*
X56340190Y-67356335D02*
X56416381Y-67394430D01*
X56416381Y-67394430D02*
X56454476Y-67432525D01*
X56454476Y-67432525D02*
X56492571Y-67508716D01*
X56492571Y-67508716D02*
X56492571Y-67546811D01*
X56492571Y-67546811D02*
X56454476Y-67623001D01*
X56454476Y-67623001D02*
X56416381Y-67661097D01*
X56416381Y-67661097D02*
X56340190Y-67699192D01*
X56340190Y-67699192D02*
X56187809Y-67699192D01*
X56187809Y-67699192D02*
X56111619Y-67737287D01*
X56111619Y-67737287D02*
X56073524Y-67775382D01*
X56073524Y-67775382D02*
X56035428Y-67851573D01*
X56035428Y-67851573D02*
X56035428Y-68003954D01*
X56035428Y-68003954D02*
X56073524Y-68080144D01*
X56073524Y-68080144D02*
X56111619Y-68118240D01*
X56111619Y-68118240D02*
X56187809Y-68156335D01*
X56187809Y-68156335D02*
X56340190Y-68156335D01*
X56340190Y-68156335D02*
X56416381Y-68118240D01*
X56416381Y-68118240D02*
X56454476Y-68080144D01*
X56454476Y-68080144D02*
X56492571Y-68003954D01*
X56492571Y-68003954D02*
X56492571Y-67851573D01*
X56492571Y-67851573D02*
X56454476Y-67775382D01*
X56454476Y-67775382D02*
X56416381Y-67737287D01*
X56416381Y-67737287D02*
X56340190Y-67699192D01*
X67957714Y-51423335D02*
X67691047Y-51042382D01*
X67500571Y-51423335D02*
X67500571Y-50623335D01*
X67500571Y-50623335D02*
X67805333Y-50623335D01*
X67805333Y-50623335D02*
X67881523Y-50661430D01*
X67881523Y-50661430D02*
X67919618Y-50699525D01*
X67919618Y-50699525D02*
X67957714Y-50775716D01*
X67957714Y-50775716D02*
X67957714Y-50890001D01*
X67957714Y-50890001D02*
X67919618Y-50966192D01*
X67919618Y-50966192D02*
X67881523Y-51004287D01*
X67881523Y-51004287D02*
X67805333Y-51042382D01*
X67805333Y-51042382D02*
X67500571Y-51042382D01*
X68719618Y-51423335D02*
X68262475Y-51423335D01*
X68491047Y-51423335D02*
X68491047Y-50623335D01*
X68491047Y-50623335D02*
X68414856Y-50737620D01*
X68414856Y-50737620D02*
X68338666Y-50813811D01*
X68338666Y-50813811D02*
X68262475Y-50851906D01*
X69481523Y-51423335D02*
X69024380Y-51423335D01*
X69252952Y-51423335D02*
X69252952Y-50623335D01*
X69252952Y-50623335D02*
X69176761Y-50737620D01*
X69176761Y-50737620D02*
X69100571Y-50813811D01*
X69100571Y-50813811D02*
X69024380Y-50851906D01*
X65728867Y-80301135D02*
X65462200Y-79920182D01*
X65271724Y-80301135D02*
X65271724Y-79501135D01*
X65271724Y-79501135D02*
X65576486Y-79501135D01*
X65576486Y-79501135D02*
X65652676Y-79539230D01*
X65652676Y-79539230D02*
X65690771Y-79577325D01*
X65690771Y-79577325D02*
X65728867Y-79653516D01*
X65728867Y-79653516D02*
X65728867Y-79767801D01*
X65728867Y-79767801D02*
X65690771Y-79843992D01*
X65690771Y-79843992D02*
X65652676Y-79882087D01*
X65652676Y-79882087D02*
X65576486Y-79920182D01*
X65576486Y-79920182D02*
X65271724Y-79920182D01*
X66033628Y-79577325D02*
X66071724Y-79539230D01*
X66071724Y-79539230D02*
X66147914Y-79501135D01*
X66147914Y-79501135D02*
X66338390Y-79501135D01*
X66338390Y-79501135D02*
X66414581Y-79539230D01*
X66414581Y-79539230D02*
X66452676Y-79577325D01*
X66452676Y-79577325D02*
X66490771Y-79653516D01*
X66490771Y-79653516D02*
X66490771Y-79729706D01*
X66490771Y-79729706D02*
X66452676Y-79843992D01*
X66452676Y-79843992D02*
X65995533Y-80301135D01*
X65995533Y-80301135D02*
X66490771Y-80301135D01*
X50192714Y-52586335D02*
X49926047Y-52205382D01*
X49735571Y-52586335D02*
X49735571Y-51786335D01*
X49735571Y-51786335D02*
X50040333Y-51786335D01*
X50040333Y-51786335D02*
X50116523Y-51824430D01*
X50116523Y-51824430D02*
X50154618Y-51862525D01*
X50154618Y-51862525D02*
X50192714Y-51938716D01*
X50192714Y-51938716D02*
X50192714Y-52053001D01*
X50192714Y-52053001D02*
X50154618Y-52129192D01*
X50154618Y-52129192D02*
X50116523Y-52167287D01*
X50116523Y-52167287D02*
X50040333Y-52205382D01*
X50040333Y-52205382D02*
X49735571Y-52205382D01*
X50954618Y-52586335D02*
X50497475Y-52586335D01*
X50726047Y-52586335D02*
X50726047Y-51786335D01*
X50726047Y-51786335D02*
X50649856Y-51900620D01*
X50649856Y-51900620D02*
X50573666Y-51976811D01*
X50573666Y-51976811D02*
X50497475Y-52014906D01*
X51449857Y-51786335D02*
X51526047Y-51786335D01*
X51526047Y-51786335D02*
X51602238Y-51824430D01*
X51602238Y-51824430D02*
X51640333Y-51862525D01*
X51640333Y-51862525D02*
X51678428Y-51938716D01*
X51678428Y-51938716D02*
X51716523Y-52091097D01*
X51716523Y-52091097D02*
X51716523Y-52281573D01*
X51716523Y-52281573D02*
X51678428Y-52433954D01*
X51678428Y-52433954D02*
X51640333Y-52510144D01*
X51640333Y-52510144D02*
X51602238Y-52548240D01*
X51602238Y-52548240D02*
X51526047Y-52586335D01*
X51526047Y-52586335D02*
X51449857Y-52586335D01*
X51449857Y-52586335D02*
X51373666Y-52548240D01*
X51373666Y-52548240D02*
X51335571Y-52510144D01*
X51335571Y-52510144D02*
X51297476Y-52433954D01*
X51297476Y-52433954D02*
X51259380Y-52281573D01*
X51259380Y-52281573D02*
X51259380Y-52091097D01*
X51259380Y-52091097D02*
X51297476Y-51938716D01*
X51297476Y-51938716D02*
X51335571Y-51862525D01*
X51335571Y-51862525D02*
X51373666Y-51824430D01*
X51373666Y-51824430D02*
X51449857Y-51786335D01*
X69363067Y-79674744D02*
X69324971Y-79712840D01*
X69324971Y-79712840D02*
X69210686Y-79750935D01*
X69210686Y-79750935D02*
X69134495Y-79750935D01*
X69134495Y-79750935D02*
X69020209Y-79712840D01*
X69020209Y-79712840D02*
X68944019Y-79636649D01*
X68944019Y-79636649D02*
X68905924Y-79560459D01*
X68905924Y-79560459D02*
X68867828Y-79408078D01*
X68867828Y-79408078D02*
X68867828Y-79293792D01*
X68867828Y-79293792D02*
X68905924Y-79141411D01*
X68905924Y-79141411D02*
X68944019Y-79065220D01*
X68944019Y-79065220D02*
X69020209Y-78989030D01*
X69020209Y-78989030D02*
X69134495Y-78950935D01*
X69134495Y-78950935D02*
X69210686Y-78950935D01*
X69210686Y-78950935D02*
X69324971Y-78989030D01*
X69324971Y-78989030D02*
X69363067Y-79027125D01*
X70048781Y-79217601D02*
X70048781Y-79750935D01*
X69858305Y-78912840D02*
X69667828Y-79484268D01*
X69667828Y-79484268D02*
X70163067Y-79484268D01*
X69885714Y-56787144D02*
X69847618Y-56825240D01*
X69847618Y-56825240D02*
X69733333Y-56863335D01*
X69733333Y-56863335D02*
X69657142Y-56863335D01*
X69657142Y-56863335D02*
X69542856Y-56825240D01*
X69542856Y-56825240D02*
X69466666Y-56749049D01*
X69466666Y-56749049D02*
X69428571Y-56672859D01*
X69428571Y-56672859D02*
X69390475Y-56520478D01*
X69390475Y-56520478D02*
X69390475Y-56406192D01*
X69390475Y-56406192D02*
X69428571Y-56253811D01*
X69428571Y-56253811D02*
X69466666Y-56177620D01*
X69466666Y-56177620D02*
X69542856Y-56101430D01*
X69542856Y-56101430D02*
X69657142Y-56063335D01*
X69657142Y-56063335D02*
X69733333Y-56063335D01*
X69733333Y-56063335D02*
X69847618Y-56101430D01*
X69847618Y-56101430D02*
X69885714Y-56139525D01*
X70647618Y-56863335D02*
X70190475Y-56863335D01*
X70419047Y-56863335D02*
X70419047Y-56063335D01*
X70419047Y-56063335D02*
X70342856Y-56177620D01*
X70342856Y-56177620D02*
X70266666Y-56253811D01*
X70266666Y-56253811D02*
X70190475Y-56291906D01*
X70952380Y-56139525D02*
X70990476Y-56101430D01*
X70990476Y-56101430D02*
X71066666Y-56063335D01*
X71066666Y-56063335D02*
X71257142Y-56063335D01*
X71257142Y-56063335D02*
X71333333Y-56101430D01*
X71333333Y-56101430D02*
X71371428Y-56139525D01*
X71371428Y-56139525D02*
X71409523Y-56215716D01*
X71409523Y-56215716D02*
X71409523Y-56291906D01*
X71409523Y-56291906D02*
X71371428Y-56406192D01*
X71371428Y-56406192D02*
X70914285Y-56863335D01*
X70914285Y-56863335D02*
X71409523Y-56863335D01*
X71235714Y-51837144D02*
X71197618Y-51875240D01*
X71197618Y-51875240D02*
X71083333Y-51913335D01*
X71083333Y-51913335D02*
X71007142Y-51913335D01*
X71007142Y-51913335D02*
X70892856Y-51875240D01*
X70892856Y-51875240D02*
X70816666Y-51799049D01*
X70816666Y-51799049D02*
X70778571Y-51722859D01*
X70778571Y-51722859D02*
X70740475Y-51570478D01*
X70740475Y-51570478D02*
X70740475Y-51456192D01*
X70740475Y-51456192D02*
X70778571Y-51303811D01*
X70778571Y-51303811D02*
X70816666Y-51227620D01*
X70816666Y-51227620D02*
X70892856Y-51151430D01*
X70892856Y-51151430D02*
X71007142Y-51113335D01*
X71007142Y-51113335D02*
X71083333Y-51113335D01*
X71083333Y-51113335D02*
X71197618Y-51151430D01*
X71197618Y-51151430D02*
X71235714Y-51189525D01*
X71540475Y-51189525D02*
X71578571Y-51151430D01*
X71578571Y-51151430D02*
X71654761Y-51113335D01*
X71654761Y-51113335D02*
X71845237Y-51113335D01*
X71845237Y-51113335D02*
X71921428Y-51151430D01*
X71921428Y-51151430D02*
X71959523Y-51189525D01*
X71959523Y-51189525D02*
X71997618Y-51265716D01*
X71997618Y-51265716D02*
X71997618Y-51341906D01*
X71997618Y-51341906D02*
X71959523Y-51456192D01*
X71959523Y-51456192D02*
X71502380Y-51913335D01*
X71502380Y-51913335D02*
X71997618Y-51913335D01*
X72721428Y-51113335D02*
X72340476Y-51113335D01*
X72340476Y-51113335D02*
X72302380Y-51494287D01*
X72302380Y-51494287D02*
X72340476Y-51456192D01*
X72340476Y-51456192D02*
X72416666Y-51418097D01*
X72416666Y-51418097D02*
X72607142Y-51418097D01*
X72607142Y-51418097D02*
X72683333Y-51456192D01*
X72683333Y-51456192D02*
X72721428Y-51494287D01*
X72721428Y-51494287D02*
X72759523Y-51570478D01*
X72759523Y-51570478D02*
X72759523Y-51760954D01*
X72759523Y-51760954D02*
X72721428Y-51837144D01*
X72721428Y-51837144D02*
X72683333Y-51875240D01*
X72683333Y-51875240D02*
X72607142Y-51913335D01*
X72607142Y-51913335D02*
X72416666Y-51913335D01*
X72416666Y-51913335D02*
X72340476Y-51875240D01*
X72340476Y-51875240D02*
X72302380Y-51837144D01*
X72487714Y-76512144D02*
X72449618Y-76550240D01*
X72449618Y-76550240D02*
X72335333Y-76588335D01*
X72335333Y-76588335D02*
X72259142Y-76588335D01*
X72259142Y-76588335D02*
X72144856Y-76550240D01*
X72144856Y-76550240D02*
X72068666Y-76474049D01*
X72068666Y-76474049D02*
X72030571Y-76397859D01*
X72030571Y-76397859D02*
X71992475Y-76245478D01*
X71992475Y-76245478D02*
X71992475Y-76131192D01*
X71992475Y-76131192D02*
X72030571Y-75978811D01*
X72030571Y-75978811D02*
X72068666Y-75902620D01*
X72068666Y-75902620D02*
X72144856Y-75826430D01*
X72144856Y-75826430D02*
X72259142Y-75788335D01*
X72259142Y-75788335D02*
X72335333Y-75788335D01*
X72335333Y-75788335D02*
X72449618Y-75826430D01*
X72449618Y-75826430D02*
X72487714Y-75864525D01*
X73249618Y-76588335D02*
X72792475Y-76588335D01*
X73021047Y-76588335D02*
X73021047Y-75788335D01*
X73021047Y-75788335D02*
X72944856Y-75902620D01*
X72944856Y-75902620D02*
X72868666Y-75978811D01*
X72868666Y-75978811D02*
X72792475Y-76016906D01*
X73935333Y-76055001D02*
X73935333Y-76588335D01*
X73744857Y-75750240D02*
X73554380Y-76321668D01*
X73554380Y-76321668D02*
X74049619Y-76321668D01*
X67978714Y-55062144D02*
X67940618Y-55100240D01*
X67940618Y-55100240D02*
X67826333Y-55138335D01*
X67826333Y-55138335D02*
X67750142Y-55138335D01*
X67750142Y-55138335D02*
X67635856Y-55100240D01*
X67635856Y-55100240D02*
X67559666Y-55024049D01*
X67559666Y-55024049D02*
X67521571Y-54947859D01*
X67521571Y-54947859D02*
X67483475Y-54795478D01*
X67483475Y-54795478D02*
X67483475Y-54681192D01*
X67483475Y-54681192D02*
X67521571Y-54528811D01*
X67521571Y-54528811D02*
X67559666Y-54452620D01*
X67559666Y-54452620D02*
X67635856Y-54376430D01*
X67635856Y-54376430D02*
X67750142Y-54338335D01*
X67750142Y-54338335D02*
X67826333Y-54338335D01*
X67826333Y-54338335D02*
X67940618Y-54376430D01*
X67940618Y-54376430D02*
X67978714Y-54414525D01*
X68740618Y-55138335D02*
X68283475Y-55138335D01*
X68512047Y-55138335D02*
X68512047Y-54338335D01*
X68512047Y-54338335D02*
X68435856Y-54452620D01*
X68435856Y-54452620D02*
X68359666Y-54528811D01*
X68359666Y-54528811D02*
X68283475Y-54566906D01*
X69121571Y-55138335D02*
X69273952Y-55138335D01*
X69273952Y-55138335D02*
X69350142Y-55100240D01*
X69350142Y-55100240D02*
X69388238Y-55062144D01*
X69388238Y-55062144D02*
X69464428Y-54947859D01*
X69464428Y-54947859D02*
X69502523Y-54795478D01*
X69502523Y-54795478D02*
X69502523Y-54490716D01*
X69502523Y-54490716D02*
X69464428Y-54414525D01*
X69464428Y-54414525D02*
X69426333Y-54376430D01*
X69426333Y-54376430D02*
X69350142Y-54338335D01*
X69350142Y-54338335D02*
X69197761Y-54338335D01*
X69197761Y-54338335D02*
X69121571Y-54376430D01*
X69121571Y-54376430D02*
X69083476Y-54414525D01*
X69083476Y-54414525D02*
X69045380Y-54490716D01*
X69045380Y-54490716D02*
X69045380Y-54681192D01*
X69045380Y-54681192D02*
X69083476Y-54757382D01*
X69083476Y-54757382D02*
X69121571Y-54795478D01*
X69121571Y-54795478D02*
X69197761Y-54833573D01*
X69197761Y-54833573D02*
X69350142Y-54833573D01*
X69350142Y-54833573D02*
X69426333Y-54795478D01*
X69426333Y-54795478D02*
X69464428Y-54757382D01*
X69464428Y-54757382D02*
X69502523Y-54681192D01*
X63725267Y-80100144D02*
X63687171Y-80138240D01*
X63687171Y-80138240D02*
X63572886Y-80176335D01*
X63572886Y-80176335D02*
X63496695Y-80176335D01*
X63496695Y-80176335D02*
X63382409Y-80138240D01*
X63382409Y-80138240D02*
X63306219Y-80062049D01*
X63306219Y-80062049D02*
X63268124Y-79985859D01*
X63268124Y-79985859D02*
X63230028Y-79833478D01*
X63230028Y-79833478D02*
X63230028Y-79719192D01*
X63230028Y-79719192D02*
X63268124Y-79566811D01*
X63268124Y-79566811D02*
X63306219Y-79490620D01*
X63306219Y-79490620D02*
X63382409Y-79414430D01*
X63382409Y-79414430D02*
X63496695Y-79376335D01*
X63496695Y-79376335D02*
X63572886Y-79376335D01*
X63572886Y-79376335D02*
X63687171Y-79414430D01*
X63687171Y-79414430D02*
X63725267Y-79452525D01*
X63991933Y-79376335D02*
X64487171Y-79376335D01*
X64487171Y-79376335D02*
X64220505Y-79681097D01*
X64220505Y-79681097D02*
X64334790Y-79681097D01*
X64334790Y-79681097D02*
X64410981Y-79719192D01*
X64410981Y-79719192D02*
X64449076Y-79757287D01*
X64449076Y-79757287D02*
X64487171Y-79833478D01*
X64487171Y-79833478D02*
X64487171Y-80023954D01*
X64487171Y-80023954D02*
X64449076Y-80100144D01*
X64449076Y-80100144D02*
X64410981Y-80138240D01*
X64410981Y-80138240D02*
X64334790Y-80176335D01*
X64334790Y-80176335D02*
X64106219Y-80176335D01*
X64106219Y-80176335D02*
X64030028Y-80138240D01*
X64030028Y-80138240D02*
X63991933Y-80100144D01*
X71890476Y-53513335D02*
X71890476Y-54160954D01*
X71890476Y-54160954D02*
X71928571Y-54237144D01*
X71928571Y-54237144D02*
X71966666Y-54275240D01*
X71966666Y-54275240D02*
X72042857Y-54313335D01*
X72042857Y-54313335D02*
X72195238Y-54313335D01*
X72195238Y-54313335D02*
X72271428Y-54275240D01*
X72271428Y-54275240D02*
X72309523Y-54237144D01*
X72309523Y-54237144D02*
X72347619Y-54160954D01*
X72347619Y-54160954D02*
X72347619Y-53513335D01*
X73071428Y-53513335D02*
X72919047Y-53513335D01*
X72919047Y-53513335D02*
X72842856Y-53551430D01*
X72842856Y-53551430D02*
X72804761Y-53589525D01*
X72804761Y-53589525D02*
X72728571Y-53703811D01*
X72728571Y-53703811D02*
X72690475Y-53856192D01*
X72690475Y-53856192D02*
X72690475Y-54160954D01*
X72690475Y-54160954D02*
X72728571Y-54237144D01*
X72728571Y-54237144D02*
X72766666Y-54275240D01*
X72766666Y-54275240D02*
X72842856Y-54313335D01*
X72842856Y-54313335D02*
X72995237Y-54313335D01*
X72995237Y-54313335D02*
X73071428Y-54275240D01*
X73071428Y-54275240D02*
X73109523Y-54237144D01*
X73109523Y-54237144D02*
X73147618Y-54160954D01*
X73147618Y-54160954D02*
X73147618Y-53970478D01*
X73147618Y-53970478D02*
X73109523Y-53894287D01*
X73109523Y-53894287D02*
X73071428Y-53856192D01*
X73071428Y-53856192D02*
X72995237Y-53818097D01*
X72995237Y-53818097D02*
X72842856Y-53818097D01*
X72842856Y-53818097D02*
X72766666Y-53856192D01*
X72766666Y-53856192D02*
X72728571Y-53894287D01*
X72728571Y-53894287D02*
X72690475Y-53970478D01*
X52886714Y-83744735D02*
X52620047Y-83363782D01*
X52429571Y-83744735D02*
X52429571Y-82944735D01*
X52429571Y-82944735D02*
X52734333Y-82944735D01*
X52734333Y-82944735D02*
X52810523Y-82982830D01*
X52810523Y-82982830D02*
X52848618Y-83020925D01*
X52848618Y-83020925D02*
X52886714Y-83097116D01*
X52886714Y-83097116D02*
X52886714Y-83211401D01*
X52886714Y-83211401D02*
X52848618Y-83287592D01*
X52848618Y-83287592D02*
X52810523Y-83325687D01*
X52810523Y-83325687D02*
X52734333Y-83363782D01*
X52734333Y-83363782D02*
X52429571Y-83363782D01*
X53648618Y-83744735D02*
X53191475Y-83744735D01*
X53420047Y-83744735D02*
X53420047Y-82944735D01*
X53420047Y-82944735D02*
X53343856Y-83059020D01*
X53343856Y-83059020D02*
X53267666Y-83135211D01*
X53267666Y-83135211D02*
X53191475Y-83173306D01*
X54334333Y-82944735D02*
X54181952Y-82944735D01*
X54181952Y-82944735D02*
X54105761Y-82982830D01*
X54105761Y-82982830D02*
X54067666Y-83020925D01*
X54067666Y-83020925D02*
X53991476Y-83135211D01*
X53991476Y-83135211D02*
X53953380Y-83287592D01*
X53953380Y-83287592D02*
X53953380Y-83592354D01*
X53953380Y-83592354D02*
X53991476Y-83668544D01*
X53991476Y-83668544D02*
X54029571Y-83706640D01*
X54029571Y-83706640D02*
X54105761Y-83744735D01*
X54105761Y-83744735D02*
X54258142Y-83744735D01*
X54258142Y-83744735D02*
X54334333Y-83706640D01*
X54334333Y-83706640D02*
X54372428Y-83668544D01*
X54372428Y-83668544D02*
X54410523Y-83592354D01*
X54410523Y-83592354D02*
X54410523Y-83401878D01*
X54410523Y-83401878D02*
X54372428Y-83325687D01*
X54372428Y-83325687D02*
X54334333Y-83287592D01*
X54334333Y-83287592D02*
X54258142Y-83249497D01*
X54258142Y-83249497D02*
X54105761Y-83249497D01*
X54105761Y-83249497D02*
X54029571Y-83287592D01*
X54029571Y-83287592D02*
X53991476Y-83325687D01*
X53991476Y-83325687D02*
X53953380Y-83401878D01*
X54330476Y-62353335D02*
X54330476Y-63000954D01*
X54330476Y-63000954D02*
X54368571Y-63077144D01*
X54368571Y-63077144D02*
X54406666Y-63115240D01*
X54406666Y-63115240D02*
X54482857Y-63153335D01*
X54482857Y-63153335D02*
X54635238Y-63153335D01*
X54635238Y-63153335D02*
X54711428Y-63115240D01*
X54711428Y-63115240D02*
X54749523Y-63077144D01*
X54749523Y-63077144D02*
X54787619Y-63000954D01*
X54787619Y-63000954D02*
X54787619Y-62353335D01*
X55511428Y-62620001D02*
X55511428Y-63153335D01*
X55320952Y-62315240D02*
X55130475Y-62886668D01*
X55130475Y-62886668D02*
X55625714Y-62886668D01*
X75336048Y-78449382D02*
X75336048Y-78830335D01*
X75069381Y-78030335D02*
X75336048Y-78449382D01*
X75336048Y-78449382D02*
X75602714Y-78030335D01*
X76288428Y-78830335D02*
X75831285Y-78830335D01*
X76059857Y-78830335D02*
X76059857Y-78030335D01*
X76059857Y-78030335D02*
X75983666Y-78144620D01*
X75983666Y-78144620D02*
X75907476Y-78220811D01*
X75907476Y-78220811D02*
X75831285Y-78258906D01*
X54895810Y-86675535D02*
X54629143Y-86294582D01*
X54438667Y-86675535D02*
X54438667Y-85875535D01*
X54438667Y-85875535D02*
X54743429Y-85875535D01*
X54743429Y-85875535D02*
X54819619Y-85913630D01*
X54819619Y-85913630D02*
X54857714Y-85951725D01*
X54857714Y-85951725D02*
X54895810Y-86027916D01*
X54895810Y-86027916D02*
X54895810Y-86142201D01*
X54895810Y-86142201D02*
X54857714Y-86218392D01*
X54857714Y-86218392D02*
X54819619Y-86256487D01*
X54819619Y-86256487D02*
X54743429Y-86294582D01*
X54743429Y-86294582D02*
X54438667Y-86294582D01*
X55124381Y-85875535D02*
X55391048Y-86675535D01*
X55391048Y-86675535D02*
X55657714Y-85875535D01*
X56343428Y-86675535D02*
X55886285Y-86675535D01*
X56114857Y-86675535D02*
X56114857Y-85875535D01*
X56114857Y-85875535D02*
X56038666Y-85989820D01*
X56038666Y-85989820D02*
X55962476Y-86066011D01*
X55962476Y-86066011D02*
X55886285Y-86104106D01*
X68865810Y-86675535D02*
X68599143Y-86294582D01*
X68408667Y-86675535D02*
X68408667Y-85875535D01*
X68408667Y-85875535D02*
X68713429Y-85875535D01*
X68713429Y-85875535D02*
X68789619Y-85913630D01*
X68789619Y-85913630D02*
X68827714Y-85951725D01*
X68827714Y-85951725D02*
X68865810Y-86027916D01*
X68865810Y-86027916D02*
X68865810Y-86142201D01*
X68865810Y-86142201D02*
X68827714Y-86218392D01*
X68827714Y-86218392D02*
X68789619Y-86256487D01*
X68789619Y-86256487D02*
X68713429Y-86294582D01*
X68713429Y-86294582D02*
X68408667Y-86294582D01*
X69094381Y-85875535D02*
X69361048Y-86675535D01*
X69361048Y-86675535D02*
X69627714Y-85875535D01*
X69856285Y-85951725D02*
X69894381Y-85913630D01*
X69894381Y-85913630D02*
X69970571Y-85875535D01*
X69970571Y-85875535D02*
X70161047Y-85875535D01*
X70161047Y-85875535D02*
X70237238Y-85913630D01*
X70237238Y-85913630D02*
X70275333Y-85951725D01*
X70275333Y-85951725D02*
X70313428Y-86027916D01*
X70313428Y-86027916D02*
X70313428Y-86104106D01*
X70313428Y-86104106D02*
X70275333Y-86218392D01*
X70275333Y-86218392D02*
X69818190Y-86675535D01*
X69818190Y-86675535D02*
X70313428Y-86675535D01*
X60381732Y-47067240D02*
X60496018Y-47105335D01*
X60496018Y-47105335D02*
X60686494Y-47105335D01*
X60686494Y-47105335D02*
X60762685Y-47067240D01*
X60762685Y-47067240D02*
X60800780Y-47029144D01*
X60800780Y-47029144D02*
X60838875Y-46952954D01*
X60838875Y-46952954D02*
X60838875Y-46876763D01*
X60838875Y-46876763D02*
X60800780Y-46800573D01*
X60800780Y-46800573D02*
X60762685Y-46762478D01*
X60762685Y-46762478D02*
X60686494Y-46724382D01*
X60686494Y-46724382D02*
X60534113Y-46686287D01*
X60534113Y-46686287D02*
X60457923Y-46648192D01*
X60457923Y-46648192D02*
X60419828Y-46610097D01*
X60419828Y-46610097D02*
X60381732Y-46533906D01*
X60381732Y-46533906D02*
X60381732Y-46457716D01*
X60381732Y-46457716D02*
X60419828Y-46381525D01*
X60419828Y-46381525D02*
X60457923Y-46343430D01*
X60457923Y-46343430D02*
X60534113Y-46305335D01*
X60534113Y-46305335D02*
X60724590Y-46305335D01*
X60724590Y-46305335D02*
X60838875Y-46343430D01*
X61105542Y-46305335D02*
X61296018Y-47105335D01*
X61296018Y-47105335D02*
X61448399Y-46533906D01*
X61448399Y-46533906D02*
X61600780Y-47105335D01*
X61600780Y-47105335D02*
X61791257Y-46305335D01*
X62515066Y-47105335D02*
X62057923Y-47105335D01*
X62286495Y-47105335D02*
X62286495Y-46305335D01*
X62286495Y-46305335D02*
X62210304Y-46419620D01*
X62210304Y-46419620D02*
X62134114Y-46495811D01*
X62134114Y-46495811D02*
X62057923Y-46533906D01*
D14*
X51205641Y-96902000D02*
X50898359Y-96902000D01*
X51205641Y-97662000D02*
X50898359Y-97662000D01*
X50697641Y-41403000D02*
X50390359Y-41403000D01*
X50697641Y-42163000D02*
X50390359Y-42163000D01*
X50159500Y-95277000D02*
X50159500Y-96747000D01*
X50159500Y-96747000D02*
X52444500Y-96747000D01*
X52444500Y-95277000D02*
X50159500Y-95277000D01*
X57555641Y-55373000D02*
X57248359Y-55373000D01*
X57555641Y-56133000D02*
X57248359Y-56133000D01*
D15*
X49385000Y-98970000D02*
X49385000Y-100470000D01*
X49935000Y-98495000D02*
X53035000Y-98495000D01*
X49945000Y-100720000D02*
X53045000Y-100720000D01*
X53610000Y-98970000D02*
X53610000Y-100470000D01*
X48371000Y-44667000D02*
X48371000Y-43167000D01*
X52036000Y-42917000D02*
X48936000Y-42917000D01*
X52046000Y-45142000D02*
X48946000Y-45142000D01*
X52596000Y-44667000D02*
X52596000Y-43167000D01*
D14*
X62057500Y-74730000D02*
X62057500Y-74280000D01*
X62507500Y-67510000D02*
X62057500Y-67510000D01*
X62507500Y-74730000D02*
X62057500Y-74730000D01*
X68827500Y-67510000D02*
X69277500Y-67510000D01*
X68827500Y-74730000D02*
X69277500Y-74730000D01*
X69277500Y-67510000D02*
X69277500Y-67960000D01*
X69277500Y-74730000D02*
X69277500Y-74280000D01*
X55854600Y-75025800D02*
X53904600Y-75025800D01*
X55854600Y-75025800D02*
X57804600Y-75025800D01*
X55854600Y-80145800D02*
X53904600Y-80145800D01*
X55854600Y-80145800D02*
X57804600Y-80145800D01*
X53154600Y-75120800D02*
X52914600Y-74790800D01*
X53394600Y-74790800D01*
X53154600Y-75120800D01*
G36*
X53154600Y-75120800D02*
G01*
X52914600Y-74790800D01*
X53394600Y-74790800D01*
X53154600Y-75120800D01*
G37*
X62619836Y-65807000D02*
X62404164Y-65807000D01*
X62619836Y-66527000D02*
X62404164Y-66527000D01*
X57144841Y-41403000D02*
X56837559Y-41403000D01*
X57144841Y-42163000D02*
X56837559Y-42163000D01*
D16*
X69195710Y-63699999D02*
G75*
G02*
X69004290Y-63699999I-95710J0D01*
G01*
X69004290Y-63699999D02*
G75*
G02*
X69195710Y-63699999I95710J0D01*
G01*
D14*
X66797600Y-77085364D02*
X66797600Y-77301036D01*
X67517600Y-77085364D02*
X67517600Y-77301036D01*
X70857164Y-71522000D02*
X71072836Y-71522000D01*
X70857164Y-72242000D02*
X71072836Y-72242000D01*
X59534359Y-55373000D02*
X59841641Y-55373000D01*
X59534359Y-56133000D02*
X59841641Y-56133000D01*
X73942164Y-49740000D02*
X74157836Y-49740000D01*
X73942164Y-50460000D02*
X74157836Y-50460000D01*
X69746359Y-63320000D02*
X70053641Y-63320000D01*
X69746359Y-64080000D02*
X70053641Y-64080000D01*
X59896836Y-72792000D02*
X59681164Y-72792000D01*
X59896836Y-73512000D02*
X59681164Y-73512000D01*
X60549200Y-77384964D02*
X60549200Y-77600636D01*
X61269200Y-77384964D02*
X61269200Y-77600636D01*
X63422000Y-76826164D02*
X63422000Y-77041836D01*
X64142000Y-76826164D02*
X64142000Y-77041836D01*
X64156000Y-59737164D02*
X64156000Y-59952836D01*
X64876000Y-59737164D02*
X64876000Y-59952836D01*
X53615000Y-54745836D02*
X53615000Y-54530164D01*
X54335000Y-54745836D02*
X54335000Y-54530164D01*
X49272759Y-74651600D02*
X49580041Y-74651600D01*
X49272759Y-75411600D02*
X49580041Y-75411600D01*
X65178000Y-44010252D02*
X65178000Y-43487748D01*
X66648000Y-44010252D02*
X66648000Y-43487748D01*
X61955000Y-59789748D02*
X61955000Y-61212252D01*
X63775000Y-59789748D02*
X63775000Y-61212252D01*
X48125000Y-49945000D02*
X48220000Y-49945000D01*
X48125000Y-54065000D02*
X48125000Y-49945000D01*
X48220000Y-54065000D02*
X48125000Y-54065000D01*
X53150000Y-49945000D02*
X53245000Y-49945000D01*
X53245000Y-49945000D02*
X53245000Y-54065000D01*
X53245000Y-54065000D02*
X53150000Y-54065000D01*
X48215000Y-54605000D02*
X47885000Y-54845000D01*
X47885000Y-54365000D01*
X48215000Y-54605000D01*
G36*
X48215000Y-54605000D02*
G01*
X47885000Y-54845000D01*
X47885000Y-54365000D01*
X48215000Y-54605000D01*
G37*
X62619836Y-64791000D02*
X62404164Y-64791000D01*
X62619836Y-65511000D02*
X62404164Y-65511000D01*
X49605441Y-77039200D02*
X49298159Y-77039200D01*
X49605441Y-77799200D02*
X49298159Y-77799200D01*
X59571836Y-70633000D02*
X59356164Y-70633000D01*
X59571836Y-71353000D02*
X59356164Y-71353000D01*
X63834742Y-47737500D02*
X64309258Y-47737500D01*
X63834742Y-48782500D02*
X64309258Y-48782500D01*
X65482200Y-76984159D02*
X65482200Y-77291441D01*
X66242200Y-76984159D02*
X66242200Y-77291441D01*
X52327000Y-57176641D02*
X52327000Y-56869359D01*
X53087000Y-57176641D02*
X53087000Y-56869359D01*
X64804236Y-78227600D02*
X64588564Y-78227600D01*
X64804236Y-78947600D02*
X64588564Y-78947600D01*
X69092164Y-58940000D02*
X69307836Y-58940000D01*
X69092164Y-59660000D02*
X69307836Y-59660000D01*
X75088748Y-50815000D02*
X75611252Y-50815000D01*
X75088748Y-52285000D02*
X75611252Y-52285000D01*
X71294164Y-72665000D02*
X71509836Y-72665000D01*
X71294164Y-73385000D02*
X71509836Y-73385000D01*
X69516164Y-75840000D02*
X69731836Y-75840000D01*
X69516164Y-76560000D02*
X69731836Y-76560000D01*
X63431748Y-53240000D02*
X63954252Y-53240000D01*
X63431748Y-54710000D02*
X63954252Y-54710000D01*
X66950764Y-78253000D02*
X67166436Y-78253000D01*
X66950764Y-78973000D02*
X67166436Y-78973000D01*
X59610164Y-53234000D02*
X59825836Y-53234000D01*
X59610164Y-53954000D02*
X59825836Y-53954000D01*
X73740000Y-54240000D02*
X73790000Y-54240000D01*
X73740000Y-56060000D02*
X73740000Y-54240000D01*
X73790000Y-56060000D02*
X73740000Y-56060000D01*
X74910000Y-54240000D02*
X75690000Y-54240000D01*
X76810000Y-54240000D02*
X76860000Y-54240000D01*
X76860000Y-54240000D02*
X76860000Y-56060000D01*
X76860000Y-56060000D02*
X76810000Y-56060000D01*
X73790000Y-56600000D02*
X73460000Y-56840000D01*
X73460000Y-56360000D01*
X73790000Y-56600000D01*
G36*
X73790000Y-56600000D02*
G01*
X73460000Y-56840000D01*
X73460000Y-56360000D01*
X73790000Y-56600000D01*
G37*
X49247359Y-79401400D02*
X49554641Y-79401400D01*
X49247359Y-80161400D02*
X49554641Y-80161400D01*
X54482000Y-57178641D02*
X54482000Y-56871359D01*
X55242000Y-57178641D02*
X55242000Y-56871359D01*
X56380000Y-58330000D02*
X56475000Y-58330000D01*
X56380000Y-62450000D02*
X56380000Y-58330000D01*
X56475000Y-62450000D02*
X56380000Y-62450000D01*
X61405000Y-58330000D02*
X61500000Y-58330000D01*
X61500000Y-58330000D02*
X61500000Y-62450000D01*
X61500000Y-62450000D02*
X61405000Y-62450000D01*
X56470000Y-62990000D02*
X56140000Y-63230000D01*
X56140000Y-62750000D01*
X56470000Y-62990000D01*
G36*
X56470000Y-62990000D02*
G01*
X56140000Y-63230000D01*
X56140000Y-62750000D01*
X56470000Y-62990000D01*
G37*
X74517000Y-77217000D02*
X70517000Y-77217000D01*
X74517000Y-80517000D02*
X74517000Y-77217000D01*
X57268164Y-53234000D02*
X57483836Y-53234000D01*
X57268164Y-53954000D02*
X57483836Y-53954000D01*
X50365000Y-92424200D02*
X50365000Y-87704200D01*
X50375000Y-83894200D02*
X50375000Y-80834200D01*
X51555000Y-92424200D02*
X50375000Y-92424200D01*
X54455000Y-92424200D02*
X53925000Y-92424200D01*
X56905000Y-92424200D02*
X56075000Y-92424200D01*
X60115000Y-80834200D02*
X50375000Y-80834200D01*
X60115000Y-83894200D02*
X60115000Y-80834200D01*
X60115000Y-92424200D02*
X58625000Y-92424200D01*
X60115000Y-92424200D02*
X60115000Y-87704200D01*
X64335000Y-92424200D02*
X64335000Y-87704200D01*
X64345000Y-83894200D02*
X64345000Y-80834200D01*
X65525000Y-92424200D02*
X64345000Y-92424200D01*
X68425000Y-92424200D02*
X67895000Y-92424200D01*
X70875000Y-92424200D02*
X70045000Y-92424200D01*
X74085000Y-80834200D02*
X64345000Y-80834200D01*
X74085000Y-83894200D02*
X74085000Y-80834200D01*
X74085000Y-92424200D02*
X72595000Y-92424200D01*
X74085000Y-92424200D02*
X74085000Y-87704200D01*
X60658836Y-74011200D02*
X60443164Y-74011200D01*
X60658836Y-74731200D02*
X60443164Y-74731200D01*
X65533000Y-63221359D02*
X65533000Y-63528641D01*
X66293000Y-63221359D02*
X66293000Y-63528641D01*
D15*
X54873400Y-44667000D02*
X54873400Y-43167000D01*
X58538400Y-42917000D02*
X55438400Y-42917000D01*
X58548400Y-45142000D02*
X55448400Y-45142000D01*
X59098400Y-44667000D02*
X59098400Y-43167000D01*
D14*
X64390000Y-63221359D02*
X64390000Y-63528641D01*
X65150000Y-63221359D02*
X65150000Y-63528641D01*
X60245258Y-47737500D02*
X59770742Y-47737500D01*
X60245258Y-48782500D02*
X59770742Y-48782500D01*
%LPC*%
G36*
G01*
X51832000Y-97097000D02*
X51832000Y-97467000D01*
G75*
G02*
X51697000Y-97602000I-135000J0D01*
G01*
X51427000Y-97602000D01*
G75*
G02*
X51292000Y-97467000I0J135000D01*
G01*
X51292000Y-97097000D01*
G75*
G02*
X51427000Y-96962000I135000J0D01*
G01*
X51697000Y-96962000D01*
G75*
G02*
X51832000Y-97097000I0J-135000D01*
G01*
G37*
G36*
G01*
X50812000Y-97097000D02*
X50812000Y-97467000D01*
G75*
G02*
X50677000Y-97602000I-135000J0D01*
G01*
X50407000Y-97602000D01*
G75*
G02*
X50272000Y-97467000I0J135000D01*
G01*
X50272000Y-97097000D01*
G75*
G02*
X50407000Y-96962000I135000J0D01*
G01*
X50677000Y-96962000D01*
G75*
G02*
X50812000Y-97097000I0J-135000D01*
G01*
G37*
G36*
G01*
X51324000Y-41598000D02*
X51324000Y-41968000D01*
G75*
G02*
X51189000Y-42103000I-135000J0D01*
G01*
X50919000Y-42103000D01*
G75*
G02*
X50784000Y-41968000I0J135000D01*
G01*
X50784000Y-41598000D01*
G75*
G02*
X50919000Y-41463000I135000J0D01*
G01*
X51189000Y-41463000D01*
G75*
G02*
X51324000Y-41598000I0J-135000D01*
G01*
G37*
G36*
G01*
X50304000Y-41598000D02*
X50304000Y-41968000D01*
G75*
G02*
X50169000Y-42103000I-135000J0D01*
G01*
X49899000Y-42103000D01*
G75*
G02*
X49764000Y-41968000I0J135000D01*
G01*
X49764000Y-41598000D01*
G75*
G02*
X49899000Y-41463000I135000J0D01*
G01*
X50169000Y-41463000D01*
G75*
G02*
X50304000Y-41598000I0J-135000D01*
G01*
G37*
G36*
G01*
X50419500Y-96268250D02*
X50419500Y-95755750D01*
G75*
G02*
X50638250Y-95537000I218750J0D01*
G01*
X51075750Y-95537000D01*
G75*
G02*
X51294500Y-95755750I0J-218750D01*
G01*
X51294500Y-96268250D01*
G75*
G02*
X51075750Y-96487000I-218750J0D01*
G01*
X50638250Y-96487000D01*
G75*
G02*
X50419500Y-96268250I0J218750D01*
G01*
G37*
G36*
G01*
X51994500Y-96268250D02*
X51994500Y-95755750D01*
G75*
G02*
X52213250Y-95537000I218750J0D01*
G01*
X52650750Y-95537000D01*
G75*
G02*
X52869500Y-95755750I0J-218750D01*
G01*
X52869500Y-96268250D01*
G75*
G02*
X52650750Y-96487000I-218750J0D01*
G01*
X52213250Y-96487000D01*
G75*
G02*
X51994500Y-96268250I0J218750D01*
G01*
G37*
G36*
G01*
X58182000Y-55568000D02*
X58182000Y-55938000D01*
G75*
G02*
X58047000Y-56073000I-135000J0D01*
G01*
X57777000Y-56073000D01*
G75*
G02*
X57642000Y-55938000I0J135000D01*
G01*
X57642000Y-55568000D01*
G75*
G02*
X57777000Y-55433000I135000J0D01*
G01*
X58047000Y-55433000D01*
G75*
G02*
X58182000Y-55568000I0J-135000D01*
G01*
G37*
G36*
G01*
X57162000Y-55568000D02*
X57162000Y-55938000D01*
G75*
G02*
X57027000Y-56073000I-135000J0D01*
G01*
X56757000Y-56073000D01*
G75*
G02*
X56622000Y-55938000I0J135000D01*
G01*
X56622000Y-55568000D01*
G75*
G02*
X56757000Y-55433000I135000J0D01*
G01*
X57027000Y-55433000D01*
G75*
G02*
X57162000Y-55568000I0J-135000D01*
G01*
G37*
D17*
X67785000Y-62300000D03*
X68815000Y-62300000D03*
D18*
X49375000Y-98595000D03*
X53575000Y-98595000D03*
X49385000Y-100820000D03*
X53585000Y-100820000D03*
X52606000Y-45042000D03*
X48406000Y-45042000D03*
X52596000Y-42817000D03*
X48396000Y-42817000D03*
G36*
G01*
X71240000Y-66470000D02*
X71240000Y-66130000D01*
G75*
G02*
X71380000Y-65990000I140000J0D01*
G01*
X71660000Y-65990000D01*
G75*
G02*
X71800000Y-66130000I0J-140000D01*
G01*
X71800000Y-66470000D01*
G75*
G02*
X71660000Y-66610000I-140000J0D01*
G01*
X71380000Y-66610000D01*
G75*
G02*
X71240000Y-66470000I0J140000D01*
G01*
G37*
G36*
G01*
X72200000Y-66470000D02*
X72200000Y-66130000D01*
G75*
G02*
X72340000Y-65990000I140000J0D01*
G01*
X72620000Y-65990000D01*
G75*
G02*
X72760000Y-66130000I0J-140000D01*
G01*
X72760000Y-66470000D01*
G75*
G02*
X72620000Y-66610000I-140000J0D01*
G01*
X72340000Y-66610000D01*
G75*
G02*
X72200000Y-66470000I0J140000D01*
G01*
G37*
G36*
X61792500Y-68270000D02*
G01*
X61796306Y-68250866D01*
X61807145Y-68234645D01*
X61823366Y-68223806D01*
X61842500Y-68220000D01*
X62617500Y-68220000D01*
X62667500Y-68270000D01*
X62667500Y-68370000D01*
X62663694Y-68389134D01*
X62652855Y-68405355D01*
X62636634Y-68416194D01*
X62617500Y-68420000D01*
X61842500Y-68420000D01*
X61823366Y-68416194D01*
X61807145Y-68405355D01*
X61796306Y-68389134D01*
X61792500Y-68370000D01*
X61792500Y-68270000D01*
G37*
G36*
G01*
X61792500Y-68770000D02*
X61792500Y-68670000D01*
G75*
G02*
X61842500Y-68620000I50000J0D01*
G01*
X62617500Y-68620000D01*
G75*
G02*
X62667500Y-68670000I0J-50000D01*
G01*
X62667500Y-68770000D01*
G75*
G02*
X62617500Y-68820000I-50000J0D01*
G01*
X61842500Y-68820000D01*
G75*
G02*
X61792500Y-68770000I0J50000D01*
G01*
G37*
G36*
G01*
X61792500Y-69170000D02*
X61792500Y-69070000D01*
G75*
G02*
X61842500Y-69020000I50000J0D01*
G01*
X62617500Y-69020000D01*
G75*
G02*
X62667500Y-69070000I0J-50000D01*
G01*
X62667500Y-69170000D01*
G75*
G02*
X62617500Y-69220000I-50000J0D01*
G01*
X61842500Y-69220000D01*
G75*
G02*
X61792500Y-69170000I0J50000D01*
G01*
G37*
G36*
G01*
X61792500Y-69570000D02*
X61792500Y-69470000D01*
G75*
G02*
X61842500Y-69420000I50000J0D01*
G01*
X62617500Y-69420000D01*
G75*
G02*
X62667500Y-69470000I0J-50000D01*
G01*
X62667500Y-69570000D01*
G75*
G02*
X62617500Y-69620000I-50000J0D01*
G01*
X61842500Y-69620000D01*
G75*
G02*
X61792500Y-69570000I0J50000D01*
G01*
G37*
G36*
G01*
X61792500Y-69970000D02*
X61792500Y-69870000D01*
G75*
G02*
X61842500Y-69820000I50000J0D01*
G01*
X62617500Y-69820000D01*
G75*
G02*
X62667500Y-69870000I0J-50000D01*
G01*
X62667500Y-69970000D01*
G75*
G02*
X62617500Y-70020000I-50000J0D01*
G01*
X61842500Y-70020000D01*
G75*
G02*
X61792500Y-69970000I0J50000D01*
G01*
G37*
G36*
G01*
X61792500Y-70370000D02*
X61792500Y-70270000D01*
G75*
G02*
X61842500Y-70220000I50000J0D01*
G01*
X62617500Y-70220000D01*
G75*
G02*
X62667500Y-70270000I0J-50000D01*
G01*
X62667500Y-70370000D01*
G75*
G02*
X62617500Y-70420000I-50000J0D01*
G01*
X61842500Y-70420000D01*
G75*
G02*
X61792500Y-70370000I0J50000D01*
G01*
G37*
G36*
G01*
X61792500Y-70770000D02*
X61792500Y-70670000D01*
G75*
G02*
X61842500Y-70620000I50000J0D01*
G01*
X62617500Y-70620000D01*
G75*
G02*
X62667500Y-70670000I0J-50000D01*
G01*
X62667500Y-70770000D01*
G75*
G02*
X62617500Y-70820000I-50000J0D01*
G01*
X61842500Y-70820000D01*
G75*
G02*
X61792500Y-70770000I0J50000D01*
G01*
G37*
G36*
G01*
X61792500Y-71170000D02*
X61792500Y-71070000D01*
G75*
G02*
X61842500Y-71020000I50000J0D01*
G01*
X62617500Y-71020000D01*
G75*
G02*
X62667500Y-71070000I0J-50000D01*
G01*
X62667500Y-71170000D01*
G75*
G02*
X62617500Y-71220000I-50000J0D01*
G01*
X61842500Y-71220000D01*
G75*
G02*
X61792500Y-71170000I0J50000D01*
G01*
G37*
G36*
G01*
X61792500Y-71570000D02*
X61792500Y-71470000D01*
G75*
G02*
X61842500Y-71420000I50000J0D01*
G01*
X62617500Y-71420000D01*
G75*
G02*
X62667500Y-71470000I0J-50000D01*
G01*
X62667500Y-71570000D01*
G75*
G02*
X62617500Y-71620000I-50000J0D01*
G01*
X61842500Y-71620000D01*
G75*
G02*
X61792500Y-71570000I0J50000D01*
G01*
G37*
G36*
G01*
X61792500Y-71970000D02*
X61792500Y-71870000D01*
G75*
G02*
X61842500Y-71820000I50000J0D01*
G01*
X62617500Y-71820000D01*
G75*
G02*
X62667500Y-71870000I0J-50000D01*
G01*
X62667500Y-71970000D01*
G75*
G02*
X62617500Y-72020000I-50000J0D01*
G01*
X61842500Y-72020000D01*
G75*
G02*
X61792500Y-71970000I0J50000D01*
G01*
G37*
G36*
G01*
X61792500Y-72370000D02*
X61792500Y-72270000D01*
G75*
G02*
X61842500Y-72220000I50000J0D01*
G01*
X62617500Y-72220000D01*
G75*
G02*
X62667500Y-72270000I0J-50000D01*
G01*
X62667500Y-72370000D01*
G75*
G02*
X62617500Y-72420000I-50000J0D01*
G01*
X61842500Y-72420000D01*
G75*
G02*
X61792500Y-72370000I0J50000D01*
G01*
G37*
G36*
G01*
X61792500Y-72770000D02*
X61792500Y-72670000D01*
G75*
G02*
X61842500Y-72620000I50000J0D01*
G01*
X62617500Y-72620000D01*
G75*
G02*
X62667500Y-72670000I0J-50000D01*
G01*
X62667500Y-72770000D01*
G75*
G02*
X62617500Y-72820000I-50000J0D01*
G01*
X61842500Y-72820000D01*
G75*
G02*
X61792500Y-72770000I0J50000D01*
G01*
G37*
G36*
G01*
X61792500Y-73170000D02*
X61792500Y-73070000D01*
G75*
G02*
X61842500Y-73020000I50000J0D01*
G01*
X62617500Y-73020000D01*
G75*
G02*
X62667500Y-73070000I0J-50000D01*
G01*
X62667500Y-73170000D01*
G75*
G02*
X62617500Y-73220000I-50000J0D01*
G01*
X61842500Y-73220000D01*
G75*
G02*
X61792500Y-73170000I0J50000D01*
G01*
G37*
G36*
G01*
X61792500Y-73570000D02*
X61792500Y-73470000D01*
G75*
G02*
X61842500Y-73420000I50000J0D01*
G01*
X62617500Y-73420000D01*
G75*
G02*
X62667500Y-73470000I0J-50000D01*
G01*
X62667500Y-73570000D01*
G75*
G02*
X62617500Y-73620000I-50000J0D01*
G01*
X61842500Y-73620000D01*
G75*
G02*
X61792500Y-73570000I0J50000D01*
G01*
G37*
G36*
X61792500Y-73870000D02*
G01*
X61796306Y-73850866D01*
X61807145Y-73834645D01*
X61823366Y-73823806D01*
X61842500Y-73820000D01*
X62617500Y-73820000D01*
X62636634Y-73823806D01*
X62652855Y-73834645D01*
X62663694Y-73850866D01*
X62667500Y-73870000D01*
X62667500Y-73970000D01*
X62617500Y-74020000D01*
X61842500Y-74020000D01*
X61823366Y-74016194D01*
X61807145Y-74005355D01*
X61796306Y-73989134D01*
X61792500Y-73970000D01*
X61792500Y-73870000D01*
G37*
G36*
X62767500Y-74170000D02*
G01*
X62817500Y-74120000D01*
X62917500Y-74120000D01*
X62936634Y-74123806D01*
X62952855Y-74134645D01*
X62963694Y-74150866D01*
X62967500Y-74170000D01*
X62967500Y-74945000D01*
X62963694Y-74964134D01*
X62952855Y-74980355D01*
X62936634Y-74991194D01*
X62917500Y-74995000D01*
X62817500Y-74995000D01*
X62798366Y-74991194D01*
X62782145Y-74980355D01*
X62771306Y-74964134D01*
X62767500Y-74945000D01*
X62767500Y-74170000D01*
G37*
G36*
G01*
X63167500Y-74945000D02*
X63167500Y-74170000D01*
G75*
G02*
X63217500Y-74120000I50000J0D01*
G01*
X63317500Y-74120000D01*
G75*
G02*
X63367500Y-74170000I0J-50000D01*
G01*
X63367500Y-74945000D01*
G75*
G02*
X63317500Y-74995000I-50000J0D01*
G01*
X63217500Y-74995000D01*
G75*
G02*
X63167500Y-74945000I0J50000D01*
G01*
G37*
G36*
G01*
X63567500Y-74945000D02*
X63567500Y-74170000D01*
G75*
G02*
X63617500Y-74120000I50000J0D01*
G01*
X63717500Y-74120000D01*
G75*
G02*
X63767500Y-74170000I0J-50000D01*
G01*
X63767500Y-74945000D01*
G75*
G02*
X63717500Y-74995000I-50000J0D01*
G01*
X63617500Y-74995000D01*
G75*
G02*
X63567500Y-74945000I0J50000D01*
G01*
G37*
G36*
G01*
X63967500Y-74945000D02*
X63967500Y-74170000D01*
G75*
G02*
X64017500Y-74120000I50000J0D01*
G01*
X64117500Y-74120000D01*
G75*
G02*
X64167500Y-74170000I0J-50000D01*
G01*
X64167500Y-74945000D01*
G75*
G02*
X64117500Y-74995000I-50000J0D01*
G01*
X64017500Y-74995000D01*
G75*
G02*
X63967500Y-74945000I0J50000D01*
G01*
G37*
G36*
G01*
X64367500Y-74945000D02*
X64367500Y-74170000D01*
G75*
G02*
X64417500Y-74120000I50000J0D01*
G01*
X64517500Y-74120000D01*
G75*
G02*
X64567500Y-74170000I0J-50000D01*
G01*
X64567500Y-74945000D01*
G75*
G02*
X64517500Y-74995000I-50000J0D01*
G01*
X64417500Y-74995000D01*
G75*
G02*
X64367500Y-74945000I0J50000D01*
G01*
G37*
G36*
G01*
X64767500Y-74945000D02*
X64767500Y-74170000D01*
G75*
G02*
X64817500Y-74120000I50000J0D01*
G01*
X64917500Y-74120000D01*
G75*
G02*
X64967500Y-74170000I0J-50000D01*
G01*
X64967500Y-74945000D01*
G75*
G02*
X64917500Y-74995000I-50000J0D01*
G01*
X64817500Y-74995000D01*
G75*
G02*
X64767500Y-74945000I0J50000D01*
G01*
G37*
G36*
G01*
X65167500Y-74945000D02*
X65167500Y-74170000D01*
G75*
G02*
X65217500Y-74120000I50000J0D01*
G01*
X65317500Y-74120000D01*
G75*
G02*
X65367500Y-74170000I0J-50000D01*
G01*
X65367500Y-74945000D01*
G75*
G02*
X65317500Y-74995000I-50000J0D01*
G01*
X65217500Y-74995000D01*
G75*
G02*
X65167500Y-74945000I0J50000D01*
G01*
G37*
G36*
G01*
X65567500Y-74945000D02*
X65567500Y-74170000D01*
G75*
G02*
X65617500Y-74120000I50000J0D01*
G01*
X65717500Y-74120000D01*
G75*
G02*
X65767500Y-74170000I0J-50000D01*
G01*
X65767500Y-74945000D01*
G75*
G02*
X65717500Y-74995000I-50000J0D01*
G01*
X65617500Y-74995000D01*
G75*
G02*
X65567500Y-74945000I0J50000D01*
G01*
G37*
G36*
G01*
X65967500Y-74945000D02*
X65967500Y-74170000D01*
G75*
G02*
X66017500Y-74120000I50000J0D01*
G01*
X66117500Y-74120000D01*
G75*
G02*
X66167500Y-74170000I0J-50000D01*
G01*
X66167500Y-74945000D01*
G75*
G02*
X66117500Y-74995000I-50000J0D01*
G01*
X66017500Y-74995000D01*
G75*
G02*
X65967500Y-74945000I0J50000D01*
G01*
G37*
G36*
G01*
X66367500Y-74945000D02*
X66367500Y-74170000D01*
G75*
G02*
X66417500Y-74120000I50000J0D01*
G01*
X66517500Y-74120000D01*
G75*
G02*
X66567500Y-74170000I0J-50000D01*
G01*
X66567500Y-74945000D01*
G75*
G02*
X66517500Y-74995000I-50000J0D01*
G01*
X66417500Y-74995000D01*
G75*
G02*
X66367500Y-74945000I0J50000D01*
G01*
G37*
G36*
G01*
X66767500Y-74945000D02*
X66767500Y-74170000D01*
G75*
G02*
X66817500Y-74120000I50000J0D01*
G01*
X66917500Y-74120000D01*
G75*
G02*
X66967500Y-74170000I0J-50000D01*
G01*
X66967500Y-74945000D01*
G75*
G02*
X66917500Y-74995000I-50000J0D01*
G01*
X66817500Y-74995000D01*
G75*
G02*
X66767500Y-74945000I0J50000D01*
G01*
G37*
G36*
G01*
X67167500Y-74945000D02*
X67167500Y-74170000D01*
G75*
G02*
X67217500Y-74120000I50000J0D01*
G01*
X67317500Y-74120000D01*
G75*
G02*
X67367500Y-74170000I0J-50000D01*
G01*
X67367500Y-74945000D01*
G75*
G02*
X67317500Y-74995000I-50000J0D01*
G01*
X67217500Y-74995000D01*
G75*
G02*
X67167500Y-74945000I0J50000D01*
G01*
G37*
G36*
G01*
X67567500Y-74945000D02*
X67567500Y-74170000D01*
G75*
G02*
X67617500Y-74120000I50000J0D01*
G01*
X67717500Y-74120000D01*
G75*
G02*
X67767500Y-74170000I0J-50000D01*
G01*
X67767500Y-74945000D01*
G75*
G02*
X67717500Y-74995000I-50000J0D01*
G01*
X67617500Y-74995000D01*
G75*
G02*
X67567500Y-74945000I0J50000D01*
G01*
G37*
G36*
G01*
X67967500Y-74945000D02*
X67967500Y-74170000D01*
G75*
G02*
X68017500Y-74120000I50000J0D01*
G01*
X68117500Y-74120000D01*
G75*
G02*
X68167500Y-74170000I0J-50000D01*
G01*
X68167500Y-74945000D01*
G75*
G02*
X68117500Y-74995000I-50000J0D01*
G01*
X68017500Y-74995000D01*
G75*
G02*
X67967500Y-74945000I0J50000D01*
G01*
G37*
G36*
X68367500Y-74170000D02*
G01*
X68371306Y-74150866D01*
X68382145Y-74134645D01*
X68398366Y-74123806D01*
X68417500Y-74120000D01*
X68517500Y-74120000D01*
X68567500Y-74170000D01*
X68567500Y-74945000D01*
X68563694Y-74964134D01*
X68552855Y-74980355D01*
X68536634Y-74991194D01*
X68517500Y-74995000D01*
X68417500Y-74995000D01*
X68398366Y-74991194D01*
X68382145Y-74980355D01*
X68371306Y-74964134D01*
X68367500Y-74945000D01*
X68367500Y-74170000D01*
G37*
G36*
X68667500Y-73870000D02*
G01*
X68671306Y-73850866D01*
X68682145Y-73834645D01*
X68698366Y-73823806D01*
X68717500Y-73820000D01*
X69492500Y-73820000D01*
X69511634Y-73823806D01*
X69527855Y-73834645D01*
X69538694Y-73850866D01*
X69542500Y-73870000D01*
X69542500Y-73970000D01*
X69538694Y-73989134D01*
X69527855Y-74005355D01*
X69511634Y-74016194D01*
X69492500Y-74020000D01*
X68717500Y-74020000D01*
X68667500Y-73970000D01*
X68667500Y-73870000D01*
G37*
G36*
G01*
X68667500Y-73570000D02*
X68667500Y-73470000D01*
G75*
G02*
X68717500Y-73420000I50000J0D01*
G01*
X69492500Y-73420000D01*
G75*
G02*
X69542500Y-73470000I0J-50000D01*
G01*
X69542500Y-73570000D01*
G75*
G02*
X69492500Y-73620000I-50000J0D01*
G01*
X68717500Y-73620000D01*
G75*
G02*
X68667500Y-73570000I0J50000D01*
G01*
G37*
G36*
G01*
X68667500Y-73170000D02*
X68667500Y-73070000D01*
G75*
G02*
X68717500Y-73020000I50000J0D01*
G01*
X69492500Y-73020000D01*
G75*
G02*
X69542500Y-73070000I0J-50000D01*
G01*
X69542500Y-73170000D01*
G75*
G02*
X69492500Y-73220000I-50000J0D01*
G01*
X68717500Y-73220000D01*
G75*
G02*
X68667500Y-73170000I0J50000D01*
G01*
G37*
G36*
G01*
X68667500Y-72770000D02*
X68667500Y-72670000D01*
G75*
G02*
X68717500Y-72620000I50000J0D01*
G01*
X69492500Y-72620000D01*
G75*
G02*
X69542500Y-72670000I0J-50000D01*
G01*
X69542500Y-72770000D01*
G75*
G02*
X69492500Y-72820000I-50000J0D01*
G01*
X68717500Y-72820000D01*
G75*
G02*
X68667500Y-72770000I0J50000D01*
G01*
G37*
G36*
G01*
X68667500Y-72370000D02*
X68667500Y-72270000D01*
G75*
G02*
X68717500Y-72220000I50000J0D01*
G01*
X69492500Y-72220000D01*
G75*
G02*
X69542500Y-72270000I0J-50000D01*
G01*
X69542500Y-72370000D01*
G75*
G02*
X69492500Y-72420000I-50000J0D01*
G01*
X68717500Y-72420000D01*
G75*
G02*
X68667500Y-72370000I0J50000D01*
G01*
G37*
G36*
G01*
X68667500Y-71970000D02*
X68667500Y-71870000D01*
G75*
G02*
X68717500Y-71820000I50000J0D01*
G01*
X69492500Y-71820000D01*
G75*
G02*
X69542500Y-71870000I0J-50000D01*
G01*
X69542500Y-71970000D01*
G75*
G02*
X69492500Y-72020000I-50000J0D01*
G01*
X68717500Y-72020000D01*
G75*
G02*
X68667500Y-71970000I0J50000D01*
G01*
G37*
G36*
G01*
X68667500Y-71570000D02*
X68667500Y-71470000D01*
G75*
G02*
X68717500Y-71420000I50000J0D01*
G01*
X69492500Y-71420000D01*
G75*
G02*
X69542500Y-71470000I0J-50000D01*
G01*
X69542500Y-71570000D01*
G75*
G02*
X69492500Y-71620000I-50000J0D01*
G01*
X68717500Y-71620000D01*
G75*
G02*
X68667500Y-71570000I0J50000D01*
G01*
G37*
G36*
G01*
X68667500Y-71170000D02*
X68667500Y-71070000D01*
G75*
G02*
X68717500Y-71020000I50000J0D01*
G01*
X69492500Y-71020000D01*
G75*
G02*
X69542500Y-71070000I0J-50000D01*
G01*
X69542500Y-71170000D01*
G75*
G02*
X69492500Y-71220000I-50000J0D01*
G01*
X68717500Y-71220000D01*
G75*
G02*
X68667500Y-71170000I0J50000D01*
G01*
G37*
G36*
G01*
X68667500Y-70770000D02*
X68667500Y-70670000D01*
G75*
G02*
X68717500Y-70620000I50000J0D01*
G01*
X69492500Y-70620000D01*
G75*
G02*
X69542500Y-70670000I0J-50000D01*
G01*
X69542500Y-70770000D01*
G75*
G02*
X69492500Y-70820000I-50000J0D01*
G01*
X68717500Y-70820000D01*
G75*
G02*
X68667500Y-70770000I0J50000D01*
G01*
G37*
G36*
G01*
X68667500Y-70370000D02*
X68667500Y-70270000D01*
G75*
G02*
X68717500Y-70220000I50000J0D01*
G01*
X69492500Y-70220000D01*
G75*
G02*
X69542500Y-70270000I0J-50000D01*
G01*
X69542500Y-70370000D01*
G75*
G02*
X69492500Y-70420000I-50000J0D01*
G01*
X68717500Y-70420000D01*
G75*
G02*
X68667500Y-70370000I0J50000D01*
G01*
G37*
G36*
G01*
X68667500Y-69970000D02*
X68667500Y-69870000D01*
G75*
G02*
X68717500Y-69820000I50000J0D01*
G01*
X69492500Y-69820000D01*
G75*
G02*
X69542500Y-69870000I0J-50000D01*
G01*
X69542500Y-69970000D01*
G75*
G02*
X69492500Y-70020000I-50000J0D01*
G01*
X68717500Y-70020000D01*
G75*
G02*
X68667500Y-69970000I0J50000D01*
G01*
G37*
G36*
G01*
X68667500Y-69570000D02*
X68667500Y-69470000D01*
G75*
G02*
X68717500Y-69420000I50000J0D01*
G01*
X69492500Y-69420000D01*
G75*
G02*
X69542500Y-69470000I0J-50000D01*
G01*
X69542500Y-69570000D01*
G75*
G02*
X69492500Y-69620000I-50000J0D01*
G01*
X68717500Y-69620000D01*
G75*
G02*
X68667500Y-69570000I0J50000D01*
G01*
G37*
G36*
G01*
X68667500Y-69170000D02*
X68667500Y-69070000D01*
G75*
G02*
X68717500Y-69020000I50000J0D01*
G01*
X69492500Y-69020000D01*
G75*
G02*
X69542500Y-69070000I0J-50000D01*
G01*
X69542500Y-69170000D01*
G75*
G02*
X69492500Y-69220000I-50000J0D01*
G01*
X68717500Y-69220000D01*
G75*
G02*
X68667500Y-69170000I0J50000D01*
G01*
G37*
G36*
G01*
X68667500Y-68770000D02*
X68667500Y-68670000D01*
G75*
G02*
X68717500Y-68620000I50000J0D01*
G01*
X69492500Y-68620000D01*
G75*
G02*
X69542500Y-68670000I0J-50000D01*
G01*
X69542500Y-68770000D01*
G75*
G02*
X69492500Y-68820000I-50000J0D01*
G01*
X68717500Y-68820000D01*
G75*
G02*
X68667500Y-68770000I0J50000D01*
G01*
G37*
G36*
X68667500Y-68270000D02*
G01*
X68717500Y-68220000D01*
X69492500Y-68220000D01*
X69511634Y-68223806D01*
X69527855Y-68234645D01*
X69538694Y-68250866D01*
X69542500Y-68270000D01*
X69542500Y-68370000D01*
X69538694Y-68389134D01*
X69527855Y-68405355D01*
X69511634Y-68416194D01*
X69492500Y-68420000D01*
X68717500Y-68420000D01*
X68698366Y-68416194D01*
X68682145Y-68405355D01*
X68671306Y-68389134D01*
X68667500Y-68370000D01*
X68667500Y-68270000D01*
G37*
G36*
X68367500Y-67295000D02*
G01*
X68371306Y-67275866D01*
X68382145Y-67259645D01*
X68398366Y-67248806D01*
X68417500Y-67245000D01*
X68517500Y-67245000D01*
X68536634Y-67248806D01*
X68552855Y-67259645D01*
X68563694Y-67275866D01*
X68567500Y-67295000D01*
X68567500Y-68070000D01*
X68517500Y-68120000D01*
X68417500Y-68120000D01*
X68398366Y-68116194D01*
X68382145Y-68105355D01*
X68371306Y-68089134D01*
X68367500Y-68070000D01*
X68367500Y-67295000D01*
G37*
G36*
G01*
X67967500Y-68070000D02*
X67967500Y-67295000D01*
G75*
G02*
X68017500Y-67245000I50000J0D01*
G01*
X68117500Y-67245000D01*
G75*
G02*
X68167500Y-67295000I0J-50000D01*
G01*
X68167500Y-68070000D01*
G75*
G02*
X68117500Y-68120000I-50000J0D01*
G01*
X68017500Y-68120000D01*
G75*
G02*
X67967500Y-68070000I0J50000D01*
G01*
G37*
G36*
G01*
X67567500Y-68070000D02*
X67567500Y-67295000D01*
G75*
G02*
X67617500Y-67245000I50000J0D01*
G01*
X67717500Y-67245000D01*
G75*
G02*
X67767500Y-67295000I0J-50000D01*
G01*
X67767500Y-68070000D01*
G75*
G02*
X67717500Y-68120000I-50000J0D01*
G01*
X67617500Y-68120000D01*
G75*
G02*
X67567500Y-68070000I0J50000D01*
G01*
G37*
G36*
G01*
X67167500Y-68070000D02*
X67167500Y-67295000D01*
G75*
G02*
X67217500Y-67245000I50000J0D01*
G01*
X67317500Y-67245000D01*
G75*
G02*
X67367500Y-67295000I0J-50000D01*
G01*
X67367500Y-68070000D01*
G75*
G02*
X67317500Y-68120000I-50000J0D01*
G01*
X67217500Y-68120000D01*
G75*
G02*
X67167500Y-68070000I0J50000D01*
G01*
G37*
G36*
G01*
X66767500Y-68070000D02*
X66767500Y-67295000D01*
G75*
G02*
X66817500Y-67245000I50000J0D01*
G01*
X66917500Y-67245000D01*
G75*
G02*
X66967500Y-67295000I0J-50000D01*
G01*
X66967500Y-68070000D01*
G75*
G02*
X66917500Y-68120000I-50000J0D01*
G01*
X66817500Y-68120000D01*
G75*
G02*
X66767500Y-68070000I0J50000D01*
G01*
G37*
G36*
G01*
X66367500Y-68070000D02*
X66367500Y-67295000D01*
G75*
G02*
X66417500Y-67245000I50000J0D01*
G01*
X66517500Y-67245000D01*
G75*
G02*
X66567500Y-67295000I0J-50000D01*
G01*
X66567500Y-68070000D01*
G75*
G02*
X66517500Y-68120000I-50000J0D01*
G01*
X66417500Y-68120000D01*
G75*
G02*
X66367500Y-68070000I0J50000D01*
G01*
G37*
G36*
G01*
X65967500Y-68070000D02*
X65967500Y-67295000D01*
G75*
G02*
X66017500Y-67245000I50000J0D01*
G01*
X66117500Y-67245000D01*
G75*
G02*
X66167500Y-67295000I0J-50000D01*
G01*
X66167500Y-68070000D01*
G75*
G02*
X66117500Y-68120000I-50000J0D01*
G01*
X66017500Y-68120000D01*
G75*
G02*
X65967500Y-68070000I0J50000D01*
G01*
G37*
G36*
G01*
X65567500Y-68070000D02*
X65567500Y-67295000D01*
G75*
G02*
X65617500Y-67245000I50000J0D01*
G01*
X65717500Y-67245000D01*
G75*
G02*
X65767500Y-67295000I0J-50000D01*
G01*
X65767500Y-68070000D01*
G75*
G02*
X65717500Y-68120000I-50000J0D01*
G01*
X65617500Y-68120000D01*
G75*
G02*
X65567500Y-68070000I0J50000D01*
G01*
G37*
G36*
G01*
X65167500Y-68070000D02*
X65167500Y-67295000D01*
G75*
G02*
X65217500Y-67245000I50000J0D01*
G01*
X65317500Y-67245000D01*
G75*
G02*
X65367500Y-67295000I0J-50000D01*
G01*
X65367500Y-68070000D01*
G75*
G02*
X65317500Y-68120000I-50000J0D01*
G01*
X65217500Y-68120000D01*
G75*
G02*
X65167500Y-68070000I0J50000D01*
G01*
G37*
G36*
G01*
X64767500Y-68070000D02*
X64767500Y-67295000D01*
G75*
G02*
X64817500Y-67245000I50000J0D01*
G01*
X64917500Y-67245000D01*
G75*
G02*
X64967500Y-67295000I0J-50000D01*
G01*
X64967500Y-68070000D01*
G75*
G02*
X64917500Y-68120000I-50000J0D01*
G01*
X64817500Y-68120000D01*
G75*
G02*
X64767500Y-68070000I0J50000D01*
G01*
G37*
G36*
G01*
X64367500Y-68070000D02*
X64367500Y-67295000D01*
G75*
G02*
X64417500Y-67245000I50000J0D01*
G01*
X64517500Y-67245000D01*
G75*
G02*
X64567500Y-67295000I0J-50000D01*
G01*
X64567500Y-68070000D01*
G75*
G02*
X64517500Y-68120000I-50000J0D01*
G01*
X64417500Y-68120000D01*
G75*
G02*
X64367500Y-68070000I0J50000D01*
G01*
G37*
G36*
G01*
X63967500Y-68070000D02*
X63967500Y-67295000D01*
G75*
G02*
X64017500Y-67245000I50000J0D01*
G01*
X64117500Y-67245000D01*
G75*
G02*
X64167500Y-67295000I0J-50000D01*
G01*
X64167500Y-68070000D01*
G75*
G02*
X64117500Y-68120000I-50000J0D01*
G01*
X64017500Y-68120000D01*
G75*
G02*
X63967500Y-68070000I0J50000D01*
G01*
G37*
G36*
G01*
X63567500Y-68070000D02*
X63567500Y-67295000D01*
G75*
G02*
X63617500Y-67245000I50000J0D01*
G01*
X63717500Y-67245000D01*
G75*
G02*
X63767500Y-67295000I0J-50000D01*
G01*
X63767500Y-68070000D01*
G75*
G02*
X63717500Y-68120000I-50000J0D01*
G01*
X63617500Y-68120000D01*
G75*
G02*
X63567500Y-68070000I0J50000D01*
G01*
G37*
G36*
G01*
X63167500Y-68070000D02*
X63167500Y-67295000D01*
G75*
G02*
X63217500Y-67245000I50000J0D01*
G01*
X63317500Y-67245000D01*
G75*
G02*
X63367500Y-67295000I0J-50000D01*
G01*
X63367500Y-68070000D01*
G75*
G02*
X63317500Y-68120000I-50000J0D01*
G01*
X63217500Y-68120000D01*
G75*
G02*
X63167500Y-68070000I0J50000D01*
G01*
G37*
G36*
X62767500Y-67295000D02*
G01*
X62771306Y-67275866D01*
X62782145Y-67259645D01*
X62798366Y-67248806D01*
X62817500Y-67245000D01*
X62917500Y-67245000D01*
X62936634Y-67248806D01*
X62952855Y-67259645D01*
X62963694Y-67275866D01*
X62967500Y-67295000D01*
X62967500Y-68070000D01*
X62963694Y-68089134D01*
X62952855Y-68105355D01*
X62936634Y-68116194D01*
X62917500Y-68120000D01*
X62817500Y-68120000D01*
X62767500Y-68070000D01*
X62767500Y-67295000D01*
G37*
G36*
G01*
X67214500Y-72820000D02*
X64120500Y-72820000D01*
G75*
G02*
X63967500Y-72667000I0J153000D01*
G01*
X63967500Y-69573000D01*
G75*
G02*
X64120500Y-69420000I153000J0D01*
G01*
X67214500Y-69420000D01*
G75*
G02*
X67367500Y-69573000I0J-153000D01*
G01*
X67367500Y-72667000D01*
G75*
G02*
X67214500Y-72820000I-153000J0D01*
G01*
G37*
G36*
G01*
X52079600Y-75880800D02*
X52079600Y-75480800D01*
G75*
G02*
X52279600Y-75280800I200000J0D01*
G01*
X54479600Y-75280800D01*
G75*
G02*
X54679600Y-75480800I0J-200000D01*
G01*
X54679600Y-75880800D01*
G75*
G02*
X54479600Y-76080800I-200000J0D01*
G01*
X52279600Y-76080800D01*
G75*
G02*
X52079600Y-75880800I0J200000D01*
G01*
G37*
G36*
G01*
X52079600Y-77150800D02*
X52079600Y-76750800D01*
G75*
G02*
X52279600Y-76550800I200000J0D01*
G01*
X54479600Y-76550800D01*
G75*
G02*
X54679600Y-76750800I0J-200000D01*
G01*
X54679600Y-77150800D01*
G75*
G02*
X54479600Y-77350800I-200000J0D01*
G01*
X52279600Y-77350800D01*
G75*
G02*
X52079600Y-77150800I0J200000D01*
G01*
G37*
G36*
G01*
X52079600Y-78420800D02*
X52079600Y-78020800D01*
G75*
G02*
X52279600Y-77820800I200000J0D01*
G01*
X54479600Y-77820800D01*
G75*
G02*
X54679600Y-78020800I0J-200000D01*
G01*
X54679600Y-78420800D01*
G75*
G02*
X54479600Y-78620800I-200000J0D01*
G01*
X52279600Y-78620800D01*
G75*
G02*
X52079600Y-78420800I0J200000D01*
G01*
G37*
G36*
G01*
X52079600Y-79690800D02*
X52079600Y-79290800D01*
G75*
G02*
X52279600Y-79090800I200000J0D01*
G01*
X54479600Y-79090800D01*
G75*
G02*
X54679600Y-79290800I0J-200000D01*
G01*
X54679600Y-79690800D01*
G75*
G02*
X54479600Y-79890800I-200000J0D01*
G01*
X52279600Y-79890800D01*
G75*
G02*
X52079600Y-79690800I0J200000D01*
G01*
G37*
G36*
G01*
X57029600Y-79690800D02*
X57029600Y-79290800D01*
G75*
G02*
X57229600Y-79090800I200000J0D01*
G01*
X59429600Y-79090800D01*
G75*
G02*
X59629600Y-79290800I0J-200000D01*
G01*
X59629600Y-79690800D01*
G75*
G02*
X59429600Y-79890800I-200000J0D01*
G01*
X57229600Y-79890800D01*
G75*
G02*
X57029600Y-79690800I0J200000D01*
G01*
G37*
G36*
G01*
X57029600Y-78420800D02*
X57029600Y-78020800D01*
G75*
G02*
X57229600Y-77820800I200000J0D01*
G01*
X59429600Y-77820800D01*
G75*
G02*
X59629600Y-78020800I0J-200000D01*
G01*
X59629600Y-78420800D01*
G75*
G02*
X59429600Y-78620800I-200000J0D01*
G01*
X57229600Y-78620800D01*
G75*
G02*
X57029600Y-78420800I0J200000D01*
G01*
G37*
G36*
G01*
X57029600Y-77150800D02*
X57029600Y-76750800D01*
G75*
G02*
X57229600Y-76550800I200000J0D01*
G01*
X59429600Y-76550800D01*
G75*
G02*
X59629600Y-76750800I0J-200000D01*
G01*
X59629600Y-77150800D01*
G75*
G02*
X59429600Y-77350800I-200000J0D01*
G01*
X57229600Y-77350800D01*
G75*
G02*
X57029600Y-77150800I0J200000D01*
G01*
G37*
G36*
G01*
X57029600Y-75880800D02*
X57029600Y-75480800D01*
G75*
G02*
X57229600Y-75280800I200000J0D01*
G01*
X59429600Y-75280800D01*
G75*
G02*
X59629600Y-75480800I0J-200000D01*
G01*
X59629600Y-75880800D01*
G75*
G02*
X59429600Y-76080800I-200000J0D01*
G01*
X57229600Y-76080800D01*
G75*
G02*
X57029600Y-75880800I0J200000D01*
G01*
G37*
G36*
G01*
X63272000Y-65997000D02*
X63272000Y-66337000D01*
G75*
G02*
X63132000Y-66477000I-140000J0D01*
G01*
X62852000Y-66477000D01*
G75*
G02*
X62712000Y-66337000I0J140000D01*
G01*
X62712000Y-65997000D01*
G75*
G02*
X62852000Y-65857000I140000J0D01*
G01*
X63132000Y-65857000D01*
G75*
G02*
X63272000Y-65997000I0J-140000D01*
G01*
G37*
G36*
G01*
X62312000Y-65997000D02*
X62312000Y-66337000D01*
G75*
G02*
X62172000Y-66477000I-140000J0D01*
G01*
X61892000Y-66477000D01*
G75*
G02*
X61752000Y-66337000I0J140000D01*
G01*
X61752000Y-65997000D01*
G75*
G02*
X61892000Y-65857000I140000J0D01*
G01*
X62172000Y-65857000D01*
G75*
G02*
X62312000Y-65997000I0J-140000D01*
G01*
G37*
G36*
G01*
X57771200Y-41598000D02*
X57771200Y-41968000D01*
G75*
G02*
X57636200Y-42103000I-135000J0D01*
G01*
X57366200Y-42103000D01*
G75*
G02*
X57231200Y-41968000I0J135000D01*
G01*
X57231200Y-41598000D01*
G75*
G02*
X57366200Y-41463000I135000J0D01*
G01*
X57636200Y-41463000D01*
G75*
G02*
X57771200Y-41598000I0J-135000D01*
G01*
G37*
G36*
G01*
X56751200Y-41598000D02*
X56751200Y-41968000D01*
G75*
G02*
X56616200Y-42103000I-135000J0D01*
G01*
X56346200Y-42103000D01*
G75*
G02*
X56211200Y-41968000I0J135000D01*
G01*
X56211200Y-41598000D01*
G75*
G02*
X56346200Y-41463000I135000J0D01*
G01*
X56616200Y-41463000D01*
G75*
G02*
X56751200Y-41598000I0J-135000D01*
G01*
G37*
D19*
X75026000Y-46869000D03*
X69246000Y-46869000D03*
D20*
X75361000Y-48314000D03*
X74586000Y-48314000D03*
D21*
X73386000Y-48314000D03*
X72386000Y-48314000D03*
X71886000Y-48314000D03*
X70886000Y-48314000D03*
D20*
X69686000Y-48314000D03*
X68911000Y-48314000D03*
D21*
X70386000Y-48314000D03*
X71386000Y-48314000D03*
X72886000Y-48314000D03*
X73886000Y-48314000D03*
D22*
X76456000Y-47399000D03*
D23*
X76456000Y-43219000D03*
D22*
X67816000Y-47399000D03*
D23*
X67816000Y-43219000D03*
D24*
X67800000Y-63899999D03*
X67800000Y-65899999D03*
G36*
G01*
X66987600Y-76433200D02*
X67327600Y-76433200D01*
G75*
G02*
X67467600Y-76573200I0J-140000D01*
G01*
X67467600Y-76853200D01*
G75*
G02*
X67327600Y-76993200I-140000J0D01*
G01*
X66987600Y-76993200D01*
G75*
G02*
X66847600Y-76853200I0J140000D01*
G01*
X66847600Y-76573200D01*
G75*
G02*
X66987600Y-76433200I140000J0D01*
G01*
G37*
G36*
G01*
X66987600Y-77393200D02*
X67327600Y-77393200D01*
G75*
G02*
X67467600Y-77533200I0J-140000D01*
G01*
X67467600Y-77813200D01*
G75*
G02*
X67327600Y-77953200I-140000J0D01*
G01*
X66987600Y-77953200D01*
G75*
G02*
X66847600Y-77813200I0J140000D01*
G01*
X66847600Y-77533200D01*
G75*
G02*
X66987600Y-77393200I140000J0D01*
G01*
G37*
G36*
G01*
X70205000Y-72052000D02*
X70205000Y-71712000D01*
G75*
G02*
X70345000Y-71572000I140000J0D01*
G01*
X70625000Y-71572000D01*
G75*
G02*
X70765000Y-71712000I0J-140000D01*
G01*
X70765000Y-72052000D01*
G75*
G02*
X70625000Y-72192000I-140000J0D01*
G01*
X70345000Y-72192000D01*
G75*
G02*
X70205000Y-72052000I0J140000D01*
G01*
G37*
G36*
G01*
X71165000Y-72052000D02*
X71165000Y-71712000D01*
G75*
G02*
X71305000Y-71572000I140000J0D01*
G01*
X71585000Y-71572000D01*
G75*
G02*
X71725000Y-71712000I0J-140000D01*
G01*
X71725000Y-72052000D01*
G75*
G02*
X71585000Y-72192000I-140000J0D01*
G01*
X71305000Y-72192000D01*
G75*
G02*
X71165000Y-72052000I0J140000D01*
G01*
G37*
G36*
G01*
X58908000Y-55938000D02*
X58908000Y-55568000D01*
G75*
G02*
X59043000Y-55433000I135000J0D01*
G01*
X59313000Y-55433000D01*
G75*
G02*
X59448000Y-55568000I0J-135000D01*
G01*
X59448000Y-55938000D01*
G75*
G02*
X59313000Y-56073000I-135000J0D01*
G01*
X59043000Y-56073000D01*
G75*
G02*
X58908000Y-55938000I0J135000D01*
G01*
G37*
G36*
G01*
X59928000Y-55938000D02*
X59928000Y-55568000D01*
G75*
G02*
X60063000Y-55433000I135000J0D01*
G01*
X60333000Y-55433000D01*
G75*
G02*
X60468000Y-55568000I0J-135000D01*
G01*
X60468000Y-55938000D01*
G75*
G02*
X60333000Y-56073000I-135000J0D01*
G01*
X60063000Y-56073000D01*
G75*
G02*
X59928000Y-55938000I0J135000D01*
G01*
G37*
D17*
X69385000Y-66099999D03*
X70415000Y-66099999D03*
G36*
G01*
X73900000Y-58975000D02*
X73900000Y-58025000D01*
G75*
G02*
X74150000Y-57775000I250000J0D01*
G01*
X74650000Y-57775000D01*
G75*
G02*
X74900000Y-58025000I0J-250000D01*
G01*
X74900000Y-58975000D01*
G75*
G02*
X74650000Y-59225000I-250000J0D01*
G01*
X74150000Y-59225000D01*
G75*
G02*
X73900000Y-58975000I0J250000D01*
G01*
G37*
G36*
G01*
X75800000Y-58975000D02*
X75800000Y-58025000D01*
G75*
G02*
X76050000Y-57775000I250000J0D01*
G01*
X76550000Y-57775000D01*
G75*
G02*
X76800000Y-58025000I0J-250000D01*
G01*
X76800000Y-58975000D01*
G75*
G02*
X76550000Y-59225000I-250000J0D01*
G01*
X76050000Y-59225000D01*
G75*
G02*
X75800000Y-58975000I0J250000D01*
G01*
G37*
G36*
G01*
X73290000Y-50270000D02*
X73290000Y-49930000D01*
G75*
G02*
X73430000Y-49790000I140000J0D01*
G01*
X73710000Y-49790000D01*
G75*
G02*
X73850000Y-49930000I0J-140000D01*
G01*
X73850000Y-50270000D01*
G75*
G02*
X73710000Y-50410000I-140000J0D01*
G01*
X73430000Y-50410000D01*
G75*
G02*
X73290000Y-50270000I0J140000D01*
G01*
G37*
G36*
G01*
X74250000Y-50270000D02*
X74250000Y-49930000D01*
G75*
G02*
X74390000Y-49790000I140000J0D01*
G01*
X74670000Y-49790000D01*
G75*
G02*
X74810000Y-49930000I0J-140000D01*
G01*
X74810000Y-50270000D01*
G75*
G02*
X74670000Y-50410000I-140000J0D01*
G01*
X74390000Y-50410000D01*
G75*
G02*
X74250000Y-50270000I0J140000D01*
G01*
G37*
G36*
G01*
X69120000Y-63885000D02*
X69120000Y-63515000D01*
G75*
G02*
X69255000Y-63380000I135000J0D01*
G01*
X69525000Y-63380000D01*
G75*
G02*
X69660000Y-63515000I0J-135000D01*
G01*
X69660000Y-63885000D01*
G75*
G02*
X69525000Y-64020000I-135000J0D01*
G01*
X69255000Y-64020000D01*
G75*
G02*
X69120000Y-63885000I0J135000D01*
G01*
G37*
G36*
G01*
X70140000Y-63885000D02*
X70140000Y-63515000D01*
G75*
G02*
X70275000Y-63380000I135000J0D01*
G01*
X70545000Y-63380000D01*
G75*
G02*
X70680000Y-63515000I0J-135000D01*
G01*
X70680000Y-63885000D01*
G75*
G02*
X70545000Y-64020000I-135000J0D01*
G01*
X70275000Y-64020000D01*
G75*
G02*
X70140000Y-63885000I0J135000D01*
G01*
G37*
G36*
G01*
X60549000Y-72982000D02*
X60549000Y-73322000D01*
G75*
G02*
X60409000Y-73462000I-140000J0D01*
G01*
X60129000Y-73462000D01*
G75*
G02*
X59989000Y-73322000I0J140000D01*
G01*
X59989000Y-72982000D01*
G75*
G02*
X60129000Y-72842000I140000J0D01*
G01*
X60409000Y-72842000D01*
G75*
G02*
X60549000Y-72982000I0J-140000D01*
G01*
G37*
G36*
G01*
X59589000Y-72982000D02*
X59589000Y-73322000D01*
G75*
G02*
X59449000Y-73462000I-140000J0D01*
G01*
X59169000Y-73462000D01*
G75*
G02*
X59029000Y-73322000I0J140000D01*
G01*
X59029000Y-72982000D01*
G75*
G02*
X59169000Y-72842000I140000J0D01*
G01*
X59449000Y-72842000D01*
G75*
G02*
X59589000Y-72982000I0J-140000D01*
G01*
G37*
G36*
G01*
X60739200Y-76732800D02*
X61079200Y-76732800D01*
G75*
G02*
X61219200Y-76872800I0J-140000D01*
G01*
X61219200Y-77152800D01*
G75*
G02*
X61079200Y-77292800I-140000J0D01*
G01*
X60739200Y-77292800D01*
G75*
G02*
X60599200Y-77152800I0J140000D01*
G01*
X60599200Y-76872800D01*
G75*
G02*
X60739200Y-76732800I140000J0D01*
G01*
G37*
G36*
G01*
X60739200Y-77692800D02*
X61079200Y-77692800D01*
G75*
G02*
X61219200Y-77832800I0J-140000D01*
G01*
X61219200Y-78112800D01*
G75*
G02*
X61079200Y-78252800I-140000J0D01*
G01*
X60739200Y-78252800D01*
G75*
G02*
X60599200Y-78112800I0J140000D01*
G01*
X60599200Y-77832800D01*
G75*
G02*
X60739200Y-77692800I140000J0D01*
G01*
G37*
G36*
G01*
X63612000Y-76174000D02*
X63952000Y-76174000D01*
G75*
G02*
X64092000Y-76314000I0J-140000D01*
G01*
X64092000Y-76594000D01*
G75*
G02*
X63952000Y-76734000I-140000J0D01*
G01*
X63612000Y-76734000D01*
G75*
G02*
X63472000Y-76594000I0J140000D01*
G01*
X63472000Y-76314000D01*
G75*
G02*
X63612000Y-76174000I140000J0D01*
G01*
G37*
G36*
G01*
X63612000Y-77134000D02*
X63952000Y-77134000D01*
G75*
G02*
X64092000Y-77274000I0J-140000D01*
G01*
X64092000Y-77554000D01*
G75*
G02*
X63952000Y-77694000I-140000J0D01*
G01*
X63612000Y-77694000D01*
G75*
G02*
X63472000Y-77554000I0J140000D01*
G01*
X63472000Y-77274000D01*
G75*
G02*
X63612000Y-77134000I140000J0D01*
G01*
G37*
G36*
G01*
X64346000Y-59085000D02*
X64686000Y-59085000D01*
G75*
G02*
X64826000Y-59225000I0J-140000D01*
G01*
X64826000Y-59505000D01*
G75*
G02*
X64686000Y-59645000I-140000J0D01*
G01*
X64346000Y-59645000D01*
G75*
G02*
X64206000Y-59505000I0J140000D01*
G01*
X64206000Y-59225000D01*
G75*
G02*
X64346000Y-59085000I140000J0D01*
G01*
G37*
G36*
G01*
X64346000Y-60045000D02*
X64686000Y-60045000D01*
G75*
G02*
X64826000Y-60185000I0J-140000D01*
G01*
X64826000Y-60465000D01*
G75*
G02*
X64686000Y-60605000I-140000J0D01*
G01*
X64346000Y-60605000D01*
G75*
G02*
X64206000Y-60465000I0J140000D01*
G01*
X64206000Y-60185000D01*
G75*
G02*
X64346000Y-60045000I140000J0D01*
G01*
G37*
G36*
G01*
X54145000Y-55398000D02*
X53805000Y-55398000D01*
G75*
G02*
X53665000Y-55258000I0J140000D01*
G01*
X53665000Y-54978000D01*
G75*
G02*
X53805000Y-54838000I140000J0D01*
G01*
X54145000Y-54838000D01*
G75*
G02*
X54285000Y-54978000I0J-140000D01*
G01*
X54285000Y-55258000D01*
G75*
G02*
X54145000Y-55398000I-140000J0D01*
G01*
G37*
G36*
G01*
X54145000Y-54438000D02*
X53805000Y-54438000D01*
G75*
G02*
X53665000Y-54298000I0J140000D01*
G01*
X53665000Y-54018000D01*
G75*
G02*
X53805000Y-53878000I140000J0D01*
G01*
X54145000Y-53878000D01*
G75*
G02*
X54285000Y-54018000I0J-140000D01*
G01*
X54285000Y-54298000D01*
G75*
G02*
X54145000Y-54438000I-140000J0D01*
G01*
G37*
G36*
G01*
X48646400Y-75216600D02*
X48646400Y-74846600D01*
G75*
G02*
X48781400Y-74711600I135000J0D01*
G01*
X49051400Y-74711600D01*
G75*
G02*
X49186400Y-74846600I0J-135000D01*
G01*
X49186400Y-75216600D01*
G75*
G02*
X49051400Y-75351600I-135000J0D01*
G01*
X48781400Y-75351600D01*
G75*
G02*
X48646400Y-75216600I0J135000D01*
G01*
G37*
G36*
G01*
X49666400Y-75216600D02*
X49666400Y-74846600D01*
G75*
G02*
X49801400Y-74711600I135000J0D01*
G01*
X50071400Y-74711600D01*
G75*
G02*
X50206400Y-74846600I0J-135000D01*
G01*
X50206400Y-75216600D01*
G75*
G02*
X50071400Y-75351600I-135000J0D01*
G01*
X49801400Y-75351600D01*
G75*
G02*
X49666400Y-75216600I0J135000D01*
G01*
G37*
G36*
G01*
X66388000Y-45199000D02*
X65438000Y-45199000D01*
G75*
G02*
X65188000Y-44949000I0J250000D01*
G01*
X65188000Y-44449000D01*
G75*
G02*
X65438000Y-44199000I250000J0D01*
G01*
X66388000Y-44199000D01*
G75*
G02*
X66638000Y-44449000I0J-250000D01*
G01*
X66638000Y-44949000D01*
G75*
G02*
X66388000Y-45199000I-250000J0D01*
G01*
G37*
G36*
G01*
X66388000Y-43299000D02*
X65438000Y-43299000D01*
G75*
G02*
X65188000Y-43049000I0J250000D01*
G01*
X65188000Y-42549000D01*
G75*
G02*
X65438000Y-42299000I250000J0D01*
G01*
X66388000Y-42299000D01*
G75*
G02*
X66638000Y-42549000I0J-250000D01*
G01*
X66638000Y-43049000D01*
G75*
G02*
X66388000Y-43299000I-250000J0D01*
G01*
G37*
G36*
G01*
X62215000Y-58451000D02*
X63515000Y-58451000D01*
G75*
G02*
X63765000Y-58701000I0J-250000D01*
G01*
X63765000Y-59351000D01*
G75*
G02*
X63515000Y-59601000I-250000J0D01*
G01*
X62215000Y-59601000D01*
G75*
G02*
X61965000Y-59351000I0J250000D01*
G01*
X61965000Y-58701000D01*
G75*
G02*
X62215000Y-58451000I250000J0D01*
G01*
G37*
G36*
G01*
X62215000Y-61401000D02*
X63515000Y-61401000D01*
G75*
G02*
X63765000Y-61651000I0J-250000D01*
G01*
X63765000Y-62301000D01*
G75*
G02*
X63515000Y-62551000I-250000J0D01*
G01*
X62215000Y-62551000D01*
G75*
G02*
X61965000Y-62301000I0J250000D01*
G01*
X61965000Y-61651000D01*
G75*
G02*
X62215000Y-61401000I250000J0D01*
G01*
G37*
G36*
G01*
X48930000Y-55455000D02*
X48630000Y-55455000D01*
G75*
G02*
X48480000Y-55305000I0J150000D01*
G01*
X48480000Y-53655000D01*
G75*
G02*
X48630000Y-53505000I150000J0D01*
G01*
X48930000Y-53505000D01*
G75*
G02*
X49080000Y-53655000I0J-150000D01*
G01*
X49080000Y-55305000D01*
G75*
G02*
X48930000Y-55455000I-150000J0D01*
G01*
G37*
G36*
G01*
X50200000Y-55455000D02*
X49900000Y-55455000D01*
G75*
G02*
X49750000Y-55305000I0J150000D01*
G01*
X49750000Y-53655000D01*
G75*
G02*
X49900000Y-53505000I150000J0D01*
G01*
X50200000Y-53505000D01*
G75*
G02*
X50350000Y-53655000I0J-150000D01*
G01*
X50350000Y-55305000D01*
G75*
G02*
X50200000Y-55455000I-150000J0D01*
G01*
G37*
G36*
G01*
X51470000Y-55455000D02*
X51170000Y-55455000D01*
G75*
G02*
X51020000Y-55305000I0J150000D01*
G01*
X51020000Y-53655000D01*
G75*
G02*
X51170000Y-53505000I150000J0D01*
G01*
X51470000Y-53505000D01*
G75*
G02*
X51620000Y-53655000I0J-150000D01*
G01*
X51620000Y-55305000D01*
G75*
G02*
X51470000Y-55455000I-150000J0D01*
G01*
G37*
G36*
G01*
X52740000Y-55455000D02*
X52440000Y-55455000D01*
G75*
G02*
X52290000Y-55305000I0J150000D01*
G01*
X52290000Y-53655000D01*
G75*
G02*
X52440000Y-53505000I150000J0D01*
G01*
X52740000Y-53505000D01*
G75*
G02*
X52890000Y-53655000I0J-150000D01*
G01*
X52890000Y-55305000D01*
G75*
G02*
X52740000Y-55455000I-150000J0D01*
G01*
G37*
G36*
G01*
X52740000Y-50505000D02*
X52440000Y-50505000D01*
G75*
G02*
X52290000Y-50355000I0J150000D01*
G01*
X52290000Y-48705000D01*
G75*
G02*
X52440000Y-48555000I150000J0D01*
G01*
X52740000Y-48555000D01*
G75*
G02*
X52890000Y-48705000I0J-150000D01*
G01*
X52890000Y-50355000D01*
G75*
G02*
X52740000Y-50505000I-150000J0D01*
G01*
G37*
G36*
G01*
X51470000Y-50505000D02*
X51170000Y-50505000D01*
G75*
G02*
X51020000Y-50355000I0J150000D01*
G01*
X51020000Y-48705000D01*
G75*
G02*
X51170000Y-48555000I150000J0D01*
G01*
X51470000Y-48555000D01*
G75*
G02*
X51620000Y-48705000I0J-150000D01*
G01*
X51620000Y-50355000D01*
G75*
G02*
X51470000Y-50505000I-150000J0D01*
G01*
G37*
G36*
G01*
X50200000Y-50505000D02*
X49900000Y-50505000D01*
G75*
G02*
X49750000Y-50355000I0J150000D01*
G01*
X49750000Y-48705000D01*
G75*
G02*
X49900000Y-48555000I150000J0D01*
G01*
X50200000Y-48555000D01*
G75*
G02*
X50350000Y-48705000I0J-150000D01*
G01*
X50350000Y-50355000D01*
G75*
G02*
X50200000Y-50505000I-150000J0D01*
G01*
G37*
G36*
G01*
X48930000Y-50505000D02*
X48630000Y-50505000D01*
G75*
G02*
X48480000Y-50355000I0J150000D01*
G01*
X48480000Y-48705000D01*
G75*
G02*
X48630000Y-48555000I150000J0D01*
G01*
X48930000Y-48555000D01*
G75*
G02*
X49080000Y-48705000I0J-150000D01*
G01*
X49080000Y-50355000D01*
G75*
G02*
X48930000Y-50505000I-150000J0D01*
G01*
G37*
G36*
G01*
X57330200Y-65163800D02*
X57630200Y-65163800D01*
G75*
G02*
X57780200Y-65313800I0J-150000D01*
G01*
X57780200Y-66613800D01*
G75*
G02*
X57630200Y-66763800I-150000J0D01*
G01*
X57330200Y-66763800D01*
G75*
G02*
X57180200Y-66613800I0J150000D01*
G01*
X57180200Y-65313800D01*
G75*
G02*
X57330200Y-65163800I150000J0D01*
G01*
G37*
G36*
G01*
X56060200Y-65163800D02*
X56360200Y-65163800D01*
G75*
G02*
X56510200Y-65313800I0J-150000D01*
G01*
X56510200Y-66613800D01*
G75*
G02*
X56360200Y-66763800I-150000J0D01*
G01*
X56060200Y-66763800D01*
G75*
G02*
X55910200Y-66613800I0J150000D01*
G01*
X55910200Y-65313800D01*
G75*
G02*
X56060200Y-65163800I150000J0D01*
G01*
G37*
G36*
G01*
X54790200Y-65163800D02*
X55090200Y-65163800D01*
G75*
G02*
X55240200Y-65313800I0J-150000D01*
G01*
X55240200Y-66613800D01*
G75*
G02*
X55090200Y-66763800I-150000J0D01*
G01*
X54790200Y-66763800D01*
G75*
G02*
X54640200Y-66613800I0J150000D01*
G01*
X54640200Y-65313800D01*
G75*
G02*
X54790200Y-65163800I150000J0D01*
G01*
G37*
G36*
G01*
X53520200Y-65163800D02*
X53820200Y-65163800D01*
G75*
G02*
X53970200Y-65313800I0J-150000D01*
G01*
X53970200Y-66613800D01*
G75*
G02*
X53820200Y-66763800I-150000J0D01*
G01*
X53520200Y-66763800D01*
G75*
G02*
X53370200Y-66613800I0J150000D01*
G01*
X53370200Y-65313800D01*
G75*
G02*
X53520200Y-65163800I150000J0D01*
G01*
G37*
G36*
G01*
X53520200Y-72363800D02*
X53820200Y-72363800D01*
G75*
G02*
X53970200Y-72513800I0J-150000D01*
G01*
X53970200Y-73813800D01*
G75*
G02*
X53820200Y-73963800I-150000J0D01*
G01*
X53520200Y-73963800D01*
G75*
G02*
X53370200Y-73813800I0J150000D01*
G01*
X53370200Y-72513800D01*
G75*
G02*
X53520200Y-72363800I150000J0D01*
G01*
G37*
G36*
G01*
X54790200Y-72363800D02*
X55090200Y-72363800D01*
G75*
G02*
X55240200Y-72513800I0J-150000D01*
G01*
X55240200Y-73813800D01*
G75*
G02*
X55090200Y-73963800I-150000J0D01*
G01*
X54790200Y-73963800D01*
G75*
G02*
X54640200Y-73813800I0J150000D01*
G01*
X54640200Y-72513800D01*
G75*
G02*
X54790200Y-72363800I150000J0D01*
G01*
G37*
G36*
G01*
X56060200Y-72363800D02*
X56360200Y-72363800D01*
G75*
G02*
X56510200Y-72513800I0J-150000D01*
G01*
X56510200Y-73813800D01*
G75*
G02*
X56360200Y-73963800I-150000J0D01*
G01*
X56060200Y-73963800D01*
G75*
G02*
X55910200Y-73813800I0J150000D01*
G01*
X55910200Y-72513800D01*
G75*
G02*
X56060200Y-72363800I150000J0D01*
G01*
G37*
G36*
G01*
X57330200Y-72363800D02*
X57630200Y-72363800D01*
G75*
G02*
X57780200Y-72513800I0J-150000D01*
G01*
X57780200Y-73813800D01*
G75*
G02*
X57630200Y-73963800I-150000J0D01*
G01*
X57330200Y-73963800D01*
G75*
G02*
X57180200Y-73813800I0J150000D01*
G01*
X57180200Y-72513800D01*
G75*
G02*
X57330200Y-72363800I150000J0D01*
G01*
G37*
G36*
G01*
X63272000Y-64981000D02*
X63272000Y-65321000D01*
G75*
G02*
X63132000Y-65461000I-140000J0D01*
G01*
X62852000Y-65461000D01*
G75*
G02*
X62712000Y-65321000I0J140000D01*
G01*
X62712000Y-64981000D01*
G75*
G02*
X62852000Y-64841000I140000J0D01*
G01*
X63132000Y-64841000D01*
G75*
G02*
X63272000Y-64981000I0J-140000D01*
G01*
G37*
G36*
G01*
X62312000Y-64981000D02*
X62312000Y-65321000D01*
G75*
G02*
X62172000Y-65461000I-140000J0D01*
G01*
X61892000Y-65461000D01*
G75*
G02*
X61752000Y-65321000I0J140000D01*
G01*
X61752000Y-64981000D01*
G75*
G02*
X61892000Y-64841000I140000J0D01*
G01*
X62172000Y-64841000D01*
G75*
G02*
X62312000Y-64981000I0J-140000D01*
G01*
G37*
G36*
G01*
X50231800Y-77234200D02*
X50231800Y-77604200D01*
G75*
G02*
X50096800Y-77739200I-135000J0D01*
G01*
X49826800Y-77739200D01*
G75*
G02*
X49691800Y-77604200I0J135000D01*
G01*
X49691800Y-77234200D01*
G75*
G02*
X49826800Y-77099200I135000J0D01*
G01*
X50096800Y-77099200D01*
G75*
G02*
X50231800Y-77234200I0J-135000D01*
G01*
G37*
G36*
G01*
X49211800Y-77234200D02*
X49211800Y-77604200D01*
G75*
G02*
X49076800Y-77739200I-135000J0D01*
G01*
X48806800Y-77739200D01*
G75*
G02*
X48671800Y-77604200I0J135000D01*
G01*
X48671800Y-77234200D01*
G75*
G02*
X48806800Y-77099200I135000J0D01*
G01*
X49076800Y-77099200D01*
G75*
G02*
X49211800Y-77234200I0J-135000D01*
G01*
G37*
G36*
G01*
X60224000Y-70823000D02*
X60224000Y-71163000D01*
G75*
G02*
X60084000Y-71303000I-140000J0D01*
G01*
X59804000Y-71303000D01*
G75*
G02*
X59664000Y-71163000I0J140000D01*
G01*
X59664000Y-70823000D01*
G75*
G02*
X59804000Y-70683000I140000J0D01*
G01*
X60084000Y-70683000D01*
G75*
G02*
X60224000Y-70823000I0J-140000D01*
G01*
G37*
G36*
G01*
X59264000Y-70823000D02*
X59264000Y-71163000D01*
G75*
G02*
X59124000Y-71303000I-140000J0D01*
G01*
X58844000Y-71303000D01*
G75*
G02*
X58704000Y-71163000I0J140000D01*
G01*
X58704000Y-70823000D01*
G75*
G02*
X58844000Y-70683000I140000J0D01*
G01*
X59124000Y-70683000D01*
G75*
G02*
X59264000Y-70823000I0J-140000D01*
G01*
G37*
G36*
G01*
X62847000Y-48535000D02*
X62847000Y-47985000D01*
G75*
G02*
X63047000Y-47785000I200000J0D01*
G01*
X63447000Y-47785000D01*
G75*
G02*
X63647000Y-47985000I0J-200000D01*
G01*
X63647000Y-48535000D01*
G75*
G02*
X63447000Y-48735000I-200000J0D01*
G01*
X63047000Y-48735000D01*
G75*
G02*
X62847000Y-48535000I0J200000D01*
G01*
G37*
G36*
G01*
X64497000Y-48535000D02*
X64497000Y-47985000D01*
G75*
G02*
X64697000Y-47785000I200000J0D01*
G01*
X65097000Y-47785000D01*
G75*
G02*
X65297000Y-47985000I0J-200000D01*
G01*
X65297000Y-48535000D01*
G75*
G02*
X65097000Y-48735000I-200000J0D01*
G01*
X64697000Y-48735000D01*
G75*
G02*
X64497000Y-48535000I0J200000D01*
G01*
G37*
G36*
G01*
X65677200Y-76357800D02*
X66047200Y-76357800D01*
G75*
G02*
X66182200Y-76492800I0J-135000D01*
G01*
X66182200Y-76762800D01*
G75*
G02*
X66047200Y-76897800I-135000J0D01*
G01*
X65677200Y-76897800D01*
G75*
G02*
X65542200Y-76762800I0J135000D01*
G01*
X65542200Y-76492800D01*
G75*
G02*
X65677200Y-76357800I135000J0D01*
G01*
G37*
G36*
G01*
X65677200Y-77377800D02*
X66047200Y-77377800D01*
G75*
G02*
X66182200Y-77512800I0J-135000D01*
G01*
X66182200Y-77782800D01*
G75*
G02*
X66047200Y-77917800I-135000J0D01*
G01*
X65677200Y-77917800D01*
G75*
G02*
X65542200Y-77782800I0J135000D01*
G01*
X65542200Y-77512800D01*
G75*
G02*
X65677200Y-77377800I135000J0D01*
G01*
G37*
G36*
G01*
X52892000Y-57803000D02*
X52522000Y-57803000D01*
G75*
G02*
X52387000Y-57668000I0J135000D01*
G01*
X52387000Y-57398000D01*
G75*
G02*
X52522000Y-57263000I135000J0D01*
G01*
X52892000Y-57263000D01*
G75*
G02*
X53027000Y-57398000I0J-135000D01*
G01*
X53027000Y-57668000D01*
G75*
G02*
X52892000Y-57803000I-135000J0D01*
G01*
G37*
G36*
G01*
X52892000Y-56783000D02*
X52522000Y-56783000D01*
G75*
G02*
X52387000Y-56648000I0J135000D01*
G01*
X52387000Y-56378000D01*
G75*
G02*
X52522000Y-56243000I135000J0D01*
G01*
X52892000Y-56243000D01*
G75*
G02*
X53027000Y-56378000I0J-135000D01*
G01*
X53027000Y-56648000D01*
G75*
G02*
X52892000Y-56783000I-135000J0D01*
G01*
G37*
G36*
G01*
X65456400Y-78417600D02*
X65456400Y-78757600D01*
G75*
G02*
X65316400Y-78897600I-140000J0D01*
G01*
X65036400Y-78897600D01*
G75*
G02*
X64896400Y-78757600I0J140000D01*
G01*
X64896400Y-78417600D01*
G75*
G02*
X65036400Y-78277600I140000J0D01*
G01*
X65316400Y-78277600D01*
G75*
G02*
X65456400Y-78417600I0J-140000D01*
G01*
G37*
G36*
G01*
X64496400Y-78417600D02*
X64496400Y-78757600D01*
G75*
G02*
X64356400Y-78897600I-140000J0D01*
G01*
X64076400Y-78897600D01*
G75*
G02*
X63936400Y-78757600I0J140000D01*
G01*
X63936400Y-78417600D01*
G75*
G02*
X64076400Y-78277600I140000J0D01*
G01*
X64356400Y-78277600D01*
G75*
G02*
X64496400Y-78417600I0J-140000D01*
G01*
G37*
G36*
G01*
X68440000Y-59470000D02*
X68440000Y-59130000D01*
G75*
G02*
X68580000Y-58990000I140000J0D01*
G01*
X68860000Y-58990000D01*
G75*
G02*
X69000000Y-59130000I0J-140000D01*
G01*
X69000000Y-59470000D01*
G75*
G02*
X68860000Y-59610000I-140000J0D01*
G01*
X68580000Y-59610000D01*
G75*
G02*
X68440000Y-59470000I0J140000D01*
G01*
G37*
G36*
G01*
X69400000Y-59470000D02*
X69400000Y-59130000D01*
G75*
G02*
X69540000Y-58990000I140000J0D01*
G01*
X69820000Y-58990000D01*
G75*
G02*
X69960000Y-59130000I0J-140000D01*
G01*
X69960000Y-59470000D01*
G75*
G02*
X69820000Y-59610000I-140000J0D01*
G01*
X69540000Y-59610000D01*
G75*
G02*
X69400000Y-59470000I0J140000D01*
G01*
G37*
G36*
G01*
X73900000Y-52025000D02*
X73900000Y-51075000D01*
G75*
G02*
X74150000Y-50825000I250000J0D01*
G01*
X74650000Y-50825000D01*
G75*
G02*
X74900000Y-51075000I0J-250000D01*
G01*
X74900000Y-52025000D01*
G75*
G02*
X74650000Y-52275000I-250000J0D01*
G01*
X74150000Y-52275000D01*
G75*
G02*
X73900000Y-52025000I0J250000D01*
G01*
G37*
G36*
G01*
X75800000Y-52025000D02*
X75800000Y-51075000D01*
G75*
G02*
X76050000Y-50825000I250000J0D01*
G01*
X76550000Y-50825000D01*
G75*
G02*
X76800000Y-51075000I0J-250000D01*
G01*
X76800000Y-52025000D01*
G75*
G02*
X76550000Y-52275000I-250000J0D01*
G01*
X76050000Y-52275000D01*
G75*
G02*
X75800000Y-52025000I0J250000D01*
G01*
G37*
G36*
G01*
X70642000Y-73195000D02*
X70642000Y-72855000D01*
G75*
G02*
X70782000Y-72715000I140000J0D01*
G01*
X71062000Y-72715000D01*
G75*
G02*
X71202000Y-72855000I0J-140000D01*
G01*
X71202000Y-73195000D01*
G75*
G02*
X71062000Y-73335000I-140000J0D01*
G01*
X70782000Y-73335000D01*
G75*
G02*
X70642000Y-73195000I0J140000D01*
G01*
G37*
G36*
G01*
X71602000Y-73195000D02*
X71602000Y-72855000D01*
G75*
G02*
X71742000Y-72715000I140000J0D01*
G01*
X72022000Y-72715000D01*
G75*
G02*
X72162000Y-72855000I0J-140000D01*
G01*
X72162000Y-73195000D01*
G75*
G02*
X72022000Y-73335000I-140000J0D01*
G01*
X71742000Y-73335000D01*
G75*
G02*
X71602000Y-73195000I0J140000D01*
G01*
G37*
G36*
G01*
X68864000Y-76370000D02*
X68864000Y-76030000D01*
G75*
G02*
X69004000Y-75890000I140000J0D01*
G01*
X69284000Y-75890000D01*
G75*
G02*
X69424000Y-76030000I0J-140000D01*
G01*
X69424000Y-76370000D01*
G75*
G02*
X69284000Y-76510000I-140000J0D01*
G01*
X69004000Y-76510000D01*
G75*
G02*
X68864000Y-76370000I0J140000D01*
G01*
G37*
G36*
G01*
X69824000Y-76370000D02*
X69824000Y-76030000D01*
G75*
G02*
X69964000Y-75890000I140000J0D01*
G01*
X70244000Y-75890000D01*
G75*
G02*
X70384000Y-76030000I0J-140000D01*
G01*
X70384000Y-76370000D01*
G75*
G02*
X70244000Y-76510000I-140000J0D01*
G01*
X69964000Y-76510000D01*
G75*
G02*
X69824000Y-76370000I0J140000D01*
G01*
G37*
G36*
G01*
X62243000Y-54450000D02*
X62243000Y-53500000D01*
G75*
G02*
X62493000Y-53250000I250000J0D01*
G01*
X62993000Y-53250000D01*
G75*
G02*
X63243000Y-53500000I0J-250000D01*
G01*
X63243000Y-54450000D01*
G75*
G02*
X62993000Y-54700000I-250000J0D01*
G01*
X62493000Y-54700000D01*
G75*
G02*
X62243000Y-54450000I0J250000D01*
G01*
G37*
G36*
G01*
X64143000Y-54450000D02*
X64143000Y-53500000D01*
G75*
G02*
X64393000Y-53250000I250000J0D01*
G01*
X64893000Y-53250000D01*
G75*
G02*
X65143000Y-53500000I0J-250000D01*
G01*
X65143000Y-54450000D01*
G75*
G02*
X64893000Y-54700000I-250000J0D01*
G01*
X64393000Y-54700000D01*
G75*
G02*
X64143000Y-54450000I0J250000D01*
G01*
G37*
G36*
G01*
X66298600Y-78783000D02*
X66298600Y-78443000D01*
G75*
G02*
X66438600Y-78303000I140000J0D01*
G01*
X66718600Y-78303000D01*
G75*
G02*
X66858600Y-78443000I0J-140000D01*
G01*
X66858600Y-78783000D01*
G75*
G02*
X66718600Y-78923000I-140000J0D01*
G01*
X66438600Y-78923000D01*
G75*
G02*
X66298600Y-78783000I0J140000D01*
G01*
G37*
G36*
G01*
X67258600Y-78783000D02*
X67258600Y-78443000D01*
G75*
G02*
X67398600Y-78303000I140000J0D01*
G01*
X67678600Y-78303000D01*
G75*
G02*
X67818600Y-78443000I0J-140000D01*
G01*
X67818600Y-78783000D01*
G75*
G02*
X67678600Y-78923000I-140000J0D01*
G01*
X67398600Y-78923000D01*
G75*
G02*
X67258600Y-78783000I0J140000D01*
G01*
G37*
G36*
G01*
X58958000Y-53764000D02*
X58958000Y-53424000D01*
G75*
G02*
X59098000Y-53284000I140000J0D01*
G01*
X59378000Y-53284000D01*
G75*
G02*
X59518000Y-53424000I0J-140000D01*
G01*
X59518000Y-53764000D01*
G75*
G02*
X59378000Y-53904000I-140000J0D01*
G01*
X59098000Y-53904000D01*
G75*
G02*
X58958000Y-53764000I0J140000D01*
G01*
G37*
G36*
G01*
X59918000Y-53764000D02*
X59918000Y-53424000D01*
G75*
G02*
X60058000Y-53284000I140000J0D01*
G01*
X60338000Y-53284000D01*
G75*
G02*
X60478000Y-53424000I0J-140000D01*
G01*
X60478000Y-53764000D01*
G75*
G02*
X60338000Y-53904000I-140000J0D01*
G01*
X60058000Y-53904000D01*
G75*
G02*
X59918000Y-53764000I0J140000D01*
G01*
G37*
G36*
G01*
X74500000Y-56950000D02*
X74200000Y-56950000D01*
G75*
G02*
X74050000Y-56800000I0J150000D01*
G01*
X74050000Y-55775000D01*
G75*
G02*
X74200000Y-55625000I150000J0D01*
G01*
X74500000Y-55625000D01*
G75*
G02*
X74650000Y-55775000I0J-150000D01*
G01*
X74650000Y-56800000D01*
G75*
G02*
X74500000Y-56950000I-150000J0D01*
G01*
G37*
G36*
G01*
X75450000Y-56950000D02*
X75150000Y-56950000D01*
G75*
G02*
X75000000Y-56800000I0J150000D01*
G01*
X75000000Y-55775000D01*
G75*
G02*
X75150000Y-55625000I150000J0D01*
G01*
X75450000Y-55625000D01*
G75*
G02*
X75600000Y-55775000I0J-150000D01*
G01*
X75600000Y-56800000D01*
G75*
G02*
X75450000Y-56950000I-150000J0D01*
G01*
G37*
G36*
G01*
X76400000Y-56950000D02*
X76100000Y-56950000D01*
G75*
G02*
X75950000Y-56800000I0J150000D01*
G01*
X75950000Y-55775000D01*
G75*
G02*
X76100000Y-55625000I150000J0D01*
G01*
X76400000Y-55625000D01*
G75*
G02*
X76550000Y-55775000I0J-150000D01*
G01*
X76550000Y-56800000D01*
G75*
G02*
X76400000Y-56950000I-150000J0D01*
G01*
G37*
G36*
G01*
X76400000Y-54675000D02*
X76100000Y-54675000D01*
G75*
G02*
X75950000Y-54525000I0J150000D01*
G01*
X75950000Y-53500000D01*
G75*
G02*
X76100000Y-53350000I150000J0D01*
G01*
X76400000Y-53350000D01*
G75*
G02*
X76550000Y-53500000I0J-150000D01*
G01*
X76550000Y-54525000D01*
G75*
G02*
X76400000Y-54675000I-150000J0D01*
G01*
G37*
G36*
G01*
X74500000Y-54675000D02*
X74200000Y-54675000D01*
G75*
G02*
X74050000Y-54525000I0J150000D01*
G01*
X74050000Y-53500000D01*
G75*
G02*
X74200000Y-53350000I150000J0D01*
G01*
X74500000Y-53350000D01*
G75*
G02*
X74650000Y-53500000I0J-150000D01*
G01*
X74650000Y-54525000D01*
G75*
G02*
X74500000Y-54675000I-150000J0D01*
G01*
G37*
G36*
G01*
X48621000Y-79966400D02*
X48621000Y-79596400D01*
G75*
G02*
X48756000Y-79461400I135000J0D01*
G01*
X49026000Y-79461400D01*
G75*
G02*
X49161000Y-79596400I0J-135000D01*
G01*
X49161000Y-79966400D01*
G75*
G02*
X49026000Y-80101400I-135000J0D01*
G01*
X48756000Y-80101400D01*
G75*
G02*
X48621000Y-79966400I0J135000D01*
G01*
G37*
G36*
G01*
X49641000Y-79966400D02*
X49641000Y-79596400D01*
G75*
G02*
X49776000Y-79461400I135000J0D01*
G01*
X50046000Y-79461400D01*
G75*
G02*
X50181000Y-79596400I0J-135000D01*
G01*
X50181000Y-79966400D01*
G75*
G02*
X50046000Y-80101400I-135000J0D01*
G01*
X49776000Y-80101400D01*
G75*
G02*
X49641000Y-79966400I0J135000D01*
G01*
G37*
G36*
G01*
X55047000Y-57805000D02*
X54677000Y-57805000D01*
G75*
G02*
X54542000Y-57670000I0J135000D01*
G01*
X54542000Y-57400000D01*
G75*
G02*
X54677000Y-57265000I135000J0D01*
G01*
X55047000Y-57265000D01*
G75*
G02*
X55182000Y-57400000I0J-135000D01*
G01*
X55182000Y-57670000D01*
G75*
G02*
X55047000Y-57805000I-135000J0D01*
G01*
G37*
G36*
G01*
X55047000Y-56785000D02*
X54677000Y-56785000D01*
G75*
G02*
X54542000Y-56650000I0J135000D01*
G01*
X54542000Y-56380000D01*
G75*
G02*
X54677000Y-56245000I135000J0D01*
G01*
X55047000Y-56245000D01*
G75*
G02*
X55182000Y-56380000I0J-135000D01*
G01*
X55182000Y-56650000D01*
G75*
G02*
X55047000Y-56785000I-135000J0D01*
G01*
G37*
G36*
G01*
X57185000Y-63840000D02*
X56885000Y-63840000D01*
G75*
G02*
X56735000Y-63690000I0J150000D01*
G01*
X56735000Y-62040000D01*
G75*
G02*
X56885000Y-61890000I150000J0D01*
G01*
X57185000Y-61890000D01*
G75*
G02*
X57335000Y-62040000I0J-150000D01*
G01*
X57335000Y-63690000D01*
G75*
G02*
X57185000Y-63840000I-150000J0D01*
G01*
G37*
G36*
G01*
X58455000Y-63840000D02*
X58155000Y-63840000D01*
G75*
G02*
X58005000Y-63690000I0J150000D01*
G01*
X58005000Y-62040000D01*
G75*
G02*
X58155000Y-61890000I150000J0D01*
G01*
X58455000Y-61890000D01*
G75*
G02*
X58605000Y-62040000I0J-150000D01*
G01*
X58605000Y-63690000D01*
G75*
G02*
X58455000Y-63840000I-150000J0D01*
G01*
G37*
G36*
G01*
X59725000Y-63840000D02*
X59425000Y-63840000D01*
G75*
G02*
X59275000Y-63690000I0J150000D01*
G01*
X59275000Y-62040000D01*
G75*
G02*
X59425000Y-61890000I150000J0D01*
G01*
X59725000Y-61890000D01*
G75*
G02*
X59875000Y-62040000I0J-150000D01*
G01*
X59875000Y-63690000D01*
G75*
G02*
X59725000Y-63840000I-150000J0D01*
G01*
G37*
G36*
G01*
X60995000Y-63840000D02*
X60695000Y-63840000D01*
G75*
G02*
X60545000Y-63690000I0J150000D01*
G01*
X60545000Y-62040000D01*
G75*
G02*
X60695000Y-61890000I150000J0D01*
G01*
X60995000Y-61890000D01*
G75*
G02*
X61145000Y-62040000I0J-150000D01*
G01*
X61145000Y-63690000D01*
G75*
G02*
X60995000Y-63840000I-150000J0D01*
G01*
G37*
G36*
G01*
X60995000Y-58890000D02*
X60695000Y-58890000D01*
G75*
G02*
X60545000Y-58740000I0J150000D01*
G01*
X60545000Y-57090000D01*
G75*
G02*
X60695000Y-56940000I150000J0D01*
G01*
X60995000Y-56940000D01*
G75*
G02*
X61145000Y-57090000I0J-150000D01*
G01*
X61145000Y-58740000D01*
G75*
G02*
X60995000Y-58890000I-150000J0D01*
G01*
G37*
G36*
G01*
X59725000Y-58890000D02*
X59425000Y-58890000D01*
G75*
G02*
X59275000Y-58740000I0J150000D01*
G01*
X59275000Y-57090000D01*
G75*
G02*
X59425000Y-56940000I150000J0D01*
G01*
X59725000Y-56940000D01*
G75*
G02*
X59875000Y-57090000I0J-150000D01*
G01*
X59875000Y-58740000D01*
G75*
G02*
X59725000Y-58890000I-150000J0D01*
G01*
G37*
G36*
G01*
X58455000Y-58890000D02*
X58155000Y-58890000D01*
G75*
G02*
X58005000Y-58740000I0J150000D01*
G01*
X58005000Y-57090000D01*
G75*
G02*
X58155000Y-56940000I150000J0D01*
G01*
X58455000Y-56940000D01*
G75*
G02*
X58605000Y-57090000I0J-150000D01*
G01*
X58605000Y-58740000D01*
G75*
G02*
X58455000Y-58890000I-150000J0D01*
G01*
G37*
G36*
G01*
X57185000Y-58890000D02*
X56885000Y-58890000D01*
G75*
G02*
X56735000Y-58740000I0J150000D01*
G01*
X56735000Y-57090000D01*
G75*
G02*
X56885000Y-56940000I150000J0D01*
G01*
X57185000Y-56940000D01*
G75*
G02*
X57335000Y-57090000I0J-150000D01*
G01*
X57335000Y-58740000D01*
G75*
G02*
X57185000Y-58890000I-150000J0D01*
G01*
G37*
D25*
X73617000Y-78017000D03*
X71417000Y-78017000D03*
X71417000Y-79717000D03*
X73617000Y-79717000D03*
G36*
G01*
X56616000Y-53764000D02*
X56616000Y-53424000D01*
G75*
G02*
X56756000Y-53284000I140000J0D01*
G01*
X57036000Y-53284000D01*
G75*
G02*
X57176000Y-53424000I0J-140000D01*
G01*
X57176000Y-53764000D01*
G75*
G02*
X57036000Y-53904000I-140000J0D01*
G01*
X56756000Y-53904000D01*
G75*
G02*
X56616000Y-53764000I0J140000D01*
G01*
G37*
G36*
G01*
X57576000Y-53764000D02*
X57576000Y-53424000D01*
G75*
G02*
X57716000Y-53284000I140000J0D01*
G01*
X57996000Y-53284000D01*
G75*
G02*
X58136000Y-53424000I0J-140000D01*
G01*
X58136000Y-53764000D01*
G75*
G02*
X57996000Y-53904000I-140000J0D01*
G01*
X57716000Y-53904000D01*
G75*
G02*
X57576000Y-53764000I0J140000D01*
G01*
G37*
D26*
X50445000Y-85804200D03*
X60045000Y-85804200D03*
D27*
X52745000Y-93304200D03*
D28*
X55245000Y-93304200D03*
X57745000Y-93304200D03*
D26*
X64415000Y-85804200D03*
X74015000Y-85804200D03*
D27*
X66715000Y-93304200D03*
D28*
X69215000Y-93304200D03*
X71715000Y-93304200D03*
G36*
G01*
X61311000Y-74201200D02*
X61311000Y-74541200D01*
G75*
G02*
X61171000Y-74681200I-140000J0D01*
G01*
X60891000Y-74681200D01*
G75*
G02*
X60751000Y-74541200I0J140000D01*
G01*
X60751000Y-74201200D01*
G75*
G02*
X60891000Y-74061200I140000J0D01*
G01*
X61171000Y-74061200D01*
G75*
G02*
X61311000Y-74201200I0J-140000D01*
G01*
G37*
G36*
G01*
X60351000Y-74201200D02*
X60351000Y-74541200D01*
G75*
G02*
X60211000Y-74681200I-140000J0D01*
G01*
X59931000Y-74681200D01*
G75*
G02*
X59791000Y-74541200I0J140000D01*
G01*
X59791000Y-74201200D01*
G75*
G02*
X59931000Y-74061200I140000J0D01*
G01*
X60211000Y-74061200D01*
G75*
G02*
X60351000Y-74201200I0J-140000D01*
G01*
G37*
G36*
G01*
X65728000Y-62595000D02*
X66098000Y-62595000D01*
G75*
G02*
X66233000Y-62730000I0J-135000D01*
G01*
X66233000Y-63000000D01*
G75*
G02*
X66098000Y-63135000I-135000J0D01*
G01*
X65728000Y-63135000D01*
G75*
G02*
X65593000Y-63000000I0J135000D01*
G01*
X65593000Y-62730000D01*
G75*
G02*
X65728000Y-62595000I135000J0D01*
G01*
G37*
G36*
G01*
X65728000Y-63615000D02*
X66098000Y-63615000D01*
G75*
G02*
X66233000Y-63750000I0J-135000D01*
G01*
X66233000Y-64020000D01*
G75*
G02*
X66098000Y-64155000I-135000J0D01*
G01*
X65728000Y-64155000D01*
G75*
G02*
X65593000Y-64020000I0J135000D01*
G01*
X65593000Y-63750000D01*
G75*
G02*
X65728000Y-63615000I135000J0D01*
G01*
G37*
D18*
X59108400Y-45042000D03*
X54908400Y-45042000D03*
X59098400Y-42817000D03*
X54898400Y-42817000D03*
G36*
G01*
X64585000Y-62595000D02*
X64955000Y-62595000D01*
G75*
G02*
X65090000Y-62730000I0J-135000D01*
G01*
X65090000Y-63000000D01*
G75*
G02*
X64955000Y-63135000I-135000J0D01*
G01*
X64585000Y-63135000D01*
G75*
G02*
X64450000Y-63000000I0J135000D01*
G01*
X64450000Y-62730000D01*
G75*
G02*
X64585000Y-62595000I135000J0D01*
G01*
G37*
G36*
G01*
X64585000Y-63615000D02*
X64955000Y-63615000D01*
G75*
G02*
X65090000Y-63750000I0J-135000D01*
G01*
X65090000Y-64020000D01*
G75*
G02*
X64955000Y-64155000I-135000J0D01*
G01*
X64585000Y-64155000D01*
G75*
G02*
X64450000Y-64020000I0J135000D01*
G01*
X64450000Y-63750000D01*
G75*
G02*
X64585000Y-63615000I135000J0D01*
G01*
G37*
G36*
G01*
X61233000Y-47985000D02*
X61233000Y-48535000D01*
G75*
G02*
X61033000Y-48735000I-200000J0D01*
G01*
X60633000Y-48735000D01*
G75*
G02*
X60433000Y-48535000I0J200000D01*
G01*
X60433000Y-47985000D01*
G75*
G02*
X60633000Y-47785000I200000J0D01*
G01*
X61033000Y-47785000D01*
G75*
G02*
X61233000Y-47985000I0J-200000D01*
G01*
G37*
G36*
G01*
X59583000Y-47985000D02*
X59583000Y-48535000D01*
G75*
G02*
X59383000Y-48735000I-200000J0D01*
G01*
X58983000Y-48735000D01*
G75*
G02*
X58783000Y-48535000I0J200000D01*
G01*
X58783000Y-47985000D01*
G75*
G02*
X58983000Y-47785000I200000J0D01*
G01*
X59383000Y-47785000D01*
G75*
G02*
X59583000Y-47985000I0J-200000D01*
G01*
G37*
D29*
X74930000Y-60960000D03*
D30*
X74930000Y-63500000D03*
X74930000Y-66040000D03*
X74930000Y-68580000D03*
X74930000Y-71120000D03*
D29*
X55880000Y-96520000D03*
D30*
X58420000Y-96520000D03*
X60960000Y-96520000D03*
X63500000Y-96520000D03*
X66040000Y-96520000D03*
D29*
X55880000Y-50800000D03*
D30*
X58420000Y-50800000D03*
X60960000Y-50800000D03*
X63500000Y-50800000D03*
X66040000Y-50800000D03*
D29*
X49403000Y-60960000D03*
D30*
X49403000Y-63500000D03*
X49403000Y-66040000D03*
X49403000Y-68580000D03*
X49403000Y-71120000D03*
%LPD*%
M02*
