M48
; DRILL file KiCad 10.0.6-10.0.6~ubuntu26.04.1 date 2026-10-05T11:37:54
; FORMAT={-:-/ absolute / metric / decimal}
; #@! TF.CreationDate,2026-10-05T11:37:54+05:30
; #@! TF.GenerationSoftware,Kicad,Pcbnew,10.0.6-10.0.6~ubuntu26.04.1
; #@! TF.FileFunction,Plated,1,4,PTH
FMAT,2
METRIC
; #@! TA.AperFunction,Plated,PTH,ComponentDrill
T1C0.200
; #@! TA.AperFunction,Plated,PTH,ViaDrill
T2C0.300
; #@! TA.AperFunction,Plated,PTH,ComponentDrill
T3C0.600
; #@! TA.AperFunction,Plated,PTH,ComponentDrill
T4C1.000
; #@! TA.AperFunction,Plated,PTH,ComponentDrill
T5C1.100
; #@! TA.AperFunction,Plated,PTH,ViaDrill
T6C3.200
%
G90
G05
T1
X59.47Y-62.9
X59.47Y-64.3
X60.17Y-62.2
X60.17Y-63.6
X60.17Y-65.0
X60.87Y-62.9
X60.87Y-64.3
X61.57Y-62.2
X61.57Y-63.6
X61.57Y-65.0
X62.27Y-62.9
X62.27Y-64.3
X67.273Y-83.148
X67.945Y-82.476
X67.945Y-83.82
X68.617Y-81.805
X68.617Y-83.148
X68.617Y-84.492
X69.289Y-82.476
X69.289Y-83.82
X69.96Y-83.148
T2
X48.26Y-46.228
X48.768Y-104.902
X49.022Y-102.616
X49.1Y-52.95
X49.276Y-74.676
X49.53Y-77.216
X50.292Y-41.826
X50.93Y-53.45
X51.308Y-85.598
X52.08Y-53.9
X52.324Y-72.39
X52.324Y-85.852
X53.848Y-54.864
X54.102Y-45.466
X54.356Y-84.074
X54.593Y-85.598
X54.864Y-81.026
X54.92Y-69.836
X55.118Y-106.934
X55.372Y-72.39
X55.643Y-86.614
X55.88Y-53.34
X55.88Y-56.896
X56.134Y-41.826
X56.25Y-46.5
X56.371Y-84.582
X56.896Y-85.344
X56.896Y-103.124
X57.4Y-53.0
X57.5Y-52.25
X57.531Y-82.677
X59.362Y-47.5
X61.95Y-46.5
X64.008Y-85.344
X64.008Y-86.36
X64.1Y-52.35
X64.516Y-82.55
X65.25Y-79.0
X65.45Y-53.25
X65.5Y-78.25
X65.6Y-47.3
X66.35Y-53.25
X66.548Y-81.026
X67.056Y-86.106
X67.31Y-77.216
X69.05Y-51.55
X69.25Y-77.25
X69.342Y-59.69
X69.596Y-60.96
X69.65Y-56.8
X70.537Y-80.697
X70.85Y-77.825
X70.958Y-85.506
X71.75Y-77.25
X72.8Y-74.892
X73.83Y-73.37
X73.86Y-87.67
X74.34Y-81.6
X74.35Y-82.76
X74.572Y-85.492
X74.59Y-84.93
X74.689Y-80.5
X74.7Y-79.8
X75.107Y-49.784
X75.326Y-78.74
X76.125Y-81.041
X76.216Y-83.73
T4
X49.276Y-56.388
X49.276Y-58.928
X49.276Y-61.468
X49.276Y-64.008
X49.276Y-66.548
X51.475Y-99.956
X53.975Y-99.956
X55.88Y-50.8
X55.88Y-96.52
X56.475Y-99.956
X58.42Y-50.8
X58.42Y-96.52
X60.96Y-50.8
X60.96Y-96.52
X63.5Y-50.8
X63.5Y-96.52
X66.04Y-50.8
X66.04Y-96.52
X67.578Y-99.956
X70.078Y-99.956
X72.578Y-99.956
X75.184Y-56.388
X75.184Y-58.928
X75.184Y-61.468
X75.184Y-64.008
X75.184Y-66.548
T6
X62.378Y-43.815
X62.785Y-106.045
T3
G00X67.562Y-43.519
M15
G01X67.562Y-42.919
M16
G05
G00X67.562Y-47.949
M15
G01X67.562Y-46.849
M16
G05
G00X76.202Y-43.519
M15
G01X76.202Y-42.919
M16
G05
G00X76.202Y-47.949
M15
G01X76.202Y-46.849
M16
G05
T5
G00X49.175Y-93.056
M15
G01X49.175Y-91.856
M16
G05
G00X58.775Y-93.056
M15
G01X58.775Y-91.856
M16
G05
G00X65.278Y-93.056
M15
G01X65.278Y-91.856
M16
G05
G00X74.878Y-93.056
M15
G01X74.878Y-91.856
M16
G05
M30
