G04 #@! TF.GenerationSoftware,KiCad,Pcbnew,10.0.6-10.0.6~ubuntu26.04.1*
G04 #@! TF.CreationDate,2026-10-05T11:37:54+05:30*
G04 #@! TF.ProjectId,32bit-5v,33326269-742d-4357-962e-6b696361645f,rev?*
G04 #@! TF.SameCoordinates,Original*
G04 #@! TF.FileFunction,Legend,Bot*
G04 #@! TF.FilePolarity,Positive*
%FSLAX46Y46*%
G04 Gerber Fmt 4.6, Leading zero omitted, Abs format (unit mm)*
G04 Created by KiCad (PCBNEW 10.0.6-10.0.6~ubuntu26.04.1) date 2026-10-05 11:37:54*
%MOMM*%
%LPD*%
G01*
G04 APERTURE LIST*
%ADD10C,0.150000*%
%ADD11C,0.120000*%
%ADD12C,0.650000*%
%ADD13O,1.000000X2.100000*%
%ADD14O,1.000000X1.600000*%
%ADD15O,2.720000X3.240000*%
%ADD16R,1.800000X1.800000*%
%ADD17C,1.800000*%
%ADD18R,1.700000X1.700000*%
%ADD19C,1.700000*%
%ADD20R,2.000000X2.000000*%
%ADD21O,2.000000X2.000000*%
G04 APERTURE END LIST*
D10*
X53004819Y-46776190D02*
X54004819Y-47109523D01*
X54004819Y-47109523D02*
X53004819Y-47442856D01*
X54100057Y-47538095D02*
X54100057Y-48299999D01*
X53957200Y-48490476D02*
X54004819Y-48633333D01*
X54004819Y-48633333D02*
X54004819Y-48871428D01*
X54004819Y-48871428D02*
X53957200Y-48966666D01*
X53957200Y-48966666D02*
X53909580Y-49014285D01*
X53909580Y-49014285D02*
X53814342Y-49061904D01*
X53814342Y-49061904D02*
X53719104Y-49061904D01*
X53719104Y-49061904D02*
X53623866Y-49014285D01*
X53623866Y-49014285D02*
X53576247Y-48966666D01*
X53576247Y-48966666D02*
X53528628Y-48871428D01*
X53528628Y-48871428D02*
X53481009Y-48680952D01*
X53481009Y-48680952D02*
X53433390Y-48585714D01*
X53433390Y-48585714D02*
X53385771Y-48538095D01*
X53385771Y-48538095D02*
X53290533Y-48490476D01*
X53290533Y-48490476D02*
X53195295Y-48490476D01*
X53195295Y-48490476D02*
X53100057Y-48538095D01*
X53100057Y-48538095D02*
X53052438Y-48585714D01*
X53052438Y-48585714D02*
X53004819Y-48680952D01*
X53004819Y-48680952D02*
X53004819Y-48919047D01*
X53004819Y-48919047D02*
X53052438Y-49061904D01*
X53004819Y-49490476D02*
X53814342Y-49490476D01*
X53814342Y-49490476D02*
X53909580Y-49538095D01*
X53909580Y-49538095D02*
X53957200Y-49585714D01*
X53957200Y-49585714D02*
X54004819Y-49680952D01*
X54004819Y-49680952D02*
X54004819Y-49871428D01*
X54004819Y-49871428D02*
X53957200Y-49966666D01*
X53957200Y-49966666D02*
X53909580Y-50014285D01*
X53909580Y-50014285D02*
X53814342Y-50061904D01*
X53814342Y-50061904D02*
X53004819Y-50061904D01*
X54004819Y-50538095D02*
X53004819Y-50538095D01*
X53004819Y-50538095D02*
X53004819Y-50919047D01*
X53004819Y-50919047D02*
X53052438Y-51014285D01*
X53052438Y-51014285D02*
X53100057Y-51061904D01*
X53100057Y-51061904D02*
X53195295Y-51109523D01*
X53195295Y-51109523D02*
X53338152Y-51109523D01*
X53338152Y-51109523D02*
X53433390Y-51061904D01*
X53433390Y-51061904D02*
X53481009Y-51014285D01*
X53481009Y-51014285D02*
X53528628Y-50919047D01*
X53528628Y-50919047D02*
X53528628Y-50538095D01*
X54004819Y-51538095D02*
X53004819Y-51538095D01*
X53004819Y-51538095D02*
X53004819Y-51919047D01*
X53004819Y-51919047D02*
X53052438Y-52014285D01*
X53052438Y-52014285D02*
X53100057Y-52061904D01*
X53100057Y-52061904D02*
X53195295Y-52109523D01*
X53195295Y-52109523D02*
X53338152Y-52109523D01*
X53338152Y-52109523D02*
X53433390Y-52061904D01*
X53433390Y-52061904D02*
X53481009Y-52014285D01*
X53481009Y-52014285D02*
X53528628Y-51919047D01*
X53528628Y-51919047D02*
X53528628Y-51538095D01*
X54004819Y-53014285D02*
X54004819Y-52538095D01*
X54004819Y-52538095D02*
X53004819Y-52538095D01*
X53528628Y-53538095D02*
X54004819Y-53538095D01*
X53004819Y-53204762D02*
X53528628Y-53538095D01*
X53528628Y-53538095D02*
X53004819Y-53871428D01*
X54004819Y-54728571D02*
X54004819Y-54157143D01*
X54004819Y-54442857D02*
X53004819Y-54442857D01*
X53004819Y-54442857D02*
X53147676Y-54347619D01*
X53147676Y-54347619D02*
X53242914Y-54252381D01*
X53242914Y-54252381D02*
X53290533Y-54157143D01*
X53052438Y-95281904D02*
X53004819Y-95186666D01*
X53004819Y-95186666D02*
X53004819Y-95043809D01*
X53004819Y-95043809D02*
X53052438Y-94900952D01*
X53052438Y-94900952D02*
X53147676Y-94805714D01*
X53147676Y-94805714D02*
X53242914Y-94758095D01*
X53242914Y-94758095D02*
X53433390Y-94710476D01*
X53433390Y-94710476D02*
X53576247Y-94710476D01*
X53576247Y-94710476D02*
X53766723Y-94758095D01*
X53766723Y-94758095D02*
X53861961Y-94805714D01*
X53861961Y-94805714D02*
X53957200Y-94900952D01*
X53957200Y-94900952D02*
X54004819Y-95043809D01*
X54004819Y-95043809D02*
X54004819Y-95139047D01*
X54004819Y-95139047D02*
X53957200Y-95281904D01*
X53957200Y-95281904D02*
X53909580Y-95329523D01*
X53909580Y-95329523D02*
X53576247Y-95329523D01*
X53576247Y-95329523D02*
X53576247Y-95139047D01*
X54004819Y-95758095D02*
X53004819Y-95758095D01*
X53004819Y-95758095D02*
X54004819Y-96329523D01*
X54004819Y-96329523D02*
X53004819Y-96329523D01*
X54004819Y-96805714D02*
X53004819Y-96805714D01*
X53004819Y-96805714D02*
X53004819Y-97043809D01*
X53004819Y-97043809D02*
X53052438Y-97186666D01*
X53052438Y-97186666D02*
X53147676Y-97281904D01*
X53147676Y-97281904D02*
X53242914Y-97329523D01*
X53242914Y-97329523D02*
X53433390Y-97377142D01*
X53433390Y-97377142D02*
X53576247Y-97377142D01*
X53576247Y-97377142D02*
X53766723Y-97329523D01*
X53766723Y-97329523D02*
X53861961Y-97281904D01*
X53861961Y-97281904D02*
X53957200Y-97186666D01*
X53957200Y-97186666D02*
X54004819Y-97043809D01*
X54004819Y-97043809D02*
X54004819Y-96805714D01*
X54004819Y-98329523D02*
X54004819Y-97758095D01*
X54004819Y-98043809D02*
X53004819Y-98043809D01*
X53004819Y-98043809D02*
X53147676Y-97948571D01*
X53147676Y-97948571D02*
X53242914Y-97853333D01*
X53242914Y-97853333D02*
X53290533Y-97758095D01*
D11*
X73854000Y-55058000D02*
X73854000Y-56388000D01*
X73854000Y-57658000D02*
X73854000Y-67878000D01*
X75184000Y-55058000D02*
X73854000Y-55058000D01*
X76514000Y-57658000D02*
X73854000Y-57658000D01*
X76514000Y-57658000D02*
X76514000Y-67878000D01*
X76514000Y-67878000D02*
X73854000Y-67878000D01*
X54550000Y-49470000D02*
X55880000Y-49470000D01*
X54550000Y-50800000D02*
X54550000Y-49470000D01*
X57150000Y-52130000D02*
X57150000Y-49470000D01*
X67370000Y-49470000D02*
X57150000Y-49470000D01*
X67370000Y-52130000D02*
X57150000Y-52130000D01*
X67370000Y-52130000D02*
X67370000Y-49470000D01*
X54550000Y-95190000D02*
X55880000Y-95190000D01*
X54550000Y-96520000D02*
X54550000Y-95190000D01*
X57150000Y-97850000D02*
X57150000Y-95190000D01*
X67370000Y-95190000D02*
X57150000Y-95190000D01*
X67370000Y-97850000D02*
X57150000Y-97850000D01*
X67370000Y-97850000D02*
X67370000Y-95190000D01*
X47946000Y-55058000D02*
X47946000Y-56388000D01*
X47946000Y-57658000D02*
X47946000Y-67878000D01*
X49276000Y-55058000D02*
X47946000Y-55058000D01*
X50606000Y-57658000D02*
X47946000Y-57658000D01*
X50606000Y-57658000D02*
X50606000Y-67878000D01*
X50606000Y-67878000D02*
X47946000Y-67878000D01*
%LPC*%
D12*
X74772000Y-46869000D03*
X68992000Y-46869000D03*
D13*
X76202000Y-47399000D03*
D14*
X76202000Y-43219000D03*
D13*
X67562000Y-47399000D03*
D14*
X67562000Y-43219000D03*
D15*
X49175000Y-92456000D03*
X58775000Y-92456000D03*
D16*
X51475000Y-99956000D03*
D17*
X53975000Y-99956000D03*
X56475000Y-99956000D03*
D15*
X65278000Y-92456000D03*
X74878000Y-92456000D03*
D16*
X67578000Y-99956000D03*
D17*
X70078000Y-99956000D03*
X72578000Y-99956000D03*
D18*
X75184000Y-56388000D03*
D19*
X75184000Y-58928000D03*
X75184000Y-61468000D03*
X75184000Y-64008000D03*
X75184000Y-66548000D03*
D20*
X55880000Y-50800000D03*
D21*
X58420000Y-50800000D03*
X60960000Y-50800000D03*
X63500000Y-50800000D03*
X66040000Y-50800000D03*
D20*
X55880000Y-96520000D03*
D21*
X58420000Y-96520000D03*
X60960000Y-96520000D03*
X63500000Y-96520000D03*
X66040000Y-96520000D03*
D18*
X49276000Y-56388000D03*
D19*
X49276000Y-58928000D03*
X49276000Y-61468000D03*
X49276000Y-64008000D03*
X49276000Y-66548000D03*
%LPD*%
M02*
