G04 #@! TF.GenerationSoftware,KiCad,Pcbnew,10.0.6-10.0.6~ubuntu26.04.1*
G04 #@! TF.CreationDate,2026-10-05T19:03:03+05:30*
G04 #@! TF.ProjectId,32bit-5v,33326269-742d-4357-962e-6b696361645f,rev?*
G04 #@! TF.SameCoordinates,Original*
G04 #@! TF.FileFunction,Copper,L3,Inr*
G04 #@! TF.FilePolarity,Positive*
%FSLAX46Y46*%
G04 Gerber Fmt 4.6, Leading zero omitted, Abs format (unit mm)*
G04 Created by KiCad (PCBNEW 10.0.6-10.0.6~ubuntu26.04.1) date 2026-10-05 19:03:03*
%MOMM*%
%LPD*%
G01*
G04 APERTURE LIST*
G04 #@! TA.AperFunction,HeatsinkPad*
%ADD10C,0.500000*%
G04 #@! TD*
G04 #@! TA.AperFunction,ComponentPad*
%ADD11O,1.000000X2.100000*%
G04 #@! TD*
G04 #@! TA.AperFunction,ComponentPad*
%ADD12O,1.000000X1.600000*%
G04 #@! TD*
G04 #@! TA.AperFunction,ComponentPad*
%ADD13O,2.720000X3.240000*%
G04 #@! TD*
G04 #@! TA.AperFunction,ComponentPad*
%ADD14R,1.800000X1.800000*%
G04 #@! TD*
G04 #@! TA.AperFunction,ComponentPad*
%ADD15C,1.800000*%
G04 #@! TD*
G04 #@! TA.AperFunction,HeatsinkPad*
%ADD16C,0.600000*%
G04 #@! TD*
G04 #@! TA.AperFunction,ComponentPad*
%ADD17R,1.700000X1.700000*%
G04 #@! TD*
G04 #@! TA.AperFunction,ComponentPad*
%ADD18C,1.700000*%
G04 #@! TD*
G04 #@! TA.AperFunction,ComponentPad*
%ADD19R,2.000000X2.000000*%
G04 #@! TD*
G04 #@! TA.AperFunction,ComponentPad*
%ADD20O,2.000000X2.000000*%
G04 #@! TD*
G04 #@! TA.AperFunction,ViaPad*
%ADD21C,4.000000*%
G04 #@! TD*
G04 #@! TA.AperFunction,ViaPad*
%ADD22C,0.500000*%
G04 #@! TD*
G04 #@! TA.AperFunction,ViaPad*
%ADD23C,0.700000*%
G04 #@! TD*
G04 #@! TA.AperFunction,ViaPad*
%ADD24C,0.600000*%
G04 #@! TD*
G04 #@! TA.AperFunction,Conductor*
%ADD25C,0.500000*%
G04 #@! TD*
G04 #@! TA.AperFunction,Conductor*
%ADD26C,1.000000*%
G04 #@! TD*
G04 #@! TA.AperFunction,Conductor*
%ADD27C,0.150000*%
G04 #@! TD*
G04 #@! TA.AperFunction,Conductor*
%ADD28C,0.400000*%
G04 #@! TD*
G04 #@! TA.AperFunction,Conductor*
%ADD29C,0.300000*%
G04 #@! TD*
G04 APERTURE END LIST*
D10*
X68616751Y-81804746D03*
X67273248Y-83148249D03*
X67945000Y-82476498D03*
X69288502Y-82476498D03*
X68616751Y-83148249D03*
X67945000Y-83820000D03*
X69288502Y-83820000D03*
X69960254Y-83148249D03*
X68616751Y-84491752D03*
D11*
X76202000Y-47399000D03*
D12*
X76202000Y-43219000D03*
D11*
X67562000Y-47399000D03*
D12*
X67562000Y-43219000D03*
D13*
X49175000Y-92456000D03*
X58775000Y-92456000D03*
D14*
X51475000Y-99956000D03*
D15*
X53975000Y-99956000D03*
X56475000Y-99956000D03*
D16*
X59470000Y-62900000D03*
X59470000Y-64300000D03*
X60170000Y-62200000D03*
X60170000Y-63600000D03*
X60170000Y-65000000D03*
X60870000Y-62900000D03*
X60870000Y-64300000D03*
X61570000Y-62200000D03*
X61570000Y-63600000D03*
X61570000Y-65000000D03*
X62270000Y-62900000D03*
X62270000Y-64300000D03*
D13*
X65278000Y-92456000D03*
X74878000Y-92456000D03*
D14*
X67578000Y-99956000D03*
D15*
X70078000Y-99956000D03*
X72578000Y-99956000D03*
D17*
X75184000Y-56388000D03*
D18*
X75184000Y-58928000D03*
X75184000Y-61468000D03*
X75184000Y-64008000D03*
X75184000Y-66548000D03*
D19*
X55880000Y-50800000D03*
D20*
X58420000Y-50800000D03*
X60960000Y-50800000D03*
X63500000Y-50800000D03*
X66040000Y-50800000D03*
D19*
X55880000Y-96520000D03*
D20*
X58420000Y-96520000D03*
X60960000Y-96520000D03*
X63500000Y-96520000D03*
X66040000Y-96520000D03*
D17*
X49276000Y-56388000D03*
D18*
X49276000Y-58928000D03*
X49276000Y-61468000D03*
X49276000Y-64008000D03*
X49276000Y-66548000D03*
D21*
X62784908Y-106045000D03*
D22*
X69250000Y-77250000D03*
X74590000Y-84930000D03*
X74572169Y-85492301D03*
X65250000Y-79000000D03*
X70850000Y-77825000D03*
X65500000Y-78250000D03*
X71750000Y-77250000D03*
X74340000Y-81600000D03*
X70958000Y-85506000D03*
X49022000Y-102616000D03*
X74700000Y-79800000D03*
X74350000Y-82760000D03*
D23*
X48260000Y-46228000D03*
D22*
X64516000Y-82550000D03*
D24*
X66349999Y-53250000D03*
D22*
X69050000Y-51550000D03*
X70537336Y-80697336D03*
X49530000Y-77216000D03*
D23*
X69650000Y-56800000D03*
D22*
X65450000Y-53250000D03*
D23*
X50292000Y-41826000D03*
D22*
X54864000Y-81026000D03*
D23*
X52080000Y-53900000D03*
D24*
X59362500Y-47500000D03*
D23*
X56134000Y-41826000D03*
D22*
X49100000Y-52950000D03*
D23*
X53848000Y-54864000D03*
D22*
X67056000Y-86106000D03*
X73830000Y-73370000D03*
D23*
X75107000Y-49784000D03*
D22*
X73860000Y-87670000D03*
D24*
X56250000Y-46500000D03*
D22*
X57400000Y-53000000D03*
X65600000Y-47300000D03*
X66548000Y-81026000D03*
D21*
X62377580Y-43815000D03*
D22*
X67310000Y-77216000D03*
X56896000Y-103124000D03*
X76216000Y-83730000D03*
X74689064Y-80499917D03*
X76125000Y-81041404D03*
X75326000Y-78740000D03*
X57500000Y-52250000D03*
X72800000Y-74892000D03*
D24*
X61950000Y-46500000D03*
X64099999Y-52350000D03*
D22*
X54356000Y-84074000D03*
X49276000Y-74676000D03*
X51308000Y-85598000D03*
D23*
X54920000Y-69836116D03*
X52324000Y-72390000D03*
D22*
X55372000Y-72390000D03*
X54102000Y-45466000D03*
X56371000Y-84582000D03*
X55118000Y-106934000D03*
X57531000Y-82677000D03*
X54593000Y-85598000D03*
X55643000Y-86614000D03*
X52324000Y-85852000D03*
X50930000Y-53450000D03*
X55880000Y-56896000D03*
X55880000Y-53340000D03*
X56896000Y-85344000D03*
X48768000Y-104902000D03*
X69596000Y-60960000D03*
X69342000Y-59690000D03*
X64008000Y-86360000D03*
X64008000Y-85344000D03*
D25*
X72800000Y-74892000D02*
X72000000Y-74092000D01*
D26*
X67800000Y-63480000D02*
X66040000Y-65240000D01*
D27*
X50292000Y-80010000D02*
X54356000Y-84074000D01*
X50292000Y-75692000D02*
X50292000Y-80010000D01*
D25*
X72000000Y-74092000D02*
X72000000Y-72200000D01*
D27*
X49276000Y-74676000D02*
X50292000Y-75692000D01*
D28*
X57500000Y-52250000D02*
X67800000Y-52250000D01*
D29*
X49276000Y-74676000D02*
X56604000Y-74676000D01*
D28*
X67800000Y-52250000D02*
X67800000Y-52560000D01*
D27*
X50292000Y-84582000D02*
X50292000Y-80010000D01*
X51308000Y-85598000D02*
X50292000Y-84582000D01*
D26*
X72000000Y-71200000D02*
X72000000Y-72200000D01*
D29*
X56604000Y-74676000D02*
X66040000Y-65240000D01*
D26*
X67800000Y-52560000D02*
X67800000Y-63480000D01*
X66040000Y-65240000D02*
X72000000Y-71200000D01*
D29*
X55880000Y-53340000D02*
X53950000Y-51410000D01*
X53950000Y-49450000D02*
X54950000Y-48450000D01*
X55880000Y-53340000D02*
X54590000Y-53340000D01*
X53450000Y-52200000D02*
X53450000Y-49050000D01*
D25*
X55880000Y-56896000D02*
X56304000Y-56896000D01*
D29*
X54590000Y-53340000D02*
X53450000Y-52200000D01*
X54950000Y-48450000D02*
X60450000Y-48450000D01*
X51181000Y-53199000D02*
X55739000Y-53199000D01*
X53950000Y-51410000D02*
X53950000Y-49450000D01*
X53450000Y-49050000D02*
X54950000Y-47550000D01*
X55880000Y-53340000D02*
X55880000Y-56896000D01*
X55880000Y-56896000D02*
X60804000Y-56896000D01*
X55739000Y-53199000D02*
X55880000Y-53340000D01*
X50930000Y-53450000D02*
X51181000Y-53199000D01*
G04 #@! TA.AperFunction,Conductor*
G36*
X75167382Y-76897039D02*
G01*
X75213617Y-76949423D01*
X75225298Y-77001670D01*
X75228137Y-78205564D01*
X75208610Y-78272649D01*
X75158988Y-78315852D01*
X75159153Y-78316137D01*
X75157693Y-78316979D01*
X75155914Y-78318529D01*
X75152202Y-78320149D01*
X75049387Y-78379511D01*
X75049384Y-78379513D01*
X74965513Y-78463384D01*
X74965511Y-78463387D01*
X74906201Y-78566114D01*
X74875500Y-78680691D01*
X74875500Y-78799309D01*
X74906201Y-78913886D01*
X74965511Y-79016613D01*
X75049387Y-79100489D01*
X75152114Y-79159799D01*
X75152116Y-79159800D01*
X75154105Y-79160624D01*
X75155525Y-79161768D01*
X75159153Y-79163863D01*
X75158826Y-79164428D01*
X75208511Y-79204462D01*
X75230579Y-79270755D01*
X75230658Y-79274894D01*
X75230940Y-79394183D01*
X75211414Y-79461269D01*
X75158718Y-79507148D01*
X75089583Y-79517255D01*
X75025959Y-79488381D01*
X75019259Y-79482157D01*
X74976615Y-79439513D01*
X74976613Y-79439511D01*
X74873886Y-79380201D01*
X74759309Y-79349500D01*
X74640691Y-79349500D01*
X74526114Y-79380201D01*
X74526112Y-79380201D01*
X74526112Y-79380202D01*
X74423387Y-79439511D01*
X74423384Y-79439513D01*
X74339513Y-79523384D01*
X74339511Y-79523387D01*
X74280201Y-79626114D01*
X74249500Y-79740691D01*
X74249500Y-79859309D01*
X74280201Y-79973886D01*
X74280202Y-79973887D01*
X74341717Y-80080433D01*
X74358190Y-80148333D01*
X74335338Y-80214360D01*
X74332707Y-80217919D01*
X74328577Y-80223301D01*
X74328575Y-80223303D01*
X74328575Y-80223304D01*
X74269265Y-80326031D01*
X74238564Y-80440608D01*
X74238564Y-80559226D01*
X74269265Y-80673803D01*
X74328575Y-80776530D01*
X74412451Y-80860406D01*
X74515178Y-80919716D01*
X74629755Y-80950417D01*
X74629758Y-80950417D01*
X74748370Y-80950417D01*
X74748373Y-80950417D01*
X74862950Y-80919716D01*
X74965677Y-80860406D01*
X75022792Y-80803290D01*
X75084111Y-80769808D01*
X75153803Y-80774792D01*
X75209737Y-80816663D01*
X75234154Y-80882127D01*
X75234470Y-80890682D01*
X75249700Y-87347741D01*
X75230173Y-87414826D01*
X75177477Y-87460706D01*
X75124568Y-87472028D01*
X74332177Y-87464791D01*
X74265320Y-87444495D01*
X74225923Y-87402798D01*
X74220491Y-87393390D01*
X74220487Y-87393385D01*
X74136615Y-87309513D01*
X74136613Y-87309511D01*
X74033886Y-87250201D01*
X73919309Y-87219500D01*
X73800691Y-87219500D01*
X73686114Y-87250201D01*
X73686112Y-87250201D01*
X73686112Y-87250202D01*
X73583387Y-87309510D01*
X73499510Y-87393387D01*
X73499041Y-87394201D01*
X73498462Y-87394752D01*
X73494565Y-87399832D01*
X73493772Y-87399224D01*
X73448472Y-87442415D01*
X73390524Y-87456192D01*
X64622868Y-87376122D01*
X64556011Y-87355826D01*
X64510740Y-87302606D01*
X64500000Y-87252127D01*
X64500000Y-86046691D01*
X66605500Y-86046691D01*
X66605500Y-86165309D01*
X66636201Y-86279886D01*
X66695511Y-86382613D01*
X66779387Y-86466489D01*
X66882114Y-86525799D01*
X66996691Y-86556500D01*
X66996694Y-86556500D01*
X67115306Y-86556500D01*
X67115309Y-86556500D01*
X67229886Y-86525799D01*
X67332613Y-86466489D01*
X67416489Y-86382613D01*
X67475799Y-86279886D01*
X67506500Y-86165309D01*
X67506500Y-86046691D01*
X67475799Y-85932114D01*
X67416489Y-85829387D01*
X67332613Y-85745511D01*
X67229886Y-85686201D01*
X67115309Y-85655500D01*
X66996691Y-85655500D01*
X66882114Y-85686201D01*
X66882112Y-85686201D01*
X66882112Y-85686202D01*
X66779387Y-85745511D01*
X66779384Y-85745513D01*
X66695513Y-85829384D01*
X66695511Y-85829387D01*
X66674091Y-85866488D01*
X66636201Y-85932114D01*
X66605500Y-86046691D01*
X64500000Y-86046691D01*
X64500000Y-85446691D01*
X70507500Y-85446691D01*
X70507500Y-85565309D01*
X70538201Y-85679886D01*
X70597511Y-85782613D01*
X70681387Y-85866489D01*
X70784114Y-85925799D01*
X70898691Y-85956500D01*
X70898694Y-85956500D01*
X71017306Y-85956500D01*
X71017309Y-85956500D01*
X71131886Y-85925799D01*
X71234613Y-85866489D01*
X71318489Y-85782613D01*
X71377799Y-85679886D01*
X71408500Y-85565309D01*
X71408500Y-85446691D01*
X71377799Y-85332114D01*
X71318489Y-85229387D01*
X71234613Y-85145511D01*
X71131886Y-85086201D01*
X71017309Y-85055500D01*
X70898691Y-85055500D01*
X70784114Y-85086201D01*
X70784112Y-85086201D01*
X70784112Y-85086202D01*
X70681387Y-85145511D01*
X70681384Y-85145513D01*
X70597513Y-85229384D01*
X70597511Y-85229387D01*
X70538201Y-85332114D01*
X70507500Y-85446691D01*
X64500000Y-85446691D01*
X64500000Y-83115827D01*
X64507533Y-83090171D01*
X64507717Y-83088940D01*
X66822748Y-83088940D01*
X66822748Y-83207558D01*
X66853449Y-83322135D01*
X66912759Y-83424862D01*
X66996635Y-83508738D01*
X67099362Y-83568048D01*
X67213939Y-83598749D01*
X67213942Y-83598749D01*
X67332555Y-83598749D01*
X67332557Y-83598749D01*
X67346316Y-83595062D01*
X67416163Y-83596721D01*
X67474027Y-83635881D01*
X67501534Y-83700108D01*
X67498188Y-83746922D01*
X67494501Y-83760684D01*
X67494500Y-83760689D01*
X67494500Y-83760691D01*
X67494500Y-83879309D01*
X67525201Y-83993886D01*
X67584511Y-84096613D01*
X67668387Y-84180489D01*
X67771114Y-84239799D01*
X67885691Y-84270500D01*
X67885694Y-84270500D01*
X68004306Y-84270500D01*
X68004309Y-84270500D01*
X68018072Y-84266812D01*
X68087920Y-84268475D01*
X68145783Y-84307637D01*
X68173287Y-84371865D01*
X68169939Y-84418679D01*
X68166251Y-84432443D01*
X68166251Y-84551061D01*
X68196952Y-84665638D01*
X68256262Y-84768365D01*
X68340138Y-84852241D01*
X68442865Y-84911551D01*
X68557442Y-84942252D01*
X68557445Y-84942252D01*
X68676057Y-84942252D01*
X68676060Y-84942252D01*
X68790637Y-84911551D01*
X68893364Y-84852241D01*
X68977240Y-84768365D01*
X69036550Y-84665638D01*
X69067251Y-84551061D01*
X69067251Y-84432443D01*
X69063563Y-84418679D01*
X69065224Y-84348835D01*
X69104384Y-84290971D01*
X69168612Y-84263464D01*
X69215429Y-84266811D01*
X69229193Y-84270500D01*
X69229195Y-84270500D01*
X69347808Y-84270500D01*
X69347811Y-84270500D01*
X69462388Y-84239799D01*
X69565115Y-84180489D01*
X69648991Y-84096613D01*
X69708301Y-83993886D01*
X69739002Y-83879309D01*
X69739002Y-83760691D01*
X69735314Y-83746927D01*
X69736977Y-83677078D01*
X69776140Y-83619216D01*
X69840369Y-83591712D01*
X69887179Y-83595060D01*
X69900945Y-83598749D01*
X69900949Y-83598749D01*
X70019560Y-83598749D01*
X70019563Y-83598749D01*
X70134140Y-83568048D01*
X70236867Y-83508738D01*
X70320743Y-83424862D01*
X70380053Y-83322135D01*
X70410754Y-83207558D01*
X70410754Y-83088940D01*
X70380053Y-82974363D01*
X70320743Y-82871636D01*
X70236867Y-82787760D01*
X70134140Y-82728450D01*
X70030543Y-82700691D01*
X73899500Y-82700691D01*
X73899500Y-82819309D01*
X73930201Y-82933886D01*
X73989511Y-83036613D01*
X74073387Y-83120489D01*
X74176114Y-83179799D01*
X74290691Y-83210500D01*
X74290694Y-83210500D01*
X74409306Y-83210500D01*
X74409309Y-83210500D01*
X74523886Y-83179799D01*
X74626613Y-83120489D01*
X74710489Y-83036613D01*
X74769799Y-82933886D01*
X74800500Y-82819309D01*
X74800500Y-82700691D01*
X74769799Y-82586114D01*
X74710489Y-82483387D01*
X74626613Y-82399511D01*
X74523886Y-82340201D01*
X74409309Y-82309500D01*
X74290691Y-82309500D01*
X74176114Y-82340201D01*
X74176112Y-82340201D01*
X74176112Y-82340202D01*
X74073387Y-82399511D01*
X74073384Y-82399513D01*
X73989513Y-82483384D01*
X73989511Y-82483387D01*
X73930201Y-82586114D01*
X73899500Y-82700691D01*
X70030543Y-82700691D01*
X70019563Y-82697749D01*
X69900945Y-82697749D01*
X69887181Y-82701436D01*
X69817332Y-82699774D01*
X69759470Y-82660611D01*
X69731966Y-82596382D01*
X69735313Y-82549571D01*
X69739002Y-82535807D01*
X69739002Y-82417189D01*
X69708301Y-82302612D01*
X69648991Y-82199885D01*
X69565115Y-82116009D01*
X69462388Y-82056699D01*
X69347811Y-82025998D01*
X69229193Y-82025998D01*
X69229191Y-82025998D01*
X69229186Y-82025999D01*
X69215424Y-82029686D01*
X69145575Y-82028020D01*
X69087714Y-81988855D01*
X69060213Y-81924625D01*
X69063563Y-81877816D01*
X69067251Y-81864055D01*
X69067251Y-81745437D01*
X69036550Y-81630860D01*
X69036548Y-81630856D01*
X69015595Y-81594564D01*
X69015594Y-81594562D01*
X68990783Y-81551589D01*
X68984491Y-81540691D01*
X73889500Y-81540691D01*
X73889500Y-81659309D01*
X73920201Y-81773886D01*
X73979511Y-81876613D01*
X74063387Y-81960489D01*
X74166114Y-82019799D01*
X74280691Y-82050500D01*
X74280694Y-82050500D01*
X74399306Y-82050500D01*
X74399309Y-82050500D01*
X74513886Y-82019799D01*
X74616613Y-81960489D01*
X74700489Y-81876613D01*
X74759799Y-81773886D01*
X74790500Y-81659309D01*
X74790500Y-81540691D01*
X74759799Y-81426114D01*
X74700489Y-81323387D01*
X74616613Y-81239511D01*
X74513886Y-81180201D01*
X74399309Y-81149500D01*
X74280691Y-81149500D01*
X74166114Y-81180201D01*
X74166112Y-81180201D01*
X74166112Y-81180202D01*
X74063387Y-81239511D01*
X74063384Y-81239513D01*
X73979513Y-81323384D01*
X73979511Y-81323387D01*
X73920201Y-81426114D01*
X73889500Y-81540691D01*
X68984491Y-81540691D01*
X68977240Y-81528133D01*
X68893364Y-81444257D01*
X68790637Y-81384947D01*
X68676060Y-81354246D01*
X68557442Y-81354246D01*
X68442865Y-81384947D01*
X68442863Y-81384947D01*
X68442863Y-81384948D01*
X68340138Y-81444257D01*
X68340135Y-81444259D01*
X68256264Y-81528130D01*
X68256262Y-81528133D01*
X68196952Y-81630860D01*
X68166251Y-81745437D01*
X68166251Y-81864055D01*
X68169938Y-81877818D01*
X68168276Y-81947666D01*
X68129114Y-82005529D01*
X68064886Y-82033033D01*
X68018075Y-82029686D01*
X68004310Y-82025998D01*
X68004309Y-82025998D01*
X67885691Y-82025998D01*
X67771114Y-82056699D01*
X67771112Y-82056699D01*
X67771112Y-82056700D01*
X67668387Y-82116009D01*
X67668384Y-82116011D01*
X67584513Y-82199882D01*
X67584511Y-82199885D01*
X67525201Y-82302612D01*
X67494500Y-82417189D01*
X67494500Y-82417191D01*
X67494500Y-82535808D01*
X67498188Y-82549573D01*
X67496523Y-82619423D01*
X67457358Y-82677284D01*
X67393128Y-82704786D01*
X67346321Y-82701437D01*
X67332557Y-82697749D01*
X67213939Y-82697749D01*
X67099362Y-82728450D01*
X67099360Y-82728450D01*
X67099360Y-82728451D01*
X66996635Y-82787760D01*
X66996632Y-82787762D01*
X66912761Y-82871633D01*
X66912759Y-82871636D01*
X66853449Y-82974363D01*
X66822748Y-83088940D01*
X64507717Y-83088940D01*
X64511478Y-83063724D01*
X64517226Y-83057159D01*
X64519685Y-83048788D01*
X64539889Y-83031280D01*
X64557509Y-83011161D01*
X64568865Y-83006172D01*
X64572489Y-83003033D01*
X64589690Y-82996668D01*
X64590760Y-82996359D01*
X64689886Y-82969799D01*
X64792613Y-82910489D01*
X64876489Y-82826613D01*
X64935799Y-82723886D01*
X64966500Y-82609309D01*
X64966500Y-82490691D01*
X64935799Y-82376114D01*
X64876489Y-82273387D01*
X64792613Y-82189511D01*
X64689886Y-82130201D01*
X64591904Y-82103946D01*
X64532245Y-82067581D01*
X64501717Y-82004734D01*
X64500000Y-81984172D01*
X64500000Y-80966691D01*
X66097500Y-80966691D01*
X66097500Y-81085309D01*
X66128201Y-81199886D01*
X66187511Y-81302613D01*
X66271387Y-81386489D01*
X66374114Y-81445799D01*
X66488691Y-81476500D01*
X66488694Y-81476500D01*
X66607306Y-81476500D01*
X66607309Y-81476500D01*
X66721886Y-81445799D01*
X66824613Y-81386489D01*
X66908489Y-81302613D01*
X66967799Y-81199886D01*
X66998500Y-81085309D01*
X66998500Y-80966691D01*
X66967799Y-80852114D01*
X66908489Y-80749387D01*
X66824613Y-80665511D01*
X66777010Y-80638027D01*
X70086836Y-80638027D01*
X70086836Y-80756645D01*
X70117537Y-80871222D01*
X70176847Y-80973949D01*
X70260723Y-81057825D01*
X70363450Y-81117135D01*
X70478027Y-81147836D01*
X70478030Y-81147836D01*
X70596642Y-81147836D01*
X70596645Y-81147836D01*
X70711222Y-81117135D01*
X70813949Y-81057825D01*
X70897825Y-80973949D01*
X70957135Y-80871222D01*
X70987836Y-80756645D01*
X70987836Y-80638027D01*
X70957135Y-80523450D01*
X70897825Y-80420723D01*
X70813949Y-80336847D01*
X70711222Y-80277537D01*
X70596645Y-80246836D01*
X70478027Y-80246836D01*
X70363450Y-80277537D01*
X70363448Y-80277537D01*
X70363448Y-80277538D01*
X70260723Y-80336847D01*
X70260720Y-80336849D01*
X70176849Y-80420720D01*
X70176847Y-80420723D01*
X70117537Y-80523450D01*
X70086836Y-80638027D01*
X66777010Y-80638027D01*
X66721886Y-80606201D01*
X66607309Y-80575500D01*
X66488691Y-80575500D01*
X66374114Y-80606201D01*
X66374112Y-80606201D01*
X66374112Y-80606202D01*
X66271387Y-80665511D01*
X66271384Y-80665513D01*
X66187513Y-80749384D01*
X66187511Y-80749387D01*
X66128201Y-80852114D01*
X66097500Y-80966691D01*
X64500000Y-80966691D01*
X64500000Y-77097643D01*
X64519685Y-77030604D01*
X64572489Y-76984849D01*
X64622863Y-76973648D01*
X66751026Y-76954213D01*
X66818239Y-76973285D01*
X66864474Y-77025669D01*
X66875049Y-77094733D01*
X66871930Y-77110300D01*
X66859500Y-77156689D01*
X66859500Y-77156691D01*
X66859500Y-77275309D01*
X66890201Y-77389886D01*
X66949511Y-77492613D01*
X67033387Y-77576489D01*
X67136114Y-77635799D01*
X67250691Y-77666500D01*
X67250694Y-77666500D01*
X67369306Y-77666500D01*
X67369309Y-77666500D01*
X67483886Y-77635799D01*
X67586613Y-77576489D01*
X67670489Y-77492613D01*
X67729799Y-77389886D01*
X67760500Y-77275309D01*
X67760500Y-77156691D01*
X67745346Y-77100136D01*
X67747009Y-77030288D01*
X67786171Y-76972425D01*
X67850400Y-76944921D01*
X67863970Y-76944050D01*
X75100166Y-76877967D01*
X75167382Y-76897039D01*
G37*
G04 #@! TD.AperFunction*
M02*
