M48
; DRILL file {KiCad 9.0.8+dfsg-1} date 2026-09-17T14:27:52+0530
; FORMAT={-:-/ absolute / metric / decimal}
; #@! TF.CreationDate,2026-09-17T14:27:52+05:30
; #@! TF.GenerationSoftware,Kicad,Pcbnew,9.0.8+dfsg-1
; #@! TF.FileFunction,Plated,1,2,PTH
FMAT,2
METRIC
; #@! TA.AperFunction,Plated,PTH,ViaDrill
T1C0.300
; #@! TA.AperFunction,Plated,PTH,ViaDrill
T2C0.400
; #@! TA.AperFunction,Plated,PTH,ViaDrill
T3C0.500
; #@! TA.AperFunction,Plated,PTH,ComponentDrill
T4C0.600
; #@! TA.AperFunction,Plated,PTH,ComponentDrill
T5C0.800
; #@! TA.AperFunction,Plated,PTH,ComponentDrill
T6C1.000
; #@! TA.AperFunction,Plated,PTH,ComponentDrill
T7C1.100
; #@! TA.AperFunction,Plated,PTH,ViaDrill
T8C3.200
%
G90
G05
T1
X34.29Y-95.504
X36.45Y-56.388
X39.37Y-54.102
X41.275Y-43.434
X42.926Y-36.449
X43.434Y-62.484
X43.434Y-63.246
X43.434Y-64.008
X44.294Y-57.178
X44.323Y-62.484
X44.323Y-63.246
X44.323Y-64.008
X44.577Y-66.548
X45.212Y-62.484
X45.212Y-63.246
X45.212Y-64.008
X45.339Y-70.862
X46.228Y-62.484
X46.228Y-63.246
X46.228Y-64.008
X47.244Y-62.484
X48.133Y-62.484
X232.156Y-85.09
X232.41Y-87.63
X232.41Y-91.44
X232.41Y-95.25
X238.76Y-87.63
X238.76Y-98.425
X239.522Y-56.388
X240.411Y-64.643
X240.72Y-100.275
X241.877Y-90.862
X242.577Y-57.777
X245.11Y-100.33
X245.745Y-84.455
X245.745Y-91.44
X246.38Y-51.181
X246.38Y-57.912
X247.015Y-88.265
X247.015Y-93.98
X249.047Y-88.265
X249.874Y-86.487
T2
X39.9Y-43.3
X49.725Y-33.6
X50.5Y-39.8
X53.5Y-39.8
X53.8Y-35.8
X54.7Y-28.3
X54.7Y-29.7
X54.7Y-49.1
X54.7Y-50.5
X60.84Y-27.84
X60.96Y-96.52
X70.64Y-27.84
X70.64Y-30.575
X70.64Y-31.825
X70.76Y-96.52
X70.76Y-99.255
X70.76Y-100.505
X71.74Y-29.0
X71.86Y-97.68
X72.84Y-21.2
X72.84Y-33.3
X72.96Y-89.88
X72.96Y-101.98
X74.34Y-35.1
X74.34Y-38.3
X74.46Y-103.78
X74.46Y-106.98
X76.84Y-35.1
X76.84Y-38.3
X76.96Y-103.78
X76.96Y-106.98
X77.703Y-33.35
X77.822Y-102.03
X79.14Y-30.775
X79.26Y-99.455
X80.34Y-29.4
X80.46Y-98.08
X81.14Y-35.0
X81.26Y-103.68
X91.44Y-27.94
X91.44Y-96.52
X101.24Y-27.94
X101.24Y-30.675
X101.24Y-31.925
X101.24Y-96.52
X101.24Y-99.255
X101.24Y-100.505
X102.34Y-29.1
X102.34Y-97.68
X103.44Y-21.3
X103.44Y-33.4
X103.44Y-89.88
X103.44Y-101.98
X104.94Y-35.2
X104.94Y-38.4
X104.94Y-103.78
X104.94Y-106.98
X107.44Y-35.2
X107.44Y-38.4
X107.44Y-103.78
X107.44Y-106.98
X108.302Y-33.45
X108.302Y-102.03
X109.74Y-30.875
X109.74Y-99.455
X110.94Y-29.5
X110.94Y-98.08
X111.74Y-35.1
X111.74Y-103.68
X121.92Y-27.94
X121.92Y-96.52
X131.72Y-27.94
X131.72Y-30.675
X131.72Y-31.925
X131.72Y-96.52
X131.72Y-99.255
X131.72Y-100.505
X132.82Y-29.1
X132.82Y-97.68
X133.92Y-21.3
X133.92Y-33.4
X133.92Y-89.88
X133.92Y-101.98
X135.42Y-35.2
X135.42Y-38.4
X135.42Y-103.78
X135.42Y-106.98
X137.92Y-35.2
X137.92Y-38.4
X137.92Y-103.78
X137.92Y-106.98
X138.782Y-33.45
X138.782Y-102.03
X140.22Y-30.875
X140.22Y-99.455
X141.42Y-29.5
X141.42Y-98.08
X142.22Y-35.1
X142.22Y-103.68
X152.4Y-27.94
X152.4Y-96.52
X162.2Y-27.94
X162.2Y-30.675
X162.2Y-31.925
X162.2Y-96.52
X162.2Y-99.255
X162.2Y-100.505
X163.3Y-29.1
X163.3Y-97.68
X164.4Y-21.3
X164.4Y-33.4
X164.4Y-89.88
X164.4Y-101.98
X165.9Y-35.2
X165.9Y-38.4
X165.9Y-103.78
X165.9Y-106.98
X168.4Y-35.2
X168.4Y-38.4
X168.4Y-103.78
X168.4Y-106.98
X169.262Y-33.45
X169.262Y-102.03
X170.7Y-30.875
X170.7Y-99.455
X171.9Y-29.5
X171.9Y-98.08
X172.7Y-35.1
X172.7Y-103.68
X182.88Y-27.94
X182.88Y-96.52
X192.68Y-27.94
X192.68Y-30.675
X192.68Y-31.925
X192.68Y-96.52
X192.68Y-99.255
X192.68Y-100.505
X193.78Y-29.1
X193.78Y-97.68
X194.88Y-21.3
X194.88Y-33.4
X194.88Y-89.88
X194.88Y-101.98
X196.38Y-35.2
X196.38Y-38.4
X196.38Y-103.78
X196.38Y-106.98
X198.88Y-35.2
X198.88Y-38.4
X198.88Y-103.78
X198.88Y-106.98
X199.742Y-33.45
X199.742Y-102.03
X201.18Y-30.875
X201.18Y-99.455
X202.38Y-29.5
X202.38Y-98.08
X203.18Y-35.1
X203.18Y-103.68
X213.36Y-27.94
X213.36Y-96.52
X223.16Y-27.94
X223.16Y-30.675
X223.16Y-31.925
X223.16Y-96.52
X223.16Y-99.255
X223.16Y-100.505
X224.26Y-29.1
X224.26Y-97.68
X225.36Y-21.3
X225.36Y-33.4
X225.36Y-89.88
X225.36Y-101.98
X226.86Y-35.2
X226.86Y-38.4
X226.86Y-103.78
X226.86Y-106.98
X228.0Y-27.94
X229.36Y-35.2
X229.36Y-38.4
X229.36Y-103.78
X229.36Y-106.98
X230.222Y-33.45
X230.222Y-102.03
X231.66Y-30.875
X231.66Y-99.455
X232.86Y-29.5
X232.86Y-98.08
X233.66Y-35.1
X233.66Y-103.68
T3
X53.637Y-43.8
X54.637Y-43.8
X58.5Y-21.3
X58.5Y-89.88
X59.7Y-21.3
X59.7Y-89.88
T5
X60.84Y-34.2
X60.96Y-102.88
X62.84Y-34.2
X62.96Y-102.88
X91.44Y-34.3
X91.44Y-102.88
X93.44Y-34.3
X93.44Y-102.88
X121.92Y-34.3
X121.92Y-102.88
X123.92Y-34.3
X123.92Y-102.88
X152.4Y-34.3
X152.4Y-102.88
X154.4Y-34.3
X154.4Y-102.88
X182.88Y-34.3
X182.88Y-102.88
X184.88Y-34.3
X184.88Y-102.88
X213.36Y-34.3
X213.36Y-102.88
X215.36Y-34.3
X215.36Y-102.88
T6
X41.275Y-142.24
X41.275Y-144.78
X41.275Y-147.32
X41.275Y-149.86
X41.275Y-152.4
X43.815Y-142.24
X43.815Y-144.78
X43.815Y-147.32
X43.815Y-149.86
X43.815Y-152.4
X60.84Y-38.0
X60.96Y-83.82
X60.96Y-106.68
X60.96Y-152.4
X63.38Y-38.0
X63.5Y-83.82
X63.5Y-106.68
X63.5Y-152.4
X65.92Y-38.0
X66.04Y-83.82
X66.04Y-106.68
X66.04Y-152.4
X68.46Y-38.0
X68.58Y-83.82
X68.58Y-106.68
X68.58Y-152.4
X71.0Y-38.0
X71.12Y-83.82
X71.12Y-106.68
X71.12Y-152.4
X91.44Y-38.1
X91.44Y-83.82
X91.44Y-106.68
X91.44Y-152.4
X93.98Y-38.1
X93.98Y-83.82
X93.98Y-106.68
X93.98Y-152.4
X96.52Y-38.1
X96.52Y-83.82
X96.52Y-106.68
X96.52Y-152.4
X99.06Y-38.1
X99.06Y-83.82
X99.06Y-106.68
X99.06Y-152.4
X101.6Y-38.1
X101.6Y-83.82
X101.6Y-106.68
X101.6Y-152.4
X121.92Y-38.1
X121.92Y-83.82
X121.92Y-106.68
X121.92Y-152.4
X124.46Y-38.1
X124.46Y-83.82
X124.46Y-106.68
X124.46Y-152.4
X127.0Y-38.1
X127.0Y-83.82
X127.0Y-106.68
X127.0Y-152.4
X129.54Y-38.1
X129.54Y-83.82
X129.54Y-106.68
X129.54Y-152.4
X132.08Y-38.1
X132.08Y-83.82
X132.08Y-106.68
X132.08Y-152.4
X152.4Y-38.1
X152.4Y-83.82
X152.4Y-106.68
X152.4Y-152.4
X154.94Y-38.1
X154.94Y-83.82
X154.94Y-106.68
X154.94Y-152.4
X157.48Y-38.1
X157.48Y-83.82
X157.48Y-106.68
X157.48Y-152.4
X160.02Y-38.1
X160.02Y-83.82
X160.02Y-106.68
X160.02Y-152.4
X162.56Y-38.1
X162.56Y-83.82
X162.56Y-106.68
X162.56Y-152.4
X182.88Y-38.1
X182.88Y-83.82
X182.88Y-106.68
X182.88Y-152.4
X185.42Y-38.1
X185.42Y-83.82
X185.42Y-106.68
X185.42Y-152.4
X187.96Y-38.1
X187.96Y-83.82
X187.96Y-106.68
X187.96Y-152.4
X190.5Y-38.1
X190.5Y-83.82
X190.5Y-106.68
X190.5Y-152.4
X193.04Y-38.1
X193.04Y-83.82
X193.04Y-106.68
X193.04Y-152.4
X213.36Y-38.1
X213.36Y-83.82
X213.36Y-106.68
X213.36Y-152.4
X215.9Y-38.1
X215.9Y-83.82
X215.9Y-106.68
X215.9Y-152.4
X218.44Y-38.1
X218.44Y-83.82
X218.44Y-106.68
X218.44Y-152.4
X220.98Y-38.1
X220.98Y-83.82
X220.98Y-106.68
X220.98Y-152.4
X223.52Y-38.1
X223.52Y-83.82
X223.52Y-106.68
X223.52Y-152.4
X238.76Y-76.2
X241.213Y-123.832
X241.213Y-141.612
X241.3Y-76.2
X243.713Y-123.832
X243.713Y-141.612
X243.84Y-76.2
X246.213Y-123.832
X246.213Y-141.612
X246.38Y-76.2
X248.92Y-76.2
T8
X38.1Y-25.4
X38.1Y-170.18
X67.458Y-31.115
X67.458Y-99.695
X67.865Y-93.345
X67.865Y-161.925
X97.938Y-31.115
X97.938Y-99.695
X98.345Y-93.345
X98.345Y-161.925
X128.418Y-31.115
X128.418Y-99.695
X128.825Y-93.345
X128.825Y-161.925
X158.898Y-31.115
X158.898Y-99.695
X159.305Y-93.345
X159.305Y-161.925
X189.378Y-31.115
X189.378Y-99.695
X189.785Y-93.345
X189.785Y-161.925
X219.858Y-31.115
X219.858Y-99.695
X220.265Y-93.345
X220.265Y-161.925
X246.38Y-25.4
X246.38Y-170.18
T4
G00X33.74Y-42.67
M15
G01X33.14Y-42.67
M16
G05
G00X33.74Y-51.31
M15
G01X33.14Y-51.31
M16
G05
G00X38.17Y-42.67
M15
G01X37.07Y-42.67
M16
G05
G00X38.17Y-51.31
M15
G01X37.07Y-51.31
M16
G05
G00X40.14Y-101.6
M15
G01X41.14Y-101.6
M16
G05
G00X40.14Y-109.9
M15
G01X41.14Y-109.9
M16
G05
G00X40.14Y-113.0
M15
G01X41.14Y-113.0
M16
G05
G00X40.14Y-122.08
M15
G01X41.14Y-122.08
M16
G05
G00X40.14Y-130.38
M15
G01X41.14Y-130.38
M16
G05
G00X40.14Y-133.48
M15
G01X41.14Y-133.48
M16
G05
G00X243.34Y-35.56
M15
G01X244.34Y-35.56
M16
G05
G00X243.34Y-43.86
M15
G01X244.34Y-43.86
M16
G05
G00X243.34Y-46.96
M15
G01X244.34Y-46.96
M16
G05
G00X243.34Y-150.02
M15
G01X244.34Y-150.02
M16
G05
G00X243.34Y-158.32
M15
G01X244.34Y-158.32
M16
G05
G00X243.34Y-161.42
M15
G01X244.34Y-161.42
M16
G05
T7
G00X238.913Y-116.932
M15
G01X238.913Y-115.732
M16
G05
G00X238.913Y-134.712
M15
G01X238.913Y-133.512
M16
G05
G00X248.513Y-116.932
M15
G01X248.513Y-115.732
M16
G05
G00X248.513Y-134.712
M15
G01X248.513Y-133.512
M16
G05
M30
