G04 #@! TF.GenerationSoftware,KiCad,Pcbnew,9.0.8+dfsg-1*
G04 #@! TF.CreationDate,2026-09-17T12:42:49+05:30*
G04 #@! TF.ProjectId,base,62617365-2e6b-4696-9361-645f70636258,rev?*
G04 #@! TF.SameCoordinates,Original*
G04 #@! TF.FileFunction,Copper,L1,Top*
G04 #@! TF.FilePolarity,Positive*
%FSLAX46Y46*%
G04 Gerber Fmt 4.6, Leading zero omitted, Abs format (unit mm)*
G04 Created by KiCad (PCBNEW 9.0.8+dfsg-1) date 2026-09-17 12:42:49*
%MOMM*%
%LPD*%
G01*
G04 APERTURE LIST*
G04 #@! TA.AperFunction,Conductor*
%ADD10C,0.200000*%
G04 #@! TD*
G04 #@! TA.AperFunction,ComponentPad*
%ADD11O,3.100000X2.100000*%
G04 #@! TD*
G04 #@! TA.AperFunction,ComponentPad*
%ADD12O,2.720000X3.240000*%
G04 #@! TD*
G04 #@! TA.AperFunction,ComponentPad*
%ADD13R,1.800000X1.800000*%
G04 #@! TD*
G04 #@! TA.AperFunction,ComponentPad*
%ADD14C,1.800000*%
G04 #@! TD*
G04 #@! TA.AperFunction,ComponentPad*
%ADD15R,1.350000X1.350000*%
G04 #@! TD*
G04 #@! TA.AperFunction,ComponentPad*
%ADD16C,1.350000*%
G04 #@! TD*
G04 #@! TA.AperFunction,ComponentPad*
%ADD17R,2.000000X2.000000*%
G04 #@! TD*
G04 #@! TA.AperFunction,ComponentPad*
%ADD18O,2.000000X2.000000*%
G04 #@! TD*
G04 #@! TA.AperFunction,HeatsinkPad*
%ADD19R,2.290000X3.000000*%
G04 #@! TD*
G04 #@! TA.AperFunction,SMDPad,CuDef*
%ADD20R,1.050000X0.650000*%
G04 #@! TD*
G04 #@! TA.AperFunction,SMDPad,CuDef*
%ADD21R,1.450000X0.300000*%
G04 #@! TD*
G04 #@! TA.AperFunction,SMDPad,CuDef*
%ADD22R,1.450000X0.600000*%
G04 #@! TD*
G04 #@! TA.AperFunction,ComponentPad*
%ADD23O,2.100000X1.000000*%
G04 #@! TD*
G04 #@! TA.AperFunction,ComponentPad*
%ADD24O,1.600000X1.000000*%
G04 #@! TD*
G04 #@! TA.AperFunction,ComponentPad*
%ADD25R,1.700000X1.700000*%
G04 #@! TD*
G04 #@! TA.AperFunction,ComponentPad*
%ADD26O,1.700000X1.700000*%
G04 #@! TD*
G04 #@! TA.AperFunction,ViaPad*
%ADD27C,5.000000*%
G04 #@! TD*
G04 #@! TA.AperFunction,ViaPad*
%ADD28C,0.800000*%
G04 #@! TD*
G04 #@! TA.AperFunction,ViaPad*
%ADD29C,0.700000*%
G04 #@! TD*
G04 #@! TA.AperFunction,ViaPad*
%ADD30C,1.000000*%
G04 #@! TD*
G04 #@! TA.AperFunction,Conductor*
%ADD31C,0.500000*%
G04 #@! TD*
G04 #@! TA.AperFunction,Conductor*
%ADD32C,0.400000*%
G04 #@! TD*
G04 #@! TA.AperFunction,Conductor*
%ADD33C,0.250000*%
G04 #@! TD*
G04 #@! TA.AperFunction,Conductor*
%ADD34C,0.300000*%
G04 #@! TD*
G04 #@! TA.AperFunction,Conductor*
%ADD35C,0.800000*%
G04 #@! TD*
G04 #@! TA.AperFunction,Conductor*
%ADD36C,1.000000*%
G04 #@! TD*
G04 #@! TA.AperFunction,Conductor*
%ADD37C,1.200000*%
G04 #@! TD*
G04 APERTURE END LIST*
D10*
X229515000Y-157480000D02*
X42545000Y-158115000D01*
X42545000Y-137160000D01*
X229515000Y-137160000D01*
X229515000Y-157480000D01*
G04 #@! TA.AperFunction,Conductor*
G36*
X229515000Y-157480000D02*
G01*
X42545000Y-158115000D01*
X42545000Y-137160000D01*
X229515000Y-137160000D01*
X229515000Y-157480000D01*
G37*
G04 #@! TD.AperFunction*
X49276000Y-65024000D02*
X49403000Y-65405000D01*
X49403000Y-67310000D01*
X48895000Y-67310000D01*
X48895000Y-65024000D01*
X42418000Y-65024000D01*
X42418000Y-62103000D01*
X49276000Y-62103000D01*
X49276000Y-65024000D01*
G04 #@! TA.AperFunction,Conductor*
G36*
X49276000Y-65024000D02*
G01*
X49403000Y-65405000D01*
X49403000Y-67310000D01*
X48895000Y-67310000D01*
X48895000Y-65024000D01*
X42418000Y-65024000D01*
X42418000Y-62103000D01*
X49276000Y-62103000D01*
X49276000Y-65024000D01*
G37*
G04 #@! TD.AperFunction*
G04 #@! TA.AperFunction,SMDPad,CuDef*
G36*
G01*
X238395000Y-61283000D02*
X238395000Y-61653000D01*
G75*
G02*
X238260000Y-61788000I-135000J0D01*
G01*
X237990000Y-61788000D01*
G75*
G02*
X237855000Y-61653000I0J135000D01*
G01*
X237855000Y-61283000D01*
G75*
G02*
X237990000Y-61148000I135000J0D01*
G01*
X238260000Y-61148000D01*
G75*
G02*
X238395000Y-61283000I0J-135000D01*
G01*
G37*
G04 #@! TD.AperFunction*
G04 #@! TA.AperFunction,SMDPad,CuDef*
G36*
G01*
X237375000Y-61283000D02*
X237375000Y-61653000D01*
G75*
G02*
X237240000Y-61788000I-135000J0D01*
G01*
X236970000Y-61788000D01*
G75*
G02*
X236835000Y-61653000I0J135000D01*
G01*
X236835000Y-61283000D01*
G75*
G02*
X236970000Y-61148000I135000J0D01*
G01*
X237240000Y-61148000D01*
G75*
G02*
X237375000Y-61283000I0J-135000D01*
G01*
G37*
G04 #@! TD.AperFunction*
G04 #@! TA.AperFunction,SMDPad,CuDef*
G36*
G01*
X140140000Y-103865000D02*
X140140000Y-103495000D01*
G75*
G02*
X140275000Y-103360000I135000J0D01*
G01*
X140545000Y-103360000D01*
G75*
G02*
X140680000Y-103495000I0J-135000D01*
G01*
X140680000Y-103865000D01*
G75*
G02*
X140545000Y-104000000I-135000J0D01*
G01*
X140275000Y-104000000D01*
G75*
G02*
X140140000Y-103865000I0J135000D01*
G01*
G37*
G04 #@! TD.AperFunction*
G04 #@! TA.AperFunction,SMDPad,CuDef*
G36*
G01*
X141160000Y-103865000D02*
X141160000Y-103495000D01*
G75*
G02*
X141295000Y-103360000I135000J0D01*
G01*
X141565000Y-103360000D01*
G75*
G02*
X141700000Y-103495000I0J-135000D01*
G01*
X141700000Y-103865000D01*
G75*
G02*
X141565000Y-104000000I-135000J0D01*
G01*
X141295000Y-104000000D01*
G75*
G02*
X141160000Y-103865000I0J135000D01*
G01*
G37*
G04 #@! TD.AperFunction*
G04 #@! TA.AperFunction,SMDPad,CuDef*
G36*
G01*
X226690000Y-35540000D02*
X227030000Y-35540000D01*
G75*
G02*
X227170000Y-35680000I0J-140000D01*
G01*
X227170000Y-35960000D01*
G75*
G02*
X227030000Y-36100000I-140000J0D01*
G01*
X226690000Y-36100000D01*
G75*
G02*
X226550000Y-35960000I0J140000D01*
G01*
X226550000Y-35680000D01*
G75*
G02*
X226690000Y-35540000I140000J0D01*
G01*
G37*
G04 #@! TD.AperFunction*
G04 #@! TA.AperFunction,SMDPad,CuDef*
G36*
G01*
X226690000Y-36500000D02*
X227030000Y-36500000D01*
G75*
G02*
X227170000Y-36640000I0J-140000D01*
G01*
X227170000Y-36920000D01*
G75*
G02*
X227030000Y-37060000I-140000J0D01*
G01*
X226690000Y-37060000D01*
G75*
G02*
X226550000Y-36920000I0J140000D01*
G01*
X226550000Y-36640000D01*
G75*
G02*
X226690000Y-36500000I140000J0D01*
G01*
G37*
G04 #@! TD.AperFunction*
G04 #@! TA.AperFunction,SMDPad,CuDef*
G36*
G01*
X248595000Y-99320000D02*
X248225000Y-99320000D01*
G75*
G02*
X248090000Y-99185000I0J135000D01*
G01*
X248090000Y-98915000D01*
G75*
G02*
X248225000Y-98780000I135000J0D01*
G01*
X248595000Y-98780000D01*
G75*
G02*
X248730000Y-98915000I0J-135000D01*
G01*
X248730000Y-99185000D01*
G75*
G02*
X248595000Y-99320000I-135000J0D01*
G01*
G37*
G04 #@! TD.AperFunction*
G04 #@! TA.AperFunction,SMDPad,CuDef*
G36*
G01*
X248595000Y-98300000D02*
X248225000Y-98300000D01*
G75*
G02*
X248090000Y-98165000I0J135000D01*
G01*
X248090000Y-97895000D01*
G75*
G02*
X248225000Y-97760000I135000J0D01*
G01*
X248595000Y-97760000D01*
G75*
G02*
X248730000Y-97895000I0J-135000D01*
G01*
X248730000Y-98165000D01*
G75*
G02*
X248595000Y-98300000I-135000J0D01*
G01*
G37*
G04 #@! TD.AperFunction*
G04 #@! TA.AperFunction,ComponentPad*
G36*
G01*
X39340000Y-131030000D02*
X39340000Y-129730000D01*
G75*
G02*
X39990000Y-129080000I650000J0D01*
G01*
X41290000Y-129080000D01*
G75*
G02*
X41940000Y-129730000I0J-650000D01*
G01*
X41940000Y-131030000D01*
G75*
G02*
X41290000Y-131680000I-650000J0D01*
G01*
X39990000Y-131680000D01*
G75*
G02*
X39340000Y-131030000I0J650000D01*
G01*
G37*
G04 #@! TD.AperFunction*
D11*
X40640000Y-133480000D03*
G04 #@! TA.AperFunction,ComponentPad*
G36*
G01*
X39340000Y-122730000D02*
X39340000Y-121430000D01*
G75*
G02*
X39990000Y-120780000I650000J0D01*
G01*
X41290000Y-120780000D01*
G75*
G02*
X41940000Y-121430000I0J-650000D01*
G01*
X41940000Y-122730000D01*
G75*
G02*
X41290000Y-123380000I-650000J0D01*
G01*
X39990000Y-123380000D01*
G75*
G02*
X39340000Y-122730000I0J650000D01*
G01*
G37*
G04 #@! TD.AperFunction*
D12*
X238913000Y-134112000D03*
X248513000Y-134112000D03*
D13*
X241213000Y-141612000D03*
D14*
X243713000Y-141612000D03*
X246213000Y-141612000D03*
G04 #@! TA.AperFunction,SMDPad,CuDef*
G36*
G01*
X231580000Y-35285000D02*
X231580000Y-34915000D01*
G75*
G02*
X231715000Y-34780000I135000J0D01*
G01*
X231985000Y-34780000D01*
G75*
G02*
X232120000Y-34915000I0J-135000D01*
G01*
X232120000Y-35285000D01*
G75*
G02*
X231985000Y-35420000I-135000J0D01*
G01*
X231715000Y-35420000D01*
G75*
G02*
X231580000Y-35285000I0J135000D01*
G01*
G37*
G04 #@! TD.AperFunction*
G04 #@! TA.AperFunction,SMDPad,CuDef*
G36*
G01*
X232600000Y-35285000D02*
X232600000Y-34915000D01*
G75*
G02*
X232735000Y-34780000I135000J0D01*
G01*
X233005000Y-34780000D01*
G75*
G02*
X233140000Y-34915000I0J-135000D01*
G01*
X233140000Y-35285000D01*
G75*
G02*
X233005000Y-35420000I-135000J0D01*
G01*
X232735000Y-35420000D01*
G75*
G02*
X232600000Y-35285000I0J135000D01*
G01*
G37*
G04 #@! TD.AperFunction*
G04 #@! TA.AperFunction,SMDPad,CuDef*
G36*
G01*
X109660000Y-35285000D02*
X109660000Y-34915000D01*
G75*
G02*
X109795000Y-34780000I135000J0D01*
G01*
X110065000Y-34780000D01*
G75*
G02*
X110200000Y-34915000I0J-135000D01*
G01*
X110200000Y-35285000D01*
G75*
G02*
X110065000Y-35420000I-135000J0D01*
G01*
X109795000Y-35420000D01*
G75*
G02*
X109660000Y-35285000I0J135000D01*
G01*
G37*
G04 #@! TD.AperFunction*
G04 #@! TA.AperFunction,SMDPad,CuDef*
G36*
G01*
X110680000Y-35285000D02*
X110680000Y-34915000D01*
G75*
G02*
X110815000Y-34780000I135000J0D01*
G01*
X111085000Y-34780000D01*
G75*
G02*
X111220000Y-34915000I0J-135000D01*
G01*
X111220000Y-35285000D01*
G75*
G02*
X111085000Y-35420000I-135000J0D01*
G01*
X110815000Y-35420000D01*
G75*
G02*
X110680000Y-35285000I0J135000D01*
G01*
G37*
G04 #@! TD.AperFunction*
G04 #@! TA.AperFunction,SMDPad,CuDef*
G36*
G01*
X231437500Y-121585000D02*
X231437500Y-120285000D01*
G75*
G02*
X231687500Y-120035000I250000J0D01*
G01*
X232337500Y-120035000D01*
G75*
G02*
X232587500Y-120285000I0J-250000D01*
G01*
X232587500Y-121585000D01*
G75*
G02*
X232337500Y-121835000I-250000J0D01*
G01*
X231687500Y-121835000D01*
G75*
G02*
X231437500Y-121585000I0J250000D01*
G01*
G37*
G04 #@! TD.AperFunction*
G04 #@! TA.AperFunction,SMDPad,CuDef*
G36*
G01*
X234387500Y-121585000D02*
X234387500Y-120285000D01*
G75*
G02*
X234637500Y-120035000I250000J0D01*
G01*
X235287500Y-120035000D01*
G75*
G02*
X235537500Y-120285000I0J-250000D01*
G01*
X235537500Y-121585000D01*
G75*
G02*
X235287500Y-121835000I-250000J0D01*
G01*
X234637500Y-121835000D01*
G75*
G02*
X234387500Y-121585000I0J250000D01*
G01*
G37*
G04 #@! TD.AperFunction*
G04 #@! TA.AperFunction,SMDPad,CuDef*
G36*
G01*
X170000000Y-32475000D02*
X170000000Y-32675000D01*
G75*
G02*
X169900000Y-32775000I-100000J0D01*
G01*
X168625000Y-32775000D01*
G75*
G02*
X168525000Y-32675000I0J100000D01*
G01*
X168525000Y-32475000D01*
G75*
G02*
X168625000Y-32375000I100000J0D01*
G01*
X169900000Y-32375000D01*
G75*
G02*
X170000000Y-32475000I0J-100000D01*
G01*
G37*
G04 #@! TD.AperFunction*
G04 #@! TA.AperFunction,SMDPad,CuDef*
G36*
G01*
X170000000Y-31825000D02*
X170000000Y-32025000D01*
G75*
G02*
X169900000Y-32125000I-100000J0D01*
G01*
X168625000Y-32125000D01*
G75*
G02*
X168525000Y-32025000I0J100000D01*
G01*
X168525000Y-31825000D01*
G75*
G02*
X168625000Y-31725000I100000J0D01*
G01*
X169900000Y-31725000D01*
G75*
G02*
X170000000Y-31825000I0J-100000D01*
G01*
G37*
G04 #@! TD.AperFunction*
G04 #@! TA.AperFunction,SMDPad,CuDef*
G36*
G01*
X170000000Y-31175000D02*
X170000000Y-31375000D01*
G75*
G02*
X169900000Y-31475000I-100000J0D01*
G01*
X168625000Y-31475000D01*
G75*
G02*
X168525000Y-31375000I0J100000D01*
G01*
X168525000Y-31175000D01*
G75*
G02*
X168625000Y-31075000I100000J0D01*
G01*
X169900000Y-31075000D01*
G75*
G02*
X170000000Y-31175000I0J-100000D01*
G01*
G37*
G04 #@! TD.AperFunction*
G04 #@! TA.AperFunction,SMDPad,CuDef*
G36*
G01*
X170000000Y-30525000D02*
X170000000Y-30725000D01*
G75*
G02*
X169900000Y-30825000I-100000J0D01*
G01*
X168625000Y-30825000D01*
G75*
G02*
X168525000Y-30725000I0J100000D01*
G01*
X168525000Y-30525000D01*
G75*
G02*
X168625000Y-30425000I100000J0D01*
G01*
X169900000Y-30425000D01*
G75*
G02*
X170000000Y-30525000I0J-100000D01*
G01*
G37*
G04 #@! TD.AperFunction*
G04 #@! TA.AperFunction,SMDPad,CuDef*
G36*
G01*
X164275000Y-30525000D02*
X164275000Y-30725000D01*
G75*
G02*
X164175000Y-30825000I-100000J0D01*
G01*
X162900000Y-30825000D01*
G75*
G02*
X162800000Y-30725000I0J100000D01*
G01*
X162800000Y-30525000D01*
G75*
G02*
X162900000Y-30425000I100000J0D01*
G01*
X164175000Y-30425000D01*
G75*
G02*
X164275000Y-30525000I0J-100000D01*
G01*
G37*
G04 #@! TD.AperFunction*
G04 #@! TA.AperFunction,SMDPad,CuDef*
G36*
G01*
X164275000Y-31175000D02*
X164275000Y-31375000D01*
G75*
G02*
X164175000Y-31475000I-100000J0D01*
G01*
X162900000Y-31475000D01*
G75*
G02*
X162800000Y-31375000I0J100000D01*
G01*
X162800000Y-31175000D01*
G75*
G02*
X162900000Y-31075000I100000J0D01*
G01*
X164175000Y-31075000D01*
G75*
G02*
X164275000Y-31175000I0J-100000D01*
G01*
G37*
G04 #@! TD.AperFunction*
G04 #@! TA.AperFunction,SMDPad,CuDef*
G36*
G01*
X164275000Y-31825000D02*
X164275000Y-32025000D01*
G75*
G02*
X164175000Y-32125000I-100000J0D01*
G01*
X162900000Y-32125000D01*
G75*
G02*
X162800000Y-32025000I0J100000D01*
G01*
X162800000Y-31825000D01*
G75*
G02*
X162900000Y-31725000I100000J0D01*
G01*
X164175000Y-31725000D01*
G75*
G02*
X164275000Y-31825000I0J-100000D01*
G01*
G37*
G04 #@! TD.AperFunction*
G04 #@! TA.AperFunction,SMDPad,CuDef*
G36*
G01*
X164275000Y-32475000D02*
X164275000Y-32675000D01*
G75*
G02*
X164175000Y-32775000I-100000J0D01*
G01*
X162900000Y-32775000D01*
G75*
G02*
X162800000Y-32675000I0J100000D01*
G01*
X162800000Y-32475000D01*
G75*
G02*
X162900000Y-32375000I100000J0D01*
G01*
X164175000Y-32375000D01*
G75*
G02*
X164275000Y-32475000I0J-100000D01*
G01*
G37*
G04 #@! TD.AperFunction*
G04 #@! TA.AperFunction,SMDPad,CuDef*
G36*
G01*
X200100000Y-29685000D02*
X200100000Y-29315000D01*
G75*
G02*
X200235000Y-29180000I135000J0D01*
G01*
X200505000Y-29180000D01*
G75*
G02*
X200640000Y-29315000I0J-135000D01*
G01*
X200640000Y-29685000D01*
G75*
G02*
X200505000Y-29820000I-135000J0D01*
G01*
X200235000Y-29820000D01*
G75*
G02*
X200100000Y-29685000I0J135000D01*
G01*
G37*
G04 #@! TD.AperFunction*
G04 #@! TA.AperFunction,SMDPad,CuDef*
G36*
G01*
X201120000Y-29685000D02*
X201120000Y-29315000D01*
G75*
G02*
X201255000Y-29180000I135000J0D01*
G01*
X201525000Y-29180000D01*
G75*
G02*
X201660000Y-29315000I0J-135000D01*
G01*
X201660000Y-29685000D01*
G75*
G02*
X201525000Y-29820000I-135000J0D01*
G01*
X201255000Y-29820000D01*
G75*
G02*
X201120000Y-29685000I0J135000D01*
G01*
G37*
G04 #@! TD.AperFunction*
G04 #@! TA.AperFunction,SMDPad,CuDef*
G36*
G01*
X140140000Y-35285000D02*
X140140000Y-34915000D01*
G75*
G02*
X140275000Y-34780000I135000J0D01*
G01*
X140545000Y-34780000D01*
G75*
G02*
X140680000Y-34915000I0J-135000D01*
G01*
X140680000Y-35285000D01*
G75*
G02*
X140545000Y-35420000I-135000J0D01*
G01*
X140275000Y-35420000D01*
G75*
G02*
X140140000Y-35285000I0J135000D01*
G01*
G37*
G04 #@! TD.AperFunction*
G04 #@! TA.AperFunction,SMDPad,CuDef*
G36*
G01*
X141160000Y-35285000D02*
X141160000Y-34915000D01*
G75*
G02*
X141295000Y-34780000I135000J0D01*
G01*
X141565000Y-34780000D01*
G75*
G02*
X141700000Y-34915000I0J-135000D01*
G01*
X141700000Y-35285000D01*
G75*
G02*
X141565000Y-35420000I-135000J0D01*
G01*
X141295000Y-35420000D01*
G75*
G02*
X141160000Y-35285000I0J135000D01*
G01*
G37*
G04 #@! TD.AperFunction*
G04 #@! TA.AperFunction,SMDPad,CuDef*
G36*
G01*
X231425000Y-151526000D02*
X231425000Y-150226000D01*
G75*
G02*
X231675000Y-149976000I250000J0D01*
G01*
X232325000Y-149976000D01*
G75*
G02*
X232575000Y-150226000I0J-250000D01*
G01*
X232575000Y-151526000D01*
G75*
G02*
X232325000Y-151776000I-250000J0D01*
G01*
X231675000Y-151776000D01*
G75*
G02*
X231425000Y-151526000I0J250000D01*
G01*
G37*
G04 #@! TD.AperFunction*
G04 #@! TA.AperFunction,SMDPad,CuDef*
G36*
G01*
X234375000Y-151526000D02*
X234375000Y-150226000D01*
G75*
G02*
X234625000Y-149976000I250000J0D01*
G01*
X235275000Y-149976000D01*
G75*
G02*
X235525000Y-150226000I0J-250000D01*
G01*
X235525000Y-151526000D01*
G75*
G02*
X235275000Y-151776000I-250000J0D01*
G01*
X234625000Y-151776000D01*
G75*
G02*
X234375000Y-151526000I0J250000D01*
G01*
G37*
G04 #@! TD.AperFunction*
G04 #@! TA.AperFunction,SMDPad,CuDef*
G36*
G01*
X236835000Y-50858000D02*
X236835000Y-50488000D01*
G75*
G02*
X236970000Y-50353000I135000J0D01*
G01*
X237240000Y-50353000D01*
G75*
G02*
X237375000Y-50488000I0J-135000D01*
G01*
X237375000Y-50858000D01*
G75*
G02*
X237240000Y-50993000I-135000J0D01*
G01*
X236970000Y-50993000D01*
G75*
G02*
X236835000Y-50858000I0J135000D01*
G01*
G37*
G04 #@! TD.AperFunction*
G04 #@! TA.AperFunction,SMDPad,CuDef*
G36*
G01*
X237855000Y-50858000D02*
X237855000Y-50488000D01*
G75*
G02*
X237990000Y-50353000I135000J0D01*
G01*
X238260000Y-50353000D01*
G75*
G02*
X238395000Y-50488000I0J-135000D01*
G01*
X238395000Y-50858000D01*
G75*
G02*
X238260000Y-50993000I-135000J0D01*
G01*
X237990000Y-50993000D01*
G75*
G02*
X237855000Y-50858000I0J135000D01*
G01*
G37*
G04 #@! TD.AperFunction*
G04 #@! TA.AperFunction,SMDPad,CuDef*
G36*
G01*
X108660000Y-98265000D02*
X108660000Y-97895000D01*
G75*
G02*
X108795000Y-97760000I135000J0D01*
G01*
X109065000Y-97760000D01*
G75*
G02*
X109200000Y-97895000I0J-135000D01*
G01*
X109200000Y-98265000D01*
G75*
G02*
X109065000Y-98400000I-135000J0D01*
G01*
X108795000Y-98400000D01*
G75*
G02*
X108660000Y-98265000I0J135000D01*
G01*
G37*
G04 #@! TD.AperFunction*
G04 #@! TA.AperFunction,SMDPad,CuDef*
G36*
G01*
X109680000Y-98265000D02*
X109680000Y-97895000D01*
G75*
G02*
X109815000Y-97760000I135000J0D01*
G01*
X110085000Y-97760000D01*
G75*
G02*
X110220000Y-97895000I0J-135000D01*
G01*
X110220000Y-98265000D01*
G75*
G02*
X110085000Y-98400000I-135000J0D01*
G01*
X109815000Y-98400000D01*
G75*
G02*
X109680000Y-98265000I0J135000D01*
G01*
G37*
G04 #@! TD.AperFunction*
G04 #@! TA.AperFunction,SMDPad,CuDef*
G36*
G01*
X201100000Y-103865000D02*
X201100000Y-103495000D01*
G75*
G02*
X201235000Y-103360000I135000J0D01*
G01*
X201505000Y-103360000D01*
G75*
G02*
X201640000Y-103495000I0J-135000D01*
G01*
X201640000Y-103865000D01*
G75*
G02*
X201505000Y-104000000I-135000J0D01*
G01*
X201235000Y-104000000D01*
G75*
G02*
X201100000Y-103865000I0J135000D01*
G01*
G37*
G04 #@! TD.AperFunction*
G04 #@! TA.AperFunction,SMDPad,CuDef*
G36*
G01*
X202120000Y-103865000D02*
X202120000Y-103495000D01*
G75*
G02*
X202255000Y-103360000I135000J0D01*
G01*
X202525000Y-103360000D01*
G75*
G02*
X202660000Y-103495000I0J-135000D01*
G01*
X202660000Y-103865000D01*
G75*
G02*
X202525000Y-104000000I-135000J0D01*
G01*
X202255000Y-104000000D01*
G75*
G02*
X202120000Y-103865000I0J135000D01*
G01*
G37*
G04 #@! TD.AperFunction*
G04 #@! TA.AperFunction,SMDPad,CuDef*
G36*
G01*
X109660000Y-103865000D02*
X109660000Y-103495000D01*
G75*
G02*
X109795000Y-103360000I135000J0D01*
G01*
X110065000Y-103360000D01*
G75*
G02*
X110200000Y-103495000I0J-135000D01*
G01*
X110200000Y-103865000D01*
G75*
G02*
X110065000Y-104000000I-135000J0D01*
G01*
X109795000Y-104000000D01*
G75*
G02*
X109660000Y-103865000I0J135000D01*
G01*
G37*
G04 #@! TD.AperFunction*
G04 #@! TA.AperFunction,SMDPad,CuDef*
G36*
G01*
X110680000Y-103865000D02*
X110680000Y-103495000D01*
G75*
G02*
X110815000Y-103360000I135000J0D01*
G01*
X111085000Y-103360000D01*
G75*
G02*
X111220000Y-103495000I0J-135000D01*
G01*
X111220000Y-103865000D01*
G75*
G02*
X111085000Y-104000000I-135000J0D01*
G01*
X110815000Y-104000000D01*
G75*
G02*
X110680000Y-103865000I0J135000D01*
G01*
G37*
G04 #@! TD.AperFunction*
D15*
X60960000Y-102880000D03*
D16*
X62960000Y-102880000D03*
G04 #@! TA.AperFunction,SMDPad,CuDef*
G36*
G01*
X108660000Y-29685000D02*
X108660000Y-29315000D01*
G75*
G02*
X108795000Y-29180000I135000J0D01*
G01*
X109065000Y-29180000D01*
G75*
G02*
X109200000Y-29315000I0J-135000D01*
G01*
X109200000Y-29685000D01*
G75*
G02*
X109065000Y-29820000I-135000J0D01*
G01*
X108795000Y-29820000D01*
G75*
G02*
X108660000Y-29685000I0J135000D01*
G01*
G37*
G04 #@! TD.AperFunction*
G04 #@! TA.AperFunction,SMDPad,CuDef*
G36*
G01*
X109680000Y-29685000D02*
X109680000Y-29315000D01*
G75*
G02*
X109815000Y-29180000I135000J0D01*
G01*
X110085000Y-29180000D01*
G75*
G02*
X110220000Y-29315000I0J-135000D01*
G01*
X110220000Y-29685000D01*
G75*
G02*
X110085000Y-29820000I-135000J0D01*
G01*
X109815000Y-29820000D01*
G75*
G02*
X109680000Y-29685000I0J135000D01*
G01*
G37*
G04 #@! TD.AperFunction*
G04 #@! TA.AperFunction,SMDPad,CuDef*
G36*
G01*
X49949000Y-65885500D02*
X50249000Y-65885500D01*
G75*
G02*
X50399000Y-66035500I0J-150000D01*
G01*
X50399000Y-67060500D01*
G75*
G02*
X50249000Y-67210500I-150000J0D01*
G01*
X49949000Y-67210500D01*
G75*
G02*
X49799000Y-67060500I0J150000D01*
G01*
X49799000Y-66035500D01*
G75*
G02*
X49949000Y-65885500I150000J0D01*
G01*
G37*
G04 #@! TD.AperFunction*
G04 #@! TA.AperFunction,SMDPad,CuDef*
G36*
G01*
X48999000Y-65885500D02*
X49299000Y-65885500D01*
G75*
G02*
X49449000Y-66035500I0J-150000D01*
G01*
X49449000Y-67060500D01*
G75*
G02*
X49299000Y-67210500I-150000J0D01*
G01*
X48999000Y-67210500D01*
G75*
G02*
X48849000Y-67060500I0J150000D01*
G01*
X48849000Y-66035500D01*
G75*
G02*
X48999000Y-65885500I150000J0D01*
G01*
G37*
G04 #@! TD.AperFunction*
G04 #@! TA.AperFunction,SMDPad,CuDef*
G36*
G01*
X48049000Y-65885500D02*
X48349000Y-65885500D01*
G75*
G02*
X48499000Y-66035500I0J-150000D01*
G01*
X48499000Y-67060500D01*
G75*
G02*
X48349000Y-67210500I-150000J0D01*
G01*
X48049000Y-67210500D01*
G75*
G02*
X47899000Y-67060500I0J150000D01*
G01*
X47899000Y-66035500D01*
G75*
G02*
X48049000Y-65885500I150000J0D01*
G01*
G37*
G04 #@! TD.AperFunction*
G04 #@! TA.AperFunction,SMDPad,CuDef*
G36*
G01*
X48049000Y-68160500D02*
X48349000Y-68160500D01*
G75*
G02*
X48499000Y-68310500I0J-150000D01*
G01*
X48499000Y-69335500D01*
G75*
G02*
X48349000Y-69485500I-150000J0D01*
G01*
X48049000Y-69485500D01*
G75*
G02*
X47899000Y-69335500I0J150000D01*
G01*
X47899000Y-68310500D01*
G75*
G02*
X48049000Y-68160500I150000J0D01*
G01*
G37*
G04 #@! TD.AperFunction*
G04 #@! TA.AperFunction,SMDPad,CuDef*
G36*
G01*
X49949000Y-68160500D02*
X50249000Y-68160500D01*
G75*
G02*
X50399000Y-68310500I0J-150000D01*
G01*
X50399000Y-69335500D01*
G75*
G02*
X50249000Y-69485500I-150000J0D01*
G01*
X49949000Y-69485500D01*
G75*
G02*
X49799000Y-69335500I0J150000D01*
G01*
X49799000Y-68310500D01*
G75*
G02*
X49949000Y-68160500I150000J0D01*
G01*
G37*
G04 #@! TD.AperFunction*
D15*
X152400000Y-102880000D03*
D16*
X154400000Y-102880000D03*
G04 #@! TA.AperFunction,SMDPad,CuDef*
G36*
G01*
X34765000Y-57015000D02*
X33815000Y-57015000D01*
G75*
G02*
X33565000Y-56765000I0J250000D01*
G01*
X33565000Y-56265000D01*
G75*
G02*
X33815000Y-56015000I250000J0D01*
G01*
X34765000Y-56015000D01*
G75*
G02*
X35015000Y-56265000I0J-250000D01*
G01*
X35015000Y-56765000D01*
G75*
G02*
X34765000Y-57015000I-250000J0D01*
G01*
G37*
G04 #@! TD.AperFunction*
G04 #@! TA.AperFunction,SMDPad,CuDef*
G36*
G01*
X34765000Y-55115000D02*
X33815000Y-55115000D01*
G75*
G02*
X33565000Y-54865000I0J250000D01*
G01*
X33565000Y-54365000D01*
G75*
G02*
X33815000Y-54115000I250000J0D01*
G01*
X34765000Y-54115000D01*
G75*
G02*
X35015000Y-54365000I0J-250000D01*
G01*
X35015000Y-54865000D01*
G75*
G02*
X34765000Y-55115000I-250000J0D01*
G01*
G37*
G04 #@! TD.AperFunction*
G04 #@! TA.AperFunction,SMDPad,CuDef*
G36*
G01*
X170000000Y-101055000D02*
X170000000Y-101255000D01*
G75*
G02*
X169900000Y-101355000I-100000J0D01*
G01*
X168625000Y-101355000D01*
G75*
G02*
X168525000Y-101255000I0J100000D01*
G01*
X168525000Y-101055000D01*
G75*
G02*
X168625000Y-100955000I100000J0D01*
G01*
X169900000Y-100955000D01*
G75*
G02*
X170000000Y-101055000I0J-100000D01*
G01*
G37*
G04 #@! TD.AperFunction*
G04 #@! TA.AperFunction,SMDPad,CuDef*
G36*
G01*
X170000000Y-100405000D02*
X170000000Y-100605000D01*
G75*
G02*
X169900000Y-100705000I-100000J0D01*
G01*
X168625000Y-100705000D01*
G75*
G02*
X168525000Y-100605000I0J100000D01*
G01*
X168525000Y-100405000D01*
G75*
G02*
X168625000Y-100305000I100000J0D01*
G01*
X169900000Y-100305000D01*
G75*
G02*
X170000000Y-100405000I0J-100000D01*
G01*
G37*
G04 #@! TD.AperFunction*
G04 #@! TA.AperFunction,SMDPad,CuDef*
G36*
G01*
X170000000Y-99755000D02*
X170000000Y-99955000D01*
G75*
G02*
X169900000Y-100055000I-100000J0D01*
G01*
X168625000Y-100055000D01*
G75*
G02*
X168525000Y-99955000I0J100000D01*
G01*
X168525000Y-99755000D01*
G75*
G02*
X168625000Y-99655000I100000J0D01*
G01*
X169900000Y-99655000D01*
G75*
G02*
X170000000Y-99755000I0J-100000D01*
G01*
G37*
G04 #@! TD.AperFunction*
G04 #@! TA.AperFunction,SMDPad,CuDef*
G36*
G01*
X170000000Y-99105000D02*
X170000000Y-99305000D01*
G75*
G02*
X169900000Y-99405000I-100000J0D01*
G01*
X168625000Y-99405000D01*
G75*
G02*
X168525000Y-99305000I0J100000D01*
G01*
X168525000Y-99105000D01*
G75*
G02*
X168625000Y-99005000I100000J0D01*
G01*
X169900000Y-99005000D01*
G75*
G02*
X170000000Y-99105000I0J-100000D01*
G01*
G37*
G04 #@! TD.AperFunction*
G04 #@! TA.AperFunction,SMDPad,CuDef*
G36*
G01*
X164275000Y-99105000D02*
X164275000Y-99305000D01*
G75*
G02*
X164175000Y-99405000I-100000J0D01*
G01*
X162900000Y-99405000D01*
G75*
G02*
X162800000Y-99305000I0J100000D01*
G01*
X162800000Y-99105000D01*
G75*
G02*
X162900000Y-99005000I100000J0D01*
G01*
X164175000Y-99005000D01*
G75*
G02*
X164275000Y-99105000I0J-100000D01*
G01*
G37*
G04 #@! TD.AperFunction*
G04 #@! TA.AperFunction,SMDPad,CuDef*
G36*
G01*
X164275000Y-99755000D02*
X164275000Y-99955000D01*
G75*
G02*
X164175000Y-100055000I-100000J0D01*
G01*
X162900000Y-100055000D01*
G75*
G02*
X162800000Y-99955000I0J100000D01*
G01*
X162800000Y-99755000D01*
G75*
G02*
X162900000Y-99655000I100000J0D01*
G01*
X164175000Y-99655000D01*
G75*
G02*
X164275000Y-99755000I0J-100000D01*
G01*
G37*
G04 #@! TD.AperFunction*
G04 #@! TA.AperFunction,SMDPad,CuDef*
G36*
G01*
X164275000Y-100405000D02*
X164275000Y-100605000D01*
G75*
G02*
X164175000Y-100705000I-100000J0D01*
G01*
X162900000Y-100705000D01*
G75*
G02*
X162800000Y-100605000I0J100000D01*
G01*
X162800000Y-100405000D01*
G75*
G02*
X162900000Y-100305000I100000J0D01*
G01*
X164175000Y-100305000D01*
G75*
G02*
X164275000Y-100405000I0J-100000D01*
G01*
G37*
G04 #@! TD.AperFunction*
G04 #@! TA.AperFunction,SMDPad,CuDef*
G36*
G01*
X164275000Y-101055000D02*
X164275000Y-101255000D01*
G75*
G02*
X164175000Y-101355000I-100000J0D01*
G01*
X162900000Y-101355000D01*
G75*
G02*
X162800000Y-101255000I0J100000D01*
G01*
X162800000Y-101055000D01*
G75*
G02*
X162900000Y-100955000I100000J0D01*
G01*
X164175000Y-100955000D01*
G75*
G02*
X164275000Y-101055000I0J-100000D01*
G01*
G37*
G04 #@! TD.AperFunction*
D17*
X101600000Y-83820000D03*
D18*
X99060000Y-83820000D03*
X96520000Y-83820000D03*
X93980000Y-83820000D03*
X91440000Y-83820000D03*
G04 #@! TA.AperFunction,SMDPad,CuDef*
G36*
G01*
X239690000Y-95630000D02*
X239690000Y-95330000D01*
G75*
G02*
X239840000Y-95180000I150000J0D01*
G01*
X241490000Y-95180000D01*
G75*
G02*
X241640000Y-95330000I0J-150000D01*
G01*
X241640000Y-95630000D01*
G75*
G02*
X241490000Y-95780000I-150000J0D01*
G01*
X239840000Y-95780000D01*
G75*
G02*
X239690000Y-95630000I0J150000D01*
G01*
G37*
G04 #@! TD.AperFunction*
G04 #@! TA.AperFunction,SMDPad,CuDef*
G36*
G01*
X239690000Y-96900000D02*
X239690000Y-96600000D01*
G75*
G02*
X239840000Y-96450000I150000J0D01*
G01*
X241490000Y-96450000D01*
G75*
G02*
X241640000Y-96600000I0J-150000D01*
G01*
X241640000Y-96900000D01*
G75*
G02*
X241490000Y-97050000I-150000J0D01*
G01*
X239840000Y-97050000D01*
G75*
G02*
X239690000Y-96900000I0J150000D01*
G01*
G37*
G04 #@! TD.AperFunction*
G04 #@! TA.AperFunction,SMDPad,CuDef*
G36*
G01*
X239690000Y-98170000D02*
X239690000Y-97870000D01*
G75*
G02*
X239840000Y-97720000I150000J0D01*
G01*
X241490000Y-97720000D01*
G75*
G02*
X241640000Y-97870000I0J-150000D01*
G01*
X241640000Y-98170000D01*
G75*
G02*
X241490000Y-98320000I-150000J0D01*
G01*
X239840000Y-98320000D01*
G75*
G02*
X239690000Y-98170000I0J150000D01*
G01*
G37*
G04 #@! TD.AperFunction*
G04 #@! TA.AperFunction,SMDPad,CuDef*
G36*
G01*
X239690000Y-99440000D02*
X239690000Y-99140000D01*
G75*
G02*
X239840000Y-98990000I150000J0D01*
G01*
X241490000Y-98990000D01*
G75*
G02*
X241640000Y-99140000I0J-150000D01*
G01*
X241640000Y-99440000D01*
G75*
G02*
X241490000Y-99590000I-150000J0D01*
G01*
X239840000Y-99590000D01*
G75*
G02*
X239690000Y-99440000I0J150000D01*
G01*
G37*
G04 #@! TD.AperFunction*
G04 #@! TA.AperFunction,SMDPad,CuDef*
G36*
G01*
X244640000Y-99440000D02*
X244640000Y-99140000D01*
G75*
G02*
X244790000Y-98990000I150000J0D01*
G01*
X246440000Y-98990000D01*
G75*
G02*
X246590000Y-99140000I0J-150000D01*
G01*
X246590000Y-99440000D01*
G75*
G02*
X246440000Y-99590000I-150000J0D01*
G01*
X244790000Y-99590000D01*
G75*
G02*
X244640000Y-99440000I0J150000D01*
G01*
G37*
G04 #@! TD.AperFunction*
G04 #@! TA.AperFunction,SMDPad,CuDef*
G36*
G01*
X244640000Y-98170000D02*
X244640000Y-97870000D01*
G75*
G02*
X244790000Y-97720000I150000J0D01*
G01*
X246440000Y-97720000D01*
G75*
G02*
X246590000Y-97870000I0J-150000D01*
G01*
X246590000Y-98170000D01*
G75*
G02*
X246440000Y-98320000I-150000J0D01*
G01*
X244790000Y-98320000D01*
G75*
G02*
X244640000Y-98170000I0J150000D01*
G01*
G37*
G04 #@! TD.AperFunction*
G04 #@! TA.AperFunction,SMDPad,CuDef*
G36*
G01*
X244640000Y-96900000D02*
X244640000Y-96600000D01*
G75*
G02*
X244790000Y-96450000I150000J0D01*
G01*
X246440000Y-96450000D01*
G75*
G02*
X246590000Y-96600000I0J-150000D01*
G01*
X246590000Y-96900000D01*
G75*
G02*
X246440000Y-97050000I-150000J0D01*
G01*
X244790000Y-97050000D01*
G75*
G02*
X244640000Y-96900000I0J150000D01*
G01*
G37*
G04 #@! TD.AperFunction*
G04 #@! TA.AperFunction,SMDPad,CuDef*
G36*
G01*
X244640000Y-95630000D02*
X244640000Y-95330000D01*
G75*
G02*
X244790000Y-95180000I150000J0D01*
G01*
X246440000Y-95180000D01*
G75*
G02*
X246590000Y-95330000I0J-150000D01*
G01*
X246590000Y-95630000D01*
G75*
G02*
X246440000Y-95780000I-150000J0D01*
G01*
X244790000Y-95780000D01*
G75*
G02*
X244640000Y-95630000I0J150000D01*
G01*
G37*
G04 #@! TD.AperFunction*
D19*
X243140000Y-97385000D03*
G04 #@! TA.AperFunction,ComponentPad*
G36*
G01*
X242540000Y-158970000D02*
X242540000Y-157670000D01*
G75*
G02*
X243190000Y-157020000I650000J0D01*
G01*
X244490000Y-157020000D01*
G75*
G02*
X245140000Y-157670000I0J-650000D01*
G01*
X245140000Y-158970000D01*
G75*
G02*
X244490000Y-159620000I-650000J0D01*
G01*
X243190000Y-159620000D01*
G75*
G02*
X242540000Y-158970000I0J650000D01*
G01*
G37*
G04 #@! TD.AperFunction*
D11*
X243840000Y-161420000D03*
G04 #@! TA.AperFunction,ComponentPad*
G36*
G01*
X242540000Y-150670000D02*
X242540000Y-149370000D01*
G75*
G02*
X243190000Y-148720000I650000J0D01*
G01*
X244490000Y-148720000D01*
G75*
G02*
X245140000Y-149370000I0J-650000D01*
G01*
X245140000Y-150670000D01*
G75*
G02*
X244490000Y-151320000I-650000J0D01*
G01*
X243190000Y-151320000D01*
G75*
G02*
X242540000Y-150670000I0J650000D01*
G01*
G37*
G04 #@! TD.AperFunction*
G04 #@! TA.AperFunction,ComponentPad*
G36*
G01*
X39340000Y-110550000D02*
X39340000Y-109250000D01*
G75*
G02*
X39990000Y-108600000I650000J0D01*
G01*
X41290000Y-108600000D01*
G75*
G02*
X41940000Y-109250000I0J-650000D01*
G01*
X41940000Y-110550000D01*
G75*
G02*
X41290000Y-111200000I-650000J0D01*
G01*
X39990000Y-111200000D01*
G75*
G02*
X39340000Y-110550000I0J650000D01*
G01*
G37*
G04 #@! TD.AperFunction*
X40640000Y-113000000D03*
G04 #@! TA.AperFunction,ComponentPad*
G36*
G01*
X39340000Y-102250000D02*
X39340000Y-100950000D01*
G75*
G02*
X39990000Y-100300000I650000J0D01*
G01*
X41290000Y-100300000D01*
G75*
G02*
X41940000Y-100950000I0J-650000D01*
G01*
X41940000Y-102250000D01*
G75*
G02*
X41290000Y-102900000I-650000J0D01*
G01*
X39990000Y-102900000D01*
G75*
G02*
X39340000Y-102250000I0J650000D01*
G01*
G37*
G04 #@! TD.AperFunction*
G04 #@! TA.AperFunction,SMDPad,CuDef*
G36*
G01*
X236390000Y-56663000D02*
X236390000Y-56113000D01*
G75*
G02*
X236590000Y-55913000I200000J0D01*
G01*
X236990000Y-55913000D01*
G75*
G02*
X237190000Y-56113000I0J-200000D01*
G01*
X237190000Y-56663000D01*
G75*
G02*
X236990000Y-56863000I-200000J0D01*
G01*
X236590000Y-56863000D01*
G75*
G02*
X236390000Y-56663000I0J200000D01*
G01*
G37*
G04 #@! TD.AperFunction*
G04 #@! TA.AperFunction,SMDPad,CuDef*
G36*
G01*
X238040000Y-56663000D02*
X238040000Y-56113000D01*
G75*
G02*
X238240000Y-55913000I200000J0D01*
G01*
X238640000Y-55913000D01*
G75*
G02*
X238840000Y-56113000I0J-200000D01*
G01*
X238840000Y-56663000D01*
G75*
G02*
X238640000Y-56863000I-200000J0D01*
G01*
X238240000Y-56863000D01*
G75*
G02*
X238040000Y-56663000I0J200000D01*
G01*
G37*
G04 #@! TD.AperFunction*
G04 #@! TA.AperFunction,SMDPad,CuDef*
G36*
G01*
X249027000Y-61653000D02*
X249027000Y-61283000D01*
G75*
G02*
X249162000Y-61148000I135000J0D01*
G01*
X249432000Y-61148000D01*
G75*
G02*
X249567000Y-61283000I0J-135000D01*
G01*
X249567000Y-61653000D01*
G75*
G02*
X249432000Y-61788000I-135000J0D01*
G01*
X249162000Y-61788000D01*
G75*
G02*
X249027000Y-61653000I0J135000D01*
G01*
G37*
G04 #@! TD.AperFunction*
G04 #@! TA.AperFunction,SMDPad,CuDef*
G36*
G01*
X250047000Y-61653000D02*
X250047000Y-61283000D01*
G75*
G02*
X250182000Y-61148000I135000J0D01*
G01*
X250452000Y-61148000D01*
G75*
G02*
X250587000Y-61283000I0J-135000D01*
G01*
X250587000Y-61653000D01*
G75*
G02*
X250452000Y-61788000I-135000J0D01*
G01*
X250182000Y-61788000D01*
G75*
G02*
X250047000Y-61653000I0J135000D01*
G01*
G37*
G04 #@! TD.AperFunction*
D20*
X37366000Y-36533000D03*
X33166000Y-36533000D03*
X37356000Y-34308000D03*
X33156000Y-34308000D03*
G04 #@! TA.AperFunction,SMDPad,CuDef*
G36*
G01*
X48500000Y-45250000D02*
X48500000Y-42350000D01*
G75*
G02*
X48750000Y-42100000I250000J0D01*
G01*
X49375000Y-42100000D01*
G75*
G02*
X49625000Y-42350000I0J-250000D01*
G01*
X49625000Y-45250000D01*
G75*
G02*
X49375000Y-45500000I-250000J0D01*
G01*
X48750000Y-45500000D01*
G75*
G02*
X48500000Y-45250000I0J250000D01*
G01*
G37*
G04 #@! TD.AperFunction*
G04 #@! TA.AperFunction,SMDPad,CuDef*
G36*
G01*
X52775000Y-45250000D02*
X52775000Y-42350000D01*
G75*
G02*
X53025000Y-42100000I250000J0D01*
G01*
X53650000Y-42100000D01*
G75*
G02*
X53900000Y-42350000I0J-250000D01*
G01*
X53900000Y-45250000D01*
G75*
G02*
X53650000Y-45500000I-250000J0D01*
G01*
X53025000Y-45500000D01*
G75*
G02*
X52775000Y-45250000I0J250000D01*
G01*
G37*
G04 #@! TD.AperFunction*
G04 #@! TA.AperFunction,SMDPad,CuDef*
G36*
G01*
X107270000Y-35540000D02*
X107610000Y-35540000D01*
G75*
G02*
X107750000Y-35680000I0J-140000D01*
G01*
X107750000Y-35960000D01*
G75*
G02*
X107610000Y-36100000I-140000J0D01*
G01*
X107270000Y-36100000D01*
G75*
G02*
X107130000Y-35960000I0J140000D01*
G01*
X107130000Y-35680000D01*
G75*
G02*
X107270000Y-35540000I140000J0D01*
G01*
G37*
G04 #@! TD.AperFunction*
G04 #@! TA.AperFunction,SMDPad,CuDef*
G36*
G01*
X107270000Y-36500000D02*
X107610000Y-36500000D01*
G75*
G02*
X107750000Y-36640000I0J-140000D01*
G01*
X107750000Y-36920000D01*
G75*
G02*
X107610000Y-37060000I-140000J0D01*
G01*
X107270000Y-37060000D01*
G75*
G02*
X107130000Y-36920000I0J140000D01*
G01*
X107130000Y-36640000D01*
G75*
G02*
X107270000Y-36500000I140000J0D01*
G01*
G37*
G04 #@! TD.AperFunction*
G04 #@! TA.AperFunction,SMDPad,CuDef*
G36*
G01*
X251032000Y-55986000D02*
X251032000Y-56536000D01*
G75*
G02*
X250832000Y-56736000I-200000J0D01*
G01*
X250432000Y-56736000D01*
G75*
G02*
X250232000Y-56536000I0J200000D01*
G01*
X250232000Y-55986000D01*
G75*
G02*
X250432000Y-55786000I200000J0D01*
G01*
X250832000Y-55786000D01*
G75*
G02*
X251032000Y-55986000I0J-200000D01*
G01*
G37*
G04 #@! TD.AperFunction*
G04 #@! TA.AperFunction,SMDPad,CuDef*
G36*
G01*
X249382000Y-55986000D02*
X249382000Y-56536000D01*
G75*
G02*
X249182000Y-56736000I-200000J0D01*
G01*
X248782000Y-56736000D01*
G75*
G02*
X248582000Y-56536000I0J200000D01*
G01*
X248582000Y-55986000D01*
G75*
G02*
X248782000Y-55786000I200000J0D01*
G01*
X249182000Y-55786000D01*
G75*
G02*
X249382000Y-55986000I0J-200000D01*
G01*
G37*
G04 #@! TD.AperFunction*
G04 #@! TA.AperFunction,SMDPad,CuDef*
G36*
G01*
X241585000Y-102365000D02*
X241585000Y-101065000D01*
G75*
G02*
X241835000Y-100815000I250000J0D01*
G01*
X242485000Y-100815000D01*
G75*
G02*
X242735000Y-101065000I0J-250000D01*
G01*
X242735000Y-102365000D01*
G75*
G02*
X242485000Y-102615000I-250000J0D01*
G01*
X241835000Y-102615000D01*
G75*
G02*
X241585000Y-102365000I0J250000D01*
G01*
G37*
G04 #@! TD.AperFunction*
G04 #@! TA.AperFunction,SMDPad,CuDef*
G36*
G01*
X244535000Y-102365000D02*
X244535000Y-101065000D01*
G75*
G02*
X244785000Y-100815000I250000J0D01*
G01*
X245435000Y-100815000D01*
G75*
G02*
X245685000Y-101065000I0J-250000D01*
G01*
X245685000Y-102365000D01*
G75*
G02*
X245435000Y-102615000I-250000J0D01*
G01*
X244785000Y-102615000D01*
G75*
G02*
X244535000Y-102365000I0J250000D01*
G01*
G37*
G04 #@! TD.AperFunction*
G04 #@! TA.AperFunction,SMDPad,CuDef*
G36*
G01*
X168230000Y-104120000D02*
X168570000Y-104120000D01*
G75*
G02*
X168710000Y-104260000I0J-140000D01*
G01*
X168710000Y-104540000D01*
G75*
G02*
X168570000Y-104680000I-140000J0D01*
G01*
X168230000Y-104680000D01*
G75*
G02*
X168090000Y-104540000I0J140000D01*
G01*
X168090000Y-104260000D01*
G75*
G02*
X168230000Y-104120000I140000J0D01*
G01*
G37*
G04 #@! TD.AperFunction*
G04 #@! TA.AperFunction,SMDPad,CuDef*
G36*
G01*
X168230000Y-105080000D02*
X168570000Y-105080000D01*
G75*
G02*
X168710000Y-105220000I0J-140000D01*
G01*
X168710000Y-105500000D01*
G75*
G02*
X168570000Y-105640000I-140000J0D01*
G01*
X168230000Y-105640000D01*
G75*
G02*
X168090000Y-105500000I0J140000D01*
G01*
X168090000Y-105220000D01*
G75*
G02*
X168230000Y-105080000I140000J0D01*
G01*
G37*
G04 #@! TD.AperFunction*
G04 #@! TA.AperFunction,SMDPad,CuDef*
G36*
G01*
X50599000Y-63533000D02*
X50599000Y-64483000D01*
G75*
G02*
X50349000Y-64733000I-250000J0D01*
G01*
X49849000Y-64733000D01*
G75*
G02*
X49599000Y-64483000I0J250000D01*
G01*
X49599000Y-63533000D01*
G75*
G02*
X49849000Y-63283000I250000J0D01*
G01*
X50349000Y-63283000D01*
G75*
G02*
X50599000Y-63533000I0J-250000D01*
G01*
G37*
G04 #@! TD.AperFunction*
G04 #@! TA.AperFunction,SMDPad,CuDef*
G36*
G01*
X48699000Y-63533000D02*
X48699000Y-64483000D01*
G75*
G02*
X48449000Y-64733000I-250000J0D01*
G01*
X47949000Y-64733000D01*
G75*
G02*
X47699000Y-64483000I0J250000D01*
G01*
X47699000Y-63533000D01*
G75*
G02*
X47949000Y-63283000I250000J0D01*
G01*
X48449000Y-63283000D01*
G75*
G02*
X48699000Y-63533000I0J-250000D01*
G01*
G37*
G04 #@! TD.AperFunction*
G04 #@! TA.AperFunction,SMDPad,CuDef*
G36*
G01*
X170620000Y-35285000D02*
X170620000Y-34915000D01*
G75*
G02*
X170755000Y-34780000I135000J0D01*
G01*
X171025000Y-34780000D01*
G75*
G02*
X171160000Y-34915000I0J-135000D01*
G01*
X171160000Y-35285000D01*
G75*
G02*
X171025000Y-35420000I-135000J0D01*
G01*
X170755000Y-35420000D01*
G75*
G02*
X170620000Y-35285000I0J135000D01*
G01*
G37*
G04 #@! TD.AperFunction*
G04 #@! TA.AperFunction,SMDPad,CuDef*
G36*
G01*
X171640000Y-35285000D02*
X171640000Y-34915000D01*
G75*
G02*
X171775000Y-34780000I135000J0D01*
G01*
X172045000Y-34780000D01*
G75*
G02*
X172180000Y-34915000I0J-135000D01*
G01*
X172180000Y-35285000D01*
G75*
G02*
X172045000Y-35420000I-135000J0D01*
G01*
X171775000Y-35420000D01*
G75*
G02*
X171640000Y-35285000I0J135000D01*
G01*
G37*
G04 #@! TD.AperFunction*
G04 #@! TA.AperFunction,SMDPad,CuDef*
G36*
G01*
X243219000Y-64458000D02*
X243219000Y-64828000D01*
G75*
G02*
X243084000Y-64963000I-135000J0D01*
G01*
X242814000Y-64963000D01*
G75*
G02*
X242679000Y-64828000I0J135000D01*
G01*
X242679000Y-64458000D01*
G75*
G02*
X242814000Y-64323000I135000J0D01*
G01*
X243084000Y-64323000D01*
G75*
G02*
X243219000Y-64458000I0J-135000D01*
G01*
G37*
G04 #@! TD.AperFunction*
G04 #@! TA.AperFunction,SMDPad,CuDef*
G36*
G01*
X242199000Y-64458000D02*
X242199000Y-64828000D01*
G75*
G02*
X242064000Y-64963000I-135000J0D01*
G01*
X241794000Y-64963000D01*
G75*
G02*
X241659000Y-64828000I0J135000D01*
G01*
X241659000Y-64458000D01*
G75*
G02*
X241794000Y-64323000I135000J0D01*
G01*
X242064000Y-64323000D01*
G75*
G02*
X242199000Y-64458000I0J-135000D01*
G01*
G37*
G04 #@! TD.AperFunction*
G04 #@! TA.AperFunction,SMDPad,CuDef*
G36*
G01*
X168230000Y-35540000D02*
X168570000Y-35540000D01*
G75*
G02*
X168710000Y-35680000I0J-140000D01*
G01*
X168710000Y-35960000D01*
G75*
G02*
X168570000Y-36100000I-140000J0D01*
G01*
X168230000Y-36100000D01*
G75*
G02*
X168090000Y-35960000I0J140000D01*
G01*
X168090000Y-35680000D01*
G75*
G02*
X168230000Y-35540000I140000J0D01*
G01*
G37*
G04 #@! TD.AperFunction*
G04 #@! TA.AperFunction,SMDPad,CuDef*
G36*
G01*
X168230000Y-36500000D02*
X168570000Y-36500000D01*
G75*
G02*
X168710000Y-36640000I0J-140000D01*
G01*
X168710000Y-36920000D01*
G75*
G02*
X168570000Y-37060000I-140000J0D01*
G01*
X168230000Y-37060000D01*
G75*
G02*
X168090000Y-36920000I0J140000D01*
G01*
X168090000Y-36640000D01*
G75*
G02*
X168230000Y-36500000I140000J0D01*
G01*
G37*
G04 #@! TD.AperFunction*
G04 #@! TA.AperFunction,SMDPad,CuDef*
G36*
G01*
X237675000Y-99195000D02*
X237305000Y-99195000D01*
G75*
G02*
X237170000Y-99060000I0J135000D01*
G01*
X237170000Y-98790000D01*
G75*
G02*
X237305000Y-98655000I135000J0D01*
G01*
X237675000Y-98655000D01*
G75*
G02*
X237810000Y-98790000I0J-135000D01*
G01*
X237810000Y-99060000D01*
G75*
G02*
X237675000Y-99195000I-135000J0D01*
G01*
G37*
G04 #@! TD.AperFunction*
G04 #@! TA.AperFunction,SMDPad,CuDef*
G36*
G01*
X237675000Y-98175000D02*
X237305000Y-98175000D01*
G75*
G02*
X237170000Y-98040000I0J135000D01*
G01*
X237170000Y-97770000D01*
G75*
G02*
X237305000Y-97635000I135000J0D01*
G01*
X237675000Y-97635000D01*
G75*
G02*
X237810000Y-97770000I0J-135000D01*
G01*
X237810000Y-98040000D01*
G75*
G02*
X237675000Y-98175000I-135000J0D01*
G01*
G37*
G04 #@! TD.AperFunction*
G04 #@! TA.AperFunction,SMDPad,CuDef*
G36*
G01*
X230580000Y-98265000D02*
X230580000Y-97895000D01*
G75*
G02*
X230715000Y-97760000I135000J0D01*
G01*
X230985000Y-97760000D01*
G75*
G02*
X231120000Y-97895000I0J-135000D01*
G01*
X231120000Y-98265000D01*
G75*
G02*
X230985000Y-98400000I-135000J0D01*
G01*
X230715000Y-98400000D01*
G75*
G02*
X230580000Y-98265000I0J135000D01*
G01*
G37*
G04 #@! TD.AperFunction*
G04 #@! TA.AperFunction,SMDPad,CuDef*
G36*
G01*
X231600000Y-98265000D02*
X231600000Y-97895000D01*
G75*
G02*
X231735000Y-97760000I135000J0D01*
G01*
X232005000Y-97760000D01*
G75*
G02*
X232140000Y-97895000I0J-135000D01*
G01*
X232140000Y-98265000D01*
G75*
G02*
X232005000Y-98400000I-135000J0D01*
G01*
X231735000Y-98400000D01*
G75*
G02*
X231600000Y-98265000I0J135000D01*
G01*
G37*
G04 #@! TD.AperFunction*
G04 #@! TA.AperFunction,SMDPad,CuDef*
G36*
G01*
X238829000Y-53344000D02*
X238829000Y-53844000D01*
G75*
G02*
X238604000Y-54069000I-225000J0D01*
G01*
X238154000Y-54069000D01*
G75*
G02*
X237929000Y-53844000I0J225000D01*
G01*
X237929000Y-53344000D01*
G75*
G02*
X238154000Y-53119000I225000J0D01*
G01*
X238604000Y-53119000D01*
G75*
G02*
X238829000Y-53344000I0J-225000D01*
G01*
G37*
G04 #@! TD.AperFunction*
G04 #@! TA.AperFunction,SMDPad,CuDef*
G36*
G01*
X237279000Y-53344000D02*
X237279000Y-53844000D01*
G75*
G02*
X237054000Y-54069000I-225000J0D01*
G01*
X236604000Y-54069000D01*
G75*
G02*
X236379000Y-53844000I0J225000D01*
G01*
X236379000Y-53344000D01*
G75*
G02*
X236604000Y-53119000I225000J0D01*
G01*
X237054000Y-53119000D01*
G75*
G02*
X237279000Y-53344000I0J-225000D01*
G01*
G37*
G04 #@! TD.AperFunction*
G04 #@! TA.AperFunction,SMDPad,CuDef*
G36*
G01*
X196210000Y-104120000D02*
X196550000Y-104120000D01*
G75*
G02*
X196690000Y-104260000I0J-140000D01*
G01*
X196690000Y-104540000D01*
G75*
G02*
X196550000Y-104680000I-140000J0D01*
G01*
X196210000Y-104680000D01*
G75*
G02*
X196070000Y-104540000I0J140000D01*
G01*
X196070000Y-104260000D01*
G75*
G02*
X196210000Y-104120000I140000J0D01*
G01*
G37*
G04 #@! TD.AperFunction*
G04 #@! TA.AperFunction,SMDPad,CuDef*
G36*
G01*
X196210000Y-105080000D02*
X196550000Y-105080000D01*
G75*
G02*
X196690000Y-105220000I0J-140000D01*
G01*
X196690000Y-105500000D01*
G75*
G02*
X196550000Y-105640000I-140000J0D01*
G01*
X196210000Y-105640000D01*
G75*
G02*
X196070000Y-105500000I0J140000D01*
G01*
X196070000Y-105220000D01*
G75*
G02*
X196210000Y-105080000I140000J0D01*
G01*
G37*
G04 #@! TD.AperFunction*
G04 #@! TA.AperFunction,SMDPad,CuDef*
G36*
G01*
X232225000Y-92440000D02*
X232595000Y-92440000D01*
G75*
G02*
X232730000Y-92575000I0J-135000D01*
G01*
X232730000Y-92845000D01*
G75*
G02*
X232595000Y-92980000I-135000J0D01*
G01*
X232225000Y-92980000D01*
G75*
G02*
X232090000Y-92845000I0J135000D01*
G01*
X232090000Y-92575000D01*
G75*
G02*
X232225000Y-92440000I135000J0D01*
G01*
G37*
G04 #@! TD.AperFunction*
G04 #@! TA.AperFunction,SMDPad,CuDef*
G36*
G01*
X232225000Y-93460000D02*
X232595000Y-93460000D01*
G75*
G02*
X232730000Y-93595000I0J-135000D01*
G01*
X232730000Y-93865000D01*
G75*
G02*
X232595000Y-94000000I-135000J0D01*
G01*
X232225000Y-94000000D01*
G75*
G02*
X232090000Y-93865000I0J135000D01*
G01*
X232090000Y-93595000D01*
G75*
G02*
X232225000Y-93460000I135000J0D01*
G01*
G37*
G04 #@! TD.AperFunction*
G04 #@! TA.AperFunction,SMDPad,CuDef*
G36*
G01*
X165730000Y-104120000D02*
X166070000Y-104120000D01*
G75*
G02*
X166210000Y-104260000I0J-140000D01*
G01*
X166210000Y-104540000D01*
G75*
G02*
X166070000Y-104680000I-140000J0D01*
G01*
X165730000Y-104680000D01*
G75*
G02*
X165590000Y-104540000I0J140000D01*
G01*
X165590000Y-104260000D01*
G75*
G02*
X165730000Y-104120000I140000J0D01*
G01*
G37*
G04 #@! TD.AperFunction*
G04 #@! TA.AperFunction,SMDPad,CuDef*
G36*
G01*
X165730000Y-105080000D02*
X166070000Y-105080000D01*
G75*
G02*
X166210000Y-105220000I0J-140000D01*
G01*
X166210000Y-105500000D01*
G75*
G02*
X166070000Y-105640000I-140000J0D01*
G01*
X165730000Y-105640000D01*
G75*
G02*
X165590000Y-105500000I0J140000D01*
G01*
X165590000Y-105220000D01*
G75*
G02*
X165730000Y-105080000I140000J0D01*
G01*
G37*
G04 #@! TD.AperFunction*
G04 #@! TA.AperFunction,SMDPad,CuDef*
G36*
G01*
X41887000Y-74646000D02*
X41547000Y-74646000D01*
G75*
G02*
X41407000Y-74506000I0J140000D01*
G01*
X41407000Y-74226000D01*
G75*
G02*
X41547000Y-74086000I140000J0D01*
G01*
X41887000Y-74086000D01*
G75*
G02*
X42027000Y-74226000I0J-140000D01*
G01*
X42027000Y-74506000D01*
G75*
G02*
X41887000Y-74646000I-140000J0D01*
G01*
G37*
G04 #@! TD.AperFunction*
G04 #@! TA.AperFunction,SMDPad,CuDef*
G36*
G01*
X41887000Y-73686000D02*
X41547000Y-73686000D01*
G75*
G02*
X41407000Y-73546000I0J140000D01*
G01*
X41407000Y-73266000D01*
G75*
G02*
X41547000Y-73126000I140000J0D01*
G01*
X41887000Y-73126000D01*
G75*
G02*
X42027000Y-73266000I0J-140000D01*
G01*
X42027000Y-73546000D01*
G75*
G02*
X41887000Y-73686000I-140000J0D01*
G01*
G37*
G04 #@! TD.AperFunction*
G04 #@! TA.AperFunction,SMDPad,CuDef*
G36*
G01*
X139520000Y-32475000D02*
X139520000Y-32675000D01*
G75*
G02*
X139420000Y-32775000I-100000J0D01*
G01*
X138145000Y-32775000D01*
G75*
G02*
X138045000Y-32675000I0J100000D01*
G01*
X138045000Y-32475000D01*
G75*
G02*
X138145000Y-32375000I100000J0D01*
G01*
X139420000Y-32375000D01*
G75*
G02*
X139520000Y-32475000I0J-100000D01*
G01*
G37*
G04 #@! TD.AperFunction*
G04 #@! TA.AperFunction,SMDPad,CuDef*
G36*
G01*
X139520000Y-31825000D02*
X139520000Y-32025000D01*
G75*
G02*
X139420000Y-32125000I-100000J0D01*
G01*
X138145000Y-32125000D01*
G75*
G02*
X138045000Y-32025000I0J100000D01*
G01*
X138045000Y-31825000D01*
G75*
G02*
X138145000Y-31725000I100000J0D01*
G01*
X139420000Y-31725000D01*
G75*
G02*
X139520000Y-31825000I0J-100000D01*
G01*
G37*
G04 #@! TD.AperFunction*
G04 #@! TA.AperFunction,SMDPad,CuDef*
G36*
G01*
X139520000Y-31175000D02*
X139520000Y-31375000D01*
G75*
G02*
X139420000Y-31475000I-100000J0D01*
G01*
X138145000Y-31475000D01*
G75*
G02*
X138045000Y-31375000I0J100000D01*
G01*
X138045000Y-31175000D01*
G75*
G02*
X138145000Y-31075000I100000J0D01*
G01*
X139420000Y-31075000D01*
G75*
G02*
X139520000Y-31175000I0J-100000D01*
G01*
G37*
G04 #@! TD.AperFunction*
G04 #@! TA.AperFunction,SMDPad,CuDef*
G36*
G01*
X139520000Y-30525000D02*
X139520000Y-30725000D01*
G75*
G02*
X139420000Y-30825000I-100000J0D01*
G01*
X138145000Y-30825000D01*
G75*
G02*
X138045000Y-30725000I0J100000D01*
G01*
X138045000Y-30525000D01*
G75*
G02*
X138145000Y-30425000I100000J0D01*
G01*
X139420000Y-30425000D01*
G75*
G02*
X139520000Y-30525000I0J-100000D01*
G01*
G37*
G04 #@! TD.AperFunction*
G04 #@! TA.AperFunction,SMDPad,CuDef*
G36*
G01*
X133795000Y-30525000D02*
X133795000Y-30725000D01*
G75*
G02*
X133695000Y-30825000I-100000J0D01*
G01*
X132420000Y-30825000D01*
G75*
G02*
X132320000Y-30725000I0J100000D01*
G01*
X132320000Y-30525000D01*
G75*
G02*
X132420000Y-30425000I100000J0D01*
G01*
X133695000Y-30425000D01*
G75*
G02*
X133795000Y-30525000I0J-100000D01*
G01*
G37*
G04 #@! TD.AperFunction*
G04 #@! TA.AperFunction,SMDPad,CuDef*
G36*
G01*
X133795000Y-31175000D02*
X133795000Y-31375000D01*
G75*
G02*
X133695000Y-31475000I-100000J0D01*
G01*
X132420000Y-31475000D01*
G75*
G02*
X132320000Y-31375000I0J100000D01*
G01*
X132320000Y-31175000D01*
G75*
G02*
X132420000Y-31075000I100000J0D01*
G01*
X133695000Y-31075000D01*
G75*
G02*
X133795000Y-31175000I0J-100000D01*
G01*
G37*
G04 #@! TD.AperFunction*
G04 #@! TA.AperFunction,SMDPad,CuDef*
G36*
G01*
X133795000Y-31825000D02*
X133795000Y-32025000D01*
G75*
G02*
X133695000Y-32125000I-100000J0D01*
G01*
X132420000Y-32125000D01*
G75*
G02*
X132320000Y-32025000I0J100000D01*
G01*
X132320000Y-31825000D01*
G75*
G02*
X132420000Y-31725000I100000J0D01*
G01*
X133695000Y-31725000D01*
G75*
G02*
X133795000Y-31825000I0J-100000D01*
G01*
G37*
G04 #@! TD.AperFunction*
G04 #@! TA.AperFunction,SMDPad,CuDef*
G36*
G01*
X133795000Y-32475000D02*
X133795000Y-32675000D01*
G75*
G02*
X133695000Y-32775000I-100000J0D01*
G01*
X132420000Y-32775000D01*
G75*
G02*
X132320000Y-32675000I0J100000D01*
G01*
X132320000Y-32475000D01*
G75*
G02*
X132420000Y-32375000I100000J0D01*
G01*
X133695000Y-32375000D01*
G75*
G02*
X133795000Y-32475000I0J-100000D01*
G01*
G37*
G04 #@! TD.AperFunction*
G04 #@! TA.AperFunction,SMDPad,CuDef*
G36*
G01*
X74170000Y-35440000D02*
X74510000Y-35440000D01*
G75*
G02*
X74650000Y-35580000I0J-140000D01*
G01*
X74650000Y-35860000D01*
G75*
G02*
X74510000Y-36000000I-140000J0D01*
G01*
X74170000Y-36000000D01*
G75*
G02*
X74030000Y-35860000I0J140000D01*
G01*
X74030000Y-35580000D01*
G75*
G02*
X74170000Y-35440000I140000J0D01*
G01*
G37*
G04 #@! TD.AperFunction*
G04 #@! TA.AperFunction,SMDPad,CuDef*
G36*
G01*
X74170000Y-36400000D02*
X74510000Y-36400000D01*
G75*
G02*
X74650000Y-36540000I0J-140000D01*
G01*
X74650000Y-36820000D01*
G75*
G02*
X74510000Y-36960000I-140000J0D01*
G01*
X74170000Y-36960000D01*
G75*
G02*
X74030000Y-36820000I0J140000D01*
G01*
X74030000Y-36540000D01*
G75*
G02*
X74170000Y-36400000I140000J0D01*
G01*
G37*
G04 #@! TD.AperFunction*
G04 #@! TA.AperFunction,SMDPad,CuDef*
G36*
G01*
X231425000Y-147208000D02*
X231425000Y-145908000D01*
G75*
G02*
X231675000Y-145658000I250000J0D01*
G01*
X232325000Y-145658000D01*
G75*
G02*
X232575000Y-145908000I0J-250000D01*
G01*
X232575000Y-147208000D01*
G75*
G02*
X232325000Y-147458000I-250000J0D01*
G01*
X231675000Y-147458000D01*
G75*
G02*
X231425000Y-147208000I0J250000D01*
G01*
G37*
G04 #@! TD.AperFunction*
G04 #@! TA.AperFunction,SMDPad,CuDef*
G36*
G01*
X234375000Y-147208000D02*
X234375000Y-145908000D01*
G75*
G02*
X234625000Y-145658000I250000J0D01*
G01*
X235275000Y-145658000D01*
G75*
G02*
X235525000Y-145908000I0J-250000D01*
G01*
X235525000Y-147208000D01*
G75*
G02*
X235275000Y-147458000I-250000J0D01*
G01*
X234625000Y-147458000D01*
G75*
G02*
X234375000Y-147208000I0J250000D01*
G01*
G37*
G04 #@! TD.AperFunction*
D17*
X101600000Y-152400000D03*
D18*
X99060000Y-152400000D03*
X96520000Y-152400000D03*
X93980000Y-152400000D03*
X91440000Y-152400000D03*
D17*
X193040000Y-38100000D03*
D18*
X190500000Y-38100000D03*
X187960000Y-38100000D03*
X185420000Y-38100000D03*
X182880000Y-38100000D03*
D15*
X91440000Y-34300000D03*
D16*
X93440000Y-34300000D03*
G04 #@! TA.AperFunction,SMDPad,CuDef*
G36*
G01*
X229190000Y-104120000D02*
X229530000Y-104120000D01*
G75*
G02*
X229670000Y-104260000I0J-140000D01*
G01*
X229670000Y-104540000D01*
G75*
G02*
X229530000Y-104680000I-140000J0D01*
G01*
X229190000Y-104680000D01*
G75*
G02*
X229050000Y-104540000I0J140000D01*
G01*
X229050000Y-104260000D01*
G75*
G02*
X229190000Y-104120000I140000J0D01*
G01*
G37*
G04 #@! TD.AperFunction*
G04 #@! TA.AperFunction,SMDPad,CuDef*
G36*
G01*
X229190000Y-105080000D02*
X229530000Y-105080000D01*
G75*
G02*
X229670000Y-105220000I0J-140000D01*
G01*
X229670000Y-105500000D01*
G75*
G02*
X229530000Y-105640000I-140000J0D01*
G01*
X229190000Y-105640000D01*
G75*
G02*
X229050000Y-105500000I0J140000D01*
G01*
X229050000Y-105220000D01*
G75*
G02*
X229190000Y-105080000I140000J0D01*
G01*
G37*
G04 #@! TD.AperFunction*
G04 #@! TA.AperFunction,SMDPad,CuDef*
G36*
G01*
X47950000Y-50450000D02*
X47950000Y-49150000D01*
G75*
G02*
X48200000Y-48900000I250000J0D01*
G01*
X50200000Y-48900000D01*
G75*
G02*
X50450000Y-49150000I0J-250000D01*
G01*
X50450000Y-50450000D01*
G75*
G02*
X50200000Y-50700000I-250000J0D01*
G01*
X48200000Y-50700000D01*
G75*
G02*
X47950000Y-50450000I0J250000D01*
G01*
G37*
G04 #@! TD.AperFunction*
G04 #@! TA.AperFunction,SMDPad,CuDef*
G36*
G01*
X51950000Y-50450000D02*
X51950000Y-49150000D01*
G75*
G02*
X52200000Y-48900000I250000J0D01*
G01*
X54200000Y-48900000D01*
G75*
G02*
X54450000Y-49150000I0J-250000D01*
G01*
X54450000Y-50450000D01*
G75*
G02*
X54200000Y-50700000I-250000J0D01*
G01*
X52200000Y-50700000D01*
G75*
G02*
X51950000Y-50450000I0J250000D01*
G01*
G37*
G04 #@! TD.AperFunction*
D17*
X223520000Y-152400000D03*
D18*
X220980000Y-152400000D03*
X218440000Y-152400000D03*
X215900000Y-152400000D03*
X213360000Y-152400000D03*
G04 #@! TA.AperFunction,SMDPad,CuDef*
G36*
G01*
X231475000Y-133975000D02*
X231475000Y-132725000D01*
G75*
G02*
X231725000Y-132475000I250000J0D01*
G01*
X232350000Y-132475000D01*
G75*
G02*
X232600000Y-132725000I0J-250000D01*
G01*
X232600000Y-133975000D01*
G75*
G02*
X232350000Y-134225000I-250000J0D01*
G01*
X231725000Y-134225000D01*
G75*
G02*
X231475000Y-133975000I0J250000D01*
G01*
G37*
G04 #@! TD.AperFunction*
G04 #@! TA.AperFunction,SMDPad,CuDef*
G36*
G01*
X234400000Y-133975000D02*
X234400000Y-132725000D01*
G75*
G02*
X234650000Y-132475000I250000J0D01*
G01*
X235275000Y-132475000D01*
G75*
G02*
X235525000Y-132725000I0J-250000D01*
G01*
X235525000Y-133975000D01*
G75*
G02*
X235275000Y-134225000I-250000J0D01*
G01*
X234650000Y-134225000D01*
G75*
G02*
X234400000Y-133975000I0J250000D01*
G01*
G37*
G04 #@! TD.AperFunction*
D21*
X38535000Y-45740000D03*
X38535000Y-46740000D03*
X38535000Y-47240000D03*
X38535000Y-48240000D03*
D22*
X38535000Y-49440000D03*
X38535000Y-50215000D03*
D21*
X38535000Y-48740000D03*
X38535000Y-47740000D03*
X38535000Y-46240000D03*
X38535000Y-45240000D03*
D22*
X38535000Y-44540000D03*
X38535000Y-43765000D03*
D23*
X37620000Y-42670000D03*
D24*
X33440000Y-42670000D03*
D23*
X37620000Y-51310000D03*
D24*
X33440000Y-51310000D03*
D25*
X41275000Y-152400000D03*
D26*
X43815000Y-152400000D03*
X41275000Y-149860000D03*
X43815000Y-149860000D03*
X41275000Y-147320000D03*
X43815000Y-147320000D03*
X41275000Y-144780000D03*
X43815000Y-144780000D03*
X41275000Y-142240000D03*
X43815000Y-142240000D03*
D12*
X238913000Y-116332000D03*
X248513000Y-116332000D03*
D13*
X241213000Y-123832000D03*
D14*
X243713000Y-123832000D03*
X246213000Y-123832000D03*
G04 #@! TA.AperFunction,SMDPad,CuDef*
G36*
G01*
X169620000Y-98265000D02*
X169620000Y-97895000D01*
G75*
G02*
X169755000Y-97760000I135000J0D01*
G01*
X170025000Y-97760000D01*
G75*
G02*
X170160000Y-97895000I0J-135000D01*
G01*
X170160000Y-98265000D01*
G75*
G02*
X170025000Y-98400000I-135000J0D01*
G01*
X169755000Y-98400000D01*
G75*
G02*
X169620000Y-98265000I0J135000D01*
G01*
G37*
G04 #@! TD.AperFunction*
G04 #@! TA.AperFunction,SMDPad,CuDef*
G36*
G01*
X170640000Y-98265000D02*
X170640000Y-97895000D01*
G75*
G02*
X170775000Y-97760000I135000J0D01*
G01*
X171045000Y-97760000D01*
G75*
G02*
X171180000Y-97895000I0J-135000D01*
G01*
X171180000Y-98265000D01*
G75*
G02*
X171045000Y-98400000I-135000J0D01*
G01*
X170775000Y-98400000D01*
G75*
G02*
X170640000Y-98265000I0J135000D01*
G01*
G37*
G04 #@! TD.AperFunction*
G04 #@! TA.AperFunction,SMDPad,CuDef*
G36*
G01*
X50599000Y-73185000D02*
X50599000Y-74135000D01*
G75*
G02*
X50349000Y-74385000I-250000J0D01*
G01*
X49849000Y-74385000D01*
G75*
G02*
X49599000Y-74135000I0J250000D01*
G01*
X49599000Y-73185000D01*
G75*
G02*
X49849000Y-72935000I250000J0D01*
G01*
X50349000Y-72935000D01*
G75*
G02*
X50599000Y-73185000I0J-250000D01*
G01*
G37*
G04 #@! TD.AperFunction*
G04 #@! TA.AperFunction,SMDPad,CuDef*
G36*
G01*
X48699000Y-73185000D02*
X48699000Y-74135000D01*
G75*
G02*
X48449000Y-74385000I-250000J0D01*
G01*
X47949000Y-74385000D01*
G75*
G02*
X47699000Y-74135000I0J250000D01*
G01*
X47699000Y-73185000D01*
G75*
G02*
X47949000Y-72935000I250000J0D01*
G01*
X48449000Y-72935000D01*
G75*
G02*
X48699000Y-73185000I0J-250000D01*
G01*
G37*
G04 #@! TD.AperFunction*
G04 #@! TA.AperFunction,SMDPad,CuDef*
G36*
G01*
X243235000Y-91725000D02*
X243235000Y-91385000D01*
G75*
G02*
X243375000Y-91245000I140000J0D01*
G01*
X243655000Y-91245000D01*
G75*
G02*
X243795000Y-91385000I0J-140000D01*
G01*
X243795000Y-91725000D01*
G75*
G02*
X243655000Y-91865000I-140000J0D01*
G01*
X243375000Y-91865000D01*
G75*
G02*
X243235000Y-91725000I0J140000D01*
G01*
G37*
G04 #@! TD.AperFunction*
G04 #@! TA.AperFunction,SMDPad,CuDef*
G36*
G01*
X244195000Y-91725000D02*
X244195000Y-91385000D01*
G75*
G02*
X244335000Y-91245000I140000J0D01*
G01*
X244615000Y-91245000D01*
G75*
G02*
X244755000Y-91385000I0J-140000D01*
G01*
X244755000Y-91725000D01*
G75*
G02*
X244615000Y-91865000I-140000J0D01*
G01*
X244335000Y-91865000D01*
G75*
G02*
X244195000Y-91725000I0J140000D01*
G01*
G37*
G04 #@! TD.AperFunction*
G04 #@! TA.AperFunction,SMDPad,CuDef*
G36*
G01*
X76790000Y-104120000D02*
X77130000Y-104120000D01*
G75*
G02*
X77270000Y-104260000I0J-140000D01*
G01*
X77270000Y-104540000D01*
G75*
G02*
X77130000Y-104680000I-140000J0D01*
G01*
X76790000Y-104680000D01*
G75*
G02*
X76650000Y-104540000I0J140000D01*
G01*
X76650000Y-104260000D01*
G75*
G02*
X76790000Y-104120000I140000J0D01*
G01*
G37*
G04 #@! TD.AperFunction*
G04 #@! TA.AperFunction,SMDPad,CuDef*
G36*
G01*
X76790000Y-105080000D02*
X77130000Y-105080000D01*
G75*
G02*
X77270000Y-105220000I0J-140000D01*
G01*
X77270000Y-105500000D01*
G75*
G02*
X77130000Y-105640000I-140000J0D01*
G01*
X76790000Y-105640000D01*
G75*
G02*
X76650000Y-105500000I0J140000D01*
G01*
X76650000Y-105220000D01*
G75*
G02*
X76790000Y-105080000I140000J0D01*
G01*
G37*
G04 #@! TD.AperFunction*
G04 #@! TA.AperFunction,SMDPad,CuDef*
G36*
G01*
X231437500Y-129936000D02*
X231437500Y-128636000D01*
G75*
G02*
X231687500Y-128386000I250000J0D01*
G01*
X232337500Y-128386000D01*
G75*
G02*
X232587500Y-128636000I0J-250000D01*
G01*
X232587500Y-129936000D01*
G75*
G02*
X232337500Y-130186000I-250000J0D01*
G01*
X231687500Y-130186000D01*
G75*
G02*
X231437500Y-129936000I0J250000D01*
G01*
G37*
G04 #@! TD.AperFunction*
G04 #@! TA.AperFunction,SMDPad,CuDef*
G36*
G01*
X234387500Y-129936000D02*
X234387500Y-128636000D01*
G75*
G02*
X234637500Y-128386000I250000J0D01*
G01*
X235287500Y-128386000D01*
G75*
G02*
X235537500Y-128636000I0J-250000D01*
G01*
X235537500Y-129936000D01*
G75*
G02*
X235287500Y-130186000I-250000J0D01*
G01*
X234637500Y-130186000D01*
G75*
G02*
X234387500Y-129936000I0J250000D01*
G01*
G37*
G04 #@! TD.AperFunction*
G04 #@! TA.AperFunction,SMDPad,CuDef*
G36*
G01*
X109040000Y-101055000D02*
X109040000Y-101255000D01*
G75*
G02*
X108940000Y-101355000I-100000J0D01*
G01*
X107665000Y-101355000D01*
G75*
G02*
X107565000Y-101255000I0J100000D01*
G01*
X107565000Y-101055000D01*
G75*
G02*
X107665000Y-100955000I100000J0D01*
G01*
X108940000Y-100955000D01*
G75*
G02*
X109040000Y-101055000I0J-100000D01*
G01*
G37*
G04 #@! TD.AperFunction*
G04 #@! TA.AperFunction,SMDPad,CuDef*
G36*
G01*
X109040000Y-100405000D02*
X109040000Y-100605000D01*
G75*
G02*
X108940000Y-100705000I-100000J0D01*
G01*
X107665000Y-100705000D01*
G75*
G02*
X107565000Y-100605000I0J100000D01*
G01*
X107565000Y-100405000D01*
G75*
G02*
X107665000Y-100305000I100000J0D01*
G01*
X108940000Y-100305000D01*
G75*
G02*
X109040000Y-100405000I0J-100000D01*
G01*
G37*
G04 #@! TD.AperFunction*
G04 #@! TA.AperFunction,SMDPad,CuDef*
G36*
G01*
X109040000Y-99755000D02*
X109040000Y-99955000D01*
G75*
G02*
X108940000Y-100055000I-100000J0D01*
G01*
X107665000Y-100055000D01*
G75*
G02*
X107565000Y-99955000I0J100000D01*
G01*
X107565000Y-99755000D01*
G75*
G02*
X107665000Y-99655000I100000J0D01*
G01*
X108940000Y-99655000D01*
G75*
G02*
X109040000Y-99755000I0J-100000D01*
G01*
G37*
G04 #@! TD.AperFunction*
G04 #@! TA.AperFunction,SMDPad,CuDef*
G36*
G01*
X109040000Y-99105000D02*
X109040000Y-99305000D01*
G75*
G02*
X108940000Y-99405000I-100000J0D01*
G01*
X107665000Y-99405000D01*
G75*
G02*
X107565000Y-99305000I0J100000D01*
G01*
X107565000Y-99105000D01*
G75*
G02*
X107665000Y-99005000I100000J0D01*
G01*
X108940000Y-99005000D01*
G75*
G02*
X109040000Y-99105000I0J-100000D01*
G01*
G37*
G04 #@! TD.AperFunction*
G04 #@! TA.AperFunction,SMDPad,CuDef*
G36*
G01*
X103315000Y-99105000D02*
X103315000Y-99305000D01*
G75*
G02*
X103215000Y-99405000I-100000J0D01*
G01*
X101940000Y-99405000D01*
G75*
G02*
X101840000Y-99305000I0J100000D01*
G01*
X101840000Y-99105000D01*
G75*
G02*
X101940000Y-99005000I100000J0D01*
G01*
X103215000Y-99005000D01*
G75*
G02*
X103315000Y-99105000I0J-100000D01*
G01*
G37*
G04 #@! TD.AperFunction*
G04 #@! TA.AperFunction,SMDPad,CuDef*
G36*
G01*
X103315000Y-99755000D02*
X103315000Y-99955000D01*
G75*
G02*
X103215000Y-100055000I-100000J0D01*
G01*
X101940000Y-100055000D01*
G75*
G02*
X101840000Y-99955000I0J100000D01*
G01*
X101840000Y-99755000D01*
G75*
G02*
X101940000Y-99655000I100000J0D01*
G01*
X103215000Y-99655000D01*
G75*
G02*
X103315000Y-99755000I0J-100000D01*
G01*
G37*
G04 #@! TD.AperFunction*
G04 #@! TA.AperFunction,SMDPad,CuDef*
G36*
G01*
X103315000Y-100405000D02*
X103315000Y-100605000D01*
G75*
G02*
X103215000Y-100705000I-100000J0D01*
G01*
X101940000Y-100705000D01*
G75*
G02*
X101840000Y-100605000I0J100000D01*
G01*
X101840000Y-100405000D01*
G75*
G02*
X101940000Y-100305000I100000J0D01*
G01*
X103215000Y-100305000D01*
G75*
G02*
X103315000Y-100405000I0J-100000D01*
G01*
G37*
G04 #@! TD.AperFunction*
G04 #@! TA.AperFunction,SMDPad,CuDef*
G36*
G01*
X103315000Y-101055000D02*
X103315000Y-101255000D01*
G75*
G02*
X103215000Y-101355000I-100000J0D01*
G01*
X101940000Y-101355000D01*
G75*
G02*
X101840000Y-101255000I0J100000D01*
G01*
X101840000Y-101055000D01*
G75*
G02*
X101940000Y-100955000I100000J0D01*
G01*
X103215000Y-100955000D01*
G75*
G02*
X103315000Y-101055000I0J-100000D01*
G01*
G37*
G04 #@! TD.AperFunction*
G04 #@! TA.AperFunction,SMDPad,CuDef*
G36*
G01*
X231425000Y-143144000D02*
X231425000Y-141844000D01*
G75*
G02*
X231675000Y-141594000I250000J0D01*
G01*
X232325000Y-141594000D01*
G75*
G02*
X232575000Y-141844000I0J-250000D01*
G01*
X232575000Y-143144000D01*
G75*
G02*
X232325000Y-143394000I-250000J0D01*
G01*
X231675000Y-143394000D01*
G75*
G02*
X231425000Y-143144000I0J250000D01*
G01*
G37*
G04 #@! TD.AperFunction*
G04 #@! TA.AperFunction,SMDPad,CuDef*
G36*
G01*
X234375000Y-143144000D02*
X234375000Y-141844000D01*
G75*
G02*
X234625000Y-141594000I250000J0D01*
G01*
X235275000Y-141594000D01*
G75*
G02*
X235525000Y-141844000I0J-250000D01*
G01*
X235525000Y-143144000D01*
G75*
G02*
X235275000Y-143394000I-250000J0D01*
G01*
X234625000Y-143394000D01*
G75*
G02*
X234375000Y-143144000I0J250000D01*
G01*
G37*
G04 #@! TD.AperFunction*
G04 #@! TA.AperFunction,SMDPad,CuDef*
G36*
G01*
X139140000Y-29685000D02*
X139140000Y-29315000D01*
G75*
G02*
X139275000Y-29180000I135000J0D01*
G01*
X139545000Y-29180000D01*
G75*
G02*
X139680000Y-29315000I0J-135000D01*
G01*
X139680000Y-29685000D01*
G75*
G02*
X139545000Y-29820000I-135000J0D01*
G01*
X139275000Y-29820000D01*
G75*
G02*
X139140000Y-29685000I0J135000D01*
G01*
G37*
G04 #@! TD.AperFunction*
G04 #@! TA.AperFunction,SMDPad,CuDef*
G36*
G01*
X140160000Y-29685000D02*
X140160000Y-29315000D01*
G75*
G02*
X140295000Y-29180000I135000J0D01*
G01*
X140565000Y-29180000D01*
G75*
G02*
X140700000Y-29315000I0J-135000D01*
G01*
X140700000Y-29685000D01*
G75*
G02*
X140565000Y-29820000I-135000J0D01*
G01*
X140295000Y-29820000D01*
G75*
G02*
X140160000Y-29685000I0J135000D01*
G01*
G37*
G04 #@! TD.AperFunction*
G04 #@! TA.AperFunction,SMDPad,CuDef*
G36*
G01*
X198710000Y-104120000D02*
X199050000Y-104120000D01*
G75*
G02*
X199190000Y-104260000I0J-140000D01*
G01*
X199190000Y-104540000D01*
G75*
G02*
X199050000Y-104680000I-140000J0D01*
G01*
X198710000Y-104680000D01*
G75*
G02*
X198570000Y-104540000I0J140000D01*
G01*
X198570000Y-104260000D01*
G75*
G02*
X198710000Y-104120000I140000J0D01*
G01*
G37*
G04 #@! TD.AperFunction*
G04 #@! TA.AperFunction,SMDPad,CuDef*
G36*
G01*
X198710000Y-105080000D02*
X199050000Y-105080000D01*
G75*
G02*
X199190000Y-105220000I0J-140000D01*
G01*
X199190000Y-105500000D01*
G75*
G02*
X199050000Y-105640000I-140000J0D01*
G01*
X198710000Y-105640000D01*
G75*
G02*
X198570000Y-105500000I0J140000D01*
G01*
X198570000Y-105220000D01*
G75*
G02*
X198710000Y-105080000I140000J0D01*
G01*
G37*
G04 #@! TD.AperFunction*
G04 #@! TA.AperFunction,SMDPad,CuDef*
G36*
G01*
X135250000Y-35540000D02*
X135590000Y-35540000D01*
G75*
G02*
X135730000Y-35680000I0J-140000D01*
G01*
X135730000Y-35960000D01*
G75*
G02*
X135590000Y-36100000I-140000J0D01*
G01*
X135250000Y-36100000D01*
G75*
G02*
X135110000Y-35960000I0J140000D01*
G01*
X135110000Y-35680000D01*
G75*
G02*
X135250000Y-35540000I140000J0D01*
G01*
G37*
G04 #@! TD.AperFunction*
G04 #@! TA.AperFunction,SMDPad,CuDef*
G36*
G01*
X135250000Y-36500000D02*
X135590000Y-36500000D01*
G75*
G02*
X135730000Y-36640000I0J-140000D01*
G01*
X135730000Y-36920000D01*
G75*
G02*
X135590000Y-37060000I-140000J0D01*
G01*
X135250000Y-37060000D01*
G75*
G02*
X135110000Y-36920000I0J140000D01*
G01*
X135110000Y-36640000D01*
G75*
G02*
X135250000Y-36500000I140000J0D01*
G01*
G37*
G04 #@! TD.AperFunction*
G04 #@! TA.AperFunction,SMDPad,CuDef*
G36*
G01*
X231580000Y-103865000D02*
X231580000Y-103495000D01*
G75*
G02*
X231715000Y-103360000I135000J0D01*
G01*
X231985000Y-103360000D01*
G75*
G02*
X232120000Y-103495000I0J-135000D01*
G01*
X232120000Y-103865000D01*
G75*
G02*
X231985000Y-104000000I-135000J0D01*
G01*
X231715000Y-104000000D01*
G75*
G02*
X231580000Y-103865000I0J135000D01*
G01*
G37*
G04 #@! TD.AperFunction*
G04 #@! TA.AperFunction,SMDPad,CuDef*
G36*
G01*
X232600000Y-103865000D02*
X232600000Y-103495000D01*
G75*
G02*
X232735000Y-103360000I135000J0D01*
G01*
X233005000Y-103360000D01*
G75*
G02*
X233140000Y-103495000I0J-135000D01*
G01*
X233140000Y-103865000D01*
G75*
G02*
X233005000Y-104000000I-135000J0D01*
G01*
X232735000Y-104000000D01*
G75*
G02*
X232600000Y-103865000I0J135000D01*
G01*
G37*
G04 #@! TD.AperFunction*
G04 #@! TA.AperFunction,SMDPad,CuDef*
G36*
G01*
X104770000Y-104120000D02*
X105110000Y-104120000D01*
G75*
G02*
X105250000Y-104260000I0J-140000D01*
G01*
X105250000Y-104540000D01*
G75*
G02*
X105110000Y-104680000I-140000J0D01*
G01*
X104770000Y-104680000D01*
G75*
G02*
X104630000Y-104540000I0J140000D01*
G01*
X104630000Y-104260000D01*
G75*
G02*
X104770000Y-104120000I140000J0D01*
G01*
G37*
G04 #@! TD.AperFunction*
G04 #@! TA.AperFunction,SMDPad,CuDef*
G36*
G01*
X104770000Y-105080000D02*
X105110000Y-105080000D01*
G75*
G02*
X105250000Y-105220000I0J-140000D01*
G01*
X105250000Y-105500000D01*
G75*
G02*
X105110000Y-105640000I-140000J0D01*
G01*
X104770000Y-105640000D01*
G75*
G02*
X104630000Y-105500000I0J140000D01*
G01*
X104630000Y-105220000D01*
G75*
G02*
X104770000Y-105080000I140000J0D01*
G01*
G37*
G04 #@! TD.AperFunction*
G04 #@! TA.AperFunction,SMDPad,CuDef*
G36*
G01*
X170620000Y-103865000D02*
X170620000Y-103495000D01*
G75*
G02*
X170755000Y-103360000I135000J0D01*
G01*
X171025000Y-103360000D01*
G75*
G02*
X171160000Y-103495000I0J-135000D01*
G01*
X171160000Y-103865000D01*
G75*
G02*
X171025000Y-104000000I-135000J0D01*
G01*
X170755000Y-104000000D01*
G75*
G02*
X170620000Y-103865000I0J135000D01*
G01*
G37*
G04 #@! TD.AperFunction*
G04 #@! TA.AperFunction,SMDPad,CuDef*
G36*
G01*
X171640000Y-103865000D02*
X171640000Y-103495000D01*
G75*
G02*
X171775000Y-103360000I135000J0D01*
G01*
X172045000Y-103360000D01*
G75*
G02*
X172180000Y-103495000I0J-135000D01*
G01*
X172180000Y-103865000D01*
G75*
G02*
X172045000Y-104000000I-135000J0D01*
G01*
X171775000Y-104000000D01*
G75*
G02*
X171640000Y-103865000I0J135000D01*
G01*
G37*
G04 #@! TD.AperFunction*
D17*
X132080000Y-38100000D03*
D18*
X129540000Y-38100000D03*
X127000000Y-38100000D03*
X124460000Y-38100000D03*
X121920000Y-38100000D03*
G04 #@! TA.AperFunction,SMDPad,CuDef*
G36*
G01*
X47950000Y-29650000D02*
X47950000Y-28350000D01*
G75*
G02*
X48200000Y-28100000I250000J0D01*
G01*
X50200000Y-28100000D01*
G75*
G02*
X50450000Y-28350000I0J-250000D01*
G01*
X50450000Y-29650000D01*
G75*
G02*
X50200000Y-29900000I-250000J0D01*
G01*
X48200000Y-29900000D01*
G75*
G02*
X47950000Y-29650000I0J250000D01*
G01*
G37*
G04 #@! TD.AperFunction*
G04 #@! TA.AperFunction,SMDPad,CuDef*
G36*
G01*
X51950000Y-29650000D02*
X51950000Y-28350000D01*
G75*
G02*
X52200000Y-28100000I250000J0D01*
G01*
X54200000Y-28100000D01*
G75*
G02*
X54450000Y-28350000I0J-250000D01*
G01*
X54450000Y-29650000D01*
G75*
G02*
X54200000Y-29900000I-250000J0D01*
G01*
X52200000Y-29900000D01*
G75*
G02*
X51950000Y-29650000I0J250000D01*
G01*
G37*
G04 #@! TD.AperFunction*
D17*
X223520000Y-106680000D03*
D18*
X220980000Y-106680000D03*
X218440000Y-106680000D03*
X215900000Y-106680000D03*
X213360000Y-106680000D03*
D17*
X71120000Y-106680000D03*
D18*
X68580000Y-106680000D03*
X66040000Y-106680000D03*
X63500000Y-106680000D03*
X60960000Y-106680000D03*
G04 #@! TA.AperFunction,SMDPad,CuDef*
G36*
G01*
X38500000Y-54335000D02*
X38500000Y-54885000D01*
G75*
G02*
X38300000Y-55085000I-200000J0D01*
G01*
X37900000Y-55085000D01*
G75*
G02*
X37700000Y-54885000I0J200000D01*
G01*
X37700000Y-54335000D01*
G75*
G02*
X37900000Y-54135000I200000J0D01*
G01*
X38300000Y-54135000D01*
G75*
G02*
X38500000Y-54335000I0J-200000D01*
G01*
G37*
G04 #@! TD.AperFunction*
G04 #@! TA.AperFunction,SMDPad,CuDef*
G36*
G01*
X36850000Y-54335000D02*
X36850000Y-54885000D01*
G75*
G02*
X36650000Y-55085000I-200000J0D01*
G01*
X36250000Y-55085000D01*
G75*
G02*
X36050000Y-54885000I0J200000D01*
G01*
X36050000Y-54335000D01*
G75*
G02*
X36250000Y-54135000I200000J0D01*
G01*
X36650000Y-54135000D01*
G75*
G02*
X36850000Y-54335000I0J-200000D01*
G01*
G37*
G04 #@! TD.AperFunction*
G04 #@! TA.AperFunction,SMDPad,CuDef*
G36*
G01*
X79180000Y-103865000D02*
X79180000Y-103495000D01*
G75*
G02*
X79315000Y-103360000I135000J0D01*
G01*
X79585000Y-103360000D01*
G75*
G02*
X79720000Y-103495000I0J-135000D01*
G01*
X79720000Y-103865000D01*
G75*
G02*
X79585000Y-104000000I-135000J0D01*
G01*
X79315000Y-104000000D01*
G75*
G02*
X79180000Y-103865000I0J135000D01*
G01*
G37*
G04 #@! TD.AperFunction*
G04 #@! TA.AperFunction,SMDPad,CuDef*
G36*
G01*
X80200000Y-103865000D02*
X80200000Y-103495000D01*
G75*
G02*
X80335000Y-103360000I135000J0D01*
G01*
X80605000Y-103360000D01*
G75*
G02*
X80740000Y-103495000I0J-135000D01*
G01*
X80740000Y-103865000D01*
G75*
G02*
X80605000Y-104000000I-135000J0D01*
G01*
X80335000Y-104000000D01*
G75*
G02*
X80200000Y-103865000I0J135000D01*
G01*
G37*
G04 #@! TD.AperFunction*
G04 #@! TA.AperFunction,SMDPad,CuDef*
G36*
G01*
X38500000Y-57510000D02*
X38500000Y-58060000D01*
G75*
G02*
X38300000Y-58260000I-200000J0D01*
G01*
X37900000Y-58260000D01*
G75*
G02*
X37700000Y-58060000I0J200000D01*
G01*
X37700000Y-57510000D01*
G75*
G02*
X37900000Y-57310000I200000J0D01*
G01*
X38300000Y-57310000D01*
G75*
G02*
X38500000Y-57510000I0J-200000D01*
G01*
G37*
G04 #@! TD.AperFunction*
G04 #@! TA.AperFunction,SMDPad,CuDef*
G36*
G01*
X36850000Y-57510000D02*
X36850000Y-58060000D01*
G75*
G02*
X36650000Y-58260000I-200000J0D01*
G01*
X36250000Y-58260000D01*
G75*
G02*
X36050000Y-58060000I0J200000D01*
G01*
X36050000Y-57510000D01*
G75*
G02*
X36250000Y-57310000I200000J0D01*
G01*
X36650000Y-57310000D01*
G75*
G02*
X36850000Y-57510000I0J-200000D01*
G01*
G37*
G04 #@! TD.AperFunction*
D17*
X71120000Y-152400000D03*
D18*
X68580000Y-152400000D03*
X66040000Y-152400000D03*
X63500000Y-152400000D03*
X60960000Y-152400000D03*
G04 #@! TA.AperFunction,SMDPad,CuDef*
G36*
G01*
X200100000Y-98265000D02*
X200100000Y-97895000D01*
G75*
G02*
X200235000Y-97760000I135000J0D01*
G01*
X200505000Y-97760000D01*
G75*
G02*
X200640000Y-97895000I0J-135000D01*
G01*
X200640000Y-98265000D01*
G75*
G02*
X200505000Y-98400000I-135000J0D01*
G01*
X200235000Y-98400000D01*
G75*
G02*
X200100000Y-98265000I0J135000D01*
G01*
G37*
G04 #@! TD.AperFunction*
G04 #@! TA.AperFunction,SMDPad,CuDef*
G36*
G01*
X201120000Y-98265000D02*
X201120000Y-97895000D01*
G75*
G02*
X201255000Y-97760000I135000J0D01*
G01*
X201525000Y-97760000D01*
G75*
G02*
X201660000Y-97895000I0J-135000D01*
G01*
X201660000Y-98265000D01*
G75*
G02*
X201525000Y-98400000I-135000J0D01*
G01*
X201255000Y-98400000D01*
G75*
G02*
X201120000Y-98265000I0J135000D01*
G01*
G37*
G04 #@! TD.AperFunction*
G04 #@! TA.AperFunction,SMDPad,CuDef*
G36*
G01*
X78560000Y-101055000D02*
X78560000Y-101255000D01*
G75*
G02*
X78460000Y-101355000I-100000J0D01*
G01*
X77185000Y-101355000D01*
G75*
G02*
X77085000Y-101255000I0J100000D01*
G01*
X77085000Y-101055000D01*
G75*
G02*
X77185000Y-100955000I100000J0D01*
G01*
X78460000Y-100955000D01*
G75*
G02*
X78560000Y-101055000I0J-100000D01*
G01*
G37*
G04 #@! TD.AperFunction*
G04 #@! TA.AperFunction,SMDPad,CuDef*
G36*
G01*
X78560000Y-100405000D02*
X78560000Y-100605000D01*
G75*
G02*
X78460000Y-100705000I-100000J0D01*
G01*
X77185000Y-100705000D01*
G75*
G02*
X77085000Y-100605000I0J100000D01*
G01*
X77085000Y-100405000D01*
G75*
G02*
X77185000Y-100305000I100000J0D01*
G01*
X78460000Y-100305000D01*
G75*
G02*
X78560000Y-100405000I0J-100000D01*
G01*
G37*
G04 #@! TD.AperFunction*
G04 #@! TA.AperFunction,SMDPad,CuDef*
G36*
G01*
X78560000Y-99755000D02*
X78560000Y-99955000D01*
G75*
G02*
X78460000Y-100055000I-100000J0D01*
G01*
X77185000Y-100055000D01*
G75*
G02*
X77085000Y-99955000I0J100000D01*
G01*
X77085000Y-99755000D01*
G75*
G02*
X77185000Y-99655000I100000J0D01*
G01*
X78460000Y-99655000D01*
G75*
G02*
X78560000Y-99755000I0J-100000D01*
G01*
G37*
G04 #@! TD.AperFunction*
G04 #@! TA.AperFunction,SMDPad,CuDef*
G36*
G01*
X78560000Y-99105000D02*
X78560000Y-99305000D01*
G75*
G02*
X78460000Y-99405000I-100000J0D01*
G01*
X77185000Y-99405000D01*
G75*
G02*
X77085000Y-99305000I0J100000D01*
G01*
X77085000Y-99105000D01*
G75*
G02*
X77185000Y-99005000I100000J0D01*
G01*
X78460000Y-99005000D01*
G75*
G02*
X78560000Y-99105000I0J-100000D01*
G01*
G37*
G04 #@! TD.AperFunction*
G04 #@! TA.AperFunction,SMDPad,CuDef*
G36*
G01*
X72835000Y-99105000D02*
X72835000Y-99305000D01*
G75*
G02*
X72735000Y-99405000I-100000J0D01*
G01*
X71460000Y-99405000D01*
G75*
G02*
X71360000Y-99305000I0J100000D01*
G01*
X71360000Y-99105000D01*
G75*
G02*
X71460000Y-99005000I100000J0D01*
G01*
X72735000Y-99005000D01*
G75*
G02*
X72835000Y-99105000I0J-100000D01*
G01*
G37*
G04 #@! TD.AperFunction*
G04 #@! TA.AperFunction,SMDPad,CuDef*
G36*
G01*
X72835000Y-99755000D02*
X72835000Y-99955000D01*
G75*
G02*
X72735000Y-100055000I-100000J0D01*
G01*
X71460000Y-100055000D01*
G75*
G02*
X71360000Y-99955000I0J100000D01*
G01*
X71360000Y-99755000D01*
G75*
G02*
X71460000Y-99655000I100000J0D01*
G01*
X72735000Y-99655000D01*
G75*
G02*
X72835000Y-99755000I0J-100000D01*
G01*
G37*
G04 #@! TD.AperFunction*
G04 #@! TA.AperFunction,SMDPad,CuDef*
G36*
G01*
X72835000Y-100405000D02*
X72835000Y-100605000D01*
G75*
G02*
X72735000Y-100705000I-100000J0D01*
G01*
X71460000Y-100705000D01*
G75*
G02*
X71360000Y-100605000I0J100000D01*
G01*
X71360000Y-100405000D01*
G75*
G02*
X71460000Y-100305000I100000J0D01*
G01*
X72735000Y-100305000D01*
G75*
G02*
X72835000Y-100405000I0J-100000D01*
G01*
G37*
G04 #@! TD.AperFunction*
G04 #@! TA.AperFunction,SMDPad,CuDef*
G36*
G01*
X72835000Y-101055000D02*
X72835000Y-101255000D01*
G75*
G02*
X72735000Y-101355000I-100000J0D01*
G01*
X71460000Y-101355000D01*
G75*
G02*
X71360000Y-101255000I0J100000D01*
G01*
X71360000Y-101055000D01*
G75*
G02*
X71460000Y-100955000I100000J0D01*
G01*
X72735000Y-100955000D01*
G75*
G02*
X72835000Y-101055000I0J-100000D01*
G01*
G37*
G04 #@! TD.AperFunction*
G04 #@! TA.AperFunction,SMDPad,CuDef*
G36*
G01*
X79060000Y-35185000D02*
X79060000Y-34815000D01*
G75*
G02*
X79195000Y-34680000I135000J0D01*
G01*
X79465000Y-34680000D01*
G75*
G02*
X79600000Y-34815000I0J-135000D01*
G01*
X79600000Y-35185000D01*
G75*
G02*
X79465000Y-35320000I-135000J0D01*
G01*
X79195000Y-35320000D01*
G75*
G02*
X79060000Y-35185000I0J135000D01*
G01*
G37*
G04 #@! TD.AperFunction*
G04 #@! TA.AperFunction,SMDPad,CuDef*
G36*
G01*
X80080000Y-35185000D02*
X80080000Y-34815000D01*
G75*
G02*
X80215000Y-34680000I135000J0D01*
G01*
X80485000Y-34680000D01*
G75*
G02*
X80620000Y-34815000I0J-135000D01*
G01*
X80620000Y-35185000D01*
G75*
G02*
X80485000Y-35320000I-135000J0D01*
G01*
X80215000Y-35320000D01*
G75*
G02*
X80080000Y-35185000I0J135000D01*
G01*
G37*
G04 #@! TD.AperFunction*
D15*
X182880000Y-34300000D03*
D16*
X184880000Y-34300000D03*
D17*
X101600000Y-106680000D03*
D18*
X99060000Y-106680000D03*
X96520000Y-106680000D03*
X93980000Y-106680000D03*
X91440000Y-106680000D03*
G04 #@! TA.AperFunction,SMDPad,CuDef*
G36*
G01*
X50599000Y-70899000D02*
X50599000Y-71849000D01*
G75*
G02*
X50349000Y-72099000I-250000J0D01*
G01*
X49849000Y-72099000D01*
G75*
G02*
X49599000Y-71849000I0J250000D01*
G01*
X49599000Y-70899000D01*
G75*
G02*
X49849000Y-70649000I250000J0D01*
G01*
X50349000Y-70649000D01*
G75*
G02*
X50599000Y-70899000I0J-250000D01*
G01*
G37*
G04 #@! TD.AperFunction*
G04 #@! TA.AperFunction,SMDPad,CuDef*
G36*
G01*
X48699000Y-70899000D02*
X48699000Y-71849000D01*
G75*
G02*
X48449000Y-72099000I-250000J0D01*
G01*
X47949000Y-72099000D01*
G75*
G02*
X47699000Y-71849000I0J250000D01*
G01*
X47699000Y-70899000D01*
G75*
G02*
X47949000Y-70649000I250000J0D01*
G01*
X48449000Y-70649000D01*
G75*
G02*
X48699000Y-70899000I0J-250000D01*
G01*
G37*
G04 #@! TD.AperFunction*
D17*
X162560000Y-152400000D03*
D18*
X160020000Y-152400000D03*
X157480000Y-152400000D03*
X154940000Y-152400000D03*
X152400000Y-152400000D03*
D15*
X213360000Y-102880000D03*
D16*
X215360000Y-102880000D03*
G04 #@! TA.AperFunction,SMDPad,CuDef*
G36*
G01*
X232225000Y-88630000D02*
X232595000Y-88630000D01*
G75*
G02*
X232730000Y-88765000I0J-135000D01*
G01*
X232730000Y-89035000D01*
G75*
G02*
X232595000Y-89170000I-135000J0D01*
G01*
X232225000Y-89170000D01*
G75*
G02*
X232090000Y-89035000I0J135000D01*
G01*
X232090000Y-88765000D01*
G75*
G02*
X232225000Y-88630000I135000J0D01*
G01*
G37*
G04 #@! TD.AperFunction*
G04 #@! TA.AperFunction,SMDPad,CuDef*
G36*
G01*
X232225000Y-89650000D02*
X232595000Y-89650000D01*
G75*
G02*
X232730000Y-89785000I0J-135000D01*
G01*
X232730000Y-90055000D01*
G75*
G02*
X232595000Y-90190000I-135000J0D01*
G01*
X232225000Y-90190000D01*
G75*
G02*
X232090000Y-90055000I0J135000D01*
G01*
X232090000Y-89785000D01*
G75*
G02*
X232225000Y-89650000I135000J0D01*
G01*
G37*
G04 #@! TD.AperFunction*
D15*
X91440000Y-102880000D03*
D16*
X93440000Y-102880000D03*
D17*
X223520000Y-83820000D03*
D18*
X220980000Y-83820000D03*
X218440000Y-83820000D03*
X215900000Y-83820000D03*
X213360000Y-83820000D03*
D17*
X132080000Y-152400000D03*
D18*
X129540000Y-152400000D03*
X127000000Y-152400000D03*
X124460000Y-152400000D03*
X121920000Y-152400000D03*
G04 #@! TA.AperFunction,SMDPad,CuDef*
G36*
G01*
X201100000Y-35285000D02*
X201100000Y-34915000D01*
G75*
G02*
X201235000Y-34780000I135000J0D01*
G01*
X201505000Y-34780000D01*
G75*
G02*
X201640000Y-34915000I0J-135000D01*
G01*
X201640000Y-35285000D01*
G75*
G02*
X201505000Y-35420000I-135000J0D01*
G01*
X201235000Y-35420000D01*
G75*
G02*
X201100000Y-35285000I0J135000D01*
G01*
G37*
G04 #@! TD.AperFunction*
G04 #@! TA.AperFunction,SMDPad,CuDef*
G36*
G01*
X202120000Y-35285000D02*
X202120000Y-34915000D01*
G75*
G02*
X202255000Y-34780000I135000J0D01*
G01*
X202525000Y-34780000D01*
G75*
G02*
X202660000Y-34915000I0J-135000D01*
G01*
X202660000Y-35285000D01*
G75*
G02*
X202525000Y-35420000I-135000J0D01*
G01*
X202255000Y-35420000D01*
G75*
G02*
X202120000Y-35285000I0J135000D01*
G01*
G37*
G04 #@! TD.AperFunction*
G04 #@! TA.AperFunction,SMDPad,CuDef*
G36*
G01*
X44187500Y-41393750D02*
X44187500Y-41906250D01*
G75*
G02*
X43968750Y-42125000I-218750J0D01*
G01*
X43531250Y-42125000D01*
G75*
G02*
X43312500Y-41906250I0J218750D01*
G01*
X43312500Y-41393750D01*
G75*
G02*
X43531250Y-41175000I218750J0D01*
G01*
X43968750Y-41175000D01*
G75*
G02*
X44187500Y-41393750I0J-218750D01*
G01*
G37*
G04 #@! TD.AperFunction*
G04 #@! TA.AperFunction,SMDPad,CuDef*
G36*
G01*
X42612500Y-41393750D02*
X42612500Y-41906250D01*
G75*
G02*
X42393750Y-42125000I-218750J0D01*
G01*
X41956250Y-42125000D01*
G75*
G02*
X41737500Y-41906250I0J218750D01*
G01*
X41737500Y-41393750D01*
G75*
G02*
X41956250Y-41175000I218750J0D01*
G01*
X42393750Y-41175000D01*
G75*
G02*
X42612500Y-41393750I0J-218750D01*
G01*
G37*
G04 #@! TD.AperFunction*
D15*
X121920000Y-34300000D03*
D16*
X123920000Y-34300000D03*
D17*
X132080000Y-83820000D03*
D18*
X129540000Y-83820000D03*
X127000000Y-83820000D03*
X124460000Y-83820000D03*
X121920000Y-83820000D03*
G04 #@! TA.AperFunction,SMDPad,CuDef*
G36*
G01*
X74290000Y-104120000D02*
X74630000Y-104120000D01*
G75*
G02*
X74770000Y-104260000I0J-140000D01*
G01*
X74770000Y-104540000D01*
G75*
G02*
X74630000Y-104680000I-140000J0D01*
G01*
X74290000Y-104680000D01*
G75*
G02*
X74150000Y-104540000I0J140000D01*
G01*
X74150000Y-104260000D01*
G75*
G02*
X74290000Y-104120000I140000J0D01*
G01*
G37*
G04 #@! TD.AperFunction*
G04 #@! TA.AperFunction,SMDPad,CuDef*
G36*
G01*
X74290000Y-105080000D02*
X74630000Y-105080000D01*
G75*
G02*
X74770000Y-105220000I0J-140000D01*
G01*
X74770000Y-105500000D01*
G75*
G02*
X74630000Y-105640000I-140000J0D01*
G01*
X74290000Y-105640000D01*
G75*
G02*
X74150000Y-105500000I0J140000D01*
G01*
X74150000Y-105220000D01*
G75*
G02*
X74290000Y-105080000I140000J0D01*
G01*
G37*
G04 #@! TD.AperFunction*
D17*
X162560000Y-106680000D03*
D18*
X160020000Y-106680000D03*
X157480000Y-106680000D03*
X154940000Y-106680000D03*
X152400000Y-106680000D03*
G04 #@! TA.AperFunction,SMDPad,CuDef*
G36*
G01*
X230580000Y-29685000D02*
X230580000Y-29315000D01*
G75*
G02*
X230715000Y-29180000I135000J0D01*
G01*
X230985000Y-29180000D01*
G75*
G02*
X231120000Y-29315000I0J-135000D01*
G01*
X231120000Y-29685000D01*
G75*
G02*
X230985000Y-29820000I-135000J0D01*
G01*
X230715000Y-29820000D01*
G75*
G02*
X230580000Y-29685000I0J135000D01*
G01*
G37*
G04 #@! TD.AperFunction*
G04 #@! TA.AperFunction,SMDPad,CuDef*
G36*
G01*
X231600000Y-29685000D02*
X231600000Y-29315000D01*
G75*
G02*
X231735000Y-29180000I135000J0D01*
G01*
X232005000Y-29180000D01*
G75*
G02*
X232140000Y-29315000I0J-135000D01*
G01*
X232140000Y-29685000D01*
G75*
G02*
X232005000Y-29820000I-135000J0D01*
G01*
X231735000Y-29820000D01*
G75*
G02*
X231600000Y-29685000I0J135000D01*
G01*
G37*
G04 #@! TD.AperFunction*
G04 #@! TA.AperFunction,SMDPad,CuDef*
G36*
G01*
X43720000Y-43215000D02*
X43720000Y-43585000D01*
G75*
G02*
X43585000Y-43720000I-135000J0D01*
G01*
X43315000Y-43720000D01*
G75*
G02*
X43180000Y-43585000I0J135000D01*
G01*
X43180000Y-43215000D01*
G75*
G02*
X43315000Y-43080000I135000J0D01*
G01*
X43585000Y-43080000D01*
G75*
G02*
X43720000Y-43215000I0J-135000D01*
G01*
G37*
G04 #@! TD.AperFunction*
G04 #@! TA.AperFunction,SMDPad,CuDef*
G36*
G01*
X42700000Y-43215000D02*
X42700000Y-43585000D01*
G75*
G02*
X42565000Y-43720000I-135000J0D01*
G01*
X42295000Y-43720000D01*
G75*
G02*
X42160000Y-43585000I0J135000D01*
G01*
X42160000Y-43215000D01*
G75*
G02*
X42295000Y-43080000I135000J0D01*
G01*
X42565000Y-43080000D01*
G75*
G02*
X42700000Y-43215000I0J-135000D01*
G01*
G37*
G04 #@! TD.AperFunction*
G04 #@! TA.AperFunction,SMDPad,CuDef*
G36*
G01*
X198710000Y-35540000D02*
X199050000Y-35540000D01*
G75*
G02*
X199190000Y-35680000I0J-140000D01*
G01*
X199190000Y-35960000D01*
G75*
G02*
X199050000Y-36100000I-140000J0D01*
G01*
X198710000Y-36100000D01*
G75*
G02*
X198570000Y-35960000I0J140000D01*
G01*
X198570000Y-35680000D01*
G75*
G02*
X198710000Y-35540000I140000J0D01*
G01*
G37*
G04 #@! TD.AperFunction*
G04 #@! TA.AperFunction,SMDPad,CuDef*
G36*
G01*
X198710000Y-36500000D02*
X199050000Y-36500000D01*
G75*
G02*
X199190000Y-36640000I0J-140000D01*
G01*
X199190000Y-36920000D01*
G75*
G02*
X199050000Y-37060000I-140000J0D01*
G01*
X198710000Y-37060000D01*
G75*
G02*
X198570000Y-36920000I0J140000D01*
G01*
X198570000Y-36640000D01*
G75*
G02*
X198710000Y-36500000I140000J0D01*
G01*
G37*
G04 #@! TD.AperFunction*
G04 #@! TA.AperFunction,SMDPad,CuDef*
G36*
G01*
X78180000Y-98265000D02*
X78180000Y-97895000D01*
G75*
G02*
X78315000Y-97760000I135000J0D01*
G01*
X78585000Y-97760000D01*
G75*
G02*
X78720000Y-97895000I0J-135000D01*
G01*
X78720000Y-98265000D01*
G75*
G02*
X78585000Y-98400000I-135000J0D01*
G01*
X78315000Y-98400000D01*
G75*
G02*
X78180000Y-98265000I0J135000D01*
G01*
G37*
G04 #@! TD.AperFunction*
G04 #@! TA.AperFunction,SMDPad,CuDef*
G36*
G01*
X79200000Y-98265000D02*
X79200000Y-97895000D01*
G75*
G02*
X79335000Y-97760000I135000J0D01*
G01*
X79605000Y-97760000D01*
G75*
G02*
X79740000Y-97895000I0J-135000D01*
G01*
X79740000Y-98265000D01*
G75*
G02*
X79605000Y-98400000I-135000J0D01*
G01*
X79335000Y-98400000D01*
G75*
G02*
X79200000Y-98265000I0J135000D01*
G01*
G37*
G04 #@! TD.AperFunction*
G04 #@! TA.AperFunction,SMDPad,CuDef*
G36*
G01*
X47830000Y-56101000D02*
X47830000Y-55151000D01*
G75*
G02*
X48080000Y-54901000I250000J0D01*
G01*
X48580000Y-54901000D01*
G75*
G02*
X48830000Y-55151000I0J-250000D01*
G01*
X48830000Y-56101000D01*
G75*
G02*
X48580000Y-56351000I-250000J0D01*
G01*
X48080000Y-56351000D01*
G75*
G02*
X47830000Y-56101000I0J250000D01*
G01*
G37*
G04 #@! TD.AperFunction*
G04 #@! TA.AperFunction,SMDPad,CuDef*
G36*
G01*
X49730000Y-56101000D02*
X49730000Y-55151000D01*
G75*
G02*
X49980000Y-54901000I250000J0D01*
G01*
X50480000Y-54901000D01*
G75*
G02*
X50730000Y-55151000I0J-250000D01*
G01*
X50730000Y-56101000D01*
G75*
G02*
X50480000Y-56351000I-250000J0D01*
G01*
X49980000Y-56351000D01*
G75*
G02*
X49730000Y-56101000I0J250000D01*
G01*
G37*
G04 #@! TD.AperFunction*
D17*
X193040000Y-83820000D03*
D18*
X190500000Y-83820000D03*
X187960000Y-83820000D03*
X185420000Y-83820000D03*
X182880000Y-83820000D03*
G04 #@! TA.AperFunction,SMDPad,CuDef*
G36*
G01*
X137750000Y-104120000D02*
X138090000Y-104120000D01*
G75*
G02*
X138230000Y-104260000I0J-140000D01*
G01*
X138230000Y-104540000D01*
G75*
G02*
X138090000Y-104680000I-140000J0D01*
G01*
X137750000Y-104680000D01*
G75*
G02*
X137610000Y-104540000I0J140000D01*
G01*
X137610000Y-104260000D01*
G75*
G02*
X137750000Y-104120000I140000J0D01*
G01*
G37*
G04 #@! TD.AperFunction*
G04 #@! TA.AperFunction,SMDPad,CuDef*
G36*
G01*
X137750000Y-105080000D02*
X138090000Y-105080000D01*
G75*
G02*
X138230000Y-105220000I0J-140000D01*
G01*
X138230000Y-105500000D01*
G75*
G02*
X138090000Y-105640000I-140000J0D01*
G01*
X137750000Y-105640000D01*
G75*
G02*
X137610000Y-105500000I0J140000D01*
G01*
X137610000Y-105220000D01*
G75*
G02*
X137750000Y-105080000I140000J0D01*
G01*
G37*
G04 #@! TD.AperFunction*
G04 #@! TA.AperFunction,SMDPad,CuDef*
G36*
G01*
X139520000Y-101055000D02*
X139520000Y-101255000D01*
G75*
G02*
X139420000Y-101355000I-100000J0D01*
G01*
X138145000Y-101355000D01*
G75*
G02*
X138045000Y-101255000I0J100000D01*
G01*
X138045000Y-101055000D01*
G75*
G02*
X138145000Y-100955000I100000J0D01*
G01*
X139420000Y-100955000D01*
G75*
G02*
X139520000Y-101055000I0J-100000D01*
G01*
G37*
G04 #@! TD.AperFunction*
G04 #@! TA.AperFunction,SMDPad,CuDef*
G36*
G01*
X139520000Y-100405000D02*
X139520000Y-100605000D01*
G75*
G02*
X139420000Y-100705000I-100000J0D01*
G01*
X138145000Y-100705000D01*
G75*
G02*
X138045000Y-100605000I0J100000D01*
G01*
X138045000Y-100405000D01*
G75*
G02*
X138145000Y-100305000I100000J0D01*
G01*
X139420000Y-100305000D01*
G75*
G02*
X139520000Y-100405000I0J-100000D01*
G01*
G37*
G04 #@! TD.AperFunction*
G04 #@! TA.AperFunction,SMDPad,CuDef*
G36*
G01*
X139520000Y-99755000D02*
X139520000Y-99955000D01*
G75*
G02*
X139420000Y-100055000I-100000J0D01*
G01*
X138145000Y-100055000D01*
G75*
G02*
X138045000Y-99955000I0J100000D01*
G01*
X138045000Y-99755000D01*
G75*
G02*
X138145000Y-99655000I100000J0D01*
G01*
X139420000Y-99655000D01*
G75*
G02*
X139520000Y-99755000I0J-100000D01*
G01*
G37*
G04 #@! TD.AperFunction*
G04 #@! TA.AperFunction,SMDPad,CuDef*
G36*
G01*
X139520000Y-99105000D02*
X139520000Y-99305000D01*
G75*
G02*
X139420000Y-99405000I-100000J0D01*
G01*
X138145000Y-99405000D01*
G75*
G02*
X138045000Y-99305000I0J100000D01*
G01*
X138045000Y-99105000D01*
G75*
G02*
X138145000Y-99005000I100000J0D01*
G01*
X139420000Y-99005000D01*
G75*
G02*
X139520000Y-99105000I0J-100000D01*
G01*
G37*
G04 #@! TD.AperFunction*
G04 #@! TA.AperFunction,SMDPad,CuDef*
G36*
G01*
X133795000Y-99105000D02*
X133795000Y-99305000D01*
G75*
G02*
X133695000Y-99405000I-100000J0D01*
G01*
X132420000Y-99405000D01*
G75*
G02*
X132320000Y-99305000I0J100000D01*
G01*
X132320000Y-99105000D01*
G75*
G02*
X132420000Y-99005000I100000J0D01*
G01*
X133695000Y-99005000D01*
G75*
G02*
X133795000Y-99105000I0J-100000D01*
G01*
G37*
G04 #@! TD.AperFunction*
G04 #@! TA.AperFunction,SMDPad,CuDef*
G36*
G01*
X133795000Y-99755000D02*
X133795000Y-99955000D01*
G75*
G02*
X133695000Y-100055000I-100000J0D01*
G01*
X132420000Y-100055000D01*
G75*
G02*
X132320000Y-99955000I0J100000D01*
G01*
X132320000Y-99755000D01*
G75*
G02*
X132420000Y-99655000I100000J0D01*
G01*
X133695000Y-99655000D01*
G75*
G02*
X133795000Y-99755000I0J-100000D01*
G01*
G37*
G04 #@! TD.AperFunction*
G04 #@! TA.AperFunction,SMDPad,CuDef*
G36*
G01*
X133795000Y-100405000D02*
X133795000Y-100605000D01*
G75*
G02*
X133695000Y-100705000I-100000J0D01*
G01*
X132420000Y-100705000D01*
G75*
G02*
X132320000Y-100605000I0J100000D01*
G01*
X132320000Y-100405000D01*
G75*
G02*
X132420000Y-100305000I100000J0D01*
G01*
X133695000Y-100305000D01*
G75*
G02*
X133795000Y-100405000I0J-100000D01*
G01*
G37*
G04 #@! TD.AperFunction*
G04 #@! TA.AperFunction,SMDPad,CuDef*
G36*
G01*
X133795000Y-101055000D02*
X133795000Y-101255000D01*
G75*
G02*
X133695000Y-101355000I-100000J0D01*
G01*
X132420000Y-101355000D01*
G75*
G02*
X132320000Y-101255000I0J100000D01*
G01*
X132320000Y-101055000D01*
G75*
G02*
X132420000Y-100955000I100000J0D01*
G01*
X133695000Y-100955000D01*
G75*
G02*
X133795000Y-101055000I0J-100000D01*
G01*
G37*
G04 #@! TD.AperFunction*
G04 #@! TA.AperFunction,SMDPad,CuDef*
G36*
G01*
X240455000Y-52970000D02*
X240455000Y-52670000D01*
G75*
G02*
X240605000Y-52520000I150000J0D01*
G01*
X242255000Y-52520000D01*
G75*
G02*
X242405000Y-52670000I0J-150000D01*
G01*
X242405000Y-52970000D01*
G75*
G02*
X242255000Y-53120000I-150000J0D01*
G01*
X240605000Y-53120000D01*
G75*
G02*
X240455000Y-52970000I0J150000D01*
G01*
G37*
G04 #@! TD.AperFunction*
G04 #@! TA.AperFunction,SMDPad,CuDef*
G36*
G01*
X240455000Y-54240000D02*
X240455000Y-53940000D01*
G75*
G02*
X240605000Y-53790000I150000J0D01*
G01*
X242255000Y-53790000D01*
G75*
G02*
X242405000Y-53940000I0J-150000D01*
G01*
X242405000Y-54240000D01*
G75*
G02*
X242255000Y-54390000I-150000J0D01*
G01*
X240605000Y-54390000D01*
G75*
G02*
X240455000Y-54240000I0J150000D01*
G01*
G37*
G04 #@! TD.AperFunction*
G04 #@! TA.AperFunction,SMDPad,CuDef*
G36*
G01*
X240455000Y-55510000D02*
X240455000Y-55210000D01*
G75*
G02*
X240605000Y-55060000I150000J0D01*
G01*
X242255000Y-55060000D01*
G75*
G02*
X242405000Y-55210000I0J-150000D01*
G01*
X242405000Y-55510000D01*
G75*
G02*
X242255000Y-55660000I-150000J0D01*
G01*
X240605000Y-55660000D01*
G75*
G02*
X240455000Y-55510000I0J150000D01*
G01*
G37*
G04 #@! TD.AperFunction*
G04 #@! TA.AperFunction,SMDPad,CuDef*
G36*
G01*
X240455000Y-56780000D02*
X240455000Y-56480000D01*
G75*
G02*
X240605000Y-56330000I150000J0D01*
G01*
X242255000Y-56330000D01*
G75*
G02*
X242405000Y-56480000I0J-150000D01*
G01*
X242405000Y-56780000D01*
G75*
G02*
X242255000Y-56930000I-150000J0D01*
G01*
X240605000Y-56930000D01*
G75*
G02*
X240455000Y-56780000I0J150000D01*
G01*
G37*
G04 #@! TD.AperFunction*
G04 #@! TA.AperFunction,SMDPad,CuDef*
G36*
G01*
X245405000Y-56780000D02*
X245405000Y-56480000D01*
G75*
G02*
X245555000Y-56330000I150000J0D01*
G01*
X247205000Y-56330000D01*
G75*
G02*
X247355000Y-56480000I0J-150000D01*
G01*
X247355000Y-56780000D01*
G75*
G02*
X247205000Y-56930000I-150000J0D01*
G01*
X245555000Y-56930000D01*
G75*
G02*
X245405000Y-56780000I0J150000D01*
G01*
G37*
G04 #@! TD.AperFunction*
G04 #@! TA.AperFunction,SMDPad,CuDef*
G36*
G01*
X245405000Y-55510000D02*
X245405000Y-55210000D01*
G75*
G02*
X245555000Y-55060000I150000J0D01*
G01*
X247205000Y-55060000D01*
G75*
G02*
X247355000Y-55210000I0J-150000D01*
G01*
X247355000Y-55510000D01*
G75*
G02*
X247205000Y-55660000I-150000J0D01*
G01*
X245555000Y-55660000D01*
G75*
G02*
X245405000Y-55510000I0J150000D01*
G01*
G37*
G04 #@! TD.AperFunction*
G04 #@! TA.AperFunction,SMDPad,CuDef*
G36*
G01*
X245405000Y-54240000D02*
X245405000Y-53940000D01*
G75*
G02*
X245555000Y-53790000I150000J0D01*
G01*
X247205000Y-53790000D01*
G75*
G02*
X247355000Y-53940000I0J-150000D01*
G01*
X247355000Y-54240000D01*
G75*
G02*
X247205000Y-54390000I-150000J0D01*
G01*
X245555000Y-54390000D01*
G75*
G02*
X245405000Y-54240000I0J150000D01*
G01*
G37*
G04 #@! TD.AperFunction*
G04 #@! TA.AperFunction,SMDPad,CuDef*
G36*
G01*
X245405000Y-52970000D02*
X245405000Y-52670000D01*
G75*
G02*
X245555000Y-52520000I150000J0D01*
G01*
X247205000Y-52520000D01*
G75*
G02*
X247355000Y-52670000I0J-150000D01*
G01*
X247355000Y-52970000D01*
G75*
G02*
X247205000Y-53120000I-150000J0D01*
G01*
X245555000Y-53120000D01*
G75*
G02*
X245405000Y-52970000I0J150000D01*
G01*
G37*
G04 #@! TD.AperFunction*
D19*
X243905000Y-54725000D03*
D15*
X60840000Y-34200000D03*
D16*
X62840000Y-34200000D03*
G04 #@! TA.AperFunction,SMDPad,CuDef*
G36*
G01*
X249154000Y-50604000D02*
X249154000Y-50234000D01*
G75*
G02*
X249289000Y-50099000I135000J0D01*
G01*
X249559000Y-50099000D01*
G75*
G02*
X249694000Y-50234000I0J-135000D01*
G01*
X249694000Y-50604000D01*
G75*
G02*
X249559000Y-50739000I-135000J0D01*
G01*
X249289000Y-50739000D01*
G75*
G02*
X249154000Y-50604000I0J135000D01*
G01*
G37*
G04 #@! TD.AperFunction*
G04 #@! TA.AperFunction,SMDPad,CuDef*
G36*
G01*
X250174000Y-50604000D02*
X250174000Y-50234000D01*
G75*
G02*
X250309000Y-50099000I135000J0D01*
G01*
X250579000Y-50099000D01*
G75*
G02*
X250714000Y-50234000I0J-135000D01*
G01*
X250714000Y-50604000D01*
G75*
G02*
X250579000Y-50739000I-135000J0D01*
G01*
X250309000Y-50739000D01*
G75*
G02*
X250174000Y-50604000I0J135000D01*
G01*
G37*
G04 #@! TD.AperFunction*
G04 #@! TA.AperFunction,SMDPad,CuDef*
G36*
G01*
X52760000Y-39630000D02*
X52760000Y-39970000D01*
G75*
G02*
X52620000Y-40110000I-140000J0D01*
G01*
X52340000Y-40110000D01*
G75*
G02*
X52200000Y-39970000I0J140000D01*
G01*
X52200000Y-39630000D01*
G75*
G02*
X52340000Y-39490000I140000J0D01*
G01*
X52620000Y-39490000D01*
G75*
G02*
X52760000Y-39630000I0J-140000D01*
G01*
G37*
G04 #@! TD.AperFunction*
G04 #@! TA.AperFunction,SMDPad,CuDef*
G36*
G01*
X51800000Y-39630000D02*
X51800000Y-39970000D01*
G75*
G02*
X51660000Y-40110000I-140000J0D01*
G01*
X51380000Y-40110000D01*
G75*
G02*
X51240000Y-39970000I0J140000D01*
G01*
X51240000Y-39630000D01*
G75*
G02*
X51380000Y-39490000I140000J0D01*
G01*
X51660000Y-39490000D01*
G75*
G02*
X51800000Y-39630000I0J-140000D01*
G01*
G37*
G04 #@! TD.AperFunction*
D17*
X162560000Y-38100000D03*
D18*
X160020000Y-38100000D03*
X157480000Y-38100000D03*
X154940000Y-38100000D03*
X152400000Y-38100000D03*
G04 #@! TA.AperFunction,SMDPad,CuDef*
G36*
G01*
X248470000Y-96780000D02*
X248100000Y-96780000D01*
G75*
G02*
X247965000Y-96645000I0J135000D01*
G01*
X247965000Y-96375000D01*
G75*
G02*
X248100000Y-96240000I135000J0D01*
G01*
X248470000Y-96240000D01*
G75*
G02*
X248605000Y-96375000I0J-135000D01*
G01*
X248605000Y-96645000D01*
G75*
G02*
X248470000Y-96780000I-135000J0D01*
G01*
G37*
G04 #@! TD.AperFunction*
G04 #@! TA.AperFunction,SMDPad,CuDef*
G36*
G01*
X248470000Y-95760000D02*
X248100000Y-95760000D01*
G75*
G02*
X247965000Y-95625000I0J135000D01*
G01*
X247965000Y-95355000D01*
G75*
G02*
X248100000Y-95220000I135000J0D01*
G01*
X248470000Y-95220000D01*
G75*
G02*
X248605000Y-95355000I0J-135000D01*
G01*
X248605000Y-95625000D01*
G75*
G02*
X248470000Y-95760000I-135000J0D01*
G01*
G37*
G04 #@! TD.AperFunction*
G04 #@! TA.AperFunction,SMDPad,CuDef*
G36*
G01*
X165730000Y-35540000D02*
X166070000Y-35540000D01*
G75*
G02*
X166210000Y-35680000I0J-140000D01*
G01*
X166210000Y-35960000D01*
G75*
G02*
X166070000Y-36100000I-140000J0D01*
G01*
X165730000Y-36100000D01*
G75*
G02*
X165590000Y-35960000I0J140000D01*
G01*
X165590000Y-35680000D01*
G75*
G02*
X165730000Y-35540000I140000J0D01*
G01*
G37*
G04 #@! TD.AperFunction*
G04 #@! TA.AperFunction,SMDPad,CuDef*
G36*
G01*
X165730000Y-36500000D02*
X166070000Y-36500000D01*
G75*
G02*
X166210000Y-36640000I0J-140000D01*
G01*
X166210000Y-36920000D01*
G75*
G02*
X166070000Y-37060000I-140000J0D01*
G01*
X165730000Y-37060000D01*
G75*
G02*
X165590000Y-36920000I0J140000D01*
G01*
X165590000Y-36640000D01*
G75*
G02*
X165730000Y-36500000I140000J0D01*
G01*
G37*
G04 #@! TD.AperFunction*
D17*
X71120000Y-83820000D03*
D18*
X68580000Y-83820000D03*
X66040000Y-83820000D03*
X63500000Y-83820000D03*
X60960000Y-83820000D03*
D17*
X71000000Y-38000000D03*
D18*
X68460000Y-38000000D03*
X65920000Y-38000000D03*
X63380000Y-38000000D03*
X60840000Y-38000000D03*
G04 #@! TA.AperFunction,SMDPad,CuDef*
G36*
G01*
X39555000Y-35707000D02*
X39185000Y-35707000D01*
G75*
G02*
X39050000Y-35572000I0J135000D01*
G01*
X39050000Y-35302000D01*
G75*
G02*
X39185000Y-35167000I135000J0D01*
G01*
X39555000Y-35167000D01*
G75*
G02*
X39690000Y-35302000I0J-135000D01*
G01*
X39690000Y-35572000D01*
G75*
G02*
X39555000Y-35707000I-135000J0D01*
G01*
G37*
G04 #@! TD.AperFunction*
G04 #@! TA.AperFunction,SMDPad,CuDef*
G36*
G01*
X39555000Y-34687000D02*
X39185000Y-34687000D01*
G75*
G02*
X39050000Y-34552000I0J135000D01*
G01*
X39050000Y-34282000D01*
G75*
G02*
X39185000Y-34147000I135000J0D01*
G01*
X39555000Y-34147000D01*
G75*
G02*
X39690000Y-34282000I0J-135000D01*
G01*
X39690000Y-34552000D01*
G75*
G02*
X39555000Y-34687000I-135000J0D01*
G01*
G37*
G04 #@! TD.AperFunction*
G04 #@! TA.AperFunction,SMDPad,CuDef*
G36*
G01*
X78060000Y-29585000D02*
X78060000Y-29215000D01*
G75*
G02*
X78195000Y-29080000I135000J0D01*
G01*
X78465000Y-29080000D01*
G75*
G02*
X78600000Y-29215000I0J-135000D01*
G01*
X78600000Y-29585000D01*
G75*
G02*
X78465000Y-29720000I-135000J0D01*
G01*
X78195000Y-29720000D01*
G75*
G02*
X78060000Y-29585000I0J135000D01*
G01*
G37*
G04 #@! TD.AperFunction*
G04 #@! TA.AperFunction,SMDPad,CuDef*
G36*
G01*
X79080000Y-29585000D02*
X79080000Y-29215000D01*
G75*
G02*
X79215000Y-29080000I135000J0D01*
G01*
X79485000Y-29080000D01*
G75*
G02*
X79620000Y-29215000I0J-135000D01*
G01*
X79620000Y-29585000D01*
G75*
G02*
X79485000Y-29720000I-135000J0D01*
G01*
X79215000Y-29720000D01*
G75*
G02*
X79080000Y-29585000I0J135000D01*
G01*
G37*
G04 #@! TD.AperFunction*
G04 #@! TA.AperFunction,SMDPad,CuDef*
G36*
G01*
X109040000Y-32475000D02*
X109040000Y-32675000D01*
G75*
G02*
X108940000Y-32775000I-100000J0D01*
G01*
X107665000Y-32775000D01*
G75*
G02*
X107565000Y-32675000I0J100000D01*
G01*
X107565000Y-32475000D01*
G75*
G02*
X107665000Y-32375000I100000J0D01*
G01*
X108940000Y-32375000D01*
G75*
G02*
X109040000Y-32475000I0J-100000D01*
G01*
G37*
G04 #@! TD.AperFunction*
G04 #@! TA.AperFunction,SMDPad,CuDef*
G36*
G01*
X109040000Y-31825000D02*
X109040000Y-32025000D01*
G75*
G02*
X108940000Y-32125000I-100000J0D01*
G01*
X107665000Y-32125000D01*
G75*
G02*
X107565000Y-32025000I0J100000D01*
G01*
X107565000Y-31825000D01*
G75*
G02*
X107665000Y-31725000I100000J0D01*
G01*
X108940000Y-31725000D01*
G75*
G02*
X109040000Y-31825000I0J-100000D01*
G01*
G37*
G04 #@! TD.AperFunction*
G04 #@! TA.AperFunction,SMDPad,CuDef*
G36*
G01*
X109040000Y-31175000D02*
X109040000Y-31375000D01*
G75*
G02*
X108940000Y-31475000I-100000J0D01*
G01*
X107665000Y-31475000D01*
G75*
G02*
X107565000Y-31375000I0J100000D01*
G01*
X107565000Y-31175000D01*
G75*
G02*
X107665000Y-31075000I100000J0D01*
G01*
X108940000Y-31075000D01*
G75*
G02*
X109040000Y-31175000I0J-100000D01*
G01*
G37*
G04 #@! TD.AperFunction*
G04 #@! TA.AperFunction,SMDPad,CuDef*
G36*
G01*
X109040000Y-30525000D02*
X109040000Y-30725000D01*
G75*
G02*
X108940000Y-30825000I-100000J0D01*
G01*
X107665000Y-30825000D01*
G75*
G02*
X107565000Y-30725000I0J100000D01*
G01*
X107565000Y-30525000D01*
G75*
G02*
X107665000Y-30425000I100000J0D01*
G01*
X108940000Y-30425000D01*
G75*
G02*
X109040000Y-30525000I0J-100000D01*
G01*
G37*
G04 #@! TD.AperFunction*
G04 #@! TA.AperFunction,SMDPad,CuDef*
G36*
G01*
X103315000Y-30525000D02*
X103315000Y-30725000D01*
G75*
G02*
X103215000Y-30825000I-100000J0D01*
G01*
X101940000Y-30825000D01*
G75*
G02*
X101840000Y-30725000I0J100000D01*
G01*
X101840000Y-30525000D01*
G75*
G02*
X101940000Y-30425000I100000J0D01*
G01*
X103215000Y-30425000D01*
G75*
G02*
X103315000Y-30525000I0J-100000D01*
G01*
G37*
G04 #@! TD.AperFunction*
G04 #@! TA.AperFunction,SMDPad,CuDef*
G36*
G01*
X103315000Y-31175000D02*
X103315000Y-31375000D01*
G75*
G02*
X103215000Y-31475000I-100000J0D01*
G01*
X101940000Y-31475000D01*
G75*
G02*
X101840000Y-31375000I0J100000D01*
G01*
X101840000Y-31175000D01*
G75*
G02*
X101940000Y-31075000I100000J0D01*
G01*
X103215000Y-31075000D01*
G75*
G02*
X103315000Y-31175000I0J-100000D01*
G01*
G37*
G04 #@! TD.AperFunction*
G04 #@! TA.AperFunction,SMDPad,CuDef*
G36*
G01*
X103315000Y-31825000D02*
X103315000Y-32025000D01*
G75*
G02*
X103215000Y-32125000I-100000J0D01*
G01*
X101940000Y-32125000D01*
G75*
G02*
X101840000Y-32025000I0J100000D01*
G01*
X101840000Y-31825000D01*
G75*
G02*
X101940000Y-31725000I100000J0D01*
G01*
X103215000Y-31725000D01*
G75*
G02*
X103315000Y-31825000I0J-100000D01*
G01*
G37*
G04 #@! TD.AperFunction*
G04 #@! TA.AperFunction,SMDPad,CuDef*
G36*
G01*
X103315000Y-32475000D02*
X103315000Y-32675000D01*
G75*
G02*
X103215000Y-32775000I-100000J0D01*
G01*
X101940000Y-32775000D01*
G75*
G02*
X101840000Y-32675000I0J100000D01*
G01*
X101840000Y-32475000D01*
G75*
G02*
X101940000Y-32375000I100000J0D01*
G01*
X103215000Y-32375000D01*
G75*
G02*
X103315000Y-32475000I0J-100000D01*
G01*
G37*
G04 #@! TD.AperFunction*
D17*
X162560000Y-83820000D03*
D18*
X160020000Y-83820000D03*
X157480000Y-83820000D03*
X154940000Y-83820000D03*
X152400000Y-83820000D03*
D15*
X182880000Y-102880000D03*
D16*
X184880000Y-102880000D03*
G04 #@! TA.AperFunction,SMDPad,CuDef*
G36*
G01*
X231437500Y-117490000D02*
X231437500Y-116190000D01*
G75*
G02*
X231687500Y-115940000I250000J0D01*
G01*
X232337500Y-115940000D01*
G75*
G02*
X232587500Y-116190000I0J-250000D01*
G01*
X232587500Y-117490000D01*
G75*
G02*
X232337500Y-117740000I-250000J0D01*
G01*
X231687500Y-117740000D01*
G75*
G02*
X231437500Y-117490000I0J250000D01*
G01*
G37*
G04 #@! TD.AperFunction*
G04 #@! TA.AperFunction,SMDPad,CuDef*
G36*
G01*
X234387500Y-117490000D02*
X234387500Y-116190000D01*
G75*
G02*
X234637500Y-115940000I250000J0D01*
G01*
X235287500Y-115940000D01*
G75*
G02*
X235537500Y-116190000I0J-250000D01*
G01*
X235537500Y-117490000D01*
G75*
G02*
X235287500Y-117740000I-250000J0D01*
G01*
X234637500Y-117740000D01*
G75*
G02*
X234387500Y-117490000I0J250000D01*
G01*
G37*
G04 #@! TD.AperFunction*
D15*
X213360000Y-34300000D03*
D16*
X215360000Y-34300000D03*
G04 #@! TA.AperFunction,SMDPad,CuDef*
G36*
G01*
X137750000Y-35540000D02*
X138090000Y-35540000D01*
G75*
G02*
X138230000Y-35680000I0J-140000D01*
G01*
X138230000Y-35960000D01*
G75*
G02*
X138090000Y-36100000I-140000J0D01*
G01*
X137750000Y-36100000D01*
G75*
G02*
X137610000Y-35960000I0J140000D01*
G01*
X137610000Y-35680000D01*
G75*
G02*
X137750000Y-35540000I140000J0D01*
G01*
G37*
G04 #@! TD.AperFunction*
G04 #@! TA.AperFunction,SMDPad,CuDef*
G36*
G01*
X137750000Y-36500000D02*
X138090000Y-36500000D01*
G75*
G02*
X138230000Y-36640000I0J-140000D01*
G01*
X138230000Y-36920000D01*
G75*
G02*
X138090000Y-37060000I-140000J0D01*
G01*
X137750000Y-37060000D01*
G75*
G02*
X137610000Y-36920000I0J140000D01*
G01*
X137610000Y-36640000D01*
G75*
G02*
X137750000Y-36500000I140000J0D01*
G01*
G37*
G04 #@! TD.AperFunction*
G04 #@! TA.AperFunction,SMDPad,CuDef*
G36*
G01*
X46823000Y-66378000D02*
X46823000Y-66718000D01*
G75*
G02*
X46683000Y-66858000I-140000J0D01*
G01*
X46403000Y-66858000D01*
G75*
G02*
X46263000Y-66718000I0J140000D01*
G01*
X46263000Y-66378000D01*
G75*
G02*
X46403000Y-66238000I140000J0D01*
G01*
X46683000Y-66238000D01*
G75*
G02*
X46823000Y-66378000I0J-140000D01*
G01*
G37*
G04 #@! TD.AperFunction*
G04 #@! TA.AperFunction,SMDPad,CuDef*
G36*
G01*
X45863000Y-66378000D02*
X45863000Y-66718000D01*
G75*
G02*
X45723000Y-66858000I-140000J0D01*
G01*
X45443000Y-66858000D01*
G75*
G02*
X45303000Y-66718000I0J140000D01*
G01*
X45303000Y-66378000D01*
G75*
G02*
X45443000Y-66238000I140000J0D01*
G01*
X45723000Y-66238000D01*
G75*
G02*
X45863000Y-66378000I0J-140000D01*
G01*
G37*
G04 #@! TD.AperFunction*
D15*
X121920000Y-102880000D03*
D16*
X123920000Y-102880000D03*
D25*
X238760000Y-76200000D03*
D26*
X241300000Y-76200000D03*
X243840000Y-76200000D03*
X246380000Y-76200000D03*
X248920000Y-76200000D03*
G04 #@! TA.AperFunction,SMDPad,CuDef*
G36*
G01*
X239690000Y-85990000D02*
X239690000Y-85690000D01*
G75*
G02*
X239840000Y-85540000I150000J0D01*
G01*
X241490000Y-85540000D01*
G75*
G02*
X241640000Y-85690000I0J-150000D01*
G01*
X241640000Y-85990000D01*
G75*
G02*
X241490000Y-86140000I-150000J0D01*
G01*
X239840000Y-86140000D01*
G75*
G02*
X239690000Y-85990000I0J150000D01*
G01*
G37*
G04 #@! TD.AperFunction*
G04 #@! TA.AperFunction,SMDPad,CuDef*
G36*
G01*
X239690000Y-87260000D02*
X239690000Y-86960000D01*
G75*
G02*
X239840000Y-86810000I150000J0D01*
G01*
X241490000Y-86810000D01*
G75*
G02*
X241640000Y-86960000I0J-150000D01*
G01*
X241640000Y-87260000D01*
G75*
G02*
X241490000Y-87410000I-150000J0D01*
G01*
X239840000Y-87410000D01*
G75*
G02*
X239690000Y-87260000I0J150000D01*
G01*
G37*
G04 #@! TD.AperFunction*
G04 #@! TA.AperFunction,SMDPad,CuDef*
G36*
G01*
X239690000Y-88530000D02*
X239690000Y-88230000D01*
G75*
G02*
X239840000Y-88080000I150000J0D01*
G01*
X241490000Y-88080000D01*
G75*
G02*
X241640000Y-88230000I0J-150000D01*
G01*
X241640000Y-88530000D01*
G75*
G02*
X241490000Y-88680000I-150000J0D01*
G01*
X239840000Y-88680000D01*
G75*
G02*
X239690000Y-88530000I0J150000D01*
G01*
G37*
G04 #@! TD.AperFunction*
G04 #@! TA.AperFunction,SMDPad,CuDef*
G36*
G01*
X239690000Y-89800000D02*
X239690000Y-89500000D01*
G75*
G02*
X239840000Y-89350000I150000J0D01*
G01*
X241490000Y-89350000D01*
G75*
G02*
X241640000Y-89500000I0J-150000D01*
G01*
X241640000Y-89800000D01*
G75*
G02*
X241490000Y-89950000I-150000J0D01*
G01*
X239840000Y-89950000D01*
G75*
G02*
X239690000Y-89800000I0J150000D01*
G01*
G37*
G04 #@! TD.AperFunction*
G04 #@! TA.AperFunction,SMDPad,CuDef*
G36*
G01*
X244640000Y-89800000D02*
X244640000Y-89500000D01*
G75*
G02*
X244790000Y-89350000I150000J0D01*
G01*
X246440000Y-89350000D01*
G75*
G02*
X246590000Y-89500000I0J-150000D01*
G01*
X246590000Y-89800000D01*
G75*
G02*
X246440000Y-89950000I-150000J0D01*
G01*
X244790000Y-89950000D01*
G75*
G02*
X244640000Y-89800000I0J150000D01*
G01*
G37*
G04 #@! TD.AperFunction*
G04 #@! TA.AperFunction,SMDPad,CuDef*
G36*
G01*
X244640000Y-88530000D02*
X244640000Y-88230000D01*
G75*
G02*
X244790000Y-88080000I150000J0D01*
G01*
X246440000Y-88080000D01*
G75*
G02*
X246590000Y-88230000I0J-150000D01*
G01*
X246590000Y-88530000D01*
G75*
G02*
X246440000Y-88680000I-150000J0D01*
G01*
X244790000Y-88680000D01*
G75*
G02*
X244640000Y-88530000I0J150000D01*
G01*
G37*
G04 #@! TD.AperFunction*
G04 #@! TA.AperFunction,SMDPad,CuDef*
G36*
G01*
X244640000Y-87260000D02*
X244640000Y-86960000D01*
G75*
G02*
X244790000Y-86810000I150000J0D01*
G01*
X246440000Y-86810000D01*
G75*
G02*
X246590000Y-86960000I0J-150000D01*
G01*
X246590000Y-87260000D01*
G75*
G02*
X246440000Y-87410000I-150000J0D01*
G01*
X244790000Y-87410000D01*
G75*
G02*
X244640000Y-87260000I0J150000D01*
G01*
G37*
G04 #@! TD.AperFunction*
G04 #@! TA.AperFunction,SMDPad,CuDef*
G36*
G01*
X244640000Y-85990000D02*
X244640000Y-85690000D01*
G75*
G02*
X244790000Y-85540000I150000J0D01*
G01*
X246440000Y-85540000D01*
G75*
G02*
X246590000Y-85690000I0J-150000D01*
G01*
X246590000Y-85990000D01*
G75*
G02*
X246440000Y-86140000I-150000J0D01*
G01*
X244790000Y-86140000D01*
G75*
G02*
X244640000Y-85990000I0J150000D01*
G01*
G37*
G04 #@! TD.AperFunction*
D19*
X243140000Y-87745000D03*
G04 #@! TA.AperFunction,SMDPad,CuDef*
G36*
G01*
X231425000Y-139080000D02*
X231425000Y-137780000D01*
G75*
G02*
X231675000Y-137530000I250000J0D01*
G01*
X232325000Y-137530000D01*
G75*
G02*
X232575000Y-137780000I0J-250000D01*
G01*
X232575000Y-139080000D01*
G75*
G02*
X232325000Y-139330000I-250000J0D01*
G01*
X231675000Y-139330000D01*
G75*
G02*
X231425000Y-139080000I0J250000D01*
G01*
G37*
G04 #@! TD.AperFunction*
G04 #@! TA.AperFunction,SMDPad,CuDef*
G36*
G01*
X234375000Y-139080000D02*
X234375000Y-137780000D01*
G75*
G02*
X234625000Y-137530000I250000J0D01*
G01*
X235275000Y-137530000D01*
G75*
G02*
X235525000Y-137780000I0J-250000D01*
G01*
X235525000Y-139080000D01*
G75*
G02*
X235275000Y-139330000I-250000J0D01*
G01*
X234625000Y-139330000D01*
G75*
G02*
X234375000Y-139080000I0J250000D01*
G01*
G37*
G04 #@! TD.AperFunction*
G04 #@! TA.AperFunction,SMDPad,CuDef*
G36*
G01*
X45718000Y-58250000D02*
X45718000Y-58590000D01*
G75*
G02*
X45578000Y-58730000I-140000J0D01*
G01*
X45298000Y-58730000D01*
G75*
G02*
X45158000Y-58590000I0J140000D01*
G01*
X45158000Y-58250000D01*
G75*
G02*
X45298000Y-58110000I140000J0D01*
G01*
X45578000Y-58110000D01*
G75*
G02*
X45718000Y-58250000I0J-140000D01*
G01*
G37*
G04 #@! TD.AperFunction*
G04 #@! TA.AperFunction,SMDPad,CuDef*
G36*
G01*
X44758000Y-58250000D02*
X44758000Y-58590000D01*
G75*
G02*
X44618000Y-58730000I-140000J0D01*
G01*
X44338000Y-58730000D01*
G75*
G02*
X44198000Y-58590000I0J140000D01*
G01*
X44198000Y-58250000D01*
G75*
G02*
X44338000Y-58110000I140000J0D01*
G01*
X44618000Y-58110000D01*
G75*
G02*
X44758000Y-58250000I0J-140000D01*
G01*
G37*
G04 #@! TD.AperFunction*
G04 #@! TA.AperFunction,SMDPad,CuDef*
G36*
G01*
X46104000Y-70592000D02*
X46474000Y-70592000D01*
G75*
G02*
X46609000Y-70727000I0J-135000D01*
G01*
X46609000Y-70997000D01*
G75*
G02*
X46474000Y-71132000I-135000J0D01*
G01*
X46104000Y-71132000D01*
G75*
G02*
X45969000Y-70997000I0J135000D01*
G01*
X45969000Y-70727000D01*
G75*
G02*
X46104000Y-70592000I135000J0D01*
G01*
G37*
G04 #@! TD.AperFunction*
G04 #@! TA.AperFunction,SMDPad,CuDef*
G36*
G01*
X46104000Y-71612000D02*
X46474000Y-71612000D01*
G75*
G02*
X46609000Y-71747000I0J-135000D01*
G01*
X46609000Y-72017000D01*
G75*
G02*
X46474000Y-72152000I-135000J0D01*
G01*
X46104000Y-72152000D01*
G75*
G02*
X45969000Y-72017000I0J135000D01*
G01*
X45969000Y-71747000D01*
G75*
G02*
X46104000Y-71612000I135000J0D01*
G01*
G37*
G04 #@! TD.AperFunction*
G04 #@! TA.AperFunction,SMDPad,CuDef*
G36*
G01*
X107270000Y-104120000D02*
X107610000Y-104120000D01*
G75*
G02*
X107750000Y-104260000I0J-140000D01*
G01*
X107750000Y-104540000D01*
G75*
G02*
X107610000Y-104680000I-140000J0D01*
G01*
X107270000Y-104680000D01*
G75*
G02*
X107130000Y-104540000I0J140000D01*
G01*
X107130000Y-104260000D01*
G75*
G02*
X107270000Y-104120000I140000J0D01*
G01*
G37*
G04 #@! TD.AperFunction*
G04 #@! TA.AperFunction,SMDPad,CuDef*
G36*
G01*
X107270000Y-105080000D02*
X107610000Y-105080000D01*
G75*
G02*
X107750000Y-105220000I0J-140000D01*
G01*
X107750000Y-105500000D01*
G75*
G02*
X107610000Y-105640000I-140000J0D01*
G01*
X107270000Y-105640000D01*
G75*
G02*
X107130000Y-105500000I0J140000D01*
G01*
X107130000Y-105220000D01*
G75*
G02*
X107270000Y-105080000I140000J0D01*
G01*
G37*
G04 #@! TD.AperFunction*
G04 #@! TA.AperFunction,SMDPad,CuDef*
G36*
G01*
X78440000Y-32375000D02*
X78440000Y-32575000D01*
G75*
G02*
X78340000Y-32675000I-100000J0D01*
G01*
X77065000Y-32675000D01*
G75*
G02*
X76965000Y-32575000I0J100000D01*
G01*
X76965000Y-32375000D01*
G75*
G02*
X77065000Y-32275000I100000J0D01*
G01*
X78340000Y-32275000D01*
G75*
G02*
X78440000Y-32375000I0J-100000D01*
G01*
G37*
G04 #@! TD.AperFunction*
G04 #@! TA.AperFunction,SMDPad,CuDef*
G36*
G01*
X78440000Y-31725000D02*
X78440000Y-31925000D01*
G75*
G02*
X78340000Y-32025000I-100000J0D01*
G01*
X77065000Y-32025000D01*
G75*
G02*
X76965000Y-31925000I0J100000D01*
G01*
X76965000Y-31725000D01*
G75*
G02*
X77065000Y-31625000I100000J0D01*
G01*
X78340000Y-31625000D01*
G75*
G02*
X78440000Y-31725000I0J-100000D01*
G01*
G37*
G04 #@! TD.AperFunction*
G04 #@! TA.AperFunction,SMDPad,CuDef*
G36*
G01*
X78440000Y-31075000D02*
X78440000Y-31275000D01*
G75*
G02*
X78340000Y-31375000I-100000J0D01*
G01*
X77065000Y-31375000D01*
G75*
G02*
X76965000Y-31275000I0J100000D01*
G01*
X76965000Y-31075000D01*
G75*
G02*
X77065000Y-30975000I100000J0D01*
G01*
X78340000Y-30975000D01*
G75*
G02*
X78440000Y-31075000I0J-100000D01*
G01*
G37*
G04 #@! TD.AperFunction*
G04 #@! TA.AperFunction,SMDPad,CuDef*
G36*
G01*
X78440000Y-30425000D02*
X78440000Y-30625000D01*
G75*
G02*
X78340000Y-30725000I-100000J0D01*
G01*
X77065000Y-30725000D01*
G75*
G02*
X76965000Y-30625000I0J100000D01*
G01*
X76965000Y-30425000D01*
G75*
G02*
X77065000Y-30325000I100000J0D01*
G01*
X78340000Y-30325000D01*
G75*
G02*
X78440000Y-30425000I0J-100000D01*
G01*
G37*
G04 #@! TD.AperFunction*
G04 #@! TA.AperFunction,SMDPad,CuDef*
G36*
G01*
X72715000Y-30425000D02*
X72715000Y-30625000D01*
G75*
G02*
X72615000Y-30725000I-100000J0D01*
G01*
X71340000Y-30725000D01*
G75*
G02*
X71240000Y-30625000I0J100000D01*
G01*
X71240000Y-30425000D01*
G75*
G02*
X71340000Y-30325000I100000J0D01*
G01*
X72615000Y-30325000D01*
G75*
G02*
X72715000Y-30425000I0J-100000D01*
G01*
G37*
G04 #@! TD.AperFunction*
G04 #@! TA.AperFunction,SMDPad,CuDef*
G36*
G01*
X72715000Y-31075000D02*
X72715000Y-31275000D01*
G75*
G02*
X72615000Y-31375000I-100000J0D01*
G01*
X71340000Y-31375000D01*
G75*
G02*
X71240000Y-31275000I0J100000D01*
G01*
X71240000Y-31075000D01*
G75*
G02*
X71340000Y-30975000I100000J0D01*
G01*
X72615000Y-30975000D01*
G75*
G02*
X72715000Y-31075000I0J-100000D01*
G01*
G37*
G04 #@! TD.AperFunction*
G04 #@! TA.AperFunction,SMDPad,CuDef*
G36*
G01*
X72715000Y-31725000D02*
X72715000Y-31925000D01*
G75*
G02*
X72615000Y-32025000I-100000J0D01*
G01*
X71340000Y-32025000D01*
G75*
G02*
X71240000Y-31925000I0J100000D01*
G01*
X71240000Y-31725000D01*
G75*
G02*
X71340000Y-31625000I100000J0D01*
G01*
X72615000Y-31625000D01*
G75*
G02*
X72715000Y-31725000I0J-100000D01*
G01*
G37*
G04 #@! TD.AperFunction*
G04 #@! TA.AperFunction,SMDPad,CuDef*
G36*
G01*
X72715000Y-32375000D02*
X72715000Y-32575000D01*
G75*
G02*
X72615000Y-32675000I-100000J0D01*
G01*
X71340000Y-32675000D01*
G75*
G02*
X71240000Y-32575000I0J100000D01*
G01*
X71240000Y-32375000D01*
G75*
G02*
X71340000Y-32275000I100000J0D01*
G01*
X72615000Y-32275000D01*
G75*
G02*
X72715000Y-32375000I0J-100000D01*
G01*
G37*
G04 #@! TD.AperFunction*
G04 #@! TA.AperFunction,SMDPad,CuDef*
G36*
G01*
X139140000Y-98265000D02*
X139140000Y-97895000D01*
G75*
G02*
X139275000Y-97760000I135000J0D01*
G01*
X139545000Y-97760000D01*
G75*
G02*
X139680000Y-97895000I0J-135000D01*
G01*
X139680000Y-98265000D01*
G75*
G02*
X139545000Y-98400000I-135000J0D01*
G01*
X139275000Y-98400000D01*
G75*
G02*
X139140000Y-98265000I0J135000D01*
G01*
G37*
G04 #@! TD.AperFunction*
G04 #@! TA.AperFunction,SMDPad,CuDef*
G36*
G01*
X140160000Y-98265000D02*
X140160000Y-97895000D01*
G75*
G02*
X140295000Y-97760000I135000J0D01*
G01*
X140565000Y-97760000D01*
G75*
G02*
X140700000Y-97895000I0J-135000D01*
G01*
X140700000Y-98265000D01*
G75*
G02*
X140565000Y-98400000I-135000J0D01*
G01*
X140295000Y-98400000D01*
G75*
G02*
X140160000Y-98265000I0J135000D01*
G01*
G37*
G04 #@! TD.AperFunction*
D17*
X223520000Y-38100000D03*
D18*
X220980000Y-38100000D03*
X218440000Y-38100000D03*
X215900000Y-38100000D03*
X213360000Y-38100000D03*
G04 #@! TA.AperFunction,SMDPad,CuDef*
G36*
G01*
X237675000Y-96905000D02*
X237305000Y-96905000D01*
G75*
G02*
X237170000Y-96770000I0J135000D01*
G01*
X237170000Y-96500000D01*
G75*
G02*
X237305000Y-96365000I135000J0D01*
G01*
X237675000Y-96365000D01*
G75*
G02*
X237810000Y-96500000I0J-135000D01*
G01*
X237810000Y-96770000D01*
G75*
G02*
X237675000Y-96905000I-135000J0D01*
G01*
G37*
G04 #@! TD.AperFunction*
G04 #@! TA.AperFunction,SMDPad,CuDef*
G36*
G01*
X237675000Y-95885000D02*
X237305000Y-95885000D01*
G75*
G02*
X237170000Y-95750000I0J135000D01*
G01*
X237170000Y-95480000D01*
G75*
G02*
X237305000Y-95345000I135000J0D01*
G01*
X237675000Y-95345000D01*
G75*
G02*
X237810000Y-95480000I0J-135000D01*
G01*
X237810000Y-95750000D01*
G75*
G02*
X237675000Y-95885000I-135000J0D01*
G01*
G37*
G04 #@! TD.AperFunction*
G04 #@! TA.AperFunction,SMDPad,CuDef*
G36*
G01*
X47200000Y-45550000D02*
X47200000Y-48450000D01*
G75*
G02*
X46950000Y-48700000I-250000J0D01*
G01*
X46325000Y-48700000D01*
G75*
G02*
X46075000Y-48450000I0J250000D01*
G01*
X46075000Y-45550000D01*
G75*
G02*
X46325000Y-45300000I250000J0D01*
G01*
X46950000Y-45300000D01*
G75*
G02*
X47200000Y-45550000I0J-250000D01*
G01*
G37*
G04 #@! TD.AperFunction*
G04 #@! TA.AperFunction,SMDPad,CuDef*
G36*
G01*
X42925000Y-45550000D02*
X42925000Y-48450000D01*
G75*
G02*
X42675000Y-48700000I-250000J0D01*
G01*
X42050000Y-48700000D01*
G75*
G02*
X41800000Y-48450000I0J250000D01*
G01*
X41800000Y-45550000D01*
G75*
G02*
X42050000Y-45300000I250000J0D01*
G01*
X42675000Y-45300000D01*
G75*
G02*
X42925000Y-45550000I0J-250000D01*
G01*
G37*
G04 #@! TD.AperFunction*
D17*
X193040000Y-152400000D03*
D18*
X190500000Y-152400000D03*
X187960000Y-152400000D03*
X185420000Y-152400000D03*
X182880000Y-152400000D03*
G04 #@! TA.AperFunction,SMDPad,CuDef*
G36*
G01*
X196210000Y-35540000D02*
X196550000Y-35540000D01*
G75*
G02*
X196690000Y-35680000I0J-140000D01*
G01*
X196690000Y-35960000D01*
G75*
G02*
X196550000Y-36100000I-140000J0D01*
G01*
X196210000Y-36100000D01*
G75*
G02*
X196070000Y-35960000I0J140000D01*
G01*
X196070000Y-35680000D01*
G75*
G02*
X196210000Y-35540000I140000J0D01*
G01*
G37*
G04 #@! TD.AperFunction*
G04 #@! TA.AperFunction,SMDPad,CuDef*
G36*
G01*
X196210000Y-36500000D02*
X196550000Y-36500000D01*
G75*
G02*
X196690000Y-36640000I0J-140000D01*
G01*
X196690000Y-36920000D01*
G75*
G02*
X196550000Y-37060000I-140000J0D01*
G01*
X196210000Y-37060000D01*
G75*
G02*
X196070000Y-36920000I0J140000D01*
G01*
X196070000Y-36640000D01*
G75*
G02*
X196210000Y-36500000I140000J0D01*
G01*
G37*
G04 #@! TD.AperFunction*
D15*
X152400000Y-34300000D03*
D16*
X154400000Y-34300000D03*
G04 #@! TA.AperFunction,SMDPad,CuDef*
G36*
G01*
X200480000Y-32475000D02*
X200480000Y-32675000D01*
G75*
G02*
X200380000Y-32775000I-100000J0D01*
G01*
X199105000Y-32775000D01*
G75*
G02*
X199005000Y-32675000I0J100000D01*
G01*
X199005000Y-32475000D01*
G75*
G02*
X199105000Y-32375000I100000J0D01*
G01*
X200380000Y-32375000D01*
G75*
G02*
X200480000Y-32475000I0J-100000D01*
G01*
G37*
G04 #@! TD.AperFunction*
G04 #@! TA.AperFunction,SMDPad,CuDef*
G36*
G01*
X200480000Y-31825000D02*
X200480000Y-32025000D01*
G75*
G02*
X200380000Y-32125000I-100000J0D01*
G01*
X199105000Y-32125000D01*
G75*
G02*
X199005000Y-32025000I0J100000D01*
G01*
X199005000Y-31825000D01*
G75*
G02*
X199105000Y-31725000I100000J0D01*
G01*
X200380000Y-31725000D01*
G75*
G02*
X200480000Y-31825000I0J-100000D01*
G01*
G37*
G04 #@! TD.AperFunction*
G04 #@! TA.AperFunction,SMDPad,CuDef*
G36*
G01*
X200480000Y-31175000D02*
X200480000Y-31375000D01*
G75*
G02*
X200380000Y-31475000I-100000J0D01*
G01*
X199105000Y-31475000D01*
G75*
G02*
X199005000Y-31375000I0J100000D01*
G01*
X199005000Y-31175000D01*
G75*
G02*
X199105000Y-31075000I100000J0D01*
G01*
X200380000Y-31075000D01*
G75*
G02*
X200480000Y-31175000I0J-100000D01*
G01*
G37*
G04 #@! TD.AperFunction*
G04 #@! TA.AperFunction,SMDPad,CuDef*
G36*
G01*
X200480000Y-30525000D02*
X200480000Y-30725000D01*
G75*
G02*
X200380000Y-30825000I-100000J0D01*
G01*
X199105000Y-30825000D01*
G75*
G02*
X199005000Y-30725000I0J100000D01*
G01*
X199005000Y-30525000D01*
G75*
G02*
X199105000Y-30425000I100000J0D01*
G01*
X200380000Y-30425000D01*
G75*
G02*
X200480000Y-30525000I0J-100000D01*
G01*
G37*
G04 #@! TD.AperFunction*
G04 #@! TA.AperFunction,SMDPad,CuDef*
G36*
G01*
X194755000Y-30525000D02*
X194755000Y-30725000D01*
G75*
G02*
X194655000Y-30825000I-100000J0D01*
G01*
X193380000Y-30825000D01*
G75*
G02*
X193280000Y-30725000I0J100000D01*
G01*
X193280000Y-30525000D01*
G75*
G02*
X193380000Y-30425000I100000J0D01*
G01*
X194655000Y-30425000D01*
G75*
G02*
X194755000Y-30525000I0J-100000D01*
G01*
G37*
G04 #@! TD.AperFunction*
G04 #@! TA.AperFunction,SMDPad,CuDef*
G36*
G01*
X194755000Y-31175000D02*
X194755000Y-31375000D01*
G75*
G02*
X194655000Y-31475000I-100000J0D01*
G01*
X193380000Y-31475000D01*
G75*
G02*
X193280000Y-31375000I0J100000D01*
G01*
X193280000Y-31175000D01*
G75*
G02*
X193380000Y-31075000I100000J0D01*
G01*
X194655000Y-31075000D01*
G75*
G02*
X194755000Y-31175000I0J-100000D01*
G01*
G37*
G04 #@! TD.AperFunction*
G04 #@! TA.AperFunction,SMDPad,CuDef*
G36*
G01*
X194755000Y-31825000D02*
X194755000Y-32025000D01*
G75*
G02*
X194655000Y-32125000I-100000J0D01*
G01*
X193380000Y-32125000D01*
G75*
G02*
X193280000Y-32025000I0J100000D01*
G01*
X193280000Y-31825000D01*
G75*
G02*
X193380000Y-31725000I100000J0D01*
G01*
X194655000Y-31725000D01*
G75*
G02*
X194755000Y-31825000I0J-100000D01*
G01*
G37*
G04 #@! TD.AperFunction*
G04 #@! TA.AperFunction,SMDPad,CuDef*
G36*
G01*
X194755000Y-32475000D02*
X194755000Y-32675000D01*
G75*
G02*
X194655000Y-32775000I-100000J0D01*
G01*
X193380000Y-32775000D01*
G75*
G02*
X193280000Y-32675000I0J100000D01*
G01*
X193280000Y-32475000D01*
G75*
G02*
X193380000Y-32375000I100000J0D01*
G01*
X194655000Y-32375000D01*
G75*
G02*
X194755000Y-32475000I0J-100000D01*
G01*
G37*
G04 #@! TD.AperFunction*
G04 #@! TA.AperFunction,SMDPad,CuDef*
G36*
G01*
X230960000Y-101055000D02*
X230960000Y-101255000D01*
G75*
G02*
X230860000Y-101355000I-100000J0D01*
G01*
X229585000Y-101355000D01*
G75*
G02*
X229485000Y-101255000I0J100000D01*
G01*
X229485000Y-101055000D01*
G75*
G02*
X229585000Y-100955000I100000J0D01*
G01*
X230860000Y-100955000D01*
G75*
G02*
X230960000Y-101055000I0J-100000D01*
G01*
G37*
G04 #@! TD.AperFunction*
G04 #@! TA.AperFunction,SMDPad,CuDef*
G36*
G01*
X230960000Y-100405000D02*
X230960000Y-100605000D01*
G75*
G02*
X230860000Y-100705000I-100000J0D01*
G01*
X229585000Y-100705000D01*
G75*
G02*
X229485000Y-100605000I0J100000D01*
G01*
X229485000Y-100405000D01*
G75*
G02*
X229585000Y-100305000I100000J0D01*
G01*
X230860000Y-100305000D01*
G75*
G02*
X230960000Y-100405000I0J-100000D01*
G01*
G37*
G04 #@! TD.AperFunction*
G04 #@! TA.AperFunction,SMDPad,CuDef*
G36*
G01*
X230960000Y-99755000D02*
X230960000Y-99955000D01*
G75*
G02*
X230860000Y-100055000I-100000J0D01*
G01*
X229585000Y-100055000D01*
G75*
G02*
X229485000Y-99955000I0J100000D01*
G01*
X229485000Y-99755000D01*
G75*
G02*
X229585000Y-99655000I100000J0D01*
G01*
X230860000Y-99655000D01*
G75*
G02*
X230960000Y-99755000I0J-100000D01*
G01*
G37*
G04 #@! TD.AperFunction*
G04 #@! TA.AperFunction,SMDPad,CuDef*
G36*
G01*
X230960000Y-99105000D02*
X230960000Y-99305000D01*
G75*
G02*
X230860000Y-99405000I-100000J0D01*
G01*
X229585000Y-99405000D01*
G75*
G02*
X229485000Y-99305000I0J100000D01*
G01*
X229485000Y-99105000D01*
G75*
G02*
X229585000Y-99005000I100000J0D01*
G01*
X230860000Y-99005000D01*
G75*
G02*
X230960000Y-99105000I0J-100000D01*
G01*
G37*
G04 #@! TD.AperFunction*
G04 #@! TA.AperFunction,SMDPad,CuDef*
G36*
G01*
X225235000Y-99105000D02*
X225235000Y-99305000D01*
G75*
G02*
X225135000Y-99405000I-100000J0D01*
G01*
X223860000Y-99405000D01*
G75*
G02*
X223760000Y-99305000I0J100000D01*
G01*
X223760000Y-99105000D01*
G75*
G02*
X223860000Y-99005000I100000J0D01*
G01*
X225135000Y-99005000D01*
G75*
G02*
X225235000Y-99105000I0J-100000D01*
G01*
G37*
G04 #@! TD.AperFunction*
G04 #@! TA.AperFunction,SMDPad,CuDef*
G36*
G01*
X225235000Y-99755000D02*
X225235000Y-99955000D01*
G75*
G02*
X225135000Y-100055000I-100000J0D01*
G01*
X223860000Y-100055000D01*
G75*
G02*
X223760000Y-99955000I0J100000D01*
G01*
X223760000Y-99755000D01*
G75*
G02*
X223860000Y-99655000I100000J0D01*
G01*
X225135000Y-99655000D01*
G75*
G02*
X225235000Y-99755000I0J-100000D01*
G01*
G37*
G04 #@! TD.AperFunction*
G04 #@! TA.AperFunction,SMDPad,CuDef*
G36*
G01*
X225235000Y-100405000D02*
X225235000Y-100605000D01*
G75*
G02*
X225135000Y-100705000I-100000J0D01*
G01*
X223860000Y-100705000D01*
G75*
G02*
X223760000Y-100605000I0J100000D01*
G01*
X223760000Y-100405000D01*
G75*
G02*
X223860000Y-100305000I100000J0D01*
G01*
X225135000Y-100305000D01*
G75*
G02*
X225235000Y-100405000I0J-100000D01*
G01*
G37*
G04 #@! TD.AperFunction*
G04 #@! TA.AperFunction,SMDPad,CuDef*
G36*
G01*
X225235000Y-101055000D02*
X225235000Y-101255000D01*
G75*
G02*
X225135000Y-101355000I-100000J0D01*
G01*
X223860000Y-101355000D01*
G75*
G02*
X223760000Y-101255000I0J100000D01*
G01*
X223760000Y-101055000D01*
G75*
G02*
X223860000Y-100955000I100000J0D01*
G01*
X225135000Y-100955000D01*
G75*
G02*
X225235000Y-101055000I0J-100000D01*
G01*
G37*
G04 #@! TD.AperFunction*
G04 #@! TA.AperFunction,SMDPad,CuDef*
G36*
G01*
X44399000Y-74645000D02*
X43099000Y-74645000D01*
G75*
G02*
X42849000Y-74395000I0J250000D01*
G01*
X42849000Y-73745000D01*
G75*
G02*
X43099000Y-73495000I250000J0D01*
G01*
X44399000Y-73495000D01*
G75*
G02*
X44649000Y-73745000I0J-250000D01*
G01*
X44649000Y-74395000D01*
G75*
G02*
X44399000Y-74645000I-250000J0D01*
G01*
G37*
G04 #@! TD.AperFunction*
G04 #@! TA.AperFunction,SMDPad,CuDef*
G36*
G01*
X44399000Y-71695000D02*
X43099000Y-71695000D01*
G75*
G02*
X42849000Y-71445000I0J250000D01*
G01*
X42849000Y-70795000D01*
G75*
G02*
X43099000Y-70545000I250000J0D01*
G01*
X44399000Y-70545000D01*
G75*
G02*
X44649000Y-70795000I0J-250000D01*
G01*
X44649000Y-71445000D01*
G75*
G02*
X44399000Y-71695000I-250000J0D01*
G01*
G37*
G04 #@! TD.AperFunction*
G04 #@! TA.AperFunction,SMDPad,CuDef*
G36*
G01*
X242855000Y-60340000D02*
X242855000Y-59040000D01*
G75*
G02*
X243105000Y-58790000I250000J0D01*
G01*
X243755000Y-58790000D01*
G75*
G02*
X244005000Y-59040000I0J-250000D01*
G01*
X244005000Y-60340000D01*
G75*
G02*
X243755000Y-60590000I-250000J0D01*
G01*
X243105000Y-60590000D01*
G75*
G02*
X242855000Y-60340000I0J250000D01*
G01*
G37*
G04 #@! TD.AperFunction*
G04 #@! TA.AperFunction,SMDPad,CuDef*
G36*
G01*
X245805000Y-60340000D02*
X245805000Y-59040000D01*
G75*
G02*
X246055000Y-58790000I250000J0D01*
G01*
X246705000Y-58790000D01*
G75*
G02*
X246955000Y-59040000I0J-250000D01*
G01*
X246955000Y-60340000D01*
G75*
G02*
X246705000Y-60590000I-250000J0D01*
G01*
X246055000Y-60590000D01*
G75*
G02*
X245805000Y-60340000I0J250000D01*
G01*
G37*
G04 #@! TD.AperFunction*
G04 #@! TA.AperFunction,SMDPad,CuDef*
G36*
G01*
X229190000Y-35540000D02*
X229530000Y-35540000D01*
G75*
G02*
X229670000Y-35680000I0J-140000D01*
G01*
X229670000Y-35960000D01*
G75*
G02*
X229530000Y-36100000I-140000J0D01*
G01*
X229190000Y-36100000D01*
G75*
G02*
X229050000Y-35960000I0J140000D01*
G01*
X229050000Y-35680000D01*
G75*
G02*
X229190000Y-35540000I140000J0D01*
G01*
G37*
G04 #@! TD.AperFunction*
G04 #@! TA.AperFunction,SMDPad,CuDef*
G36*
G01*
X229190000Y-36500000D02*
X229530000Y-36500000D01*
G75*
G02*
X229670000Y-36640000I0J-140000D01*
G01*
X229670000Y-36920000D01*
G75*
G02*
X229530000Y-37060000I-140000J0D01*
G01*
X229190000Y-37060000D01*
G75*
G02*
X229050000Y-36920000I0J140000D01*
G01*
X229050000Y-36640000D01*
G75*
G02*
X229190000Y-36500000I140000J0D01*
G01*
G37*
G04 #@! TD.AperFunction*
G04 #@! TA.AperFunction,SMDPad,CuDef*
G36*
G01*
X231437500Y-125745000D02*
X231437500Y-124445000D01*
G75*
G02*
X231687500Y-124195000I250000J0D01*
G01*
X232337500Y-124195000D01*
G75*
G02*
X232587500Y-124445000I0J-250000D01*
G01*
X232587500Y-125745000D01*
G75*
G02*
X232337500Y-125995000I-250000J0D01*
G01*
X231687500Y-125995000D01*
G75*
G02*
X231437500Y-125745000I0J250000D01*
G01*
G37*
G04 #@! TD.AperFunction*
G04 #@! TA.AperFunction,SMDPad,CuDef*
G36*
G01*
X234387500Y-125745000D02*
X234387500Y-124445000D01*
G75*
G02*
X234637500Y-124195000I250000J0D01*
G01*
X235287500Y-124195000D01*
G75*
G02*
X235537500Y-124445000I0J-250000D01*
G01*
X235537500Y-125745000D01*
G75*
G02*
X235287500Y-125995000I-250000J0D01*
G01*
X234637500Y-125995000D01*
G75*
G02*
X234387500Y-125745000I0J250000D01*
G01*
G37*
G04 #@! TD.AperFunction*
G04 #@! TA.AperFunction,SMDPad,CuDef*
G36*
G01*
X200480000Y-101055000D02*
X200480000Y-101255000D01*
G75*
G02*
X200380000Y-101355000I-100000J0D01*
G01*
X199105000Y-101355000D01*
G75*
G02*
X199005000Y-101255000I0J100000D01*
G01*
X199005000Y-101055000D01*
G75*
G02*
X199105000Y-100955000I100000J0D01*
G01*
X200380000Y-100955000D01*
G75*
G02*
X200480000Y-101055000I0J-100000D01*
G01*
G37*
G04 #@! TD.AperFunction*
G04 #@! TA.AperFunction,SMDPad,CuDef*
G36*
G01*
X200480000Y-100405000D02*
X200480000Y-100605000D01*
G75*
G02*
X200380000Y-100705000I-100000J0D01*
G01*
X199105000Y-100705000D01*
G75*
G02*
X199005000Y-100605000I0J100000D01*
G01*
X199005000Y-100405000D01*
G75*
G02*
X199105000Y-100305000I100000J0D01*
G01*
X200380000Y-100305000D01*
G75*
G02*
X200480000Y-100405000I0J-100000D01*
G01*
G37*
G04 #@! TD.AperFunction*
G04 #@! TA.AperFunction,SMDPad,CuDef*
G36*
G01*
X200480000Y-99755000D02*
X200480000Y-99955000D01*
G75*
G02*
X200380000Y-100055000I-100000J0D01*
G01*
X199105000Y-100055000D01*
G75*
G02*
X199005000Y-99955000I0J100000D01*
G01*
X199005000Y-99755000D01*
G75*
G02*
X199105000Y-99655000I100000J0D01*
G01*
X200380000Y-99655000D01*
G75*
G02*
X200480000Y-99755000I0J-100000D01*
G01*
G37*
G04 #@! TD.AperFunction*
G04 #@! TA.AperFunction,SMDPad,CuDef*
G36*
G01*
X200480000Y-99105000D02*
X200480000Y-99305000D01*
G75*
G02*
X200380000Y-99405000I-100000J0D01*
G01*
X199105000Y-99405000D01*
G75*
G02*
X199005000Y-99305000I0J100000D01*
G01*
X199005000Y-99105000D01*
G75*
G02*
X199105000Y-99005000I100000J0D01*
G01*
X200380000Y-99005000D01*
G75*
G02*
X200480000Y-99105000I0J-100000D01*
G01*
G37*
G04 #@! TD.AperFunction*
G04 #@! TA.AperFunction,SMDPad,CuDef*
G36*
G01*
X194755000Y-99105000D02*
X194755000Y-99305000D01*
G75*
G02*
X194655000Y-99405000I-100000J0D01*
G01*
X193380000Y-99405000D01*
G75*
G02*
X193280000Y-99305000I0J100000D01*
G01*
X193280000Y-99105000D01*
G75*
G02*
X193380000Y-99005000I100000J0D01*
G01*
X194655000Y-99005000D01*
G75*
G02*
X194755000Y-99105000I0J-100000D01*
G01*
G37*
G04 #@! TD.AperFunction*
G04 #@! TA.AperFunction,SMDPad,CuDef*
G36*
G01*
X194755000Y-99755000D02*
X194755000Y-99955000D01*
G75*
G02*
X194655000Y-100055000I-100000J0D01*
G01*
X193380000Y-100055000D01*
G75*
G02*
X193280000Y-99955000I0J100000D01*
G01*
X193280000Y-99755000D01*
G75*
G02*
X193380000Y-99655000I100000J0D01*
G01*
X194655000Y-99655000D01*
G75*
G02*
X194755000Y-99755000I0J-100000D01*
G01*
G37*
G04 #@! TD.AperFunction*
G04 #@! TA.AperFunction,SMDPad,CuDef*
G36*
G01*
X194755000Y-100405000D02*
X194755000Y-100605000D01*
G75*
G02*
X194655000Y-100705000I-100000J0D01*
G01*
X193380000Y-100705000D01*
G75*
G02*
X193280000Y-100605000I0J100000D01*
G01*
X193280000Y-100405000D01*
G75*
G02*
X193380000Y-100305000I100000J0D01*
G01*
X194655000Y-100305000D01*
G75*
G02*
X194755000Y-100405000I0J-100000D01*
G01*
G37*
G04 #@! TD.AperFunction*
G04 #@! TA.AperFunction,SMDPad,CuDef*
G36*
G01*
X194755000Y-101055000D02*
X194755000Y-101255000D01*
G75*
G02*
X194655000Y-101355000I-100000J0D01*
G01*
X193380000Y-101355000D01*
G75*
G02*
X193280000Y-101255000I0J100000D01*
G01*
X193280000Y-101055000D01*
G75*
G02*
X193380000Y-100955000I100000J0D01*
G01*
X194655000Y-100955000D01*
G75*
G02*
X194755000Y-101055000I0J-100000D01*
G01*
G37*
G04 #@! TD.AperFunction*
G04 #@! TA.AperFunction,SMDPad,CuDef*
G36*
G01*
X53250000Y-34700000D02*
X53250000Y-36900000D01*
G75*
G02*
X53000000Y-37150000I-250000J0D01*
G01*
X52350000Y-37150000D01*
G75*
G02*
X52100000Y-36900000I0J250000D01*
G01*
X52100000Y-34700000D01*
G75*
G02*
X52350000Y-34450000I250000J0D01*
G01*
X53000000Y-34450000D01*
G75*
G02*
X53250000Y-34700000I0J-250000D01*
G01*
G37*
G04 #@! TD.AperFunction*
G04 #@! TA.AperFunction,SMDPad,CuDef*
G36*
G01*
X50300000Y-34700000D02*
X50300000Y-36900000D01*
G75*
G02*
X50050000Y-37150000I-250000J0D01*
G01*
X49400000Y-37150000D01*
G75*
G02*
X49150000Y-36900000I0J250000D01*
G01*
X49150000Y-34700000D01*
G75*
G02*
X49400000Y-34450000I250000J0D01*
G01*
X50050000Y-34450000D01*
G75*
G02*
X50300000Y-34700000I0J-250000D01*
G01*
G37*
G04 #@! TD.AperFunction*
D17*
X132080000Y-106680000D03*
D18*
X129540000Y-106680000D03*
X127000000Y-106680000D03*
X124460000Y-106680000D03*
X121920000Y-106680000D03*
G04 #@! TA.AperFunction,SMDPad,CuDef*
G36*
G01*
X226690000Y-104120000D02*
X227030000Y-104120000D01*
G75*
G02*
X227170000Y-104260000I0J-140000D01*
G01*
X227170000Y-104540000D01*
G75*
G02*
X227030000Y-104680000I-140000J0D01*
G01*
X226690000Y-104680000D01*
G75*
G02*
X226550000Y-104540000I0J140000D01*
G01*
X226550000Y-104260000D01*
G75*
G02*
X226690000Y-104120000I140000J0D01*
G01*
G37*
G04 #@! TD.AperFunction*
G04 #@! TA.AperFunction,SMDPad,CuDef*
G36*
G01*
X226690000Y-105080000D02*
X227030000Y-105080000D01*
G75*
G02*
X227170000Y-105220000I0J-140000D01*
G01*
X227170000Y-105500000D01*
G75*
G02*
X227030000Y-105640000I-140000J0D01*
G01*
X226690000Y-105640000D01*
G75*
G02*
X226550000Y-105500000I0J140000D01*
G01*
X226550000Y-105220000D01*
G75*
G02*
X226690000Y-105080000I140000J0D01*
G01*
G37*
G04 #@! TD.AperFunction*
G04 #@! TA.AperFunction,SMDPad,CuDef*
G36*
G01*
X169620000Y-29685000D02*
X169620000Y-29315000D01*
G75*
G02*
X169755000Y-29180000I135000J0D01*
G01*
X170025000Y-29180000D01*
G75*
G02*
X170160000Y-29315000I0J-135000D01*
G01*
X170160000Y-29685000D01*
G75*
G02*
X170025000Y-29820000I-135000J0D01*
G01*
X169755000Y-29820000D01*
G75*
G02*
X169620000Y-29685000I0J135000D01*
G01*
G37*
G04 #@! TD.AperFunction*
G04 #@! TA.AperFunction,SMDPad,CuDef*
G36*
G01*
X170640000Y-29685000D02*
X170640000Y-29315000D01*
G75*
G02*
X170775000Y-29180000I135000J0D01*
G01*
X171045000Y-29180000D01*
G75*
G02*
X171180000Y-29315000I0J-135000D01*
G01*
X171180000Y-29685000D01*
G75*
G02*
X171045000Y-29820000I-135000J0D01*
G01*
X170775000Y-29820000D01*
G75*
G02*
X170640000Y-29685000I0J135000D01*
G01*
G37*
G04 #@! TD.AperFunction*
D17*
X193040000Y-106680000D03*
D18*
X190500000Y-106680000D03*
X187960000Y-106680000D03*
X185420000Y-106680000D03*
X182880000Y-106680000D03*
G04 #@! TA.AperFunction,SMDPad,CuDef*
G36*
G01*
X135250000Y-104120000D02*
X135590000Y-104120000D01*
G75*
G02*
X135730000Y-104260000I0J-140000D01*
G01*
X135730000Y-104540000D01*
G75*
G02*
X135590000Y-104680000I-140000J0D01*
G01*
X135250000Y-104680000D01*
G75*
G02*
X135110000Y-104540000I0J140000D01*
G01*
X135110000Y-104260000D01*
G75*
G02*
X135250000Y-104120000I140000J0D01*
G01*
G37*
G04 #@! TD.AperFunction*
G04 #@! TA.AperFunction,SMDPad,CuDef*
G36*
G01*
X135250000Y-105080000D02*
X135590000Y-105080000D01*
G75*
G02*
X135730000Y-105220000I0J-140000D01*
G01*
X135730000Y-105500000D01*
G75*
G02*
X135590000Y-105640000I-140000J0D01*
G01*
X135250000Y-105640000D01*
G75*
G02*
X135110000Y-105500000I0J140000D01*
G01*
X135110000Y-105220000D01*
G75*
G02*
X135250000Y-105080000I140000J0D01*
G01*
G37*
G04 #@! TD.AperFunction*
G04 #@! TA.AperFunction,SMDPad,CuDef*
G36*
G01*
X50371000Y-61285000D02*
X50371000Y-61655000D01*
G75*
G02*
X50236000Y-61790000I-135000J0D01*
G01*
X49966000Y-61790000D01*
G75*
G02*
X49831000Y-61655000I0J135000D01*
G01*
X49831000Y-61285000D01*
G75*
G02*
X49966000Y-61150000I135000J0D01*
G01*
X50236000Y-61150000D01*
G75*
G02*
X50371000Y-61285000I0J-135000D01*
G01*
G37*
G04 #@! TD.AperFunction*
G04 #@! TA.AperFunction,SMDPad,CuDef*
G36*
G01*
X49351000Y-61285000D02*
X49351000Y-61655000D01*
G75*
G02*
X49216000Y-61790000I-135000J0D01*
G01*
X48946000Y-61790000D01*
G75*
G02*
X48811000Y-61655000I0J135000D01*
G01*
X48811000Y-61285000D01*
G75*
G02*
X48946000Y-61150000I135000J0D01*
G01*
X49216000Y-61150000D01*
G75*
G02*
X49351000Y-61285000I0J-135000D01*
G01*
G37*
G04 #@! TD.AperFunction*
G04 #@! TA.AperFunction,SMDPad,CuDef*
G36*
G01*
X76670000Y-35440000D02*
X77010000Y-35440000D01*
G75*
G02*
X77150000Y-35580000I0J-140000D01*
G01*
X77150000Y-35860000D01*
G75*
G02*
X77010000Y-36000000I-140000J0D01*
G01*
X76670000Y-36000000D01*
G75*
G02*
X76530000Y-35860000I0J140000D01*
G01*
X76530000Y-35580000D01*
G75*
G02*
X76670000Y-35440000I140000J0D01*
G01*
G37*
G04 #@! TD.AperFunction*
G04 #@! TA.AperFunction,SMDPad,CuDef*
G36*
G01*
X76670000Y-36400000D02*
X77010000Y-36400000D01*
G75*
G02*
X77150000Y-36540000I0J-140000D01*
G01*
X77150000Y-36820000D01*
G75*
G02*
X77010000Y-36960000I-140000J0D01*
G01*
X76670000Y-36960000D01*
G75*
G02*
X76530000Y-36820000I0J140000D01*
G01*
X76530000Y-36540000D01*
G75*
G02*
X76670000Y-36400000I140000J0D01*
G01*
G37*
G04 #@! TD.AperFunction*
G04 #@! TA.AperFunction,SMDPad,CuDef*
G36*
G01*
X231462500Y-155565000D02*
X231462500Y-154315000D01*
G75*
G02*
X231712500Y-154065000I250000J0D01*
G01*
X232337500Y-154065000D01*
G75*
G02*
X232587500Y-154315000I0J-250000D01*
G01*
X232587500Y-155565000D01*
G75*
G02*
X232337500Y-155815000I-250000J0D01*
G01*
X231712500Y-155815000D01*
G75*
G02*
X231462500Y-155565000I0J250000D01*
G01*
G37*
G04 #@! TD.AperFunction*
G04 #@! TA.AperFunction,SMDPad,CuDef*
G36*
G01*
X234387500Y-155565000D02*
X234387500Y-154315000D01*
G75*
G02*
X234637500Y-154065000I250000J0D01*
G01*
X235262500Y-154065000D01*
G75*
G02*
X235512500Y-154315000I0J-250000D01*
G01*
X235512500Y-155565000D01*
G75*
G02*
X235262500Y-155815000I-250000J0D01*
G01*
X234637500Y-155815000D01*
G75*
G02*
X234387500Y-155565000I0J250000D01*
G01*
G37*
G04 #@! TD.AperFunction*
G04 #@! TA.AperFunction,SMDPad,CuDef*
G36*
G01*
X46267000Y-54976000D02*
X46267000Y-56276000D01*
G75*
G02*
X46017000Y-56526000I-250000J0D01*
G01*
X45367000Y-56526000D01*
G75*
G02*
X45117000Y-56276000I0J250000D01*
G01*
X45117000Y-54976000D01*
G75*
G02*
X45367000Y-54726000I250000J0D01*
G01*
X46017000Y-54726000D01*
G75*
G02*
X46267000Y-54976000I0J-250000D01*
G01*
G37*
G04 #@! TD.AperFunction*
G04 #@! TA.AperFunction,SMDPad,CuDef*
G36*
G01*
X43317000Y-54976000D02*
X43317000Y-56276000D01*
G75*
G02*
X43067000Y-56526000I-250000J0D01*
G01*
X42417000Y-56526000D01*
G75*
G02*
X42167000Y-56276000I0J250000D01*
G01*
X42167000Y-54976000D01*
G75*
G02*
X42417000Y-54726000I250000J0D01*
G01*
X43067000Y-54726000D01*
G75*
G02*
X43317000Y-54976000I0J-250000D01*
G01*
G37*
G04 #@! TD.AperFunction*
G04 #@! TA.AperFunction,SMDPad,CuDef*
G36*
G01*
X104770000Y-35540000D02*
X105110000Y-35540000D01*
G75*
G02*
X105250000Y-35680000I0J-140000D01*
G01*
X105250000Y-35960000D01*
G75*
G02*
X105110000Y-36100000I-140000J0D01*
G01*
X104770000Y-36100000D01*
G75*
G02*
X104630000Y-35960000I0J140000D01*
G01*
X104630000Y-35680000D01*
G75*
G02*
X104770000Y-35540000I140000J0D01*
G01*
G37*
G04 #@! TD.AperFunction*
G04 #@! TA.AperFunction,SMDPad,CuDef*
G36*
G01*
X104770000Y-36500000D02*
X105110000Y-36500000D01*
G75*
G02*
X105250000Y-36640000I0J-140000D01*
G01*
X105250000Y-36920000D01*
G75*
G02*
X105110000Y-37060000I-140000J0D01*
G01*
X104770000Y-37060000D01*
G75*
G02*
X104630000Y-36920000I0J140000D01*
G01*
X104630000Y-36640000D01*
G75*
G02*
X104770000Y-36500000I140000J0D01*
G01*
G37*
G04 #@! TD.AperFunction*
G04 #@! TA.AperFunction,SMDPad,CuDef*
G36*
G01*
X244709000Y-64828000D02*
X244709000Y-64458000D01*
G75*
G02*
X244844000Y-64323000I135000J0D01*
G01*
X245114000Y-64323000D01*
G75*
G02*
X245249000Y-64458000I0J-135000D01*
G01*
X245249000Y-64828000D01*
G75*
G02*
X245114000Y-64963000I-135000J0D01*
G01*
X244844000Y-64963000D01*
G75*
G02*
X244709000Y-64828000I0J135000D01*
G01*
G37*
G04 #@! TD.AperFunction*
G04 #@! TA.AperFunction,SMDPad,CuDef*
G36*
G01*
X245729000Y-64828000D02*
X245729000Y-64458000D01*
G75*
G02*
X245864000Y-64323000I135000J0D01*
G01*
X246134000Y-64323000D01*
G75*
G02*
X246269000Y-64458000I0J-135000D01*
G01*
X246269000Y-64828000D01*
G75*
G02*
X246134000Y-64963000I-135000J0D01*
G01*
X245864000Y-64963000D01*
G75*
G02*
X245729000Y-64828000I0J135000D01*
G01*
G37*
G04 #@! TD.AperFunction*
G04 #@! TA.AperFunction,SMDPad,CuDef*
G36*
G01*
X230960000Y-32475000D02*
X230960000Y-32675000D01*
G75*
G02*
X230860000Y-32775000I-100000J0D01*
G01*
X229585000Y-32775000D01*
G75*
G02*
X229485000Y-32675000I0J100000D01*
G01*
X229485000Y-32475000D01*
G75*
G02*
X229585000Y-32375000I100000J0D01*
G01*
X230860000Y-32375000D01*
G75*
G02*
X230960000Y-32475000I0J-100000D01*
G01*
G37*
G04 #@! TD.AperFunction*
G04 #@! TA.AperFunction,SMDPad,CuDef*
G36*
G01*
X230960000Y-31825000D02*
X230960000Y-32025000D01*
G75*
G02*
X230860000Y-32125000I-100000J0D01*
G01*
X229585000Y-32125000D01*
G75*
G02*
X229485000Y-32025000I0J100000D01*
G01*
X229485000Y-31825000D01*
G75*
G02*
X229585000Y-31725000I100000J0D01*
G01*
X230860000Y-31725000D01*
G75*
G02*
X230960000Y-31825000I0J-100000D01*
G01*
G37*
G04 #@! TD.AperFunction*
G04 #@! TA.AperFunction,SMDPad,CuDef*
G36*
G01*
X230960000Y-31175000D02*
X230960000Y-31375000D01*
G75*
G02*
X230860000Y-31475000I-100000J0D01*
G01*
X229585000Y-31475000D01*
G75*
G02*
X229485000Y-31375000I0J100000D01*
G01*
X229485000Y-31175000D01*
G75*
G02*
X229585000Y-31075000I100000J0D01*
G01*
X230860000Y-31075000D01*
G75*
G02*
X230960000Y-31175000I0J-100000D01*
G01*
G37*
G04 #@! TD.AperFunction*
G04 #@! TA.AperFunction,SMDPad,CuDef*
G36*
G01*
X230960000Y-30525000D02*
X230960000Y-30725000D01*
G75*
G02*
X230860000Y-30825000I-100000J0D01*
G01*
X229585000Y-30825000D01*
G75*
G02*
X229485000Y-30725000I0J100000D01*
G01*
X229485000Y-30525000D01*
G75*
G02*
X229585000Y-30425000I100000J0D01*
G01*
X230860000Y-30425000D01*
G75*
G02*
X230960000Y-30525000I0J-100000D01*
G01*
G37*
G04 #@! TD.AperFunction*
G04 #@! TA.AperFunction,SMDPad,CuDef*
G36*
G01*
X225235000Y-30525000D02*
X225235000Y-30725000D01*
G75*
G02*
X225135000Y-30825000I-100000J0D01*
G01*
X223860000Y-30825000D01*
G75*
G02*
X223760000Y-30725000I0J100000D01*
G01*
X223760000Y-30525000D01*
G75*
G02*
X223860000Y-30425000I100000J0D01*
G01*
X225135000Y-30425000D01*
G75*
G02*
X225235000Y-30525000I0J-100000D01*
G01*
G37*
G04 #@! TD.AperFunction*
G04 #@! TA.AperFunction,SMDPad,CuDef*
G36*
G01*
X225235000Y-31175000D02*
X225235000Y-31375000D01*
G75*
G02*
X225135000Y-31475000I-100000J0D01*
G01*
X223860000Y-31475000D01*
G75*
G02*
X223760000Y-31375000I0J100000D01*
G01*
X223760000Y-31175000D01*
G75*
G02*
X223860000Y-31075000I100000J0D01*
G01*
X225135000Y-31075000D01*
G75*
G02*
X225235000Y-31175000I0J-100000D01*
G01*
G37*
G04 #@! TD.AperFunction*
G04 #@! TA.AperFunction,SMDPad,CuDef*
G36*
G01*
X225235000Y-31825000D02*
X225235000Y-32025000D01*
G75*
G02*
X225135000Y-32125000I-100000J0D01*
G01*
X223860000Y-32125000D01*
G75*
G02*
X223760000Y-32025000I0J100000D01*
G01*
X223760000Y-31825000D01*
G75*
G02*
X223860000Y-31725000I100000J0D01*
G01*
X225135000Y-31725000D01*
G75*
G02*
X225235000Y-31825000I0J-100000D01*
G01*
G37*
G04 #@! TD.AperFunction*
G04 #@! TA.AperFunction,SMDPad,CuDef*
G36*
G01*
X225235000Y-32475000D02*
X225235000Y-32675000D01*
G75*
G02*
X225135000Y-32775000I-100000J0D01*
G01*
X223860000Y-32775000D01*
G75*
G02*
X223760000Y-32675000I0J100000D01*
G01*
X223760000Y-32475000D01*
G75*
G02*
X223860000Y-32375000I100000J0D01*
G01*
X225135000Y-32375000D01*
G75*
G02*
X225235000Y-32475000I0J-100000D01*
G01*
G37*
G04 #@! TD.AperFunction*
G04 #@! TA.AperFunction,SMDPad,CuDef*
G36*
G01*
X248825000Y-53590000D02*
X248825000Y-53090000D01*
G75*
G02*
X249050000Y-52865000I225000J0D01*
G01*
X249500000Y-52865000D01*
G75*
G02*
X249725000Y-53090000I0J-225000D01*
G01*
X249725000Y-53590000D01*
G75*
G02*
X249500000Y-53815000I-225000J0D01*
G01*
X249050000Y-53815000D01*
G75*
G02*
X248825000Y-53590000I0J225000D01*
G01*
G37*
G04 #@! TD.AperFunction*
G04 #@! TA.AperFunction,SMDPad,CuDef*
G36*
G01*
X250375000Y-53590000D02*
X250375000Y-53090000D01*
G75*
G02*
X250600000Y-52865000I225000J0D01*
G01*
X251050000Y-52865000D01*
G75*
G02*
X251275000Y-53090000I0J-225000D01*
G01*
X251275000Y-53590000D01*
G75*
G02*
X251050000Y-53815000I-225000J0D01*
G01*
X250600000Y-53815000D01*
G75*
G02*
X250375000Y-53590000I0J225000D01*
G01*
G37*
G04 #@! TD.AperFunction*
G04 #@! TA.AperFunction,ComponentPad*
G36*
G01*
X242540000Y-44510000D02*
X242540000Y-43210000D01*
G75*
G02*
X243190000Y-42560000I650000J0D01*
G01*
X244490000Y-42560000D01*
G75*
G02*
X245140000Y-43210000I0J-650000D01*
G01*
X245140000Y-44510000D01*
G75*
G02*
X244490000Y-45160000I-650000J0D01*
G01*
X243190000Y-45160000D01*
G75*
G02*
X242540000Y-44510000I0J650000D01*
G01*
G37*
G04 #@! TD.AperFunction*
D11*
X243840000Y-46960000D03*
G04 #@! TA.AperFunction,ComponentPad*
G36*
G01*
X242540000Y-36210000D02*
X242540000Y-34910000D01*
G75*
G02*
X243190000Y-34260000I650000J0D01*
G01*
X244490000Y-34260000D01*
G75*
G02*
X245140000Y-34910000I0J-650000D01*
G01*
X245140000Y-36210000D01*
G75*
G02*
X244490000Y-36860000I-650000J0D01*
G01*
X243190000Y-36860000D01*
G75*
G02*
X242540000Y-36210000I0J650000D01*
G01*
G37*
G04 #@! TD.AperFunction*
G04 #@! TA.AperFunction,SMDPad,CuDef*
G36*
G01*
X237940000Y-85455000D02*
X238310000Y-85455000D01*
G75*
G02*
X238445000Y-85590000I0J-135000D01*
G01*
X238445000Y-85860000D01*
G75*
G02*
X238310000Y-85995000I-135000J0D01*
G01*
X237940000Y-85995000D01*
G75*
G02*
X237805000Y-85860000I0J135000D01*
G01*
X237805000Y-85590000D01*
G75*
G02*
X237940000Y-85455000I135000J0D01*
G01*
G37*
G04 #@! TD.AperFunction*
G04 #@! TA.AperFunction,SMDPad,CuDef*
G36*
G01*
X237940000Y-86475000D02*
X238310000Y-86475000D01*
G75*
G02*
X238445000Y-86610000I0J-135000D01*
G01*
X238445000Y-86880000D01*
G75*
G02*
X238310000Y-87015000I-135000J0D01*
G01*
X237940000Y-87015000D01*
G75*
G02*
X237805000Y-86880000I0J135000D01*
G01*
X237805000Y-86610000D01*
G75*
G02*
X237940000Y-86475000I135000J0D01*
G01*
G37*
G04 #@! TD.AperFunction*
D17*
X101600000Y-38100000D03*
D18*
X99060000Y-38100000D03*
X96520000Y-38100000D03*
X93980000Y-38100000D03*
X91440000Y-38100000D03*
D27*
X158897580Y-99695000D03*
X246380000Y-25400000D03*
X219857580Y-31115000D03*
X158897580Y-31115000D03*
X219857580Y-99695000D03*
X97937580Y-99695000D03*
X128417580Y-31115000D03*
X97937580Y-31115000D03*
X67864908Y-161925000D03*
X189377580Y-31115000D03*
X159304908Y-93345000D03*
X220264908Y-161925000D03*
X128824908Y-161925000D03*
X128824908Y-93345000D03*
X246380000Y-170180000D03*
X67864908Y-93345000D03*
X220264908Y-93345000D03*
X38100000Y-25400000D03*
X128417580Y-99695000D03*
X98344908Y-161925000D03*
X67457580Y-99695000D03*
X38100000Y-170180000D03*
X189784908Y-93345000D03*
X67457580Y-31115000D03*
X159304908Y-161925000D03*
X98344908Y-93345000D03*
X189377580Y-99695000D03*
X189784908Y-161925000D03*
D28*
X71860000Y-97680000D03*
D29*
X44294500Y-57178500D03*
D28*
X168400000Y-106980000D03*
X226860000Y-38400000D03*
D29*
X43434000Y-62484000D03*
D28*
X141420000Y-98080000D03*
X102340000Y-29100000D03*
D29*
X241877500Y-90862500D03*
D28*
X198880000Y-38400000D03*
X193780000Y-29100000D03*
X169262500Y-33450000D03*
X74460000Y-106980000D03*
X80340000Y-29400000D03*
D29*
X42926000Y-36449000D03*
D28*
X104940000Y-38400000D03*
X49725000Y-33600000D03*
X108302500Y-102030000D03*
X169262500Y-102030000D03*
X165900000Y-38400000D03*
X165900000Y-106980000D03*
X202380000Y-98080000D03*
X54700000Y-49099999D03*
X108302500Y-33450000D03*
X76840000Y-38300000D03*
X199742500Y-102030000D03*
X172700000Y-103680000D03*
D29*
X46228000Y-63246000D03*
X43434000Y-63246000D03*
X44323000Y-62484000D03*
X41275000Y-43434000D03*
X44577000Y-66548000D03*
X34290000Y-95504000D03*
D28*
X163300000Y-29100000D03*
D29*
X45212000Y-64008000D03*
D28*
X140220000Y-99455000D03*
X141420000Y-29500000D03*
X137920000Y-106980000D03*
X198880000Y-106980000D03*
X111740000Y-35100000D03*
X232860000Y-29500000D03*
X172700000Y-35100000D03*
X199742500Y-33450000D03*
X233660000Y-35100000D03*
X81140000Y-35000000D03*
X202380000Y-29500000D03*
X203180000Y-103680000D03*
X231660000Y-30875000D03*
D29*
X45212000Y-62484000D03*
D28*
X201180000Y-30875000D03*
D29*
X39370000Y-54102000D03*
X232410000Y-95250000D03*
D28*
X111740000Y-103680000D03*
X142220000Y-103680000D03*
X110940000Y-98080000D03*
X132820000Y-97680000D03*
D29*
X44323000Y-63246000D03*
X48133000Y-62484000D03*
D28*
X170700000Y-30875000D03*
X107440000Y-106980000D03*
D29*
X240411000Y-64643000D03*
D28*
X231660000Y-99455000D03*
X138782500Y-33450000D03*
X196380000Y-38400000D03*
X229360000Y-106980000D03*
X54700000Y-29700000D03*
X140220000Y-30875000D03*
X109740000Y-30875000D03*
X226860000Y-106980000D03*
X109740000Y-99455000D03*
X132820000Y-29100000D03*
X107440000Y-38400000D03*
X171900000Y-98080000D03*
X102340000Y-97680000D03*
X142220000Y-35100000D03*
X74340000Y-38300000D03*
D29*
X240720000Y-100275000D03*
D28*
X39900000Y-43300000D03*
X168400000Y-38400000D03*
D29*
X36450000Y-56388000D03*
D28*
X193780000Y-97680000D03*
X77702500Y-33350000D03*
X201180000Y-99455000D03*
X81260000Y-103680000D03*
X76960000Y-106980000D03*
X54700000Y-28300000D03*
X233660000Y-103680000D03*
X229360000Y-38400000D03*
X171900000Y-29500000D03*
X232860000Y-98080000D03*
D29*
X47244000Y-62484000D03*
D28*
X230222500Y-102030000D03*
X224260000Y-97680000D03*
X50500000Y-39800000D03*
X104940000Y-106980000D03*
X77822500Y-102030000D03*
X110940000Y-29500000D03*
X80460000Y-98080000D03*
X79140000Y-30775000D03*
D29*
X46228000Y-62484000D03*
D28*
X170700000Y-99455000D03*
X137920000Y-38400000D03*
X203180000Y-35100000D03*
D29*
X43434000Y-64008000D03*
D28*
X71740000Y-29000000D03*
D29*
X242577500Y-57777500D03*
X45212000Y-63246000D03*
D28*
X196380000Y-106980000D03*
X135420000Y-106980000D03*
D29*
X46228000Y-64008000D03*
D28*
X138782500Y-102030000D03*
D29*
X45339000Y-70862000D03*
D28*
X79260000Y-99455000D03*
X224260000Y-29100000D03*
X230222500Y-33450000D03*
X135420000Y-38400000D03*
X54700000Y-50500000D03*
D29*
X44323000Y-64008000D03*
D28*
X163300000Y-97680000D03*
X152400000Y-27940000D03*
X182880000Y-27940000D03*
X192680000Y-96520000D03*
X131720000Y-27940000D03*
X101240000Y-96520000D03*
X192680000Y-27940000D03*
X192680000Y-30675000D03*
X223160000Y-30675000D03*
X60960000Y-96520000D03*
D29*
X246380000Y-51181000D03*
D28*
X121920000Y-27940000D03*
X152400000Y-96520000D03*
X162200000Y-99255000D03*
X182880000Y-96520000D03*
X101240000Y-30675000D03*
X162200000Y-30675000D03*
X192680000Y-99255000D03*
X223160000Y-99255000D03*
X101240000Y-99255000D03*
D29*
X247015000Y-93980000D03*
D28*
X223160000Y-96520000D03*
X121920000Y-96520000D03*
X70640000Y-27840000D03*
X213360000Y-27940000D03*
D29*
X245745000Y-84455000D03*
D28*
X162200000Y-96520000D03*
X223160000Y-27940000D03*
X91440000Y-27940000D03*
X162200000Y-27940000D03*
X101240000Y-27940000D03*
X131720000Y-99255000D03*
X70760000Y-96520000D03*
X91440000Y-96520000D03*
X228000000Y-27940000D03*
X70760000Y-99255000D03*
X70640000Y-30575000D03*
D29*
X232410000Y-87630000D03*
D28*
X131720000Y-96520000D03*
X131720000Y-30675000D03*
X60840000Y-27840000D03*
X213360000Y-96520000D03*
D29*
X246380000Y-57912000D03*
X245110000Y-100330000D03*
X238760000Y-98425000D03*
X245745000Y-91440000D03*
X232410000Y-91440000D03*
X232156000Y-85090000D03*
X239522000Y-56388000D03*
X249874000Y-86487000D03*
X238760000Y-87630000D03*
X247015000Y-88265000D03*
X249047000Y-88265000D03*
D28*
X194880000Y-33400000D03*
X103440000Y-89880000D03*
X72840000Y-21200000D03*
X53500000Y-39800000D03*
X103440000Y-33400000D03*
X225360000Y-21300000D03*
D30*
X54637499Y-43800000D03*
D28*
X72840000Y-33299999D03*
X72960000Y-101980000D03*
X164400000Y-33400000D03*
X194880000Y-21300000D03*
X72960000Y-89880000D03*
X225360000Y-33400000D03*
D30*
X59700000Y-89880000D03*
D28*
X164400000Y-101980000D03*
X133920000Y-33400000D03*
D30*
X59700000Y-21300000D03*
X53637499Y-43800000D03*
D28*
X194880000Y-101980000D03*
X133920000Y-101980000D03*
D30*
X58500000Y-89880000D03*
D28*
X194880000Y-89880000D03*
X164400000Y-21300000D03*
X225360000Y-89880000D03*
X133920000Y-89880000D03*
X133920000Y-21300000D03*
X53800000Y-35800000D03*
X103440000Y-21300000D03*
D30*
X58500000Y-21300000D03*
D28*
X164400000Y-89880000D03*
X225360000Y-101980000D03*
X103440000Y-101980000D03*
X74340000Y-35100000D03*
X70640000Y-31825000D03*
X76840000Y-35100000D03*
X107440000Y-35200000D03*
X101240000Y-31925000D03*
X104940000Y-35200000D03*
X135420000Y-35200000D03*
X137920000Y-35200000D03*
X131720000Y-31925000D03*
X165900000Y-35200000D03*
X162200000Y-31925000D03*
X168400000Y-35200000D03*
X192680000Y-31925000D03*
X196380000Y-35200000D03*
X198880000Y-35200000D03*
X229360000Y-35200000D03*
X223160000Y-31925000D03*
X226860000Y-35200000D03*
X70760000Y-100505000D03*
X76960000Y-103780000D03*
X74460000Y-103780000D03*
X101240000Y-100505000D03*
X104940000Y-103780000D03*
X107440000Y-103780000D03*
X137920000Y-103780000D03*
X135420000Y-103780000D03*
X131720000Y-100505000D03*
X168400000Y-103780000D03*
X165900000Y-103780000D03*
X162200000Y-100505000D03*
X196380000Y-103780000D03*
X192680000Y-100505000D03*
X198880000Y-103780000D03*
X229360000Y-103780000D03*
X226860000Y-103780000D03*
X223160000Y-100505000D03*
D31*
X46289000Y-70862000D02*
X47687000Y-70862000D01*
D32*
X107440000Y-36780000D02*
X107440000Y-38400000D01*
D33*
X109950000Y-29500000D02*
X110940000Y-29500000D01*
D31*
X31750000Y-101346000D02*
X31750000Y-160147000D01*
D32*
X76960000Y-105360000D02*
X76960000Y-106980000D01*
D33*
X200780000Y-99855000D02*
X201180000Y-99455000D01*
X230222500Y-31275000D02*
X231260000Y-31275000D01*
X78860000Y-99855000D02*
X79260000Y-99455000D01*
X199742500Y-31275000D02*
X200780000Y-31275000D01*
X232870000Y-35100000D02*
X233660000Y-35100000D01*
D32*
X107440000Y-105360000D02*
X107440000Y-106980000D01*
D31*
X223520000Y-83820000D02*
X213360000Y-83820000D01*
D34*
X31750000Y-98044000D02*
X31750000Y-101346000D01*
D31*
X240665000Y-99290000D02*
X240665000Y-100220000D01*
X71120000Y-152400000D02*
X60960000Y-152400000D01*
X44478000Y-58420000D02*
X44478000Y-57362000D01*
D33*
X201390000Y-98080000D02*
X202380000Y-98080000D01*
D31*
X60960000Y-152400000D02*
X43815000Y-152400000D01*
X220980000Y-83820000D02*
X223520000Y-83820000D01*
D33*
X230222500Y-32575000D02*
X230222500Y-33450000D01*
D32*
X198880000Y-36780000D02*
X198880000Y-38400000D01*
D31*
X41717000Y-73152000D02*
X43749000Y-71120000D01*
X48199000Y-62550000D02*
X48133000Y-62484000D01*
X71120000Y-152400000D02*
X91440000Y-152400000D01*
D34*
X38535000Y-50215000D02*
X39370000Y-51050000D01*
X39882000Y-35437000D02*
X39370000Y-35437000D01*
X39370000Y-51050000D02*
X39370000Y-54102000D01*
D33*
X108302500Y-101155000D02*
X108302500Y-102030000D01*
D31*
X44294500Y-57178500D02*
X42742000Y-55626000D01*
X49149000Y-66548000D02*
X49149000Y-64958000D01*
X34295000Y-54610000D02*
X34290000Y-54615000D01*
X101600000Y-152400000D02*
X121920000Y-152400000D01*
D33*
X102577500Y-30625000D02*
X102340000Y-29100000D01*
X171910000Y-35100000D02*
X172700000Y-35100000D01*
D31*
X36450000Y-57785000D02*
X36450000Y-56388000D01*
D32*
X168400000Y-36780000D02*
X168400000Y-38400000D01*
D33*
X202390000Y-35100000D02*
X203180000Y-35100000D01*
D32*
X168400000Y-105360000D02*
X168400000Y-106980000D01*
D33*
X163537500Y-30625000D02*
X163300000Y-29100000D01*
D31*
X45720000Y-152400000D02*
X43815000Y-152400000D01*
D33*
X108302500Y-32575000D02*
X108302500Y-33450000D01*
D34*
X45583000Y-66548000D02*
X44577000Y-66548000D01*
D32*
X226860000Y-36780000D02*
X226860000Y-38400000D01*
D31*
X44007000Y-70862000D02*
X43749000Y-71120000D01*
D33*
X200780000Y-31275000D02*
X201180000Y-30875000D01*
D31*
X162560000Y-152400000D02*
X152400000Y-152400000D01*
X232410000Y-93730000D02*
X232410000Y-95250000D01*
X48133000Y-161798000D02*
X48260000Y-161671000D01*
D32*
X137920000Y-105360000D02*
X137920000Y-106980000D01*
D31*
X48260000Y-161671000D02*
X48260000Y-152400000D01*
X45339000Y-70862000D02*
X44007000Y-70862000D01*
X223520000Y-152400000D02*
X213360000Y-152400000D01*
X243430000Y-58630000D02*
X242577500Y-57777500D01*
X132080000Y-83820000D02*
X152400000Y-83820000D01*
D33*
X201390000Y-29500000D02*
X202380000Y-29500000D01*
D34*
X40894000Y-36449000D02*
X39882000Y-35437000D01*
D31*
X34925000Y-160655000D02*
X46990000Y-160655000D01*
X36450000Y-54610000D02*
X34295000Y-54610000D01*
D33*
X140430000Y-98080000D02*
X141420000Y-98080000D01*
D31*
X101600000Y-83820000D02*
X121920000Y-83820000D01*
X242577500Y-57777500D02*
X241430000Y-56630000D01*
D32*
X135420000Y-36780000D02*
X135420000Y-38400000D01*
D33*
X231870000Y-29500000D02*
X232860000Y-29500000D01*
X138782500Y-31275000D02*
X139820000Y-31275000D01*
X199742500Y-101155000D02*
X199742500Y-102030000D01*
X231260000Y-31275000D02*
X231660000Y-30875000D01*
X72097500Y-99205000D02*
X71860000Y-97680000D01*
D35*
X53200000Y-29000000D02*
X54700000Y-29700000D01*
D33*
X170910000Y-98080000D02*
X171900000Y-98080000D01*
X71977500Y-30525000D02*
X71740000Y-29000000D01*
D32*
X74460000Y-105360000D02*
X74460000Y-106980000D01*
D31*
X71120000Y-83820000D02*
X60960000Y-83820000D01*
X31750000Y-160147000D02*
X33401000Y-161798000D01*
D33*
X194017500Y-30625000D02*
X193780000Y-29100000D01*
D32*
X196380000Y-36780000D02*
X196380000Y-38400000D01*
D31*
X47687000Y-70862000D02*
X48199000Y-71374000D01*
D33*
X108302500Y-31275000D02*
X109340000Y-31275000D01*
D31*
X45720000Y-159385000D02*
X45720000Y-154305000D01*
D33*
X199742500Y-32575000D02*
X199742500Y-33450000D01*
X138782500Y-101155000D02*
X138782500Y-102030000D01*
D31*
X40640000Y-135572500D02*
X36195000Y-140017500D01*
D33*
X138782500Y-99855000D02*
X139820000Y-99855000D01*
D31*
X193040000Y-152400000D02*
X182880000Y-152400000D01*
D33*
X171910000Y-103680000D02*
X172700000Y-103680000D01*
D31*
X243515000Y-91555000D02*
X242570000Y-91555000D01*
D34*
X41309000Y-43400000D02*
X41275000Y-43434000D01*
D33*
X231260000Y-99855000D02*
X231660000Y-99455000D01*
X77822500Y-101155000D02*
X77822500Y-102030000D01*
X138782500Y-32575000D02*
X138782500Y-33450000D01*
X230222500Y-101155000D02*
X230222500Y-102030000D01*
D32*
X229360000Y-36780000D02*
X229360000Y-38400000D01*
D31*
X162560000Y-152400000D02*
X182880000Y-152400000D01*
D33*
X202390000Y-103680000D02*
X203180000Y-103680000D01*
D31*
X241929000Y-64643000D02*
X240411000Y-64643000D01*
X46990000Y-160655000D02*
X46990000Y-153670000D01*
D33*
X108302500Y-99855000D02*
X109340000Y-99855000D01*
X109340000Y-99855000D02*
X109740000Y-99455000D01*
X139820000Y-31275000D02*
X140220000Y-30875000D01*
X79350000Y-29400000D02*
X80340000Y-29400000D01*
X139820000Y-99855000D02*
X140220000Y-99455000D01*
D31*
X41717000Y-73406000D02*
X41717000Y-73152000D01*
D33*
X169262500Y-32575000D02*
X169262500Y-33450000D01*
D31*
X71120000Y-83820000D02*
X91440000Y-83820000D01*
X49149000Y-64958000D02*
X48199000Y-64008000D01*
D33*
X170300000Y-31275000D02*
X170700000Y-30875000D01*
D34*
X42430000Y-43400000D02*
X41309000Y-43400000D01*
D31*
X193040000Y-152400000D02*
X213360000Y-152400000D01*
D35*
X53200000Y-49800000D02*
X54700000Y-49099999D01*
D31*
X36195000Y-159385000D02*
X45720000Y-159385000D01*
X132080000Y-83820000D02*
X121920000Y-83820000D01*
D33*
X110950000Y-103680000D02*
X111740000Y-103680000D01*
X78740000Y-31175000D02*
X79140000Y-30775000D01*
X77702500Y-31175000D02*
X78740000Y-31175000D01*
D32*
X51520000Y-39800000D02*
X50500000Y-39800000D01*
D33*
X79470000Y-98080000D02*
X80460000Y-98080000D01*
D31*
X243430000Y-59690000D02*
X243430000Y-58630000D01*
X193040000Y-83820000D02*
X213360000Y-83820000D01*
X34925000Y-118715000D02*
X34925000Y-119380000D01*
D32*
X104940000Y-36780000D02*
X104940000Y-38400000D01*
D33*
X170910000Y-29500000D02*
X171900000Y-29500000D01*
D31*
X48260000Y-152400000D02*
X43815000Y-152400000D01*
D33*
X80470000Y-103680000D02*
X81260000Y-103680000D01*
D35*
X53200000Y-29000000D02*
X54700000Y-28300000D01*
D33*
X169262500Y-101155000D02*
X169262500Y-102030000D01*
X169262500Y-31275000D02*
X170300000Y-31275000D01*
X80350000Y-35000000D02*
X81140000Y-35000000D01*
X169262500Y-99855000D02*
X170300000Y-99855000D01*
D32*
X229360000Y-105360000D02*
X229360000Y-106980000D01*
D31*
X48199000Y-64008000D02*
X48199000Y-62550000D01*
D33*
X224497500Y-99205000D02*
X224260000Y-97680000D01*
X141430000Y-35100000D02*
X142220000Y-35100000D01*
D31*
X40640000Y-133480000D02*
X40640000Y-135572500D01*
X43815000Y-142240000D02*
X43815000Y-152400000D01*
X241877500Y-90862500D02*
X240665000Y-89650000D01*
D33*
X199742500Y-99855000D02*
X200780000Y-99855000D01*
D31*
X162560000Y-83820000D02*
X182880000Y-83820000D01*
X46289000Y-70862000D02*
X45339000Y-70862000D01*
D32*
X165900000Y-105360000D02*
X165900000Y-106980000D01*
D33*
X170300000Y-99855000D02*
X170700000Y-99455000D01*
D34*
X38535000Y-43765000D02*
X39900000Y-43300000D01*
D31*
X101600000Y-152400000D02*
X91440000Y-152400000D01*
D32*
X76840000Y-36680000D02*
X76840000Y-38300000D01*
X196380000Y-105360000D02*
X196380000Y-106980000D01*
D33*
X231870000Y-98080000D02*
X232860000Y-98080000D01*
D31*
X40640000Y-113000000D02*
X34925000Y-118715000D01*
D33*
X232870000Y-103680000D02*
X233660000Y-103680000D01*
X77702500Y-32475000D02*
X77702500Y-33350000D01*
D35*
X53200000Y-49800000D02*
X54700000Y-50500000D01*
D31*
X132080000Y-152400000D02*
X152400000Y-152400000D01*
D33*
X110950000Y-35100000D02*
X111740000Y-35100000D01*
X109340000Y-31275000D02*
X109740000Y-30875000D01*
D31*
X33401000Y-161798000D02*
X48133000Y-161798000D01*
D33*
X109950000Y-98080000D02*
X110940000Y-98080000D01*
D31*
X240720000Y-100275000D02*
X242160000Y-101715000D01*
D33*
X133057500Y-30625000D02*
X132820000Y-29100000D01*
X140430000Y-29500000D02*
X141420000Y-29500000D01*
D31*
X240665000Y-100220000D02*
X240720000Y-100275000D01*
X162560000Y-83820000D02*
X152400000Y-83820000D01*
D32*
X135420000Y-105360000D02*
X135420000Y-106980000D01*
D33*
X230222500Y-99855000D02*
X231260000Y-99855000D01*
D32*
X137920000Y-36780000D02*
X137920000Y-38400000D01*
D33*
X163537500Y-99205000D02*
X163300000Y-97680000D01*
D31*
X132080000Y-152400000D02*
X121920000Y-152400000D01*
D34*
X42926000Y-36449000D02*
X40894000Y-36449000D01*
D33*
X77822500Y-99855000D02*
X78860000Y-99855000D01*
D31*
X45720000Y-154305000D02*
X43815000Y-152400000D01*
D32*
X74340000Y-36680000D02*
X74340000Y-38300000D01*
X104940000Y-105360000D02*
X104940000Y-106980000D01*
D31*
X101600000Y-83820000D02*
X91440000Y-83820000D01*
D33*
X224497500Y-30625000D02*
X224260000Y-29100000D01*
X102577500Y-99205000D02*
X102340000Y-97680000D01*
X133057500Y-99205000D02*
X132820000Y-97680000D01*
D31*
X36450000Y-56388000D02*
X36450000Y-54610000D01*
D32*
X198880000Y-105360000D02*
X198880000Y-106980000D01*
X165900000Y-36780000D02*
X165900000Y-38400000D01*
D31*
X34925000Y-119380000D02*
X34925000Y-160655000D01*
X36195000Y-140017500D02*
X36195000Y-159385000D01*
X46990000Y-153670000D02*
X45720000Y-152400000D01*
X193040000Y-83820000D02*
X182880000Y-83820000D01*
D34*
X34290000Y-95504000D02*
X31750000Y-98044000D01*
D35*
X49725000Y-35800000D02*
X49725000Y-33600000D01*
D31*
X44478000Y-57362000D02*
X44294500Y-57178500D01*
X242570000Y-91555000D02*
X241877500Y-90862500D01*
D33*
X141430000Y-103680000D02*
X142220000Y-103680000D01*
X194017500Y-99205000D02*
X193780000Y-97680000D01*
D32*
X226860000Y-105360000D02*
X226860000Y-106980000D01*
D33*
X224497500Y-99855000D02*
X223760000Y-99855000D01*
X60840000Y-27840000D02*
X60840000Y-27940000D01*
D35*
X70640000Y-27840000D02*
X70640000Y-27940000D01*
D31*
X55880000Y-65405000D02*
X55880000Y-72000000D01*
D35*
X55880000Y-27940000D02*
X228000000Y-27940000D01*
D31*
X55880000Y-78740000D02*
X55880000Y-101600000D01*
X55880000Y-101600000D02*
X55880000Y-111760000D01*
X232410000Y-88900000D02*
X232410000Y-87630000D01*
D33*
X132320000Y-31275000D02*
X131720000Y-30675000D01*
X101840000Y-99855000D02*
X101240000Y-99255000D01*
D31*
X41275000Y-136842500D02*
X55880000Y-122237500D01*
D33*
X101840000Y-31275000D02*
X101240000Y-30675000D01*
D31*
X48067000Y-73660000D02*
X46289000Y-71882000D01*
D33*
X133057500Y-31275000D02*
X132320000Y-31275000D01*
X132320000Y-99855000D02*
X131720000Y-99255000D01*
X71977500Y-31175000D02*
X71240000Y-31175000D01*
X193280000Y-31275000D02*
X192680000Y-30675000D01*
X193280000Y-99855000D02*
X192680000Y-99255000D01*
X223760000Y-99855000D02*
X223160000Y-99255000D01*
X71240000Y-31175000D02*
X70640000Y-30575000D01*
D36*
X55880000Y-27940000D02*
X55880000Y-43180000D01*
D33*
X224497500Y-31275000D02*
X223760000Y-31275000D01*
X71360000Y-99855000D02*
X70760000Y-99255000D01*
D31*
X41275000Y-142240000D02*
X41275000Y-152400000D01*
D33*
X102577500Y-99855000D02*
X101840000Y-99855000D01*
X72097500Y-99855000D02*
X71360000Y-99855000D01*
D31*
X48199000Y-73660000D02*
X44159000Y-73660000D01*
D33*
X163537500Y-99855000D02*
X162800000Y-99855000D01*
X102577500Y-31275000D02*
X101840000Y-31275000D01*
D31*
X245615000Y-95380000D02*
X247015000Y-93980000D01*
X55880000Y-43180000D02*
X55880000Y-65405000D01*
D33*
X194017500Y-31275000D02*
X193280000Y-31275000D01*
D31*
X44159000Y-73660000D02*
X43749000Y-74070000D01*
X246380000Y-52820000D02*
X246380000Y-51181000D01*
D33*
X133057500Y-99855000D02*
X132320000Y-99855000D01*
D31*
X41717000Y-74366000D02*
X43453000Y-74366000D01*
D35*
X55880000Y-96520000D02*
X223160000Y-96520000D01*
D31*
X41275000Y-142240000D02*
X41275000Y-136842500D01*
X245615000Y-95480000D02*
X245615000Y-95380000D01*
X245615000Y-84585000D02*
X245745000Y-84455000D01*
X55880000Y-72000000D02*
X55880000Y-76454000D01*
D33*
X194017500Y-99855000D02*
X193280000Y-99855000D01*
X163537500Y-31275000D02*
X162800000Y-31275000D01*
D31*
X55880000Y-76454000D02*
X55880000Y-78740000D01*
D33*
X162800000Y-99855000D02*
X162200000Y-99255000D01*
D31*
X48199000Y-73660000D02*
X48067000Y-73660000D01*
X245615000Y-85840000D02*
X245615000Y-84585000D01*
D33*
X223760000Y-31275000D02*
X223160000Y-30675000D01*
D31*
X53279000Y-78740000D02*
X55880000Y-78740000D01*
X48199000Y-73660000D02*
X53279000Y-78740000D01*
D33*
X162800000Y-31275000D02*
X162200000Y-30675000D01*
D31*
X43453000Y-74366000D02*
X43749000Y-74070000D01*
X55880000Y-122237500D02*
X55880000Y-111760000D01*
D34*
X33020000Y-55245000D02*
X33020000Y-51730000D01*
X34290000Y-56515000D02*
X33020000Y-55245000D01*
X33020000Y-51730000D02*
X33440000Y-51310000D01*
D31*
X43750000Y-41650000D02*
X43750000Y-43100000D01*
X43750000Y-43100000D02*
X43450000Y-43400000D01*
X50230000Y-61341000D02*
X50101000Y-61470000D01*
X50101000Y-64006000D02*
X50099000Y-64008000D01*
X50230000Y-55626000D02*
X50230000Y-61341000D01*
X50101000Y-61470000D02*
X50101000Y-64006000D01*
X50099000Y-64008000D02*
X50099000Y-66548000D01*
X50099000Y-71374000D02*
X50099000Y-73660000D01*
X50099000Y-68823000D02*
X50099000Y-71374000D01*
D34*
X33762000Y-45740000D02*
X38535000Y-45740000D01*
X32131000Y-47371000D02*
X33762000Y-45740000D01*
X32131000Y-56627000D02*
X32131000Y-47371000D01*
X38100000Y-57785000D02*
X37275000Y-58610000D01*
X37275000Y-58610000D02*
X34114000Y-58610000D01*
X34114000Y-58610000D02*
X32131000Y-56627000D01*
X35687000Y-52197000D02*
X35687000Y-49657000D01*
X35687000Y-49657000D02*
X36604000Y-48740000D01*
X36604000Y-48740000D02*
X38535000Y-48740000D01*
X38100000Y-54610000D02*
X35687000Y-52197000D01*
X47498000Y-67249000D02*
X41709870Y-67249000D01*
X41709870Y-67249000D02*
X31131000Y-56670130D01*
X41654000Y-61470000D02*
X49081000Y-61470000D01*
D31*
X37456000Y-36631000D02*
X37456000Y-36558000D01*
D34*
X31131000Y-38568000D02*
X33166000Y-36533000D01*
X31131000Y-56670130D02*
X31131000Y-38568000D01*
X42037000Y-65659000D02*
X41402000Y-65024000D01*
X48199000Y-66548000D02*
X47498000Y-67249000D01*
X46543000Y-66548000D02*
X46543000Y-66238001D01*
X45963999Y-65659000D02*
X42037000Y-65659000D01*
D31*
X37456000Y-36558000D02*
X33256000Y-36558000D01*
D34*
X46543000Y-66238001D02*
X45963999Y-65659000D01*
X41402000Y-61722000D02*
X41654000Y-61470000D01*
X46543000Y-66548000D02*
X48199000Y-66548000D01*
X41402000Y-65024000D02*
X41402000Y-61722000D01*
X234962500Y-116840000D02*
X234962500Y-133350000D01*
X240665000Y-95480000D02*
X237625000Y-95480000D01*
X237490000Y-95615000D02*
X235500000Y-97605000D01*
X235500000Y-108500000D02*
X232012500Y-111987500D01*
X237625000Y-95480000D02*
X237490000Y-95615000D01*
X232012500Y-116840000D02*
X232012500Y-129286000D01*
X235500000Y-97605000D02*
X235500000Y-108500000D01*
X232012500Y-111987500D02*
X232012500Y-116840000D01*
X234950000Y-138430000D02*
X234950000Y-154940000D01*
X247025000Y-96750000D02*
X245615000Y-96750000D01*
X234700000Y-107500000D02*
X231087500Y-111112500D01*
X234700000Y-96770000D02*
X234700000Y-107500000D01*
X238760000Y-92710000D02*
X234700000Y-96770000D01*
X248285000Y-95490000D02*
X247025000Y-96750000D01*
X238760000Y-92710000D02*
X246734950Y-92710000D01*
X232000000Y-138430000D02*
X231087500Y-137517500D01*
X232000000Y-138430000D02*
X232000000Y-150876000D01*
X246734950Y-92710000D02*
X248285000Y-94260050D01*
X248285000Y-94260050D02*
X248285000Y-95490000D01*
X231087500Y-111112500D02*
X231087500Y-137517500D01*
D31*
X245630000Y-91555000D02*
X245745000Y-91440000D01*
X245110000Y-99795000D02*
X245615000Y-99290000D01*
X240550000Y-55360000D02*
X239522000Y-56388000D01*
X232156000Y-85090000D02*
X231610000Y-85636000D01*
X245110000Y-101715000D02*
X245110000Y-100330000D01*
X232410000Y-91440000D02*
X232410000Y-89920000D01*
X232410000Y-92710000D02*
X232410000Y-91440000D01*
X244475000Y-91555000D02*
X245630000Y-91555000D01*
X246380000Y-57912000D02*
X246380000Y-56630000D01*
X231610000Y-85636000D02*
X231610000Y-90640000D01*
X239165000Y-98020000D02*
X238760000Y-98425000D01*
X245110000Y-100330000D02*
X245110000Y-99795000D01*
X231610000Y-90640000D02*
X232410000Y-91440000D01*
X241430000Y-55360000D02*
X240550000Y-55360000D01*
X246380000Y-59690000D02*
X246380000Y-57912000D01*
X240665000Y-98020000D02*
X239165000Y-98020000D01*
D10*
X236220000Y-78740000D02*
X236220000Y-86995000D01*
D34*
X238760000Y-76200000D02*
X238760000Y-68832000D01*
X236220000Y-86995000D02*
X237605000Y-88380000D01*
X237605000Y-88380000D02*
X240665000Y-88380000D01*
X237105000Y-61845000D02*
X237105000Y-61468000D01*
D10*
X238760000Y-76200000D02*
X236220000Y-78740000D01*
D34*
X241806000Y-63500000D02*
X238760000Y-63500000D01*
X242949000Y-64643000D02*
X241806000Y-63500000D01*
X244979000Y-64643000D02*
X242949000Y-64643000D01*
X238760000Y-68832000D02*
X242949000Y-64643000D01*
X238760000Y-63500000D02*
X237105000Y-61845000D01*
X243840000Y-76200000D02*
X248920000Y-76200000D01*
X249682000Y-74422000D02*
X250317000Y-73787000D01*
X238125000Y-86745000D02*
X237455000Y-86075000D01*
D10*
X241300000Y-76200000D02*
X241300000Y-82550000D01*
D34*
X237455000Y-86075000D02*
X237455000Y-83855000D01*
X249047000Y-62738000D02*
X249047000Y-64389000D01*
X237455000Y-83855000D02*
X238760000Y-82550000D01*
X238760000Y-82550000D02*
X241300000Y-82550000D01*
X241681000Y-74422000D02*
X249682000Y-74422000D01*
X241300000Y-82550000D02*
X246380000Y-82550000D01*
X249047000Y-64389000D02*
X248793000Y-64643000D01*
X248793000Y-64643000D02*
X245999000Y-64643000D01*
X246380000Y-82550000D02*
X248285000Y-84455000D01*
X248285000Y-84455000D02*
X248285000Y-88900000D01*
X247535000Y-89650000D02*
X245615000Y-89650000D01*
X250317000Y-73787000D02*
X250317000Y-61468000D01*
X241300000Y-74803000D02*
X241681000Y-74422000D01*
X248285000Y-88900000D02*
X247535000Y-89650000D01*
X241300000Y-76200000D02*
X241300000Y-74803000D01*
X250317000Y-61468000D02*
X249047000Y-62738000D01*
X236855000Y-143035000D02*
X243840000Y-150020000D01*
X232037500Y-133350000D02*
X236855000Y-138167500D01*
X236855000Y-138167500D02*
X236855000Y-143035000D01*
X235405000Y-158320000D02*
X243840000Y-158320000D01*
X232025000Y-154940000D02*
X235405000Y-158320000D01*
X246213000Y-132247000D02*
X246213000Y-141612000D01*
X240665000Y-85840000D02*
X240665000Y-87110000D01*
X249874000Y-86487000D02*
X249936000Y-86549000D01*
X240550000Y-85725000D02*
X240665000Y-85840000D01*
X240665000Y-87110000D02*
X239280000Y-87110000D01*
X249936000Y-115076695D02*
X250223000Y-115363695D01*
X250223000Y-115363695D02*
X250223000Y-128237000D01*
X238125000Y-85725000D02*
X240550000Y-85725000D01*
X239280000Y-87110000D02*
X238760000Y-87630000D01*
X250223000Y-128237000D02*
X246213000Y-132247000D01*
X249936000Y-86549000D02*
X249936000Y-115076695D01*
X246775000Y-98020000D02*
X245615000Y-98020000D01*
X248285000Y-96510000D02*
X246775000Y-98020000D01*
X248410000Y-98030000D02*
X248410000Y-96635000D01*
X248410000Y-96635000D02*
X248285000Y-96510000D01*
X243713000Y-114989894D02*
X243713000Y-123832000D01*
X248410000Y-99050000D02*
X248410000Y-110292894D01*
X248410000Y-110292894D02*
X243713000Y-114989894D01*
X236855000Y-125730000D02*
X243713000Y-132588000D01*
X237490000Y-98925000D02*
X236855000Y-99560000D01*
X236855000Y-99560000D02*
X236855000Y-125730000D01*
X243713000Y-132588000D02*
X243713000Y-141612000D01*
X237490000Y-97905000D02*
X237490000Y-96635000D01*
X237490000Y-96635000D02*
X240550000Y-96635000D01*
X240550000Y-96635000D02*
X240665000Y-96750000D01*
X245615000Y-87110000D02*
X245615000Y-88380000D01*
X246900000Y-88380000D02*
X247015000Y-88265000D01*
X246213000Y-113197000D02*
X246213000Y-123832000D01*
X245615000Y-88380000D02*
X246900000Y-88380000D01*
X249174000Y-110236000D02*
X246213000Y-113197000D01*
X249047000Y-88265000D02*
X249174000Y-88392000D01*
X249174000Y-88392000D02*
X249174000Y-110236000D01*
X248081000Y-55360000D02*
X248982000Y-56261000D01*
X248982000Y-61153000D02*
X249297000Y-61468000D01*
X246380000Y-55360000D02*
X248081000Y-55360000D01*
X248982000Y-56261000D02*
X248982000Y-61153000D01*
X248920000Y-53340000D02*
X248170000Y-54090000D01*
X249275000Y-53340000D02*
X248920000Y-53340000D01*
X248170000Y-54090000D02*
X246380000Y-54090000D01*
X250632000Y-56261000D02*
X250632000Y-54697000D01*
X250632000Y-54697000D02*
X249275000Y-53340000D01*
X238379000Y-53594000D02*
X238379000Y-55114000D01*
X238379000Y-53594000D02*
X239153000Y-52820000D01*
X239153000Y-52820000D02*
X241430000Y-52820000D01*
X238379000Y-55114000D02*
X237105000Y-56388000D01*
X240738000Y-54090000D02*
X241430000Y-54090000D01*
X238440000Y-61153000D02*
X238125000Y-61468000D01*
X238440000Y-56388000D02*
X238440000Y-61153000D01*
X238440000Y-56388000D02*
X240738000Y-54090000D01*
X250825000Y-50800000D02*
X250444000Y-50419000D01*
X250825000Y-53340000D02*
X250825000Y-50800000D01*
X236829000Y-51969000D02*
X238125000Y-50673000D01*
X236829000Y-53594000D02*
X236829000Y-51969000D01*
X249424000Y-50419000D02*
X249424000Y-49444000D01*
X249424000Y-49444000D02*
X243840000Y-43860000D01*
X237105000Y-42295000D02*
X243840000Y-35560000D01*
X237105000Y-50673000D02*
X237105000Y-42295000D01*
D31*
X33246000Y-34333000D02*
X37446000Y-34333000D01*
D34*
X39370000Y-34417000D02*
X37465000Y-34417000D01*
X37465000Y-34417000D02*
X37356000Y-34308000D01*
D35*
X72840000Y-21200000D02*
X72840000Y-21300000D01*
D32*
X52480000Y-39800000D02*
X53500000Y-39800000D01*
D37*
X49200000Y-29000000D02*
X47900000Y-29000000D01*
D33*
X133057500Y-32575000D02*
X133920000Y-33400000D01*
D37*
X47900000Y-21300000D02*
X58500000Y-21300000D01*
D33*
X194017500Y-32575000D02*
X194880000Y-33400000D01*
X102577500Y-32575000D02*
X103440000Y-33400000D01*
D36*
X53337500Y-43800000D02*
X53637499Y-43800000D01*
D33*
X71977500Y-32475000D02*
X72840000Y-33299999D01*
D36*
X53337500Y-43800000D02*
X54637499Y-43800000D01*
D33*
X224497500Y-32575000D02*
X225360000Y-33400000D01*
D37*
X58500000Y-89880000D02*
X226000000Y-89880000D01*
D35*
X52675000Y-35800000D02*
X53800000Y-35800000D01*
D37*
X58500000Y-21300000D02*
X226000000Y-21300000D01*
D33*
X194017500Y-101155000D02*
X194880000Y-101980000D01*
X72097500Y-101155000D02*
X72960000Y-101980000D01*
X133057500Y-101155000D02*
X133920000Y-101980000D01*
X163537500Y-32575000D02*
X164400000Y-33400000D01*
X224497500Y-101155000D02*
X225360000Y-101980000D01*
X163537500Y-101155000D02*
X164400000Y-101980000D01*
X102577500Y-101155000D02*
X103440000Y-101980000D01*
D37*
X47900000Y-29000000D02*
X47900000Y-21300000D01*
D33*
X77702500Y-30525000D02*
X78330000Y-29897500D01*
X78330000Y-29897500D02*
X78330000Y-29400000D01*
X108930000Y-29997500D02*
X108930000Y-29500000D01*
X108302500Y-30625000D02*
X108930000Y-29997500D01*
X138782500Y-30625000D02*
X139410000Y-29997500D01*
X139410000Y-29997500D02*
X139410000Y-29500000D01*
X169890000Y-29997500D02*
X169890000Y-29500000D01*
X169262500Y-30625000D02*
X169890000Y-29997500D01*
X200370000Y-29997500D02*
X200370000Y-29500000D01*
X199742500Y-30625000D02*
X200370000Y-29997500D01*
X230222500Y-30625000D02*
X230850000Y-29997500D01*
X230850000Y-29997500D02*
X230850000Y-29500000D01*
X77822500Y-99205000D02*
X78450000Y-98577500D01*
X78450000Y-98577500D02*
X78450000Y-98080000D01*
X108930000Y-98577500D02*
X108930000Y-98080000D01*
X108302500Y-99205000D02*
X108930000Y-98577500D01*
X138782500Y-99205000D02*
X139410000Y-98577500D01*
X139410000Y-98577500D02*
X139410000Y-98080000D01*
X169262500Y-99205000D02*
X169890000Y-98577500D01*
X169890000Y-98577500D02*
X169890000Y-98080000D01*
X199742500Y-99205000D02*
X200370000Y-98577500D01*
X200370000Y-98577500D02*
X200370000Y-98080000D01*
X230222500Y-99205000D02*
X230850000Y-98577500D01*
X230850000Y-98577500D02*
X230850000Y-98080000D01*
X62840000Y-34200000D02*
X79330000Y-34200000D01*
X79330000Y-31825000D02*
X79330000Y-35000000D01*
X77702500Y-31825000D02*
X79330000Y-31825000D01*
X93440000Y-34300000D02*
X109930000Y-34300000D01*
X109930000Y-31925000D02*
X109930000Y-35100000D01*
X108302500Y-31925000D02*
X109930000Y-31925000D01*
X123920000Y-34300000D02*
X140410000Y-34300000D01*
X138782500Y-31925000D02*
X140410000Y-31925000D01*
X140410000Y-31925000D02*
X140410000Y-35100000D01*
X154400000Y-34300000D02*
X170890000Y-34300000D01*
X170890000Y-31925000D02*
X170890000Y-35100000D01*
X169262500Y-31925000D02*
X170890000Y-31925000D01*
X199742500Y-31925000D02*
X201370000Y-31925000D01*
X184880000Y-34300000D02*
X201370000Y-34300000D01*
X201370000Y-31925000D02*
X201370000Y-35100000D01*
X230222500Y-31925000D02*
X231850000Y-31925000D01*
X215360000Y-34300000D02*
X231850000Y-34300000D01*
X231850000Y-31925000D02*
X231850000Y-35100000D01*
X77822500Y-100505000D02*
X79450000Y-100505000D01*
X79450000Y-100505000D02*
X79450000Y-103680000D01*
X62960000Y-102880000D02*
X79450000Y-102880000D01*
X109930000Y-100505000D02*
X109930000Y-103680000D01*
X93440000Y-102880000D02*
X109930000Y-102880000D01*
X108302500Y-100505000D02*
X109930000Y-100505000D01*
X140410000Y-100505000D02*
X140410000Y-103680000D01*
X138782500Y-100505000D02*
X140410000Y-100505000D01*
X123920000Y-102880000D02*
X140410000Y-102880000D01*
X154400000Y-102880000D02*
X170890000Y-102880000D01*
X169262500Y-100505000D02*
X170890000Y-100505000D01*
X170890000Y-100505000D02*
X170890000Y-103680000D01*
X199742500Y-100505000D02*
X201370000Y-100505000D01*
X184880000Y-102880000D02*
X201370000Y-102880000D01*
X201370000Y-100505000D02*
X201370000Y-103680000D01*
X230222500Y-100505000D02*
X231850000Y-100505000D01*
X231850000Y-100505000D02*
X231850000Y-103680000D01*
X215360000Y-102880000D02*
X231850000Y-102880000D01*
D31*
X41200000Y-47000000D02*
X42362500Y-47000000D01*
X41200000Y-45940000D02*
X41200000Y-47000000D01*
D37*
X41200000Y-47000000D02*
X42362500Y-47000000D01*
D31*
X39800000Y-49440000D02*
X41200000Y-48040000D01*
X41200000Y-48040000D02*
X41200000Y-47000000D01*
X39800000Y-44540000D02*
X41200000Y-45940000D01*
X38535000Y-44540000D02*
X39800000Y-44540000D01*
X38535000Y-49440000D02*
X39800000Y-49440000D01*
D34*
X47600000Y-43800000D02*
X47600000Y-40000000D01*
D37*
X47600000Y-47000000D02*
X47600000Y-49800000D01*
D31*
X45692000Y-55626000D02*
X45692000Y-58166000D01*
D36*
X47600000Y-49800000D02*
X47600000Y-53718000D01*
D34*
X47600000Y-40000000D02*
X46000000Y-38400000D01*
D31*
X45692000Y-58166000D02*
X45438000Y-58420000D01*
D37*
X46637500Y-47000000D02*
X47600000Y-47000000D01*
D34*
X46000000Y-38400000D02*
X42175000Y-38400000D01*
D36*
X47600000Y-53718000D02*
X45692000Y-55626000D01*
D37*
X47600000Y-47000000D02*
X47600000Y-43800000D01*
D31*
X45692000Y-55626000D02*
X48330000Y-55626000D01*
D37*
X47600000Y-43800000D02*
X49062500Y-43800000D01*
D34*
X42175000Y-38400000D02*
X42175000Y-41650000D01*
D37*
X47600000Y-49800000D02*
X49200000Y-49800000D01*
D36*
X60840000Y-38000000D02*
X71000000Y-38000000D01*
D33*
X71977500Y-31825000D02*
X70640000Y-31825000D01*
D32*
X74340000Y-35720000D02*
X74340000Y-35100000D01*
X76840000Y-35720000D02*
X76840000Y-35100000D01*
X104940000Y-35820000D02*
X104940000Y-35200000D01*
D36*
X91440000Y-38100000D02*
X101600000Y-38100000D01*
D33*
X102577500Y-31925000D02*
X101240000Y-31925000D01*
D32*
X107440000Y-35820000D02*
X107440000Y-35200000D01*
D33*
X133057500Y-31925000D02*
X131720000Y-31925000D01*
D32*
X135420000Y-35820000D02*
X135420000Y-35200000D01*
X137920000Y-35820000D02*
X137920000Y-35200000D01*
D36*
X121920000Y-38100000D02*
X132080000Y-38100000D01*
D32*
X165900000Y-35820000D02*
X165900000Y-35200000D01*
D33*
X163537500Y-31925000D02*
X162200000Y-31925000D01*
D36*
X152400000Y-38100000D02*
X162560000Y-38100000D01*
D32*
X168400000Y-35820000D02*
X168400000Y-35200000D01*
D33*
X194017500Y-31925000D02*
X192680000Y-31925000D01*
D32*
X198880000Y-35820000D02*
X198880000Y-35200000D01*
X196380000Y-35820000D02*
X196380000Y-35200000D01*
D36*
X182880000Y-38100000D02*
X193040000Y-38100000D01*
D32*
X226860000Y-35820000D02*
X226860000Y-35200000D01*
X229360000Y-35820000D02*
X229360000Y-35200000D01*
D33*
X224497500Y-31925000D02*
X223160000Y-31925000D01*
D36*
X213360000Y-38100000D02*
X223520000Y-38100000D01*
D32*
X76960000Y-104400000D02*
X76960000Y-103780000D01*
X74460000Y-104400000D02*
X74460000Y-103780000D01*
D36*
X60960000Y-106680000D02*
X71120000Y-106680000D01*
D33*
X72097500Y-100505000D02*
X70760000Y-100505000D01*
X102577500Y-100505000D02*
X101240000Y-100505000D01*
D36*
X91440000Y-106680000D02*
X101600000Y-106680000D01*
D32*
X104940000Y-104400000D02*
X104940000Y-103780000D01*
X107440000Y-104400000D02*
X107440000Y-103780000D01*
X135420000Y-104400000D02*
X135420000Y-103780000D01*
D33*
X133057500Y-100505000D02*
X131720000Y-100505000D01*
D32*
X137920000Y-104400000D02*
X137920000Y-103780000D01*
D36*
X121920000Y-106680000D02*
X132080000Y-106680000D01*
D32*
X168400000Y-104400000D02*
X168400000Y-103780000D01*
X165900000Y-104400000D02*
X165900000Y-103780000D01*
D36*
X152400000Y-106680000D02*
X162560000Y-106680000D01*
D33*
X163537500Y-100505000D02*
X162200000Y-100505000D01*
D36*
X182880000Y-106680000D02*
X193040000Y-106680000D01*
D32*
X196380000Y-104400000D02*
X196380000Y-103780000D01*
X198880000Y-104400000D02*
X198880000Y-103780000D01*
D33*
X194017500Y-100505000D02*
X192680000Y-100505000D01*
X224497500Y-100505000D02*
X223160000Y-100505000D01*
D32*
X229360000Y-104400000D02*
X229360000Y-103780000D01*
X226860000Y-104400000D02*
X226860000Y-103780000D01*
D36*
X213360000Y-106680000D02*
X223520000Y-106680000D01*
M02*
