M48
; DRILL file KiCad 10.0.6-10.0.6~ubuntu26.04.1 date 2026-10-05T09:33:06
; FORMAT={-:-/ absolute / metric / decimal}
; #@! TF.CreationDate,2026-10-05T09:33:06+05:30
; #@! TF.GenerationSoftware,Kicad,Pcbnew,10.0.6-10.0.6~ubuntu26.04.1
; #@! TF.FileFunction,Plated,1,2,PTH
FMAT,2
METRIC
; #@! TA.AperFunction,Plated,PTH,ViaDrill
T1C0.300
; #@! TA.AperFunction,Plated,PTH,ViaDrill
T2C0.400
; #@! TA.AperFunction,Plated,PTH,ViaDrill
T3C0.500
; #@! TA.AperFunction,Plated,PTH,ComponentDrill
T4C0.600
; #@! TA.AperFunction,Plated,PTH,ComponentDrill
T5C0.800
; #@! TA.AperFunction,Plated,PTH,ComponentDrill
T6C1.000
; #@! TA.AperFunction,Plated,PTH,ComponentDrill
T7C1.100
; #@! TA.AperFunction,Plated,PTH,ViaDrill
T8C3.200
%
G90
G05
T1
X3.81Y82.296
X5.97Y121.412
X8.89Y123.698
X10.795Y134.366
X12.446Y141.351
X12.954Y115.316
X12.954Y114.554
X12.954Y113.792
X13.814Y120.621
X13.843Y115.316
X13.843Y114.554
X13.843Y113.792
X14.097Y111.252
X14.732Y115.316
X14.732Y114.554
X14.732Y113.792
X14.859Y106.938
X15.748Y115.316
X15.748Y114.554
X15.748Y113.792
X16.764Y115.316
X17.653Y115.316
X201.676Y92.71
X201.93Y90.17
X201.93Y86.36
X201.93Y82.55
X208.28Y90.17
X208.28Y79.375
X209.042Y121.412
X210.24Y77.525
X211.397Y86.938
X212.097Y120.022
X214.63Y77.47
X215.265Y93.345
X215.265Y86.36
X215.9Y126.619
X215.9Y119.888
X216.535Y89.535
X216.535Y83.82
X218.567Y89.535
X219.394Y91.313
T2
X9.42Y134.5
X17.12Y130.8
X19.245Y144.2
X20.02Y138.0
X23.02Y138.0
X23.32Y142.0
X24.22Y149.5
X24.22Y148.1
X24.22Y128.7
X24.22Y127.3
X26.82Y152.7
X26.82Y144.3
X26.82Y132.0
X26.82Y90.3
X30.36Y152.7
X30.48Y90.3
X40.36Y149.96
X40.36Y148.0
X40.36Y145.0
X40.48Y81.28
X40.48Y79.32
X40.48Y76.32
X42.51Y152.7
X42.51Y148.4
X42.63Y90.3
X42.63Y79.72
X45.86Y144.2
X45.86Y142.8
X45.98Y75.52
X45.98Y74.12
X46.66Y144.8
X46.78Y76.12
X47.36Y156.6
X47.36Y145.65
X47.48Y87.92
X47.48Y76.97
X50.66Y142.8
X50.78Y74.12
X60.96Y152.7
X60.96Y90.3
X70.96Y149.86
X70.96Y147.9
X70.96Y144.9
X70.96Y81.28
X70.96Y79.32
X70.96Y76.32
X73.11Y152.7
X73.11Y148.3
X73.11Y90.3
X73.11Y79.72
X76.46Y144.1
X76.46Y142.7
X76.46Y75.52
X76.46Y74.12
X77.26Y144.7
X77.26Y76.12
X77.96Y156.5
X77.96Y145.55
X77.96Y87.92
X77.96Y76.97
X81.26Y142.7
X81.26Y74.12
X91.44Y152.7
X91.44Y90.3
X101.44Y149.86
X101.44Y147.9
X101.44Y144.9
X101.44Y81.28
X101.44Y79.32
X101.44Y76.32
X103.59Y152.7
X103.59Y148.3
X103.59Y90.3
X103.59Y79.72
X106.94Y144.1
X106.94Y142.7
X106.94Y75.52
X106.94Y74.12
X107.74Y144.7
X107.74Y76.12
X108.44Y156.5
X108.44Y145.55
X108.44Y87.92
X108.44Y76.97
X111.74Y142.7
X111.74Y74.12
X121.92Y152.7
X121.92Y90.3
X131.92Y149.86
X131.92Y147.9
X131.92Y144.9
X131.92Y81.28
X131.92Y79.32
X131.92Y76.32
X134.07Y152.7
X134.07Y148.3
X134.07Y90.3
X134.07Y79.72
X137.42Y144.1
X137.42Y142.7
X137.42Y75.52
X137.42Y74.12
X138.22Y144.7
X138.22Y76.12
X138.92Y156.5
X138.92Y145.55
X138.92Y87.92
X138.92Y76.97
X142.22Y142.7
X142.22Y74.12
X152.4Y152.7
X152.4Y90.3
X162.4Y149.86
X162.4Y147.9
X162.4Y144.9
X162.4Y81.28
X162.4Y79.32
X162.4Y76.32
X164.55Y152.7
X164.55Y148.3
X164.55Y90.3
X164.55Y79.72
X167.9Y144.1
X167.9Y142.7
X167.9Y75.52
X167.9Y74.12
X168.7Y144.7
X168.7Y76.12
X169.4Y156.5
X169.4Y145.55
X169.4Y87.92
X169.4Y76.97
X172.7Y142.7
X172.7Y74.12
X182.88Y152.7
X182.88Y90.3
X192.88Y149.86
X192.88Y147.9
X192.88Y144.9
X192.88Y81.28
X192.88Y79.32
X192.88Y76.32
X195.03Y152.7
X195.03Y148.3
X195.03Y90.3
X195.03Y79.72
X197.52Y149.86
X198.38Y144.1
X198.38Y142.7
X198.38Y75.52
X198.38Y74.12
X199.18Y144.7
X199.18Y76.12
X199.52Y81.8
X199.88Y148.8
X199.88Y145.55
X199.88Y76.97
X203.18Y142.7
X203.18Y74.12
X210.02Y106.8
X212.979Y114.046
X213.92Y84.15
X214.22Y108.8
X214.65Y94.5
X215.12Y111.0
X217.32Y107.5
X217.65Y127.2
X217.72Y109.45
X217.82Y111.9
X217.92Y98.4
X219.52Y109.8
X219.52Y107.6
X219.62Y112.8
X219.837Y115.3
X221.82Y111.8
T3
X23.157Y134.0
X24.157Y134.0
X28.02Y156.5
X28.02Y87.92
X29.22Y156.5
X29.22Y87.92
T5
X30.36Y143.6
X30.48Y74.92
X32.36Y143.6
X32.48Y74.92
X60.96Y143.5
X60.96Y74.92
X62.96Y143.5
X62.96Y74.92
X91.44Y143.5
X91.44Y74.92
X93.44Y143.5
X93.44Y74.92
X121.92Y143.5
X121.92Y74.92
X123.92Y143.5
X123.92Y74.92
X152.4Y143.5
X152.4Y74.92
X154.4Y143.5
X154.4Y74.92
X182.88Y143.5
X182.88Y74.92
X184.88Y143.5
X184.88Y74.92
X217.52Y105.4
X219.52Y105.4
T6
X10.795Y35.56
X10.795Y33.02
X10.795Y30.48
X10.795Y27.94
X10.795Y25.4
X13.335Y35.56
X13.335Y33.02
X13.335Y30.48
X13.335Y27.94
X13.335Y25.4
X30.36Y139.8
X30.48Y93.98
X30.48Y71.12
X30.48Y25.4
X32.9Y139.8
X33.02Y93.98
X33.02Y71.12
X33.02Y25.4
X35.44Y139.8
X35.56Y93.98
X35.56Y71.12
X35.56Y25.4
X37.98Y139.8
X38.1Y93.98
X38.1Y71.12
X38.1Y25.4
X40.52Y139.8
X40.64Y93.98
X40.64Y71.12
X40.64Y25.4
X60.96Y139.7
X60.96Y93.98
X60.96Y71.12
X60.96Y25.4
X63.5Y139.7
X63.5Y93.98
X63.5Y71.12
X63.5Y25.4
X66.04Y139.7
X66.04Y93.98
X66.04Y71.12
X66.04Y25.4
X68.58Y139.7
X68.58Y93.98
X68.58Y71.12
X68.58Y25.4
X71.12Y139.7
X71.12Y93.98
X71.12Y71.12
X71.12Y25.4
X91.44Y139.7
X91.44Y93.98
X91.44Y71.12
X91.44Y25.4
X93.98Y139.7
X93.98Y93.98
X93.98Y71.12
X93.98Y25.4
X96.52Y139.7
X96.52Y93.98
X96.52Y71.12
X96.52Y25.4
X99.06Y139.7
X99.06Y93.98
X99.06Y71.12
X99.06Y25.4
X101.6Y139.7
X101.6Y93.98
X101.6Y71.12
X101.6Y25.4
X121.92Y139.7
X121.92Y93.98
X121.92Y71.12
X121.92Y25.4
X124.46Y139.7
X124.46Y93.98
X124.46Y71.12
X124.46Y25.4
X127.0Y139.7
X127.0Y93.98
X127.0Y71.12
X127.0Y25.4
X129.54Y139.7
X129.54Y93.98
X129.54Y71.12
X129.54Y25.4
X132.08Y139.7
X132.08Y93.98
X132.08Y71.12
X132.08Y25.4
X152.4Y139.7
X152.4Y93.98
X152.4Y71.12
X152.4Y25.4
X154.94Y139.7
X154.94Y93.98
X154.94Y71.12
X154.94Y25.4
X157.48Y139.7
X157.48Y93.98
X157.48Y71.12
X157.48Y25.4
X160.02Y139.7
X160.02Y93.98
X160.02Y71.12
X160.02Y25.4
X162.56Y139.7
X162.56Y93.98
X162.56Y71.12
X162.56Y25.4
X182.88Y139.7
X182.88Y93.98
X182.88Y71.12
X182.88Y25.4
X185.42Y139.7
X185.42Y93.98
X185.42Y71.12
X185.42Y25.4
X187.96Y139.7
X187.96Y93.98
X187.96Y71.12
X187.96Y25.4
X190.5Y139.7
X190.5Y93.98
X190.5Y71.12
X190.5Y25.4
X193.04Y139.7
X193.04Y93.98
X193.04Y71.12
X193.04Y25.4
X208.28Y101.6
X210.733Y53.968
X210.733Y36.188
X210.82Y101.6
X213.233Y53.968
X213.233Y36.188
X213.36Y101.6
X215.733Y53.968
X215.733Y36.188
X215.9Y101.6
X218.44Y101.6
T8
X7.62Y152.4
X7.62Y7.62
X36.978Y146.685
X36.978Y78.105
X37.385Y84.455
X37.385Y15.875
X67.458Y146.685
X67.458Y78.105
X67.865Y84.455
X67.865Y15.875
X97.938Y146.685
X97.938Y78.105
X98.345Y84.455
X98.345Y15.875
X128.418Y146.685
X128.418Y78.105
X128.825Y84.455
X128.825Y15.875
X158.898Y146.685
X158.898Y78.105
X159.305Y84.455
X159.305Y15.875
X189.378Y146.685
X189.378Y78.105
X189.785Y84.455
X189.785Y15.875
X215.9Y152.4
X215.9Y7.62
T4
G00X3.26Y135.13
M15
G01X2.66Y135.13
M16
G05
G00X3.26Y126.49
M15
G01X2.66Y126.49
M16
G05
G00X7.69Y135.13
M15
G01X6.59Y135.13
M16
G05
G00X7.69Y126.49
M15
G01X6.59Y126.49
M16
G05
G00X9.66Y76.2
M15
G01X10.66Y76.2
M16
G05
G00X9.66Y67.9
M15
G01X10.66Y67.9
M16
G05
G00X9.66Y64.8
M15
G01X10.66Y64.8
M16
G05
G00X9.66Y55.72
M15
G01X10.66Y55.72
M16
G05
G00X9.66Y47.42
M15
G01X10.66Y47.42
M16
G05
G00X9.66Y44.32
M15
G01X10.66Y44.32
M16
G05
G00X212.86Y142.24
M15
G01X213.86Y142.24
M16
G05
G00X212.86Y133.94
M15
G01X213.86Y133.94
M16
G05
G00X212.86Y130.84
M15
G01X213.86Y130.84
M16
G05
G00X212.86Y27.78
M15
G01X213.86Y27.78
M16
G05
G00X212.86Y19.48
M15
G01X213.86Y19.48
M16
G05
G00X212.86Y16.38
M15
G01X213.86Y16.38
M16
G05
T7
G00X208.433Y60.868
M15
G01X208.433Y62.068
M16
G05
G00X208.433Y43.088
M15
G01X208.433Y44.288
M16
G05
G00X218.033Y60.868
M15
G01X218.033Y62.068
M16
G05
G00X218.033Y43.088
M15
G01X218.033Y44.288
M16
G05
M30
