G04 #@! TF.GenerationSoftware,KiCad,Pcbnew,9.0.8+dfsg-1*
G04 #@! TF.CreationDate,2026-09-17T14:27:52+05:30*
G04 #@! TF.ProjectId,base,62617365-2e6b-4696-9361-645f70636258,rev?*
G04 #@! TF.SameCoordinates,Original*
G04 #@! TF.FileFunction,Legend,Bot*
G04 #@! TF.FilePolarity,Positive*
%FSLAX46Y46*%
G04 Gerber Fmt 4.6, Leading zero omitted, Abs format (unit mm)*
G04 Created by KiCad (PCBNEW 9.0.8+dfsg-1) date 2026-09-17 14:27:52*
%MOMM*%
%LPD*%
G01*
G04 APERTURE LIST*
%ADD10O,3.100000X2.100000*%
%ADD11O,2.720000X3.240000*%
%ADD12R,1.800000X1.800000*%
%ADD13C,1.800000*%
%ADD14R,1.350000X1.350000*%
%ADD15C,1.350000*%
%ADD16R,2.000000X2.000000*%
%ADD17O,2.000000X2.000000*%
%ADD18C,0.650000*%
%ADD19O,2.100000X1.000000*%
%ADD20O,1.600000X1.000000*%
%ADD21R,1.700000X1.700000*%
%ADD22O,1.700000X1.700000*%
G04 APERTURE END LIST*
%LPC*%
G36*
G01*
X39340000Y-131030000D02*
X39340000Y-129730000D01*
G75*
G02*
X39990000Y-129080000I650000J0D01*
G01*
X41290000Y-129080000D01*
G75*
G02*
X41940000Y-129730000I0J-650000D01*
G01*
X41940000Y-131030000D01*
G75*
G02*
X41290000Y-131680000I-650000J0D01*
G01*
X39990000Y-131680000D01*
G75*
G02*
X39340000Y-131030000I0J650000D01*
G01*
G37*
D10*
X40640000Y-133480000D03*
G36*
G01*
X39340000Y-122730000D02*
X39340000Y-121430000D01*
G75*
G02*
X39990000Y-120780000I650000J0D01*
G01*
X41290000Y-120780000D01*
G75*
G02*
X41940000Y-121430000I0J-650000D01*
G01*
X41940000Y-122730000D01*
G75*
G02*
X41290000Y-123380000I-650000J0D01*
G01*
X39990000Y-123380000D01*
G75*
G02*
X39340000Y-122730000I0J650000D01*
G01*
G37*
D11*
X238913000Y-134112000D03*
X248513000Y-134112000D03*
D12*
X241213000Y-141612000D03*
D13*
X243713000Y-141612000D03*
X246213000Y-141612000D03*
D14*
X60960000Y-102880000D03*
D15*
X62960000Y-102880000D03*
D14*
X152400000Y-102880000D03*
D15*
X154400000Y-102880000D03*
D16*
X101600000Y-83820000D03*
D17*
X99060000Y-83820000D03*
X96520000Y-83820000D03*
X93980000Y-83820000D03*
X91440000Y-83820000D03*
G36*
G01*
X242540000Y-158970000D02*
X242540000Y-157670000D01*
G75*
G02*
X243190000Y-157020000I650000J0D01*
G01*
X244490000Y-157020000D01*
G75*
G02*
X245140000Y-157670000I0J-650000D01*
G01*
X245140000Y-158970000D01*
G75*
G02*
X244490000Y-159620000I-650000J0D01*
G01*
X243190000Y-159620000D01*
G75*
G02*
X242540000Y-158970000I0J650000D01*
G01*
G37*
D10*
X243840000Y-161420000D03*
G36*
G01*
X242540000Y-150670000D02*
X242540000Y-149370000D01*
G75*
G02*
X243190000Y-148720000I650000J0D01*
G01*
X244490000Y-148720000D01*
G75*
G02*
X245140000Y-149370000I0J-650000D01*
G01*
X245140000Y-150670000D01*
G75*
G02*
X244490000Y-151320000I-650000J0D01*
G01*
X243190000Y-151320000D01*
G75*
G02*
X242540000Y-150670000I0J650000D01*
G01*
G37*
G36*
G01*
X39340000Y-110550000D02*
X39340000Y-109250000D01*
G75*
G02*
X39990000Y-108600000I650000J0D01*
G01*
X41290000Y-108600000D01*
G75*
G02*
X41940000Y-109250000I0J-650000D01*
G01*
X41940000Y-110550000D01*
G75*
G02*
X41290000Y-111200000I-650000J0D01*
G01*
X39990000Y-111200000D01*
G75*
G02*
X39340000Y-110550000I0J650000D01*
G01*
G37*
X40640000Y-113000000D03*
G36*
G01*
X39340000Y-102250000D02*
X39340000Y-100950000D01*
G75*
G02*
X39990000Y-100300000I650000J0D01*
G01*
X41290000Y-100300000D01*
G75*
G02*
X41940000Y-100950000I0J-650000D01*
G01*
X41940000Y-102250000D01*
G75*
G02*
X41290000Y-102900000I-650000J0D01*
G01*
X39990000Y-102900000D01*
G75*
G02*
X39340000Y-102250000I0J650000D01*
G01*
G37*
D16*
X101600000Y-152400000D03*
D17*
X99060000Y-152400000D03*
X96520000Y-152400000D03*
X93980000Y-152400000D03*
X91440000Y-152400000D03*
D16*
X193040000Y-38100000D03*
D17*
X190500000Y-38100000D03*
X187960000Y-38100000D03*
X185420000Y-38100000D03*
X182880000Y-38100000D03*
D14*
X91440000Y-34300000D03*
D15*
X93440000Y-34300000D03*
D16*
X223520000Y-152400000D03*
D17*
X220980000Y-152400000D03*
X218440000Y-152400000D03*
X215900000Y-152400000D03*
X213360000Y-152400000D03*
D18*
X37090000Y-44100000D03*
X37090000Y-49880000D03*
D19*
X37620000Y-42670000D03*
D20*
X33440000Y-42670000D03*
D19*
X37620000Y-51310000D03*
D20*
X33440000Y-51310000D03*
D21*
X41275000Y-152400000D03*
D22*
X43815000Y-152400000D03*
X41275000Y-149860000D03*
X43815000Y-149860000D03*
X41275000Y-147320000D03*
X43815000Y-147320000D03*
X41275000Y-144780000D03*
X43815000Y-144780000D03*
X41275000Y-142240000D03*
X43815000Y-142240000D03*
D11*
X238913000Y-116332000D03*
X248513000Y-116332000D03*
D12*
X241213000Y-123832000D03*
D13*
X243713000Y-123832000D03*
X246213000Y-123832000D03*
D16*
X132080000Y-38100000D03*
D17*
X129540000Y-38100000D03*
X127000000Y-38100000D03*
X124460000Y-38100000D03*
X121920000Y-38100000D03*
D16*
X223520000Y-106680000D03*
D17*
X220980000Y-106680000D03*
X218440000Y-106680000D03*
X215900000Y-106680000D03*
X213360000Y-106680000D03*
D16*
X71120000Y-106680000D03*
D17*
X68580000Y-106680000D03*
X66040000Y-106680000D03*
X63500000Y-106680000D03*
X60960000Y-106680000D03*
D16*
X71120000Y-152400000D03*
D17*
X68580000Y-152400000D03*
X66040000Y-152400000D03*
X63500000Y-152400000D03*
X60960000Y-152400000D03*
D14*
X182880000Y-34300000D03*
D15*
X184880000Y-34300000D03*
D16*
X101600000Y-106680000D03*
D17*
X99060000Y-106680000D03*
X96520000Y-106680000D03*
X93980000Y-106680000D03*
X91440000Y-106680000D03*
D16*
X162560000Y-152400000D03*
D17*
X160020000Y-152400000D03*
X157480000Y-152400000D03*
X154940000Y-152400000D03*
X152400000Y-152400000D03*
D14*
X213360000Y-102880000D03*
D15*
X215360000Y-102880000D03*
D14*
X91440000Y-102880000D03*
D15*
X93440000Y-102880000D03*
D16*
X223520000Y-83820000D03*
D17*
X220980000Y-83820000D03*
X218440000Y-83820000D03*
X215900000Y-83820000D03*
X213360000Y-83820000D03*
D16*
X132080000Y-152400000D03*
D17*
X129540000Y-152400000D03*
X127000000Y-152400000D03*
X124460000Y-152400000D03*
X121920000Y-152400000D03*
D14*
X121920000Y-34300000D03*
D15*
X123920000Y-34300000D03*
D16*
X132080000Y-83820000D03*
D17*
X129540000Y-83820000D03*
X127000000Y-83820000D03*
X124460000Y-83820000D03*
X121920000Y-83820000D03*
D16*
X162560000Y-106680000D03*
D17*
X160020000Y-106680000D03*
X157480000Y-106680000D03*
X154940000Y-106680000D03*
X152400000Y-106680000D03*
D16*
X193040000Y-83820000D03*
D17*
X190500000Y-83820000D03*
X187960000Y-83820000D03*
X185420000Y-83820000D03*
X182880000Y-83820000D03*
D14*
X60840000Y-34200000D03*
D15*
X62840000Y-34200000D03*
D16*
X162560000Y-38100000D03*
D17*
X160020000Y-38100000D03*
X157480000Y-38100000D03*
X154940000Y-38100000D03*
X152400000Y-38100000D03*
D16*
X71120000Y-83820000D03*
D17*
X68580000Y-83820000D03*
X66040000Y-83820000D03*
X63500000Y-83820000D03*
X60960000Y-83820000D03*
D16*
X71000000Y-38000000D03*
D17*
X68460000Y-38000000D03*
X65920000Y-38000000D03*
X63380000Y-38000000D03*
X60840000Y-38000000D03*
D16*
X162560000Y-83820000D03*
D17*
X160020000Y-83820000D03*
X157480000Y-83820000D03*
X154940000Y-83820000D03*
X152400000Y-83820000D03*
D14*
X182880000Y-102880000D03*
D15*
X184880000Y-102880000D03*
D14*
X213360000Y-34300000D03*
D15*
X215360000Y-34300000D03*
D14*
X121920000Y-102880000D03*
D15*
X123920000Y-102880000D03*
D21*
X238760000Y-76200000D03*
D22*
X241300000Y-76200000D03*
X243840000Y-76200000D03*
X246380000Y-76200000D03*
X248920000Y-76200000D03*
D16*
X223520000Y-38100000D03*
D17*
X220980000Y-38100000D03*
X218440000Y-38100000D03*
X215900000Y-38100000D03*
X213360000Y-38100000D03*
D16*
X193040000Y-152400000D03*
D17*
X190500000Y-152400000D03*
X187960000Y-152400000D03*
X185420000Y-152400000D03*
X182880000Y-152400000D03*
D14*
X152400000Y-34300000D03*
D15*
X154400000Y-34300000D03*
D16*
X132080000Y-106680000D03*
D17*
X129540000Y-106680000D03*
X127000000Y-106680000D03*
X124460000Y-106680000D03*
X121920000Y-106680000D03*
D16*
X193040000Y-106680000D03*
D17*
X190500000Y-106680000D03*
X187960000Y-106680000D03*
X185420000Y-106680000D03*
X182880000Y-106680000D03*
G36*
G01*
X242540000Y-44510000D02*
X242540000Y-43210000D01*
G75*
G02*
X243190000Y-42560000I650000J0D01*
G01*
X244490000Y-42560000D01*
G75*
G02*
X245140000Y-43210000I0J-650000D01*
G01*
X245140000Y-44510000D01*
G75*
G02*
X244490000Y-45160000I-650000J0D01*
G01*
X243190000Y-45160000D01*
G75*
G02*
X242540000Y-44510000I0J650000D01*
G01*
G37*
D10*
X243840000Y-46960000D03*
G36*
G01*
X242540000Y-36210000D02*
X242540000Y-34910000D01*
G75*
G02*
X243190000Y-34260000I650000J0D01*
G01*
X244490000Y-34260000D01*
G75*
G02*
X245140000Y-34910000I0J-650000D01*
G01*
X245140000Y-36210000D01*
G75*
G02*
X244490000Y-36860000I-650000J0D01*
G01*
X243190000Y-36860000D01*
G75*
G02*
X242540000Y-36210000I0J650000D01*
G01*
G37*
D16*
X101600000Y-38100000D03*
D17*
X99060000Y-38100000D03*
X96520000Y-38100000D03*
X93980000Y-38100000D03*
X91440000Y-38100000D03*
%LPD*%
M02*
