G04 #@! TF.GenerationSoftware,KiCad,Pcbnew,10.0.6-10.0.6~ubuntu26.04.1*
G04 #@! TF.CreationDate,2026-10-05T09:33:06+05:30*
G04 #@! TF.ProjectId,base,62617365-2e6b-4696-9361-645f70636258,rev?*
G04 #@! TF.SameCoordinates,Original*
G04 #@! TF.FileFunction,Legend,Bot*
G04 #@! TF.FilePolarity,Positive*
%FSLAX46Y46*%
G04 Gerber Fmt 4.6, Leading zero omitted, Abs format (unit mm)*
G04 Created by KiCad (PCBNEW 10.0.6-10.0.6~ubuntu26.04.1) date 2026-10-05 09:33:06*
%MOMM*%
%LPD*%
G01*
G04 APERTURE LIST*
%ADD10O,3.100000X2.100000*%
%ADD11O,2.720000X3.240000*%
%ADD12R,1.800000X1.800000*%
%ADD13C,1.800000*%
%ADD14R,1.350000X1.350000*%
%ADD15C,1.350000*%
%ADD16R,2.000000X2.000000*%
%ADD17O,2.000000X2.000000*%
%ADD18C,0.650000*%
%ADD19O,2.100000X1.000000*%
%ADD20O,1.600000X1.000000*%
%ADD21R,1.700000X1.700000*%
%ADD22O,1.700000X1.700000*%
G04 APERTURE END LIST*
%LPC*%
G36*
G01*
X8860000Y46770000D02*
X8860000Y48070000D01*
G75*
G02*
X9510000Y48720000I650000J0D01*
G01*
X10810000Y48720000D01*
G75*
G02*
X11460000Y48070000I0J-650000D01*
G01*
X11460000Y46770000D01*
G75*
G02*
X10810000Y46120000I-650000J0D01*
G01*
X9510000Y46120000D01*
G75*
G02*
X8860000Y46770000I0J650000D01*
G01*
G37*
D10*
X10160000Y44320000D03*
G36*
G01*
X8860000Y55070000D02*
X8860000Y56370000D01*
G75*
G02*
X9510000Y57020000I650000J0D01*
G01*
X10810000Y57020000D01*
G75*
G02*
X11460000Y56370000I0J-650000D01*
G01*
X11460000Y55070000D01*
G75*
G02*
X10810000Y54420000I-650000J0D01*
G01*
X9510000Y54420000D01*
G75*
G02*
X8860000Y55070000I0J650000D01*
G01*
G37*
D11*
X208433000Y43688000D03*
X218033000Y43688000D03*
D12*
X210733000Y36188000D03*
D13*
X213233000Y36188000D03*
X215733000Y36188000D03*
D14*
X91440000Y143500000D03*
D15*
X93440000Y143500000D03*
D14*
X121920000Y143500000D03*
D15*
X123920000Y143500000D03*
D14*
X60960000Y74920000D03*
D15*
X62960000Y74920000D03*
G36*
G01*
X212060000Y18830000D02*
X212060000Y20130000D01*
G75*
G02*
X212710000Y20780000I650000J0D01*
G01*
X214010000Y20780000D01*
G75*
G02*
X214660000Y20130000I0J-650000D01*
G01*
X214660000Y18830000D01*
G75*
G02*
X214010000Y18180000I-650000J0D01*
G01*
X212710000Y18180000D01*
G75*
G02*
X212060000Y18830000I0J650000D01*
G01*
G37*
D10*
X213360000Y16380000D03*
G36*
G01*
X212060000Y27130000D02*
X212060000Y28430000D01*
G75*
G02*
X212710000Y29080000I650000J0D01*
G01*
X214010000Y29080000D01*
G75*
G02*
X214660000Y28430000I0J-650000D01*
G01*
X214660000Y27130000D01*
G75*
G02*
X214010000Y26480000I-650000J0D01*
G01*
X212710000Y26480000D01*
G75*
G02*
X212060000Y27130000I0J650000D01*
G01*
G37*
G36*
G01*
X8860000Y67250000D02*
X8860000Y68550000D01*
G75*
G02*
X9510000Y69200000I650000J0D01*
G01*
X10810000Y69200000D01*
G75*
G02*
X11460000Y68550000I0J-650000D01*
G01*
X11460000Y67250000D01*
G75*
G02*
X10810000Y66600000I-650000J0D01*
G01*
X9510000Y66600000D01*
G75*
G02*
X8860000Y67250000I0J650000D01*
G01*
G37*
X10160000Y64800000D03*
G36*
G01*
X8860000Y75550000D02*
X8860000Y76850000D01*
G75*
G02*
X9510000Y77500000I650000J0D01*
G01*
X10810000Y77500000D01*
G75*
G02*
X11460000Y76850000I0J-650000D01*
G01*
X11460000Y75550000D01*
G75*
G02*
X10810000Y74900000I-650000J0D01*
G01*
X9510000Y74900000D01*
G75*
G02*
X8860000Y75550000I0J650000D01*
G01*
G37*
D14*
X152400000Y74920000D03*
D15*
X154400000Y74920000D03*
D14*
X30480000Y74920000D03*
D15*
X32480000Y74920000D03*
D16*
X71120000Y139700000D03*
D17*
X68580000Y139700000D03*
X66040000Y139700000D03*
X63500000Y139700000D03*
X60960000Y139700000D03*
D16*
X193040000Y71120000D03*
D17*
X190500000Y71120000D03*
X187960000Y71120000D03*
X185420000Y71120000D03*
X182880000Y71120000D03*
D14*
X30360000Y143600000D03*
D15*
X32360000Y143600000D03*
D16*
X71120000Y93980000D03*
D17*
X68580000Y93980000D03*
X66040000Y93980000D03*
X63500000Y93980000D03*
X60960000Y93980000D03*
D18*
X6610000Y133700000D03*
X6610000Y127920000D03*
D19*
X7140000Y135130000D03*
D20*
X2960000Y135130000D03*
D19*
X7140000Y126490000D03*
D20*
X2960000Y126490000D03*
D21*
X10795000Y25400000D03*
D22*
X13335000Y25400000D03*
X10795000Y27940000D03*
X13335000Y27940000D03*
X10795000Y30480000D03*
X13335000Y30480000D03*
X10795000Y33020000D03*
X13335000Y33020000D03*
X10795000Y35560000D03*
X13335000Y35560000D03*
D11*
X208433000Y61468000D03*
X218033000Y61468000D03*
D12*
X210733000Y53968000D03*
D13*
X213233000Y53968000D03*
X215733000Y53968000D03*
D16*
X132080000Y25400000D03*
D17*
X129540000Y25400000D03*
X127000000Y25400000D03*
X124460000Y25400000D03*
X121920000Y25400000D03*
D16*
X40640000Y25400000D03*
D17*
X38100000Y25400000D03*
X35560000Y25400000D03*
X33020000Y25400000D03*
X30480000Y25400000D03*
D16*
X101600000Y139700000D03*
D17*
X99060000Y139700000D03*
X96520000Y139700000D03*
X93980000Y139700000D03*
X91440000Y139700000D03*
D16*
X162560000Y93980000D03*
D17*
X160020000Y93980000D03*
X157480000Y93980000D03*
X154940000Y93980000D03*
X152400000Y93980000D03*
D16*
X193040000Y25400000D03*
D17*
X190500000Y25400000D03*
X187960000Y25400000D03*
X185420000Y25400000D03*
X182880000Y25400000D03*
D16*
X162560000Y25400000D03*
D17*
X160020000Y25400000D03*
X157480000Y25400000D03*
X154940000Y25400000D03*
X152400000Y25400000D03*
D16*
X132080000Y139700000D03*
D17*
X129540000Y139700000D03*
X127000000Y139700000D03*
X124460000Y139700000D03*
X121920000Y139700000D03*
D16*
X193040000Y93980000D03*
D17*
X190500000Y93980000D03*
X187960000Y93980000D03*
X185420000Y93980000D03*
X182880000Y93980000D03*
D14*
X182880000Y74920000D03*
D15*
X184880000Y74920000D03*
D14*
X60960000Y143500000D03*
D15*
X62960000Y143500000D03*
D16*
X162560000Y139700000D03*
D17*
X160020000Y139700000D03*
X157480000Y139700000D03*
X154940000Y139700000D03*
X152400000Y139700000D03*
D16*
X193040000Y139700000D03*
D17*
X190500000Y139700000D03*
X187960000Y139700000D03*
X185420000Y139700000D03*
X182880000Y139700000D03*
D16*
X132080000Y93980000D03*
D17*
X129540000Y93980000D03*
X127000000Y93980000D03*
X124460000Y93980000D03*
X121920000Y93980000D03*
D16*
X162560000Y71120000D03*
D17*
X160020000Y71120000D03*
X157480000Y71120000D03*
X154940000Y71120000D03*
X152400000Y71120000D03*
D14*
X217520000Y105400000D03*
D15*
X219520000Y105400000D03*
D16*
X101600000Y93980000D03*
D17*
X99060000Y93980000D03*
X96520000Y93980000D03*
X93980000Y93980000D03*
X91440000Y93980000D03*
D14*
X152400000Y143500000D03*
D15*
X154400000Y143500000D03*
D16*
X101600000Y25400000D03*
D17*
X99060000Y25400000D03*
X96520000Y25400000D03*
X93980000Y25400000D03*
X91440000Y25400000D03*
D14*
X121920000Y74920000D03*
D15*
X123920000Y74920000D03*
D16*
X71120000Y25400000D03*
D17*
X68580000Y25400000D03*
X66040000Y25400000D03*
X63500000Y25400000D03*
X60960000Y25400000D03*
D16*
X101600000Y71120000D03*
D17*
X99060000Y71120000D03*
X96520000Y71120000D03*
X93980000Y71120000D03*
X91440000Y71120000D03*
D16*
X71120000Y71120000D03*
D17*
X68580000Y71120000D03*
X66040000Y71120000D03*
X63500000Y71120000D03*
X60960000Y71120000D03*
D21*
X208280000Y101600000D03*
D22*
X210820000Y101600000D03*
X213360000Y101600000D03*
X215900000Y101600000D03*
X218440000Y101600000D03*
D16*
X40640000Y71120000D03*
D17*
X38100000Y71120000D03*
X35560000Y71120000D03*
X33020000Y71120000D03*
X30480000Y71120000D03*
D14*
X91440000Y74920000D03*
D15*
X93440000Y74920000D03*
D14*
X182880000Y143500000D03*
D15*
X184880000Y143500000D03*
D16*
X132080000Y71120000D03*
D17*
X129540000Y71120000D03*
X127000000Y71120000D03*
X124460000Y71120000D03*
X121920000Y71120000D03*
D16*
X40640000Y93980000D03*
D17*
X38100000Y93980000D03*
X35560000Y93980000D03*
X33020000Y93980000D03*
X30480000Y93980000D03*
D16*
X40520000Y139800000D03*
D17*
X37980000Y139800000D03*
X35440000Y139800000D03*
X32900000Y139800000D03*
X30360000Y139800000D03*
G36*
G01*
X212060000Y133290000D02*
X212060000Y134590000D01*
G75*
G02*
X212710000Y135240000I650000J0D01*
G01*
X214010000Y135240000D01*
G75*
G02*
X214660000Y134590000I0J-650000D01*
G01*
X214660000Y133290000D01*
G75*
G02*
X214010000Y132640000I-650000J0D01*
G01*
X212710000Y132640000D01*
G75*
G02*
X212060000Y133290000I0J650000D01*
G01*
G37*
D10*
X213360000Y130840000D03*
G36*
G01*
X212060000Y141590000D02*
X212060000Y142890000D01*
G75*
G02*
X212710000Y143540000I650000J0D01*
G01*
X214010000Y143540000D01*
G75*
G02*
X214660000Y142890000I0J-650000D01*
G01*
X214660000Y141590000D01*
G75*
G02*
X214010000Y140940000I-650000J0D01*
G01*
X212710000Y140940000D01*
G75*
G02*
X212060000Y141590000I0J650000D01*
G01*
G37*
%LPD*%
M02*
