G04 #@! TF.GenerationSoftware,KiCad,Pcbnew,10.0.6-10.0.6~ubuntu26.04.1*
G04 #@! TF.CreationDate,2026-10-05T10:20:50+05:30*
G04 #@! TF.ProjectId,base,62617365-2e6b-4696-9361-645f70636258,rev?*
G04 #@! TF.SameCoordinates,Original*
G04 #@! TF.FileFunction,Soldermask,Top*
G04 #@! TF.FilePolarity,Negative*
%FSLAX46Y46*%
G04 Gerber Fmt 4.6, Leading zero omitted, Abs format (unit mm)*
G04 Created by KiCad (PCBNEW 10.0.6-10.0.6~ubuntu26.04.1) date 2026-10-05 10:20:50*
%MOMM*%
%LPD*%
G01*
G04 APERTURE LIST*
%ADD10O,3.100000X2.100000*%
%ADD11O,2.720000X3.240000*%
%ADD12R,1.800000X1.800000*%
%ADD13C,1.800000*%
%ADD14R,1.350000X1.350000*%
%ADD15C,1.350000*%
%ADD16R,1.050000X0.650000*%
%ADD17R,2.000000X2.000000*%
%ADD18O,2.000000X2.000000*%
%ADD19C,0.650000*%
%ADD20R,1.450000X0.300000*%
%ADD21R,1.450000X0.600000*%
%ADD22O,2.100000X1.000000*%
%ADD23O,1.600000X1.000000*%
%ADD24R,1.700000X1.700000*%
%ADD25O,1.700000X1.700000*%
G04 APERTURE END LIST*
G36*
G01*
X207915000Y116517000D02*
X207915000Y116147000D01*
G75*
G02*
X207780000Y116012000I-135000J0D01*
G01*
X207510000Y116012000D01*
G75*
G02*
X207375000Y116147000I0J135000D01*
G01*
X207375000Y116517000D01*
G75*
G02*
X207510000Y116652000I135000J0D01*
G01*
X207780000Y116652000D01*
G75*
G02*
X207915000Y116517000I0J-135000D01*
G01*
G37*
G36*
G01*
X206895000Y116517000D02*
X206895000Y116147000D01*
G75*
G02*
X206760000Y116012000I-135000J0D01*
G01*
X206490000Y116012000D01*
G75*
G02*
X206355000Y116147000I0J135000D01*
G01*
X206355000Y116517000D01*
G75*
G02*
X206490000Y116652000I135000J0D01*
G01*
X206760000Y116652000D01*
G75*
G02*
X206895000Y116517000I0J-135000D01*
G01*
G37*
G36*
G01*
X197955000Y145550000D02*
X197955000Y145350000D01*
G75*
G02*
X197905000Y145300000I-50000J0D01*
G01*
X197335000Y145300000D01*
G75*
G02*
X197285000Y145350000I0J50000D01*
G01*
X197285000Y145550000D01*
G75*
G02*
X197335000Y145600000I50000J0D01*
G01*
X197905000Y145600000D01*
G75*
G02*
X197955000Y145550000I0J-50000D01*
G01*
G37*
G36*
G01*
X197955000Y146050000D02*
X197955000Y145850000D01*
G75*
G02*
X197905000Y145800000I-50000J0D01*
G01*
X197335000Y145800000D01*
G75*
G02*
X197285000Y145850000I0J50000D01*
G01*
X197285000Y146050000D01*
G75*
G02*
X197335000Y146100000I50000J0D01*
G01*
X197905000Y146100000D01*
G75*
G02*
X197955000Y146050000I0J-50000D01*
G01*
G37*
G36*
G01*
X197955000Y146550000D02*
X197955000Y146350000D01*
G75*
G02*
X197905000Y146300000I-50000J0D01*
G01*
X197335000Y146300000D01*
G75*
G02*
X197285000Y146350000I0J50000D01*
G01*
X197285000Y146550000D01*
G75*
G02*
X197335000Y146600000I50000J0D01*
G01*
X197905000Y146600000D01*
G75*
G02*
X197955000Y146550000I0J-50000D01*
G01*
G37*
G36*
G01*
X197955000Y147050000D02*
X197955000Y146850000D01*
G75*
G02*
X197905000Y146800000I-50000J0D01*
G01*
X197335000Y146800000D01*
G75*
G02*
X197285000Y146850000I0J50000D01*
G01*
X197285000Y147050000D01*
G75*
G02*
X197335000Y147100000I50000J0D01*
G01*
X197905000Y147100000D01*
G75*
G02*
X197955000Y147050000I0J-50000D01*
G01*
G37*
G36*
G01*
X196475000Y147050000D02*
X196475000Y146850000D01*
G75*
G02*
X196425000Y146800000I-50000J0D01*
G01*
X195855000Y146800000D01*
G75*
G02*
X195805000Y146850000I0J50000D01*
G01*
X195805000Y147050000D01*
G75*
G02*
X195855000Y147100000I50000J0D01*
G01*
X196425000Y147100000D01*
G75*
G02*
X196475000Y147050000I0J-50000D01*
G01*
G37*
G36*
G01*
X196475000Y146550000D02*
X196475000Y146350000D01*
G75*
G02*
X196425000Y146300000I-50000J0D01*
G01*
X195855000Y146300000D01*
G75*
G02*
X195805000Y146350000I0J50000D01*
G01*
X195805000Y146550000D01*
G75*
G02*
X195855000Y146600000I50000J0D01*
G01*
X196425000Y146600000D01*
G75*
G02*
X196475000Y146550000I0J-50000D01*
G01*
G37*
G36*
G01*
X196475000Y146050000D02*
X196475000Y145850000D01*
G75*
G02*
X196425000Y145800000I-50000J0D01*
G01*
X195855000Y145800000D01*
G75*
G02*
X195805000Y145850000I0J50000D01*
G01*
X195805000Y146050000D01*
G75*
G02*
X195855000Y146100000I50000J0D01*
G01*
X196425000Y146100000D01*
G75*
G02*
X196475000Y146050000I0J-50000D01*
G01*
G37*
G36*
G01*
X196475000Y145550000D02*
X196475000Y145350000D01*
G75*
G02*
X196425000Y145300000I-50000J0D01*
G01*
X195855000Y145300000D01*
G75*
G02*
X195805000Y145350000I0J50000D01*
G01*
X195805000Y145550000D01*
G75*
G02*
X195855000Y145600000I50000J0D01*
G01*
X196425000Y145600000D01*
G75*
G02*
X196475000Y145550000I0J-50000D01*
G01*
G37*
G36*
G01*
X218115000Y78480000D02*
X217745000Y78480000D01*
G75*
G02*
X217610000Y78615000I0J135000D01*
G01*
X217610000Y78885000D01*
G75*
G02*
X217745000Y79020000I135000J0D01*
G01*
X218115000Y79020000D01*
G75*
G02*
X218250000Y78885000I0J-135000D01*
G01*
X218250000Y78615000D01*
G75*
G02*
X218115000Y78480000I-135000J0D01*
G01*
G37*
G36*
G01*
X218115000Y79500000D02*
X217745000Y79500000D01*
G75*
G02*
X217610000Y79635000I0J135000D01*
G01*
X217610000Y79905000D01*
G75*
G02*
X217745000Y80040000I135000J0D01*
G01*
X218115000Y80040000D01*
G75*
G02*
X218250000Y79905000I0J-135000D01*
G01*
X218250000Y79635000D01*
G75*
G02*
X218115000Y79500000I-135000J0D01*
G01*
G37*
G36*
G01*
X8860000Y46770000D02*
X8860000Y48070000D01*
G75*
G02*
X9510000Y48720000I650000J0D01*
G01*
X10810000Y48720000D01*
G75*
G02*
X11460000Y48070000I0J-650000D01*
G01*
X11460000Y46770000D01*
G75*
G02*
X10810000Y46120000I-650000J0D01*
G01*
X9510000Y46120000D01*
G75*
G02*
X8860000Y46770000I0J650000D01*
G01*
G37*
D10*
X10160000Y44320000D03*
G36*
G01*
X8860000Y55070000D02*
X8860000Y56370000D01*
G75*
G02*
X9510000Y57020000I650000J0D01*
G01*
X10810000Y57020000D01*
G75*
G02*
X11460000Y56370000I0J-650000D01*
G01*
X11460000Y55070000D01*
G75*
G02*
X10810000Y54420000I-650000J0D01*
G01*
X9510000Y54420000D01*
G75*
G02*
X8860000Y55070000I0J650000D01*
G01*
G37*
D11*
X208433000Y43688000D03*
X218033000Y43688000D03*
D12*
X210733000Y36188000D03*
D13*
X213233000Y36188000D03*
X215733000Y36188000D03*
G36*
G01*
X196120000Y75350000D02*
X196120000Y75690000D01*
G75*
G02*
X196260000Y75830000I140000J0D01*
G01*
X196540000Y75830000D01*
G75*
G02*
X196680000Y75690000I0J-140000D01*
G01*
X196680000Y75350000D01*
G75*
G02*
X196540000Y75210000I-140000J0D01*
G01*
X196260000Y75210000D01*
G75*
G02*
X196120000Y75350000I0J140000D01*
G01*
G37*
G36*
G01*
X197080000Y75350000D02*
X197080000Y75690000D01*
G75*
G02*
X197220000Y75830000I140000J0D01*
G01*
X197500000Y75830000D01*
G75*
G02*
X197640000Y75690000I0J-140000D01*
G01*
X197640000Y75350000D01*
G75*
G02*
X197500000Y75210000I-140000J0D01*
G01*
X197220000Y75210000D01*
G75*
G02*
X197080000Y75350000I0J140000D01*
G01*
G37*
G36*
G01*
X200957500Y56215000D02*
X200957500Y57515000D01*
G75*
G02*
X201207500Y57765000I250000J0D01*
G01*
X201857500Y57765000D01*
G75*
G02*
X202107500Y57515000I0J-250000D01*
G01*
X202107500Y56215000D01*
G75*
G02*
X201857500Y55965000I-250000J0D01*
G01*
X201207500Y55965000D01*
G75*
G02*
X200957500Y56215000I0J250000D01*
G01*
G37*
G36*
G01*
X203907500Y56215000D02*
X203907500Y57515000D01*
G75*
G02*
X204157500Y57765000I250000J0D01*
G01*
X204807500Y57765000D01*
G75*
G02*
X205057500Y57515000I0J-250000D01*
G01*
X205057500Y56215000D01*
G75*
G02*
X204807500Y55965000I-250000J0D01*
G01*
X204157500Y55965000D01*
G75*
G02*
X203907500Y56215000I0J250000D01*
G01*
G37*
G36*
G01*
X215120000Y98215000D02*
X215120000Y98585000D01*
G75*
G02*
X215255000Y98720000I135000J0D01*
G01*
X215525000Y98720000D01*
G75*
G02*
X215660000Y98585000I0J-135000D01*
G01*
X215660000Y98215000D01*
G75*
G02*
X215525000Y98080000I-135000J0D01*
G01*
X215255000Y98080000D01*
G75*
G02*
X215120000Y98215000I0J135000D01*
G01*
G37*
G36*
G01*
X216140000Y98215000D02*
X216140000Y98585000D01*
G75*
G02*
X216275000Y98720000I135000J0D01*
G01*
X216545000Y98720000D01*
G75*
G02*
X216680000Y98585000I0J-135000D01*
G01*
X216680000Y98215000D01*
G75*
G02*
X216545000Y98080000I-135000J0D01*
G01*
X216275000Y98080000D01*
G75*
G02*
X216140000Y98215000I0J135000D01*
G01*
G37*
D14*
X91440000Y143500000D03*
D15*
X93440000Y143500000D03*
D14*
X121920000Y143500000D03*
D15*
X123920000Y143500000D03*
G36*
G01*
X104680000Y75350000D02*
X104680000Y75690000D01*
G75*
G02*
X104820000Y75830000I140000J0D01*
G01*
X105100000Y75830000D01*
G75*
G02*
X105240000Y75690000I0J-140000D01*
G01*
X105240000Y75350000D01*
G75*
G02*
X105100000Y75210000I-140000J0D01*
G01*
X104820000Y75210000D01*
G75*
G02*
X104680000Y75350000I0J140000D01*
G01*
G37*
G36*
G01*
X105640000Y75350000D02*
X105640000Y75690000D01*
G75*
G02*
X105780000Y75830000I140000J0D01*
G01*
X106060000Y75830000D01*
G75*
G02*
X106200000Y75690000I0J-140000D01*
G01*
X106200000Y75350000D01*
G75*
G02*
X106060000Y75210000I-140000J0D01*
G01*
X105780000Y75210000D01*
G75*
G02*
X105640000Y75350000I0J140000D01*
G01*
G37*
G36*
G01*
X48580000Y142615000D02*
X48580000Y142985000D01*
G75*
G02*
X48715000Y143120000I135000J0D01*
G01*
X48985000Y143120000D01*
G75*
G02*
X49120000Y142985000I0J-135000D01*
G01*
X49120000Y142615000D01*
G75*
G02*
X48985000Y142480000I-135000J0D01*
G01*
X48715000Y142480000D01*
G75*
G02*
X48580000Y142615000I0J135000D01*
G01*
G37*
G36*
G01*
X49600000Y142615000D02*
X49600000Y142985000D01*
G75*
G02*
X49735000Y143120000I135000J0D01*
G01*
X50005000Y143120000D01*
G75*
G02*
X50140000Y142985000I0J-135000D01*
G01*
X50140000Y142615000D01*
G75*
G02*
X50005000Y142480000I-135000J0D01*
G01*
X49735000Y142480000D01*
G75*
G02*
X49600000Y142615000I0J135000D01*
G01*
G37*
G36*
G01*
X104680000Y142530000D02*
X104680000Y142870000D01*
G75*
G02*
X104820000Y143010000I140000J0D01*
G01*
X105100000Y143010000D01*
G75*
G02*
X105240000Y142870000I0J-140000D01*
G01*
X105240000Y142530000D01*
G75*
G02*
X105100000Y142390000I-140000J0D01*
G01*
X104820000Y142390000D01*
G75*
G02*
X104680000Y142530000I0J140000D01*
G01*
G37*
G36*
G01*
X105640000Y142530000D02*
X105640000Y142870000D01*
G75*
G02*
X105780000Y143010000I140000J0D01*
G01*
X106060000Y143010000D01*
G75*
G02*
X106200000Y142870000I0J-140000D01*
G01*
X106200000Y142530000D01*
G75*
G02*
X106060000Y142390000I-140000J0D01*
G01*
X105780000Y142390000D01*
G75*
G02*
X105640000Y142530000I0J140000D01*
G01*
G37*
G36*
G01*
X200945000Y26274000D02*
X200945000Y27574000D01*
G75*
G02*
X201195000Y27824000I250000J0D01*
G01*
X201845000Y27824000D01*
G75*
G02*
X202095000Y27574000I0J-250000D01*
G01*
X202095000Y26274000D01*
G75*
G02*
X201845000Y26024000I-250000J0D01*
G01*
X201195000Y26024000D01*
G75*
G02*
X200945000Y26274000I0J250000D01*
G01*
G37*
G36*
G01*
X203895000Y26274000D02*
X203895000Y27574000D01*
G75*
G02*
X204145000Y27824000I250000J0D01*
G01*
X204795000Y27824000D01*
G75*
G02*
X205045000Y27574000I0J-250000D01*
G01*
X205045000Y26274000D01*
G75*
G02*
X204795000Y26024000I-250000J0D01*
G01*
X204145000Y26024000D01*
G75*
G02*
X203895000Y26274000I0J250000D01*
G01*
G37*
G36*
G01*
X206355000Y126942000D02*
X206355000Y127312000D01*
G75*
G02*
X206490000Y127447000I135000J0D01*
G01*
X206760000Y127447000D01*
G75*
G02*
X206895000Y127312000I0J-135000D01*
G01*
X206895000Y126942000D01*
G75*
G02*
X206760000Y126807000I-135000J0D01*
G01*
X206490000Y126807000D01*
G75*
G02*
X206355000Y126942000I0J135000D01*
G01*
G37*
G36*
G01*
X207375000Y126942000D02*
X207375000Y127312000D01*
G75*
G02*
X207510000Y127447000I135000J0D01*
G01*
X207780000Y127447000D01*
G75*
G02*
X207915000Y127312000I0J-135000D01*
G01*
X207915000Y126942000D01*
G75*
G02*
X207780000Y126807000I-135000J0D01*
G01*
X207510000Y126807000D01*
G75*
G02*
X207375000Y126942000I0J135000D01*
G01*
G37*
G36*
G01*
X196120000Y73950000D02*
X196120000Y74290000D01*
G75*
G02*
X196260000Y74430000I140000J0D01*
G01*
X196540000Y74430000D01*
G75*
G02*
X196680000Y74290000I0J-140000D01*
G01*
X196680000Y73950000D01*
G75*
G02*
X196540000Y73810000I-140000J0D01*
G01*
X196260000Y73810000D01*
G75*
G02*
X196120000Y73950000I0J140000D01*
G01*
G37*
G36*
G01*
X197080000Y73950000D02*
X197080000Y74290000D01*
G75*
G02*
X197220000Y74430000I140000J0D01*
G01*
X197500000Y74430000D01*
G75*
G02*
X197640000Y74290000I0J-140000D01*
G01*
X197640000Y73950000D01*
G75*
G02*
X197500000Y73810000I-140000J0D01*
G01*
X197220000Y73810000D01*
G75*
G02*
X197080000Y73950000I0J140000D01*
G01*
G37*
G36*
G01*
X19469000Y111914500D02*
X19769000Y111914500D01*
G75*
G02*
X19919000Y111764500I0J-150000D01*
G01*
X19919000Y110739500D01*
G75*
G02*
X19769000Y110589500I-150000J0D01*
G01*
X19469000Y110589500D01*
G75*
G02*
X19319000Y110739500I0J150000D01*
G01*
X19319000Y111764500D01*
G75*
G02*
X19469000Y111914500I150000J0D01*
G01*
G37*
G36*
G01*
X18519000Y111914500D02*
X18819000Y111914500D01*
G75*
G02*
X18969000Y111764500I0J-150000D01*
G01*
X18969000Y110739500D01*
G75*
G02*
X18819000Y110589500I-150000J0D01*
G01*
X18519000Y110589500D01*
G75*
G02*
X18369000Y110739500I0J150000D01*
G01*
X18369000Y111764500D01*
G75*
G02*
X18519000Y111914500I150000J0D01*
G01*
G37*
G36*
G01*
X17569000Y111914500D02*
X17869000Y111914500D01*
G75*
G02*
X18019000Y111764500I0J-150000D01*
G01*
X18019000Y110739500D01*
G75*
G02*
X17869000Y110589500I-150000J0D01*
G01*
X17569000Y110589500D01*
G75*
G02*
X17419000Y110739500I0J150000D01*
G01*
X17419000Y111764500D01*
G75*
G02*
X17569000Y111914500I150000J0D01*
G01*
G37*
G36*
G01*
X17569000Y109639500D02*
X17869000Y109639500D01*
G75*
G02*
X18019000Y109489500I0J-150000D01*
G01*
X18019000Y108464500D01*
G75*
G02*
X17869000Y108314500I-150000J0D01*
G01*
X17569000Y108314500D01*
G75*
G02*
X17419000Y108464500I0J150000D01*
G01*
X17419000Y109489500D01*
G75*
G02*
X17569000Y109639500I150000J0D01*
G01*
G37*
G36*
G01*
X19469000Y109639500D02*
X19769000Y109639500D01*
G75*
G02*
X19919000Y109489500I0J-150000D01*
G01*
X19919000Y108464500D01*
G75*
G02*
X19769000Y108314500I-150000J0D01*
G01*
X19469000Y108314500D01*
G75*
G02*
X19319000Y108464500I0J150000D01*
G01*
X19319000Y109489500D01*
G75*
G02*
X19469000Y109639500I150000J0D01*
G01*
G37*
D14*
X60960000Y74920000D03*
D15*
X62960000Y74920000D03*
G36*
G01*
X109660000Y142515000D02*
X109660000Y142885000D01*
G75*
G02*
X109795000Y143020000I135000J0D01*
G01*
X110065000Y143020000D01*
G75*
G02*
X110200000Y142885000I0J-135000D01*
G01*
X110200000Y142515000D01*
G75*
G02*
X110065000Y142380000I-135000J0D01*
G01*
X109795000Y142380000D01*
G75*
G02*
X109660000Y142515000I0J135000D01*
G01*
G37*
G36*
G01*
X110680000Y142515000D02*
X110680000Y142885000D01*
G75*
G02*
X110815000Y143020000I135000J0D01*
G01*
X111085000Y143020000D01*
G75*
G02*
X111220000Y142885000I0J-135000D01*
G01*
X111220000Y142515000D01*
G75*
G02*
X111085000Y142380000I-135000J0D01*
G01*
X110815000Y142380000D01*
G75*
G02*
X110680000Y142515000I0J135000D01*
G01*
G37*
G36*
G01*
X4285000Y120785000D02*
X3335000Y120785000D01*
G75*
G02*
X3085000Y121035000I0J250000D01*
G01*
X3085000Y121535000D01*
G75*
G02*
X3335000Y121785000I250000J0D01*
G01*
X4285000Y121785000D01*
G75*
G02*
X4535000Y121535000I0J-250000D01*
G01*
X4535000Y121035000D01*
G75*
G02*
X4285000Y120785000I-250000J0D01*
G01*
G37*
G36*
G01*
X4285000Y122685000D02*
X3335000Y122685000D01*
G75*
G02*
X3085000Y122935000I0J250000D01*
G01*
X3085000Y123435000D01*
G75*
G02*
X3335000Y123685000I250000J0D01*
G01*
X4285000Y123685000D01*
G75*
G02*
X4535000Y123435000I0J-250000D01*
G01*
X4535000Y122935000D01*
G75*
G02*
X4285000Y122685000I-250000J0D01*
G01*
G37*
G36*
G01*
X104680000Y143930000D02*
X104680000Y144270000D01*
G75*
G02*
X104820000Y144410000I140000J0D01*
G01*
X105100000Y144410000D01*
G75*
G02*
X105240000Y144270000I0J-140000D01*
G01*
X105240000Y143930000D01*
G75*
G02*
X105100000Y143790000I-140000J0D01*
G01*
X104820000Y143790000D01*
G75*
G02*
X104680000Y143930000I0J140000D01*
G01*
G37*
G36*
G01*
X105640000Y143930000D02*
X105640000Y144270000D01*
G75*
G02*
X105780000Y144410000I140000J0D01*
G01*
X106060000Y144410000D01*
G75*
G02*
X106200000Y144270000I0J-140000D01*
G01*
X106200000Y143930000D01*
G75*
G02*
X106060000Y143790000I-140000J0D01*
G01*
X105780000Y143790000D01*
G75*
G02*
X105640000Y143930000I0J140000D01*
G01*
G37*
G36*
G01*
X212060000Y18830000D02*
X212060000Y20130000D01*
G75*
G02*
X212710000Y20780000I650000J0D01*
G01*
X214010000Y20780000D01*
G75*
G02*
X214660000Y20130000I0J-650000D01*
G01*
X214660000Y18830000D01*
G75*
G02*
X214010000Y18180000I-650000J0D01*
G01*
X212710000Y18180000D01*
G75*
G02*
X212060000Y18830000I0J650000D01*
G01*
G37*
D10*
X213360000Y16380000D03*
G36*
G01*
X212060000Y27130000D02*
X212060000Y28430000D01*
G75*
G02*
X212710000Y29080000I650000J0D01*
G01*
X214010000Y29080000D01*
G75*
G02*
X214660000Y28430000I0J-650000D01*
G01*
X214660000Y27130000D01*
G75*
G02*
X214010000Y26480000I-650000J0D01*
G01*
X212710000Y26480000D01*
G75*
G02*
X212060000Y27130000I0J650000D01*
G01*
G37*
G36*
G01*
X8860000Y67250000D02*
X8860000Y68550000D01*
G75*
G02*
X9510000Y69200000I650000J0D01*
G01*
X10810000Y69200000D01*
G75*
G02*
X11460000Y68550000I0J-650000D01*
G01*
X11460000Y67250000D01*
G75*
G02*
X10810000Y66600000I-650000J0D01*
G01*
X9510000Y66600000D01*
G75*
G02*
X8860000Y67250000I0J650000D01*
G01*
G37*
X10160000Y64800000D03*
G36*
G01*
X8860000Y75550000D02*
X8860000Y76850000D01*
G75*
G02*
X9510000Y77500000I650000J0D01*
G01*
X10810000Y77500000D01*
G75*
G02*
X11460000Y76850000I0J-650000D01*
G01*
X11460000Y75550000D01*
G75*
G02*
X10810000Y74900000I-650000J0D01*
G01*
X9510000Y74900000D01*
G75*
G02*
X8860000Y75550000I0J650000D01*
G01*
G37*
D14*
X152400000Y74920000D03*
D15*
X154400000Y74920000D03*
G36*
G01*
X165640000Y73950000D02*
X165640000Y74290000D01*
G75*
G02*
X165780000Y74430000I140000J0D01*
G01*
X166060000Y74430000D01*
G75*
G02*
X166200000Y74290000I0J-140000D01*
G01*
X166200000Y73950000D01*
G75*
G02*
X166060000Y73810000I-140000J0D01*
G01*
X165780000Y73810000D01*
G75*
G02*
X165640000Y73950000I0J140000D01*
G01*
G37*
G36*
G01*
X166600000Y73950000D02*
X166600000Y74290000D01*
G75*
G02*
X166740000Y74430000I140000J0D01*
G01*
X167020000Y74430000D01*
G75*
G02*
X167160000Y74290000I0J-140000D01*
G01*
X167160000Y73950000D01*
G75*
G02*
X167020000Y73810000I-140000J0D01*
G01*
X166740000Y73810000D01*
G75*
G02*
X166600000Y73950000I0J140000D01*
G01*
G37*
G36*
G01*
X205910000Y121137000D02*
X205910000Y121687000D01*
G75*
G02*
X206110000Y121887000I200000J0D01*
G01*
X206510000Y121887000D01*
G75*
G02*
X206710000Y121687000I0J-200000D01*
G01*
X206710000Y121137000D01*
G75*
G02*
X206510000Y120937000I-200000J0D01*
G01*
X206110000Y120937000D01*
G75*
G02*
X205910000Y121137000I0J200000D01*
G01*
G37*
G36*
G01*
X207560000Y121137000D02*
X207560000Y121687000D01*
G75*
G02*
X207760000Y121887000I200000J0D01*
G01*
X208160000Y121887000D01*
G75*
G02*
X208360000Y121687000I0J-200000D01*
G01*
X208360000Y121137000D01*
G75*
G02*
X208160000Y120937000I-200000J0D01*
G01*
X207760000Y120937000D01*
G75*
G02*
X207560000Y121137000I0J200000D01*
G01*
G37*
G36*
G01*
X170620000Y142515000D02*
X170620000Y142885000D01*
G75*
G02*
X170755000Y143020000I135000J0D01*
G01*
X171025000Y143020000D01*
G75*
G02*
X171160000Y142885000I0J-135000D01*
G01*
X171160000Y142515000D01*
G75*
G02*
X171025000Y142380000I-135000J0D01*
G01*
X170755000Y142380000D01*
G75*
G02*
X170620000Y142515000I0J135000D01*
G01*
G37*
G36*
G01*
X171640000Y142515000D02*
X171640000Y142885000D01*
G75*
G02*
X171775000Y143020000I135000J0D01*
G01*
X172045000Y143020000D01*
G75*
G02*
X172180000Y142885000I0J-135000D01*
G01*
X172180000Y142515000D01*
G75*
G02*
X172045000Y142380000I-135000J0D01*
G01*
X171775000Y142380000D01*
G75*
G02*
X171640000Y142515000I0J135000D01*
G01*
G37*
G36*
G01*
X218547000Y116147000D02*
X218547000Y116517000D01*
G75*
G02*
X218682000Y116652000I135000J0D01*
G01*
X218952000Y116652000D01*
G75*
G02*
X219087000Y116517000I0J-135000D01*
G01*
X219087000Y116147000D01*
G75*
G02*
X218952000Y116012000I-135000J0D01*
G01*
X218682000Y116012000D01*
G75*
G02*
X218547000Y116147000I0J135000D01*
G01*
G37*
G36*
G01*
X219567000Y116147000D02*
X219567000Y116517000D01*
G75*
G02*
X219702000Y116652000I135000J0D01*
G01*
X219972000Y116652000D01*
G75*
G02*
X220107000Y116517000I0J-135000D01*
G01*
X220107000Y116147000D01*
G75*
G02*
X219972000Y116012000I-135000J0D01*
G01*
X219702000Y116012000D01*
G75*
G02*
X219567000Y116147000I0J135000D01*
G01*
G37*
G36*
G01*
X167475000Y76970000D02*
X167475000Y76770000D01*
G75*
G02*
X167425000Y76720000I-50000J0D01*
G01*
X166855000Y76720000D01*
G75*
G02*
X166805000Y76770000I0J50000D01*
G01*
X166805000Y76970000D01*
G75*
G02*
X166855000Y77020000I50000J0D01*
G01*
X167425000Y77020000D01*
G75*
G02*
X167475000Y76970000I0J-50000D01*
G01*
G37*
G36*
G01*
X167475000Y77470000D02*
X167475000Y77270000D01*
G75*
G02*
X167425000Y77220000I-50000J0D01*
G01*
X166855000Y77220000D01*
G75*
G02*
X166805000Y77270000I0J50000D01*
G01*
X166805000Y77470000D01*
G75*
G02*
X166855000Y77520000I50000J0D01*
G01*
X167425000Y77520000D01*
G75*
G02*
X167475000Y77470000I0J-50000D01*
G01*
G37*
G36*
G01*
X167475000Y77970000D02*
X167475000Y77770000D01*
G75*
G02*
X167425000Y77720000I-50000J0D01*
G01*
X166855000Y77720000D01*
G75*
G02*
X166805000Y77770000I0J50000D01*
G01*
X166805000Y77970000D01*
G75*
G02*
X166855000Y78020000I50000J0D01*
G01*
X167425000Y78020000D01*
G75*
G02*
X167475000Y77970000I0J-50000D01*
G01*
G37*
G36*
G01*
X167475000Y78470000D02*
X167475000Y78270000D01*
G75*
G02*
X167425000Y78220000I-50000J0D01*
G01*
X166855000Y78220000D01*
G75*
G02*
X166805000Y78270000I0J50000D01*
G01*
X166805000Y78470000D01*
G75*
G02*
X166855000Y78520000I50000J0D01*
G01*
X167425000Y78520000D01*
G75*
G02*
X167475000Y78470000I0J-50000D01*
G01*
G37*
G36*
G01*
X165995000Y78470000D02*
X165995000Y78270000D01*
G75*
G02*
X165945000Y78220000I-50000J0D01*
G01*
X165375000Y78220000D01*
G75*
G02*
X165325000Y78270000I0J50000D01*
G01*
X165325000Y78470000D01*
G75*
G02*
X165375000Y78520000I50000J0D01*
G01*
X165945000Y78520000D01*
G75*
G02*
X165995000Y78470000I0J-50000D01*
G01*
G37*
G36*
G01*
X165995000Y77970000D02*
X165995000Y77770000D01*
G75*
G02*
X165945000Y77720000I-50000J0D01*
G01*
X165375000Y77720000D01*
G75*
G02*
X165325000Y77770000I0J50000D01*
G01*
X165325000Y77970000D01*
G75*
G02*
X165375000Y78020000I50000J0D01*
G01*
X165945000Y78020000D01*
G75*
G02*
X165995000Y77970000I0J-50000D01*
G01*
G37*
G36*
G01*
X165995000Y77470000D02*
X165995000Y77270000D01*
G75*
G02*
X165945000Y77220000I-50000J0D01*
G01*
X165375000Y77220000D01*
G75*
G02*
X165325000Y77270000I0J50000D01*
G01*
X165325000Y77470000D01*
G75*
G02*
X165375000Y77520000I50000J0D01*
G01*
X165945000Y77520000D01*
G75*
G02*
X165995000Y77470000I0J-50000D01*
G01*
G37*
G36*
G01*
X165995000Y76970000D02*
X165995000Y76770000D01*
G75*
G02*
X165945000Y76720000I-50000J0D01*
G01*
X165375000Y76720000D01*
G75*
G02*
X165325000Y76770000I0J50000D01*
G01*
X165325000Y76970000D01*
G75*
G02*
X165375000Y77020000I50000J0D01*
G01*
X165945000Y77020000D01*
G75*
G02*
X165995000Y76970000I0J-50000D01*
G01*
G37*
D16*
X6886000Y141267000D03*
X2686000Y141267000D03*
X6876000Y143492000D03*
X2676000Y143492000D03*
G36*
G01*
X214930000Y94270000D02*
X214930000Y93930000D01*
G75*
G02*
X214790000Y93790000I-140000J0D01*
G01*
X214510000Y93790000D01*
G75*
G02*
X214370000Y93930000I0J140000D01*
G01*
X214370000Y94270000D01*
G75*
G02*
X214510000Y94410000I140000J0D01*
G01*
X214790000Y94410000D01*
G75*
G02*
X214930000Y94270000I0J-140000D01*
G01*
G37*
G36*
G01*
X213970000Y94270000D02*
X213970000Y93930000D01*
G75*
G02*
X213830000Y93790000I-140000J0D01*
G01*
X213550000Y93790000D01*
G75*
G02*
X213410000Y93930000I0J140000D01*
G01*
X213410000Y94270000D01*
G75*
G02*
X213550000Y94410000I140000J0D01*
G01*
X213830000Y94410000D01*
G75*
G02*
X213970000Y94270000I0J-140000D01*
G01*
G37*
G36*
G01*
X18020000Y132550000D02*
X18020000Y135450000D01*
G75*
G02*
X18270000Y135700000I250000J0D01*
G01*
X18895000Y135700000D01*
G75*
G02*
X19145000Y135450000I0J-250000D01*
G01*
X19145000Y132550000D01*
G75*
G02*
X18895000Y132300000I-250000J0D01*
G01*
X18270000Y132300000D01*
G75*
G02*
X18020000Y132550000I0J250000D01*
G01*
G37*
G36*
G01*
X22295000Y132550000D02*
X22295000Y135450000D01*
G75*
G02*
X22545000Y135700000I250000J0D01*
G01*
X23170000Y135700000D01*
G75*
G02*
X23420000Y135450000I0J-250000D01*
G01*
X23420000Y132550000D01*
G75*
G02*
X23170000Y132300000I-250000J0D01*
G01*
X22545000Y132300000D01*
G75*
G02*
X22295000Y132550000I0J250000D01*
G01*
G37*
G36*
G01*
X196120000Y143930000D02*
X196120000Y144270000D01*
G75*
G02*
X196260000Y144410000I140000J0D01*
G01*
X196540000Y144410000D01*
G75*
G02*
X196680000Y144270000I0J-140000D01*
G01*
X196680000Y143930000D01*
G75*
G02*
X196540000Y143790000I-140000J0D01*
G01*
X196260000Y143790000D01*
G75*
G02*
X196120000Y143930000I0J140000D01*
G01*
G37*
G36*
G01*
X197080000Y143930000D02*
X197080000Y144270000D01*
G75*
G02*
X197220000Y144410000I140000J0D01*
G01*
X197500000Y144410000D01*
G75*
G02*
X197640000Y144270000I0J-140000D01*
G01*
X197640000Y143930000D01*
G75*
G02*
X197500000Y143790000I-140000J0D01*
G01*
X197220000Y143790000D01*
G75*
G02*
X197080000Y143930000I0J140000D01*
G01*
G37*
G36*
G01*
X220552000Y121814000D02*
X220552000Y121264000D01*
G75*
G02*
X220352000Y121064000I-200000J0D01*
G01*
X219952000Y121064000D01*
G75*
G02*
X219752000Y121264000I0J200000D01*
G01*
X219752000Y121814000D01*
G75*
G02*
X219952000Y122014000I200000J0D01*
G01*
X220352000Y122014000D01*
G75*
G02*
X220552000Y121814000I0J-200000D01*
G01*
G37*
G36*
G01*
X218902000Y121814000D02*
X218902000Y121264000D01*
G75*
G02*
X218702000Y121064000I-200000J0D01*
G01*
X218302000Y121064000D01*
G75*
G02*
X218102000Y121264000I0J200000D01*
G01*
X218102000Y121814000D01*
G75*
G02*
X218302000Y122014000I200000J0D01*
G01*
X218702000Y122014000D01*
G75*
G02*
X218902000Y121814000I0J-200000D01*
G01*
G37*
G36*
G01*
X211105000Y75435000D02*
X211105000Y76735000D01*
G75*
G02*
X211355000Y76985000I250000J0D01*
G01*
X212005000Y76985000D01*
G75*
G02*
X212255000Y76735000I0J-250000D01*
G01*
X212255000Y75435000D01*
G75*
G02*
X212005000Y75185000I-250000J0D01*
G01*
X211355000Y75185000D01*
G75*
G02*
X211105000Y75435000I0J250000D01*
G01*
G37*
G36*
G01*
X214055000Y75435000D02*
X214055000Y76735000D01*
G75*
G02*
X214305000Y76985000I250000J0D01*
G01*
X214955000Y76985000D01*
G75*
G02*
X215205000Y76735000I0J-250000D01*
G01*
X215205000Y75435000D01*
G75*
G02*
X214955000Y75185000I-250000J0D01*
G01*
X214305000Y75185000D01*
G75*
G02*
X214055000Y75435000I0J250000D01*
G01*
G37*
D14*
X30480000Y74920000D03*
D15*
X32480000Y74920000D03*
G36*
G01*
X210201000Y113342000D02*
X210201000Y112972000D01*
G75*
G02*
X210066000Y112837000I-135000J0D01*
G01*
X209796000Y112837000D01*
G75*
G02*
X209661000Y112972000I0J135000D01*
G01*
X209661000Y113342000D01*
G75*
G02*
X209796000Y113477000I135000J0D01*
G01*
X210066000Y113477000D01*
G75*
G02*
X210201000Y113342000I0J-135000D01*
G01*
G37*
G36*
G01*
X209181000Y113342000D02*
X209181000Y112972000D01*
G75*
G02*
X209046000Y112837000I-135000J0D01*
G01*
X208776000Y112837000D01*
G75*
G02*
X208641000Y112972000I0J135000D01*
G01*
X208641000Y113342000D01*
G75*
G02*
X208776000Y113477000I135000J0D01*
G01*
X209046000Y113477000D01*
G75*
G02*
X209181000Y113342000I0J-135000D01*
G01*
G37*
G36*
G01*
X20119000Y114267000D02*
X20119000Y113317000D01*
G75*
G02*
X19869000Y113067000I-250000J0D01*
G01*
X19369000Y113067000D01*
G75*
G02*
X19119000Y113317000I0J250000D01*
G01*
X19119000Y114267000D01*
G75*
G02*
X19369000Y114517000I250000J0D01*
G01*
X19869000Y114517000D01*
G75*
G02*
X20119000Y114267000I0J-250000D01*
G01*
G37*
G36*
G01*
X18219000Y114267000D02*
X18219000Y113317000D01*
G75*
G02*
X17969000Y113067000I-250000J0D01*
G01*
X17469000Y113067000D01*
G75*
G02*
X17219000Y113317000I0J250000D01*
G01*
X17219000Y114267000D01*
G75*
G02*
X17469000Y114517000I250000J0D01*
G01*
X17969000Y114517000D01*
G75*
G02*
X18219000Y114267000I0J-250000D01*
G01*
G37*
G36*
G01*
X212739000Y113342000D02*
X212739000Y112972000D01*
G75*
G02*
X212604000Y112837000I-135000J0D01*
G01*
X212334000Y112837000D01*
G75*
G02*
X212199000Y112972000I0J135000D01*
G01*
X212199000Y113342000D01*
G75*
G02*
X212334000Y113477000I135000J0D01*
G01*
X212604000Y113477000D01*
G75*
G02*
X212739000Y113342000I0J-135000D01*
G01*
G37*
G36*
G01*
X211719000Y113342000D02*
X211719000Y112972000D01*
G75*
G02*
X211584000Y112837000I-135000J0D01*
G01*
X211314000Y112837000D01*
G75*
G02*
X211179000Y112972000I0J135000D01*
G01*
X211179000Y113342000D01*
G75*
G02*
X211314000Y113477000I135000J0D01*
G01*
X211584000Y113477000D01*
G75*
G02*
X211719000Y113342000I0J-135000D01*
G01*
G37*
G36*
G01*
X207195000Y78605000D02*
X206825000Y78605000D01*
G75*
G02*
X206690000Y78740000I0J135000D01*
G01*
X206690000Y79010000D01*
G75*
G02*
X206825000Y79145000I135000J0D01*
G01*
X207195000Y79145000D01*
G75*
G02*
X207330000Y79010000I0J-135000D01*
G01*
X207330000Y78740000D01*
G75*
G02*
X207195000Y78605000I-135000J0D01*
G01*
G37*
G36*
G01*
X207195000Y79625000D02*
X206825000Y79625000D01*
G75*
G02*
X206690000Y79760000I0J135000D01*
G01*
X206690000Y80030000D01*
G75*
G02*
X206825000Y80165000I135000J0D01*
G01*
X207195000Y80165000D01*
G75*
G02*
X207330000Y80030000I0J-135000D01*
G01*
X207330000Y79760000D01*
G75*
G02*
X207195000Y79625000I-135000J0D01*
G01*
G37*
G36*
G01*
X43600000Y142630000D02*
X43600000Y142970000D01*
G75*
G02*
X43740000Y143110000I140000J0D01*
G01*
X44020000Y143110000D01*
G75*
G02*
X44160000Y142970000I0J-140000D01*
G01*
X44160000Y142630000D01*
G75*
G02*
X44020000Y142490000I-140000J0D01*
G01*
X43740000Y142490000D01*
G75*
G02*
X43600000Y142630000I0J140000D01*
G01*
G37*
G36*
G01*
X44560000Y142630000D02*
X44560000Y142970000D01*
G75*
G02*
X44700000Y143110000I140000J0D01*
G01*
X44980000Y143110000D01*
G75*
G02*
X45120000Y142970000I0J-140000D01*
G01*
X45120000Y142630000D01*
G75*
G02*
X44980000Y142490000I-140000J0D01*
G01*
X44700000Y142490000D01*
G75*
G02*
X44560000Y142630000I0J140000D01*
G01*
G37*
G36*
G01*
X208349000Y124456000D02*
X208349000Y123956000D01*
G75*
G02*
X208124000Y123731000I-225000J0D01*
G01*
X207674000Y123731000D01*
G75*
G02*
X207449000Y123956000I0J225000D01*
G01*
X207449000Y124456000D01*
G75*
G02*
X207674000Y124681000I225000J0D01*
G01*
X208124000Y124681000D01*
G75*
G02*
X208349000Y124456000I0J-225000D01*
G01*
G37*
G36*
G01*
X206799000Y124456000D02*
X206799000Y123956000D01*
G75*
G02*
X206574000Y123731000I-225000J0D01*
G01*
X206124000Y123731000D01*
G75*
G02*
X205899000Y123956000I0J225000D01*
G01*
X205899000Y124456000D01*
G75*
G02*
X206124000Y124681000I225000J0D01*
G01*
X206574000Y124681000D01*
G75*
G02*
X206799000Y124456000I0J-225000D01*
G01*
G37*
G36*
G01*
X201745000Y85360000D02*
X202115000Y85360000D01*
G75*
G02*
X202250000Y85225000I0J-135000D01*
G01*
X202250000Y84955000D01*
G75*
G02*
X202115000Y84820000I-135000J0D01*
G01*
X201745000Y84820000D01*
G75*
G02*
X201610000Y84955000I0J135000D01*
G01*
X201610000Y85225000D01*
G75*
G02*
X201745000Y85360000I135000J0D01*
G01*
G37*
G36*
G01*
X201745000Y84340000D02*
X202115000Y84340000D01*
G75*
G02*
X202250000Y84205000I0J-135000D01*
G01*
X202250000Y83935000D01*
G75*
G02*
X202115000Y83800000I-135000J0D01*
G01*
X201745000Y83800000D01*
G75*
G02*
X201610000Y83935000I0J135000D01*
G01*
X201610000Y84205000D01*
G75*
G02*
X201745000Y84340000I135000J0D01*
G01*
G37*
D17*
X71120000Y139700000D03*
D18*
X68580000Y139700000D03*
X66040000Y139700000D03*
X63500000Y139700000D03*
X60960000Y139700000D03*
G36*
G01*
X11407000Y103154000D02*
X11067000Y103154000D01*
G75*
G02*
X10927000Y103294000I0J140000D01*
G01*
X10927000Y103574000D01*
G75*
G02*
X11067000Y103714000I140000J0D01*
G01*
X11407000Y103714000D01*
G75*
G02*
X11547000Y103574000I0J-140000D01*
G01*
X11547000Y103294000D01*
G75*
G02*
X11407000Y103154000I-140000J0D01*
G01*
G37*
G36*
G01*
X11407000Y104114000D02*
X11067000Y104114000D01*
G75*
G02*
X10927000Y104254000I0J140000D01*
G01*
X10927000Y104534000D01*
G75*
G02*
X11067000Y104674000I140000J0D01*
G01*
X11407000Y104674000D01*
G75*
G02*
X11547000Y104534000I0J-140000D01*
G01*
X11547000Y104254000D01*
G75*
G02*
X11407000Y104114000I-140000J0D01*
G01*
G37*
D17*
X193040000Y71120000D03*
D18*
X190500000Y71120000D03*
X187960000Y71120000D03*
X185420000Y71120000D03*
X182880000Y71120000D03*
D14*
X30360000Y143600000D03*
D15*
X32360000Y143600000D03*
G36*
G01*
X200945000Y30592000D02*
X200945000Y31892000D01*
G75*
G02*
X201195000Y32142000I250000J0D01*
G01*
X201845000Y32142000D01*
G75*
G02*
X202095000Y31892000I0J-250000D01*
G01*
X202095000Y30592000D01*
G75*
G02*
X201845000Y30342000I-250000J0D01*
G01*
X201195000Y30342000D01*
G75*
G02*
X200945000Y30592000I0J250000D01*
G01*
G37*
G36*
G01*
X203895000Y30592000D02*
X203895000Y31892000D01*
G75*
G02*
X204145000Y32142000I250000J0D01*
G01*
X204795000Y32142000D01*
G75*
G02*
X205045000Y31892000I0J-250000D01*
G01*
X205045000Y30592000D01*
G75*
G02*
X204795000Y30342000I-250000J0D01*
G01*
X204145000Y30342000D01*
G75*
G02*
X203895000Y30592000I0J250000D01*
G01*
G37*
G36*
G01*
X135160000Y143930000D02*
X135160000Y144270000D01*
G75*
G02*
X135300000Y144410000I140000J0D01*
G01*
X135580000Y144410000D01*
G75*
G02*
X135720000Y144270000I0J-140000D01*
G01*
X135720000Y143930000D01*
G75*
G02*
X135580000Y143790000I-140000J0D01*
G01*
X135300000Y143790000D01*
G75*
G02*
X135160000Y143930000I0J140000D01*
G01*
G37*
G36*
G01*
X136120000Y143930000D02*
X136120000Y144270000D01*
G75*
G02*
X136260000Y144410000I140000J0D01*
G01*
X136540000Y144410000D01*
G75*
G02*
X136680000Y144270000I0J-140000D01*
G01*
X136680000Y143930000D01*
G75*
G02*
X136540000Y143790000I-140000J0D01*
G01*
X136260000Y143790000D01*
G75*
G02*
X136120000Y143930000I0J140000D01*
G01*
G37*
G36*
G01*
X197955000Y76970000D02*
X197955000Y76770000D01*
G75*
G02*
X197905000Y76720000I-50000J0D01*
G01*
X197335000Y76720000D01*
G75*
G02*
X197285000Y76770000I0J50000D01*
G01*
X197285000Y76970000D01*
G75*
G02*
X197335000Y77020000I50000J0D01*
G01*
X197905000Y77020000D01*
G75*
G02*
X197955000Y76970000I0J-50000D01*
G01*
G37*
G36*
G01*
X197955000Y77470000D02*
X197955000Y77270000D01*
G75*
G02*
X197905000Y77220000I-50000J0D01*
G01*
X197335000Y77220000D01*
G75*
G02*
X197285000Y77270000I0J50000D01*
G01*
X197285000Y77470000D01*
G75*
G02*
X197335000Y77520000I50000J0D01*
G01*
X197905000Y77520000D01*
G75*
G02*
X197955000Y77470000I0J-50000D01*
G01*
G37*
G36*
G01*
X197955000Y77970000D02*
X197955000Y77770000D01*
G75*
G02*
X197905000Y77720000I-50000J0D01*
G01*
X197335000Y77720000D01*
G75*
G02*
X197285000Y77770000I0J50000D01*
G01*
X197285000Y77970000D01*
G75*
G02*
X197335000Y78020000I50000J0D01*
G01*
X197905000Y78020000D01*
G75*
G02*
X197955000Y77970000I0J-50000D01*
G01*
G37*
G36*
G01*
X197955000Y78470000D02*
X197955000Y78270000D01*
G75*
G02*
X197905000Y78220000I-50000J0D01*
G01*
X197335000Y78220000D01*
G75*
G02*
X197285000Y78270000I0J50000D01*
G01*
X197285000Y78470000D01*
G75*
G02*
X197335000Y78520000I50000J0D01*
G01*
X197905000Y78520000D01*
G75*
G02*
X197955000Y78470000I0J-50000D01*
G01*
G37*
G36*
G01*
X196475000Y78470000D02*
X196475000Y78270000D01*
G75*
G02*
X196425000Y78220000I-50000J0D01*
G01*
X195855000Y78220000D01*
G75*
G02*
X195805000Y78270000I0J50000D01*
G01*
X195805000Y78470000D01*
G75*
G02*
X195855000Y78520000I50000J0D01*
G01*
X196425000Y78520000D01*
G75*
G02*
X196475000Y78470000I0J-50000D01*
G01*
G37*
G36*
G01*
X196475000Y77970000D02*
X196475000Y77770000D01*
G75*
G02*
X196425000Y77720000I-50000J0D01*
G01*
X195855000Y77720000D01*
G75*
G02*
X195805000Y77770000I0J50000D01*
G01*
X195805000Y77970000D01*
G75*
G02*
X195855000Y78020000I50000J0D01*
G01*
X196425000Y78020000D01*
G75*
G02*
X196475000Y77970000I0J-50000D01*
G01*
G37*
G36*
G01*
X196475000Y77470000D02*
X196475000Y77270000D01*
G75*
G02*
X196425000Y77220000I-50000J0D01*
G01*
X195855000Y77220000D01*
G75*
G02*
X195805000Y77270000I0J50000D01*
G01*
X195805000Y77470000D01*
G75*
G02*
X195855000Y77520000I50000J0D01*
G01*
X196425000Y77520000D01*
G75*
G02*
X196475000Y77470000I0J-50000D01*
G01*
G37*
G36*
G01*
X196475000Y76970000D02*
X196475000Y76770000D01*
G75*
G02*
X196425000Y76720000I-50000J0D01*
G01*
X195855000Y76720000D01*
G75*
G02*
X195805000Y76770000I0J50000D01*
G01*
X195805000Y76970000D01*
G75*
G02*
X195855000Y77020000I50000J0D01*
G01*
X196425000Y77020000D01*
G75*
G02*
X196475000Y76970000I0J-50000D01*
G01*
G37*
G36*
G01*
X17470000Y127350000D02*
X17470000Y128650000D01*
G75*
G02*
X17720000Y128900000I250000J0D01*
G01*
X19720000Y128900000D01*
G75*
G02*
X19970000Y128650000I0J-250000D01*
G01*
X19970000Y127350000D01*
G75*
G02*
X19720000Y127100000I-250000J0D01*
G01*
X17720000Y127100000D01*
G75*
G02*
X17470000Y127350000I0J250000D01*
G01*
G37*
G36*
G01*
X21470000Y127350000D02*
X21470000Y128650000D01*
G75*
G02*
X21720000Y128900000I250000J0D01*
G01*
X23720000Y128900000D01*
G75*
G02*
X23970000Y128650000I0J-250000D01*
G01*
X23970000Y127350000D01*
G75*
G02*
X23720000Y127100000I-250000J0D01*
G01*
X21720000Y127100000D01*
G75*
G02*
X21470000Y127350000I0J250000D01*
G01*
G37*
D17*
X71120000Y93980000D03*
D18*
X68580000Y93980000D03*
X66040000Y93980000D03*
X63500000Y93980000D03*
X60960000Y93980000D03*
G36*
G01*
X200995000Y43825000D02*
X200995000Y45075000D01*
G75*
G02*
X201245000Y45325000I250000J0D01*
G01*
X201870000Y45325000D01*
G75*
G02*
X202120000Y45075000I0J-250000D01*
G01*
X202120000Y43825000D01*
G75*
G02*
X201870000Y43575000I-250000J0D01*
G01*
X201245000Y43575000D01*
G75*
G02*
X200995000Y43825000I0J250000D01*
G01*
G37*
G36*
G01*
X203920000Y43825000D02*
X203920000Y45075000D01*
G75*
G02*
X204170000Y45325000I250000J0D01*
G01*
X204795000Y45325000D01*
G75*
G02*
X205045000Y45075000I0J-250000D01*
G01*
X205045000Y43825000D01*
G75*
G02*
X204795000Y43575000I-250000J0D01*
G01*
X204170000Y43575000D01*
G75*
G02*
X203920000Y43825000I0J250000D01*
G01*
G37*
G36*
G01*
X135160000Y75350000D02*
X135160000Y75690000D01*
G75*
G02*
X135300000Y75830000I140000J0D01*
G01*
X135580000Y75830000D01*
G75*
G02*
X135720000Y75690000I0J-140000D01*
G01*
X135720000Y75350000D01*
G75*
G02*
X135580000Y75210000I-140000J0D01*
G01*
X135300000Y75210000D01*
G75*
G02*
X135160000Y75350000I0J140000D01*
G01*
G37*
G36*
G01*
X136120000Y75350000D02*
X136120000Y75690000D01*
G75*
G02*
X136260000Y75830000I140000J0D01*
G01*
X136540000Y75830000D01*
G75*
G02*
X136680000Y75690000I0J-140000D01*
G01*
X136680000Y75350000D01*
G75*
G02*
X136540000Y75210000I-140000J0D01*
G01*
X136260000Y75210000D01*
G75*
G02*
X136120000Y75350000I0J140000D01*
G01*
G37*
D19*
X6610000Y133700000D03*
X6610000Y127920000D03*
D20*
X8055000Y132060000D03*
X8055000Y131060000D03*
X8055000Y130560000D03*
X8055000Y129560000D03*
D21*
X8055000Y128360000D03*
X8055000Y127585000D03*
D20*
X8055000Y129060000D03*
X8055000Y130060000D03*
X8055000Y131560000D03*
X8055000Y132560000D03*
D21*
X8055000Y133260000D03*
X8055000Y134035000D03*
D22*
X7140000Y135130000D03*
D23*
X2960000Y135130000D03*
D22*
X7140000Y126490000D03*
D23*
X2960000Y126490000D03*
G36*
G01*
X214360000Y83980000D02*
X214360000Y84320000D01*
G75*
G02*
X214500000Y84460000I140000J0D01*
G01*
X214780000Y84460000D01*
G75*
G02*
X214920000Y84320000I0J-140000D01*
G01*
X214920000Y83980000D01*
G75*
G02*
X214780000Y83840000I-140000J0D01*
G01*
X214500000Y83840000D01*
G75*
G02*
X214360000Y83980000I0J140000D01*
G01*
G37*
G36*
G01*
X215320000Y83980000D02*
X215320000Y84320000D01*
G75*
G02*
X215460000Y84460000I140000J0D01*
G01*
X215740000Y84460000D01*
G75*
G02*
X215880000Y84320000I0J-140000D01*
G01*
X215880000Y83980000D01*
G75*
G02*
X215740000Y83840000I-140000J0D01*
G01*
X215460000Y83840000D01*
G75*
G02*
X215320000Y83980000I0J140000D01*
G01*
G37*
D24*
X10795000Y25400000D03*
D25*
X13335000Y25400000D03*
X10795000Y27940000D03*
X13335000Y27940000D03*
X10795000Y30480000D03*
X13335000Y30480000D03*
X10795000Y33020000D03*
X13335000Y33020000D03*
X10795000Y35560000D03*
X13335000Y35560000D03*
D11*
X208433000Y61468000D03*
X218033000Y61468000D03*
D12*
X210733000Y53968000D03*
D13*
X213233000Y53968000D03*
X215733000Y53968000D03*
D17*
X132080000Y25400000D03*
D18*
X129540000Y25400000D03*
X127000000Y25400000D03*
X124460000Y25400000D03*
X121920000Y25400000D03*
G36*
G01*
X104680000Y73950000D02*
X104680000Y74290000D01*
G75*
G02*
X104820000Y74430000I140000J0D01*
G01*
X105100000Y74430000D01*
G75*
G02*
X105240000Y74290000I0J-140000D01*
G01*
X105240000Y73950000D01*
G75*
G02*
X105100000Y73810000I-140000J0D01*
G01*
X104820000Y73810000D01*
G75*
G02*
X104680000Y73950000I0J140000D01*
G01*
G37*
G36*
G01*
X105640000Y73950000D02*
X105640000Y74290000D01*
G75*
G02*
X105780000Y74430000I140000J0D01*
G01*
X106060000Y74430000D01*
G75*
G02*
X106200000Y74290000I0J-140000D01*
G01*
X106200000Y73950000D01*
G75*
G02*
X106060000Y73810000I-140000J0D01*
G01*
X105780000Y73810000D01*
G75*
G02*
X105640000Y73950000I0J140000D01*
G01*
G37*
G36*
G01*
X20119000Y104615000D02*
X20119000Y103665000D01*
G75*
G02*
X19869000Y103415000I-250000J0D01*
G01*
X19369000Y103415000D01*
G75*
G02*
X19119000Y103665000I0J250000D01*
G01*
X19119000Y104615000D01*
G75*
G02*
X19369000Y104865000I250000J0D01*
G01*
X19869000Y104865000D01*
G75*
G02*
X20119000Y104615000I0J-250000D01*
G01*
G37*
G36*
G01*
X18219000Y104615000D02*
X18219000Y103665000D01*
G75*
G02*
X17969000Y103415000I-250000J0D01*
G01*
X17469000Y103415000D01*
G75*
G02*
X17219000Y103665000I0J250000D01*
G01*
X17219000Y104615000D01*
G75*
G02*
X17469000Y104865000I250000J0D01*
G01*
X17969000Y104865000D01*
G75*
G02*
X18219000Y104615000I0J-250000D01*
G01*
G37*
G36*
G01*
X76035000Y145550000D02*
X76035000Y145350000D01*
G75*
G02*
X75985000Y145300000I-50000J0D01*
G01*
X75415000Y145300000D01*
G75*
G02*
X75365000Y145350000I0J50000D01*
G01*
X75365000Y145550000D01*
G75*
G02*
X75415000Y145600000I50000J0D01*
G01*
X75985000Y145600000D01*
G75*
G02*
X76035000Y145550000I0J-50000D01*
G01*
G37*
G36*
G01*
X76035000Y146050000D02*
X76035000Y145850000D01*
G75*
G02*
X75985000Y145800000I-50000J0D01*
G01*
X75415000Y145800000D01*
G75*
G02*
X75365000Y145850000I0J50000D01*
G01*
X75365000Y146050000D01*
G75*
G02*
X75415000Y146100000I50000J0D01*
G01*
X75985000Y146100000D01*
G75*
G02*
X76035000Y146050000I0J-50000D01*
G01*
G37*
G36*
G01*
X76035000Y146550000D02*
X76035000Y146350000D01*
G75*
G02*
X75985000Y146300000I-50000J0D01*
G01*
X75415000Y146300000D01*
G75*
G02*
X75365000Y146350000I0J50000D01*
G01*
X75365000Y146550000D01*
G75*
G02*
X75415000Y146600000I50000J0D01*
G01*
X75985000Y146600000D01*
G75*
G02*
X76035000Y146550000I0J-50000D01*
G01*
G37*
G36*
G01*
X76035000Y147050000D02*
X76035000Y146850000D01*
G75*
G02*
X75985000Y146800000I-50000J0D01*
G01*
X75415000Y146800000D01*
G75*
G02*
X75365000Y146850000I0J50000D01*
G01*
X75365000Y147050000D01*
G75*
G02*
X75415000Y147100000I50000J0D01*
G01*
X75985000Y147100000D01*
G75*
G02*
X76035000Y147050000I0J-50000D01*
G01*
G37*
G36*
G01*
X74555000Y147050000D02*
X74555000Y146850000D01*
G75*
G02*
X74505000Y146800000I-50000J0D01*
G01*
X73935000Y146800000D01*
G75*
G02*
X73885000Y146850000I0J50000D01*
G01*
X73885000Y147050000D01*
G75*
G02*
X73935000Y147100000I50000J0D01*
G01*
X74505000Y147100000D01*
G75*
G02*
X74555000Y147050000I0J-50000D01*
G01*
G37*
G36*
G01*
X74555000Y146550000D02*
X74555000Y146350000D01*
G75*
G02*
X74505000Y146300000I-50000J0D01*
G01*
X73935000Y146300000D01*
G75*
G02*
X73885000Y146350000I0J50000D01*
G01*
X73885000Y146550000D01*
G75*
G02*
X73935000Y146600000I50000J0D01*
G01*
X74505000Y146600000D01*
G75*
G02*
X74555000Y146550000I0J-50000D01*
G01*
G37*
G36*
G01*
X74555000Y146050000D02*
X74555000Y145850000D01*
G75*
G02*
X74505000Y145800000I-50000J0D01*
G01*
X73935000Y145800000D01*
G75*
G02*
X73885000Y145850000I0J50000D01*
G01*
X73885000Y146050000D01*
G75*
G02*
X73935000Y146100000I50000J0D01*
G01*
X74505000Y146100000D01*
G75*
G02*
X74555000Y146050000I0J-50000D01*
G01*
G37*
G36*
G01*
X74555000Y145550000D02*
X74555000Y145350000D01*
G75*
G02*
X74505000Y145300000I-50000J0D01*
G01*
X73935000Y145300000D01*
G75*
G02*
X73885000Y145350000I0J50000D01*
G01*
X73885000Y145550000D01*
G75*
G02*
X73935000Y145600000I50000J0D01*
G01*
X74505000Y145600000D01*
G75*
G02*
X74555000Y145550000I0J-50000D01*
G01*
G37*
G36*
G01*
X212755000Y86075000D02*
X212755000Y86415000D01*
G75*
G02*
X212895000Y86555000I140000J0D01*
G01*
X213175000Y86555000D01*
G75*
G02*
X213315000Y86415000I0J-140000D01*
G01*
X213315000Y86075000D01*
G75*
G02*
X213175000Y85935000I-140000J0D01*
G01*
X212895000Y85935000D01*
G75*
G02*
X212755000Y86075000I0J140000D01*
G01*
G37*
G36*
G01*
X213715000Y86075000D02*
X213715000Y86415000D01*
G75*
G02*
X213855000Y86555000I140000J0D01*
G01*
X214135000Y86555000D01*
G75*
G02*
X214275000Y86415000I0J-140000D01*
G01*
X214275000Y86075000D01*
G75*
G02*
X214135000Y85935000I-140000J0D01*
G01*
X213855000Y85935000D01*
G75*
G02*
X213715000Y86075000I0J140000D01*
G01*
G37*
D17*
X40640000Y25400000D03*
D18*
X38100000Y25400000D03*
X35560000Y25400000D03*
X33020000Y25400000D03*
X30480000Y25400000D03*
G36*
G01*
X200957500Y47864000D02*
X200957500Y49164000D01*
G75*
G02*
X201207500Y49414000I250000J0D01*
G01*
X201857500Y49414000D01*
G75*
G02*
X202107500Y49164000I0J-250000D01*
G01*
X202107500Y47864000D01*
G75*
G02*
X201857500Y47614000I-250000J0D01*
G01*
X201207500Y47614000D01*
G75*
G02*
X200957500Y47864000I0J250000D01*
G01*
G37*
G36*
G01*
X203907500Y47864000D02*
X203907500Y49164000D01*
G75*
G02*
X204157500Y49414000I250000J0D01*
G01*
X204807500Y49414000D01*
G75*
G02*
X205057500Y49164000I0J-250000D01*
G01*
X205057500Y47864000D01*
G75*
G02*
X204807500Y47614000I-250000J0D01*
G01*
X204157500Y47614000D01*
G75*
G02*
X203907500Y47864000I0J250000D01*
G01*
G37*
G36*
G01*
X200945000Y34656000D02*
X200945000Y35956000D01*
G75*
G02*
X201195000Y36206000I250000J0D01*
G01*
X201845000Y36206000D01*
G75*
G02*
X202095000Y35956000I0J-250000D01*
G01*
X202095000Y34656000D01*
G75*
G02*
X201845000Y34406000I-250000J0D01*
G01*
X201195000Y34406000D01*
G75*
G02*
X200945000Y34656000I0J250000D01*
G01*
G37*
G36*
G01*
X203895000Y34656000D02*
X203895000Y35956000D01*
G75*
G02*
X204145000Y36206000I250000J0D01*
G01*
X204795000Y36206000D01*
G75*
G02*
X205045000Y35956000I0J-250000D01*
G01*
X205045000Y34656000D01*
G75*
G02*
X204795000Y34406000I-250000J0D01*
G01*
X204145000Y34406000D01*
G75*
G02*
X203895000Y34656000I0J250000D01*
G01*
G37*
D17*
X101600000Y139700000D03*
D18*
X99060000Y139700000D03*
X96520000Y139700000D03*
X93980000Y139700000D03*
X91440000Y139700000D03*
G36*
G01*
X74200000Y143930000D02*
X74200000Y144270000D01*
G75*
G02*
X74340000Y144410000I140000J0D01*
G01*
X74620000Y144410000D01*
G75*
G02*
X74760000Y144270000I0J-140000D01*
G01*
X74760000Y143930000D01*
G75*
G02*
X74620000Y143790000I-140000J0D01*
G01*
X74340000Y143790000D01*
G75*
G02*
X74200000Y143930000I0J140000D01*
G01*
G37*
G36*
G01*
X75160000Y143930000D02*
X75160000Y144270000D01*
G75*
G02*
X75300000Y144410000I140000J0D01*
G01*
X75580000Y144410000D01*
G75*
G02*
X75720000Y144270000I0J-140000D01*
G01*
X75720000Y143930000D01*
G75*
G02*
X75580000Y143790000I-140000J0D01*
G01*
X75300000Y143790000D01*
G75*
G02*
X75160000Y143930000I0J140000D01*
G01*
G37*
G36*
G01*
X201100000Y142515000D02*
X201100000Y142885000D01*
G75*
G02*
X201235000Y143020000I135000J0D01*
G01*
X201505000Y143020000D01*
G75*
G02*
X201640000Y142885000I0J-135000D01*
G01*
X201640000Y142515000D01*
G75*
G02*
X201505000Y142380000I-135000J0D01*
G01*
X201235000Y142380000D01*
G75*
G02*
X201100000Y142515000I0J135000D01*
G01*
G37*
G36*
G01*
X202120000Y142515000D02*
X202120000Y142885000D01*
G75*
G02*
X202255000Y143020000I135000J0D01*
G01*
X202525000Y143020000D01*
G75*
G02*
X202660000Y142885000I0J-135000D01*
G01*
X202660000Y142515000D01*
G75*
G02*
X202525000Y142380000I-135000J0D01*
G01*
X202255000Y142380000D01*
G75*
G02*
X202120000Y142515000I0J135000D01*
G01*
G37*
G36*
G01*
X43720000Y73950000D02*
X43720000Y74290000D01*
G75*
G02*
X43860000Y74430000I140000J0D01*
G01*
X44140000Y74430000D01*
G75*
G02*
X44280000Y74290000I0J-140000D01*
G01*
X44280000Y73950000D01*
G75*
G02*
X44140000Y73810000I-140000J0D01*
G01*
X43860000Y73810000D01*
G75*
G02*
X43720000Y73950000I0J140000D01*
G01*
G37*
G36*
G01*
X44680000Y73950000D02*
X44680000Y74290000D01*
G75*
G02*
X44820000Y74430000I140000J0D01*
G01*
X45100000Y74430000D01*
G75*
G02*
X45240000Y74290000I0J-140000D01*
G01*
X45240000Y73950000D01*
G75*
G02*
X45100000Y73810000I-140000J0D01*
G01*
X44820000Y73810000D01*
G75*
G02*
X44680000Y73950000I0J140000D01*
G01*
G37*
G36*
G01*
X45555000Y76970000D02*
X45555000Y76770000D01*
G75*
G02*
X45505000Y76720000I-50000J0D01*
G01*
X44935000Y76720000D01*
G75*
G02*
X44885000Y76770000I0J50000D01*
G01*
X44885000Y76970000D01*
G75*
G02*
X44935000Y77020000I50000J0D01*
G01*
X45505000Y77020000D01*
G75*
G02*
X45555000Y76970000I0J-50000D01*
G01*
G37*
G36*
G01*
X45555000Y77470000D02*
X45555000Y77270000D01*
G75*
G02*
X45505000Y77220000I-50000J0D01*
G01*
X44935000Y77220000D01*
G75*
G02*
X44885000Y77270000I0J50000D01*
G01*
X44885000Y77470000D01*
G75*
G02*
X44935000Y77520000I50000J0D01*
G01*
X45505000Y77520000D01*
G75*
G02*
X45555000Y77470000I0J-50000D01*
G01*
G37*
G36*
G01*
X45555000Y77970000D02*
X45555000Y77770000D01*
G75*
G02*
X45505000Y77720000I-50000J0D01*
G01*
X44935000Y77720000D01*
G75*
G02*
X44885000Y77770000I0J50000D01*
G01*
X44885000Y77970000D01*
G75*
G02*
X44935000Y78020000I50000J0D01*
G01*
X45505000Y78020000D01*
G75*
G02*
X45555000Y77970000I0J-50000D01*
G01*
G37*
G36*
G01*
X45555000Y78470000D02*
X45555000Y78270000D01*
G75*
G02*
X45505000Y78220000I-50000J0D01*
G01*
X44935000Y78220000D01*
G75*
G02*
X44885000Y78270000I0J50000D01*
G01*
X44885000Y78470000D01*
G75*
G02*
X44935000Y78520000I50000J0D01*
G01*
X45505000Y78520000D01*
G75*
G02*
X45555000Y78470000I0J-50000D01*
G01*
G37*
G36*
G01*
X44075000Y78470000D02*
X44075000Y78270000D01*
G75*
G02*
X44025000Y78220000I-50000J0D01*
G01*
X43455000Y78220000D01*
G75*
G02*
X43405000Y78270000I0J50000D01*
G01*
X43405000Y78470000D01*
G75*
G02*
X43455000Y78520000I50000J0D01*
G01*
X44025000Y78520000D01*
G75*
G02*
X44075000Y78470000I0J-50000D01*
G01*
G37*
G36*
G01*
X44075000Y77970000D02*
X44075000Y77770000D01*
G75*
G02*
X44025000Y77720000I-50000J0D01*
G01*
X43455000Y77720000D01*
G75*
G02*
X43405000Y77770000I0J50000D01*
G01*
X43405000Y77970000D01*
G75*
G02*
X43455000Y78020000I50000J0D01*
G01*
X44025000Y78020000D01*
G75*
G02*
X44075000Y77970000I0J-50000D01*
G01*
G37*
G36*
G01*
X44075000Y77470000D02*
X44075000Y77270000D01*
G75*
G02*
X44025000Y77220000I-50000J0D01*
G01*
X43455000Y77220000D01*
G75*
G02*
X43405000Y77270000I0J50000D01*
G01*
X43405000Y77470000D01*
G75*
G02*
X43455000Y77520000I50000J0D01*
G01*
X44025000Y77520000D01*
G75*
G02*
X44075000Y77470000I0J-50000D01*
G01*
G37*
G36*
G01*
X44075000Y76970000D02*
X44075000Y76770000D01*
G75*
G02*
X44025000Y76720000I-50000J0D01*
G01*
X43455000Y76720000D01*
G75*
G02*
X43405000Y76770000I0J50000D01*
G01*
X43405000Y76970000D01*
G75*
G02*
X43455000Y77020000I50000J0D01*
G01*
X44025000Y77020000D01*
G75*
G02*
X44075000Y76970000I0J-50000D01*
G01*
G37*
G36*
G01*
X209705000Y104210000D02*
X209335000Y104210000D01*
G75*
G02*
X209200000Y104345000I0J135000D01*
G01*
X209200000Y104615000D01*
G75*
G02*
X209335000Y104750000I135000J0D01*
G01*
X209705000Y104750000D01*
G75*
G02*
X209840000Y104615000I0J-135000D01*
G01*
X209840000Y104345000D01*
G75*
G02*
X209705000Y104210000I-135000J0D01*
G01*
G37*
G36*
G01*
X209705000Y105230000D02*
X209335000Y105230000D01*
G75*
G02*
X209200000Y105365000I0J135000D01*
G01*
X209200000Y105635000D01*
G75*
G02*
X209335000Y105770000I135000J0D01*
G01*
X209705000Y105770000D01*
G75*
G02*
X209840000Y105635000I0J-135000D01*
G01*
X209840000Y105365000D01*
G75*
G02*
X209705000Y105230000I-135000J0D01*
G01*
G37*
D17*
X162560000Y93980000D03*
D18*
X160020000Y93980000D03*
X157480000Y93980000D03*
X154940000Y93980000D03*
X152400000Y93980000D03*
G36*
G01*
X17470000Y148150000D02*
X17470000Y149450000D01*
G75*
G02*
X17720000Y149700000I250000J0D01*
G01*
X19720000Y149700000D01*
G75*
G02*
X19970000Y149450000I0J-250000D01*
G01*
X19970000Y148150000D01*
G75*
G02*
X19720000Y147900000I-250000J0D01*
G01*
X17720000Y147900000D01*
G75*
G02*
X17470000Y148150000I0J250000D01*
G01*
G37*
G36*
G01*
X21470000Y148150000D02*
X21470000Y149450000D01*
G75*
G02*
X21720000Y149700000I250000J0D01*
G01*
X23720000Y149700000D01*
G75*
G02*
X23970000Y149450000I0J-250000D01*
G01*
X23970000Y148150000D01*
G75*
G02*
X23720000Y147900000I-250000J0D01*
G01*
X21720000Y147900000D01*
G75*
G02*
X21470000Y148150000I0J250000D01*
G01*
G37*
D17*
X193040000Y25400000D03*
D18*
X190500000Y25400000D03*
X187960000Y25400000D03*
X185420000Y25400000D03*
X182880000Y25400000D03*
G36*
G01*
X209975000Y124830000D02*
X209975000Y125130000D01*
G75*
G02*
X210125000Y125280000I150000J0D01*
G01*
X211775000Y125280000D01*
G75*
G02*
X211925000Y125130000I0J-150000D01*
G01*
X211925000Y124830000D01*
G75*
G02*
X211775000Y124680000I-150000J0D01*
G01*
X210125000Y124680000D01*
G75*
G02*
X209975000Y124830000I0J150000D01*
G01*
G37*
G36*
G01*
X209975000Y123560000D02*
X209975000Y123860000D01*
G75*
G02*
X210125000Y124010000I150000J0D01*
G01*
X211775000Y124010000D01*
G75*
G02*
X211925000Y123860000I0J-150000D01*
G01*
X211925000Y123560000D01*
G75*
G02*
X211775000Y123410000I-150000J0D01*
G01*
X210125000Y123410000D01*
G75*
G02*
X209975000Y123560000I0J150000D01*
G01*
G37*
G36*
G01*
X209975000Y122290000D02*
X209975000Y122590000D01*
G75*
G02*
X210125000Y122740000I150000J0D01*
G01*
X211775000Y122740000D01*
G75*
G02*
X211925000Y122590000I0J-150000D01*
G01*
X211925000Y122290000D01*
G75*
G02*
X211775000Y122140000I-150000J0D01*
G01*
X210125000Y122140000D01*
G75*
G02*
X209975000Y122290000I0J150000D01*
G01*
G37*
G36*
G01*
X209975000Y121020000D02*
X209975000Y121320000D01*
G75*
G02*
X210125000Y121470000I150000J0D01*
G01*
X211775000Y121470000D01*
G75*
G02*
X211925000Y121320000I0J-150000D01*
G01*
X211925000Y121020000D01*
G75*
G02*
X211775000Y120870000I-150000J0D01*
G01*
X210125000Y120870000D01*
G75*
G02*
X209975000Y121020000I0J150000D01*
G01*
G37*
G36*
G01*
X214925000Y121020000D02*
X214925000Y121320000D01*
G75*
G02*
X215075000Y121470000I150000J0D01*
G01*
X216725000Y121470000D01*
G75*
G02*
X216875000Y121320000I0J-150000D01*
G01*
X216875000Y121020000D01*
G75*
G02*
X216725000Y120870000I-150000J0D01*
G01*
X215075000Y120870000D01*
G75*
G02*
X214925000Y121020000I0J150000D01*
G01*
G37*
G36*
G01*
X214925000Y122290000D02*
X214925000Y122590000D01*
G75*
G02*
X215075000Y122740000I150000J0D01*
G01*
X216725000Y122740000D01*
G75*
G02*
X216875000Y122590000I0J-150000D01*
G01*
X216875000Y122290000D01*
G75*
G02*
X216725000Y122140000I-150000J0D01*
G01*
X215075000Y122140000D01*
G75*
G02*
X214925000Y122290000I0J150000D01*
G01*
G37*
G36*
G01*
X214925000Y123560000D02*
X214925000Y123860000D01*
G75*
G02*
X215075000Y124010000I150000J0D01*
G01*
X216725000Y124010000D01*
G75*
G02*
X216875000Y123860000I0J-150000D01*
G01*
X216875000Y123560000D01*
G75*
G02*
X216725000Y123410000I-150000J0D01*
G01*
X215075000Y123410000D01*
G75*
G02*
X214925000Y123560000I0J150000D01*
G01*
G37*
G36*
G01*
X214925000Y124830000D02*
X214925000Y125130000D01*
G75*
G02*
X215075000Y125280000I150000J0D01*
G01*
X216725000Y125280000D01*
G75*
G02*
X216875000Y125130000I0J-150000D01*
G01*
X216875000Y124830000D01*
G75*
G02*
X216725000Y124680000I-150000J0D01*
G01*
X215075000Y124680000D01*
G75*
G02*
X214925000Y124830000I0J150000D01*
G01*
G37*
G36*
G01*
X165640000Y75350000D02*
X165640000Y75690000D01*
G75*
G02*
X165780000Y75830000I140000J0D01*
G01*
X166060000Y75830000D01*
G75*
G02*
X166200000Y75690000I0J-140000D01*
G01*
X166200000Y75350000D01*
G75*
G02*
X166060000Y75210000I-140000J0D01*
G01*
X165780000Y75210000D01*
G75*
G02*
X165640000Y75350000I0J140000D01*
G01*
G37*
G36*
G01*
X166600000Y75350000D02*
X166600000Y75690000D01*
G75*
G02*
X166740000Y75830000I140000J0D01*
G01*
X167020000Y75830000D01*
G75*
G02*
X167160000Y75690000I0J-140000D01*
G01*
X167160000Y75350000D01*
G75*
G02*
X167020000Y75210000I-140000J0D01*
G01*
X166740000Y75210000D01*
G75*
G02*
X166600000Y75350000I0J140000D01*
G01*
G37*
D17*
X162560000Y25400000D03*
D18*
X160020000Y25400000D03*
X157480000Y25400000D03*
X154940000Y25400000D03*
X152400000Y25400000D03*
G36*
G01*
X165640000Y142530000D02*
X165640000Y142870000D01*
G75*
G02*
X165780000Y143010000I140000J0D01*
G01*
X166060000Y143010000D01*
G75*
G02*
X166200000Y142870000I0J-140000D01*
G01*
X166200000Y142530000D01*
G75*
G02*
X166060000Y142390000I-140000J0D01*
G01*
X165780000Y142390000D01*
G75*
G02*
X165640000Y142530000I0J140000D01*
G01*
G37*
G36*
G01*
X166600000Y142530000D02*
X166600000Y142870000D01*
G75*
G02*
X166740000Y143010000I140000J0D01*
G01*
X167020000Y143010000D01*
G75*
G02*
X167160000Y142870000I0J-140000D01*
G01*
X167160000Y142530000D01*
G75*
G02*
X167020000Y142390000I-140000J0D01*
G01*
X166740000Y142390000D01*
G75*
G02*
X166600000Y142530000I0J140000D01*
G01*
G37*
D17*
X132080000Y139700000D03*
D18*
X129540000Y139700000D03*
X127000000Y139700000D03*
X124460000Y139700000D03*
X121920000Y139700000D03*
G36*
G01*
X8020000Y123465000D02*
X8020000Y122915000D01*
G75*
G02*
X7820000Y122715000I-200000J0D01*
G01*
X7420000Y122715000D01*
G75*
G02*
X7220000Y122915000I0J200000D01*
G01*
X7220000Y123465000D01*
G75*
G02*
X7420000Y123665000I200000J0D01*
G01*
X7820000Y123665000D01*
G75*
G02*
X8020000Y123465000I0J-200000D01*
G01*
G37*
G36*
G01*
X6370000Y123465000D02*
X6370000Y122915000D01*
G75*
G02*
X6170000Y122715000I-200000J0D01*
G01*
X5770000Y122715000D01*
G75*
G02*
X5570000Y122915000I0J200000D01*
G01*
X5570000Y123465000D01*
G75*
G02*
X5770000Y123665000I200000J0D01*
G01*
X6170000Y123665000D01*
G75*
G02*
X6370000Y123465000I0J-200000D01*
G01*
G37*
D17*
X193040000Y93980000D03*
D18*
X190500000Y93980000D03*
X187960000Y93980000D03*
X185420000Y93980000D03*
X182880000Y93980000D03*
G36*
G01*
X8020000Y120290000D02*
X8020000Y119740000D01*
G75*
G02*
X7820000Y119540000I-200000J0D01*
G01*
X7420000Y119540000D01*
G75*
G02*
X7220000Y119740000I0J200000D01*
G01*
X7220000Y120290000D01*
G75*
G02*
X7420000Y120490000I200000J0D01*
G01*
X7820000Y120490000D01*
G75*
G02*
X8020000Y120290000I0J-200000D01*
G01*
G37*
G36*
G01*
X6370000Y120290000D02*
X6370000Y119740000D01*
G75*
G02*
X6170000Y119540000I-200000J0D01*
G01*
X5770000Y119540000D01*
G75*
G02*
X5570000Y119740000I0J200000D01*
G01*
X5570000Y120290000D01*
G75*
G02*
X5770000Y120490000I200000J0D01*
G01*
X6170000Y120490000D01*
G75*
G02*
X6370000Y120290000I0J-200000D01*
G01*
G37*
G36*
G01*
X136995000Y76970000D02*
X136995000Y76770000D01*
G75*
G02*
X136945000Y76720000I-50000J0D01*
G01*
X136375000Y76720000D01*
G75*
G02*
X136325000Y76770000I0J50000D01*
G01*
X136325000Y76970000D01*
G75*
G02*
X136375000Y77020000I50000J0D01*
G01*
X136945000Y77020000D01*
G75*
G02*
X136995000Y76970000I0J-50000D01*
G01*
G37*
G36*
G01*
X136995000Y77470000D02*
X136995000Y77270000D01*
G75*
G02*
X136945000Y77220000I-50000J0D01*
G01*
X136375000Y77220000D01*
G75*
G02*
X136325000Y77270000I0J50000D01*
G01*
X136325000Y77470000D01*
G75*
G02*
X136375000Y77520000I50000J0D01*
G01*
X136945000Y77520000D01*
G75*
G02*
X136995000Y77470000I0J-50000D01*
G01*
G37*
G36*
G01*
X136995000Y77970000D02*
X136995000Y77770000D01*
G75*
G02*
X136945000Y77720000I-50000J0D01*
G01*
X136375000Y77720000D01*
G75*
G02*
X136325000Y77770000I0J50000D01*
G01*
X136325000Y77970000D01*
G75*
G02*
X136375000Y78020000I50000J0D01*
G01*
X136945000Y78020000D01*
G75*
G02*
X136995000Y77970000I0J-50000D01*
G01*
G37*
G36*
G01*
X136995000Y78470000D02*
X136995000Y78270000D01*
G75*
G02*
X136945000Y78220000I-50000J0D01*
G01*
X136375000Y78220000D01*
G75*
G02*
X136325000Y78270000I0J50000D01*
G01*
X136325000Y78470000D01*
G75*
G02*
X136375000Y78520000I50000J0D01*
G01*
X136945000Y78520000D01*
G75*
G02*
X136995000Y78470000I0J-50000D01*
G01*
G37*
G36*
G01*
X135515000Y78470000D02*
X135515000Y78270000D01*
G75*
G02*
X135465000Y78220000I-50000J0D01*
G01*
X134895000Y78220000D01*
G75*
G02*
X134845000Y78270000I0J50000D01*
G01*
X134845000Y78470000D01*
G75*
G02*
X134895000Y78520000I50000J0D01*
G01*
X135465000Y78520000D01*
G75*
G02*
X135515000Y78470000I0J-50000D01*
G01*
G37*
G36*
G01*
X135515000Y77970000D02*
X135515000Y77770000D01*
G75*
G02*
X135465000Y77720000I-50000J0D01*
G01*
X134895000Y77720000D01*
G75*
G02*
X134845000Y77770000I0J50000D01*
G01*
X134845000Y77970000D01*
G75*
G02*
X134895000Y78020000I50000J0D01*
G01*
X135465000Y78020000D01*
G75*
G02*
X135515000Y77970000I0J-50000D01*
G01*
G37*
G36*
G01*
X135515000Y77470000D02*
X135515000Y77270000D01*
G75*
G02*
X135465000Y77220000I-50000J0D01*
G01*
X134895000Y77220000D01*
G75*
G02*
X134845000Y77270000I0J50000D01*
G01*
X134845000Y77470000D01*
G75*
G02*
X134895000Y77520000I50000J0D01*
G01*
X135465000Y77520000D01*
G75*
G02*
X135515000Y77470000I0J-50000D01*
G01*
G37*
G36*
G01*
X135515000Y76970000D02*
X135515000Y76770000D01*
G75*
G02*
X135465000Y76720000I-50000J0D01*
G01*
X134895000Y76720000D01*
G75*
G02*
X134845000Y76770000I0J50000D01*
G01*
X134845000Y76970000D01*
G75*
G02*
X134895000Y77020000I50000J0D01*
G01*
X135465000Y77020000D01*
G75*
G02*
X135515000Y76970000I0J-50000D01*
G01*
G37*
G36*
G01*
X109660000Y73935000D02*
X109660000Y74305000D01*
G75*
G02*
X109795000Y74440000I135000J0D01*
G01*
X110065000Y74440000D01*
G75*
G02*
X110200000Y74305000I0J-135000D01*
G01*
X110200000Y73935000D01*
G75*
G02*
X110065000Y73800000I-135000J0D01*
G01*
X109795000Y73800000D01*
G75*
G02*
X109660000Y73935000I0J135000D01*
G01*
G37*
G36*
G01*
X110680000Y73935000D02*
X110680000Y74305000D01*
G75*
G02*
X110815000Y74440000I135000J0D01*
G01*
X111085000Y74440000D01*
G75*
G02*
X111220000Y74305000I0J-135000D01*
G01*
X111220000Y73935000D01*
G75*
G02*
X111085000Y73800000I-135000J0D01*
G01*
X110815000Y73800000D01*
G75*
G02*
X110680000Y73935000I0J135000D01*
G01*
G37*
G36*
G01*
X135160000Y73950000D02*
X135160000Y74290000D01*
G75*
G02*
X135300000Y74430000I140000J0D01*
G01*
X135580000Y74430000D01*
G75*
G02*
X135720000Y74290000I0J-140000D01*
G01*
X135720000Y73950000D01*
G75*
G02*
X135580000Y73810000I-140000J0D01*
G01*
X135300000Y73810000D01*
G75*
G02*
X135160000Y73950000I0J140000D01*
G01*
G37*
G36*
G01*
X136120000Y73950000D02*
X136120000Y74290000D01*
G75*
G02*
X136260000Y74430000I140000J0D01*
G01*
X136540000Y74430000D01*
G75*
G02*
X136680000Y74290000I0J-140000D01*
G01*
X136680000Y73950000D01*
G75*
G02*
X136540000Y73810000I-140000J0D01*
G01*
X136260000Y73810000D01*
G75*
G02*
X136120000Y73950000I0J140000D01*
G01*
G37*
D14*
X182880000Y74920000D03*
D15*
X184880000Y74920000D03*
D14*
X60960000Y143500000D03*
D15*
X62960000Y143500000D03*
G36*
G01*
X165640000Y143930000D02*
X165640000Y144270000D01*
G75*
G02*
X165780000Y144410000I140000J0D01*
G01*
X166060000Y144410000D01*
G75*
G02*
X166200000Y144270000I0J-140000D01*
G01*
X166200000Y143930000D01*
G75*
G02*
X166060000Y143790000I-140000J0D01*
G01*
X165780000Y143790000D01*
G75*
G02*
X165640000Y143930000I0J140000D01*
G01*
G37*
G36*
G01*
X166600000Y143930000D02*
X166600000Y144270000D01*
G75*
G02*
X166740000Y144410000I140000J0D01*
G01*
X167020000Y144410000D01*
G75*
G02*
X167160000Y144270000I0J-140000D01*
G01*
X167160000Y143930000D01*
G75*
G02*
X167020000Y143790000I-140000J0D01*
G01*
X166740000Y143790000D01*
G75*
G02*
X166600000Y143930000I0J140000D01*
G01*
G37*
G36*
G01*
X20119000Y106901000D02*
X20119000Y105951000D01*
G75*
G02*
X19869000Y105701000I-250000J0D01*
G01*
X19369000Y105701000D01*
G75*
G02*
X19119000Y105951000I0J250000D01*
G01*
X19119000Y106901000D01*
G75*
G02*
X19369000Y107151000I250000J0D01*
G01*
X19869000Y107151000D01*
G75*
G02*
X20119000Y106901000I0J-250000D01*
G01*
G37*
G36*
G01*
X18219000Y106901000D02*
X18219000Y105951000D01*
G75*
G02*
X17969000Y105701000I-250000J0D01*
G01*
X17469000Y105701000D01*
G75*
G02*
X17219000Y105951000I0J250000D01*
G01*
X17219000Y106901000D01*
G75*
G02*
X17469000Y107151000I250000J0D01*
G01*
X17969000Y107151000D01*
G75*
G02*
X18219000Y106901000I0J-250000D01*
G01*
G37*
G36*
G01*
X208465000Y104820000D02*
X208095000Y104820000D01*
G75*
G02*
X207960000Y104955000I0J135000D01*
G01*
X207960000Y105225000D01*
G75*
G02*
X208095000Y105360000I135000J0D01*
G01*
X208465000Y105360000D01*
G75*
G02*
X208600000Y105225000I0J-135000D01*
G01*
X208600000Y104955000D01*
G75*
G02*
X208465000Y104820000I-135000J0D01*
G01*
G37*
G36*
G01*
X208465000Y105840000D02*
X208095000Y105840000D01*
G75*
G02*
X207960000Y105975000I0J135000D01*
G01*
X207960000Y106245000D01*
G75*
G02*
X208095000Y106380000I135000J0D01*
G01*
X208465000Y106380000D01*
G75*
G02*
X208600000Y106245000I0J-135000D01*
G01*
X208600000Y105975000D01*
G75*
G02*
X208465000Y105840000I-135000J0D01*
G01*
G37*
G36*
G01*
X201745000Y89170000D02*
X202115000Y89170000D01*
G75*
G02*
X202250000Y89035000I0J-135000D01*
G01*
X202250000Y88765000D01*
G75*
G02*
X202115000Y88630000I-135000J0D01*
G01*
X201745000Y88630000D01*
G75*
G02*
X201610000Y88765000I0J135000D01*
G01*
X201610000Y89035000D01*
G75*
G02*
X201745000Y89170000I135000J0D01*
G01*
G37*
G36*
G01*
X201745000Y88150000D02*
X202115000Y88150000D01*
G75*
G02*
X202250000Y88015000I0J-135000D01*
G01*
X202250000Y87745000D01*
G75*
G02*
X202115000Y87610000I-135000J0D01*
G01*
X201745000Y87610000D01*
G75*
G02*
X201610000Y87745000I0J135000D01*
G01*
X201610000Y88015000D01*
G75*
G02*
X201745000Y88150000I135000J0D01*
G01*
G37*
D17*
X162560000Y139700000D03*
D18*
X160020000Y139700000D03*
X157480000Y139700000D03*
X154940000Y139700000D03*
X152400000Y139700000D03*
D17*
X193040000Y139700000D03*
D18*
X190500000Y139700000D03*
X187960000Y139700000D03*
X185420000Y139700000D03*
X182880000Y139700000D03*
D17*
X132080000Y93980000D03*
D18*
X129540000Y93980000D03*
X127000000Y93980000D03*
X124460000Y93980000D03*
X121920000Y93980000D03*
G36*
G01*
X135160000Y142530000D02*
X135160000Y142870000D01*
G75*
G02*
X135300000Y143010000I140000J0D01*
G01*
X135580000Y143010000D01*
G75*
G02*
X135720000Y142870000I0J-140000D01*
G01*
X135720000Y142530000D01*
G75*
G02*
X135580000Y142390000I-140000J0D01*
G01*
X135300000Y142390000D01*
G75*
G02*
X135160000Y142530000I0J140000D01*
G01*
G37*
G36*
G01*
X136120000Y142530000D02*
X136120000Y142870000D01*
G75*
G02*
X136260000Y143010000I140000J0D01*
G01*
X136540000Y143010000D01*
G75*
G02*
X136680000Y142870000I0J-140000D01*
G01*
X136680000Y142530000D01*
G75*
G02*
X136540000Y142390000I-140000J0D01*
G01*
X136260000Y142390000D01*
G75*
G02*
X136120000Y142530000I0J140000D01*
G01*
G37*
G36*
G01*
X13707500Y136406250D02*
X13707500Y135893750D01*
G75*
G02*
X13488750Y135675000I-218750J0D01*
G01*
X13051250Y135675000D01*
G75*
G02*
X12832500Y135893750I0J218750D01*
G01*
X12832500Y136406250D01*
G75*
G02*
X13051250Y136625000I218750J0D01*
G01*
X13488750Y136625000D01*
G75*
G02*
X13707500Y136406250I0J-218750D01*
G01*
G37*
G36*
G01*
X12132500Y136406250D02*
X12132500Y135893750D01*
G75*
G02*
X11913750Y135675000I-218750J0D01*
G01*
X11476250Y135675000D01*
G75*
G02*
X11257500Y135893750I0J218750D01*
G01*
X11257500Y136406250D01*
G75*
G02*
X11476250Y136625000I218750J0D01*
G01*
X11913750Y136625000D01*
G75*
G02*
X12132500Y136406250I0J-218750D01*
G01*
G37*
D17*
X162560000Y71120000D03*
D18*
X160020000Y71120000D03*
X157480000Y71120000D03*
X154940000Y71120000D03*
X152400000Y71120000D03*
G36*
G01*
X13240000Y134585000D02*
X13240000Y134215000D01*
G75*
G02*
X13105000Y134080000I-135000J0D01*
G01*
X12835000Y134080000D01*
G75*
G02*
X12700000Y134215000I0J135000D01*
G01*
X12700000Y134585000D01*
G75*
G02*
X12835000Y134720000I135000J0D01*
G01*
X13105000Y134720000D01*
G75*
G02*
X13240000Y134585000I0J-135000D01*
G01*
G37*
G36*
G01*
X12220000Y134585000D02*
X12220000Y134215000D01*
G75*
G02*
X12085000Y134080000I-135000J0D01*
G01*
X11815000Y134080000D01*
G75*
G02*
X11680000Y134215000I0J135000D01*
G01*
X11680000Y134585000D01*
G75*
G02*
X11815000Y134720000I135000J0D01*
G01*
X12085000Y134720000D01*
G75*
G02*
X12220000Y134585000I0J-135000D01*
G01*
G37*
D14*
X217520000Y105400000D03*
D15*
X219520000Y105400000D03*
G36*
G01*
X221395000Y108675000D02*
X221395000Y108525000D01*
G75*
G02*
X221320000Y108450000I-75000J0D01*
G01*
X220020000Y108450000D01*
G75*
G02*
X219945000Y108525000I0J75000D01*
G01*
X219945000Y108675000D01*
G75*
G02*
X220020000Y108750000I75000J0D01*
G01*
X221320000Y108750000D01*
G75*
G02*
X221395000Y108675000I0J-75000D01*
G01*
G37*
G36*
G01*
X221395000Y109175000D02*
X221395000Y109025000D01*
G75*
G02*
X221320000Y108950000I-75000J0D01*
G01*
X220020000Y108950000D01*
G75*
G02*
X219945000Y109025000I0J75000D01*
G01*
X219945000Y109175000D01*
G75*
G02*
X220020000Y109250000I75000J0D01*
G01*
X221320000Y109250000D01*
G75*
G02*
X221395000Y109175000I0J-75000D01*
G01*
G37*
G36*
G01*
X221395000Y109675000D02*
X221395000Y109525000D01*
G75*
G02*
X221320000Y109450000I-75000J0D01*
G01*
X220020000Y109450000D01*
G75*
G02*
X219945000Y109525000I0J75000D01*
G01*
X219945000Y109675000D01*
G75*
G02*
X220020000Y109750000I75000J0D01*
G01*
X221320000Y109750000D01*
G75*
G02*
X221395000Y109675000I0J-75000D01*
G01*
G37*
G36*
G01*
X221395000Y110175000D02*
X221395000Y110025000D01*
G75*
G02*
X221320000Y109950000I-75000J0D01*
G01*
X220020000Y109950000D01*
G75*
G02*
X219945000Y110025000I0J75000D01*
G01*
X219945000Y110175000D01*
G75*
G02*
X220020000Y110250000I75000J0D01*
G01*
X221320000Y110250000D01*
G75*
G02*
X221395000Y110175000I0J-75000D01*
G01*
G37*
G36*
G01*
X221395000Y110675000D02*
X221395000Y110525000D01*
G75*
G02*
X221320000Y110450000I-75000J0D01*
G01*
X220020000Y110450000D01*
G75*
G02*
X219945000Y110525000I0J75000D01*
G01*
X219945000Y110675000D01*
G75*
G02*
X220020000Y110750000I75000J0D01*
G01*
X221320000Y110750000D01*
G75*
G02*
X221395000Y110675000I0J-75000D01*
G01*
G37*
G36*
G01*
X217095000Y110675000D02*
X217095000Y110525000D01*
G75*
G02*
X217020000Y110450000I-75000J0D01*
G01*
X215720000Y110450000D01*
G75*
G02*
X215645000Y110525000I0J75000D01*
G01*
X215645000Y110675000D01*
G75*
G02*
X215720000Y110750000I75000J0D01*
G01*
X217020000Y110750000D01*
G75*
G02*
X217095000Y110675000I0J-75000D01*
G01*
G37*
G36*
G01*
X217095000Y110175000D02*
X217095000Y110025000D01*
G75*
G02*
X217020000Y109950000I-75000J0D01*
G01*
X215720000Y109950000D01*
G75*
G02*
X215645000Y110025000I0J75000D01*
G01*
X215645000Y110175000D01*
G75*
G02*
X215720000Y110250000I75000J0D01*
G01*
X217020000Y110250000D01*
G75*
G02*
X217095000Y110175000I0J-75000D01*
G01*
G37*
G36*
G01*
X217095000Y109675000D02*
X217095000Y109525000D01*
G75*
G02*
X217020000Y109450000I-75000J0D01*
G01*
X215720000Y109450000D01*
G75*
G02*
X215645000Y109525000I0J75000D01*
G01*
X215645000Y109675000D01*
G75*
G02*
X215720000Y109750000I75000J0D01*
G01*
X217020000Y109750000D01*
G75*
G02*
X217095000Y109675000I0J-75000D01*
G01*
G37*
G36*
G01*
X217095000Y109175000D02*
X217095000Y109025000D01*
G75*
G02*
X217020000Y108950000I-75000J0D01*
G01*
X215720000Y108950000D01*
G75*
G02*
X215645000Y109025000I0J75000D01*
G01*
X215645000Y109175000D01*
G75*
G02*
X215720000Y109250000I75000J0D01*
G01*
X217020000Y109250000D01*
G75*
G02*
X217095000Y109175000I0J-75000D01*
G01*
G37*
G36*
G01*
X217095000Y108675000D02*
X217095000Y108525000D01*
G75*
G02*
X217020000Y108450000I-75000J0D01*
G01*
X215720000Y108450000D01*
G75*
G02*
X215645000Y108525000I0J75000D01*
G01*
X215645000Y108675000D01*
G75*
G02*
X215720000Y108750000I75000J0D01*
G01*
X217020000Y108750000D01*
G75*
G02*
X217095000Y108675000I0J-75000D01*
G01*
G37*
D17*
X101600000Y93980000D03*
D18*
X99060000Y93980000D03*
X96520000Y93980000D03*
X93980000Y93980000D03*
X91440000Y93980000D03*
G36*
G01*
X210800000Y108985000D02*
X210800000Y108615000D01*
G75*
G02*
X210665000Y108480000I-135000J0D01*
G01*
X210395000Y108480000D01*
G75*
G02*
X210260000Y108615000I0J135000D01*
G01*
X210260000Y108985000D01*
G75*
G02*
X210395000Y109120000I135000J0D01*
G01*
X210665000Y109120000D01*
G75*
G02*
X210800000Y108985000I0J-135000D01*
G01*
G37*
G36*
G01*
X209780000Y108985000D02*
X209780000Y108615000D01*
G75*
G02*
X209645000Y108480000I-135000J0D01*
G01*
X209375000Y108480000D01*
G75*
G02*
X209240000Y108615000I0J135000D01*
G01*
X209240000Y108985000D01*
G75*
G02*
X209375000Y109120000I135000J0D01*
G01*
X209645000Y109120000D01*
G75*
G02*
X209780000Y108985000I0J-135000D01*
G01*
G37*
D14*
X152400000Y143500000D03*
D15*
X154400000Y143500000D03*
G36*
G01*
X17350000Y121699000D02*
X17350000Y122649000D01*
G75*
G02*
X17600000Y122899000I250000J0D01*
G01*
X18100000Y122899000D01*
G75*
G02*
X18350000Y122649000I0J-250000D01*
G01*
X18350000Y121699000D01*
G75*
G02*
X18100000Y121449000I-250000J0D01*
G01*
X17600000Y121449000D01*
G75*
G02*
X17350000Y121699000I0J250000D01*
G01*
G37*
G36*
G01*
X19250000Y121699000D02*
X19250000Y122649000D01*
G75*
G02*
X19500000Y122899000I250000J0D01*
G01*
X20000000Y122899000D01*
G75*
G02*
X20250000Y122649000I0J-250000D01*
G01*
X20250000Y121699000D01*
G75*
G02*
X20000000Y121449000I-250000J0D01*
G01*
X19500000Y121449000D01*
G75*
G02*
X19250000Y121699000I0J250000D01*
G01*
G37*
G36*
G01*
X74200000Y142530000D02*
X74200000Y142870000D01*
G75*
G02*
X74340000Y143010000I140000J0D01*
G01*
X74620000Y143010000D01*
G75*
G02*
X74760000Y142870000I0J-140000D01*
G01*
X74760000Y142530000D01*
G75*
G02*
X74620000Y142390000I-140000J0D01*
G01*
X74340000Y142390000D01*
G75*
G02*
X74200000Y142530000I0J140000D01*
G01*
G37*
G36*
G01*
X75160000Y142530000D02*
X75160000Y142870000D01*
G75*
G02*
X75300000Y143010000I140000J0D01*
G01*
X75580000Y143010000D01*
G75*
G02*
X75720000Y142870000I0J-140000D01*
G01*
X75720000Y142530000D01*
G75*
G02*
X75580000Y142390000I-140000J0D01*
G01*
X75300000Y142390000D01*
G75*
G02*
X75160000Y142530000I0J140000D01*
G01*
G37*
G36*
G01*
X201100000Y73935000D02*
X201100000Y74305000D01*
G75*
G02*
X201235000Y74440000I135000J0D01*
G01*
X201505000Y74440000D01*
G75*
G02*
X201640000Y74305000I0J-135000D01*
G01*
X201640000Y73935000D01*
G75*
G02*
X201505000Y73800000I-135000J0D01*
G01*
X201235000Y73800000D01*
G75*
G02*
X201100000Y73935000I0J135000D01*
G01*
G37*
G36*
G01*
X202120000Y73935000D02*
X202120000Y74305000D01*
G75*
G02*
X202255000Y74440000I135000J0D01*
G01*
X202525000Y74440000D01*
G75*
G02*
X202660000Y74305000I0J-135000D01*
G01*
X202660000Y73935000D01*
G75*
G02*
X202525000Y73800000I-135000J0D01*
G01*
X202255000Y73800000D01*
G75*
G02*
X202120000Y73935000I0J135000D01*
G01*
G37*
G36*
G01*
X76035000Y76970000D02*
X76035000Y76770000D01*
G75*
G02*
X75985000Y76720000I-50000J0D01*
G01*
X75415000Y76720000D01*
G75*
G02*
X75365000Y76770000I0J50000D01*
G01*
X75365000Y76970000D01*
G75*
G02*
X75415000Y77020000I50000J0D01*
G01*
X75985000Y77020000D01*
G75*
G02*
X76035000Y76970000I0J-50000D01*
G01*
G37*
G36*
G01*
X76035000Y77470000D02*
X76035000Y77270000D01*
G75*
G02*
X75985000Y77220000I-50000J0D01*
G01*
X75415000Y77220000D01*
G75*
G02*
X75365000Y77270000I0J50000D01*
G01*
X75365000Y77470000D01*
G75*
G02*
X75415000Y77520000I50000J0D01*
G01*
X75985000Y77520000D01*
G75*
G02*
X76035000Y77470000I0J-50000D01*
G01*
G37*
G36*
G01*
X76035000Y77970000D02*
X76035000Y77770000D01*
G75*
G02*
X75985000Y77720000I-50000J0D01*
G01*
X75415000Y77720000D01*
G75*
G02*
X75365000Y77770000I0J50000D01*
G01*
X75365000Y77970000D01*
G75*
G02*
X75415000Y78020000I50000J0D01*
G01*
X75985000Y78020000D01*
G75*
G02*
X76035000Y77970000I0J-50000D01*
G01*
G37*
G36*
G01*
X76035000Y78470000D02*
X76035000Y78270000D01*
G75*
G02*
X75985000Y78220000I-50000J0D01*
G01*
X75415000Y78220000D01*
G75*
G02*
X75365000Y78270000I0J50000D01*
G01*
X75365000Y78470000D01*
G75*
G02*
X75415000Y78520000I50000J0D01*
G01*
X75985000Y78520000D01*
G75*
G02*
X76035000Y78470000I0J-50000D01*
G01*
G37*
G36*
G01*
X74555000Y78470000D02*
X74555000Y78270000D01*
G75*
G02*
X74505000Y78220000I-50000J0D01*
G01*
X73935000Y78220000D01*
G75*
G02*
X73885000Y78270000I0J50000D01*
G01*
X73885000Y78470000D01*
G75*
G02*
X73935000Y78520000I50000J0D01*
G01*
X74505000Y78520000D01*
G75*
G02*
X74555000Y78470000I0J-50000D01*
G01*
G37*
G36*
G01*
X74555000Y77970000D02*
X74555000Y77770000D01*
G75*
G02*
X74505000Y77720000I-50000J0D01*
G01*
X73935000Y77720000D01*
G75*
G02*
X73885000Y77770000I0J50000D01*
G01*
X73885000Y77970000D01*
G75*
G02*
X73935000Y78020000I50000J0D01*
G01*
X74505000Y78020000D01*
G75*
G02*
X74555000Y77970000I0J-50000D01*
G01*
G37*
G36*
G01*
X74555000Y77470000D02*
X74555000Y77270000D01*
G75*
G02*
X74505000Y77220000I-50000J0D01*
G01*
X73935000Y77220000D01*
G75*
G02*
X73885000Y77270000I0J50000D01*
G01*
X73885000Y77470000D01*
G75*
G02*
X73935000Y77520000I50000J0D01*
G01*
X74505000Y77520000D01*
G75*
G02*
X74555000Y77470000I0J-50000D01*
G01*
G37*
G36*
G01*
X74555000Y76970000D02*
X74555000Y76770000D01*
G75*
G02*
X74505000Y76720000I-50000J0D01*
G01*
X73935000Y76720000D01*
G75*
G02*
X73885000Y76770000I0J50000D01*
G01*
X73885000Y76970000D01*
G75*
G02*
X73935000Y77020000I50000J0D01*
G01*
X74505000Y77020000D01*
G75*
G02*
X74555000Y76970000I0J-50000D01*
G01*
G37*
D17*
X101600000Y25400000D03*
D18*
X99060000Y25400000D03*
X96520000Y25400000D03*
X93980000Y25400000D03*
X91440000Y25400000D03*
G36*
G01*
X140140000Y73935000D02*
X140140000Y74305000D01*
G75*
G02*
X140275000Y74440000I135000J0D01*
G01*
X140545000Y74440000D01*
G75*
G02*
X140680000Y74305000I0J-135000D01*
G01*
X140680000Y73935000D01*
G75*
G02*
X140545000Y73800000I-135000J0D01*
G01*
X140275000Y73800000D01*
G75*
G02*
X140140000Y73935000I0J135000D01*
G01*
G37*
G36*
G01*
X141160000Y73935000D02*
X141160000Y74305000D01*
G75*
G02*
X141295000Y74440000I135000J0D01*
G01*
X141565000Y74440000D01*
G75*
G02*
X141700000Y74305000I0J-135000D01*
G01*
X141700000Y73935000D01*
G75*
G02*
X141565000Y73800000I-135000J0D01*
G01*
X141295000Y73800000D01*
G75*
G02*
X141160000Y73935000I0J135000D01*
G01*
G37*
D14*
X121920000Y74920000D03*
D15*
X123920000Y74920000D03*
G36*
G01*
X218674000Y127196000D02*
X218674000Y127566000D01*
G75*
G02*
X218809000Y127701000I135000J0D01*
G01*
X219079000Y127701000D01*
G75*
G02*
X219214000Y127566000I0J-135000D01*
G01*
X219214000Y127196000D01*
G75*
G02*
X219079000Y127061000I-135000J0D01*
G01*
X218809000Y127061000D01*
G75*
G02*
X218674000Y127196000I0J135000D01*
G01*
G37*
G36*
G01*
X219694000Y127196000D02*
X219694000Y127566000D01*
G75*
G02*
X219829000Y127701000I135000J0D01*
G01*
X220099000Y127701000D01*
G75*
G02*
X220234000Y127566000I0J-135000D01*
G01*
X220234000Y127196000D01*
G75*
G02*
X220099000Y127061000I-135000J0D01*
G01*
X219829000Y127061000D01*
G75*
G02*
X219694000Y127196000I0J135000D01*
G01*
G37*
G36*
G01*
X22280000Y138170000D02*
X22280000Y137830000D01*
G75*
G02*
X22140000Y137690000I-140000J0D01*
G01*
X21860000Y137690000D01*
G75*
G02*
X21720000Y137830000I0J140000D01*
G01*
X21720000Y138170000D01*
G75*
G02*
X21860000Y138310000I140000J0D01*
G01*
X22140000Y138310000D01*
G75*
G02*
X22280000Y138170000I0J-140000D01*
G01*
G37*
G36*
G01*
X21320000Y138170000D02*
X21320000Y137830000D01*
G75*
G02*
X21180000Y137690000I-140000J0D01*
G01*
X20900000Y137690000D01*
G75*
G02*
X20760000Y137830000I0J140000D01*
G01*
X20760000Y138170000D01*
G75*
G02*
X20900000Y138310000I140000J0D01*
G01*
X21180000Y138310000D01*
G75*
G02*
X21320000Y138170000I0J-140000D01*
G01*
G37*
G36*
G01*
X45435000Y145650000D02*
X45435000Y145450000D01*
G75*
G02*
X45385000Y145400000I-50000J0D01*
G01*
X44815000Y145400000D01*
G75*
G02*
X44765000Y145450000I0J50000D01*
G01*
X44765000Y145650000D01*
G75*
G02*
X44815000Y145700000I50000J0D01*
G01*
X45385000Y145700000D01*
G75*
G02*
X45435000Y145650000I0J-50000D01*
G01*
G37*
G36*
G01*
X45435000Y146150000D02*
X45435000Y145950000D01*
G75*
G02*
X45385000Y145900000I-50000J0D01*
G01*
X44815000Y145900000D01*
G75*
G02*
X44765000Y145950000I0J50000D01*
G01*
X44765000Y146150000D01*
G75*
G02*
X44815000Y146200000I50000J0D01*
G01*
X45385000Y146200000D01*
G75*
G02*
X45435000Y146150000I0J-50000D01*
G01*
G37*
G36*
G01*
X45435000Y146650000D02*
X45435000Y146450000D01*
G75*
G02*
X45385000Y146400000I-50000J0D01*
G01*
X44815000Y146400000D01*
G75*
G02*
X44765000Y146450000I0J50000D01*
G01*
X44765000Y146650000D01*
G75*
G02*
X44815000Y146700000I50000J0D01*
G01*
X45385000Y146700000D01*
G75*
G02*
X45435000Y146650000I0J-50000D01*
G01*
G37*
G36*
G01*
X45435000Y147150000D02*
X45435000Y146950000D01*
G75*
G02*
X45385000Y146900000I-50000J0D01*
G01*
X44815000Y146900000D01*
G75*
G02*
X44765000Y146950000I0J50000D01*
G01*
X44765000Y147150000D01*
G75*
G02*
X44815000Y147200000I50000J0D01*
G01*
X45385000Y147200000D01*
G75*
G02*
X45435000Y147150000I0J-50000D01*
G01*
G37*
G36*
G01*
X43955000Y147150000D02*
X43955000Y146950000D01*
G75*
G02*
X43905000Y146900000I-50000J0D01*
G01*
X43335000Y146900000D01*
G75*
G02*
X43285000Y146950000I0J50000D01*
G01*
X43285000Y147150000D01*
G75*
G02*
X43335000Y147200000I50000J0D01*
G01*
X43905000Y147200000D01*
G75*
G02*
X43955000Y147150000I0J-50000D01*
G01*
G37*
G36*
G01*
X43955000Y146650000D02*
X43955000Y146450000D01*
G75*
G02*
X43905000Y146400000I-50000J0D01*
G01*
X43335000Y146400000D01*
G75*
G02*
X43285000Y146450000I0J50000D01*
G01*
X43285000Y146650000D01*
G75*
G02*
X43335000Y146700000I50000J0D01*
G01*
X43905000Y146700000D01*
G75*
G02*
X43955000Y146650000I0J-50000D01*
G01*
G37*
G36*
G01*
X43955000Y146150000D02*
X43955000Y145950000D01*
G75*
G02*
X43905000Y145900000I-50000J0D01*
G01*
X43335000Y145900000D01*
G75*
G02*
X43285000Y145950000I0J50000D01*
G01*
X43285000Y146150000D01*
G75*
G02*
X43335000Y146200000I50000J0D01*
G01*
X43905000Y146200000D01*
G75*
G02*
X43955000Y146150000I0J-50000D01*
G01*
G37*
G36*
G01*
X43955000Y145650000D02*
X43955000Y145450000D01*
G75*
G02*
X43905000Y145400000I-50000J0D01*
G01*
X43335000Y145400000D01*
G75*
G02*
X43285000Y145450000I0J50000D01*
G01*
X43285000Y145650000D01*
G75*
G02*
X43335000Y145700000I50000J0D01*
G01*
X43905000Y145700000D01*
G75*
G02*
X43955000Y145650000I0J-50000D01*
G01*
G37*
G36*
G01*
X217990000Y81020000D02*
X217620000Y81020000D01*
G75*
G02*
X217485000Y81155000I0J135000D01*
G01*
X217485000Y81425000D01*
G75*
G02*
X217620000Y81560000I135000J0D01*
G01*
X217990000Y81560000D01*
G75*
G02*
X218125000Y81425000I0J-135000D01*
G01*
X218125000Y81155000D01*
G75*
G02*
X217990000Y81020000I-135000J0D01*
G01*
G37*
G36*
G01*
X217990000Y82040000D02*
X217620000Y82040000D01*
G75*
G02*
X217485000Y82175000I0J135000D01*
G01*
X217485000Y82445000D01*
G75*
G02*
X217620000Y82580000I135000J0D01*
G01*
X217990000Y82580000D01*
G75*
G02*
X218125000Y82445000I0J-135000D01*
G01*
X218125000Y82175000D01*
G75*
G02*
X217990000Y82040000I-135000J0D01*
G01*
G37*
G36*
G01*
X79180000Y142515000D02*
X79180000Y142885000D01*
G75*
G02*
X79315000Y143020000I135000J0D01*
G01*
X79585000Y143020000D01*
G75*
G02*
X79720000Y142885000I0J-135000D01*
G01*
X79720000Y142515000D01*
G75*
G02*
X79585000Y142380000I-135000J0D01*
G01*
X79315000Y142380000D01*
G75*
G02*
X79180000Y142515000I0J135000D01*
G01*
G37*
G36*
G01*
X80200000Y142515000D02*
X80200000Y142885000D01*
G75*
G02*
X80335000Y143020000I135000J0D01*
G01*
X80605000Y143020000D01*
G75*
G02*
X80740000Y142885000I0J-135000D01*
G01*
X80740000Y142515000D01*
G75*
G02*
X80605000Y142380000I-135000J0D01*
G01*
X80335000Y142380000D01*
G75*
G02*
X80200000Y142515000I0J135000D01*
G01*
G37*
G36*
G01*
X9075000Y142093000D02*
X8705000Y142093000D01*
G75*
G02*
X8570000Y142228000I0J135000D01*
G01*
X8570000Y142498000D01*
G75*
G02*
X8705000Y142633000I135000J0D01*
G01*
X9075000Y142633000D01*
G75*
G02*
X9210000Y142498000I0J-135000D01*
G01*
X9210000Y142228000D01*
G75*
G02*
X9075000Y142093000I-135000J0D01*
G01*
G37*
G36*
G01*
X9075000Y143113000D02*
X8705000Y143113000D01*
G75*
G02*
X8570000Y143248000I0J135000D01*
G01*
X8570000Y143518000D01*
G75*
G02*
X8705000Y143653000I135000J0D01*
G01*
X9075000Y143653000D01*
G75*
G02*
X9210000Y143518000I0J-135000D01*
G01*
X9210000Y143248000D01*
G75*
G02*
X9075000Y143113000I-135000J0D01*
G01*
G37*
D17*
X71120000Y25400000D03*
D18*
X68580000Y25400000D03*
X66040000Y25400000D03*
X63500000Y25400000D03*
X60960000Y25400000D03*
D17*
X101600000Y71120000D03*
D18*
X99060000Y71120000D03*
X96520000Y71120000D03*
X93980000Y71120000D03*
X91440000Y71120000D03*
G36*
G01*
X200957500Y60310000D02*
X200957500Y61610000D01*
G75*
G02*
X201207500Y61860000I250000J0D01*
G01*
X201857500Y61860000D01*
G75*
G02*
X202107500Y61610000I0J-250000D01*
G01*
X202107500Y60310000D01*
G75*
G02*
X201857500Y60060000I-250000J0D01*
G01*
X201207500Y60060000D01*
G75*
G02*
X200957500Y60310000I0J250000D01*
G01*
G37*
G36*
G01*
X203907500Y60310000D02*
X203907500Y61610000D01*
G75*
G02*
X204157500Y61860000I250000J0D01*
G01*
X204807500Y61860000D01*
G75*
G02*
X205057500Y61610000I0J-250000D01*
G01*
X205057500Y60310000D01*
G75*
G02*
X204807500Y60060000I-250000J0D01*
G01*
X204157500Y60060000D01*
G75*
G02*
X203907500Y60310000I0J250000D01*
G01*
G37*
G36*
G01*
X74200000Y73950000D02*
X74200000Y74290000D01*
G75*
G02*
X74340000Y74430000I140000J0D01*
G01*
X74620000Y74430000D01*
G75*
G02*
X74760000Y74290000I0J-140000D01*
G01*
X74760000Y73950000D01*
G75*
G02*
X74620000Y73810000I-140000J0D01*
G01*
X74340000Y73810000D01*
G75*
G02*
X74200000Y73950000I0J140000D01*
G01*
G37*
G36*
G01*
X75160000Y73950000D02*
X75160000Y74290000D01*
G75*
G02*
X75300000Y74430000I140000J0D01*
G01*
X75580000Y74430000D01*
G75*
G02*
X75720000Y74290000I0J-140000D01*
G01*
X75720000Y73950000D01*
G75*
G02*
X75580000Y73810000I-140000J0D01*
G01*
X75300000Y73810000D01*
G75*
G02*
X75160000Y73950000I0J140000D01*
G01*
G37*
G36*
G01*
X16343000Y111422000D02*
X16343000Y111082000D01*
G75*
G02*
X16203000Y110942000I-140000J0D01*
G01*
X15923000Y110942000D01*
G75*
G02*
X15783000Y111082000I0J140000D01*
G01*
X15783000Y111422000D01*
G75*
G02*
X15923000Y111562000I140000J0D01*
G01*
X16203000Y111562000D01*
G75*
G02*
X16343000Y111422000I0J-140000D01*
G01*
G37*
G36*
G01*
X15383000Y111422000D02*
X15383000Y111082000D01*
G75*
G02*
X15243000Y110942000I-140000J0D01*
G01*
X14963000Y110942000D01*
G75*
G02*
X14823000Y111082000I0J140000D01*
G01*
X14823000Y111422000D01*
G75*
G02*
X14963000Y111562000I140000J0D01*
G01*
X15243000Y111562000D01*
G75*
G02*
X15383000Y111422000I0J-140000D01*
G01*
G37*
G36*
G01*
X167475000Y145550000D02*
X167475000Y145350000D01*
G75*
G02*
X167425000Y145300000I-50000J0D01*
G01*
X166855000Y145300000D01*
G75*
G02*
X166805000Y145350000I0J50000D01*
G01*
X166805000Y145550000D01*
G75*
G02*
X166855000Y145600000I50000J0D01*
G01*
X167425000Y145600000D01*
G75*
G02*
X167475000Y145550000I0J-50000D01*
G01*
G37*
G36*
G01*
X167475000Y146050000D02*
X167475000Y145850000D01*
G75*
G02*
X167425000Y145800000I-50000J0D01*
G01*
X166855000Y145800000D01*
G75*
G02*
X166805000Y145850000I0J50000D01*
G01*
X166805000Y146050000D01*
G75*
G02*
X166855000Y146100000I50000J0D01*
G01*
X167425000Y146100000D01*
G75*
G02*
X167475000Y146050000I0J-50000D01*
G01*
G37*
G36*
G01*
X167475000Y146550000D02*
X167475000Y146350000D01*
G75*
G02*
X167425000Y146300000I-50000J0D01*
G01*
X166855000Y146300000D01*
G75*
G02*
X166805000Y146350000I0J50000D01*
G01*
X166805000Y146550000D01*
G75*
G02*
X166855000Y146600000I50000J0D01*
G01*
X167425000Y146600000D01*
G75*
G02*
X167475000Y146550000I0J-50000D01*
G01*
G37*
G36*
G01*
X167475000Y147050000D02*
X167475000Y146850000D01*
G75*
G02*
X167425000Y146800000I-50000J0D01*
G01*
X166855000Y146800000D01*
G75*
G02*
X166805000Y146850000I0J50000D01*
G01*
X166805000Y147050000D01*
G75*
G02*
X166855000Y147100000I50000J0D01*
G01*
X167425000Y147100000D01*
G75*
G02*
X167475000Y147050000I0J-50000D01*
G01*
G37*
G36*
G01*
X165995000Y147050000D02*
X165995000Y146850000D01*
G75*
G02*
X165945000Y146800000I-50000J0D01*
G01*
X165375000Y146800000D01*
G75*
G02*
X165325000Y146850000I0J50000D01*
G01*
X165325000Y147050000D01*
G75*
G02*
X165375000Y147100000I50000J0D01*
G01*
X165945000Y147100000D01*
G75*
G02*
X165995000Y147050000I0J-50000D01*
G01*
G37*
G36*
G01*
X165995000Y146550000D02*
X165995000Y146350000D01*
G75*
G02*
X165945000Y146300000I-50000J0D01*
G01*
X165375000Y146300000D01*
G75*
G02*
X165325000Y146350000I0J50000D01*
G01*
X165325000Y146550000D01*
G75*
G02*
X165375000Y146600000I50000J0D01*
G01*
X165945000Y146600000D01*
G75*
G02*
X165995000Y146550000I0J-50000D01*
G01*
G37*
G36*
G01*
X165995000Y146050000D02*
X165995000Y145850000D01*
G75*
G02*
X165945000Y145800000I-50000J0D01*
G01*
X165375000Y145800000D01*
G75*
G02*
X165325000Y145850000I0J50000D01*
G01*
X165325000Y146050000D01*
G75*
G02*
X165375000Y146100000I50000J0D01*
G01*
X165945000Y146100000D01*
G75*
G02*
X165995000Y146050000I0J-50000D01*
G01*
G37*
G36*
G01*
X165995000Y145550000D02*
X165995000Y145350000D01*
G75*
G02*
X165945000Y145300000I-50000J0D01*
G01*
X165375000Y145300000D01*
G75*
G02*
X165325000Y145350000I0J50000D01*
G01*
X165325000Y145550000D01*
G75*
G02*
X165375000Y145600000I50000J0D01*
G01*
X165945000Y145600000D01*
G75*
G02*
X165995000Y145550000I0J-50000D01*
G01*
G37*
G36*
G01*
X79180000Y73935000D02*
X79180000Y74305000D01*
G75*
G02*
X79315000Y74440000I135000J0D01*
G01*
X79585000Y74440000D01*
G75*
G02*
X79720000Y74305000I0J-135000D01*
G01*
X79720000Y73935000D01*
G75*
G02*
X79585000Y73800000I-135000J0D01*
G01*
X79315000Y73800000D01*
G75*
G02*
X79180000Y73935000I0J135000D01*
G01*
G37*
G36*
G01*
X80200000Y73935000D02*
X80200000Y74305000D01*
G75*
G02*
X80335000Y74440000I135000J0D01*
G01*
X80605000Y74440000D01*
G75*
G02*
X80740000Y74305000I0J-135000D01*
G01*
X80740000Y73935000D01*
G75*
G02*
X80605000Y73800000I-135000J0D01*
G01*
X80335000Y73800000D01*
G75*
G02*
X80200000Y73935000I0J135000D01*
G01*
G37*
G36*
G01*
X43720000Y75350000D02*
X43720000Y75690000D01*
G75*
G02*
X43860000Y75830000I140000J0D01*
G01*
X44140000Y75830000D01*
G75*
G02*
X44280000Y75690000I0J-140000D01*
G01*
X44280000Y75350000D01*
G75*
G02*
X44140000Y75210000I-140000J0D01*
G01*
X43860000Y75210000D01*
G75*
G02*
X43720000Y75350000I0J140000D01*
G01*
G37*
G36*
G01*
X44680000Y75350000D02*
X44680000Y75690000D01*
G75*
G02*
X44820000Y75830000I140000J0D01*
G01*
X45100000Y75830000D01*
G75*
G02*
X45240000Y75690000I0J-140000D01*
G01*
X45240000Y75350000D01*
G75*
G02*
X45100000Y75210000I-140000J0D01*
G01*
X44820000Y75210000D01*
G75*
G02*
X44680000Y75350000I0J140000D01*
G01*
G37*
D17*
X71120000Y71120000D03*
D18*
X68580000Y71120000D03*
X66040000Y71120000D03*
X63500000Y71120000D03*
X60960000Y71120000D03*
D24*
X208280000Y101600000D03*
D25*
X210820000Y101600000D03*
X213360000Y101600000D03*
X215900000Y101600000D03*
X218440000Y101600000D03*
G36*
G01*
X22770000Y142650000D02*
X22770000Y141350000D01*
G75*
G02*
X22520000Y141100000I-250000J0D01*
G01*
X21870000Y141100000D01*
G75*
G02*
X21620000Y141350000I0J250000D01*
G01*
X21620000Y142650000D01*
G75*
G02*
X21870000Y142900000I250000J0D01*
G01*
X22520000Y142900000D01*
G75*
G02*
X22770000Y142650000I0J-250000D01*
G01*
G37*
G36*
G01*
X19820000Y142650000D02*
X19820000Y141350000D01*
G75*
G02*
X19570000Y141100000I-250000J0D01*
G01*
X18920000Y141100000D01*
G75*
G02*
X18670000Y141350000I0J250000D01*
G01*
X18670000Y142650000D01*
G75*
G02*
X18920000Y142900000I250000J0D01*
G01*
X19570000Y142900000D01*
G75*
G02*
X19820000Y142650000I0J-250000D01*
G01*
G37*
G36*
G01*
X200945000Y38720000D02*
X200945000Y40020000D01*
G75*
G02*
X201195000Y40270000I250000J0D01*
G01*
X201845000Y40270000D01*
G75*
G02*
X202095000Y40020000I0J-250000D01*
G01*
X202095000Y38720000D01*
G75*
G02*
X201845000Y38470000I-250000J0D01*
G01*
X201195000Y38470000D01*
G75*
G02*
X200945000Y38720000I0J250000D01*
G01*
G37*
G36*
G01*
X203895000Y38720000D02*
X203895000Y40020000D01*
G75*
G02*
X204145000Y40270000I250000J0D01*
G01*
X204795000Y40270000D01*
G75*
G02*
X205045000Y40020000I0J-250000D01*
G01*
X205045000Y38720000D01*
G75*
G02*
X204795000Y38470000I-250000J0D01*
G01*
X204145000Y38470000D01*
G75*
G02*
X203895000Y38720000I0J250000D01*
G01*
G37*
G36*
G01*
X15238000Y119550000D02*
X15238000Y119210000D01*
G75*
G02*
X15098000Y119070000I-140000J0D01*
G01*
X14818000Y119070000D01*
G75*
G02*
X14678000Y119210000I0J140000D01*
G01*
X14678000Y119550000D01*
G75*
G02*
X14818000Y119690000I140000J0D01*
G01*
X15098000Y119690000D01*
G75*
G02*
X15238000Y119550000I0J-140000D01*
G01*
G37*
G36*
G01*
X14278000Y119550000D02*
X14278000Y119210000D01*
G75*
G02*
X14138000Y119070000I-140000J0D01*
G01*
X13858000Y119070000D01*
G75*
G02*
X13718000Y119210000I0J140000D01*
G01*
X13718000Y119550000D01*
G75*
G02*
X13858000Y119690000I140000J0D01*
G01*
X14138000Y119690000D01*
G75*
G02*
X14278000Y119550000I0J-140000D01*
G01*
G37*
G36*
G01*
X209210000Y82170000D02*
X209210000Y82470000D01*
G75*
G02*
X209360000Y82620000I150000J0D01*
G01*
X211010000Y82620000D01*
G75*
G02*
X211160000Y82470000I0J-150000D01*
G01*
X211160000Y82170000D01*
G75*
G02*
X211010000Y82020000I-150000J0D01*
G01*
X209360000Y82020000D01*
G75*
G02*
X209210000Y82170000I0J150000D01*
G01*
G37*
G36*
G01*
X209210000Y80900000D02*
X209210000Y81200000D01*
G75*
G02*
X209360000Y81350000I150000J0D01*
G01*
X211010000Y81350000D01*
G75*
G02*
X211160000Y81200000I0J-150000D01*
G01*
X211160000Y80900000D01*
G75*
G02*
X211010000Y80750000I-150000J0D01*
G01*
X209360000Y80750000D01*
G75*
G02*
X209210000Y80900000I0J150000D01*
G01*
G37*
G36*
G01*
X209210000Y79630000D02*
X209210000Y79930000D01*
G75*
G02*
X209360000Y80080000I150000J0D01*
G01*
X211010000Y80080000D01*
G75*
G02*
X211160000Y79930000I0J-150000D01*
G01*
X211160000Y79630000D01*
G75*
G02*
X211010000Y79480000I-150000J0D01*
G01*
X209360000Y79480000D01*
G75*
G02*
X209210000Y79630000I0J150000D01*
G01*
G37*
G36*
G01*
X209210000Y78360000D02*
X209210000Y78660000D01*
G75*
G02*
X209360000Y78810000I150000J0D01*
G01*
X211010000Y78810000D01*
G75*
G02*
X211160000Y78660000I0J-150000D01*
G01*
X211160000Y78360000D01*
G75*
G02*
X211010000Y78210000I-150000J0D01*
G01*
X209360000Y78210000D01*
G75*
G02*
X209210000Y78360000I0J150000D01*
G01*
G37*
G36*
G01*
X214160000Y78360000D02*
X214160000Y78660000D01*
G75*
G02*
X214310000Y78810000I150000J0D01*
G01*
X215960000Y78810000D01*
G75*
G02*
X216110000Y78660000I0J-150000D01*
G01*
X216110000Y78360000D01*
G75*
G02*
X215960000Y78210000I-150000J0D01*
G01*
X214310000Y78210000D01*
G75*
G02*
X214160000Y78360000I0J150000D01*
G01*
G37*
G36*
G01*
X214160000Y79630000D02*
X214160000Y79930000D01*
G75*
G02*
X214310000Y80080000I150000J0D01*
G01*
X215960000Y80080000D01*
G75*
G02*
X216110000Y79930000I0J-150000D01*
G01*
X216110000Y79630000D01*
G75*
G02*
X215960000Y79480000I-150000J0D01*
G01*
X214310000Y79480000D01*
G75*
G02*
X214160000Y79630000I0J150000D01*
G01*
G37*
G36*
G01*
X214160000Y80900000D02*
X214160000Y81200000D01*
G75*
G02*
X214310000Y81350000I150000J0D01*
G01*
X215960000Y81350000D01*
G75*
G02*
X216110000Y81200000I0J-150000D01*
G01*
X216110000Y80900000D01*
G75*
G02*
X215960000Y80750000I-150000J0D01*
G01*
X214310000Y80750000D01*
G75*
G02*
X214160000Y80900000I0J150000D01*
G01*
G37*
G36*
G01*
X214160000Y82170000D02*
X214160000Y82470000D01*
G75*
G02*
X214310000Y82620000I150000J0D01*
G01*
X215960000Y82620000D01*
G75*
G02*
X216110000Y82470000I0J-150000D01*
G01*
X216110000Y82170000D01*
G75*
G02*
X215960000Y82020000I-150000J0D01*
G01*
X214310000Y82020000D01*
G75*
G02*
X214160000Y82170000I0J150000D01*
G01*
G37*
G36*
G01*
X217460000Y112630000D02*
X217460000Y112970000D01*
G75*
G02*
X217600000Y113110000I140000J0D01*
G01*
X217880000Y113110000D01*
G75*
G02*
X218020000Y112970000I0J-140000D01*
G01*
X218020000Y112630000D01*
G75*
G02*
X217880000Y112490000I-140000J0D01*
G01*
X217600000Y112490000D01*
G75*
G02*
X217460000Y112630000I0J140000D01*
G01*
G37*
G36*
G01*
X218420000Y112630000D02*
X218420000Y112970000D01*
G75*
G02*
X218560000Y113110000I140000J0D01*
G01*
X218840000Y113110000D01*
G75*
G02*
X218980000Y112970000I0J-140000D01*
G01*
X218980000Y112630000D01*
G75*
G02*
X218840000Y112490000I-140000J0D01*
G01*
X218560000Y112490000D01*
G75*
G02*
X218420000Y112630000I0J140000D01*
G01*
G37*
G36*
G01*
X15624000Y107208000D02*
X15994000Y107208000D01*
G75*
G02*
X16129000Y107073000I0J-135000D01*
G01*
X16129000Y106803000D01*
G75*
G02*
X15994000Y106668000I-135000J0D01*
G01*
X15624000Y106668000D01*
G75*
G02*
X15489000Y106803000I0J135000D01*
G01*
X15489000Y107073000D01*
G75*
G02*
X15624000Y107208000I135000J0D01*
G01*
G37*
G36*
G01*
X15624000Y106188000D02*
X15994000Y106188000D01*
G75*
G02*
X16129000Y106053000I0J-135000D01*
G01*
X16129000Y105783000D01*
G75*
G02*
X15994000Y105648000I-135000J0D01*
G01*
X15624000Y105648000D01*
G75*
G02*
X15489000Y105783000I0J135000D01*
G01*
X15489000Y106053000D01*
G75*
G02*
X15624000Y106188000I135000J0D01*
G01*
G37*
G36*
G01*
X43600000Y144030000D02*
X43600000Y144370000D01*
G75*
G02*
X43740000Y144510000I140000J0D01*
G01*
X44020000Y144510000D01*
G75*
G02*
X44160000Y144370000I0J-140000D01*
G01*
X44160000Y144030000D01*
G75*
G02*
X44020000Y143890000I-140000J0D01*
G01*
X43740000Y143890000D01*
G75*
G02*
X43600000Y144030000I0J140000D01*
G01*
G37*
G36*
G01*
X44560000Y144030000D02*
X44560000Y144370000D01*
G75*
G02*
X44700000Y144510000I140000J0D01*
G01*
X44980000Y144510000D01*
G75*
G02*
X45120000Y144370000I0J-140000D01*
G01*
X45120000Y144030000D01*
G75*
G02*
X44980000Y143890000I-140000J0D01*
G01*
X44700000Y143890000D01*
G75*
G02*
X44560000Y144030000I0J140000D01*
G01*
G37*
G36*
G01*
X74200000Y75350000D02*
X74200000Y75690000D01*
G75*
G02*
X74340000Y75830000I140000J0D01*
G01*
X74620000Y75830000D01*
G75*
G02*
X74760000Y75690000I0J-140000D01*
G01*
X74760000Y75350000D01*
G75*
G02*
X74620000Y75210000I-140000J0D01*
G01*
X74340000Y75210000D01*
G75*
G02*
X74200000Y75350000I0J140000D01*
G01*
G37*
G36*
G01*
X75160000Y75350000D02*
X75160000Y75690000D01*
G75*
G02*
X75300000Y75830000I140000J0D01*
G01*
X75580000Y75830000D01*
G75*
G02*
X75720000Y75690000I0J-140000D01*
G01*
X75720000Y75350000D01*
G75*
G02*
X75580000Y75210000I-140000J0D01*
G01*
X75300000Y75210000D01*
G75*
G02*
X75160000Y75350000I0J140000D01*
G01*
G37*
G36*
G01*
X106515000Y76970000D02*
X106515000Y76770000D01*
G75*
G02*
X106465000Y76720000I-50000J0D01*
G01*
X105895000Y76720000D01*
G75*
G02*
X105845000Y76770000I0J50000D01*
G01*
X105845000Y76970000D01*
G75*
G02*
X105895000Y77020000I50000J0D01*
G01*
X106465000Y77020000D01*
G75*
G02*
X106515000Y76970000I0J-50000D01*
G01*
G37*
G36*
G01*
X106515000Y77470000D02*
X106515000Y77270000D01*
G75*
G02*
X106465000Y77220000I-50000J0D01*
G01*
X105895000Y77220000D01*
G75*
G02*
X105845000Y77270000I0J50000D01*
G01*
X105845000Y77470000D01*
G75*
G02*
X105895000Y77520000I50000J0D01*
G01*
X106465000Y77520000D01*
G75*
G02*
X106515000Y77470000I0J-50000D01*
G01*
G37*
G36*
G01*
X106515000Y77970000D02*
X106515000Y77770000D01*
G75*
G02*
X106465000Y77720000I-50000J0D01*
G01*
X105895000Y77720000D01*
G75*
G02*
X105845000Y77770000I0J50000D01*
G01*
X105845000Y77970000D01*
G75*
G02*
X105895000Y78020000I50000J0D01*
G01*
X106465000Y78020000D01*
G75*
G02*
X106515000Y77970000I0J-50000D01*
G01*
G37*
G36*
G01*
X106515000Y78470000D02*
X106515000Y78270000D01*
G75*
G02*
X106465000Y78220000I-50000J0D01*
G01*
X105895000Y78220000D01*
G75*
G02*
X105845000Y78270000I0J50000D01*
G01*
X105845000Y78470000D01*
G75*
G02*
X105895000Y78520000I50000J0D01*
G01*
X106465000Y78520000D01*
G75*
G02*
X106515000Y78470000I0J-50000D01*
G01*
G37*
G36*
G01*
X105035000Y78470000D02*
X105035000Y78270000D01*
G75*
G02*
X104985000Y78220000I-50000J0D01*
G01*
X104415000Y78220000D01*
G75*
G02*
X104365000Y78270000I0J50000D01*
G01*
X104365000Y78470000D01*
G75*
G02*
X104415000Y78520000I50000J0D01*
G01*
X104985000Y78520000D01*
G75*
G02*
X105035000Y78470000I0J-50000D01*
G01*
G37*
G36*
G01*
X105035000Y77970000D02*
X105035000Y77770000D01*
G75*
G02*
X104985000Y77720000I-50000J0D01*
G01*
X104415000Y77720000D01*
G75*
G02*
X104365000Y77770000I0J50000D01*
G01*
X104365000Y77970000D01*
G75*
G02*
X104415000Y78020000I50000J0D01*
G01*
X104985000Y78020000D01*
G75*
G02*
X105035000Y77970000I0J-50000D01*
G01*
G37*
G36*
G01*
X105035000Y77470000D02*
X105035000Y77270000D01*
G75*
G02*
X104985000Y77220000I-50000J0D01*
G01*
X104415000Y77220000D01*
G75*
G02*
X104365000Y77270000I0J50000D01*
G01*
X104365000Y77470000D01*
G75*
G02*
X104415000Y77520000I50000J0D01*
G01*
X104985000Y77520000D01*
G75*
G02*
X105035000Y77470000I0J-50000D01*
G01*
G37*
G36*
G01*
X105035000Y76970000D02*
X105035000Y76770000D01*
G75*
G02*
X104985000Y76720000I-50000J0D01*
G01*
X104415000Y76720000D01*
G75*
G02*
X104365000Y76770000I0J50000D01*
G01*
X104365000Y76970000D01*
G75*
G02*
X104415000Y77020000I50000J0D01*
G01*
X104985000Y77020000D01*
G75*
G02*
X105035000Y76970000I0J-50000D01*
G01*
G37*
G36*
G01*
X207195000Y80895000D02*
X206825000Y80895000D01*
G75*
G02*
X206690000Y81030000I0J135000D01*
G01*
X206690000Y81300000D01*
G75*
G02*
X206825000Y81435000I135000J0D01*
G01*
X207195000Y81435000D01*
G75*
G02*
X207330000Y81300000I0J-135000D01*
G01*
X207330000Y81030000D01*
G75*
G02*
X207195000Y80895000I-135000J0D01*
G01*
G37*
G36*
G01*
X207195000Y81915000D02*
X206825000Y81915000D01*
G75*
G02*
X206690000Y82050000I0J135000D01*
G01*
X206690000Y82320000D01*
G75*
G02*
X206825000Y82455000I135000J0D01*
G01*
X207195000Y82455000D01*
G75*
G02*
X207330000Y82320000I0J-135000D01*
G01*
X207330000Y82050000D01*
G75*
G02*
X207195000Y81915000I-135000J0D01*
G01*
G37*
G36*
G01*
X16720000Y132250000D02*
X16720000Y129350000D01*
G75*
G02*
X16470000Y129100000I-250000J0D01*
G01*
X15845000Y129100000D01*
G75*
G02*
X15595000Y129350000I0J250000D01*
G01*
X15595000Y132250000D01*
G75*
G02*
X15845000Y132500000I250000J0D01*
G01*
X16470000Y132500000D01*
G75*
G02*
X16720000Y132250000I0J-250000D01*
G01*
G37*
G36*
G01*
X12445000Y132250000D02*
X12445000Y129350000D01*
G75*
G02*
X12195000Y129100000I-250000J0D01*
G01*
X11570000Y129100000D01*
G75*
G02*
X11320000Y129350000I0J250000D01*
G01*
X11320000Y132250000D01*
G75*
G02*
X11570000Y132500000I250000J0D01*
G01*
X12195000Y132500000D01*
G75*
G02*
X12445000Y132250000I0J-250000D01*
G01*
G37*
G36*
G01*
X13919000Y103155000D02*
X12619000Y103155000D01*
G75*
G02*
X12369000Y103405000I0J250000D01*
G01*
X12369000Y104055000D01*
G75*
G02*
X12619000Y104305000I250000J0D01*
G01*
X13919000Y104305000D01*
G75*
G02*
X14169000Y104055000I0J-250000D01*
G01*
X14169000Y103405000D01*
G75*
G02*
X13919000Y103155000I-250000J0D01*
G01*
G37*
G36*
G01*
X13919000Y106105000D02*
X12619000Y106105000D01*
G75*
G02*
X12369000Y106355000I0J250000D01*
G01*
X12369000Y107005000D01*
G75*
G02*
X12619000Y107255000I250000J0D01*
G01*
X13919000Y107255000D01*
G75*
G02*
X14169000Y107005000I0J-250000D01*
G01*
X14169000Y106355000D01*
G75*
G02*
X13919000Y106105000I-250000J0D01*
G01*
G37*
G36*
G01*
X212375000Y117460000D02*
X212375000Y118760000D01*
G75*
G02*
X212625000Y119010000I250000J0D01*
G01*
X213275000Y119010000D01*
G75*
G02*
X213525000Y118760000I0J-250000D01*
G01*
X213525000Y117460000D01*
G75*
G02*
X213275000Y117210000I-250000J0D01*
G01*
X212625000Y117210000D01*
G75*
G02*
X212375000Y117460000I0J250000D01*
G01*
G37*
G36*
G01*
X215325000Y117460000D02*
X215325000Y118760000D01*
G75*
G02*
X215575000Y119010000I250000J0D01*
G01*
X216225000Y119010000D01*
G75*
G02*
X216475000Y118760000I0J-250000D01*
G01*
X216475000Y117460000D01*
G75*
G02*
X216225000Y117210000I-250000J0D01*
G01*
X215575000Y117210000D01*
G75*
G02*
X215325000Y117460000I0J250000D01*
G01*
G37*
D17*
X40640000Y71120000D03*
D18*
X38100000Y71120000D03*
X35560000Y71120000D03*
X33020000Y71120000D03*
X30480000Y71120000D03*
G36*
G01*
X200957500Y52055000D02*
X200957500Y53355000D01*
G75*
G02*
X201207500Y53605000I250000J0D01*
G01*
X201857500Y53605000D01*
G75*
G02*
X202107500Y53355000I0J-250000D01*
G01*
X202107500Y52055000D01*
G75*
G02*
X201857500Y51805000I-250000J0D01*
G01*
X201207500Y51805000D01*
G75*
G02*
X200957500Y52055000I0J250000D01*
G01*
G37*
G36*
G01*
X203907500Y52055000D02*
X203907500Y53355000D01*
G75*
G02*
X204157500Y53605000I250000J0D01*
G01*
X204807500Y53605000D01*
G75*
G02*
X205057500Y53355000I0J-250000D01*
G01*
X205057500Y52055000D01*
G75*
G02*
X204807500Y51805000I-250000J0D01*
G01*
X204157500Y51805000D01*
G75*
G02*
X203907500Y52055000I0J250000D01*
G01*
G37*
G36*
G01*
X217930000Y126570000D02*
X217930000Y126230000D01*
G75*
G02*
X217790000Y126090000I-140000J0D01*
G01*
X217510000Y126090000D01*
G75*
G02*
X217370000Y126230000I0J140000D01*
G01*
X217370000Y126570000D01*
G75*
G02*
X217510000Y126710000I140000J0D01*
G01*
X217790000Y126710000D01*
G75*
G02*
X217930000Y126570000I0J-140000D01*
G01*
G37*
G36*
G01*
X216970000Y126570000D02*
X216970000Y126230000D01*
G75*
G02*
X216830000Y126090000I-140000J0D01*
G01*
X216550000Y126090000D01*
G75*
G02*
X216410000Y126230000I0J140000D01*
G01*
X216410000Y126570000D01*
G75*
G02*
X216550000Y126710000I140000J0D01*
G01*
X216830000Y126710000D01*
G75*
G02*
X216970000Y126570000I0J-140000D01*
G01*
G37*
D14*
X91440000Y74920000D03*
D15*
X93440000Y74920000D03*
G36*
G01*
X196120000Y142530000D02*
X196120000Y142870000D01*
G75*
G02*
X196260000Y143010000I140000J0D01*
G01*
X196540000Y143010000D01*
G75*
G02*
X196680000Y142870000I0J-140000D01*
G01*
X196680000Y142530000D01*
G75*
G02*
X196540000Y142390000I-140000J0D01*
G01*
X196260000Y142390000D01*
G75*
G02*
X196120000Y142530000I0J140000D01*
G01*
G37*
G36*
G01*
X197080000Y142530000D02*
X197080000Y142870000D01*
G75*
G02*
X197220000Y143010000I140000J0D01*
G01*
X197500000Y143010000D01*
G75*
G02*
X197640000Y142870000I0J-140000D01*
G01*
X197640000Y142530000D01*
G75*
G02*
X197500000Y142390000I-140000J0D01*
G01*
X197220000Y142390000D01*
G75*
G02*
X197080000Y142530000I0J140000D01*
G01*
G37*
G36*
G01*
X214940000Y86175000D02*
X214940000Y86545000D01*
G75*
G02*
X215075000Y86680000I135000J0D01*
G01*
X215345000Y86680000D01*
G75*
G02*
X215480000Y86545000I0J-135000D01*
G01*
X215480000Y86175000D01*
G75*
G02*
X215345000Y86040000I-135000J0D01*
G01*
X215075000Y86040000D01*
G75*
G02*
X214940000Y86175000I0J135000D01*
G01*
G37*
G36*
G01*
X215960000Y86175000D02*
X215960000Y86545000D01*
G75*
G02*
X216095000Y86680000I135000J0D01*
G01*
X216365000Y86680000D01*
G75*
G02*
X216500000Y86545000I0J-135000D01*
G01*
X216500000Y86175000D01*
G75*
G02*
X216365000Y86040000I-135000J0D01*
G01*
X216095000Y86040000D01*
G75*
G02*
X215960000Y86175000I0J135000D01*
G01*
G37*
G36*
G01*
X136995000Y145550000D02*
X136995000Y145350000D01*
G75*
G02*
X136945000Y145300000I-50000J0D01*
G01*
X136375000Y145300000D01*
G75*
G02*
X136325000Y145350000I0J50000D01*
G01*
X136325000Y145550000D01*
G75*
G02*
X136375000Y145600000I50000J0D01*
G01*
X136945000Y145600000D01*
G75*
G02*
X136995000Y145550000I0J-50000D01*
G01*
G37*
G36*
G01*
X136995000Y146050000D02*
X136995000Y145850000D01*
G75*
G02*
X136945000Y145800000I-50000J0D01*
G01*
X136375000Y145800000D01*
G75*
G02*
X136325000Y145850000I0J50000D01*
G01*
X136325000Y146050000D01*
G75*
G02*
X136375000Y146100000I50000J0D01*
G01*
X136945000Y146100000D01*
G75*
G02*
X136995000Y146050000I0J-50000D01*
G01*
G37*
G36*
G01*
X136995000Y146550000D02*
X136995000Y146350000D01*
G75*
G02*
X136945000Y146300000I-50000J0D01*
G01*
X136375000Y146300000D01*
G75*
G02*
X136325000Y146350000I0J50000D01*
G01*
X136325000Y146550000D01*
G75*
G02*
X136375000Y146600000I50000J0D01*
G01*
X136945000Y146600000D01*
G75*
G02*
X136995000Y146550000I0J-50000D01*
G01*
G37*
G36*
G01*
X136995000Y147050000D02*
X136995000Y146850000D01*
G75*
G02*
X136945000Y146800000I-50000J0D01*
G01*
X136375000Y146800000D01*
G75*
G02*
X136325000Y146850000I0J50000D01*
G01*
X136325000Y147050000D01*
G75*
G02*
X136375000Y147100000I50000J0D01*
G01*
X136945000Y147100000D01*
G75*
G02*
X136995000Y147050000I0J-50000D01*
G01*
G37*
G36*
G01*
X135515000Y147050000D02*
X135515000Y146850000D01*
G75*
G02*
X135465000Y146800000I-50000J0D01*
G01*
X134895000Y146800000D01*
G75*
G02*
X134845000Y146850000I0J50000D01*
G01*
X134845000Y147050000D01*
G75*
G02*
X134895000Y147100000I50000J0D01*
G01*
X135465000Y147100000D01*
G75*
G02*
X135515000Y147050000I0J-50000D01*
G01*
G37*
G36*
G01*
X135515000Y146550000D02*
X135515000Y146350000D01*
G75*
G02*
X135465000Y146300000I-50000J0D01*
G01*
X134895000Y146300000D01*
G75*
G02*
X134845000Y146350000I0J50000D01*
G01*
X134845000Y146550000D01*
G75*
G02*
X134895000Y146600000I50000J0D01*
G01*
X135465000Y146600000D01*
G75*
G02*
X135515000Y146550000I0J-50000D01*
G01*
G37*
G36*
G01*
X135515000Y146050000D02*
X135515000Y145850000D01*
G75*
G02*
X135465000Y145800000I-50000J0D01*
G01*
X134895000Y145800000D01*
G75*
G02*
X134845000Y145850000I0J50000D01*
G01*
X134845000Y146050000D01*
G75*
G02*
X134895000Y146100000I50000J0D01*
G01*
X135465000Y146100000D01*
G75*
G02*
X135515000Y146050000I0J-50000D01*
G01*
G37*
G36*
G01*
X135515000Y145550000D02*
X135515000Y145350000D01*
G75*
G02*
X135465000Y145300000I-50000J0D01*
G01*
X134895000Y145300000D01*
G75*
G02*
X134845000Y145350000I0J50000D01*
G01*
X134845000Y145550000D01*
G75*
G02*
X134895000Y145600000I50000J0D01*
G01*
X135465000Y145600000D01*
G75*
G02*
X135515000Y145550000I0J-50000D01*
G01*
G37*
D14*
X182880000Y143500000D03*
D15*
X184880000Y143500000D03*
D17*
X132080000Y71120000D03*
D18*
X129540000Y71120000D03*
X127000000Y71120000D03*
X124460000Y71120000D03*
X121920000Y71120000D03*
G36*
G01*
X209210000Y91810000D02*
X209210000Y92110000D01*
G75*
G02*
X209360000Y92260000I150000J0D01*
G01*
X211010000Y92260000D01*
G75*
G02*
X211160000Y92110000I0J-150000D01*
G01*
X211160000Y91810000D01*
G75*
G02*
X211010000Y91660000I-150000J0D01*
G01*
X209360000Y91660000D01*
G75*
G02*
X209210000Y91810000I0J150000D01*
G01*
G37*
G36*
G01*
X209210000Y90540000D02*
X209210000Y90840000D01*
G75*
G02*
X209360000Y90990000I150000J0D01*
G01*
X211010000Y90990000D01*
G75*
G02*
X211160000Y90840000I0J-150000D01*
G01*
X211160000Y90540000D01*
G75*
G02*
X211010000Y90390000I-150000J0D01*
G01*
X209360000Y90390000D01*
G75*
G02*
X209210000Y90540000I0J150000D01*
G01*
G37*
G36*
G01*
X209210000Y89270000D02*
X209210000Y89570000D01*
G75*
G02*
X209360000Y89720000I150000J0D01*
G01*
X211010000Y89720000D01*
G75*
G02*
X211160000Y89570000I0J-150000D01*
G01*
X211160000Y89270000D01*
G75*
G02*
X211010000Y89120000I-150000J0D01*
G01*
X209360000Y89120000D01*
G75*
G02*
X209210000Y89270000I0J150000D01*
G01*
G37*
G36*
G01*
X209210000Y88000000D02*
X209210000Y88300000D01*
G75*
G02*
X209360000Y88450000I150000J0D01*
G01*
X211010000Y88450000D01*
G75*
G02*
X211160000Y88300000I0J-150000D01*
G01*
X211160000Y88000000D01*
G75*
G02*
X211010000Y87850000I-150000J0D01*
G01*
X209360000Y87850000D01*
G75*
G02*
X209210000Y88000000I0J150000D01*
G01*
G37*
G36*
G01*
X214160000Y88000000D02*
X214160000Y88300000D01*
G75*
G02*
X214310000Y88450000I150000J0D01*
G01*
X215960000Y88450000D01*
G75*
G02*
X216110000Y88300000I0J-150000D01*
G01*
X216110000Y88000000D01*
G75*
G02*
X215960000Y87850000I-150000J0D01*
G01*
X214310000Y87850000D01*
G75*
G02*
X214160000Y88000000I0J150000D01*
G01*
G37*
G36*
G01*
X214160000Y89270000D02*
X214160000Y89570000D01*
G75*
G02*
X214310000Y89720000I150000J0D01*
G01*
X215960000Y89720000D01*
G75*
G02*
X216110000Y89570000I0J-150000D01*
G01*
X216110000Y89270000D01*
G75*
G02*
X215960000Y89120000I-150000J0D01*
G01*
X214310000Y89120000D01*
G75*
G02*
X214160000Y89270000I0J150000D01*
G01*
G37*
G36*
G01*
X214160000Y90540000D02*
X214160000Y90840000D01*
G75*
G02*
X214310000Y90990000I150000J0D01*
G01*
X215960000Y90990000D01*
G75*
G02*
X216110000Y90840000I0J-150000D01*
G01*
X216110000Y90540000D01*
G75*
G02*
X215960000Y90390000I-150000J0D01*
G01*
X214310000Y90390000D01*
G75*
G02*
X214160000Y90540000I0J150000D01*
G01*
G37*
G36*
G01*
X214160000Y91810000D02*
X214160000Y92110000D01*
G75*
G02*
X214310000Y92260000I150000J0D01*
G01*
X215960000Y92260000D01*
G75*
G02*
X216110000Y92110000I0J-150000D01*
G01*
X216110000Y91810000D01*
G75*
G02*
X215960000Y91660000I-150000J0D01*
G01*
X214310000Y91660000D01*
G75*
G02*
X214160000Y91810000I0J150000D01*
G01*
G37*
D17*
X40640000Y93980000D03*
D18*
X38100000Y93980000D03*
X35560000Y93980000D03*
X33020000Y93980000D03*
X30480000Y93980000D03*
G36*
G01*
X106515000Y145550000D02*
X106515000Y145350000D01*
G75*
G02*
X106465000Y145300000I-50000J0D01*
G01*
X105895000Y145300000D01*
G75*
G02*
X105845000Y145350000I0J50000D01*
G01*
X105845000Y145550000D01*
G75*
G02*
X105895000Y145600000I50000J0D01*
G01*
X106465000Y145600000D01*
G75*
G02*
X106515000Y145550000I0J-50000D01*
G01*
G37*
G36*
G01*
X106515000Y146050000D02*
X106515000Y145850000D01*
G75*
G02*
X106465000Y145800000I-50000J0D01*
G01*
X105895000Y145800000D01*
G75*
G02*
X105845000Y145850000I0J50000D01*
G01*
X105845000Y146050000D01*
G75*
G02*
X105895000Y146100000I50000J0D01*
G01*
X106465000Y146100000D01*
G75*
G02*
X106515000Y146050000I0J-50000D01*
G01*
G37*
G36*
G01*
X106515000Y146550000D02*
X106515000Y146350000D01*
G75*
G02*
X106465000Y146300000I-50000J0D01*
G01*
X105895000Y146300000D01*
G75*
G02*
X105845000Y146350000I0J50000D01*
G01*
X105845000Y146550000D01*
G75*
G02*
X105895000Y146600000I50000J0D01*
G01*
X106465000Y146600000D01*
G75*
G02*
X106515000Y146550000I0J-50000D01*
G01*
G37*
G36*
G01*
X106515000Y147050000D02*
X106515000Y146850000D01*
G75*
G02*
X106465000Y146800000I-50000J0D01*
G01*
X105895000Y146800000D01*
G75*
G02*
X105845000Y146850000I0J50000D01*
G01*
X105845000Y147050000D01*
G75*
G02*
X105895000Y147100000I50000J0D01*
G01*
X106465000Y147100000D01*
G75*
G02*
X106515000Y147050000I0J-50000D01*
G01*
G37*
G36*
G01*
X105035000Y147050000D02*
X105035000Y146850000D01*
G75*
G02*
X104985000Y146800000I-50000J0D01*
G01*
X104415000Y146800000D01*
G75*
G02*
X104365000Y146850000I0J50000D01*
G01*
X104365000Y147050000D01*
G75*
G02*
X104415000Y147100000I50000J0D01*
G01*
X104985000Y147100000D01*
G75*
G02*
X105035000Y147050000I0J-50000D01*
G01*
G37*
G36*
G01*
X105035000Y146550000D02*
X105035000Y146350000D01*
G75*
G02*
X104985000Y146300000I-50000J0D01*
G01*
X104415000Y146300000D01*
G75*
G02*
X104365000Y146350000I0J50000D01*
G01*
X104365000Y146550000D01*
G75*
G02*
X104415000Y146600000I50000J0D01*
G01*
X104985000Y146600000D01*
G75*
G02*
X105035000Y146550000I0J-50000D01*
G01*
G37*
G36*
G01*
X105035000Y146050000D02*
X105035000Y145850000D01*
G75*
G02*
X104985000Y145800000I-50000J0D01*
G01*
X104415000Y145800000D01*
G75*
G02*
X104365000Y145850000I0J50000D01*
G01*
X104365000Y146050000D01*
G75*
G02*
X104415000Y146100000I50000J0D01*
G01*
X104985000Y146100000D01*
G75*
G02*
X105035000Y146050000I0J-50000D01*
G01*
G37*
G36*
G01*
X105035000Y145550000D02*
X105035000Y145350000D01*
G75*
G02*
X104985000Y145300000I-50000J0D01*
G01*
X104415000Y145300000D01*
G75*
G02*
X104365000Y145350000I0J50000D01*
G01*
X104365000Y145550000D01*
G75*
G02*
X104415000Y145600000I50000J0D01*
G01*
X104985000Y145600000D01*
G75*
G02*
X105035000Y145550000I0J-50000D01*
G01*
G37*
G36*
G01*
X19891000Y116515000D02*
X19891000Y116145000D01*
G75*
G02*
X19756000Y116010000I-135000J0D01*
G01*
X19486000Y116010000D01*
G75*
G02*
X19351000Y116145000I0J135000D01*
G01*
X19351000Y116515000D01*
G75*
G02*
X19486000Y116650000I135000J0D01*
G01*
X19756000Y116650000D01*
G75*
G02*
X19891000Y116515000I0J-135000D01*
G01*
G37*
G36*
G01*
X18871000Y116515000D02*
X18871000Y116145000D01*
G75*
G02*
X18736000Y116010000I-135000J0D01*
G01*
X18466000Y116010000D01*
G75*
G02*
X18331000Y116145000I0J135000D01*
G01*
X18331000Y116515000D01*
G75*
G02*
X18466000Y116650000I135000J0D01*
G01*
X18736000Y116650000D01*
G75*
G02*
X18871000Y116515000I0J-135000D01*
G01*
G37*
G36*
G01*
X140140000Y142515000D02*
X140140000Y142885000D01*
G75*
G02*
X140275000Y143020000I135000J0D01*
G01*
X140545000Y143020000D01*
G75*
G02*
X140680000Y142885000I0J-135000D01*
G01*
X140680000Y142515000D01*
G75*
G02*
X140545000Y142380000I-135000J0D01*
G01*
X140275000Y142380000D01*
G75*
G02*
X140140000Y142515000I0J135000D01*
G01*
G37*
G36*
G01*
X141160000Y142515000D02*
X141160000Y142885000D01*
G75*
G02*
X141295000Y143020000I135000J0D01*
G01*
X141565000Y143020000D01*
G75*
G02*
X141700000Y142885000I0J-135000D01*
G01*
X141700000Y142515000D01*
G75*
G02*
X141565000Y142380000I-135000J0D01*
G01*
X141295000Y142380000D01*
G75*
G02*
X141160000Y142515000I0J135000D01*
G01*
G37*
G36*
G01*
X200982500Y22235000D02*
X200982500Y23485000D01*
G75*
G02*
X201232500Y23735000I250000J0D01*
G01*
X201857500Y23735000D01*
G75*
G02*
X202107500Y23485000I0J-250000D01*
G01*
X202107500Y22235000D01*
G75*
G02*
X201857500Y21985000I-250000J0D01*
G01*
X201232500Y21985000D01*
G75*
G02*
X200982500Y22235000I0J250000D01*
G01*
G37*
G36*
G01*
X203907500Y22235000D02*
X203907500Y23485000D01*
G75*
G02*
X204157500Y23735000I250000J0D01*
G01*
X204782500Y23735000D01*
G75*
G02*
X205032500Y23485000I0J-250000D01*
G01*
X205032500Y22235000D01*
G75*
G02*
X204782500Y21985000I-250000J0D01*
G01*
X204157500Y21985000D01*
G75*
G02*
X203907500Y22235000I0J250000D01*
G01*
G37*
G36*
G01*
X15787000Y122824000D02*
X15787000Y121524000D01*
G75*
G02*
X15537000Y121274000I-250000J0D01*
G01*
X14887000Y121274000D01*
G75*
G02*
X14637000Y121524000I0J250000D01*
G01*
X14637000Y122824000D01*
G75*
G02*
X14887000Y123074000I250000J0D01*
G01*
X15537000Y123074000D01*
G75*
G02*
X15787000Y122824000I0J-250000D01*
G01*
G37*
G36*
G01*
X12837000Y122824000D02*
X12837000Y121524000D01*
G75*
G02*
X12587000Y121274000I-250000J0D01*
G01*
X11937000Y121274000D01*
G75*
G02*
X11687000Y121524000I0J250000D01*
G01*
X11687000Y122824000D01*
G75*
G02*
X11937000Y123074000I250000J0D01*
G01*
X12587000Y123074000D01*
G75*
G02*
X12837000Y122824000I0J-250000D01*
G01*
G37*
D17*
X40520000Y139800000D03*
D18*
X37980000Y139800000D03*
X35440000Y139800000D03*
X32900000Y139800000D03*
X30360000Y139800000D03*
G36*
G01*
X170620000Y73935000D02*
X170620000Y74305000D01*
G75*
G02*
X170755000Y74440000I135000J0D01*
G01*
X171025000Y74440000D01*
G75*
G02*
X171160000Y74305000I0J-135000D01*
G01*
X171160000Y73935000D01*
G75*
G02*
X171025000Y73800000I-135000J0D01*
G01*
X170755000Y73800000D01*
G75*
G02*
X170620000Y73935000I0J135000D01*
G01*
G37*
G36*
G01*
X171640000Y73935000D02*
X171640000Y74305000D01*
G75*
G02*
X171775000Y74440000I135000J0D01*
G01*
X172045000Y74440000D01*
G75*
G02*
X172180000Y74305000I0J-135000D01*
G01*
X172180000Y73935000D01*
G75*
G02*
X172045000Y73800000I-135000J0D01*
G01*
X171775000Y73800000D01*
G75*
G02*
X171640000Y73935000I0J135000D01*
G01*
G37*
G36*
G01*
X218345000Y124210000D02*
X218345000Y124710000D01*
G75*
G02*
X218570000Y124935000I225000J0D01*
G01*
X219020000Y124935000D01*
G75*
G02*
X219245000Y124710000I0J-225000D01*
G01*
X219245000Y124210000D01*
G75*
G02*
X219020000Y123985000I-225000J0D01*
G01*
X218570000Y123985000D01*
G75*
G02*
X218345000Y124210000I0J225000D01*
G01*
G37*
G36*
G01*
X219895000Y124210000D02*
X219895000Y124710000D01*
G75*
G02*
X220120000Y124935000I225000J0D01*
G01*
X220570000Y124935000D01*
G75*
G02*
X220795000Y124710000I0J-225000D01*
G01*
X220795000Y124210000D01*
G75*
G02*
X220570000Y123985000I-225000J0D01*
G01*
X220120000Y123985000D01*
G75*
G02*
X219895000Y124210000I0J225000D01*
G01*
G37*
G36*
G01*
X212060000Y133290000D02*
X212060000Y134590000D01*
G75*
G02*
X212710000Y135240000I650000J0D01*
G01*
X214010000Y135240000D01*
G75*
G02*
X214660000Y134590000I0J-650000D01*
G01*
X214660000Y133290000D01*
G75*
G02*
X214010000Y132640000I-650000J0D01*
G01*
X212710000Y132640000D01*
G75*
G02*
X212060000Y133290000I0J650000D01*
G01*
G37*
D10*
X213360000Y130840000D03*
G36*
G01*
X212060000Y141590000D02*
X212060000Y142890000D01*
G75*
G02*
X212710000Y143540000I650000J0D01*
G01*
X214010000Y143540000D01*
G75*
G02*
X214660000Y142890000I0J-650000D01*
G01*
X214660000Y141590000D01*
G75*
G02*
X214010000Y140940000I-650000J0D01*
G01*
X212710000Y140940000D01*
G75*
G02*
X212060000Y141590000I0J650000D01*
G01*
G37*
G36*
G01*
X217605000Y86010000D02*
X217235000Y86010000D01*
G75*
G02*
X217100000Y86145000I0J135000D01*
G01*
X217100000Y86415000D01*
G75*
G02*
X217235000Y86550000I135000J0D01*
G01*
X217605000Y86550000D01*
G75*
G02*
X217740000Y86415000I0J-135000D01*
G01*
X217740000Y86145000D01*
G75*
G02*
X217605000Y86010000I-135000J0D01*
G01*
G37*
G36*
G01*
X217605000Y87030000D02*
X217235000Y87030000D01*
G75*
G02*
X217100000Y87165000I0J135000D01*
G01*
X217100000Y87435000D01*
G75*
G02*
X217235000Y87570000I135000J0D01*
G01*
X217605000Y87570000D01*
G75*
G02*
X217740000Y87435000I0J-135000D01*
G01*
X217740000Y87165000D01*
G75*
G02*
X217605000Y87030000I-135000J0D01*
G01*
G37*
G36*
G01*
X48700000Y73935000D02*
X48700000Y74305000D01*
G75*
G02*
X48835000Y74440000I135000J0D01*
G01*
X49105000Y74440000D01*
G75*
G02*
X49240000Y74305000I0J-135000D01*
G01*
X49240000Y73935000D01*
G75*
G02*
X49105000Y73800000I-135000J0D01*
G01*
X48835000Y73800000D01*
G75*
G02*
X48700000Y73935000I0J135000D01*
G01*
G37*
G36*
G01*
X49720000Y73935000D02*
X49720000Y74305000D01*
G75*
G02*
X49855000Y74440000I135000J0D01*
G01*
X50125000Y74440000D01*
G75*
G02*
X50260000Y74305000I0J-135000D01*
G01*
X50260000Y73935000D01*
G75*
G02*
X50125000Y73800000I-135000J0D01*
G01*
X49855000Y73800000D01*
G75*
G02*
X49720000Y73935000I0J135000D01*
G01*
G37*
M02*
